<svg width="361" height="325" xmlns="http://www.w3.org/2000/svg" xmlns:xlink="http://www.w3.org/1999/xlink" overflow="hidden"><g transform="translate(-830 -325)"><path d="M831 326 1190 326 1190 519 831 519Z" fill="#BE5949" fill-rule="evenodd"/><path d="M840 335 1181 335 1181 509 840 509Z" fill="#3B3945" fill-rule="evenodd"/><path d="M836.785 365C836.785 365 855.737 478.256 938.245 497.92 1147.3 547.74 1188.84 389.708 1188.84 389.708L1191 518.227 831 519 833.703 379.662 836.785 365Z" fill="#33313D" fill-rule="evenodd"/><path d="M1086.67 377.5 1081.5 413.548 1123.67 422.5 1130.5 384.802Z" stroke="#FFFFFF" stroke-width="3" stroke-miterlimit="8" fill="none" fill-rule="evenodd"/><path d="M1123.5 423.5 1137.17 415.546 1142.5 377.5 1129.58 385.077" stroke="#FFFFFF" stroke-width="3" stroke-miterlimit="8" fill="none" fill-rule="evenodd"/><path d="M1086.5 377.5 1108.22 370.5 1143.5 376.604" stroke="#FFFFFF" stroke-width="3" stroke-miterlimit="8" fill="none" fill-rule="evenodd"/><path d="M897.07 381.132C896.585 381.29 896.099 381.43 895.606 381.588 895.097 379.517 894.581 377.447 893.988 375.435 893.363 374.458 891.838 375.278 892.169 376.412 892.5 378.383 892.862 380.354 893.232 382.325 892.531 382.532 891.822 382.747 891.121 382.962 890.45 383.236 889.58 383.294 889.187 384.022 888.57 385.074 889.587 386.499 890.697 386.134 891.706 385.795 892.755 385.571 893.81 385.356 893.988 386.267 894.157 387.186 894.334 388.097 894.589 389.405 894.912 390.697 895.336 391.956 895.421 392.312 895.652 392.627 895.945 392.809 896.662 393.281 897.671 392.834 897.879 391.964 898.033 391.128 897.432 388.9 897.008 387.07 896.793 386.3 896.592 385.521 896.4 384.743 897.086 384.552 897.756 384.321 898.403 384.014 899.737 382.987 898.635 380.635 897.07 381.132Z" fill="#FFFFFF" fill-rule="evenodd"/><path d="M919.519 385.919C918.644 385.065 917.367 385.623 916.3 385.714 915.057 385.919 913.814 386.149 912.579 386.42 914.164 384.17 915.582 381.74 916.508 379.269 917.726 376.092 916.608 372.324 913.113 371.215 910.085 370.206 907.099 372.931 906.023 375.509 905.772 376.757 907.658 377.381 908.267 376.273 909.351 374.77 910.469 373.711 911.895 373.793 912.729 374.048 912.996 374.22 913.664 374.877 914.239 375.887 914.331 376.888 914.022 378.128 913.297 380.624 911.495 383.243 909.618 386.091 909.109 386.994 908.767 386.904 908.058 388.209 907.791 389.104 908.559 390.015 909.493 389.999 910.819 390.024 911.486 389.605 913.472 389.342 916.074 388.866 915.616 389.17 918.977 388.587 920.07 388.226 920.345 386.682 919.519 385.919Z" fill="#FFFFFF" fill-rule="evenodd"/><path d="M937.157 368.057C936.012 368.295 934.857 368.541 933.746 368.928 933.186 369.156 932.505 369.262 932.195 369.85 931.549 370.896 932.617 372.303 933.772 371.942 935.124 371.459 936.546 371.266 937.941 370.958 939.785 370.387 939.027 367.565 937.157 368.057Z" fill="#FFFFFF" fill-rule="evenodd"/><path d="M936.115 377.059C934.966 377.4 933.809 377.757 932.694 378.182 932.226 378.402 931.61 378.478 931.307 378.903 930.445 379.813 931.545 381.308 932.784 380.944 933.768 380.565 934.77 380.223 935.812 379.988 936.337 379.821 936.977 379.821 937.412 379.479 938.724 378.622 937.641 376.634 936.115 377.059Z" fill="#FFFFFF" fill-rule="evenodd"/><path d="M881.014 386.035C880.177 384.59 878.802 384.08 877.338 384.012 878.866 382.126 880.443 379.823 878.56 378.327 877.523 377.664 876.268 378.191 875.158 378.335 872.97 378.777 870.766 379.194 868.667 380.001 867.428 380.621 868.055 382.669 869.407 382.397 871.08 381.896 873.702 381.514 875.512 381.31 874.981 382.032 874.313 382.848 873.774 383.536 873.284 384.233 872.576 384.854 872.447 385.754 872.343 387.395 873.871 387.785 875.11 387.454 875.287 387.42 875.697 387.386 875.93 387.369 876.517 387.361 876.228 387.293 877.45 387.437 877.491 387.446 877.539 387.454 877.579 387.462 877.611 387.471 877.635 387.48 877.684 387.497 877.78 387.53 877.861 387.573 877.949 387.624 878.07 387.701 878.19 387.785 878.311 387.87 878.448 388.015 878.577 388.159 878.689 388.321 879.276 389.647 879.027 391.125 876.718 392.808 876.196 393.19 874.667 393.887 872.785 394.219 871.836 394.457 870.734 394.287 869.881 394.822 868.908 395.4 868.916 397.04 869.841 397.669 870.75 398.111 870.75 398.001 871.072 397.949 871.08 397.949 871.088 397.949 871.104 397.958 871.12 397.958 871.144 397.958 871.16 397.958 871.136 397.958 871.112 397.958 871.096 397.958 871.184 397.941 871.289 397.932 871.442 397.941 872.801 397.873 874.136 397.593 875.439 397.193 877.072 396.726 878.568 395.867 879.767 394.601 881.987 392.485 882.824 388.661 881.014 386.035Z" fill="#FFFFFF" fill-rule="evenodd"/><path d="M872 398C871.974 398 871.948 398 871.921 398 871.605 398.463 871.316 398.932 871 398.932 871.316 398.932 871.789 399.395 872 398Z" fill="#FFFFFF" fill-rule="evenodd"/><path d="M1092.39 453.773C1091.44 455.646 1090.64 457.578 1089.9 459.553 1089.43 459.417 1088.92 459.332 1088.5 459.221 1086.48 458.71 1085.05 458.532 1083.65 458.302 1084.75 457.051 1086.39 455.348 1087.57 454.114 1088.24 453.416 1088.93 452.726 1089.63 452.062 1089.93 451.781 1090.27 451.466 1090.25 451.015 1090.27 450.139 1089.14 449.653 1088.55 450.292 1086.02 452.53 1083.63 454.914 1081.19 457.246 1080.16 457.995 1079.44 459.443 1080.59 460.447 1082.09 461.562 1084.09 461.647 1085.83 462.166 1086.69 462.303 1087.74 462.711 1088.7 462.941 1088.25 464.295 1087.83 465.657 1087.42 467.027 1087.07 468.261 1086.73 469.504 1086.37 470.747 1086.19 471.419 1086.42 472.228 1086.99 472.62 1087.64 473.198 1088.68 473.088 1089.27 472.483 1089.86 471.828 1089.89 470.858 1090.18 470.049 1090.86 467.546 1091.58 465.052 1092.46 462.618 1093.1 460.796 1093.69 458.966 1094.3 457.127 1094.54 456.216 1095.04 455.28 1095 454.335 1094.92 452.973 1093 452.599 1092.39 453.773Z" fill="#FFFFFF" fill-rule="evenodd"/><path d="M1104.14 460.83C1102.45 460.3 1100.55 460.528 1098.8 460.243 1097.63 460.235 1096.14 459.786 1095.06 460.129 1093.3 460.765 1093.87 463.439 1095.74 463.398 1097.71 463.562 1099.68 463.741 1101.65 463.896 1102.6 463.92 1103.75 464.279 1104.5 463.505 1105.31 462.754 1105.1 461.368 1104.14 460.83Z" fill="#FFFFFF" fill-rule="evenodd"/><path d="M1121.5 462.83C1120.92 461.221 1119.65 460.443 1118.22 460.097 1120.05 458.506 1122 456.508 1120.4 454.649 1119.49 453.784 1118.16 454.069 1117.03 454 1114.79 454.017 1112.55 454.009 1110.34 454.406 1109 454.787 1109.28 456.958 1110.66 456.949 1112.4 456.776 1115.05 456.906 1116.87 457.053 1116.22 457.667 1115.42 458.359 1114.77 458.938 1114.16 459.535 1113.36 460.028 1113.08 460.901 1112.69 462.518 1114.14 463.21 1115.42 463.115 1115.61 463.115 1116.01 463.158 1116.25 463.184 1116.83 463.288 1116.56 463.167 1117.73 463.548 1117.77 463.565 1117.82 463.582 1117.86 463.599 1117.88 463.617 1117.91 463.625 1117.95 463.651 1118.04 463.703 1118.11 463.764 1118.19 463.824 1118.3 463.928 1118.4 464.032 1118.51 464.144 1118.61 464.309 1118.72 464.482 1118.8 464.663 1119.15 466.099 1118.65 467.534 1116.09 468.771 1115.51 469.056 1113.87 469.454 1111.96 469.411 1110.98 469.463 1109.92 469.074 1109 469.445 1107.93 469.835 1107.66 471.478 1108.47 472.282 1109.29 472.905 1109.31 472.792 1109.64 472.801 1109.65 472.801 1109.66 472.81 1109.67 472.81 1109.68 472.81 1109.71 472.81 1109.72 472.818 1109.7 472.81 1109.67 472.81 1109.66 472.801 1109.75 472.801 1109.85 472.818 1110.01 472.853 1111.35 473.052 1112.73 473.034 1114.08 472.888 1115.77 472.741 1117.4 472.17 1118.8 471.132 1121.34 469.48 1122.84 465.813 1121.5 462.83Z" fill="#FFFFFF" fill-rule="evenodd"/><path d="M1110 472.882C1109.97 472.882 1109.95 472.882 1109.92 472.882 1109.61 472.442 1109.32 472.442 1109 472 1109.32 472.442 1109.76 473.322 1110 472.882Z" fill="#FFFFFF" fill-rule="evenodd"/><path d="M1136.8 460.83C1136.29 459.959 1135.15 460.08 1134.27 460.015 1133.1 460.031 1131.86 459.911 1130.72 460.161 1129.52 460.58 1129.92 462.483 1131.19 462.443 1132.49 462.564 1132.51 462.596 1134.17 462.83 1134.8 462.886 1135.51 463.152 1136.11 462.878 1136.91 462.596 1137.25 461.531 1136.8 460.83Z" fill="#FFFFFF" fill-rule="evenodd"/><path d="M1134.33 466.247C1133.02 466.119 1131.69 466.099 1130.38 466 1130.01 466 1129.65 466.168 1129.4 466.464 1128.65 467.274 1129.01 468.825 1130.01 469.112 1131.02 469.368 1132.02 469.605 1133.03 469.793 1134 470.06 1135.21 470.267 1135.77 469.092 1136.43 467.897 1135.58 466.198 1134.33 466.247Z" fill="#FFFFFF" fill-rule="evenodd"/><path d="M918.478 423.953C914.385 425.815 911.044 429.064 908.433 433.044 907.827 427.399 904.11 421.524 899.214 417.766 897.986 416.757 896.652 415.887 895.301 415.067 894.441 414.591 893.541 414.033 892.534 414 890.708 414.057 890.978 415.953 891.068 416.289 891.126 416.724 891.175 417.159 891.216 417.594 891.281 418.308 891.339 419.021 891.363 419.735 891.429 423.986 890.692 428.441 892.493 432.453 893.639 435.719 895.841 438.533 898.74 440.428 900.36 441.257 902.153 442.102 904.012 442.028 903.635 442.964 903.291 443.916 903.038 444.892 902.939 445.606 902.596 446.41 902.89 447.107 903.218 448.059 904.585 448.305 905.264 447.575 905.952 446.582 905.535 446.96 905.797 446.115 907.467 440.56 910.357 434.669 914.254 430.558 916.088 428.58 918.445 426.701 918.74 426.521 919.207 426.217 919.821 426.029 919.96 425.421 920.197 424.56 919.338 423.69 918.478 423.953ZM899.599 438.082C897.299 436.498 895.203 433.618 894.31 430.525 893.197 427.481 893.958 423.633 893.86 419.694 893.852 419.21 893.745 418.037 893.647 417.126 893.655 417.126 893.655 417.134 893.664 417.134 894.883 417.865 896.095 418.628 897.225 419.497 898.027 419.94 901.859 423.707 902.284 424.543 904.986 428.359 906.566 432.855 905.919 436.236 905.903 436.408 905.862 436.58 905.821 436.753 904.945 435.276 903.922 433.873 903.103 432.363 901.842 430.041 900.934 427.547 899.779 425.167 898.813 423.403 897.7 421.245 896.103 420.014 895.08 419.514 894.097 420.983 894.933 421.762 897.143 424.109 899.329 429.836 900.582 432.765 901.466 434.611 903.275 437.852 904.233 439.641 903.16 439.797 901.163 439.066 899.599 438.082Z" fill="#237C74" fill-rule="evenodd"/><path d="M924.227 453.136C923.164 450.479 921.377 448.051 918.985 446.407 916.426 444.87 913.336 443.84 910.312 444.176 908.601 444.314 906.964 444.821 905.419 445.549 904.996 445.672 904.655 445.917 904.397 446.219 904.339 446.17 904.281 446.129 904.215 446.089 892.917 439.818 885.307 448.533 885 460.723 885.116 464.525 885.091 468.702 887.251 472.005 888.963 474.352 891.812 475.782 894.661 476.257 898.242 476.755 900.177 476.346 902.96 477.27 904.53 477.769 904.788 478.072 906.956 478.685 908.576 479.093 910.271 479.093 911.899 478.75 914.208 478.382 916.077 476.894 917.78 475.414 923.521 470.247 926.52 460.494 924.227 453.136ZM918.636 468.899C916.484 472.651 912.995 475.447 910.246 475.545 908.078 475.897 906.117 474.605 903.176 473.763 900.377 473.011 896.431 473.191 894.969 472.896 895.135 472.921 895.367 472.954 895.093 472.913 888.547 471.686 888.032 467.55 888.124 459.587 888.564 452.842 891.953 447.168 896.763 447.045 898.964 446.955 901.448 447.814 902.802 448.435 904.78 449.956 907.737 448.01 908.044 448.133 910.213 447.503 910.171 447.478 912.447 447.552 916.393 448.19 919.242 450.299 920.871 454.035 922.441 458.965 921.145 464.279 918.636 468.899Z" fill="#D63845" fill-rule="evenodd"/><path d="M957.66 491C951.167 505.161 943.225 518.649 934 531.173 937.876 534.304 945.456 540.334 950.196 543 959.356 531.555 967.273 519.288 977 507.054 974.391 504.38 968.499 500.626 965.372 498.599 962.252 496.573 959.216 493.94 957.66 491Z" fill="#FDAE86" fill-rule="evenodd"/><path d="M954 498C954 498 964.098 518.181 969.299 516.946L976 508.602C976 508.602 956.942 498.115 954 498Z" fill="#F28361" fill-rule="evenodd"/><path d="M1060.73 493C1063.93 508.167 1068.73 523.012 1075 537.214 1070.46 539.367 1061.61 543.491 1056.33 545 1049.89 531.862 1044.84 518.204 1038 504.167 1041.18 502.171 1047.84 499.87 1051.4 498.616 1054.95 497.363 1058.53 495.491 1060.73 493Z" fill="#FDAE86" fill-rule="evenodd"/><path d="M1063 500.035C1063 500.035 1048.41 518.212 1043.61 515.775L1039 505.779C1039 505.779 1060.1 499.481 1063 500.035Z" fill="#F28361" fill-rule="evenodd"/><path d="M1050.94 620.938C1050.85 624.908 1050.66 628.87 1050.36 632.823 1050.29 633.756 1050.22 634.689 1050.14 635.621 1050.14 635.695 1050.13 635.778 1050.12 635.852 1050.03 636.925 1049.92 637.998 1049.82 639.071 1049.77 639.451 1049.74 639.831 1049.69 640.21 1049.61 641.019 1049.52 641.82 1049.42 642.628 1049.36 643.115 1049.31 643.611 1049.24 644.097 1049.17 644.716 1049.09 645.336 1049 645.955 1048.86 646.97 1048.71 647.985 1048.56 649L951.015 649C951.015 649 951.007 649 951.007 648.992 950.916 648.81 950.826 648.629 950.752 648.447 950.669 648.257 950.595 648.067 950.529 647.869 950.48 647.721 950.43 647.572 950.389 647.415 950.364 647.333 950.34 647.242 950.323 647.16 950.282 647.003 950.241 646.838 950.216 646.681 950.175 646.483 950.142 646.293 950.117 646.103 950.019 645.484 949.969 644.865 949.944 644.279 949.343 632.023 948.734 619.766 948.133 607.51 947.391 589.567 949.73 570.733 955.8 554.094 955.833 553.995 955.874 553.896 955.915 553.788 956.689 551.667 957.529 549.587 958.435 547.549 958.468 547.491 958.493 547.425 958.518 547.367 962.438 538.552 967.527 530.53 973.885 523.82 975.491 522.128 977.179 520.519 978.95 519 996.121 531.157 1016.28 531.413 1034.45 521.641 1045.43 553.194 1051.71 587.339 1050.94 620.938Z" fill="#6F4659" fill-rule="evenodd"/><path d="M1051 620.979C1050.91 624.943 1050.72 628.899 1050.42 632.847 1050.36 633.778 1050.28 634.709 1050.2 635.641 1050.2 635.715 1050.19 635.797 1050.18 635.871 1050.09 636.943 1049.99 638.014 1049.88 639.085 1049.84 639.465 1049.81 639.844 1049.76 640.223 1049.67 641.03 1049.58 641.83 1049.48 642.638 1049.43 643.124 1049.37 643.618 1049.3 644.105 1049.23 644.723 1049.15 645.341 1049.06 645.959 1048.92 646.973 1048.78 647.986 1048.63 649L951.017 649C951.017 649 951.009 649 951.009 648.992 950.918 648.81 950.827 648.629 950.753 648.448 950.671 648.258 950.597 648.069 950.531 647.871 950.481 647.723 950.432 647.574 950.391 647.418 950.366 647.335 950.341 647.245 950.325 647.162 950.284 647.006 950.242 646.841 950.218 646.684 950.176 646.486 950.143 646.297 950.119 646.107 950.02 645.489 949.97 644.871 949.946 644.286 949.344 632.047 948.734 619.808 948.133 607.57 947.391 589.652 949.731 570.845 955.805 554.23 955.838 554.131 955.879 554.032 955.92 553.925 956.728 551.848 957.576 549.755 958.442 547.695 958.475 547.637 958.499 547.571 958.524 547.513 962.447 538.711 967.539 530.7 973.901 524 973.357 532.547 967.836 638.813 1033.91 630.522 1033.91 630.522 1045.5 629.74 1051 620.979Z" fill="#6B3E57" fill-rule="evenodd"/><path d="M990 444C979.463 445.381 969.693 455.753 965.953 460.618 959.033 469.609 952.376 478.797 946 488.166 951.124 496.311 958.349 503.116 966.793 507.767 968.614 508.77 973.005 512.575 974.99 511.926 976.712 511.359 975.575 506.88 976.572 505.376 979.126 501.538 981.729 497.56 982.586 493.023 983.096 490.303 982.948 487.517 982.899 484.747 982.685 472.378 987.38 456.163 990 444Z" fill="#F06EA2" fill-rule="evenodd"/><path d="M1041.47 451C1051.02 456.18 1061.02 476.107 1068.17 488.529 1069.12 490.178 1070.09 491.952 1069.99 493.841 1069.86 496.67 1067.45 498.831 1065.08 500.447 1056.55 506.27 1046.08 509.306 1035.69 508.976 1035.02 508.951 1034.31 508.901 1033.79 508.497 1032.98 507.87 1032.96 506.683 1033.02 505.668 1034.05 488.355 1035.01 469.467 1041.47 451Z" fill="#F06EA2" fill-rule="evenodd"/><path d="M998.804 443C992.434 443.189 985.445 443.618 980.8 447.967 977.178 451.36 975.767 456.45 974.752 461.31 972.103 473.969 973.101 486.126 973.638 499.049 973.943 506.379 972.879 514.962 977.202 520.678 994.332 530.619 1016.29 531.764 1034.82 523.519 1044.87 504.913 1049.38 483.367 1047.63 462.306 1047.44 459.959 1047.15 457.554 1046.04 455.47 1043.7 451.063 1038.43 449.251 1033.65 447.818 1028.86 446.385 1023.44 445.001 1019.08 447.439 1016.89 448.658 1015.3 450.685 1013.45 452.373 1011.44 454.21 1009.09 455.668 1006.55 456.656 1005.53 457.051 1004.39 457.381 1003.35 457.018 1001.87 456.508 1001.17 454.869 1000.67 453.394 999.546 450.124 998.54 446.838 998.804 443Z" fill="#FE80AB" fill-rule="evenodd"/><path d="M1005.65 441.725C1003.13 440.506 999.964 440.901 997.57 442.338 995.185 443.783 993.516 446.156 992.555 448.698 991.594 451.241 991.274 453.969 991.122 456.665 990.903 460.418 990.979 464.188 991.35 467.933 991.442 468.893 991.577 469.902 992.184 470.677 993.17 471.928 995.05 472.13 996.677 471.936 1001.74 471.347 1005.98 468.119 1009.93 465.019 1010.42 464.632 1010.96 464.164 1011 463.55 1011.03 463.033 1010.69 462.573 1010.42 462.129 1009.35 460.41 1009.02 458.368 1008.71 456.382 1007.95 451.378 1007.18 446.374 1005.65 441.725Z" fill="#FFF5F7" fill-rule="evenodd"/><path d="M1024.63 443C1026.63 444.353 1028.7 445.77 1029.92 447.852 1030.96 449.618 1031.3 451.7 1031.55 453.733 1032.26 459.532 1032.35 465.599 1030.17 471.01 1029.53 472.598 1028.56 474.234 1026.96 474.793 1025.31 475.368 1023.53 474.639 1021.96 473.886 1019.93 472.922 1017.94 471.901 1015.97 470.816 1013.41 469.407 1010.65 467.568 1010.1 464.684 1009.73 462.748 1010.46 460.788 1011.29 459.006 1014.24 452.688 1018.67 447.082 1024.63 443Z" fill="#FFF5F7" fill-rule="evenodd"/><path d="M1006.09 479.636C1006.41 477.994 1007.53 476.821 1008.58 477.022 1009.63 477.223 1010.24 478.723 1009.91 480.364 1009.59 482.006 1008.47 483.179 1007.42 482.978 1006.37 482.777 1005.76 481.286 1006.09 479.636Z" fill="#FFFFFF" fill-rule="evenodd"/><path d="M1005.09 496.636C1005.41 494.994 1006.53 493.821 1007.58 494.022 1008.64 494.223 1009.23 495.723 1008.91 497.364 1008.59 499.006 1007.47 500.179 1006.42 499.978 1005.37 499.777 1004.76 498.277 1005.09 496.636Z" fill="#FFFFFF" fill-rule="evenodd"/><path d="M1003.08 515.636C1003.41 513.994 1004.53 512.821 1005.58 513.022 1006.64 513.223 1007.23 514.723 1006.91 516.364 1006.59 518.006 1005.47 519.179 1004.42 518.978 1003.36 518.777 1002.77 517.277 1003.08 515.636Z" fill="#FFFFFF" fill-rule="evenodd"/><path d="M1037 529.367C1036.48 527.4 1035.96 525.433 1035.44 523.467 1016.07 530.298 994.344 528.897 976.511 519 975.3 520.553 974.081 522.097 973 524.032 992.255 534.9 1015.88 537.193 1037 529.367Z" fill="#38324F" fill-rule="evenodd"/><path d="M1002.51 431C1002.92 436.243 1002.5 441.543 1001.27 446.656 1000.68 449.078 999.903 451.509 1000.01 454.004 1000.16 457.402 1001.99 460.604 1004.58 462.848 1007.12 465.059 1010.58 466.441 1013.92 465.872 1017.81 465.205 1020.86 462.003 1022.39 458.418 1023.91 454.833 1024.18 450.866 1024.43 446.981 1024.61 444.152 1024.79 441.323 1024.96 438.503 1025.03 437.479 1025.07 436.373 1024.49 435.511 1023.86 434.56 1022.64 434.195 1021.53 433.91 1015.22 432.276 1008.78 431.138 1002.51 431Z" fill="#FDAE86" fill-rule="evenodd"/><path d="M1002.7 436 1001 448C1001 448 1022.35 447.758 1025 438.253 1024.99 438.253 1012.57 440.813 1002.7 436Z" fill="#F28361" fill-rule="evenodd"/><path d="M1009.83 356.098C1008.41 352.38 1007.63 348.345 1008.17 344.407 1008.72 340.469 1010.68 336.63 1013.94 334.314 1016.98 332.154 1020.81 331.477 1024.53 331.159 1027.7 330.89 1030.96 330.858 1033.96 331.909 1037.84 333.271 1040.98 336.426 1042.6 340.184 1044.22 343.942 1044.38 348.247 1043.36 352.209 1042.93 353.913 1042.25 355.609 1041.01 356.872 1039.37 358.552 1036.97 359.228 1034.66 359.701 1028.93 360.883 1023.03 361.266 1017.2 360.818 1015.65 360.696 1014.08 360.516 1012.67 359.872 1011.25 359.228 1010.53 357.932 1009.83 356.098Z" fill="#732829" fill-rule="evenodd"/><path d="M989.06 403.231C983.37 396.568 982.584 390.163 983.157 381.368 985.286 348.612 1027.35 351.035 1027.47 351.043 1065.68 353.623 1066.13 401.414 1044.95 414.332 1039.69 417.543 1037.28 415.145 1031.14 415.062 1024.83 414.971 1018.46 414.714 1012.32 413.237 1006.18 411.743 995.61 410.889 989.06 403.231Z" fill="#732829" fill-rule="evenodd"/><path d="M982.057 388.417C980.899 380.533 982.776 371 987.76 364.823 992.753 358.645 1000.7 355.731 1008.28 353.458 1015.46 351.31 1023.2 350.853 1030.45 352.759 1060.91 360.81 1054.43 399.132 1053.9 407 1059.94 400.464 1062.19 384.771 1060.41 376.021 1058.63 367.279 1053.09 359.519 1045.84 354.374 1038.6 349.229 1029.78 346.59 1020.92 346.09 1014.69 345.732 1008.35 346.415 1002.48 348.563 996.613 350.711 991.223 354.358 987.405 359.328 981.28 367.32 979.668 377.861 982.057 388.417Z" fill="#914841" fill-rule="evenodd"/><path d="M1005 343.84C1007.2 338.788 1008.77 336.658 1013.95 334.642 1019.12 332.626 1030.77 331.777 1035.12 335.205 1038.62 337.947 1040.63 342.248 1041.22 346.615 1041.8 350.989 1042.11 351.764 1040.87 356 1046.04 351.577 1047.12 347.627 1044.93 341.212 1043.53 337.09 1040.55 333.605 1036.98 331.067 1032.78 328.08 1027.47 326.309 1022.38 327.256 1018.24 328.031 1014.54 330.569 1011.97 333.875 1009.38 337.18 1004.97 340.387 1005 343.84Z" fill="#914841" fill-rule="evenodd"/><path d="M1009 353.176C1020.2 349.59 1032.42 350.502 1043 355 1041.08 353.444 1038.1 347 1024.6 347 1018.99 347 1010.81 348.594 1009 353.176Z" fill="#F06EA2" fill-rule="evenodd"/><path d="M991.334 404.057C990.954 401.87 989.726 399.757 987.772 398.68 985.818 397.602 983.114 397.782 981.572 399.389 980.014 401.005 979.94 403.486 980.022 405.713 980.096 407.884 980.236 410.087 980.921 412.151 981.605 414.216 982.891 416.158 984.804 417.227 986.717 418.296 989.297 418.312 990.996 416.925 992.356 415.815 992.966 414.004 992.999 412.258 993.032 410.511 992.166 408.887 991.334 404.057Z" fill="#FAA07F" fill-rule="evenodd"/><path d="M1048.92 405.951C1050.36 404.658 1052.65 404.74 1054.22 405.853 1055.78 406.966 1056.67 408.913 1056.92 410.877 1057.16 412.84 1056.83 414.821 1056.37 416.743 1055.84 418.969 1055.12 421.186 1053.86 423.068 1052.61 424.95 1050.74 426.48 1048.58 426.897 1046.41 427.315 1043.96 426.447 1042.79 424.508 1041.9 423.019 1041.83 421.121 1042.24 419.419 1042.65 417.717 1043.48 416.162 1044.31 414.632 1045.86 411.769 1046.49 408.144 1048.92 405.951Z" fill="#FAA07F" fill-rule="evenodd"/><path d="M992.718 387.197C990.761 395.097 988.796 403.114 989.017 411.254 989.238 419.395 991.94 427.809 997.984 433.203 1001.75 436.57 1006.58 438.555 1011.54 439.457 1019.15 440.847 1027.42 439.631 1033.73 435.089 1042.81 428.545 1046.22 416.748 1049 406.249 1046.88 402.601 1045.43 398.555 1045 394.212 1030.34 390.266 1017.56 379.66 1010.68 365 1008.7 374.878 1001.7 383.589 992.718 387.197Z" fill="#FDAE86" fill-rule="evenodd"/><path d="M993 387.638C1001.48 386.278 1009.06 380.152 1012.27 372.082 1013.81 378.974 1019.55 384.159 1025.75 387.366 1031.95 390.573 1036.98 392.667 1043.38 395.461 1042.56 400.004 1045.68 404.488 1048.64 408 1050.03 401.421 1047.3 394.142 1041.96 390.16 1038.61 387.654 1034.5 386.451 1030.93 384.299 1023.25 379.666 1018.7 371.092 1011.57 365.635 1011.15 365.313 1010.68 364.992 1010.16 365 1009.27 365.017 1008.7 365.923 1008.28 366.715 1004.13 374.439 998.795 381.513 993 387.638Z" fill="#F28361" fill-rule="evenodd"/><path d="M996.569 393.995C994.05 394.155 1000.56 390.73 1003.12 390.248 1005.68 389.767 1008.46 389.945 1010.74 391.14 1011.34 391.461 1011.97 391.934 1012 392.585 1012.06 394.191 1009.56 393.147 1006.68 393.147 1001.07 393.147 998.674 393.861 996.569 393.995Z" fill="#732829" fill-rule="evenodd"/><path d="M1042.44 399.893C1044.65 400.791 1039.73 395.791 1037.57 394.593 1035.41 393.395 1032.89 392.73 1030.55 393.104 1029.92 393.204 1029.24 393.445 1029.06 394.011 1028.59 395.417 1031.09 395.242 1033.66 396.107 1038.65 397.788 1040.6 399.144 1042.44 399.893Z" fill="#732829" fill-rule="evenodd"/><path d="M1039.18 412.031C1037.43 408.139 1033.34 406.318 1029.73 407.233 1027.85 407.806 1026.27 409.193 1025 410.875 1027.43 408.934 1030.3 408.314 1032.47 408.86 1034.09 409.091 1036.47 409.923 1037.91 411.485 1038.64 412.197 1039.49 413.334 1040 414 1039.76 413.316 1039.49 412.66 1039.18 412.031Z" fill="#2B344A" fill-rule="evenodd"/><path d="M1011.18 407.312C1009.43 403.976 1005.34 402.415 1001.73 403.2 999.85 403.691 998.274 404.879 997 406.322 999.43 404.658 1002.3 404.127 1004.47 404.594 1006.1 404.792 1008.47 405.505 1009.91 406.845 1010.64 407.455 1011.49 408.429 1012 409 1011.77 408.414 1011.49 407.851 1011.18 407.312Z" fill="#2B344A" fill-rule="evenodd"/><path d="M1017 411C1015.87 412.111 1015.72 414.622 1016.45 416 1016.36 415.596 1016.31 415.221 1016.31 414.802 1016.31 414.167 1016.39 413.33 1016.45 412.811 1016.53 412.313 1016.6 411.469 1017 411Z" fill="#A83139" fill-rule="evenodd"/><path d="M1024.66 424.296C1021.13 425.65 1018.27 425.942 1014.33 425.466 1013.51 425.374 1012.71 425.207 1012 424.789 1012.89 425.75 1014.19 426.151 1015.42 426.519 1019.09 427.681 1023.39 426.695 1026.11 424.02 1026.39 423.727 1026.87 423.226 1027 423 1026.25 423.485 1025.49 423.953 1024.66 424.296Z" fill="#CC3333" fill-rule="evenodd"/><path d="M1098.41 649 1043 649C1044.36 645.325 1046.64 641.084 1048.77 638.164 1049.2 637.581 1049.61 637.056 1050.01 636.589 1063.79 634.702 1078.48 633.586 1093.13 634.144 1094.5 634.193 1095.97 634.3 1097.05 635.161 1098.26 636.129 1098.61 637.794 1098.85 639.32 1098.92 639.796 1098.97 640.329 1098.99 640.895 1099.06 643.241 1098.7 646.227 1098.41 649Z" fill="#38324F" fill-rule="evenodd"/><path d="M1112.8 555.81C1119.74 548.984 1125.62 541.105 1130.28 532.245 1128.01 525.925 1126.75 519.238 1126.57 512.534 1126.55 511.611 1126.56 510.648 1126.99 509.831 1127.43 509.015 1128.44 508.435 1129.31 508.778 1130.06 509.08 1130.41 509.921 1130.68 510.672 1131.41 512.689 1132.34 516.339 1133.29 518.323 1136.33 513.138 1138.21 508.925 1141.1 504.026 1141.47 503.397 1142.24 502.948 1142.97 503.005 1143.68 503.054 1144.23 503.674 1144.42 504.352 1144.61 505.03 1144.51 505.748 1144.38 506.434 1143.73 510.052 1142.5 513.571 1140.61 517.237 1143.26 514.436 1144.04 512.624 1147.7 508.492 1148.18 507.953 1148.86 507.529 1149.59 507.545 1150.49 507.561 1151.2 508.394 1151.36 509.268 1151.52 510.141 1151.27 511.031 1150.98 511.873 1149.9 514.967 1148.26 517.833 1146.48 520.765 1147.83 519.523 1148.89 517.923 1151.22 516.486 1151.9 516.07 1152.86 515.963 1153.48 516.453 1154.1 516.943 1154.1 517.858 1153.95 518.625 1153.26 522.047 1150.68 524.725 1148.47 527.33 1149.62 526.121 1151.02 525.149 1152.56 524.496 1153.07 524.284 1153.64 524.104 1154.15 524.3 1154.75 524.537 1155.05 525.247 1154.99 525.884 1154.94 526.521 1154.6 527.093 1154.24 527.632 1150.56 533.127 1146.76 534.45 1141.7 537.463 1135.87 551.107 1126.29 566.164 1117.66 578.273 1117.41 578.616 1117.1 579 1116.67 579 1116.25 579 1115.94 578.625 1115.7 578.282 1111.13 571.635 1107.11 561.404 1112.8 555.81Z" fill="#FDAE86" fill-rule="evenodd"/><path d="M1098.74 610C1103.84 601.415 1127.74 587.603 1124.74 583.2 1123.2 580.936 1118.67 572.672 1114.15 569.017 1113.94 568.853 1113.51 569.915 1113.25 569.873 1112.76 569.791 1111.48 569.536 1111.13 569.873 1107.43 573.314 1103.34 576.343 1098.96 578.895 1097.19 579.924 1095.26 580.994 1094.45 582.829 1093.82 584.245 1093.98 585.85 1094.17 587.381 1095.02 594.155 1097.64 603.67 1098.74 610Z" fill="#FD6B2C" fill-rule="evenodd"/><path d="M1071.63 583.039C1066.58 583.155 1057.3 588.852 1052.77 593.367 1049.2 596.931 1056.08 600.504 1055.15 605.449 1053.11 616.19 1051.06 626.923 1049 638.161 1064.94 644.785 1083.11 645.926 1100.35 640.799 1100.49 630.909 1100.62 621.019 1100.76 611.121 1100.83 605.697 1100.91 600.28 1100.99 594.856 1101.02 592.838 1101.02 590.688 1099.96 588.96 1098.69 586.868 1096.2 585.9 1093.84 585.231 1086.55 583.163 1078.84 582.874 1071.63 583.039Z" fill="#FD6B2C" fill-rule="evenodd"/><path d="M1103.14 588.114C1103.14 588.114 1103.71 622.023 1082.88 634.612 1067.88 643.667 1049.17 635.561 1049.17 635.561L1047 638.334C1047 638.334 1090.94 650.271 1102.77 642.198 1114.6 634.108 1109.85 585.34 1103.14 588.114Z" fill="#F75D25" fill-rule="evenodd"/><path d="M1083 582.14C1084.48 585.841 1084.5 589.575 1084.83 593.942 1088.64 591.255 1092.95 590.881 1097 594 1096.99 587.138 1091.11 577.832 1087.48 579.121 1085.69 579.761 1084.18 581.017 1083 582.14Z" fill="#FFEFE0" fill-rule="evenodd"/><path d="M1075.76 578.019C1072.57 577.78 1069.49 579.776 1068.09 582.415 1066.69 585.054 1066.76 588.188 1067.61 591.017 1068.46 593.846 1070.04 596.435 1071.6 599 1075.14 595.973 1079.99 594.266 1085 594.06 1081.6 588.749 1078.72 583.166 1075.76 578.019Z" fill="#FFEFE0" fill-rule="evenodd"/><path d="M1088.73 588.176C1088.59 588.647 1088.41 589.103 1088.23 589.55 1087.51 591.308 1086.58 593.282 1084.75 593.841 1083.45 594.249 1082.05 593.809 1080.82 593.218 1079.05 592.363 1077.47 591.148 1076.16 589.702 1074.41 587.784 1073.14 585.443 1072.48 582.95 1072.16 581.727 1072 580.472 1072 579.21 1074.04 577.523 1076.84 577.827 1079.3 578.746 1081.77 579.665 1083.97 581.151 1086.13 582.63 1087.25 583.397 1088.45 584.252 1088.85 585.547 1088.89 585.651 1088.92 585.754 1088.93 585.866 1089.09 586.625 1088.96 587.409 1088.73 588.176Z" fill="#F9AF88" fill-rule="evenodd"/><path d="M1089.76 587.691C1089.53 587.964 1089.21 588.204 1088.83 588.41 1086.2 589.883 1080.32 590.048 1076.58 589.99 1074.88 588.005 1073.64 585.581 1073 583 1074.15 583.099 1085.6 584.117 1089.03 586.02 1089.93 586.516 1090.28 587.07 1089.76 587.691Z" fill="#F28361" fill-rule="evenodd"/><path d="M1007.08 582.237C1006.23 580.58 1005.37 578.898 1005.08 577.116 1004.98 576.549 1004.95 575.958 1005.13 575.409 1005.33 574.859 1005.77 574.343 1006.4 574.118 1007.21 573.835 1008.17 574.093 1008.85 574.559 1009.52 575.026 1009.97 575.683 1010.39 576.325 1011.85 578.498 1013.3 580.663 1014.76 582.837 1014.91 583.061 1015.06 583.311 1014.97 583.553 1014.87 583.853 1014.44 583.986 1014.06 583.961 1013.69 583.936 1013.34 583.794 1012.98 583.728 1012.25 583.586 1011.49 583.744 1010.77 583.869 1010.04 583.994 1009.25 584.094 1008.56 583.853 1007.87 583.611 1007.41 582.887 1007.08 582.237Z" fill="#ED8464" fill-rule="evenodd"/><path d="M1058 625.804C1055.84 627.088 1053.71 628.447 1051.58 629.773 1047.63 632.241 1043.7 634.634 1039.59 636.352 1037.47 637.586 1034.55 636.944 1032.59 635.385 1030.62 633.817 1029.4 631.524 1028.22 629.298 1023.82 620.968 1019.42 612.638 1015.03 604.308 1012.63 603.658 1010.01 602.832 1007.64 601.498 1005.28 600.164 1003.14 598.255 1002.01 595.778 1000.78 593.127 1000.8 590.042 1001.41 587.19 1001.94 584.672 1003.05 582.104 1005.22 580.744 1007.39 579.393 1010.79 579.877 1011.82 582.229 1013.27 582.003 1014.86 581.887 1016.07 582.529 1017.29 583.179 1018.08 584.555 1018.03 585.939 1019.45 585.355 1021.02 585.289 1022.19 586.064 1023.33 586.823 1023.89 588.474 1023.22 589.666 1023.21 589.683 1023.2 589.708 1023.19 589.725 1023.19 589.725 1023.19 589.725 1023.2 589.725 1024.85 590.183 1025.92 590.842 1026.62 591.776 1026.99 592.251 1027.27 592.843 1027.19 593.435 1027.12 594.035 1026.58 594.594 1025.98 594.519 1027.15 594.994 1027.78 596.312 1027.91 597.579 1028.04 598.838 1027.78 600.106 1027.73 601.373 1027.67 603.041 1035.06 614.156 1037.39 614.781 1037.68 614.856 1038.14 614.714 1038.71 614.414 1040.81 613.338 1044.26 610.287 1045.23 609.678 1046.47 608.919 1043.83 612.088 1045.14 611.454 1048.8 617.032 1053.15 621.718 1058 625.804Z" fill="#FDAE86" fill-rule="evenodd"/><path d="M1005.03 593.221C1005.01 593.467 1004.99 593.828 1005.01 594 1005.11 593.672 1005.34 593.049 1005.42 592.869 1005.77 592.098 1006.12 591.336 1006.46 590.566 1006.45 590.582 1006.44 590.607 1006.42 590.648 1006.84 589.697 1007.61 588.057 1008.15 586.861 1008.71 585.607 1009.29 584.795 1010.28 583.918 1010.74 583.549 1011.3 583.09 1012 583 1007.31 583.377 1005.58 589.459 1005.03 593.221Z" fill="#E0564F" fill-rule="evenodd"/><path d="M1014.2 587.872C1012.23 589.469 1011.15 591.843 1011.03 594.317 1011.03 594.476 1010.97 595.103 1011.02 594.986 1011.31 594.15 1011.65 593.255 1011.94 592.62 1012.7 590.873 1013.71 589.628 1014.85 588.349 1015.78 587.413 1016.73 586.41 1018 586 1016.56 586.109 1015.29 587.003 1014.2 587.872Z" fill="#E0564F" fill-rule="evenodd"/><path d="M1017.22 595.799C1017.17 596.112 1016.85 597.428 1017.09 596.859 1017.78 595.43 1018.81 593.255 1019.56 592.357 1020.47 591.121 1021.45 590.174 1023 590.118 1019.84 589.307 1017.63 592.838 1017.22 595.799Z" fill="#E0564F" fill-rule="evenodd"/><path d="M1058 626.073C1055.76 627.343 1053.55 628.688 1051.35 630 1045.33 626.535 1040.56 621.073 1038 614.803 1040.17 613.739 1043.76 610.719 1044.76 610.117 1046.04 609.366 1043.31 612.501 1044.67 611.874 1048.46 617.394 1052.97 622.03 1058 626.073Z" fill="#F28361" fill-rule="evenodd"/><path d="M1060.92 629C1066.29 612.278 1069.31 593.693 1060.04 590.287 1057.18 589.238 1054.61 591.206 1051.88 593.888 1045.09 600.563 1037 610.92 1037 610.92 1041.03 619.041 1051.22 626.057 1060.92 629Z" fill="#FF7E33" fill-rule="evenodd"/><path d="M1046.07 547.804C1045.76 548.1 1043.35 545.723 1043.04 546.027 1043.52 551.628 1046.74 559.845 1048.5 565.191 1049.16 567.207 1049.89 569.518 1048.77 571.344 1047.53 573.392 1044.7 573.672 1042.37 574.371 1038.28 575.604 1034.9 578.895 1033.6 582.9 1032.3 586.906 1033.12 591.52 1035.96 594.563 1035.91 593.667 1035.86 592.778 1035.96 591.635 1036.11 594.818 1037.65 597.919 1040.11 600 1039.51 596.817 1041.94 593.782 1044.76 592.112 1047.58 590.434 1050.86 589.636 1053.69 588 1057.54 585.779 1060.46 581.864 1060.93 577.504 1061.22 574.708 1060.54 571.92 1059.86 569.197 1059.03 565.874 1058.19 562.551 1057.37 559.228 1056.61 556.177 1055.73 552.928 1053.36 550.814 1051.84 549.44 1049.87 548.7 1046.07 547.804Z" fill="#401916" fill-rule="evenodd"/><path d="M1050.19 569C1050.1 572.554 1048.06 576.009 1045 577.799 1042.87 579.034 1040.35 579.506 1038.32 580.89 1035.21 583.019 1033.8 587.319 1035.02 590.873 1035.19 589.606 1035.94 588.429 1037.02 587.758 1037.27 590.608 1038.37 596.441 1038.37 596.441 1038.37 596.441 1045.15 590.136 1046.72 589.622 1048.29 589.109 1052.54 588.23 1054.11 587.725 1057.56 586.598 1056.98 587.476 1059 584.469 1055.68 590.202 1048.33 591.006 1044.82 596.632 1043.78 598.305 1042.77 600.277 1040.88 600.849 1039.48 601.271 1037.93 600.766 1036.8 599.855 1035.66 598.943 1034.87 597.676 1034.18 596.4 1032.7 593.69 1031.54 590.766 1031.14 587.7 1030.74 584.634 1031.16 581.42 1032.67 578.719 1034.13 576.109 1036.53 574.12 1039.16 572.679 1041.8 571.245 1044.66 570.317 1050.19 569Z" fill="#5C2118" fill-rule="evenodd"/><path d="M1107.83 559.616C1108.57 556.162 1107.13 550.647 1112.82 552.303 1127.4 556.543 1118.81 570.64 1115.03 571.476 1112.77 571.981 1110.08 572.453 1108.22 571.203 1106.72 570.201 1106.04 568.569 1106 566.995 1105.97 565.43 1106.92 563.964 1107.83 559.616Z" fill="#F28361" fill-rule="evenodd"/><path d="M1053.83 559.502C1052.16 558.575 1049.76 558.997 1048.24 560.231 1046.72 561.465 1046.02 563.319 1046 565.091 1045.98 566.863 1046.57 568.568 1047.28 570.2 1048.1 572.087 1049.12 573.942 1050.66 575.416 1052.21 576.89 1054.35 577.958 1056.69 577.999 1059.02 578.04 1061.48 576.898 1062.49 575.002 1063.25 573.553 1063.09 571.856 1062.46 570.415 1061.83 568.974 1060.77 567.724 1059.71 566.499 1057.75 564.18 1056.65 561.067 1053.83 559.502Z" fill="#FDAE86" fill-rule="evenodd"/><path d="M1112.75 545.779C1113 552.799 1114.93 559.704 1115 566.733 1115.07 573.761 1112.73 581.46 1106.67 585.107 1103.25 587.157 1099.13 587.645 1095.14 587.868 1088.67 588.224 1082.07 587.959 1075.97 585.81 1063.34 581.352 1054.36 568.213 1055.04 554.941 1055.71 541.669 1066.1 529.431 1079.2 526.652 1092.3 523.882 1112.19 529.877 1112.75 545.779Z" fill="#FDAE86" fill-rule="evenodd"/><path d="M1112.07 546.284C1110.84 543.824 1108.36 542.334 1106.02 540.968 1098.1 536.373 1090.09 531.736 1081.34 529.161 1077.2 527.944 1072.56 527.257 1068.75 529.302 1065.38 531.115 1063.34 534.725 1061.89 538.319 1060.14 542.674 1059 547.252 1057.86 551.814 1057.58 552.973 1057.28 554.133 1057 555.292 1057.72 555.747 1058.23 556.501 1058.13 557.519 1057.97 559.332 1057.81 561.178 1057.58 563 1061.24 562.28 1064.87 560.409 1067.13 555.995 1069.52 551.342 1070.16 544.744 1068.9 539.652 1070.14 542.342 1073.76 542.74 1076.66 543.063 1079.56 543.386 1082.47 542.839 1085.39 542.698 1088.31 542.558 1091.42 542.897 1093.73 544.719 1096.08 546.582 1097.35 549.802 1100.07 551.036 1104.25 552.924 1109.1 551.227 1112.86 553.892 1113.06 551.309 1113.22 548.585 1112.07 546.284Z" fill="#F28361" fill-rule="evenodd"/><path d="M1118.75 543.18C1118.4 541.275 1117.82 539.395 1117.84 537.458 1117.87 534.737 1119.05 532.099 1118.96 529.378 1118.83 525.362 1115.95 521.916 1112.63 519.649 1109.32 517.381 1105.51 515.955 1102.1 513.836 1099.2 512.022 1096.61 509.714 1093.62 508.04 1086.15 503.852 1076.59 504.14 1068.94 507.99 1061.29 511.841 1055.53 518.964 1052.76 525.948 1048.6 525.931 1045.34 529.609 1043.6 533.393 1040.89 539.255 1042.05 545.299 1043.92 551.482 1045.79 557.666 1053.65 555.786 1055.8 562.91 1055.99 563.544 1061.09 560.7 1062.41 558.606 1063.73 556.512 1064.42 554.088 1064.98 551.68 1066.21 546.346 1066.9 540.871 1067.5 534.968 1070.63 539.816 1074.43 541.968 1080.13 541.16 1084.55 540.525 1088.94 540.302 1092.73 542.66 1094.94 544.029 1097.29 546.511 1101.39 548.16 1100.12 548.671 1099 549.52 1098.41 550.748 1099.25 549.718 1100.33 549.297 1101.52 548.984 1102.02 548.852 1102.5 548.77 1102.96 548.72 1104.34 549.149 1105.9 549.487 1107.69 549.66 1107.98 549.685 1108.24 549.734 1108.5 549.784 1108.73 549.891 1108.96 550.006 1109.2 550.147 1109.12 550.056 1109.04 549.982 1108.96 549.891 1110.87 550.394 1112.09 551.565 1112.72 553.346 1114.5 554.079 1117.45 550.608 1118.33 548.877 1119.2 547.145 1119.09 545.084 1118.75 543.18Z" fill="#401916" fill-rule="evenodd"/><path d="M1045.32 566C1043.25 560.635 1045.25 549.251 1044.8 543.527 1044.48 539.452 1046.02 535.899 1048.96 533.033 1051.31 530.738 1054.74 531.179 1057.7 528.239 1062.77 523.209 1064.83 515.998 1070.99 512.348 1085.53 503.716 1092.1 509.604 1101.76 516.741 1105.33 519.387 1115.22 522.596 1117.29 526.508 1119.04 529.775 1117.76 534.928 1117.92 537.141 1118.09 539.517 1119.33 539.729 1119.6 542.097 1120.11 546.581 1118.19 552.763 1120.37 550.321 1122.56 547.879 1123.81 544.727 1124.46 541.534 1126.42 531.914 1122.96 521.388 1115.66 514.765 1110.97 510.519 1105 507.922 1098.99 505.913 1092.98 503.904 1086.6 502.401 1080.32 503.234 1072.21 504.304 1064.98 509.237 1059.81 515.525 1056.81 519.175 1054.33 523.356 1050.53 526.173 1048.16 527.913 1045.36 529.072 1043.29 531.155 1040.72 533.735 1039.62 537.443 1039.35 541.06 1038.71 549.725 1038.14 563.297 1045.32 566Z" fill="#5C2118" fill-rule="evenodd"/><path d="M1098.25 578.296C1097.7 579.456 1096.83 580.453 1095.75 581.102 1093.45 582.505 1090.34 582.237 1088.29 580.486 1087.18 579.529 1086.43 578.166 1086.14 576.706 1085.9 575.474 1085.96 574.192 1086.38 573 1086.4 573.016 1086.44 573.024 1086.46 573.024 1090.62 574.452 1094.83 574.744 1098.9 574.03 1098.91 574.135 1098.93 574.249 1098.95 574.354 1099.11 575.701 1098.85 577.079 1098.25 578.296Z" fill="#571525" fill-rule="evenodd"/><path d="M1094.17 577.111C1091.75 576.812 1088.98 577.045 1087 578.698 1087.37 579.363 1087.82 579.953 1088.37 580.443 1090.39 582.255 1093.48 582.512 1095.78 581.075 1096.7 580.501 1097.46 579.662 1098 578.673 1096.87 577.884 1095.49 577.269 1094.17 577.111Z" fill="#DE737C" fill-rule="evenodd"/><path d="M1099 574.391C1098.4 574.925 1097.69 575.324 1096.94 575.57 1095.52 576.028 1094.02 576.045 1092.55 575.96 1091.02 575.867 1089.48 575.672 1088.12 574.959 1087.27 574.51 1086.5 573.831 1086 573 1090.33 574.493 1094.72 574.798 1098.96 574.052 1098.97 574.162 1098.99 574.281 1099 574.391Z" fill="#FFFFFF" fill-rule="evenodd"/><path d="M1081.15 550.005C1076.78 547.818 1071.88 549.222 1070 554 1071.02 552.442 1072.71 551.374 1074.05 550.883 1076.08 550.083 1077.58 549.971 1079.79 550.134 1080.57 550.169 1081.23 550.315 1082 550.436 1081.71 550.289 1081.44 550.143 1081.15 550.005Z" fill="#401916" fill-rule="evenodd"/><path d="M1084.9 567.22C1081.99 562.171 1073.38 563.281 1072 569 1072.58 568.066 1074.1 567.299 1074.63 567.123 1077.3 566.145 1079.06 565.987 1081.68 566.198 1082.35 566.295 1083.1 566.542 1083.64 566.78 1083.99 566.859 1085.38 567.837 1084.9 567.22Z" fill="#2B344A" fill-rule="evenodd"/><path d="M1109.35 562.69C1108.14 561.377 1106.17 560.554 1104.45 561.258 1103.3 561.701 1102.36 562.603 1101.64 563.608 1101.36 564.027 1101.01 564.47 1101 565 1101.67 564.106 1102.84 563.718 1103.78 563.18 1105.28 562.476 1106.29 562.342 1107.85 562.714 1108.6 562.88 1109.31 563.188 1110 563.529 1109.81 563.228 1109.59 562.951 1109.35 562.69Z" fill="#2B344A" fill-rule="evenodd"/><path d="M1097 565C1097.21 565.706 1097.21 566.367 1097.3 567.126 1097.4 568.078 1097.46 568.396 1097.58 569.56 1097.66 570.919 1098 568.74 1098 568.272 1098.01 567.117 1097.65 565.917 1097 565Z" fill="#DE413C" fill-rule="evenodd"/><path d="M903 577.225C895.554 567.483 892.018 555.398 888.631 543.613 887.253 538.812 885.867 533.688 887.336 528.912 888.39 525.482 890.831 522.6 891.802 519.145 892.234 517.617 892.284 515.773 891.138 514.668 889.735 513.323 887.245 513.938 885.992 515.424 884.73 516.911 884.373 518.929 884.248 520.781 882.937 517.517 881.036 514.486 878.662 511.886 877.649 510.781 876.246 509.669 874.81 510.092 873.839 510.383 873.183 511.33 872.984 512.326 872.785 513.315 872.976 514.344 873.225 515.325 873.831 517.725 874.818 520.034 876.188 521.637 874.984 520.673 874.088 519.394 873.092 518.223 872.087 517.052 870.909 515.948 869.423 515.524 867.945 515.1 866.111 515.574 865.389 516.936 864.907 517.849 864.999 518.979 865.38 519.934 865.771 520.889 866.426 521.703 867.074 522.509 868.103 523.779 869.124 525.05 870.319 525.897 869.166 525.416 868.178 524.643 867.14 523.937 866.111 523.24 864.99 522.592 863.753 522.451 862.517 522.309 861.139 522.775 860.516 523.854 859.877 524.967 860.201 526.437 860.973 527.476 861.745 528.514 862.874 529.195 863.969 529.867 865.065 530.532 866.194 531.238 867.065 531.661 865.92 531.304 864.857 530.74 863.72 530.341 862.583 529.942 861.346 529.71 860.201 530.042 859.047 530.374 858.034 531.379 858.001 532.575 857.976 533.464 858.491 534.303 859.171 534.876 859.852 535.449 860.69 535.798 861.512 536.121 865.04 537.508 868.692 538.613 871.963 538.389 874.237 554.136 880.588 571.461 889.179 585.581 890.2 587.267 887.237 587.831 889.03 588.637 890.607 589.343 892.458 588.911 894.06 588.263 897.629 586.835 900.792 584.418 903 577.225Z" fill="#FE9965" fill-rule="evenodd"/><path d="M884 577.312C892.819 576.784 896.904 576.841 902 574 899.538 579.187 893.829 593.781 890.435 589.081 888.992 587.092 884 577.312 884 577.312Z" fill="#F77C57" fill-rule="evenodd"/><path d="M961 649 908.25 649C908.077 647.073 907.92 645.113 907.838 644.178 907.83 644.071 907.83 643.988 907.822 643.914 907.813 643.814 907.805 643.715 907.797 643.616 907.797 643.616 907.204 623.766 908.028 613.875 899.304 606.878 891.273 599.228 884 590.916 885.277 588.782 886.644 586.722 888.094 584.746 888.151 584.663 888.209 584.58 888.275 584.498 890.573 581.38 893.086 578.46 895.787 575.739 895.87 575.648 895.96 575.549 896.059 575.458 897.122 574.391 898.217 573.365 899.337 572.365 899.379 572.323 899.42 572.282 899.469 572.249 899.939 571.827 900.416 571.405 900.902 571 901.479 571.405 902.056 571.811 902.641 572.199 905.853 574.391 909.197 576.401 912.64 578.228 913.579 578.733 914.535 579.221 915.49 579.692 918.101 580.999 920.77 582.198 923.48 583.282 926.569 584.539 929.724 585.656 932.912 586.631 934.155 587.194 935.399 587.789 936.651 588.418 937.195 588.683 937.739 588.964 938.282 589.245 938.447 589.328 938.612 589.41 938.768 589.501 939.32 589.791 939.872 590.08 940.416 590.386 941.157 590.783 941.89 591.197 942.623 591.619 946.709 593.976 950.77 596.655 954.74 599.699 954.789 599.74 954.847 599.782 954.896 599.823 955.209 605.72 955.679 611.617 956.288 617.489 956.453 619.094 956.634 620.69 956.824 622.294 956.873 622.757 956.931 623.221 956.989 623.684 957.227 625.619 957.475 627.563 957.746 629.49 958.018 631.458 958.307 633.427 958.611 635.387 959.32 639.944 960.11 644.476 961 649Z" fill="#0093E2" fill-rule="evenodd"/><path d="M913 596C910.92 601.887 909.25 607.901 908 614 908.026 607.732 909.731 601.473 913 596Z" fill="#0C6ACF" fill-rule="evenodd"/><path d="M905.19 591C904.922 598.41 905.879 605.861 908 613 903.948 606.566 902.905 598.484 905.19 591Z" fill="#0C6ACF" fill-rule="evenodd"/><path d="M908.451 649 961 649C960.114 644.505 959.326 640.002 958.62 635.475 958.317 633.527 958.03 631.571 957.759 629.616 957.488 627.701 957.242 625.77 957.004 623.847 956.946 623.387 956.889 622.927 956.84 622.467 956.651 620.873 956.471 619.287 956.306 617.693 955.387 617.109 954.304 616.551 953.008 616 953.073 620.552 951.679 625.022 949.291 628.909 947.904 631.185 946.181 633.264 944.211 635.047 938.87 639.887 931.887 642.673 924.764 643.733 919.217 644.555 913.572 644.382 908 643.651 908.008 643.749 908.016 643.848 908.025 643.946 908.025 644.037 908.033 644.119 908.041 644.209 908.057 644.415 908.066 644.628 908.09 644.834 908.181 646.223 908.304 647.611 908.435 649L908.451 649Z" fill="#078ADB" fill-rule="evenodd"/><path d="M942.91 623.254C938.025 623.448 933.098 623.022 928.387 622 927.914 622.797 927.881 623.587 928.254 624.438 932.907 625.832 938.008 626.32 942.96 625.793 943.001 624.934 943.042 624.082 942.91 623.254Z" fill="#1E58BD" fill-rule="evenodd"/><path d="M923.688 596.997C923.411 598.945 923.434 600.941 923.736 603 919.766 600.495 914.687 599.843 910.131 601.283 909.354 595.399 912.096 589.181 916.897 586 919.029 586.127 921.097 587.113 922.539 588.696 923.981 590.278 924.338 592.345 923.688 596.997Z" fill="#E3F9FF" fill-rule="evenodd"/><path d="M925.067 599.237C924.558 600.564 924.194 601.932 924 603.333 928.566 601.827 933.957 603.228 937.287 607 940.471 605.551 942.403 602.102 942.864 598.638 943.324 595.164 942.524 591.651 941.853 588 934.927 588.081 927.782 592.137 925.067 599.237Z" fill="#E3F9FF" fill-rule="evenodd"/><path d="M939 589C936.268 595.347 930.641 600.398 923.861 603 920.156 599.879 918.93 594.221 921.007 589.867 927.116 590.435 933.308 590.111 939 589Z" fill="#F77C57" fill-rule="evenodd"/><path d="M902.754 560.396C902.395 558.235 899.793 556.766 897.419 557.031 895.045 557.296 893.048 558.953 892.049 560.934 891.042 562.916 890.901 565.171 891.05 567.349 891.208 569.561 891.698 571.85 893.17 573.618 894.633 575.395 897.27 576.505 899.574 575.77 901.238 575.241 902.438 573.874 903.157 572.405 904.917 568.826 903.49 564.82 902.754 560.396Z" fill="#F77C57" fill-rule="evenodd"/><path d="M949.841 573.903C950.552 570.404 955.442 567.78 958.902 567.132 962.362 566.492 966.484 568.209 967.6 571.595 969.014 575.904 966.331 580.318 964.957 582.076 958.813 589.941 950.245 583.745 949.347 582.603 948.822 581.922 948.822 578.925 949.841 573.903Z" fill="#FE9965" fill-rule="evenodd"/><path d="M908.248 538.435C904.06 547.729 902.283 554.676 900.572 564.76 894.003 603.573 946.127 593.88 950.479 585.044 956.224 573.379 953.967 553.86 950.577 547.82 946.176 539.983 935.443 540.848 926.845 538.668 921.214 537.245 915.012 535.873 908.248 538.435Z" fill="#FE9965" fill-rule="evenodd"/><path d="M907 539.036C908.517 541.988 911.351 544.216 914.55 544.956 917.749 545.704 921.255 544.956 923.891 542.971 927.322 547.562 933.537 549.807 939.057 548.445 940.524 552.094 944.709 554.398 948.522 553.65 947.304 557.433 946.301 561.663 947.925 565.286 948.804 567.254 950.445 569.011 950.395 571.172 950.37 572.366 949.815 573.476 949.583 574.645 949.351 575.813 949.583 577.26 950.635 577.798 951.655 578.327 952.889 577.73 953.785 577.007 956.47 574.838 958.036 571.483 958.666 568.061 959.669 562.596 958.384 556.744 955.202 552.22 951.257 546.612 944.817 543.35 938.353 541.239 932.949 539.474 927.363 538.347 921.752 537.514 919.15 537.128 916.498 536.808 913.887 537.136 911.276 537.464 908.658 538.515 907 539.036Z" fill="#F77C57" fill-rule="evenodd"/><path d="M907.904 539.474C912.323 543.655 919.005 543.358 924.167 540.15 927.338 545.313 934.351 547.737 940.041 545.634 940.628 547.787 942.288 549.617 944.369 550.417 946.451 551.217 948.912 550.978 950.795 549.782 948.945 555.481 949.531 561.921 952.678 566.845 951.836 569.723 951.299 572.683 951.076 575.668 951.043 576.122 951.084 576.699 951.505 576.872 951.968 577.062 953.686 577.746 957.807 572.056 960.533 568.288 964.068 568.205 967.603 569.393 971.452 565.121 974.541 560.074 976.036 554.516 977.531 548.966 977.358 542.88 975.02 537.627 973.889 535.087 972.286 532.77 971.353 530.147 970.543 527.88 970.263 525.43 969.23 523.261 968.198 521.084 966.092 519.138 964.142 518.363 963.391 515.84 961.483 513.679 959.063 512.632 956.643 511.584 953.76 511.659 951.398 512.838 950.258 513.407 949.176 514.232 947.913 514.281 945.517 514.372 944.047 511.84 942.387 510.117 940.149 507.783 936.746 506.628 933.549 507.107 930.353 507.585 927.446 509.696 925.422 513.217 921.994 510.817 917.163 510.603 913.529 512.681 909.894 514.768 907.648 519.039 908.127 522.791 904.41 522.495 900.759 525.109 899.512 528.622 898.265 532.135 899.297 536.25 902.585 538.039 900.512 540.431 899.306 543.556 899.24 546.715 899.174 549.873 900.239 553.048 902.519 554.846 904.071 549.601 906.277 545.354 907.904 539.474Z" fill="#411714" fill-rule="evenodd"/><path d="M908.287 522.757C908.559 519.156 911.84 516.329 915.352 515.623 918.863 514.916 922.491 515.922 925.788 517.344 927.165 513.594 931.089 510.958 935.046 511.108 939.003 511.257 942.721 513.145 943.817 516.986 946.249 515.381 951.756 515.19 954.657 515.323 959.356 515.531 960.741 521.011 960.741 526.257 963.833 524.802 976.058 529.351 972.439 557.613 971.804 562.585 968.969 567.009 965.96 571 973.898 569.611 979.471 560.565 980.691 552.533 981.911 544.5 979.364 536.335 975.761 529.068 972.769 523.023 968.919 517.236 963.519 513.228 954.262 506.368 941.938 505.72 930.454 506.077 925.162 506.243 919.655 506.626 915.038 509.237 910.414 511.848 906.96 517.335 908.287 522.757Z" fill="#5C2118" fill-rule="evenodd"/><path d="M909.07 565.768C909.32 564.673 910.16 563.887 910.949 564.013 911.739 564.14 912.18 565.137 911.93 566.232 911.681 567.327 910.841 568.113 910.051 567.987 909.253 567.853 908.821 566.863 909.07 565.768Z" fill="#2A344A" fill-rule="evenodd"/><path d="M930.24 570.535C930.689 569.461 931.617 568.8 932.314 569.054 933.01 569.308 933.212 570.39 932.755 571.465 932.306 572.539 931.377 573.2 930.681 572.946 929.992 572.684 929.791 571.61 930.24 570.535Z" fill="#2A344A" fill-rule="evenodd"/><path d="M939.974 560.159C939.865 558.935 939.044 557.802 937.89 557.336 936.983 556.923 935.798 556.8 935 557.496 936.348 557.122 937.82 558.346 938.409 558.766 939.036 559.317 939.199 559.531 939.602 560.227 939.742 560.465 939.881 560.816 939.997 561 940.005 560.725 939.997 560.442 939.974 560.159Z" fill="#611011" fill-rule="evenodd"/><path d="M914.993 551.653C914.548 550.98 914.006 550.375 913.351 550.151 911.823 549.624 910.116 550.532 909 552 909.841 551.563 911.176 551.406 911.79 551.26 912.365 551.137 913.594 550.947 914.387 551.406 914.54 551.44 915.066 551.81 914.993 551.653Z" fill="#611011" fill-rule="evenodd"/><path d="M916.51 568.77C915.812 569.725 915.789 571.166 916.7 572 916.565 571.598 916.486 570.901 916.542 570.734 916.724 569.937 916.843 569.209 917.255 568.595 917.429 568.353 917.651 568.08 918 568.034 917.406 567.867 916.843 568.345 916.51 568.77Z" fill="#DE413C" fill-rule="evenodd"/><path d="M926.193 580.459C925.6 581.878 924.661 583.096 923.492 583.897 921.014 585.612 917.655 585.299 915.456 583.157 914.262 581.991 913.456 580.328 913.151 578.535 912.896 577.029 912.953 575.462 913.406 574 913.431 574.017 913.472 574.035 913.497 574.035 917.967 575.776 922.504 576.115 926.892 575.236 926.909 575.367 926.933 575.497 926.95 575.628 927.123 577.282 926.843 578.97 926.193 580.459Z" fill="#571525" fill-rule="evenodd"/><path d="M921.829 579.128C919.189 578.779 916.16 579.058 914 581.051 914.397 581.846 914.894 582.555 915.498 583.14 917.691 585.308 921.068 585.614 923.575 583.883 924.585 583.193 925.412 582.179 926 580.999 924.767 580.055 923.261 579.32 921.829 579.128Z" fill="#DE737C" fill-rule="evenodd"/><path d="M927 575.828C926.348 576.537 925.585 577.086 924.771 577.415 923.245 578.035 921.625 578.055 920.047 577.955 918.401 577.825 916.738 577.565 915.281 576.627 914.363 576.027 913.532 575.109 913 574 917.655 575.997 922.379 576.387 926.949 575.378 926.974 575.528 926.991 575.678 927 575.828Z" fill="#FFFFFF" fill-rule="evenodd"/><path d="M987 649 971.003 649C968.698 644.713 966.114 640.36 963.237 636.215 962.673 635.394 962.093 634.581 961.496 633.785 960.409 632.293 959.272 630.842 958.095 629.44 957.049 628.18 955.962 626.961 954.85 625.792 954.564 625.502 954.286 625.212 954 624.922 954.621 624.2 955.79 623.247 957.18 622.227 958.48 621.273 959.967 620.27 961.381 619.358 964.242 617.509 966.793 616 966.793 616 968.935 617.94 970.888 620.055 972.67 622.26 974.003 623.893 975.229 625.577 976.373 627.276 981.907 635.502 985.3 644.033 987 649Z" fill="#FE9965" fill-rule="evenodd"/><path d="M976 627.157C972.714 631.332 968.184 634.45 963.183 636 960.679 632.333 957.959 628.838 955 625.688 957.321 623.785 959.458 621.652 961.373 619.322 964.164 617.493 966.652 616 966.652 616 970.297 619.355 973.392 623.219 976 627.157Z" fill="#F77C57" fill-rule="evenodd"/><path d="M954.056 599C961.662 604.175 968.724 610.182 975 616.94 971.441 625.024 964.792 632.16 956.886 636 952.889 632.778 949.256 628.806 946.54 624.414 943.832 620.022 942.324 614.673 943.297 609.581 944.27 604.496 948.032 599.824 954.056 599Z" fill="#0BA4E6" fill-rule="evenodd"/></g></svg>