<svg width="409" height="228" xmlns="http://www.w3.org/2000/svg" xmlns:xlink="http://www.w3.org/1999/xlink" overflow="hidden"><defs><clipPath id="clip0"><rect x="180" y="351" width="409" height="228"/></clipPath></defs><g clip-path="url(#clip0)" transform="translate(-180 -351)"><path d="M527.77 410.36C453.261 401.154 401.982 378.918 385.673 371.076 382.216 369.416 377.957 369.698 374.378 371.775 340.85 391.282 248.934 420.514 235.874 424.969 234.762 425.352 234 426.394 234 427.543L234 433.107C234 434.531 235.173 435.633 236.615 435.573L262.851 433.483C262.264 454.724 268.505 454.805 268.808 454.798L263.161 455.007C260.957 455.087 259.164 456.801 259.158 458.824 259.151 460.846 260.923 462.432 263.127 462.358L266.463 462.244C254.528 467.223 263.194 570.702 263.194 570.702L259.393 570.709C257.156 570.716 255.343 572.349 255.336 574.358L255.336 574.358C255.33 576.36 257.136 577.987 259.366 577.987L270.345 577.987 271.692 577.987 282.765 577.987C285.036 577.987 286.896 576.347 286.923 574.318L286.923 574.318C286.943 572.288 285.117 570.648 282.839 570.655L278.991 570.662C278.991 570.662 288.985 466.108 276.922 461.888L280.292 461.774C282.522 461.7 284.349 459.979 284.369 457.937 284.389 455.894 282.59 454.294 280.359 454.375L274.671 454.583C274.974 454.57 281.276 454.026 280.972 432.69L302.915 431.722C302.1 453.266 308.502 453.347 308.819 453.333L303.016 453.548C300.752 453.629 298.892 455.37 298.865 457.426 298.838 459.482 300.644 461.081 302.909 461.007L306.339 460.893C294.026 465.953 302.039 570.608 302.039 570.608L298.137 570.615C295.839 570.622 293.959 572.275 293.932 574.311L293.932 574.311C293.905 576.34 295.738 577.987 298.029 577.987L309.304 577.987 310.692 577.987 322.061 577.987C324.393 577.987 326.327 576.32 326.368 574.271L326.368 574.271C326.408 572.214 324.548 570.548 322.21 570.554L318.254 570.561C318.254 570.561 329.421 464.797 317.074 460.517L320.538 460.396C322.83 460.315 324.723 458.575 324.771 456.505 324.811 454.429 322.985 452.816 320.687 452.897L314.837 453.112C315.154 453.098 321.623 452.547 321.536 430.903L344.099 429.908C343.034 451.761 349.618 451.842 349.942 451.828L343.977 452.043C341.646 452.131 339.718 453.891 339.671 455.974 339.624 458.058 341.464 459.684 343.789 459.603L347.313 459.482C334.61 464.616 341.935 570.494 341.935 570.494L337.926 570.507C335.567 570.514 333.619 572.194 333.572 574.25L333.572 574.25C333.525 576.307 335.392 577.98 337.744 577.98L349.322 577.98 350.744 577.98 362.423 577.98C364.822 577.98 366.823 576.293 366.884 574.21L366.884 574.21C366.951 572.127 365.051 570.44 362.652 570.447L358.588 570.46C358.588 570.46 370.995 463.447 358.345 459.119L361.904 458.998C364.262 458.918 366.23 457.15 366.291 455.047 366.358 452.944 364.492 451.304 362.126 451.391L356.108 451.613C356.432 451.6 363.09 451.035 363.225 429.075L386.435 428.053C385.107 450.229 391.88 450.303 392.21 450.296L386.071 450.518C383.671 450.605 381.677 452.393 381.603 454.509 381.528 456.626 383.402 458.272 385.794 458.192L389.42 458.071C376.305 463.286 382.903 570.407 382.903 570.407L378.786 570.42C376.359 570.427 374.344 572.127 374.27 574.217L374.27 574.217C374.203 576.307 376.103 577.993 378.523 577.993L390.424 577.993 391.887 577.993 403.896 577.993C406.362 577.993 408.431 576.286 408.526 574.17L408.526 574.17C408.613 572.053 406.686 570.346 404.213 570.353L400.034 570.366C400.034 570.366 413.742 462.076 400.782 457.688L404.442 457.56C406.868 457.48 408.91 455.685 408.997 453.548 409.085 451.412 407.185 449.752 404.759 449.839L398.572 450.068C398.902 450.054 405.763 449.476 406.133 427.193L430.017 426.145C428.413 448.65 435.375 448.724 435.719 448.71L429.404 448.939C426.937 449.026 424.862 450.847 424.761 452.991 424.659 455.134 426.573 456.808 429.033 456.72L432.767 456.593C419.221 461.895 425.044 570.299 425.044 570.299L420.811 570.313C418.318 570.319 416.222 572.046 416.128 574.163L416.128 574.163C416.033 576.28 417.967 577.993 420.454 577.993L432.693 577.993 434.195 577.993 446.542 577.993C449.076 577.993 451.225 576.26 451.34 574.116L451.34 574.116C451.455 571.972 449.487 570.239 446.946 570.245L442.653 570.259C442.653 570.259 457.736 460.651 444.453 456.203L448.22 456.075C450.713 455.988 452.836 454.167 452.951 452.003 453.065 449.832 451.131 448.152 448.631 448.24L442.262 448.475C442.606 448.462 449.662 447.87 450.289 425.258L474.873 424.176C472.98 447.017 480.143 447.091 480.494 447.077L473.991 447.312C471.45 447.406 469.293 449.248 469.172 451.432 469.051 453.609 470.998 455.302 473.532 455.215L477.374 455.087C463.376 460.47 468.384 570.198 468.384 570.198L464.03 570.212C461.469 570.218 459.292 571.966 459.171 574.116L459.171 574.116C459.05 576.26 461.024 578 463.578 578L476.161 578 477.711 578 490.414 578C493.022 578 495.253 576.239 495.394 574.069L495.394 574.069C495.536 571.892 493.534 570.138 490.919 570.145L486.499 570.158C486.499 570.158 503.03 459.193 489.41 454.684L493.292 454.55C495.859 454.462 498.063 452.614 498.205 450.41 498.346 448.213 496.372 446.499 493.797 446.593L487.24 446.835C487.59 446.822 494.862 446.217 495.751 423.262L526.401 421.911C528.032 421.837 529.434 420.594 529.542 419.123L529.994 412.887C530.088 411.583 529.151 410.535 527.77 410.36Z" fill="#CADEFC" fill-rule="evenodd"/><path d="M472.501 506C472.501 506 450.801 577 416 577L513.499 577C548.299 577 570 506 570 506 534.842 509.107 502.507 508.911 472.501 506Z" fill="#FFFFFF" fill-rule="evenodd"/><path d="M552.259 514.581C533.148 514.426 514.038 514.271 494.927 514.126 489.529 514.087 484.131 514.039 478.739 514 477.754 513.99 477.754 516.419 478.739 516.419 497.849 516.574 516.96 516.729 536.07 516.874 541.469 516.913 546.867 516.961 552.259 517 553.244 517.01 553.25 514.581 552.259 514.581Z" fill="#AAC8FF" fill-rule="evenodd"/><path d="M540.245 522 475.755 522C474.748 522 474.748 524 475.755 524L540.245 524C541.252 524 541.252 522 540.245 522Z" fill="#AAC8FF" fill-rule="evenodd"/><path d="M531.246 530.155C516.355 530.118 501.464 530.074 486.573 530.037 482.298 530.022 478.029 530.015 473.754 530 472.749 530 472.749 531.845 473.754 531.845 488.646 531.882 503.537 531.926 518.421 531.963 522.696 531.978 526.965 531.985 531.24 532 532.252 532.007 532.252 530.162 531.246 530.155Z" fill="#AAC8FF" fill-rule="evenodd"/><path d="M516.254 539.064C501.082 539.041 485.918 539.022 470.746 539 469.751 539 469.751 539.936 470.746 539.936 485.918 539.959 501.082 539.978 516.254 540 517.249 540.004 517.249 539.067 516.254 539.064Z" fill="#AAC8FF" fill-rule="evenodd"/><path d="M535.25 546.447 482.597 546.099 467.747 546C466.751 545.994 466.751 547.547 467.747 547.553 485.296 547.671 502.852 547.783 520.401 547.901 525.348 547.932 530.303 547.963 535.25 548 536.247 548.006 536.253 546.453 535.25 546.447Z" fill="#AAC8FF" fill-rule="evenodd"/><path d="M514.261 553.542C501.181 553.402 488.108 553.262 475.028 553.123 471.265 553.082 467.502 553.041 463.739 553 462.754 552.988 462.754 554.452 463.739 554.458 476.819 554.598 489.892 554.738 502.972 554.877L514.261 555C515.246 555.017 515.246 553.554 514.261 553.542Z" fill="#AAC8FF" fill-rule="evenodd"/><path d="M522.259 560.542C506.02 560.402 489.781 560.262 473.549 560.122 468.946 560.082 464.344 560.041 459.741 560 458.753 559.994 458.753 561.452 459.741 561.458 475.98 561.598 492.219 561.738 508.451 561.878 513.054 561.918 517.656 561.959 522.259 562 523.247 562.012 523.247 560.548 522.259 560.542Z" fill="#AAC8FF" fill-rule="evenodd"/><path d="M411.037 462 314 462C354.237 462 381.336 577 415.97 577L513 577C478.373 577.007 451.274 462 411.037 462Z" fill="#F7D7B5" fill-rule="evenodd"/><path d="M325.619 577C325.619 577 370.521 462 411 462L313.381 462C272.902 462 228 577 228 577 260.852 574.33 293.401 574.229 325.619 577Z" fill="#FFFFFF" fill-rule="evenodd"/><path d="M372.254 474 300.746 474C299.751 474 299.751 476 300.746 476L372.254 476C373.249 476.008 373.249 474 372.254 474Z" fill="#AAC8FF" fill-rule="evenodd"/><path d="M351.254 481 291.746 481C290.751 481 290.751 482 291.746 482L351.254 482C352.249 482.004 352.249 481 351.254 481Z" fill="#AAC8FF" fill-rule="evenodd"/><path d="M342.24 489 284.754 489C283.749 489 283.749 490 284.754 490L342.24 490C343.253 490.004 343.253 489 342.24 489Z" fill="#AAC8FF" fill-rule="evenodd"/><path d="M341.257 514C322.672 514.195 304.087 514.39 285.509 514.585 280.254 514.64 274.999 514.695 269.743 514.75 268.752 514.76 268.752 516.01 269.743 516 288.328 515.805 306.913 515.61 325.491 515.415 330.746 515.36 336.002 515.305 341.257 515.25 342.248 515.24 342.248 513.985 341.257 514Z" fill="#AAC8FF" fill-rule="evenodd"/><path d="M321.254 523C306.579 523.051 291.905 523.101 277.237 523.152 273.073 523.166 268.909 523.181 264.745 523.195 263.752 523.195 263.752 525.007 264.745 525 279.42 524.95 294.094 524.899 308.769 524.848 312.933 524.834 317.097 524.82 321.26 524.805 322.248 524.805 322.248 522.993 321.254 523Z" fill="#AAC8FF" fill-rule="evenodd"/><path d="M320.261 532C304.811 532.069 289.355 532.145 273.905 532.214 269.516 532.234 265.128 532.255 260.739 532.276 259.754 532.283 259.754 534.007 260.739 534 276.189 533.931 291.645 533.855 307.095 533.786 311.484 533.766 315.872 533.745 320.261 533.724 321.246 533.724 321.246 532 320.261 532Z" fill="#AAC8FF" fill-rule="evenodd"/><path d="M303.257 540.567C288.088 540.378 272.919 540.189 257.743 540 256.752 539.989 256.752 541.421 257.743 541.433 272.912 541.622 288.081 541.811 303.257 542 304.248 542.011 304.248 540.579 303.257 540.567Z" fill="#AAC8FF" fill-rule="evenodd"/><path d="M317.251 550C301.263 550.057 285.275 550.108 269.287 550.165 264.772 550.179 260.264 550.194 255.749 550.208 254.75 550.208 254.75 552.007 255.749 552 271.737 551.943 287.725 551.892 303.713 551.835L317.251 551.792C318.25 551.785 318.25 549.993 317.251 550Z" fill="#AAC8FF" fill-rule="evenodd"/><path d="M336.262 496.551 293.751 496.122C289.747 496.081 285.743 496.041 281.738 496 280.754 495.988 280.754 497.443 281.738 497.449L324.249 497.878C328.253 497.919 332.257 497.959 336.262 498 337.246 498.012 337.246 496.562 336.262 496.551Z" fill="#AAC8FF" fill-rule="evenodd"/><path d="M321 563C321 566.314 315.627 569 309 569 302.373 569 297 566.314 297 563 297 559.686 302.373 557 309 557 315.627 557 321 559.686 321 563Z" fill="#FFB552" fill-rule="evenodd"/><path d="M416.286 403 417 410.24C415.383 410.375 413.773 410.502 412.157 410.623 402.969 411.353 393.774 412.024 384.572 412.654 373.761 413.438 362.936 414.075 352.111 414.766L344.074 415.282C342.054 415.456 340.12 416.69 339.238 418.54 339.016 418.996 338.84 419.479 338.766 419.988 338.753 420.055 338.739 420.102 338.726 420.183L338.692 420.458 338.618 421.001 338.477 422.08 337.904 426.417 336.732 435.073 335.52 443.728 334.906 448.052 334.597 450.217C334.549 450.539 334.496 451.035 334.361 451.451 334.246 451.886 334.078 452.282 333.883 452.671 333.566 453.281 333.155 453.817 332.684 454.266 331.976 454.95 331.134 455.44 330.245 455.715 328.763 456.17 327.16 456.083 325.739 455.433 324.331 454.803 323.105 453.596 322.519 452.067L322.33 451.491C322.29 451.29 322.242 451.095 322.209 450.894L322.141 450.298 322.115 449.748 322 447.556 322.586 447.509 322.909 449.681 322.99 450.224 323.091 450.713 323.239 451.189 323.428 451.638C324.001 452.818 325.038 453.67 326.19 454.065 327.342 454.461 328.595 454.401 329.673 453.945 330.737 453.489 331.633 452.637 332.077 451.598 332.185 451.337 332.279 451.069 332.333 450.794 332.394 450.512 332.401 450.277 332.434 449.875L332.596 447.69 332.913 443.319 333.559 434.576 334.246 425.841 334.597 421.477 334.691 420.384 334.731 419.841 334.758 419.559 334.799 419.224C334.9 418.285 335.156 417.367 335.513 416.522 336.961 413.083 340.1 410.877 343.441 410.435L351.599 409.537C362.377 408.383 373.148 407.177 383.926 406.117 394.71 405.025 405.495 403.965 416.286 403Z" fill="#7D97D3" fill-rule="evenodd"/><path d="M418 406 416.462 407.051 411.92 410.155C402.795 410.89 393.665 411.563 384.527 412.196 373.791 412.984 363.041 413.624 352.292 414.318L344.311 414.836C342.305 415.011 340.385 416.251 339.509 418.109 339.288 418.567 339.114 419.052 339.04 419.564 339.027 419.632 339.014 419.679 339 419.76L338.967 420.036 338.893 420.581 338.753 421.665 338.184 426.023 337.02 434.718 335.816 443.413 335.207 447.757 334.9 449.932C334.853 450.255 334.799 450.754 334.666 451.171 334.552 451.609 334.385 452.007 334.191 452.397 333.876 453.01 333.468 453.549 333 454 335.08 452.182 336.291 432.785 337.917 418.965 338.338 415.941 340.572 413.658 343.362 413.388L416.368 406.155 418 406Z" fill="#B1C8E5" fill-rule="evenodd"/><path d="M416 402.977 416.708 410.162C418.304 410.016 419.907 409.876 421.503 409.723 430.605 408.892 439.694 408 448.79 407.062 459.481 406.011 470.153 404.806 480.838 403.662L488.772 402.817C490.775 402.644 492.905 403.529 494.121 405.186 494.428 405.592 494.688 406.037 494.855 406.516 494.882 406.576 494.902 406.623 494.936 406.703L495.022 406.962 495.196 407.481 495.543 408.506 496.946 412.644 499.764 420.894 502.622 429.137 504.058 433.249 504.779 435.311C504.886 435.624 505.04 436.09 505.247 436.476 505.44 436.882 505.687 437.241 505.948 437.587 506.375 438.132 506.883 438.585 507.43 438.944 508.252 439.49 509.173 439.829 510.088 439.949 511.617 440.142 513.167 439.789 514.429 438.917 515.678 438.066 516.639 436.682 516.92 435.092L516.993 434.5C517 434.293 517 434.101 517 433.894L516.947 433.302 516.867 432.763 516.553 430.608 515.972 430.661 516.078 432.836 516.112 433.382 516.105 433.881 516.052 434.367 515.958 434.832C515.631 436.077 514.783 437.088 513.734 437.667 512.693 438.246 511.451 438.399 510.315 438.139 509.187 437.873 508.152 437.194 507.517 436.256 507.357 436.023 507.217 435.771 507.116 435.511 507.003 435.245 506.949 435.019 506.843 434.633L506.262 432.53 505.106 428.319 502.782 419.896 500.418 411.493 499.23 407.295 498.929 406.243 498.782 405.718 498.702 405.452 498.602 405.132C498.321 404.234 497.894 403.383 497.38 402.617 495.303 399.51 491.81 397.88 488.471 398.007L480.344 398.506C469.612 399.191 458.88 399.823 448.169 400.608 437.423 401.32 426.712 402.105 416 402.977Z" fill="#7D97D3" fill-rule="evenodd"/><path d="M414 406.526 415.734 407.291 420.867 409.557C430.097 408.719 439.313 407.82 448.536 406.875 459.378 405.816 470.2 404.602 481.035 403.449L489.079 402.598C491.111 402.424 493.271 403.315 494.504 404.985 494.815 405.394 495.079 405.843 495.249 406.325 495.276 406.386 495.296 406.433 495.33 406.513L495.418 406.774 495.594 407.297 495.946 408.33 497.368 412.5 500.226 420.812 503.124 429.119 504.58 433.261 505.312 435.34C505.42 435.655 505.576 436.124 505.786 436.513 505.982 436.922 506.233 437.284 506.497 437.632 506.93 438.182 507.445 438.638 508 439 505.576 437.579 500.571 418.801 496.244 405.548 495.228 402.658 492.56 400.808 489.73 401.016L415.646 406.392 414 406.526Z" fill="#B1C8E5" fill-rule="evenodd"/><path d="M422.781 393.041C428.33 395.531 430.401 402.959 427.407 409.633 424.412 416.307 417.486 419.698 411.937 417.208 406.388 414.719 404.318 407.29 407.312 400.616 410.307 393.943 417.232 390.551 422.781 393.041Z" fill="#7D97D3" fill-rule="evenodd"/><path d="M428.131 408.476C425.7 415.247 418.912 419.332 412.959 417.603 409.274 416.528 406.788 413.485 406 409.704 407.247 411.572 409.062 412.977 411.322 413.637 417.268 415.373 424.056 411.288 426.494 404.51 427.426 401.923 427.583 399.323 427.09 397 429.118 400.036 429.638 404.286 428.131 408.476Z" fill="#B1C8E5" fill-rule="evenodd"/><path d="M415.892 399.876C413.74 401.293 411.596 401.384 411.102 400.071 410.609 398.758 411.951 396.548 414.109 395.124 416.26 393.707 418.405 393.616 418.898 394.929 419.392 396.242 418.043 398.459 415.892 399.876Z" fill="#FFFFFF" fill-rule="evenodd"/><path d="M424 554 409 554C412.062 513.891 412.365 467.483 411.945 417L420.388 417C419.651 466.377 420.463 512.779 424 554Z" fill="#7D97D3" fill-rule="evenodd"/><path d="M416 417 415.18 554 412 554C415.035 520.559 414.023 438.532 413.699 417L416 417Z" fill="#FFFFFF" fill-rule="evenodd"/><path d="M421.646 522 411.354 522C408.219 522 408.212 527 411.354 527L421.646 527C424.781 526.993 424.788 522 421.646 522Z" fill="#42669A" fill-rule="evenodd"/><path d="M420.275 495 412.727 495C410.424 495 410.424 500 412.727 500L420.275 500C422.572 500 422.578 495 420.275 495Z" fill="#42669A" fill-rule="evenodd"/><path d="M420.275 469 412.727 469C410.424 469 410.424 474 412.727 474L420.275 474C422.572 473.993 422.578 469 420.275 469Z" fill="#42669A" fill-rule="evenodd"/><path d="M420.275 443 412.725 443C410.425 443 410.425 448 412.725 448L420.275 448C422.575 447.993 422.575 443 420.275 443Z" fill="#42669A" fill-rule="evenodd"/><path d="M420.275 417 412.727 417C410.424 417 410.424 421 412.727 421L420.275 421C422.572 421 422.578 417 420.275 417Z" fill="#42669A" fill-rule="evenodd"/><path d="M445 560 391 560C391 560 391.094 559.759 391.323 559.349 392.61 557.078 398.173 549.573 415.949 549.033 416.003 549.026 416.03 549.026 416.03 549.026 416.67 549.006 417.323 549 417.997 549 437.395 549 443.336 556.993 444.677 559.349 444.906 559.759 445 560 445 560Z" fill="#42669A" fill-rule="evenodd"/><path d="M458 569 377 569C377 569 377.267 568.448 378 567.573 378.127 567.425 378.26 567.25 378.42 567.082 380.2 565.124 383.933 562.036 391.093 559.62 393.36 558.86 395.967 558.16 398.953 557.581 403.967 556.619 410.073 556 417.5 556 423.92 556 429.36 556.458 433.953 557.204 433.953 557.204 433.96 557.204 433.98 557.211 437.853 557.844 441.133 558.678 443.907 559.613 451.06 562.029 454.787 565.124 456.573 567.076 457.627 568.24 458 569 458 569Z" fill="#7D97D3" fill-rule="evenodd"/><path d="M495 578 340 578C340 578 346.912 570.625 378.244 566.978 380.535 566.709 382.953 566.467 385.518 566.245 385.679 566.231 385.826 566.218 385.947 566.204 386.034 566.198 386.114 566.191 386.201 566.184 386.362 566.171 386.442 566.164 386.442 566.164 395.149 565.444 405.417 565 417.5 565 428.806 565 438.531 565.39 446.863 566.036 450.406 566.312 453.695 566.628 456.756 566.985 488.088 570.625 495 578 495 578Z" fill="#42669A" fill-rule="evenodd"/><path d="M495 578 475.02 578C470.926 573.928 463.825 570.932 457.821 568.96 451.977 567.041 447.172 566.111 447.172 566.111 445.754 563.59 443.505 561.685 441.295 560.3 438 558.241 434.772 557.332 434.453 557.245 434.433 557.238 434.426 557.238 434.426 557.238 430.127 551.18 418 549 418 549 437.168 549 443.039 557.211 444.363 559.632 451.505 562.032 455.225 565.108 457.009 567.047 488.131 570.671 495 578 495 578Z" fill="#B1C8E5" fill-rule="evenodd"/><path d="M416 549C414.955 549.054 403.69 549.864 399.285 557.582 399.278 557.582 399.278 557.589 399.278 557.589 399.278 557.589 396.115 558.432 392.877 560.28 390.435 561.672 387.946 563.634 386.772 566.225 386.772 566.225 386.691 566.231 386.53 566.245 386.455 566.251 386.374 566.258 386.273 566.265 386.145 566.278 386.003 566.292 385.842 566.305 384.438 566.446 381.565 566.794 378.091 567.53 371.15 568.996 361.767 572.002 356.729 578L340 578C340 578 346.961 570.663 378.516 567.035 380.317 565.087 384.094 562.014 391.339 559.611 392.627 557.268 398.199 549.549 416 549Z" fill="#FFFFFF" fill-rule="evenodd"/><path d="M285 500 329.453 453 374 500" stroke="#FFB552" stroke-width="1.80136" stroke-linecap="round" stroke-linejoin="round" stroke-miterlimit="10" fill="none" fill-rule="evenodd"/><path d="M329 453 347 500" stroke="#FFB552" stroke-width="1.80136" stroke-linecap="round" stroke-linejoin="round" stroke-miterlimit="10" fill="none" fill-rule="evenodd"/><path d="M384 498.599C384 498.599 377.68 529 330.497 529 329.951 529 329.42 528.993 328.881 528.987 283.179 528.303 277 498.606 277 498.606 279.033 498.335 281.065 498.078 283.098 497.848 289.23 497.117 295.355 496.535 301.48 496.089 324.432 494.404 347.384 494.654 370.37 496.982 374.907 497.428 379.457 497.97 384 498.599Z" fill="#FFB552" fill-rule="evenodd"/><path d="M384 498.623C384 498.623 377.739 529 331 529 331 529 360.044 523.145 370.498 497 374.992 497.453 379.499 497.994 384 498.623Z" fill="#F7E1C6" fill-rule="evenodd"/><path d="M331 529C330.448 529 329.91 528.993 329.364 528.986 301.245 528.362 288.636 511.659 283 497.764 289.209 497.031 295.411 496.448 301.613 496 308.619 522.5 331 529 331 529Z" fill="#FFFFFF" fill-rule="evenodd" fill-opacity="0.501961"/><path d="M470 486 514.453 438 559 486" stroke="#FFB552" stroke-width="1.80136" stroke-linecap="round" stroke-linejoin="round" stroke-miterlimit="10" fill="none" fill-rule="evenodd"/><path d="M514 438 532 486" stroke="#FFB552" stroke-width="1.80136" stroke-linecap="round" stroke-linejoin="round" stroke-miterlimit="10" fill="none" fill-rule="evenodd"/><path d="M569 483.599C569 483.599 562.68 514 515.497 514 514.951 514 514.42 513.993 513.881 513.987 468.179 513.303 462 483.606 462 483.606 464.033 483.335 466.065 483.078 468.098 482.848 474.23 482.117 480.355 481.535 486.48 481.089 509.432 479.404 532.384 479.654 555.37 481.982 559.907 482.435 564.457 482.976 569 483.599Z" fill="#FFB552" fill-rule="evenodd"/><path d="M569 483.623C569 483.623 562.621 514 515 514 515 514 544.592 508.145 555.244 482 559.822 482.46 564.414 483.001 569 483.623Z" fill="#F7E1C6" fill-rule="evenodd"/><path d="M515 514C514.459 514 513.932 513.993 513.398 513.986 485.871 513.362 473.519 496.659 468 482.764 474.079 482.031 480.152 481.448 486.225 481 493.085 507.494 515 514 515 514Z" fill="#FFFFFF" fill-rule="evenodd" fill-opacity="0.501961"/><path d="M530.644 556 470 556C470.306 555.221 470.3 553.236 470.533 552.457L526.375 553.656 528.1 539.363 470.813 539.363C470.579 538.583 471.186 535.779 470.873 535L530.644 535.886C532.602 541.647 532.296 549.193 530.644 556Z" fill="#42669A" fill-rule="evenodd"/><path d="M579.815 558 530.552 556.066C531.816 549.316 531.473 541.787 530 536L579.809 538.279C582.882 544.08 582.573 551.236 579.815 558Z" fill="#5E80BB" fill-rule="evenodd"/><path d="M526.286 553 475 551.911C477.19 547.553 477.349 543.997 475 539L528 539 526.286 553Z" fill="#FFFFFF" fill-rule="evenodd"/><path d="M574 546.5C574 548.985 566.165 551 556.5 551 546.835 551 539 548.985 539 546.5 539 544.015 546.835 542 556.5 542 566.165 542 574 544.015 574 546.5Z" fill="#42669A" fill-rule="evenodd"/><path d="M518.404 542.82 481.596 542C480.801 541.981 480.801 543.161 481.596 543.18L518.404 544C519.199 544.019 519.199 542.839 518.404 542.82Z" fill="#AAC8FF" fill-rule="evenodd"/><path d="M518.426 547.759C508.811 547.504 499.189 547.249 489.575 547 488.809 546.98 488.809 548.221 489.575 548.241 499.189 548.496 508.811 548.752 518.426 549 519.192 549.021 519.192 547.779 518.426 547.759Z" fill="#AAC8FF" fill-rule="evenodd"/><path d="M526.359 578 453 578C453.375 577.053 453.985 575.3 454.266 574.36L523.285 575.159 523.285 557.827 454.413 559.083C454.132 558.143 453.368 555.94 453 555L526.359 555C528.724 561.971 528.362 569.74 526.359 578Z" fill="#32547C" fill-rule="evenodd"/><path d="M586.368 576.758 527 578C528.523 569.794 528.779 562.038 527 555L586.368 557.25C590.06 564.301 589.69 568.538 586.368 576.758Z" fill="#42669A" fill-rule="evenodd"/><path d="M524 575 459.661 574.276C462.353 568.98 461.88 565.225 459 559.153L524 558 524 575Z" fill="#FFFFFF" fill-rule="evenodd"/><path d="M510.412 562C499.552 562.166 488.693 562.332 477.833 562.498 474.751 562.544 471.67 562.589 468.588 562.642 467.804 562.657 467.804 564.015 468.588 564 479.448 563.834 490.308 563.668 501.167 563.502 504.249 563.457 507.331 563.411 510.412 563.359 511.196 563.351 511.196 561.985 510.412 562Z" fill="#AAC8FF" fill-rule="evenodd"/><path d="M517.419 567C505.262 567.19 493.098 567.386 480.941 567.576 477.485 567.632 474.037 567.688 470.581 567.737 469.806 567.751 469.806 569.014 470.581 569 482.739 568.81 494.902 568.614 507.059 568.424 510.515 568.368 513.963 568.312 517.419 568.263 518.194 568.256 518.194 566.986 517.419 567Z" fill="#AAC8FF" fill-rule="evenodd"/><path d="M512.732 570 519 570C519 570 511.743 577.735 499.78 578 501.349 577.456 502.503 576.803 503.097 576.007 499.918 576.945 496.511 577.236 493 577.197 493 577.204 507.292 575.12 512.732 570Z" fill="#FFB552" fill-rule="evenodd"/><path d="M398.679 572.055C398.436 572.697 398.093 573.252 397.642 573.726 384.982 587.287 291.995 535.76 291.995 535.76 291.995 535.76 282.324 543.744 276.61 530.812L264.273 527.943C264.273 527.943 262.482 532.57 258 528.766L265.363 509C265.363 509 269.839 510.451 269.267 514.536L279.867 522.052C279.867 522.052 290.447 514.911 294.512 527.435 294.526 527.428 405.725 553.138 398.679 572.055Z" fill="#32547C" fill-rule="evenodd"/><path d="M398 573.737C385.308 587.232 292.082 535.954 292.082 535.954 292.082 535.954 282.386 543.9 276.657 531.03L264.289 528.175C264.289 528.175 262.494 532.78 258 528.994L263.223 515.08C263.385 515.053 263.547 515.027 263.715 515 263.823 517.768 263.938 520.536 264.053 523.305 268.587 525.081 273.418 526.226 278.27 526.685 279.444 529.433 281.826 531.696 284.734 532.581 287.649 533.466 290.949 533.013 293.472 531.383 320.382 545.723 348.297 559.963 377.19 569.885 383.891 572.167 391.036 574.236 398 573.737Z" fill="#B1C8E5" fill-rule="evenodd"/><path d="M249.512 558.881C247.279 559.247 243.232 558.748 238.366 557.676L238.36 557.683C232.445 556.392 225.333 554.276 218.83 551.9 208.591 548.16 195.544 541.198 192.059 539.069 191.382 538.649 190.874 538.084 190.604 537.451 189.907 535.841 189.149 532.806 192.471 531.295 193.317 530.909 194.407 530.903 195.408 531.269L239.74 547.401C239.747 547.401 239.754 547.408 239.754 547.408L250.534 551.327C252.036 551.873 253.065 553.144 252.997 554.422 252.882 556.412 252.544 558.375 249.512 558.881Z" fill="#32547C" fill-rule="evenodd"/><path d="M248.743 548.963C248.516 549.403 248.075 549.745 247.273 549.903 247.066 549.942 246.839 549.975 246.572 549.988 245.122 550.074 242.611 549.686 239.518 548.963 239.511 548.963 239.511 548.963 239.511 548.963 234.581 547.819 228.189 545.86 222.383 543.743 214.22 540.765 203.686 535.571 200.854 534.006 200.306 533.704 199.885 533.316 199.631 532.902 199.551 532.77 199.464 532.626 199.391 532.468 199.257 532.205 199.137 531.909 199.077 531.607 198.856 530.686 199.043 529.68 200.546 529.168 200.6 529.141 200.653 529.128 200.7 529.115 201.341 528.918 202.176 528.977 202.978 529.273L246.899 545.268C247.086 545.334 247.267 545.413 247.434 545.498 248.356 545.971 248.977 546.695 248.997 547.372 249.01 547.937 248.99 548.503 248.743 548.963Z" fill="#7D97D3" fill-rule="evenodd"/><path d="M249.449 549C249.308 549 249.16 548.993 249.006 548.98 247.037 548.869 243.694 548.154 239.687 547.079 239.687 547.079 239.681 547.079 239.674 547.073 234.381 545.644 227.936 543.579 222.007 541.429 217.09 539.639 211.381 537.227 206.618 535.103 203.643 533.779 201.024 532.554 199.195 531.669 198.404 531.289 197.761 530.967 197.299 530.731 196.669 530.404 196.16 530.004 195.852 529.591 195.061 528.536 194.063 526.608 196.776 526.058 197.473 525.92 198.411 526.031 199.322 526.359L249.475 544.516C250.842 545.014 251.874 545.893 251.961 546.66 252.095 547.866 252.021 549.019 249.449 549Z" fill="#42669A" fill-rule="evenodd"/><path d="M263.575 520.773C259.873 531.199 252.475 540.625 249.219 544.467 249.052 544.67 248.885 544.852 248.739 545.021 248.505 545.291 248.225 545.514 247.918 545.676 247.331 545.98 246.644 546.081 245.97 545.932 244.056 545.5 242.141 545.034 240.233 544.535 227.184 541.091 214.336 535.926 201.661 529.301 201.454 529.193 201.267 529.065 201.1 528.91 200.52 528.403 200.153 527.681 200.106 526.904 200.093 526.648 200.073 526.364 200.06 526.054 199.846 521.368 199.98 510.638 204.383 498.605 208.746 486.667 216.711 478.922 220.567 475.702 221.921 474.567 222.768 474 222.768 474L261.067 488.74 266.717 490.915C266.717 490.915 266.804 491.772 266.884 493.264 267.144 498.248 267.291 510.307 263.575 520.773Z" fill="#7D97D3" fill-rule="evenodd"/><path d="M271.452 494C270.414 493.993 268.866 493.764 266.957 493.364 264.893 492.931 262.421 492.301 259.714 491.534 254.836 490.144 249.222 488.321 244.003 486.427 235.567 483.371 224.827 478.454 220.446 476.303 219.99 476.08 219.601 475.884 219.293 475.733 218.663 475.411 218.161 475.005 217.846 474.592 217.062 473.536 216.064 471.609 218.777 471.058 219.474 470.92 220.412 471.032 221.323 471.359L271.472 489.521C272.839 490.02 273.878 490.905 273.958 491.665 274.099 492.872 274.025 494.026 271.452 494Z" fill="#42669A" fill-rule="evenodd"/><path d="M270.293 488.896C270.079 488.942 269.839 488.975 269.571 488.988 267.808 489.093 264.462 488.489 260.441 487.458 260.434 487.458 260.434 487.458 260.434 487.458 255.859 486.288 250.402 484.58 245.386 482.748 237.223 479.772 226.69 474.582 223.858 473.019 223.31 472.717 222.89 472.329 222.636 471.909 222.556 471.771 222.475 471.626 222.395 471.462 222.015 470.694 221.754 469.695 222.362 468.933 222.622 468.598 223.05 468.309 223.704 468.112 224.339 467.921 225.181 467.974 225.982 468.27L269.899 484.252C271.101 484.692 271.969 485.559 271.996 486.361 272.003 486.61 272.003 486.86 271.983 487.103 271.903 487.931 271.549 488.634 270.293 488.896Z" fill="#7D97D3" fill-rule="evenodd"/><path d="M278.158 487.793C276.712 488.102 274.562 488.054 271.932 487.725 267.801 487.203 262.501 485.983 256.998 484.358 256.991 484.358 256.985 484.351 256.985 484.351 255.599 483.939 254.206 483.507 252.807 483.055 250.488 482.301 248.169 481.491 245.931 480.648 244.261 480.017 242.517 479.304 240.753 478.529 233.702 475.43 226.313 471.439 221.715 468.757 220.1 467.818 218.822 467.043 218.038 466.515 217.341 466.056 216.821 465.404 216.55 464.671 215.868 462.805 215.178 459.274 218.734 457.395 219.647 456.915 220.803 456.874 221.844 457.265L279.49 478.899C281.065 479.489 282.106 480.95 281.991 482.438 281.809 484.79 281.383 487.101 278.158 487.793Z" fill="#32547C" fill-rule="evenodd"/><path d="M278.168 487.907C276.714 488.207 274.554 488.161 271.912 487.84 271.831 488.674 271.477 489.395 270.201 489.655L271.389 490.089C272.775 490.596 273.827 491.496 273.909 492.27 274.038 493.498 273.97 494.672 271.355 494.645 270.302 494.638 268.733 494.405 266.798 493.998 267.069 498.928 267.226 510.842 263.443 521.182 259.673 531.483 252.141 540.795 248.826 544.591L249.315 544.771C250.701 545.278 251.747 546.172 251.835 546.953 251.964 548.18 251.889 549.348 249.281 549.328 249.139 549.328 248.989 549.321 248.833 549.308 248.602 549.755 248.154 550.102 247.339 550.262L250.198 551.302C251.706 551.849 252.738 553.124 252.671 554.404 252.562 556.399 252.222 558.374 249.186 558.881 246.945 559.248 242.883 558.747 238 557.673 245.505 554.184 239.664 549.488 239.453 549.314 239.447 549.314 239.447 549.314 239.447 549.314L239.372 547.373C240.995 546.599 239.671 544.658 239.671 544.658 240.092 544.224 240.499 543.791 240.9 543.35 241.281 542.937 241.654 542.53 242.014 542.116 263.083 518.274 259.449 492.143 259.449 492.143 261.093 491.536 261.154 490.416 260.868 489.528 260.644 488.834 260.216 488.281 260.162 488.201 260.155 488.201 260.155 488.201 260.155 488.201 261.228 487.32 260.04 486.273 258.804 485.526 257.921 484.999 257.017 484.618 256.888 484.565 261.194 484.852 264.366 484.512 266.71 483.831 273.596 481.85 273.264 477 273.264 477L279.478 479.262C281.061 479.835 282.107 481.256 281.991 482.704 281.835 484.985 281.407 487.233 278.168 487.907Z" fill="#B1C8E5" fill-rule="evenodd"/><path d="M219.152 494.604C214.917 500.505 209.843 504.121 207.826 502.685 205.81 501.249 207.612 495.296 211.847 489.396 216.082 483.495 221.156 479.879 223.173 481.315 225.189 482.757 223.394 488.71 219.152 494.604Z" fill="#FFFFFF" fill-rule="evenodd" fill-opacity="0.501961"/><path d="M263 568 192 568 192.153 567.011 193.883 556C197.563 556.272 201.224 556.515 204.87 556.703 207.679 556.864 210.48 556.989 213.262 557.08 214.38 557.121 215.505 557.156 216.616 557.198 217.641 557.226 218.652 557.247 219.664 557.268 229.44 557.477 239.083 557.365 248.586 556.871 252.858 556.662 257.097 556.369 261.303 556L262.867 567.018 263 568Z" fill="#7D97D3" fill-rule="evenodd"/><path d="M213 557.366 212.03 568 204 568 204.893 557C207.61 557.149 210.315 557.271 213 557.366Z" fill="#FFFFFF" fill-rule="evenodd"/><path d="M219 557.071 218.25 568 216 568 216.674 557C217.459 557.021 218.235 557.042 219 557.071Z" fill="#FFFFFF" fill-rule="evenodd"/><path d="M274 578 181 578 182.838 566C185.912 566.216 188.986 566.411 192.067 566.578 193.317 566.648 194.573 566.717 195.823 566.773 198.65 566.919 201.47 567.038 204.29 567.142 205.4 567.184 206.509 567.226 207.625 567.254 208.661 567.295 209.697 567.323 210.726 567.351 216.393 567.504 222.053 567.574 227.727 567.574 235.212 567.574 242.697 567.442 250.182 567.184 254.479 567.031 258.776 566.836 263.073 566.592 266.208 566.425 269.329 566.223 272.463 566.007L274 578Z" fill="#42669A" fill-rule="evenodd"/><path d="M204 567.362 203.046 578 195 578 195.883 567C198.597 567.143 201.292 567.259 204 567.362Z" fill="#FFFFFF" fill-rule="evenodd"/><path d="M210 568.091 209.02 578 206 578 206.886 568C207.926 568.045 208.96 568.071 210 568.091Z" fill="#FFFFFF" fill-rule="evenodd"/><path d="M274 578 264.538 578 262.76 570.817 251.585 567.772 250.441 567.457 250.435 567.389 249 556.854C253.245 556.649 257.457 556.362 261.636 556L263.189 566.802C266.29 566.638 269.378 566.44 272.479 566.228L274 578Z" fill="#B1C8E5" fill-rule="evenodd"/><path d="M363.537 374.491C361.866 380.246 364.198 386.929 369.118 390.406 374.037 393.877 381.202 393.87 386.094 390.353 390.987 386.836 393.219 380.068 391.334 374.378 389.389 368.504 383.32 364.755 377.292 364.059 371.196 363.357 365.134 369 363.537 374.491Z" stroke="#AAC8FF" stroke-width="1.80136" stroke-linecap="round" stroke-linejoin="round" stroke-miterlimit="10" fill="none" fill-rule="evenodd"/><path d="M372.222 374.491C371.531 380.246 372.495 386.929 374.533 390.406 376.571 393.877 379.532 393.87 381.557 390.353 383.581 386.836 384.504 380.068 383.725 374.378 382.918 368.504 380.408 364.755 377.919 364.059 375.388 363.357 372.885 369 372.222 374.491Z" stroke="#AAC8FF" stroke-width="1.80136" stroke-linecap="round" stroke-linejoin="round" stroke-miterlimit="10" fill="none" fill-rule="evenodd"/><path d="M363 378 392 378" stroke="#AAC8FF" stroke-width="1.80136" stroke-linecap="round" stroke-linejoin="round" stroke-miterlimit="10" fill="none" fill-rule="evenodd"/><path d="M366 369C366 369 376.944 376.866 390 370.536" stroke="#AAC8FF" stroke-width="1.80136" stroke-linecap="round" stroke-linejoin="round" stroke-miterlimit="10" fill="none" fill-rule="evenodd"/><path d="M365 386C365 386 373.852 382.192 391 385.085" stroke="#AAC8FF" stroke-width="1.80136" stroke-linecap="round" stroke-linejoin="round" stroke-miterlimit="10" fill="none" fill-rule="evenodd"/><path d="M469 364C478.439 360.002 486.116 355.998 492.026 352 497.248 356.807 504.926 360.671 514 364L469 364Z" stroke="#AAC8FF" stroke-width="1.80136" stroke-linecap="round" stroke-linejoin="round" stroke-miterlimit="10" fill="none" fill-rule="evenodd"/><path d="M475.002 364 474 384 478 384 478 364Z" stroke="#AAC8FF" stroke-width="1.80136" stroke-linecap="round" stroke-linejoin="round" stroke-miterlimit="10" fill="none" fill-rule="evenodd"/><path d="M482.75 364 482 384 485 384 485 364Z" stroke="#AAC8FF" stroke-width="1.80136" stroke-linecap="round" stroke-linejoin="round" stroke-miterlimit="10" fill="none" fill-rule="evenodd"/><path d="M490 364 489 384 493 384 493 364Z" stroke="#AAC8FF" stroke-width="1.80136" stroke-linecap="round" stroke-linejoin="round" stroke-miterlimit="10" fill="none" fill-rule="evenodd"/><path d="M497.75 364 497 384 500 384 500 364Z" stroke="#AAC8FF" stroke-width="1.80136" stroke-linecap="round" stroke-linejoin="round" stroke-miterlimit="10" fill="none" fill-rule="evenodd"/><path d="M505 364 504 384 508 384 508 364Z" stroke="#AAC8FF" stroke-width="1.80136" stroke-linecap="round" stroke-linejoin="round" stroke-miterlimit="10" fill="none" fill-rule="evenodd"/><path d="M470.327 384 512 384 512 387 469 387Z" stroke="#AAC8FF" stroke-width="1.80136" stroke-linecap="round" stroke-linejoin="round" stroke-miterlimit="10" fill="none" fill-rule="evenodd"/><path d="M208.202 445C223.234 439.603 224.75 425.375 225.149 422.598 225.548 419.822 229 414.262 229 414.262 214.469 412.251 208.608 403 208.608 403 208.608 403 202.571 412.142 188 413.869 188 413.869 191.343 419.497 191.688 422.28 192.04 425.056 193.279 439.312 208.202 445Z" stroke="#AAC8FF" stroke-width="1.80136" stroke-linecap="round" stroke-linejoin="round" stroke-miterlimit="10" fill="none" fill-rule="evenodd"/><path d="M208.265 441C219.637 436.754 220.78 425.576 221.084 423.397 221.389 421.217 224 416.845 224 416.845 213.012 415.272 208.583 408 208.583 408 208.583 408 204.014 415.185 193 416.545 193 416.545 195.532 420.964 195.79 423.15 196.048 425.33 196.98 436.528 208.265 441Z" stroke="#AAC8FF" stroke-width="1.80136" stroke-linecap="round" stroke-linejoin="round" stroke-miterlimit="10" fill="none" fill-rule="evenodd"/><path d="M203 425C204.772 423.088 206.44 421.081 208 419" stroke="#AAC8FF" stroke-width="1.80136" stroke-linecap="round" stroke-linejoin="round" stroke-miterlimit="10" fill="none" fill-rule="evenodd"/><path d="M205 433C207.877 428.589 210.884 424.258 214 420" stroke="#AAC8FF" stroke-width="1.80136" stroke-linecap="round" stroke-linejoin="round" stroke-miterlimit="10" fill="none" fill-rule="evenodd"/><path d="M549.785 431 547 427.678C547 427.678 567.561 401.218 574.091 406.764 580.627 412.317 549.785 431 549.785 431Z" stroke="#AAC8FF" stroke-width="1.80136" stroke-linecap="round" stroke-linejoin="round" stroke-miterlimit="10" fill="none" fill-rule="evenodd"/><path d="M549 431.298 542.471 437 540 434.011 546.267 428" stroke="#AAC8FF" stroke-width="1.80136" stroke-linecap="round" stroke-linejoin="round" stroke-miterlimit="10" fill="none" fill-rule="evenodd"/><path d="M542.918 437.07C542.918 437.07 544.669 442.265 532 443 532 443 533.469 433.413 540.204 434.028" stroke="#AAC8FF" stroke-width="1.80136" stroke-linecap="round" stroke-linejoin="round" stroke-miterlimit="10" fill="none" fill-rule="evenodd"/><path d="M568 417.709C568 417.709 567.786 413.017 562.165 411.002L560.423 409C560.423 409 551.754 416.734 549 421" stroke="#AAC8FF" stroke-width="1.80136" stroke-linecap="round" stroke-linejoin="round" stroke-miterlimit="10" fill="none" fill-rule="evenodd"/><path d="M262.257 361C269.106 362.331 276.023 362.712 283 362.147L282.743 366 262 364.853 262.257 361Z" stroke="#AAC8FF" stroke-width="1.80136" stroke-linecap="round" stroke-linejoin="round" stroke-miterlimit="10" fill="none" fill-rule="evenodd"/><path d="M280.341 366C280.341 366 284.85 377.07 279 384" stroke="#AAC8FF" stroke-width="1.80136" stroke-linecap="round" stroke-linejoin="round" stroke-miterlimit="10" fill="none" fill-rule="evenodd"/><path d="M261.257 383 282 384.154 281.743 388C275.793 386.747 268.876 386.364 261 386.846L261.257 383Z" stroke="#AAC8FF" stroke-width="1.80136" stroke-linecap="round" stroke-linejoin="round" stroke-miterlimit="10" fill="none" fill-rule="evenodd"/><path d="M282 373.993C282 373.993 319.649 369.564 319.998 373.911 320.34 378.259 282.496 376.745 282.496 376.745" stroke="#AAC8FF" stroke-width="1.80136" stroke-linecap="round" stroke-linejoin="round" stroke-miterlimit="10" fill="none" fill-rule="evenodd"/><path d="M265 365C265 365 258.995 374.398 263.976 383" stroke="#AAC8FF" stroke-width="1.80136" stroke-linecap="round" stroke-linejoin="round" stroke-miterlimit="10" fill="none" fill-rule="evenodd"/><path d="M285 400 286.318 405.079 291 406.5 286.318 407.921 285 413 283.689 407.921 279 406.5 283.689 405.079Z" fill="#FFB552" fill-rule="evenodd"/><path d="M386 441 387.312 446.079 392 447.5 387.312 448.928 386 454 384.689 448.928 380 447.5 384.689 446.079Z" fill="#FFB552" fill-rule="evenodd"/><path d="M294.503 413 295.269 416.127 298 417.003 295.269 417.873 294.503 421 293.737 417.873 291 417.003 293.737 416.127Z" fill="#FFB552" fill-rule="evenodd"/><path d="M548.996 447 549.872 450.51 553 451.496 549.872 452.482 548.996 456 548.121 452.482 545 451.496 548.121 450.51Z" fill="#FFB552" fill-rule="evenodd"/><path d="M453.004 384 453.872 387.12 457 387.997 453.872 388.873 453.004 392 452.128 388.873 449 387.997 452.128 387.12Z" fill="#FFB552" fill-rule="evenodd"/><path d="M553.997 460 555.09 463.904 559 465 555.09 466.09 553.997 470 552.91 466.09 549 465 552.91 463.904Z" fill="#FFB552" fill-rule="evenodd"/><path d="M199.497 456 200.263 459.124 203 460 200.263 460.876 199.497 464 198.731 460.876 196 460 198.731 459.124Z" fill="#FFB552" fill-rule="evenodd"/></g></svg>