<svg width="510" height="378" xmlns="http://www.w3.org/2000/svg" xmlns:xlink="http://www.w3.org/1999/xlink" overflow="hidden"><defs><clipPath id="clip0"><rect x="465" y="312" width="510" height="378"/></clipPath></defs><g clip-path="url(#clip0)" transform="translate(-465 -312)"><path d="M910.782 464.862 910.886 445.946 899.292 445.883 899.407 424.813 892.368 424.773 892.425 414.44 882.901 414.382 882.987 397.843 872.668 392 872.547 414.33 864.677 414.284 864.619 424.623 856.75 424.577 856.634 445.652 846.286 445.595 846.061 485.684 820.82 471.35 820.676 497.221 793.516 497.071 793.625 477.711 760.233 477.527 760.129 495.632 721.767 495.425 721.894 472.467 677.57 443.424 677.409 473.296 650.248 473.146 650.369 450.793 618.084 450.62 618.205 429.211 593.293 402.552 568.243 402.414 567.862 471.246 567.666 471.241 567.718 462.042 551.76 448.761 551.829 436.775 550.93 436.77 550.86 448.755 534.769 461.857 534.671 479.553 504 479.553 504 669 949 654.309 949 464.862Z" fill="#C6E5A4" fill-rule="evenodd"/><path d="M923.247 515.5 923.413 485.993 907.812 472.996 907.875 461.275 906.994 461.269 906.931 472.99 891.18 485.815 891.134 494.823 890.944 494.817 891.318 427.469 866.807 427.336 842.158 453.152 842.043 474.094 810.465 473.921 810.344 495.794 783.779 495.645 783.94 466.42 740.283 494.351 740.156 516.816 702.633 516.609 702.731 498.893 670.066 498.714 669.962 517.65 643.397 517.506 643.535 492.196 618.696 505.946 618.909 466.719 608.786 466.661 608.895 446.047 601.201 446.001 601.259 435.89 593.564 435.844 593.685 414 583.527 419.605 583.435 435.792 574.118 435.741 574.066 445.852 567.177 445.817 567.062 466.431 555.725 466.368 555.443 517.437 532.152 517.437 532.152 502.905 505 502.905 505 651.628 953 671 953 515.5Z" fill="#D9EEC3" fill-rule="evenodd"/><path d="M934.6 474.739 934.692 457.634 928.989 457.605 929.035 449.214 921.314 449.168 921.383 435.742 913.019 431 912.921 449.122 906.539 449.088 906.494 457.479 900.118 457.444 900.02 474.549 891.627 474.503 891 587.713 943.373 588 944 474.791Z" fill="#A0D468" fill-rule="evenodd"/><path d="M896.952 565.709 896.986 559.651 913.14 559.741 913.107 565.798Z" fill="#79B835" fill-rule="evenodd"/><path d="M922.026 565.854 922.059 559.796 938.214 559.885 938.18 565.943Z" fill="#79B835" fill-rule="evenodd"/><path d="M897.022 552.577 897.055 546.52 913.209 546.61 913.176 552.667Z" fill="#79B835" fill-rule="evenodd"/><path d="M922.095 552.71 922.128 546.653 938.283 546.742 938.25 552.799Z" fill="#79B835" fill-rule="evenodd"/><path d="M897.097 539.44 897.13 533.382 913.285 533.471 913.251 539.529Z" fill="#79B835" fill-rule="evenodd"/><path d="M922.17 539.578 922.203 533.521 938.358 533.61 938.324 539.667Z" fill="#79B835" fill-rule="evenodd"/><path d="M897.167 526.302 897.2 520.244 913.354 520.334 913.321 526.391Z" fill="#79B835" fill-rule="evenodd"/><path d="M922.239 526.44 922.273 520.383 938.427 520.472 938.394 526.529Z" fill="#79B835" fill-rule="evenodd"/><path d="M897.241 513.164 897.275 507.106 913.429 507.196 913.396 513.253Z" fill="#79B835" fill-rule="evenodd"/><path d="M922.315 513.303 922.348 507.245 938.503 507.335 938.469 513.392Z" fill="#79B835" fill-rule="evenodd"/><path d="M897.311 500.025 897.344 493.968 913.499 494.057 913.466 500.114Z" fill="#79B835" fill-rule="evenodd"/><path d="M922.384 500.165 922.418 494.108 938.572 494.197 938.539 500.254Z" fill="#79B835" fill-rule="evenodd"/><path d="M897.386 486.887 897.419 480.83 913.574 480.919 913.54 486.976Z" fill="#79B835" fill-rule="evenodd"/><path d="M902.209 474.136 902.29 459.399 908.347 459.433 908.266 474.169Z" fill="#79B835" fill-rule="evenodd"/><path d="M910.525 474.187 910.607 459.451 916.664 459.484 916.583 474.221Z" fill="#79B835" fill-rule="evenodd"/><path d="M918.842 474.228 918.924 459.491 924.981 459.525 924.9 474.261Z" fill="#79B835" fill-rule="evenodd"/><path d="M927.159 474.275 927.24 459.538 933.298 459.572 933.216 474.309Z" fill="#79B835" fill-rule="evenodd"/><path d="M922.459 487.027 922.493 480.97 938.647 481.059 938.614 487.116Z" fill="#79B835" fill-rule="evenodd"/><path d="M910.088 572 910 587.959 914.191 587.982 916.918 588 916.953 581.153C916.871 581.153 916.801 581.071 916.801 580.977L916.813 579.271C916.813 579.171 916.883 579.094 916.965 579.094L916.994 573.365 917 572.047 910.088 572Z" fill="#E4E7F1" fill-rule="evenodd"/><path d="M925 572.041 918.082 572 918.076 573.318 918.047 579.091C918.088 579.12 918.123 579.167 918.123 579.232L918.111 580.939C918.111 581.003 918.076 581.05 918.035 581.08L918 587.965 924.643 588 924.918 588 925 572.041Z" fill="#E4E7F1" fill-rule="evenodd"/><path d="M917.037 579.171 917 580.829C917 580.926 917.222 581 917.482 581 917.741 581 917.963 580.926 917.963 580.829L918 579.171C918 579.074 917.778 579 917.518 579 917.259 579 917.037 579.08 917.037 579.171Z" fill="#D8D8D8" fill-rule="evenodd"/><path d="M918.963 580.829 919 579.171C919 579.109 918.889 579.063 918.759 579.034 918.685 579.017 918.611 579 918.519 579 918.259 579 918.037 579.074 918.037 579.171L918 580.829C918 580.926 918.222 581 918.482 581 918.574 581 918.648 580.983 918.722 580.966 918.871 580.937 918.963 580.892 918.963 580.829Z" fill="#D8D8D8" fill-rule="evenodd"/><path d="M633.896 426.098 616.689 426 616 550.81 650.415 551 651 444.468 633.896 426.098Z" fill="#A0D468" fill-rule="evenodd"/><path d="M627.077 538 627 550.972 630.591 550.989 632.929 551 632.959 545.435C632.888 545.435 632.829 545.367 632.829 545.289L632.835 543.903C632.835 543.824 632.894 543.757 632.965 543.762L632.994 539.104 633 538.034 627.077 538Z" fill="#79B835" fill-rule="evenodd"/><path d="M639 538.034 633.071 538 633.065 539.071 633.036 543.762C633.071 543.79 633.1 543.824 633.1 543.874L633.095 545.261C633.095 545.312 633.065 545.351 633.03 545.374L633 550.972 638.699 551 638.935 551 639 538.034Z" fill="#79B835" fill-rule="evenodd"/><path d="M632.022 543.169 632 544.825C632 544.919 632.222 545 632.489 545 632.756 545 632.978 544.926 632.978 544.832L633 543.175C633 543.081 632.778 543 632.511 543 632.244 542.994 632.022 543.074 632.022 543.169Z" fill="#D8D8D8" fill-rule="evenodd"/><path d="M633.978 544.825 634 543.168C634 543.108 633.889 543.061 633.756 543.034 633.689 543.02 633.6 543 633.511 543 633.244 543 633.022 543.074 633.022 543.168L633 544.825C633 544.919 633.222 545 633.489 545 633.578 545 633.667 544.98 633.733 544.966 633.867 544.926 633.978 544.886 633.978 544.825Z" fill="#D8D8D8" fill-rule="evenodd"/><path d="M619.214 532.479 619.255 524.969 626.765 525.011 626.723 532.52Z" fill="#79B835" fill-rule="evenodd"/><path d="M629.537 532.536 629.578 525.027 637.088 525.068 637.046 532.578Z" fill="#79B835" fill-rule="evenodd"/><path d="M639.883 532.595 639.925 525.085 647.435 525.127 647.393 532.636Z" fill="#79B835" fill-rule="evenodd"/><path d="M619.277 521.687 619.319 514.178 626.828 514.219 626.787 521.729Z" fill="#79B835" fill-rule="evenodd"/><path d="M629.595 521.745 629.636 514.235 637.146 514.277 637.104 521.786Z" fill="#79B835" fill-rule="evenodd"/><path d="M639.942 521.803 639.983 514.293 647.493 514.335 647.451 521.844Z" fill="#79B835" fill-rule="evenodd"/><path d="M619.336 510.902 619.377 503.392 626.887 503.434 626.845 510.943Z" fill="#79B835" fill-rule="evenodd"/><path d="M629.659 510.959 629.7 503.45 637.21 503.491 637.168 511.001Z" fill="#79B835" fill-rule="evenodd"/><path d="M640.006 511.017 640.047 503.508 647.557 503.549 647.515 511.059Z" fill="#79B835" fill-rule="evenodd"/><path d="M619.394 500.116 619.435 492.607 626.945 492.648 626.903 500.158Z" fill="#79B835" fill-rule="evenodd"/><path d="M629.717 500.173 629.759 492.663 637.268 492.705 637.227 500.214Z" fill="#79B835" fill-rule="evenodd"/><path d="M640.064 500.232 640.105 492.722 647.615 492.763 647.573 500.273Z" fill="#79B835" fill-rule="evenodd"/><path d="M619.452 489.324 619.493 481.815 627.003 481.856 626.961 489.366Z" fill="#79B835" fill-rule="evenodd"/><path d="M629.775 489.382 629.817 481.872 637.326 481.913 637.285 489.423Z" fill="#79B835" fill-rule="evenodd"/><path d="M640.122 489.44 640.163 481.93 647.673 481.972 647.631 489.481Z" fill="#79B835" fill-rule="evenodd"/><path d="M619.51 478.539 619.552 471.029 627.061 471.07 627.02 478.58Z" fill="#79B835" fill-rule="evenodd"/><path d="M629.833 478.596 629.875 471.086 637.384 471.128 637.343 478.637Z" fill="#79B835" fill-rule="evenodd"/><path d="M640.18 478.654 640.222 471.144 647.731 471.186 647.69 478.695Z" fill="#79B835" fill-rule="evenodd"/><path d="M619.574 467.753 619.616 460.243 627.125 460.285 627.084 467.794Z" fill="#79B835" fill-rule="evenodd"/><path d="M629.897 467.81 629.939 460.301 637.448 460.342 637.407 467.852Z" fill="#79B835" fill-rule="evenodd"/><path d="M640.238 467.868 640.28 460.359 647.789 460.4 647.748 467.91Z" fill="#79B835" fill-rule="evenodd"/><path d="M619.632 456.961 619.674 449.451 627.183 449.493 627.142 457.003Z" fill="#79B835" fill-rule="evenodd"/><path d="M629.956 457.019 629.997 449.509 637.507 449.551 637.465 457.06Z" fill="#79B835" fill-rule="evenodd"/><path d="M640.302 457.077 640.344 449.567 647.853 449.609 647.812 457.118Z" fill="#79B835" fill-rule="evenodd"/><path d="M619.69 446.175 619.732 438.666 627.241 438.707 627.2 446.217Z" fill="#79B835" fill-rule="evenodd"/><path d="M630.014 446.233 630.055 438.723 637.565 438.765 637.523 446.274Z" fill="#79B835" fill-rule="evenodd"/><path d="M648 446 640 445.963 640.043 439Z" fill="#79B835" fill-rule="evenodd"/><path d="M619.749 435.39 619.79 427.88 627.3 427.922 627.258 435.431Z" fill="#79B835" fill-rule="evenodd"/><path d="M638 435 630 434.963 630.043 428Z" fill="#79B835" fill-rule="evenodd"/><path d="M540.827 470.081 526.571 470 526 576.838 554.513 577 555 485.809 540.827 470.081Z" fill="#A0D468" fill-rule="evenodd"/><path d="M535.064 565 535 575.972 537.992 575.989 539.936 576 539.965 571.293C539.908 571.293 539.855 571.237 539.855 571.17L539.861 569.999C539.861 569.931 539.913 569.875 539.971 569.875L539.994 565.936 540 565.028 535.064 565Z" fill="#E4E7F1" fill-rule="evenodd"/><path d="M546 565.028 541.069 565 541.064 565.908 541.04 569.878C541.069 569.9 541.092 569.934 541.092 569.973L541.087 571.145C541.087 571.19 541.064 571.218 541.029 571.24L541 575.972 545.734 576 545.931 576 546 565.028Z" fill="#E4E7F1" fill-rule="evenodd"/><path d="M540.026 570.174 540 571.826C540 571.921 540.205 572 540.487 572 540.744 572 540.974 571.921 540.974 571.826L541 570.174C541 570.079 540.795 570 540.513 570 540.231 570.008 540.026 570.079 540.026 570.174Z" fill="#D8D8D8" fill-rule="evenodd"/><path d="M540.974 571.826 541 570.174C541 570.111 540.895 570.071 540.763 570.039 540.684 570.024 540.605 570.008 540.526 570 540.263 570 540.026 570.079 540.026 570.174L540 571.826C540 571.921 540.211 572 540.5 572 540.605 572 540.658 571.984 540.737 571.968 540.869 571.937 540.974 571.889 540.974 571.826Z" fill="#D8D8D8" fill-rule="evenodd"/><path d="M528.712 560.807 528.747 554.421 535.133 554.457 535.098 560.842Z" fill="#79B835" fill-rule="evenodd"/><path d="M537.492 560.86 537.527 554.474 543.913 554.51 543.878 560.896Z" fill="#79B835" fill-rule="evenodd"/><path d="M546.286 560.904 546.321 554.519 552.707 554.554 552.672 560.94Z" fill="#79B835" fill-rule="evenodd"/><path d="M528.765 551.639 528.8 545.254 535.186 545.289 535.151 551.675Z" fill="#79B835" fill-rule="evenodd"/><path d="M537.539 551.687 537.575 545.301 543.96 545.336 543.925 551.722Z" fill="#79B835" fill-rule="evenodd"/><path d="M546.34 551.731 546.375 545.346 552.761 545.381 552.726 551.767Z" fill="#79B835" fill-rule="evenodd"/><path d="M528.818 542.466 528.853 536.08 535.239 536.115 535.204 542.501Z" fill="#79B835" fill-rule="evenodd"/><path d="M537.593 542.513 537.628 536.128 544.014 536.163 543.979 542.549Z" fill="#79B835" fill-rule="evenodd"/><path d="M546.387 542.564 546.422 536.178 552.808 536.214 552.773 542.599Z" fill="#79B835" fill-rule="evenodd"/><path d="M528.866 533.293 528.901 526.907 535.287 526.942 535.251 533.328Z" fill="#79B835" fill-rule="evenodd"/><path d="M537.64 533.34 537.675 526.954 544.061 526.99 544.026 533.375Z" fill="#79B835" fill-rule="evenodd"/><path d="M546.44 533.39 546.475 527.005 552.861 527.04 552.826 533.426Z" fill="#79B835" fill-rule="evenodd"/><path d="M528.919 524.119 528.954 517.733 535.34 517.769 535.305 524.154Z" fill="#79B835" fill-rule="evenodd"/><path d="M537.693 524.167 537.728 517.781 544.114 517.816 544.079 524.202Z" fill="#79B835" fill-rule="evenodd"/><path d="M546.487 524.217 546.523 517.832 552.908 517.867 552.873 524.253Z" fill="#79B835" fill-rule="evenodd"/><path d="M528.967 514.946 529.002 508.56 535.388 508.595 535.352 514.981Z" fill="#79B835" fill-rule="evenodd"/><path d="M537.746 514.999 537.782 508.614 544.167 508.649 544.132 515.035Z" fill="#79B835" fill-rule="evenodd"/><path d="M546.541 515.044 546.576 508.658 552.962 508.694 552.926 515.079Z" fill="#79B835" fill-rule="evenodd"/><path d="M529.02 505.778 529.055 499.393 535.441 499.428 535.405 505.814Z" fill="#79B835" fill-rule="evenodd"/><path d="M537.794 505.826 537.829 499.44 544.215 499.476 544.18 505.861Z" fill="#79B835" fill-rule="evenodd"/><path d="M546.594 505.876 546.629 499.491 553.015 499.526 552.98 505.912Z" fill="#79B835" fill-rule="evenodd"/><path d="M529.067 496.605 529.102 490.219 535.488 490.254 535.453 496.64Z" fill="#79B835" fill-rule="evenodd"/><path d="M537.847 496.653 537.882 490.267 544.268 490.302 544.233 496.688Z" fill="#79B835" fill-rule="evenodd"/><path d="M546.642 496.703 546.677 490.317 553.062 490.352 553.027 496.738Z" fill="#79B835" fill-rule="evenodd"/><path d="M529.12 487.432 529.155 481.046 535.541 481.081 535.506 487.467Z" fill="#79B835" fill-rule="evenodd"/><path d="M537.895 487.479 537.93 481.093 544.316 481.128 544.281 487.514Z" fill="#79B835" fill-rule="evenodd"/><path d="M553 488 547 487.962 547.033 481Z" fill="#79B835" fill-rule="evenodd"/><path d="M529.168 478.258 529.203 471.873 535.589 471.908 535.553 478.294Z" fill="#79B835" fill-rule="evenodd"/><path d="M544 478 538 477.968 538.038 472Z" fill="#79B835" fill-rule="evenodd"/><path d="M974 592.104C904.965 548.813 817.894 523 723.309 523 625.195 523 535.212 550.766 465 596.983L465 690 974 690 974 592.104Z" fill="#517B23" fill-rule="evenodd"/><path d="M948 596.226C948 602.783 945.428 609.155 940.574 615.207 940.574 615.219 940.533 615.219 940.533 615.236 940.412 615.329 940.331 615.422 940.25 615.515L930.414 617.012 918.531 618.839 911.428 613.252 890.999 610.878 868.881 608.308 864.945 615.845 840.539 608.575 842.868 620.006 872.054 623.134 847.607 639.503 835.043 645.474 830.749 647.528 806.661 659 791.328 643.106 785.387 636.909 775.915 626.766 762.628 627.016 747.255 627.282 732.605 627.549 720 611.429 742.36 604.53 756.207 600.253 762.911 600.903 809.718 605.383 809.921 605.395 810.123 605.406 813.336 605.725 835.494 604.455 835.818 604.019 838.464 600.364 823.092 598.669 819.838 598.31 825.779 595.872 828.709 595.78 852.075 594.996 837.823 591.114 836.702 590.812 798.564 597.143 790.172 596.058 772.268 593.725 767.252 596.946 761.831 597.544 746.573 599.197 734.171 597.433 738.026 593.25 756.329 592.362 758.698 588.068 767.09 585.05 774.077 582.52 792.663 583.101 810.325 577.402 821.046 573.932 824.86 571.205 808.042 571.988 819.566 564.967 801.54 568.478 795.316 576.079 782.012 578.412 784.098 574.704 772.014 574.611 771.089 574.611C771.089 574.611 788.514 562.901 788.832 562.611 789.115 562.321 814.521 556.571 814.521 556.571L818.734 556.872 824.074 557.267 825.08 557.348 834.315 558.021 842.302 563.093 840.135 563.992 834.032 566.511 841.418 569.238 855.589 564.561 876.625 560.308 888.987 557.83 903.759 559.576 904.921 555.097 908.013 554C911.342 555.59 914.474 557.232 917.445 558.903L917.485 558.892C936.886 569.865 948 582.625 948 596.226Z" fill="#FFFFFF" fill-rule="evenodd"/><path d="M880.479 633 876.33 635.289 868.924 636.454 868.478 639.085 867 641.711 872.482 644 880.63 639.132 880.775 636.112 883 636.356 882.258 633.388Z" fill="#FFFFFF" fill-rule="evenodd"/><path d="M601 535.407 610.401 538.071 619.802 537.816 608.442 540.99 615.102 542.384 631.944 542.639 637.817 549.622 644.839 553.38 645.649 553.811 641.73 563.843 646.442 567.431 649.568 569.811 660.538 574 670.721 567.142 675.513 566.184 686.236 564.047 691.091 563.078 706.762 559.524 693.051 555.018 701.866 551.017 707.745 548.54 716.559 545.876 714.29 538.513 713.227 535.073 713.031 534.449 714.221 533.1 717.732 529.116 731 523.062C728.408 523.034 725.823 523 723.208 523 718.295 523 713.428 523.068 708.595 523.17L705.98 523.595 706.222 523.232C673.33 524.032 642.42 527.132 615.038 532.046L613.516 532.409 601 535.407Z" fill="#FFFFFF" fill-rule="evenodd"/><path d="M637.348 657.672 635.702 655.205 634.592 653.539C634.592 653.539 647.39 653.02 647.39 652.83 647.39 652.634 658.224 646.179 658.814 646.052 659.403 645.925 673.189 644.242 673.189 644.242L674.443 639.47 674.767 638.236C674.767 638.236 687.767 633.458 685.797 633.135 683.826 632.813 675.165 630.617 675.165 630.617L664.927 629.971 650.158 629.326C650.158 629.326 651.14 627.971 650.354 627.452 649.569 626.934 645.432 624.352 645.432 624.352L636.372 624.225 618.056 620.548 598.116 621.147 596.59 621.193 593.58 622.571C584.301 621.037 571.04 618.824 566.285 617.914 565.516 617.764 564.962 617.648 564.69 617.579 561.737 616.807 549.921 614.288 548.737 613.51 547.558 612.738 548.737 606.928 548.737 606.928L571.19 606.346 586.554 609.447 586.554 606.023 586.554 602.865C586.554 602.865 599.549 597.055 601.322 596.669 602.033 596.513 605.142 595.7 608.597 594.778 613.728 593.418 619.639 591.827 619.639 591.827L614.912 588.536 630.865 585.631 636.77 589.7 637.903 586.911 639.134 583.891 627.907 579.049 620.269 574.553 619.24 573.948 617.183 575.314 612.74 578.271 608.551 577.447 607.869 577.314 606.835 577.112C606.835 577.112 606.702 576.455 606.488 575.648 606.164 574.461 605.65 572.957 605.067 572.726 604.916 572.669 604.471 572.571 603.83 572.444 600.219 571.746 590.269 570.236 590.102 570.403 590.009 570.496 589.194 572.058 588.374 573.666 587.473 575.429 586.56 577.245 586.56 577.245L590.044 579.291 591.286 580.023 586.756 581.378 588.137 583.441 581.244 582.277C581.244 582.277 579.863 581.372 578.488 581.049 578.228 580.986 577.39 580.824 576.217 580.605 571.213 579.66 559.975 577.631 559.975 577.631L555.642 578.34 553.082 572.144 563.176 568.669 568.833 566.72 583.798 562.524 577.494 559.101 570.601 562.651C570.601 562.651 563.511 559.424 562.333 558.905 561.148 558.386 556.82 552 556.82 552L533.581 560.133C533.581 560.133 531.241 560.046 528.641 560 509.816 570.778 499 583.251 499 596.559 499 598.403 499.277 600.231 499.688 602.04L504.044 604.934 511.92 611.775 521.765 608.807 533.148 616.38 535.159 617.718 553.325 620.046 589.096 624.634 579.667 628.945 585.335 633.112 594.239 639.66 607.886 641.579 608.025 641.597 603.299 648.461 602.513 649.602 602.513 655.798 601.565 658.386C607.684 659.689 614.005 660.893 620.517 662 622.603 661.061 624.764 660.092 624.96 659.994 625.336 659.804 637.348 657.672 637.348 657.672Z" fill="#FFFFFF" fill-rule="evenodd"/><path d="M642.18 381.429C639.908 381.429 637.901 382.536 636.656 384.232 636.266 383.701 635.801 383.222 635.273 382.822 635.589 380.755 634.952 378.574 633.358 376.987 630.696 374.338 626.377 374.338 623.709 376.987 622.402 378.289 621.736 379.99 621.713 381.691 621.111 381.52 620.474 381.423 619.82 381.423 616.052 381.423 613 384.461 613 388.212 613 391.963 616.052 395 619.82 395 620.153 395 620.48 394.977 620.801 394.932L630.151 394.932C630.472 394.977 630.799 395 631.132 395 631.465 395 631.792 394.977 632.113 394.932L641.199 394.932C641.52 394.977 641.847 395 642.18 395 645.948 395 649 391.963 649 388.212 649 384.472 645.948 381.429 642.18 381.429Z" fill="#FFFFFF" fill-rule="evenodd"/><path d="M854.99 363.429C852.656 363.429 850.592 364.536 849.313 366.232 848.912 365.701 848.435 365.222 847.892 364.822 848.216 362.755 847.562 360.574 845.923 358.987 843.188 356.338 838.748 356.338 836.007 358.987 834.663 360.289 833.979 361.99 833.955 363.691 833.336 363.52 832.682 363.423 832.01 363.423 828.136 363.423 825 366.461 825 370.212 825 373.963 828.136 377 832.01 377 832.352 377 832.688 376.977 833.018 376.932L842.628 376.932C842.958 376.977 843.294 377 843.636 377 843.978 377 844.314 376.977 844.644 376.932L853.982 376.932C854.312 376.977 854.648 377 854.99 377 858.864 377 862 373.963 862 370.212 862 366.472 858.864 363.429 854.99 363.429Z" fill="#FFFFFF" fill-rule="evenodd"/><path d="M557.184 326.174C552.576 326.174 548.497 328.442 545.984 331.921 545.192 330.824 544.251 329.855 543.184 329.036 543.832 324.807 542.536 320.336 539.294 317.076 533.889 311.641 525.128 311.641 519.728 317.076 517.078 319.742 515.729 323.226 515.678 326.722 514.456 326.371 513.17 326.174 511.833 326.174 504.191 326.174 498 332.405 498 340.09 498 347.775 504.197 354 511.833 354 512.511 354 513.17 353.948 513.819 353.856L532.787 353.856C533.436 353.948 534.101 354 534.773 354 535.45 354 536.109 353.948 536.758 353.856L555.181 353.856C555.83 353.948 556.495 354 557.167 354 564.809 354 571 347.769 571 340.09 571.023 332.405 564.826 326.174 557.184 326.174Z" fill="#FFFFFF" fill-rule="evenodd"/><path d="M689 359.5C689 364.196 685.196 368 680.5 368 675.804 368 672 364.196 672 359.5 672 354.804 675.804 351 680.5 351 685.196 351 689 354.804 689 359.5Z" fill="#FFFFFF" fill-rule="evenodd"/><path d="M545 395C545 399.419 541.419 403 537 403 532.581 403 529 399.419 529 395 529 390.581 532.581 387 537 387 541.419 387 545 390.581 545 395Z" fill="#FFFFFF" fill-rule="evenodd"/><path d="M645 414.5C645 416.988 642.982 419 640.5 419 638.012 419 636 416.982 636 414.5 636 412.012 638.018 410 640.5 410 642.988 410 645 412.018 645 414.5Z" fill="#FFFFFF" fill-rule="evenodd"/><path d="M756 398.5C756 394.911 758.911 392 762.5 392 766.089 392 769 394.911 769 398.5 769 402.089 766.089 405 762.5 405 758.911 405 756 402.089 756 398.5Z" fill="#FFFFFF" fill-rule="evenodd"/><path d="M827 432.5C827 430.568 828.568 429 830.5 429 832.432 429 834 430.568 834 432.5 834 434.432 832.432 436 830.5 436 828.568 436 827 434.432 827 432.5Z" fill="#FFFFFF" fill-rule="evenodd"/><path d="M593 318.5C593 316.568 594.344 315 596 315 597.656 315 599 316.568 599 318.5 599 320.432 597.656 322 596 322 594.344 322 593 320.432 593 318.5Z" fill="#FFFFFF" fill-rule="evenodd"/><path d="M880 319.5C880 317.568 881.568 316 883.5 316 885.432 316 887 317.568 887 319.5 887 321.432 885.432 323 883.5 323 881.568 323 880 321.432 880 319.5Z" fill="#FFFFFF" fill-rule="evenodd"/><path d="M910 343C910 338.583 913.359 335 917.5 335 921.641 335 925 338.583 925 343 925 347.417 921.641 351 917.5 351 913.359 351 910 347.417 910 343Z" fill="#FFFFFF" fill-rule="evenodd"/><path d="M799.014 546.951 728.295 514.187C728.042 514.071 727.928 513.764 728.048 513.509L766.314 429.298C766.429 429.043 766.733 428.927 766.986 429.049L837.705 461.813C837.958 461.929 838.073 462.236 837.952 462.492L799.686 546.702C799.571 546.957 799.267 547.073 799.014 546.951Z" fill="#FFFFFF" fill-rule="evenodd"/><path d="M795.925 485.97 753.186 466.179C753.024 466.104 752.955 465.912 753.03 465.748L759.648 451.188C759.723 451.025 759.914 450.955 760.076 451.031L802.814 470.821C802.976 470.897 803.045 471.089 802.97 471.252L796.352 485.813C796.277 485.97 796.086 486.046 795.925 485.97Z" fill="#EAB62B" fill-rule="evenodd"/><path d="M810.892 513.959 746.264 484.077C746.04 483.973 745.937 483.701 746.04 483.476L752.511 469.266C752.614 469.04 752.884 468.936 753.108 469.04L817.735 498.922C817.965 499.026 818.062 499.298 817.959 499.523L811.488 513.733C811.385 513.964 811.121 514.063 810.892 513.959Z" fill="#5898F0" fill-rule="evenodd"/><path d="M742.913 490.003 743.44 488.85 808.828 518.755 808.301 519.908Z" fill="#DD4B4E" fill-rule="evenodd"/><path d="M744.319 486.927 744.846 485.774 810.235 515.678 809.707 516.831Z" fill="#DD4B4E" fill-rule="evenodd"/><path d="M741.504 493.083 742.031 491.93 797.655 517.369 797.128 518.522Z" fill="#DD4B4E" fill-rule="evenodd"/><path d="M752.962 519.969 733.185 510.541C733.024 510.464 732.956 510.267 733.03 510.1L739.613 495.192C739.688 495.025 739.877 494.954 740.038 495.031L759.815 504.459C759.976 504.536 760.045 504.733 759.97 504.9L753.387 519.808C753.312 519.975 753.123 520.046 752.962 519.969Z" fill="#3E4799" fill-rule="evenodd" fill-opacity="0.6"/><path d="M775.962 529.97 756.185 520.919C756.024 520.845 755.956 520.656 756.03 520.496L762.613 506.185C762.688 506.024 762.877 505.956 763.038 506.03L782.815 515.081C782.976 515.155 783.045 515.344 782.97 515.504L776.387 529.815C776.312 529.976 776.123 530.044 775.962 529.97Z" fill="#4C65B8" fill-rule="evenodd" fill-opacity="0.6"/><path d="M798.962 540.971 779.185 531.92C779.024 531.846 778.956 531.657 779.03 531.496L785.613 517.185C785.688 517.024 785.877 516.956 786.038 517.03L805.815 526.081C805.976 526.155 806.045 526.344 805.97 526.504L799.387 540.816C799.312 540.971 799.123 541.045 798.962 540.971Z" fill="#5898F0" fill-rule="evenodd" fill-opacity="0.6"/><path d="M824.483 482.966 805.214 473.728C805.028 473.64 804.949 473.411 805.034 473.223L805.034 473.223C805.118 473.029 805.337 472.947 805.517 473.035L824.786 482.273C824.972 482.361 825.051 482.59 824.966 482.778L824.966 482.778C824.882 482.966 824.663 483.054 824.483 482.966Z" fill="#3E4799" fill-rule="evenodd" fill-opacity="0.6"/><path d="M823.483 484.965 804.214 475.728C804.028 475.64 803.949 475.411 804.034 475.223L804.034 475.223C804.118 475.029 804.337 474.947 804.517 475.035L823.786 484.272C823.972 484.36 824.051 484.589 823.966 484.777L823.966 484.777C823.882 484.971 823.663 485.053 823.483 484.965Z" fill="#3E4799" fill-rule="evenodd" fill-opacity="0.6"/><path d="M822.483 486.965 803.214 477.728C803.028 477.64 802.949 477.411 803.034 477.223L803.034 477.223C803.118 477.029 803.337 476.947 803.517 477.035L822.786 486.272C822.972 486.36 823.051 486.589 822.966 486.777L822.966 486.777C822.882 486.971 822.668 487.053 822.483 486.965Z" fill="#3E4799" fill-rule="evenodd" fill-opacity="0.6"/><path d="M821.483 488.966 802.214 479.728C802.028 479.64 801.949 479.411 802.034 479.223L802.034 479.223C802.118 479.029 802.337 478.947 802.517 479.035L821.786 488.273C821.972 488.361 822.051 488.59 821.966 488.778L821.966 488.778C821.888 488.966 821.668 489.054 821.483 488.966Z" fill="#3E4799" fill-rule="evenodd" fill-opacity="0.6"/><path d="M820.483 490.965 801.214 481.728C801.028 481.64 800.949 481.411 801.034 481.223L801.034 481.223C801.118 481.029 801.337 480.947 801.517 481.035L820.786 490.272C820.972 490.36 821.051 490.589 820.966 490.777L820.966 490.777C820.882 490.971 820.663 491.053 820.483 490.965Z" fill="#3E4799" fill-rule="evenodd" fill-opacity="0.6"/><path d="M819.483 492.965 800.214 483.728C800.028 483.64 799.949 483.411 800.034 483.223L800.034 483.223C800.118 483.029 800.337 482.947 800.517 483.035L819.786 492.272C819.972 492.36 820.051 492.589 819.966 492.777L819.966 492.777C819.882 492.971 819.668 493.053 819.483 492.965Z" fill="#3E4799" fill-rule="evenodd" fill-opacity="0.6"/><path d="M819.457 494.966 799.224 485.728C799.03 485.64 798.947 485.411 799.035 485.223L799.035 485.223C799.124 485.029 799.354 484.947 799.543 485.035L819.776 494.273C819.971 494.361 820.053 494.59 819.965 494.778L819.965 494.778C819.876 494.966 819.652 495.054 819.457 494.966Z" fill="#3E4799" fill-rule="evenodd" fill-opacity="0.6"/><path d="M812.211 471.977 761.157 448.418C761.023 448.353 760.964 448.194 761.023 448.059L761.432 447.158C761.497 447.023 761.655 446.964 761.789 447.023L812.843 470.582C812.977 470.647 813.036 470.806 812.977 470.941L812.568 471.842C812.503 471.977 812.345 472.036 812.211 471.977Z" fill="#3E4799" fill-rule="evenodd"/><path d="M824.784 460.565 825.565 458.862 834.423 462.926 833.642 464.629Z" fill="#3E4799" fill-rule="evenodd"/><path d="M650.986 546.951 721.705 514.187C721.958 514.071 722.073 513.764 721.952 513.509L683.686 429.298C683.571 429.043 683.267 428.927 683.014 429.049L612.295 461.813C612.042 461.929 611.928 462.236 612.048 462.492L650.314 546.702C650.429 546.957 650.728 547.073 650.986 546.951Z" fill="#FFFFFF" fill-rule="evenodd"/><path d="M654.076 485.97 696.814 466.179C696.976 466.104 697.045 465.912 696.97 465.748L690.352 451.188C690.277 451.025 690.086 450.955 689.925 451.031L647.186 470.821C647.024 470.897 646.955 471.089 647.03 471.252L653.648 485.813C653.729 485.97 653.92 486.046 654.076 485.97Z" fill="#EAB62B" fill-rule="evenodd"/><path d="M639.206 513.959 704.732 484.077C704.959 483.973 705.064 483.701 704.959 483.476L698.399 469.266C698.294 469.04 698.021 468.936 697.794 469.04L632.268 498.922C632.041 499.026 631.936 499.298 632.041 499.523L638.602 513.733C638.706 513.964 638.98 514.063 639.206 513.959Z" fill="#5898F0" fill-rule="evenodd"/><path d="M641.343 518.771 706.731 488.866 707.259 490.019 641.87 519.924Z" fill="#DD4B4E" fill-rule="evenodd"/><path d="M639.937 515.693 705.325 485.789 705.853 486.942 640.464 516.846Z" fill="#DD4B4E" fill-rule="evenodd"/><path d="M652.515 517.38 708.139 491.941 708.666 493.094 653.042 518.533Z" fill="#DD4B4E" fill-rule="evenodd"/><path d="M697.038 519.969 716.815 510.541C716.976 510.464 717.045 510.267 716.97 510.1L710.387 495.192C710.312 495.025 710.123 494.954 709.962 495.031L690.185 504.459C690.024 504.536 689.956 504.733 690.03 504.9L696.613 519.808C696.693 519.975 696.883 520.046 697.038 519.969Z" fill="#3E4799" fill-rule="evenodd" fill-opacity="0.6"/><path d="M674.038 529.97 693.815 520.919C693.976 520.845 694.045 520.656 693.97 520.496L687.387 506.185C687.312 506.024 687.123 505.956 686.962 506.03L667.185 515.081C667.024 515.155 666.956 515.344 667.03 515.504L673.613 529.815C673.688 529.976 673.877 530.044 674.038 529.97Z" fill="#4C65B8" fill-rule="evenodd" fill-opacity="0.6"/><path d="M651.038 540.971 670.815 531.92C670.976 531.846 671.045 531.657 670.97 531.496L664.387 517.185C664.312 517.024 664.123 516.956 663.962 517.03L644.185 526.081C644.024 526.155 643.956 526.344 644.03 526.504L650.613 540.816C650.688 540.971 650.877 541.045 651.038 540.971Z" fill="#5898F0" fill-rule="evenodd" fill-opacity="0.6"/><path d="M625.543 482.966 645.776 473.728C645.971 473.64 646.053 473.411 645.965 473.223L645.965 473.223C645.876 473.029 645.646 472.947 645.457 473.035L625.224 482.273C625.03 482.361 624.947 482.59 625.035 482.778L625.035 482.778C625.118 482.966 625.348 483.054 625.543 482.966Z" fill="#3E4799" fill-rule="evenodd" fill-opacity="0.6"/><path d="M626.517 484.965 645.786 475.728C645.972 475.64 646.051 475.411 645.966 475.223L645.966 475.223C645.882 475.029 645.663 474.947 645.483 475.035L626.214 484.272C626.028 484.36 625.949 484.589 626.034 484.777L626.034 484.777C626.118 484.971 626.337 485.053 626.517 484.965Z" fill="#3E4799" fill-rule="evenodd" fill-opacity="0.6"/><path d="M627.517 486.965 646.786 477.728C646.972 477.64 647.051 477.411 646.966 477.223L646.966 477.223C646.882 477.029 646.663 476.947 646.483 477.035L627.214 486.272C627.028 486.36 626.949 486.589 627.034 486.777L627.034 486.777C627.118 486.971 627.337 487.053 627.517 486.965Z" fill="#3E4799" fill-rule="evenodd" fill-opacity="0.6"/><path d="M628.517 488.966 647.786 479.728C647.972 479.64 648.051 479.411 647.966 479.223L647.966 479.223C647.882 479.029 647.663 478.947 647.483 479.035L628.214 488.267C628.028 488.355 627.949 488.584 628.034 488.772L628.034 488.772C628.118 488.966 628.332 489.054 628.517 488.966Z" fill="#3E4799" fill-rule="evenodd" fill-opacity="0.6"/><path d="M629.517 490.965 648.786 481.728C648.972 481.64 649.051 481.411 648.966 481.223L648.966 481.223C648.882 481.029 648.663 480.947 648.483 481.035L629.214 490.272C629.028 490.36 628.949 490.589 629.034 490.777L629.034 490.777C629.112 490.971 629.332 491.053 629.517 490.965Z" fill="#3E4799" fill-rule="evenodd" fill-opacity="0.6"/><path d="M630.517 492.965 649.786 483.728C649.972 483.64 650.051 483.411 649.966 483.223L649.966 483.223C649.882 483.029 649.663 482.947 649.483 483.035L630.214 492.272C630.028 492.36 629.949 492.589 630.034 492.777L630.034 492.777C630.118 492.971 630.337 493.053 630.517 492.965Z" fill="#3E4799" fill-rule="evenodd" fill-opacity="0.6"/><path d="M631.517 494.966 650.786 485.728C650.972 485.64 651.051 485.411 650.966 485.223L650.966 485.223C650.882 485.029 650.663 484.947 650.483 485.035L631.214 494.273C631.028 494.361 630.949 494.59 631.034 494.778L631.034 494.778C631.118 494.966 631.337 495.054 631.517 494.966Z" fill="#3E4799" fill-rule="evenodd" fill-opacity="0.6"/><path d="M638.774 471.977 688.846 448.418C688.978 448.353 689.035 448.194 688.978 448.059L688.576 447.158C688.513 447.023 688.358 446.964 688.226 447.023L638.154 470.582C638.022 470.647 637.965 470.806 638.022 470.941L638.424 471.842C638.481 471.977 638.642 472.036 638.774 471.977Z" fill="#3E4799" fill-rule="evenodd"/><path d="M615.749 462.941 624.607 458.877 625.388 460.579 616.53 464.643Z" fill="#3E4799" fill-rule="evenodd"/><path d="M728.522 375.705C725.015 398.302 721.74 480.151 717 495.844 726.999 496.604 735.02 494.337 745.083 494.4 749.252 494.429 753.969 494.153 758 492.813 757.948 489.539 750.659 494.665 750.181 491.42 748.739 481.606 748.883 402.541 748.312 375.958 748.11 366.374 742.707 377.431 728.522 375.705Z" fill="#E8BB99" fill-rule="evenodd"/><path d="M712.869 343.213C714.1 345.54 715.332 347.867 716.557 350.193 716.888 350.817 717.219 351.453 717.378 352.141 717.703 353.576 717.242 355.057 716.78 356.451 716.415 357.553 716.01 358.719 715.121 359.442 713.12 361.069 709.596 359.763 708 361.798 710.754 363.057 713.388 364.597 715.85 366.387 716.244 366.673 716.643 367.309 716.238 367.577 716.124 367.653 715.982 367.658 715.85 367.664 713.524 367.787 711.233 368.527 709.26 369.793 709.078 369.909 708.884 370.043 708.804 370.253 708.633 370.702 709.066 371.134 709.454 371.408 711.335 372.767 713.222 374.12 715.104 375.478 714.197 378.097 715.201 381.007 716.552 383.421 718.935 387.672 722.458 391.247 726.625 393.661 726.882 393.812 727.156 393.958 727.452 393.993 727.777 394.028 728.102 393.923 728.416 393.824 732.748 392.454 737.326 391.894 741.859 392.185 741.488 388.628 741.123 385.071 741.083 381.491 741.032 376.662 741.579 371.857 741.83 367.034 742.075 362.27 742.03 357.494 741.853 352.724 741.836 352.258 741.813 351.785 741.648 351.354 741.311 350.467 740.451 349.931 739.641 349.464 736.181 347.435 732.72 345.406 729.259 343.376 727.059 342.088 724.83 340.781 722.412 340 722.241 341.714 720.092 342.426 718.433 342.134 716.774 341.837 715.189 340.956 713.513 341.096" fill="#DBAA88" fill-rule="evenodd"/><path d="M741.871 381.974 718.368 379.581C715.692 379.306 713.748 376.947 714.027 374.308L719.784 319.308C720.062 316.669 722.453 314.751 725.129 315.026L748.632 317.419C751.308 317.694 753.252 320.053 752.973 322.692L747.216 377.692C746.938 380.331 744.547 382.249 741.871 381.974Z" fill="#231916" fill-rule="evenodd"/><path d="M740.923 371.972 721.614 369.981C718.792 369.689 716.735 367.165 717.028 364.344L721.439 321.613C721.731 318.792 724.255 316.736 727.077 317.028L746.386 319.019C749.208 319.311 751.265 321.835 750.972 324.656L746.561 367.387C746.269 370.214 743.745 372.264 740.923 371.972Z" fill="#FFFFFF" fill-rule="evenodd"/><path d="M740.276 348 742 328 723 336.611Z" fill="#DD4B4E" fill-rule="evenodd"/><path d="M749.006 388.287C749.239 385.844 747.566 390.277 749.006 388.287 749.924 387.022 754.641 381.689 755.431 380.337 756.11 379.17 758.103 374.052 758.457 372.753 759.921 367.339 757.981 362.929 757.806 357.323 757.789 356.725 757.76 356.116 757.568 355.548 757.359 354.921 756.964 354.375 756.581 353.842 753.984 350.267 751.312 346.751 748.571 343.286 748.059 342.642 747.409 341.94 746.596 342.004 745.614 342.085 745.103 343.205 744.876 344.163 743.616 349.542 744.975 355.472 748.449 359.772 748.722 360.108 749.012 360.457 749.059 360.886 749.093 361.223 749.099 361.646 748.844 361.861 740.415 368.94 732.794 386.923 734.159 394.449 734.543 396.561 740.311 391.774 740.932 393.828 741.548 395.882 744.081 389.076 746.224 388.977" fill="#E8BB99" fill-rule="evenodd"/><path d="M712.65 339.699C712.291 340.455 712.171 341.294 712.057 342.117 712 342.547 711.943 343.006 712.114 343.409 712.234 343.679 712.451 343.9 712.668 344.104 716.159 347.395 721.282 348.377 726.12 348.963 726.468 349.007 726.839 349.04 727.153 348.891 727.455 348.747 727.655 348.46 727.78 348.157 728.294 346.953 727.854 345.523 727.016 344.507 726.177 343.486 724.996 342.796 723.844 342.122 721.778 340.919 719.668 339.638 717.557 338.539 715.805 337.634 713.569 337.772 712.65 339.699Z" fill="#E8BB99" fill-rule="evenodd"/><path d="M707.092 350.576C706.916 351.435 707.028 352.323 707.133 353.188 707.191 353.641 707.262 354.123 707.566 354.488 707.771 354.732 708.069 354.901 708.367 355.057 713.107 357.501 718.958 357.188 724.388 356.532 724.78 356.485 725.195 356.427 725.493 356.195 725.78 355.975 725.915 355.626 725.967 355.29 726.184 353.931 725.295 352.59 724.095 351.772 722.89 350.953 721.409 350.547 719.964 350.164 717.378 349.473 714.71 348.712 712.1 348.143 709.941 347.661 707.548 348.375 707.092 350.576Z" fill="#E8BB99" fill-rule="evenodd"/><path d="M707.082 358.294C706.926 359.057 707.024 359.848 707.122 360.617 707.174 361.021 707.238 361.448 707.509 361.773 707.694 361.989 707.96 362.143 708.225 362.274 712.465 364.449 717.698 364.164 722.555 363.584 722.908 363.544 723.277 363.493 723.543 363.282 723.803 363.083 723.918 362.775 723.97 362.473 724.167 361.266 723.37 360.076 722.295 359.347 721.221 358.619 719.892 358.26 718.599 357.918 716.283 357.303 713.903 356.626 711.564 356.119 709.629 355.709 707.486 356.341 707.082 358.294Z" fill="#E8BB99" fill-rule="evenodd"/><path d="M707.073 366.951C706.934 367.602 707.021 368.274 707.108 368.93 707.154 369.277 707.252 369.817 707.49 370.092 707.652 370.28 708.069 370.665 708.3 370.781 712.04 372.632 716.439 371.955 720.723 371.459 721.03 371.426 721.36 371.382 721.597 371.205 721.823 371.034 721.927 370.775 721.974 370.516 722.147 369.486 721.447 368.472 720.492 367.855 719.542 367.232 718.373 366.929 717.232 366.637 715.189 366.114 713.088 365.535 711.027 365.105 709.319 364.747 707.432 365.287 707.073 366.951Z" fill="#E8BB99" fill-rule="evenodd"/><path d="M752 348.189 749.258 350C749.258 350 745.058 346.676 748.114 344L752 348.189Z" fill="#EDD5C5" fill-rule="evenodd"/><path d="M722 347.241C722 347.241 726.395 348.933 726.942 347.265 727.489 345.596 723.999 343 723.999 343 723.999 343 722.229 345.434 722 347.241Z" fill="#EDD5C5" fill-rule="evenodd"/><path d="M720.639 352C720.639 352 725.533 352.852 724.952 354.692 724.372 356.532 720.072 355.892 720.072 355.892 720.072 355.892 719.702 352.913 720.639 352Z" fill="#EDD5C5" fill-rule="evenodd"/><path d="M719.804 359C719.804 359 722.915 360.183 722.999 361.71 723.082 363.236 719.277 362.985 719.277 362.985 719.277 362.985 718.384 360.921 719.804 359Z" fill="#EDD5C5" fill-rule="evenodd"/><path d="M721 369.433C721.035 371.53 718 370.917 718 370.917 718 370.917 718.24 367.633 718.439 367.104 718.633 366.575 720.979 368.175 721 369.433Z" fill="#EDD5C5" fill-rule="evenodd"/><path d="M712.299 410.985C712.641 411.932 712.966 412.884 713.216 413.859 714.005 416.947 714.005 420.167 713.999 423.353 713.993 424.951 713.993 426.561 713.727 428.137 713.518 429.389 713.146 430.607 712.763 431.819 711.499 435.795 710.083 439.725 708.522 443.598 705.267 444.434 701.913 444.908 698.554 445 698.159 438.3 697.481 431.519 695.073 425.251 694.585 423.988 694.034 422.753 693.64 421.454 693.361 420.519 693.164 419.567 692.972 418.609 692.688 417.189 692.398 415.775 692.114 414.356 692.044 414.009 691.974 413.652 692.009 413.3 692.05 412.907 692.224 412.544 692.386 412.186 694.179 408.348 695.734 404.401 697.022 400.367 697.231 399.714 697.44 399.045 697.835 398.479 698.217 397.937 698.757 397.521 699.285 397.112 700.492 396.188 702.302 394.705 703.967 395.051 705.638 395.398 706.358 397.579 707.037 398.901 709.056 402.808 710.814 406.847 712.299 410.985Z" fill="#DBAA88" fill-rule="evenodd"/><path d="M669.972 401.815C670.189 401.923 670.449 402.048 670.693 401.981 670.981 401.906 671.067 401.607 670.948 401.395 670.829 401.182 670.568 401.037 670.324 400.904 669.793 400.617 669.256 400.325 668.648 400.151 668.041 399.976 667.341 399.93 666.75 400.138 666.457 400.242 665.936 400.579 666.006 400.87 666.115 401.353 666.565 401.024 667.053 401.066 668.138 401.153 669.044 401.349 669.972 401.815Z" fill="#EEBDB3" fill-rule="evenodd"/><path d="M687.111 404C686.895 403.678 687.035 403.227 687.186 402.866 687.757 401.494 688.375 400.129 689.184 398.911 689.866 397.881 690.832 396.509 691.898 396 692.452 397.153 690.594 398.641 690 399.446 688.94 400.882 687.973 402.409 687.111 404Z" fill="#EEBDB3" fill-rule="evenodd"/><path d="M690 410C690.504 408.889 692.281 407.735 693.049 406.705 693.594 405.973 695.37 403.9 694.931 403 692.539 404.229 691.09 407.605 690 410Z" fill="#EEBDB3" fill-rule="evenodd"/><path d="M701.5 421.811 712.409 399.783C713.809 396.957 712.635 393.5 709.807 392.096L660.19 367.59C657.361 366.192 653.899 367.364 652.5 370.189L641.591 392.217C640.191 395.043 641.365 398.5 644.193 399.904L693.81 424.41C696.639 425.808 700.101 424.636 701.5 421.811Z" fill="#A0D468" fill-rule="evenodd"/><path d="M681.651 397.971 684.45 392.203C685.752 389.518 684.662 386.231 682.029 384.903L663.508 375.561C660.875 374.233 657.651 375.345 656.349 378.029L653.55 383.797C652.248 386.482 653.338 389.769 655.971 391.097L674.492 400.439C677.125 401.767 680.343 400.655 681.651 397.971Z" fill="#FFFFFF" fill-rule="evenodd"/><path d="M659.784 389.482C662.258 390.704 665.259 389.69 666.482 387.216 667.704 384.742 666.69 381.741 664.216 380.518 661.742 379.296 658.741 380.31 657.518 382.784 656.296 385.264 657.31 388.259 659.784 389.482Z" fill="#3A4270" fill-rule="evenodd"/><path d="M660.727 388.135C662.704 388.995 665.108 388.282 666.083 386.552 667.065 384.822 666.251 382.719 664.274 381.865 662.297 381.005 659.893 381.718 658.918 383.448 657.936 385.178 658.743 387.276 660.727 388.135Z" stroke="#7F7FA1" stroke-width="0.936693" stroke-miterlimit="8" fill="none" fill-rule="evenodd"/><path d="M671.784 395.482C674.258 396.704 677.259 395.69 678.482 393.216 679.704 390.742 678.69 387.741 676.216 386.518 673.742 385.296 670.741 386.31 669.518 388.784 668.296 391.258 669.31 394.259 671.784 395.482Z" fill="#3A4270" fill-rule="evenodd"/><path d="M673.448 394.135C675.178 394.995 677.282 394.282 678.135 392.552 678.995 390.822 678.282 388.719 676.552 387.865 674.822 387.005 672.719 387.718 671.865 389.448 671.005 391.184 671.718 393.282 673.448 394.135Z" stroke="#7F7FA1" stroke-width="0.936693" stroke-miterlimit="8" fill="none" fill-rule="evenodd"/><path d="M655.696 398.421 655.696 398.421C656.417 397.019 655.812 395.309 654.358 394.617L645.264 390.293C643.805 389.6 642.026 390.181 641.304 391.577L641.304 391.577C640.583 392.98 641.188 394.689 642.642 395.382L651.736 399.7C653.195 400.404 654.975 399.823 655.696 398.421Z" fill="#63ADFB" fill-rule="evenodd"/><path d="M659.672 402.742C661.157 403.352 662.958 402.844 663.69 401.607 664.422 400.369 663.813 398.869 662.328 398.258 660.843 397.648 659.042 398.156 658.31 399.393 657.578 400.631 658.187 402.131 659.672 402.742Z" fill="#EAB62B" fill-rule="evenodd"/><path d="M666.393 405.742C667.631 406.352 669.131 405.844 669.742 404.607 670.352 403.369 669.844 401.869 668.607 401.258 667.369 400.648 665.869 401.156 665.258 402.393 664.648 403.631 665.156 405.131 666.393 405.742Z" fill="#D9424D" fill-rule="evenodd"/><path d="M699.162 417.689 707.567 400.932C708.593 398.885 707.733 396.382 705.657 395.364L693.479 389.427C691.403 388.415 688.865 389.263 687.832 391.311L679.433 408.068C678.407 410.115 679.267 412.618 681.343 413.636L693.521 419.573C695.597 420.585 698.136 419.737 699.162 417.689Z" fill="#63ADFB" fill-rule="evenodd"/><path d="M695.5 382.5C702 392.621 708.672 402.625 715.5 412.5" stroke="#5291DE" stroke-width="0.32168" stroke-miterlimit="8" fill="none" fill-rule="evenodd"/><path d="M693.5 384.5C700 394.284 706.672 403.954 713.5 413.5" stroke="#5291DE" stroke-width="0.32168" stroke-miterlimit="8" fill="none" fill-rule="evenodd"/><path d="M690.5 385.5C697.325 395.621 704.331 405.625 711.5 415.5" stroke="#5291DE" stroke-width="0.32168" stroke-miterlimit="8" fill="none" fill-rule="evenodd"/><path d="M688.5 386.5C695.325 396.621 702.331 406.619 709.5 416.5" stroke="#5291DE" stroke-width="0.32168" stroke-miterlimit="8" fill="none" fill-rule="evenodd"/><path d="M687.5 388.5C694 398.284 700.672 407.954 707.5 417.5" stroke="#5291DE" stroke-width="0.32168" stroke-miterlimit="8" fill="none" fill-rule="evenodd"/><path d="M685.5 389.5C692 399.621 698.672 409.625 705.5 419.5" stroke="#5291DE" stroke-width="0.32168" stroke-miterlimit="8" fill="none" fill-rule="evenodd"/><path d="M683.5 391.5C690 401.284 696.672 410.948 703.5 420.5" stroke="#5291DE" stroke-width="0.32168" stroke-miterlimit="8" fill="none" fill-rule="evenodd"/><path d="M680.5 392.5C687.325 402.621 694.331 412.619 701.5 422.5" stroke="#5291DE" stroke-width="0.32168" stroke-miterlimit="8" fill="none" fill-rule="evenodd"/><path d="M678.5 394.5C685.325 404.284 692.331 413.948 699.5 423.5" stroke="#5291DE" stroke-width="0.32168" stroke-miterlimit="8" fill="none" fill-rule="evenodd"/><path d="M676.5 395.5C683.325 405.621 690.331 415.625 697.5 425.5" stroke="#5291DE" stroke-width="0.32168" stroke-miterlimit="8" fill="none" fill-rule="evenodd"/><path d="M674.5 396.5C681.325 406.621 688.331 416.625 695.5 426.5" stroke="#5291DE" stroke-width="0.32168" stroke-miterlimit="8" fill="none" fill-rule="evenodd"/><path d="M672.5 398.5C679.325 408.284 686.331 417.948 693.5 427.5" stroke="#5291DE" stroke-width="0.32168" stroke-miterlimit="8" fill="none" fill-rule="evenodd"/><path d="M671.5 404.5C681.621 397.675 691.619 390.669 701.5 383.5" stroke="#5291DE" stroke-width="0.32168" stroke-miterlimit="8" fill="none" fill-rule="evenodd"/><path d="M673.5 406.5C683.284 399.675 692.948 392.669 702.5 385.5" stroke="#5291DE" stroke-width="0.32168" stroke-miterlimit="8" fill="none" fill-rule="evenodd"/><path d="M674.5 408.5C684.621 401.675 694.619 394.669 704.5 387.5" stroke="#5291DE" stroke-width="0.32168" stroke-miterlimit="8" fill="none" fill-rule="evenodd"/><path d="M675.5 410.5C685.621 403.675 695.625 396.669 705.5 389.5" stroke="#5291DE" stroke-width="0.32168" stroke-miterlimit="8" fill="none" fill-rule="evenodd"/><path d="M677.5 412.5C687.284 405.675 696.948 398.669 706.5 391.5" stroke="#5291DE" stroke-width="0.32168" stroke-miterlimit="8" fill="none" fill-rule="evenodd"/><path d="M678.5 414.5C688.621 407.675 698.619 400.669 708.5 393.5" stroke="#5291DE" stroke-width="0.32168" stroke-miterlimit="8" fill="none" fill-rule="evenodd"/><path d="M680.5 416.5C690.284 409.675 699.948 402.669 709.5 395.5" stroke="#5291DE" stroke-width="0.32168" stroke-miterlimit="8" fill="none" fill-rule="evenodd"/><path d="M681.5 418.5C691.621 411.675 701.619 404.669 711.5 397.5" stroke="#5291DE" stroke-width="0.32168" stroke-miterlimit="8" fill="none" fill-rule="evenodd"/><path d="M683.5 420.5C693.284 413.675 702.954 406.669 712.5 399.5" stroke="#5291DE" stroke-width="0.32168" stroke-miterlimit="8" fill="none" fill-rule="evenodd"/><path d="M684.5 422.5C694.621 415.675 704.619 408.669 714.5 401.5" stroke="#5291DE" stroke-width="0.32168" stroke-miterlimit="8" fill="none" fill-rule="evenodd"/><path d="M685.5 424.5C695.621 418 705.619 411.328 715.5 404.5" stroke="#5291DE" stroke-width="0.32168" stroke-miterlimit="8" fill="none" fill-rule="evenodd"/><path d="M687.5 426.5C697.284 420 706.948 413.328 716.5 406.5" stroke="#5291DE" stroke-width="0.32168" stroke-miterlimit="8" fill="none" fill-rule="evenodd"/><path d="M677.52 433.519C675.715 431.922 673.794 430.404 672.391 428.465 670.819 426.291 669.981 423.701 669.078 421.191 667.396 416.513 665.399 411.938 663.111 407.511 662.808 406.924 663.152 406.193 663.815 406.079 666.173 405.68 668.746 406.832 670.464 408.561 672.501 410.597 673.666 413.296 675.016 415.823 675.249 416.257 675.5 416.701 675.895 417.004 676.443 417.426 677.17 417.511 677.863 417.58 683.877 418.196 690.252 418.978 694.973 422.68 699.514 426.24 701.75 431.95 702.762 437.563 703.222 440.125 703.205 443.308 700.946 444.666 700.12 445.168 699.124 445.31 698.163 445.447 694.391 445.972 687.917 447.056 685.501 443.234 684.547 441.717 684.057 440.25 682.829 438.836 681.187 436.959 679.4 435.185 677.52 433.519Z" fill="#E8BB99" fill-rule="evenodd"/><path d="M687.841 374.752C689.542 373.39 692.196 373.993 693.75 375.636 695.297 377.284 695.905 379.685 695.988 381.979 696.122 385.574 695.137 389.074 693.986 392.424 693.615 393.499 693.219 394.592 692.541 395.476 691.863 396.366 690.853 397.029 689.759 396.999 689.535 396.993 688.602 396.695 688.442 396.515 686.6 394.556 686.958 393.487 686.133 384.427 685.916 382.044 685.692 376.478 687.841 374.752Z" fill="#E8BB99" fill-rule="evenodd"/><path d="M696.438 378.645C697.788 377.468 699.92 378 701.167 379.443 702.413 380.88 702.914 382.973 702.987 384.966 703.109 388.094 702.34 391.134 701.442 394.037 701.154 394.971 700.837 395.918 700.299 396.686 699.762 397.455 698.955 398.028 698.082 397.999 697.898 397.993 697.159 397.727 697.025 397.573 695.54 395.864 695.821 394.93 695.119 387.054 694.935 384.978 694.734 380.135 696.438 378.645Z" fill="#E8BB99" fill-rule="evenodd"/><path d="M704.078 382.484C705.094 381.601 706.691 382 707.626 383.08 708.56 384.16 708.932 385.729 708.99 387.225 709.083 389.57 708.508 391.853 707.829 394.03 707.614 394.733 707.376 395.441 706.975 396.015 706.575 396.589 705.971 397.022 705.315 396.999 705.182 396.994 704.624 396.797 704.52 396.679 703.411 395.396 703.62 394.699 703.091 388.783 702.952 387.231 702.795 383.598 704.078 382.484Z" fill="#E8BB99" fill-rule="evenodd"/><path d="M708.262 442.019C708.541 441.996 708.831 441.978 709.104 442.065 709.81 442.296 710.083 443.141 710.265 443.87 712.109 451.216 722.967 521.59 726 528.514 714.647 528.676 703.294 528.838 691.936 529 691.645 524.592 682.961 457.006 682.677 452.599 682.54 450.476 680.907 443.945 683.269 442.863 684.708 442.204 687.793 442.834 689.392 442.817 691.537 442.794 693.677 442.748 695.822 442.684 699.959 442.551 704.125 442.054 708.262 442.019Z" fill="#DD4B4E" fill-rule="evenodd"/><path d="M666.759 414C666.759 414 668.889 413.436 669 413 669 413 666.462 407.573 664 408.027 664 408.027 666.439 413.244 666.759 414Z" fill="#EDD5C5" fill-rule="evenodd"/><path d="M688 391.058C688 391.058 688.193 395.964 690.094 396 691.995 396.035 693 391.973 693 391.973 693 391.973 689.45 390.719 688 391.058Z" fill="#EDD5C5" fill-rule="evenodd"/><path d="M679.656 372.719C681.187 371.417 683.576 371.994 684.974 373.565 686.367 375.141 686.914 377.438 686.989 379.632 687.11 383.071 686.223 386.418 685.187 389.623 684.853 390.651 684.497 391.697 683.886 392.542 683.276 393.394 682.367 394.028 681.383 393.999 681.181 393.993 680.341 393.708 680.197 393.536 678.539 391.663 678.861 390.64 678.119 381.974 677.923 379.689 677.727 374.365 679.656 372.719Z" fill="#E8BB99" fill-rule="evenodd"/><path d="M679 388.056C679 388.056 679.193 392.964 681.094 393 682.995 393.035 684 388.971 684 388.971 684 388.971 680.45 387.724 679 388.056Z" fill="#EDD5C5" fill-rule="evenodd"/><path d="M697 393.103C697 393.103 697.595 396.562 698.802 396.968 700.009 397.374 701 393.814 701 393.814 701 393.814 698.23 392.655 697 393.103Z" fill="#EDD5C5" fill-rule="evenodd"/><path d="M704 393.052C704 393.052 703.988 395.949 705.129 395.999 706.271 396.049 707 393.542 707 393.542 707 393.542 705.176 392.801 704 393.052Z" fill="#EDD5C5" fill-rule="evenodd"/><path d="M780.435 415.925C778.897 416.098 777.25 416.046 775.935 416.876 774.1 418.03 773.58 420.454 773.294 422.617 773.008 424.775 772.797 426.996 773.322 429.102 773.98 431.739 775.838 434.041 778.262 435.23 779.994 436.078 782.121 436.343 783.813 435.42 785.734 434.37 786.626 432.108 787.226 429.991 788.547 425.306 789.13 420.419 788.976 415.549 788.873 412.249 788.558 412.613 786.043 414.067 784.328 415.059 782.407 415.699 780.435 415.925Z" fill="#E8BB99" fill-rule="evenodd"/><path d="M810.798 416.12C808.981 417.61 807.164 419.095 805.348 420.586 804.862 420.987 804.364 421.394 804 421.906 803.242 422.973 803.121 424.364 803.028 425.684 802.953 426.727 802.889 427.835 803.387 428.748 804.497 430.805 807.864 430.976 808.495 433.233 805.776 433.298 803.063 433.634 800.407 434.235 799.979 434.329 799.435 434.712 799.678 435.083 799.748 435.184 799.863 435.243 799.973 435.296 801.865 436.227 803.52 437.653 804.723 439.403 804.833 439.568 804.949 439.745 804.943 439.945 804.931 440.375 804.422 440.582 804.012 440.67 801.987 441.124 799.956 441.578 797.931 442.026 797.792 444.518 795.964 446.563 794.015 448.078 790.584 450.747 786.436 452.456 782.149 452.969 781.883 452.998 781.605 453.028 781.351 452.951 781.067 452.869 780.836 452.663 780.61 452.474 777.48 449.799 773.865 447.706 770 446.339 771.521 443.528 773.043 440.711 774.298 437.771 775.988 433.799 777.174 429.621 778.614 425.543 780.037 421.512 781.703 417.575 783.48 413.692 783.653 413.314 783.833 412.931 784.116 412.631 784.7 412.018 785.597 411.882 786.424 411.776 789.994 411.328 793.563 410.881 797.133 410.433 799.406 410.15 801.697 409.861 803.977 410.073 803.531 411.552 805.076 412.908 806.557 413.25 808.038 413.597 809.652 413.426 811 414.139" fill="#DBAA88" fill-rule="evenodd"/><path d="M766.793 445.808C767.435 443.769 765.527 446.211 765.041 444.133 764.731 442.809 766.295 434.227 766.117 432.875 765.699 429.717 765.894 425.838 766.994 422.85 768.214 419.545 770.55 416.813 772.016 413.626 772.234 413.155 772.463 412.678 772.812 412.286 773.196 411.854 773.695 411.547 774.193 411.252 777.503 409.264 780.854 407.344 784.244 405.493 784.874 405.152 785.636 404.805 786.277 405.129 787.045 405.527 787.079 406.595 786.93 407.435 786.123 412.172 783.013 416.466 778.746 418.744 778.414 418.92 778.059 419.102 777.875 419.431 777.732 419.687 777.583 420.027 777.721 420.289 782.119 428.797 779.971 443.792 779.158 447.603 778.769 449.426 774.445 447.132 773.248 448.574 772.051 450.011 771.1 447.416 769.399 446.615" fill="#E8BB99" fill-rule="evenodd"/><path d="M782.534 455C783.019 453.919 783.485 452.827 784 451.77 779.063 448.504 771.977 444.668 766.064 443.392 765.448 443.261 764.454 442.763 763.934 443.137 762.533 444.128 763.443 447.323 763 448.724 768.943 451.788 775.424 453.438 782.534 455Z" fill="#9CB8DB" fill-rule="evenodd"/><path d="M761.145 523 735 513.293C736.973 508.8 738.911 504.294 740.727 499.742 745.832 486.98 751.859 473.661 758.844 462.041 760.672 461.763 762.881 462.974 764.525 463.606 769.543 465.537 775.098 460.475 780 462.673 780 462.673 775.149 481.53 773.217 486.458 771.643 490.494 765.973 507.994 761.145 523Z" fill="#63ADFB" fill-rule="evenodd"/><path d="M750.739 501 739 496.754C741.003 492.308 742.972 487.85 744.817 483.346 750.001 470.717 756.122 457.538 763.216 446.04 765.073 445.765 767.317 446.964 768.986 447.59 774.083 449.5 779.021 451.984 784 454.159 784 454.159 783.315 455.966 782.372 458.445 770.187 470.964 760.323 486.306 750.739 501Z" fill="#63ADFB" fill-rule="evenodd"/><path d="M782.916 404C782.916 404 783.438 404.914 781.878 405.963 780.318 407.017 779.466 407 779.466 407L779 405.89C779 405.896 782.425 404.111 782.916 404Z" fill="#EDD5C5" fill-rule="evenodd"/><path d="M771.845 466.776 774.27 467.602C778.037 468.892 782.155 466.942 783.473 463.255L807 398.494 790.937 393 767.404 457.766C766.092 461.454 768.078 465.486 771.845 466.776Z" fill="#231916" fill-rule="evenodd"/><path d="M787.375 357.424C782.918 370.193 789.65 384.16 802.425 388.622 815.195 393.085 829.162 386.348 833.625 373.573 838.082 360.804 831.35 346.837 818.575 342.375 805.799 337.918 791.832 344.655 787.375 357.424Z" fill="#EAB62B" fill-rule="evenodd"/><path d="M798.477 350.699C796.931 355.132 799.269 359.978 803.697 361.524 808.131 363.069 812.978 360.731 814.523 356.304 816.069 351.871 813.731 347.025 809.303 345.479 804.875 343.928 800.028 346.266 798.477 350.699Z" fill="#F0C862" fill-rule="evenodd"/><path d="M785.008 378.291 821.568 391.17C824.237 392.111 825.645 395.051 824.712 397.742L817.509 418.539C816.575 421.23 813.661 422.651 810.992 421.709L774.432 408.83C771.763 407.889 770.355 404.949 771.288 402.258L778.492 381.461C779.419 378.77 782.339 377.349 785.008 378.291Z" fill="#DD4B4E" fill-rule="evenodd"/><path d="M814.921 429.624C814.706 430.645 814.15 431.563 813.606 432.458 813.316 432.931 813.009 433.42 812.482 433.678 812.129 433.854 811.706 433.903 811.295 433.93 804.699 434.447 798.166 432.024 792.277 428.838 791.854 428.607 791.408 427.761 791.176 427.371 790.956 426.998 790.968 426.558 791.072 426.163 791.477 424.581 793.145 423.521 794.917 423.175 796.69 422.828 798.578 423.065 800.419 423.301 803.709 423.724 807.125 424.103 810.38 424.674 813.085 425.152 815.471 427.02 814.921 429.624Z" fill="#E8BB99" fill-rule="evenodd"/><path d="M811.929 438.017C811.729 438.949 811.226 439.782 810.722 440.598 810.458 441.028 810.177 441.475 809.69 441.707 809.362 441.867 808.981 441.911 808.6 441.938 802.554 442.407 796.507 440.146 791.11 437.25 790.723 437.041 790.372 436.329 790.161 435.976 789.956 435.634 789.973 435.237 790.067 434.879 790.442 433.44 791.966 432.474 793.589 432.16 795.212 431.846 796.94 432.055 798.628 432.27 801.645 432.656 804.774 433.004 807.763 433.517 810.241 433.941 812.427 435.646 811.929 438.017Z" fill="#E8BB99" fill-rule="evenodd"/><path d="M806.937 446.423C806.764 447.257 806.328 448.007 805.897 448.746 805.673 449.129 805.426 449.535 805.006 449.744 804.725 449.885 804.391 449.924 804.064 449.953 798.841 450.375 793.67 447.906 789.01 445.295 788.677 445.109 788.321 444.9 788.137 444.579 787.964 444.274 787.976 443.914 788.056 443.592 788.378 442.295 789.694 441.433 791.096 441.145 792.498 440.857 793.992 441.055 795.451 441.246 798.054 441.59 800.754 441.906 803.334 442.369 805.483 442.758 807.373 444.291 806.937 446.423Z" fill="#E8BB99" fill-rule="evenodd"/><path d="M814.983 418.449C814.891 419.539 814.479 420.572 814.067 421.587 813.855 422.12 813.621 422.677 813.168 423.025 812.865 423.257 812.487 423.373 812.115 423.471 806.185 425.02 799.968 422.903 794.318 420.508 793.911 420.334 793.482 420.142 793.236 419.777 793.001 419.423 792.967 418.965 793.024 418.542 793.236 416.842 794.644 415.491 796.213 414.859 797.787 414.227 799.521 414.18 801.21 414.14 804.238 414.07 807.364 413.942 810.375 414.029 812.876 414.099 815.224 415.671 814.983 418.449Z" fill="#E8BB99" fill-rule="evenodd"/><path d="M800 416.018C800 416.018 794.6 415.643 794.041 418.327 793.482 421.011 798.852 421 798.852 421L800 416.018Z" fill="#EDD5C5" fill-rule="evenodd"/><path d="M796.986 424.031C796.986 424.031 793.071 423.6 792.131 425.946 791.19 428.293 795.633 429 795.633 429 795.633 429 797.162 425.417 796.986 424.031Z" fill="#EDD5C5" fill-rule="evenodd"/><path d="M798 433.078C798 433.078 797.38 436.708 795.862 439 795.862 439 790.36 436.672 791.062 434.578 791.77 432.484 798 433.078 798 433.078Z" fill="#EDD5C5" fill-rule="evenodd"/><path d="M794.932 442.091C794.932 442.091 790.177 441.504 789.143 443.317 788.102 445.131 793.089 446 793.089 446 793.089 446 795.422 443.088 794.932 442.091Z" fill="#EDD5C5" fill-rule="evenodd"/><path d="M784.184 418.544C783.948 418.716 783.668 418.957 783.674 419.25 783.842 428.91 775.443 441.566 773.079 444.665 772.429 445.521 771.219 444.562 769.992 443.741 769.639 439.488 768.636 435.356 767 431.338 767.342 429.082 767.751 426.367 768.02 425.552 769.023 422.499 770.877 419.072 773.146 416.845 775.651 414.383 774.222 411.496 776.889 409.257 777.287 408.924 777.696 408.592 778.172 408.391 778.693 408.167 779.27 408.109 779.83 408.064 783.601 407.719 792.056 408.896 795.837 408.706 796.538 408.672 797.361 408.695 797.776 409.275 798.28 409.969 797.843 410.956 797.35 411.657 794.582 415.6 789.983 418.125 785.248 418.303 784.873 418.32 784.481 418.326 784.184 418.544Z" fill="#E8BB99" fill-rule="evenodd"/><path d="M813 545 677.187 545C671.562 545 667 549.56 667 555.182L667 578 802.813 578C808.438 578 813 573.44 813 567.818L813 545Z" fill="#DD4B4E" fill-rule="evenodd"/><path d="M637 545 741 545 741 529 643.35 529C639.842 529 637 531.833 637 535.331L637 545Z" fill="#EAB62B" fill-rule="evenodd"/><path d="M762 517.997C762 520.647 761.654 523.222 761.009 525.671 761.009 525.676 761.004 525.676 761.004 525.682 757.611 538.529 745.911 548 732 548 715.427 548 702 534.566 702 517.997 702 501.429 715.433 488 732 488 742.225 488 751.257 493.116 756.666 500.927 757.115 501.567 757.536 502.229 757.927 502.904 760.52 507.339 762 512.501 762 517.997Z" fill="#517B23" fill-rule="evenodd"/><path d="M762 517.881C762 520.503 761.648 523.052 760.99 525.475 760.99 525.48 760.984 525.48 760.984 525.486 760.967 525.526 760.955 525.56 760.943 525.6L759.605 526.199 757.99 526.929 757.021 524.694 754.244 523.747 751.238 522.721 750.704 525.737 747.387 522.829 747.704 527.402 751.673 528.65 748.349 535.201 746.641 537.59 746.06 538.411 742.784 543 740.699 536.638 739.889 534.158 738.603 530.098 736.795 530.201 734.705 530.309 732.714 530.418 731 523.97 734.041 521.21 735.926 519.5 736.836 519.762 743.2 521.552 743.23 521.558 743.259 521.564 743.694 521.689 746.706 521.182 746.747 521.005 747.105 519.54 745.015 518.862 744.574 518.719 745.384 517.744 745.784 517.704 748.96 517.391 747.023 515.84 746.87 515.72 741.686 518.252 740.547 517.818 738.11 516.883 737.429 518.172 736.689 518.411 734.617 519.073 732.932 518.365 733.454 516.689 735.944 516.336 736.266 514.62 737.405 513.411 738.357 512.396 740.881 512.63 743.283 510.35 744.739 508.959 745.255 507.864 742.966 508.178 744.533 505.367 742.085 506.77 741.239 509.814 739.431 510.755 739.713 509.272 738.069 509.232 737.946 509.232C737.946 509.232 740.318 504.546 740.359 504.432 740.4 504.318 743.852 502.015 743.852 502.015L744.427 502.135 745.156 502.294 745.291 502.328 746.547 502.596 747.633 504.626 747.34 504.985 746.512 505.994 747.516 507.089 749.441 505.219 752.301 503.52 753.98 502.528 755.988 503.229 756.146 501.439 756.569 501C757.021 501.638 757.45 502.294 757.849 502.961L757.855 502.956C760.491 507.334 762 512.442 762 517.881Z" fill="#FFFFFF" fill-rule="evenodd"/><path d="M752.686 533 752.168 533.833 751.243 534.257 751.189 535.215 751 536.172 751.686 537 752.703 535.23 752.724 534.133 753 534.221 752.908 533.145Z" fill="#FFFFFF" fill-rule="evenodd"/><path d="M715 493.11 716.302 494.209 717.604 494.106 716.028 495.412 716.95 495.985 719.28 496.088 720.094 498.964 721.069 500.511 721.182 500.688 720.641 504.818 721.295 506.296 721.729 507.276 723.245 509 724.654 506.176 725.32 505.781 726.806 504.898 727.478 504.498 729.647 503.037 727.751 501.181 728.97 499.537 729.784 498.517 731.003 497.417 730.688 494.387 730.539 492.972 730.509 492.714 730.676 492.159 731.163 490.52 733 488.029C732.643 488.017 732.281 488 731.918 488 731.241 488 730.563 488.029 729.897 488.069L729.534 488.241 729.57 488.092C725.017 488.424 720.736 489.696 716.944 491.718L716.736 491.867 715 493.11Z" fill="#FFFFFF" fill-rule="evenodd"/><path d="M720.496 542.252 720.276 541.267 720.126 540.6C720.126 540.6 721.841 540.39 721.841 540.317 721.841 540.238 723.289 537.658 723.37 537.607 723.451 537.556 725.293 536.883 725.293 536.883L725.46 534.976 725.5 534.484C725.5 534.484 727.238 532.571 726.972 532.447 726.707 532.317 725.552 531.44 725.552 531.44L724.184 531.18 722.21 530.919C722.21 530.919 722.343 530.376 722.239 530.173 722.135 529.969 721.581 528.934 721.581 528.934L720.369 528.883 717.921 527.412 715.254 527.649 715.052 527.666 714.648 528.215C713.407 527.604 711.635 526.716 711 526.354 710.896 526.297 710.821 526.246 710.786 526.218 710.393 525.907 708.812 524.9 708.65 524.594 708.494 524.283 708.65 521.963 708.65 521.963L711.652 521.731 713.707 522.97 713.707 521.601 713.707 520.339C713.707 520.339 715.444 518.014 715.681 517.861 715.779 517.799 716.189 517.471 716.657 517.109 717.344 516.566 718.135 515.927 718.135 515.927L717.505 514.608 719.641 513.448 720.432 515.072 720.582 513.958 720.744 512.753 719.243 510.818 718.221 509.018 718.083 508.775 717.805 509.324 717.211 510.506 716.651 510.178 716.559 510.122 716.42 510.042C716.42 510.042 716.403 509.782 716.374 509.454 716.333 508.979 716.264 508.379 716.183 508.283 716.166 508.26 716.103 508.221 716.016 508.17 715.531 507.892 714.203 507.287 714.18 507.355 714.169 507.395 714.059 508.017 713.949 508.662 713.828 509.369 713.707 510.093 713.707 510.093L714.175 510.914 714.342 511.208 713.736 511.751 713.921 512.577 712.997 512.113C712.997 512.113 712.812 511.751 712.627 511.621 712.593 511.598 712.483 511.53 712.321 511.446 711.652 511.066 710.151 510.257 710.151 510.257L709.574 510.54 709.233 508.062 710.584 506.67 711.34 505.89 713.343 504.209 712.5 502.84 711.577 504.26C711.577 504.26 710.63 502.97 710.468 502.761 710.313 502.552 709.73 500 709.73 500L706.624 503.253C706.624 503.253 706.312 503.219 705.966 503.202 703.449 507.513 702 512.498 702 517.816 702 518.557 702.035 519.281 702.092 520.011L702.675 521.171 703.726 523.91 705.042 522.721 706.566 525.748 706.838 526.286 709.268 527.219 714.053 529.052 712.795 530.778 713.551 532.447 714.74 535.067 716.564 535.83 716.582 535.836 715.947 538.58 715.843 539.038 715.843 541.516 715.716 542.552C716.536 543.072 717.378 543.553 718.25 544 718.527 543.627 718.816 543.236 718.845 543.197 718.891 543.101 720.496 542.252 720.496 542.252Z" fill="#FFFFFF" fill-rule="evenodd"/><text fill="#DD4B4E" font-family="Arial,Arial_MSFontService,sans-serif" font-weight="400" font-size="16" transform="matrix(0.908905 0.417002 -0.417002 0.908905 780.006 456)">NEWS</text><text fill="#DD4B4E" font-family="Arial,Arial_MSFontService,sans-serif" font-weight="400" font-size="16" transform="matrix(0.928876 -0.37039 0.37039 0.928876 639.218 469)">NEWS</text><text fill="#FFFFFF" font-family="Arial,Arial_MSFontService,sans-serif" font-weight="400" font-size="25" transform="translate(667.783 574)">Journalist Day</text><text fill="#FFFFFF" font-family="Arial,Arial_MSFontService,sans-serif" font-weight="400" font-size="18" transform="translate(644.68 545)">Happy</text></g></svg>