<svg width="446" height="283" xmlns="http://www.w3.org/2000/svg" xmlns:xlink="http://www.w3.org/1999/xlink" overflow="hidden"><defs><clipPath id="clip0"><rect x="778" y="367" width="446" height="283"/></clipPath></defs><g clip-path="url(#clip0)" transform="translate(-778 -367)"><path d="M1145 387.553 1131.87 378.608C1131.06 378.048 1130.05 377.865 1129.09 378.1L1125 379.097 1133.45 393 1145 387.553Z" fill="#4A6A85" fill-rule="evenodd"/><path d="M1147.58 386.305 1203.84 373.224C1203.84 373.224 1211.61 371.415 1216.82 378.071 1217.68 379.381 1216.64 379.618 1185.66 386.823 1159.14 392.993 1150.64 394.968 1150.64 394.968L1133.22 395C1130.67 395.006 1130.13 391.439 1132.58 390.717L1147.58 386.305Z" fill="#FFFFFF" fill-rule="evenodd"/><path d="M1150.64 394.968 1133.22 395C1131.26 395.006 1130.49 392.895 1131.35 391.582L1151.9 390.765 1214.98 376C1215.61 376.554 1216.24 377.197 1216.82 377.957 1217.68 379.276 1216.64 379.514 1185.66 386.768 1159.14 392.979 1150.64 394.968 1150.64 394.968Z" fill="#7FA3BB" fill-rule="evenodd" fill-opacity="0.411765"/><path d="M1169.94 393.968 1185.16 390.05C1185.74 389.9 1186.11 389.25 1185.97 388.608L1185.39 385.921C1185.25 385.278 1184.65 384.881 1184.06 385.032L1168.84 388.95C1168.26 389.1 1167.89 389.75 1168.03 390.392L1168.61 393.079C1168.76 393.722 1169.35 394.119 1169.94 393.968Z" fill="#FFFFFF" fill-rule="evenodd"/><path d="M1183 385.422 1184.39 385.029C1184.88 384.892 1185.37 385.254 1185.49 385.84L1185.98 388.291C1186.09 388.877 1185.79 389.464 1185.3 389.607L1183.91 390 1183 385.422Z" fill="#4A6A85" fill-rule="evenodd"/><path d="M1179 378.815 1164.48 376 1158 377.304 1168.18 381Z" fill="#FFFFFF" fill-rule="evenodd"/><path d="M1142 391 1133.83 396.301 1128 397 1134.71 391.285Z" fill="#FFFFFF" fill-rule="evenodd"/><path d="M1139.65 394.993 1142 391 1136 395Z" fill="#293B5E" fill-rule="evenodd"/><path d="M1184 383 1178.89 391.304 1172 393Z" fill="#293B5E" fill-rule="evenodd"/><path d="M1207.09 375.973C1206.61 376.103 1206.13 375.756 1206.02 375.194 1205.91 374.631 1206.21 374.068 1206.69 373.938L1210.08 373C1211.02 373.274 1212.01 373.7 1213 374.335L1207.09 375.973Z" fill="#4A6A85" fill-rule="evenodd"/><path d="M1184 383 1163.89 399.61 1154 402 1167.47 386.954Z" fill="#FFFFFF" fill-rule="evenodd"/><path d="M1194.28 379.968 1194.28 379.968C1194.78 379.818 1195.09 379.192 1194.98 378.565L1194.85 377.898C1194.73 377.272 1194.22 376.888 1193.72 377.029L1193.72 377.029C1193.22 377.18 1192.91 377.806 1193.02 378.432L1193.15 379.1C1193.27 379.726 1193.78 380.118 1194.28 379.968Z" fill="#7FA3BB" fill-rule="evenodd"/><path d="M1190.28 380.979 1190.28 380.979C1190.78 380.878 1191.09 380.461 1190.98 380.044L1190.85 379.598C1190.73 379.181 1190.22 378.925 1189.72 379.02L1189.72 379.02C1189.22 379.12 1188.91 379.537 1189.02 379.955L1189.15 380.4C1189.27 380.817 1189.78 381.079 1190.28 380.979Z" fill="#7FA3BB" fill-rule="evenodd"/><path d="M1185.28 381.979 1185.28 381.979C1185.78 381.878 1186.09 381.461 1185.98 381.044L1185.85 380.598C1185.73 380.181 1185.22 379.925 1184.72 380.02L1184.72 380.02C1184.22 380.12 1183.91 380.537 1184.02 380.955L1184.15 381.4C1184.27 381.817 1184.78 382.079 1185.28 381.979Z" fill="#7FA3BB" fill-rule="evenodd"/><path d="M1181.28 382.979 1181.28 382.979C1181.78 382.878 1182.09 382.461 1181.98 382.044L1181.85 381.598C1181.73 381.181 1181.22 380.925 1180.72 381.02L1180.72 381.02C1180.22 381.12 1179.91 381.537 1180.02 381.955L1180.15 382.4C1180.27 382.817 1180.78 383.079 1181.28 382.979Z" fill="#7FA3BB" fill-rule="evenodd"/><path d="M1176.28 383.98 1176.28 383.98C1176.78 383.88 1177.09 383.462 1176.98 383.045L1176.85 382.599C1176.73 382.181 1176.22 381.925 1175.72 382.02L1175.72 382.02C1175.22 382.12 1174.91 382.538 1175.02 382.955L1175.15 383.401C1175.27 383.819 1175.78 384.075 1176.28 383.98Z" fill="#7FA3BB" fill-rule="evenodd"/><path d="M1172.28 384.979 1172.28 384.979C1172.78 384.878 1173.09 384.461 1172.98 384.044L1172.85 383.598C1172.73 383.181 1172.22 382.925 1171.72 383.02L1171.72 383.02C1171.22 383.12 1170.91 383.537 1171.02 383.955L1171.15 384.4C1171.27 384.817 1171.78 385.079 1172.28 384.979Z" fill="#7FA3BB" fill-rule="evenodd"/><path d="M1167.28 385.98 1167.28 385.98C1167.78 385.88 1168.09 385.462 1167.98 385.045L1167.85 384.599C1167.73 384.181 1167.22 383.925 1166.72 384.02L1166.72 384.02C1166.22 384.12 1165.91 384.538 1166.02 384.955L1166.15 385.401C1166.27 385.819 1166.78 386.075 1167.28 385.98Z" fill="#7FA3BB" fill-rule="evenodd"/><path d="M1163.28 386.979 1163.28 386.979C1163.78 386.878 1164.09 386.461 1163.98 386.044L1163.85 385.598C1163.73 385.181 1163.22 384.925 1162.72 385.02L1162.72 385.02C1162.22 385.12 1161.91 385.537 1162.02 385.955L1162.15 386.4C1162.27 386.817 1162.78 387.079 1163.28 386.979Z" fill="#7FA3BB" fill-rule="evenodd"/><path d="M1158.28 387.979 1158.28 387.979C1158.78 387.878 1159.09 387.461 1158.98 387.044L1158.85 386.598C1158.73 386.181 1158.22 385.925 1157.72 386.02L1157.72 386.02C1157.22 386.12 1156.91 386.537 1157.02 386.955L1157.15 387.4C1157.27 387.817 1157.78 388.079 1158.28 387.979Z" fill="#7FA3BB" fill-rule="evenodd"/><path d="M1154.28 388.98 1154.28 388.98C1154.78 388.88 1155.09 388.462 1154.98 388.045L1154.85 387.599C1154.73 387.181 1154.22 386.925 1153.72 387.02L1153.72 387.02C1153.22 387.12 1152.91 387.538 1153.02 387.955L1153.15 388.401C1153.27 388.819 1153.78 389.075 1154.28 388.98Z" fill="#7FA3BB" fill-rule="evenodd"/><path d="M1215.08 622.765 1087.44 622.385 1087.61 567.032 1215.24 567.412Z" fill="#C3F3F5" fill-rule="evenodd"/><path d="M1079 584.678C1079 585.414 1079.59 586.013 1080.33 586.013L1081.61 586.019 1081.5 622.557 1098.13 622.609 1098.17 608.561C1098.17 606.561 1099.79 604.953 1101.79 604.959 1103.78 604.966 1105.39 606.587 1105.39 608.587L1105.35 622.635 1119.85 622.681 1119.89 608.632C1119.9 606.633 1121.52 605.024 1123.51 605.031 1125.5 605.037 1127.11 606.659 1127.11 608.659L1127.07 622.707 1143.78 622.759 1143.83 605.461C1143.84 602.458 1146.28 600.022 1149.28 600.035L1153.63 600.048C1156.63 600.055 1159.06 602.504 1159.05 605.506L1158.99 622.805 1178.71 622.863 1178.75 608.815C1178.75 606.815 1180.38 605.207 1182.37 605.213 1184.36 605.22 1185.97 606.841 1185.96 608.841L1185.92 622.889 1200.43 622.935 1200.47 608.886C1200.48 606.887 1202.1 605.278 1204.09 605.285 1206.08 605.291 1207.69 606.913 1207.69 608.913L1207.65 622.961 1221.27 623 1221.38 586.462 1222.67 586.469C1223.4 586.469 1224 585.876 1224 585.14 1224 584.404 1223.41 583.805 1222.67 583.805L1221.39 583.799 1221.46 559.929 1216.18 559.916 1216.18 561.85 1213.82 561.843 1213.19 508.528 1209.1 504.106 1209.11 500.732 1209.87 500.732C1210.18 500.732 1210.44 500.478 1210.44 500.166 1210.44 499.853 1210.19 499.599 1209.87 499.599L1209.24 499.599C1209.81 498.902 1210.2 497.606 1210.2 496.115 1210.21 494.623 1209.83 493.327 1209.26 492.624L1209.89 492.624C1210.2 492.624 1210.46 492.37 1210.46 492.057 1210.46 491.744 1210.21 491.49 1209.89 491.49L1208.68 491.484 1208.17 486 1207.5 491.484 1206.43 491.484C1206.11 491.484 1205.86 491.738 1205.86 492.051 1205.86 492.363 1206.11 492.617 1206.43 492.617L1207.3 492.617C1206.72 493.314 1206.34 494.61 1206.33 496.102 1206.33 497.587 1206.7 498.883 1207.28 499.586L1206.41 499.586C1206.09 499.586 1205.84 499.84 1205.84 500.153 1205.84 500.465 1206.09 500.719 1206.41 500.719L1207.41 500.719 1207.41 503.852 1203.17 508.483 1202.11 561.791 1198.66 561.778 1198.67 559.844 1191.91 559.824 1191.9 561.759 1187.31 561.746C1187.84 561.746 1188.28 561.316 1188.28 560.782 1188.28 560.248 1187.85 559.811 1187.32 559.811L1185.94 559.805C1185.88 558.659 1185.79 557.538 1185.68 556.457L1187.32 556.464C1187.86 556.464 1188.29 556.034 1188.29 555.5 1188.29 554.966 1187.86 554.529 1187.33 554.529L1185.43 554.523C1182.6 534.372 1170.49 524.98 1161.58 520.734L1161.59 518.877C1161.59 517.477 1160.46 516.331 1159.06 516.331L1157.61 516.324 1157.62 513.302 1157.98 513.302C1158.64 513.302 1159.19 512.762 1159.19 512.097 1159.19 511.427 1158.65 510.886 1157.99 510.886L1157.56 510.886C1157.17 506.672 1154.78 502.895 1152.28 498.01L1152.83 498.01C1153.23 498.01 1153.56 497.691 1153.56 497.287 1153.56 496.883 1153.24 496.557 1152.84 496.557L1152.23 496.557 1152.24 492.604 1153.27 492.604 1153.27 491.881 1152.24 491.881 1152.25 490.37 1151.28 490.37 1151.28 491.881 1150.25 491.881 1150.25 492.604 1151.28 492.604 1151.26 496.557 1150.66 496.557C1150.25 496.557 1149.93 496.877 1149.93 497.28 1149.93 497.684 1150.25 498.01 1150.65 498.01L1151.2 498.01C1148.67 502.882 1146.26 506.646 1145.85 510.86L1145.42 510.86C1144.75 510.86 1144.21 511.401 1144.21 512.065 1144.21 512.736 1144.75 513.276 1145.41 513.276L1145.78 513.276 1145.77 516.298 1144.32 516.292C1142.92 516.285 1141.78 517.419 1141.78 518.825L1141.77 520.681C1132.84 524.876 1120.67 534.189 1117.72 554.327L1115.82 554.321C1115.29 554.321 1114.85 554.751 1114.85 555.285 1114.85 555.819 1115.28 556.255 1115.81 556.255L1117.46 556.262C1117.34 557.343 1117.24 558.463 1117.17 559.609L1115.8 559.603C1115.27 559.603 1114.83 560.033 1114.83 560.567 1114.83 561.101 1115.26 561.537 1115.79 561.537L1111.2 561.524 1111.21 559.59 1104.45 559.57 1104.44 561.505 1086.93 561.453 1086.94 559.518 1081.67 559.505 1081.59 583.375 1080.31 583.369C1079.6 583.349 1079.01 583.942 1079 584.678ZM1204.2 573.795 1208.79 573.808 1208.77 578.406 1204.18 578.393 1204.2 573.795ZM1176.57 573.716 1181.16 573.73 1181.15 578.328 1176.56 578.315 1176.57 573.716ZM1148.94 573.632 1153.53 573.645 1153.52 578.243 1148.93 578.23 1148.94 573.632ZM1121.31 573.554 1125.91 573.567 1125.89 578.165 1121.3 578.152 1121.31 573.554ZM1093.69 573.469 1098.28 573.482 1098.27 578.08 1093.67 578.067 1093.69 573.469Z" fill="#92BFDB" fill-rule="evenodd"/><path d="M855.009 615.059 823.343 615.424 821.784 479.838 853.449 479.474Z" fill="#C3F3F5" fill-rule="evenodd"/><path d="M820.644 489.127 820.754 498.759C815.064 501.639 808.484 502.288 801.242 501.257L798.5 498.234 797.175 499.103 798.552 503.222C800.495 503.987 802.378 504.649 804.217 505.226L804.249 508.327 803.411 508.333 803.424 509.254C802.742 509.494 802.255 510.136 802.261 510.902L802.294 513.73C802.307 514.683 803.093 515.455 804.048 515.442L804.243 515.442 804.275 518.523 804.847 518.517 804.814 515.436 805.009 515.436C805.964 515.423 806.737 514.638 806.724 513.684L806.691 510.856C806.685 510.097 806.178 509.462 805.49 509.235L805.477 508.314 804.639 508.32 804.606 505.349C810.556 507.192 815.948 508.074 820.865 508.119L820.865 508.138 817.597 508.177 817.636 511.485 819.351 511.466 819.371 513.25 820.923 513.23 821.079 526.975C815.389 529.855 808.809 530.503 801.566 529.465L798.825 526.443 797.5 527.312 798.877 531.431C800.819 532.196 802.703 532.858 804.541 533.435L804.574 536.536 803.736 536.542 803.749 537.463C803.067 537.703 802.58 538.345 802.586 539.111L802.619 541.939C802.632 542.892 803.418 543.664 804.372 543.651L804.567 543.651 804.6 546.732 805.171 546.726 805.139 543.645 805.334 543.645C806.289 543.631 807.062 542.847 807.049 541.893L807.016 539.065C807.01 538.306 806.503 537.671 805.814 537.444L805.802 536.523 804.964 536.529 804.931 533.558C810.881 535.4 816.272 536.283 821.19 536.328L821.19 536.347 817.922 536.386 817.961 539.694 819.676 539.675 819.696 541.459 821.248 541.439 821.371 552.446C815.681 555.326 809.101 555.975 801.859 554.937L799.118 551.915 797.792 552.784 799.17 556.902C801.112 557.668 802.995 558.329 804.834 558.907L804.866 562.007 804.028 562.014 804.041 562.935C803.359 563.175 802.872 563.817 802.878 564.582L802.911 567.41C802.924 568.364 803.71 569.136 804.665 569.123L804.86 569.123 804.892 572.204 805.464 572.197 805.431 569.116 805.626 569.116C806.581 569.103 807.354 568.318 807.341 567.365L807.308 564.537C807.302 563.771 806.795 563.142 806.107 562.915L806.094 561.994 805.256 562.001 805.223 559.03C811.173 560.872 816.565 561.754 821.482 561.8L821.482 561.813 818.215 561.852 818.253 565.159 819.968 565.14 819.988 566.924 821.54 566.904 821.709 581.784C816.019 584.664 809.439 585.312 802.196 584.281L799.455 581.259 798.13 582.128 799.507 586.246C801.449 587.012 803.333 587.673 805.171 588.251L805.204 591.351 804.366 591.358 804.379 592.279C803.697 592.519 803.21 593.161 803.216 593.926L803.249 596.754C803.262 597.708 804.048 598.48 805.003 598.467L805.197 598.467 805.23 601.548 805.802 601.541 805.769 598.46 805.964 598.46C806.919 598.447 807.692 597.662 807.679 596.709L807.646 593.881C807.64 593.122 807.133 592.486 806.445 592.259L806.432 591.338 805.594 591.345 805.561 588.374C811.511 590.216 816.902 591.098 821.82 591.144L821.82 591.163 818.552 591.202 818.591 594.51 820.306 594.491 820.326 596.274 821.878 596.255 822.001 607.223 815.454 607.301 815.486 610.343 813.947 610.362 814.07 621 815.61 620.981 822.157 620.903 822.17 620.903 832.161 620.786 845.84 620.63 846.412 620.624 855.83 620.514 862.391 620.436 863.722 620.423 863.599 609.785 862.267 609.798 862.235 606.756 855.674 606.834 855.551 595.866 857.123 595.846 857.103 594.062 858.818 594.043 858.779 590.735 855.499 590.774 855.499 590.761C860.416 590.599 865.795 589.6 871.706 587.615L871.738 590.586 870.9 590.592 870.913 591.513C870.231 591.753 869.744 592.396 869.75 593.161L869.783 595.989C869.796 596.942 870.582 597.714 871.537 597.701L871.732 597.701 871.764 600.782 872.336 600.776 872.303 597.695 872.498 597.695C873.453 597.682 874.226 596.897 874.213 595.943L874.18 593.115C874.174 592.35 873.667 591.721 872.979 591.494L872.966 590.573 872.128 590.579 872.095 587.479C873.921 586.856 875.785 586.156 877.714 585.345L879 581.2 877.655 580.363 874.986 583.444C867.756 584.644 861.163 584.145 855.402 581.388L855.233 566.515 856.805 566.496 856.785 564.712 858.5 564.693 858.461 561.385 855.181 561.423 855.181 561.41C860.098 561.248 865.476 560.249 871.387 558.265L871.42 561.235 870.582 561.242 870.595 562.163C869.913 562.403 869.426 563.045 869.432 563.81L869.465 566.638C869.478 567.592 870.264 568.364 871.218 568.351L871.413 568.351 871.446 571.432 872.017 571.425 871.985 568.344 872.18 568.344C873.135 568.331 873.908 567.546 873.895 566.593L873.862 563.765C873.856 563.006 873.349 562.37 872.66 562.143L872.647 561.222 871.809 561.229 871.777 558.128C873.602 557.506 875.466 556.805 877.396 555.994L878.682 551.85 877.337 551.013 874.667 554.094C867.438 555.294 860.845 554.794 855.083 552.038L854.96 541.037 856.532 541.018 856.512 539.234 858.227 539.214 858.188 535.906 854.908 535.945 854.908 535.932C859.825 535.77 865.203 534.771 871.115 532.786L871.147 535.757 870.309 535.764 870.322 536.685C869.64 536.925 869.153 537.567 869.159 538.332L869.192 541.16C869.205 542.114 869.991 542.886 870.946 542.873L871.14 542.873 871.173 545.954 871.745 545.947 871.712 542.866 871.907 542.866C872.862 542.853 873.635 542.068 873.622 541.115L873.589 538.287C873.583 537.521 873.076 536.892 872.388 536.665L872.375 535.744 871.537 535.751 871.504 532.65C873.329 532.028 875.194 531.327 877.123 530.516L878.409 526.371 877.064 525.535 874.395 528.616C867.165 529.816 860.572 529.316 854.811 526.56L854.655 512.822 856.227 512.802 856.207 511.018 857.922 510.999 857.883 507.691 854.603 507.73 854.603 507.717C859.52 507.555 864.898 506.556 870.809 504.571L870.842 507.542 870.004 507.548 870.017 508.469C869.335 508.709 868.847 509.351 868.854 510.117L868.886 512.945C868.899 513.898 869.685 514.67 870.64 514.657L870.835 514.657 870.868 517.738 871.439 517.732 871.407 514.651 871.602 514.651C872.556 514.638 873.329 513.853 873.316 512.899L873.284 510.071C873.277 509.313 872.771 508.677 872.082 508.45L872.069 507.529 871.231 507.535 871.199 504.435C873.024 503.812 874.888 503.112 876.818 502.301L878.104 498.156 876.759 497.319 874.089 500.4C866.86 501.6 860.267 501.101 854.505 498.344L854.395 488.725 870.192 484.82 870.166 482.544 873.161 482.511 873.141 481.084 876.136 481.052 877.844 476.615 875.928 475.357 874.388 477.796C874.388 477.796 858.727 480.825 840.787 459.939L840.722 454.523 839.578 454.536 839.52 449.366C839.546 449.366 839.565 449.373 839.591 449.373 840.969 449.36 842.079 448.692 842.073 447.881 842.066 447.077 840.936 446.434 839.559 446.447 839.533 446.447 839.513 446.454 839.487 446.454L839.455 443.665C839.481 443.665 839.501 443.671 839.526 443.671 840.904 443.658 842.014 442.99 842.008 442.179 842.001 441.375 840.871 440.733 839.494 440.746 839.468 440.746 839.449 440.752 839.423 440.752L839.416 440 837.006 440.026 836.993 440.026 834.583 440.052 834.59 440.804C834.564 440.804 834.544 440.798 834.518 440.798 833.141 440.811 832.031 441.479 832.037 442.29 832.044 443.094 833.174 443.736 834.551 443.723 834.577 443.723 834.596 443.717 834.622 443.717L834.655 446.506C834.629 446.506 834.609 446.499 834.583 446.499 833.206 446.512 832.096 447.18 832.102 447.991 832.109 448.795 833.239 449.438 834.616 449.425 834.642 449.425 834.661 449.418 834.687 449.418L834.746 454.588 833.603 454.601 833.667 460.017C816.214 481.305 800.488 478.639 800.488 478.639L798.89 476.232 797 477.536 798.812 481.934 801.807 481.901 801.826 483.328 804.821 483.296 804.847 485.573 820.644 489.127ZM848.12 570.504C848.114 569.693 848.763 569.025 849.575 569.012 850.387 569.006 851.056 569.654 851.069 570.465L851.121 575.168 848.172 575.2 848.12 570.504ZM847.821 544.475C847.815 543.664 848.464 542.996 849.276 542.983 850.088 542.976 850.757 543.625 850.77 544.436L850.822 549.138 847.873 549.171 847.821 544.475ZM847.523 518.445C847.516 517.634 848.166 516.966 848.978 516.953 849.789 516.947 850.458 517.596 850.472 518.406L850.523 523.109 847.574 523.141 847.523 518.445ZM847.224 492.422C847.217 491.611 847.867 490.943 848.679 490.93 849.491 490.924 850.16 491.573 850.173 492.383L850.225 497.086 847.276 497.118 847.224 492.422ZM842.885 497.17 839.936 497.203 839.884 492.5C839.877 491.689 840.527 491.021 841.339 491.008 842.151 491.002 842.82 491.65 842.833 492.461L842.885 497.17ZM843.184 523.2 840.234 523.232 840.183 518.53C840.176 517.719 840.826 517.051 841.638 517.038 842.449 517.031 843.119 517.68 843.131 518.491L843.184 523.2ZM843.482 549.229 840.533 549.262 840.481 544.559C840.475 543.748 841.124 543.08 841.936 543.067 842.748 543.061 843.417 543.709 843.43 544.52L843.482 549.229ZM843.781 575.252 840.832 575.285 840.78 570.582C840.774 569.771 841.423 569.103 842.235 569.09 843.047 569.084 843.716 569.732 843.729 570.543L843.781 575.252ZM836.103 599.459C836.084 598 837.26 596.8 838.728 596.78L838.728 596.78C840.189 596.761 841.391 597.935 841.41 599.401L841.488 606.159 836.188 606.218 836.103 599.459ZM833.44 570.673C833.434 569.862 834.083 569.194 834.895 569.181 835.707 569.175 836.376 569.823 836.389 570.634L836.441 575.336 833.492 575.369 833.44 570.673ZM833.141 544.643C833.135 543.833 833.784 543.164 834.596 543.152 835.408 543.145 836.077 543.794 836.09 544.604L836.142 549.307 833.193 549.339 833.141 544.643ZM832.843 518.614C832.836 517.803 833.486 517.135 834.298 517.122 835.109 517.116 835.779 517.764 835.792 518.575L835.844 523.278 832.895 523.31 832.843 518.614ZM832.544 492.591C832.537 491.78 833.187 491.112 833.999 491.099 834.811 491.093 835.48 491.741 835.493 492.552L835.545 497.255 832.596 497.287 832.544 492.591ZM826.1 570.751C826.094 569.94 826.743 569.272 827.555 569.259 828.367 569.252 829.036 569.901 829.049 570.712L829.101 575.414 826.152 575.447 826.1 570.751ZM825.801 544.728C825.795 543.917 826.444 543.249 827.256 543.236 828.068 543.229 828.737 543.878 828.75 544.689L828.802 549.391 825.853 549.424 825.801 544.728ZM825.503 518.698C825.496 517.887 826.146 517.219 826.958 517.206 827.769 517.2 828.439 517.848 828.452 518.659L828.504 523.362 825.555 523.394 825.503 518.698ZM825.204 492.669C825.197 491.858 825.847 491.19 826.659 491.177 827.471 491.17 828.14 491.819 828.153 492.63L828.205 497.332 825.256 497.365 825.204 492.669Z" fill="#92BFDB" fill-rule="evenodd"/><path d="M1128 423 1064.55 459.691 1018 436.28 968.256 452.371 917.681 429.337 872 563.64 922.575 586.68 972.32 570.589 1018.87 594 1082.32 557.309Z" fill="#D2E9F7" fill-rule="evenodd"/><path d="M949.833 560.794C953.113 552.357 947.485 545.57 952.798 538.27 954.367 536.12 961.803 528.508 961.983 525.845 962.234 522.065 959.68 518.635 956.702 516.336 953.724 514.037 948.379 520.506 945.465 518.122 940.191 513.816 933.231 504.483 930.884 498.066 930.485 496.981 930.015 495.793 928.993 495.267 927.822 494.669 926.407 495.182 925.23 495.76 908.821 503.84 908.455 518.863 911.446 534.84 913.401 545.317 906.519 565.12 912.7 577.915L921.621 582 938.133 576.629C934.543 570.868 947.279 567.38 949.833 560.794Z" fill="#B8DFF7" fill-rule="evenodd"/><path d="M929.667 487.307C930.695 487.788 931.853 488.211 932.934 487.886 935.146 487.222 935.387 484.159 934.749 481.941 934.111 479.724 933.044 477.279 934.137 475.249 935.615 472.499 939.78 472.869 942.461 474.482 945.136 476.088 947.472 478.573 950.563 479.008 955.861 479.763 958.392 471.9 961.047 471.959 963.702 472.011 972.39 478.995 978.039 476.277 979.939 475.36 987.033 471.009 988.308 469.325 993.808 462.087 997.315 455.447 995.532 446.823L966.846 454.972 920.133 435 910 464.668C915.083 476.303 918.402 482.052 929.667 487.307Z" fill="#B8DFF7" fill-rule="evenodd"/><path d="M1072.34 485.64C1071.58 485.186 1070.62 485.388 1069.78 485.634 1065.94 486.743 1062.28 488.5 1059 490.815 1056.04 492.91 1054.9 497.884 1051.49 496.697 1046.16 494.842 1044.49 483.384 1039.23 481.373 1037.48 480.706 1035.53 481.056 1033.72 481.477 1028.22 482.742 1022.84 484.557 1017.69 486.892 1014.89 488.163 1012.07 489.648 1010.12 492.041 1008.17 494.434 1007.28 497.936 1008.69 500.685 1010.57 504.355 1015.3 505.121 1019.01 506.897 1029.29 511.845 1031.79 526.838 1025.9 536.662 1023.92 539.963 1021.2 542.842 1019.77 546.409 1018.33 549.982 1018.6 554.729 1021.76 556.908 1023.45 558.069 1027.68 562.336 1029.36 561.979 1034.79 559.729 1045.69 555.086 1052.69 549.34 1058.82 545.508 1065.16 539.204 1067.64 532.383 1070.31 525.003 1067.49 516.696 1068.97 508.986 1070.38 501.658 1075.64 494.583 1073.49 487.437 1073.27 486.73 1072.96 486.01 1072.34 485.64Z" fill="#B8DFF7" fill-rule="evenodd"/><path d="M1062.85 463.957 1041.83 454.255C1041.83 454.255 1036.16 459.302 1037.57 462.303 1039.35 466.069 1046.54 465.54 1046.87 469.698 1047.11 472.561 1030.25 474.242 1033.39 475.85 1036.52 477.458 1045.51 477.053 1048.71 478.531 1051.91 480.008 1053.9 485.324 1055.44 485.86 1056.98 486.396 1083.5 471.515 1098.24 467.481 1098.72 467.351 1099.2 467.227 1099.69 467.285 1101.35 467.488 1102.01 469.73 1101.42 471.306 1100.84 472.882 1099.51 474.033 1098.53 475.406 1093.91 481.963 1098.48 491.417 1095.79 498.995 1095.35 500.224 1094.71 501.453 1094.81 502.761 1094.97 504.983 1101.39 490.999 1101.39 490.999L1119 433 1062.85 463.957Z" fill="#B8DFF7" fill-rule="evenodd"/><path d="M922.655 440.229 966.25 460.238 1017.88 444.979 1062.73 467.024 1114.82 440.197 1076.57 552.654 1019.12 585.872 976.213 564.295 973.445 562.903 970.496 563.859 926.123 578.207 881.893 560.072 922.655 440.229M918.182 429.838 872.5 564.146 923.07 587.18 972.817 571.088 1019.37 594.5 1082.82 557.814 1128.5 423.5 1065.05 460.186 1018.5 436.774 968.752 452.865 918.182 429.838 918.182 429.838Z" stroke="#FFFFFF" stroke-width="0.704252" stroke-miterlimit="8" fill="#FFFFFF" fill-rule="evenodd"/><path d="M922.441 586 968 452.837 917.559 430 872 563.157Z" fill="#B3A899" fill-rule="evenodd" fill-opacity="0.14902"/><path d="M1017.57 436 972 570.548 1018.43 594 1064 459.452Z" fill="#B3A899" fill-rule="evenodd" fill-opacity="0.14902"/><path d="M1074 641.014C1070.75 641.223 1067.2 645.222 1067.2 645.222 1066.82 645.654 1066.06 646 1065.52 646L1065 646C1065.54 646 1066.3 645.647 1066.68 645.222 1066.68 645.222 1070.42 641 1073.74 641 1073.83 641 1073.92 641 1074 641.014Z" fill="#3D3A38" fill-rule="evenodd"/><path d="M1094.02 637 1093.49 637 1053.98 637C1053.44 637 1053 637.441 1053 637.986L1053 640.517C1053 641.062 1053.14 641.503 1053.3 641.497 1053.3 641.497 1053.3 641.497 1053.46 641.497 1056.76 641.497 1060.5 645.299 1060.5 645.299 1060.88 645.689 1061.63 646 1062.17 646L1064.99 646 1065.51 646C1066.05 646 1066.8 645.682 1067.18 645.299 1067.18 645.299 1070.73 641.698 1073.97 641.51L1073.98 641.51C1074.06 641.503 1074.15 641.497 1074.23 641.497 1074.32 641.497 1074.41 641.497 1074.5 641.51 1077.74 641.704 1081.27 645.299 1081.27 645.299 1081.65 645.689 1082.4 646 1082.94 646L1085.76 646 1086.29 646C1086.83 646 1087.58 645.682 1087.96 645.299L1094.06 641.776C1094.58 641.627 1095 641.056 1095 640.51L1095 637.986C1094.99 637.448 1094.56 637 1094.02 637Z" fill="#5B4127" fill-rule="evenodd"/><path d="M1063.26 547 1063 547 1063 577 1063.26 577 1064.49 577 1064.49 548.512 1083.52 548.512 1083.52 577 1085 577 1085 547Z" fill="#9B643D" fill-rule="evenodd"/><path d="M1063.5 555C1064.33 555 1065 556.168 1065 557.601L1065 577.399C1065 578.832 1064.33 580 1063.5 580 1062.68 580 1062 578.832 1062 577.399L1062 557.601C1062 556.168 1062.68 555 1063.5 555Z" fill="#5B4127" fill-rule="evenodd"/><path d="M1084.68 555.02C1084.62 555.007 1084.56 555 1084.5 555 1084.45 555 1084.4 555.007 1084.35 555.013 1084.35 555.013 1084.35 555.013 1084.34 555.013 1083.59 555.152 1083 556.261 1083 557.601L1083 577.399C1083 578.739 1083.59 579.848 1084.34 579.987 1084.34 579.987 1084.34 579.987 1084.35 579.987 1084.4 579.993 1084.45 580 1084.5 580 1084.56 580 1084.62 579.993 1084.68 579.98 1085.42 579.828 1086 578.726 1086 577.399L1086 557.601C1086.01 556.274 1085.42 555.165 1084.68 555.02Z" fill="#5B4127" fill-rule="evenodd"/><path d="M1085.18 547 1062.81 547C1062.36 547 1062 547.213 1062 547.472L1062 547.525C1062 547.539 1062 547.553 1062.01 547.564 1062.01 547.567 1062.01 547.571 1062.01 547.575 1062.05 547.812 1062.4 548 1062.81 548L1085.18 548C1085.6 548 1085.95 547.812 1085.99 547.575 1085.99 547.571 1085.99 547.567 1085.99 547.564 1086 547.553 1086 547.539 1086 547.525L1086 547.472C1085.99 547.213 1085.63 547 1085.18 547Z" fill="#9B643D" fill-rule="evenodd"/><path d="M1080.23 546 1066.77 546C1065.8 546 1065 546.675 1065 547.5 1065 547.569 1065.01 547.644 1065.02 547.713 1065.14 548.438 1065.88 549 1066.77 549L1080.23 549C1081.11 549 1081.85 548.438 1081.98 547.713 1081.99 547.644 1082 547.569 1082 547.5 1081.99 546.675 1081.2 546 1080.23 546Z" fill="#5B4127" fill-rule="evenodd"/><path d="M1082 577.342C1082 577.342 1082 577.342 1082 577.342L1082 577.283C1081.88 572.698 1078.11 569 1073.5 569 1068.88 569 1065.12 572.698 1065 577.283L1065 577.336C1065 577.336 1065 577.336 1065 577.336 1065 577.388 1065 577.441 1065 577.5 1065 577.566 1065 577.645 1065 577.717 1065 577.717 1065 577.717 1065 577.717 1065.12 582.308 1068.88 586 1073.5 586 1078.11 586 1081.88 582.302 1082 577.717 1082 577.717 1082 577.717 1082 577.717 1082 577.645 1082 577.572 1082 577.5 1082 577.448 1082 577.395 1082 577.342ZM1080.57 577.717C1080.46 581.527 1077.33 584.581 1073.5 584.581 1069.67 584.581 1066.54 581.527 1066.43 577.717 1066.42 577.651 1066.42 577.572 1066.42 577.5 1066.42 577.448 1066.42 577.395 1066.43 577.336L1066.43 577.323C1066.52 573.5 1069.66 570.419 1073.5 570.419 1077.34 570.419 1080.48 573.5 1080.57 577.323L1080.57 577.336C1080.58 577.388 1080.58 577.441 1080.58 577.5 1080.58 577.572 1080.58 577.651 1080.57 577.717Z" fill="#5B4127" fill-rule="evenodd"/><path d="M1093.12 576 1056.1 576 1053.88 576C1051.19 576 1049 578.065 1049 580.594L1049 638.406C1049 640.935 1051.19 643 1053.88 643L1056.1 643 1093.12 643C1095.81 643 1098 640.929 1098 638.406L1098 580.594C1098 578.065 1095.8 576 1093.12 576Z" fill="#B78054" fill-rule="evenodd"/><path d="M1056.02 580.123C1055.85 580.039 1055.68 580 1055.5 580 1054.67 580 1054 580.884 1054 581.969L1054 637.031C1054 638.116 1054.68 639 1055.5 639 1055.68 639 1055.86 638.961 1056.02 638.884 1056.59 638.606 1057 637.883 1057 637.038L1057 581.975C1057 581.117 1056.59 580.394 1056.02 580.123Z" fill="#9B643D" fill-rule="evenodd"/><path d="M1067.02 580.123C1066.85 580.039 1066.68 580 1066.5 580 1065.68 580 1065 580.884 1065 581.969L1065 637.031C1065 638.116 1065.68 639 1066.5 639 1066.68 639 1066.86 638.961 1067.02 638.884 1067.59 638.606 1068 637.883 1068 637.038L1068 581.975C1068 581.117 1067.59 580.394 1067.02 580.123Z" fill="#9B643D" fill-rule="evenodd"/><path d="M1081.02 580.123C1080.85 580.039 1080.68 580 1080.5 580 1079.67 580 1079 580.884 1079 581.969L1079 637.031C1079 638.116 1079.68 639 1080.5 639 1080.68 639 1080.86 638.961 1081.02 638.884 1081.59 638.606 1082 637.883 1082 637.038L1082 581.975C1082 581.117 1081.59 580.394 1081.02 580.123Z" fill="#9B643D" fill-rule="evenodd"/><path d="M1094 637.031C1094 638.116 1093.32 639 1092.5 639 1091.67 639 1091 638.116 1091 637.031L1091 581.969C1091 580.884 1091.68 580 1092.5 580 1093.33 580 1094 580.884 1094 581.969L1094 637.031Z" fill="#9B643D" fill-rule="evenodd"/><path d="M1098 580.594 1098 638.406C1098 640.935 1095.98 643 1093.49 643L1089 643C1091.48 643 1093.51 640.935 1093.51 638.406L1093.51 580.594C1093.51 578.065 1091.48 576 1089 576L1093.49 576C1095.98 576 1098 578.058 1098 580.594Z" fill="#A3724B" fill-rule="evenodd"/><path d="M1069.04 601.605 1076.84 598.377 1078.52 602.454 1070.73 605.683Z" fill="#5B4127" fill-rule="evenodd"/><path d="M1074.89 601.924C1075.2 602.69 1074.84 603.564 1074.08 603.886 1073.31 604.201 1072.44 603.841 1072.12 603.076 1071.8 602.31 1072.16 601.436 1072.93 601.114 1073.69 600.799 1074.57 601.159 1074.89 601.924Z" fill="#EDBA55" fill-rule="evenodd"/><path d="M1065 608.5C1065 610.012 1064.04 611.303 1062.7 611.791 1062.33 611.928 1061.92 612 1061.5 612 1061.08 612 1060.68 611.928 1060.3 611.791 1058.96 611.303 1058 610.012 1058 608.5 1058 606.988 1058.96 605.697 1060.3 605.209 1060.67 605.072 1061.08 605 1061.5 605 1061.92 605 1062.32 605.072 1062.7 605.209 1064.04 605.704 1065 606.988 1065 608.5Z" fill="#5B4127" fill-rule="evenodd"/><path d="M1065 608.997C1065 610.377 1064.17 611.554 1063 612L1063 606C1064.17 606.446 1065 607.617 1065 608.997Z" fill="#EDBA55" fill-rule="evenodd"/><path d="M1060 606 1060 612C1058.83 611.554 1058 610.377 1058 608.997 1058 607.617 1058.83 606.446 1060 606Z" fill="#FFFFFF" fill-rule="evenodd"/><path d="M1074.48 618C1075.99 617.993 1077.29 618.946 1077.78 620.283 1077.92 620.655 1078 621.06 1078 621.477 1078 621.901 1077.93 622.299 1077.8 622.678 1077.32 624.028 1076.03 624.993 1074.52 625 1073.01 625.007 1071.72 624.054 1071.22 622.717 1071.08 622.345 1071 621.94 1071 621.523 1071 621.105 1071.07 620.701 1071.2 620.322 1071.68 618.979 1072.97 618.013 1074.48 618Z" fill="#DD504C" fill-rule="evenodd"/><path d="M1073.99 618C1075.36 617.994 1076.55 618.815 1077 619.966L1071 620C1071.43 618.843 1072.61 618.011 1073.99 618Z" fill="#FAEFA3" fill-rule="evenodd"/><path d="M1071 623.034 1077 623C1076.56 624.163 1075.39 624.994 1074.01 625 1072.63 625.006 1071.45 624.185 1071 623.034Z" fill="#EDBA55" fill-rule="evenodd"/><path d="M1084.59 609.104 1091.88 611.651 1090.37 615.989 1083.07 613.442Z" fill="#5B4127" fill-rule="evenodd"/><path d="M1084.61 609.14 1087.06 609.996 1085.55 614.335 1083.09 613.478Z" fill="#FFFFFF" fill-rule="evenodd"/><path d="M1089.44 610.783 1091.89 611.64 1090.37 615.978 1087.92 615.121Z" fill="#EDBA55" fill-rule="evenodd"/><path d="M913 588.032C912.973 589.137 911.834 590.016 910.46 590 909.078 589.978 907.98 589.067 908 587.968 908.027 586.863 909.166 585.984 910.54 586 911.922 586.016 913.02 586.927 913 588.032Z" fill="#5B4127" fill-rule="evenodd"/><path d="M935 588.54C934.973 589.922 933.834 591.02 932.459 591 931.078 590.973 929.98 589.834 930 588.46 930.027 587.078 931.166 585.98 932.54 586 933.928 586.027 935.026 587.166 935 588.54Z" fill="#5B4127" fill-rule="evenodd"/><path d="M927.55 578.196 915.837 578.001C912.771 577.95 910.247 580.255 910.194 583.139L910 593.629 932.806 594 932.999 583.51C933.053 580.626 930.608 578.246 927.55 578.196ZM929.373 590.801 913.499 590.543 913.619 584.146C913.633 583.315 914.361 582.654 915.242 582.666L916.117 582.679C916.364 583.85 917.453 584.738 918.768 584.757L924.385 584.851C925.7 584.87 926.815 584.02 927.109 582.862L927.931 582.874C928.812 582.887 929.513 583.573 929.5 584.404L929.373 590.801Z" fill="#5B4127" fill-rule="evenodd"/><path d="M927.702 578.019 926.664 578C929.643 578.051 932.013 580.463 931.961 583.378L931.772 593.981 932.811 594 932.999 583.397C933.051 580.476 930.675 578.064 927.702 578.019ZM927.021 582.729 926.222 582.716C925.937 583.893 924.853 584.753 923.574 584.727L924.613 584.746C925.878 584.765 926.962 583.919 927.255 582.754 927.183 582.735 927.105 582.729 927.021 582.729ZM915.545 582.531 914.694 582.519C913.837 582.506 913.13 583.174 913.117 584.014L913 590.481 914.039 590.5 914.155 584.033C914.168 583.257 914.779 582.62 915.551 582.544 915.545 582.538 915.545 582.538 915.545 582.531Z" fill="#705641" fill-rule="evenodd" fill-opacity="0.2"/><path d="M896.683 585.007 896.47 585.001C894.043 584.954 892.041 587.113 892 589.828L892 589.828 900.999 590 900.999 590C901.041 587.298 899.111 585.06 896.683 585.007Z" fill="#5B4127" fill-rule="evenodd"/><path d="M946.683 586.007 946.47 586.001C944.043 585.954 942.041 588.113 942 590.828L942 590.828 950.999 591 950.999 591C951.047 588.292 949.111 586.054 946.683 586.007Z" fill="#5B4127" fill-rule="evenodd"/><path d="M958.999 593.344 958.166 640.953C958.127 643.227 956.241 645.038 953.954 644.999L887.07 643.843C884.784 643.805 882.962 641.93 883.001 639.656L883.834 592.047C883.873 589.773 885.759 587.962 888.046 588.001L954.93 589.157C957.223 589.202 959.044 591.07 958.999 593.344Z" fill="#C25F5F" fill-rule="evenodd"/><path d="M913.136 588.01 914.064 588.026 913.082 644.452 912.154 644.436Z" fill="#9C4E4E" fill-rule="evenodd"/><path d="M929.077 588.289 930.005 588.305 929.023 644.731 928.095 644.715Z" fill="#9C4E4E" fill-rule="evenodd"/><path d="M892.544 587.656 893.472 587.673 892.484 644.099 891.556 644.083Z" fill="#9C4E4E" fill-rule="evenodd"/><path d="M899.676 587.775 900.604 587.791 899.622 644.217 898.694 644.201Z" fill="#9C4E4E" fill-rule="evenodd"/><path d="M942.538 588.523 943.466 588.539 942.484 644.965 941.556 644.949Z" fill="#9C4E4E" fill-rule="evenodd"/><path d="M949.66 588.652 950.588 588.669 949.601 645.095 948.673 645.079Z" fill="#9C4E4E" fill-rule="evenodd"/><path d="M883.041 637.138 883.001 639.527C882.96 641.93 884.856 643.912 887.236 643.953L889.858 644C889.945 643.62 889.992 643.233 889.999 642.833 890.053 639.67 887.559 637.057 884.419 637.002 883.942 636.989 883.478 637.036 883.041 637.138Z" fill="#5B4127" fill-rule="evenodd"/><path d="M908 600.525C907.978 601.35 907.068 602.011 905.967 602 904.866 601.983 903.986 601.301 904 600.475 904.022 599.65 904.932 598.989 906.033 599 907.141 599.017 908.022 599.699 908 600.525Z" fill="#5B4127" fill-rule="evenodd"/><path d="M908 616.033C907.978 617.134 907.068 618.015 905.967 618 904.866 617.978 903.986 617.068 904 615.967 904.022 614.866 904.932 613.986 906.033 614 907.141 614.015 908.022 614.932 908 616.033Z" fill="#5B4127" fill-rule="evenodd"/><path d="M907 632.033C906.983 633.134 906.301 634.014 905.475 634 904.65 633.978 903.989 633.068 904 631.967 904.017 630.866 904.699 629.986 905.525 630 906.35 630.015 907.011 630.925 907 632.033Z" fill="#5B4127" fill-rule="evenodd"/><path d="M938 601.033C937.983 602.134 937.301 603.015 936.475 603 935.65 602.978 934.989 602.068 935 600.967 935.017 599.866 935.699 598.986 936.525 599 937.356 599.015 938.016 599.932 938 601.033Z" fill="#5B4127" fill-rule="evenodd"/><path d="M938 616.525C937.983 617.35 937.301 618.011 936.475 618 935.65 617.983 934.989 617.301 935 616.475 935.017 615.65 935.699 614.989 936.525 615 937.35 615.011 938.011 615.694 938 616.525Z" fill="#5B4127" fill-rule="evenodd"/><path d="M938 632.525C937.978 633.35 937.068 634.011 935.967 634 934.866 633.983 933.986 633.301 934 632.475 934.022 631.65 934.932 630.989 936.033 631 937.141 631.011 938.022 631.694 938 632.525Z" fill="#5B4127" fill-rule="evenodd"/><path d="M915.633 593.319 926.243 589.14 928.429 594.69 917.818 598.869Z" fill="#FFFFFF" fill-rule="evenodd"/><path d="M923.86 593.266C924.266 594.294 923.759 595.454 922.732 595.86 921.705 596.266 920.545 595.759 920.14 594.731 919.734 593.704 920.241 592.543 921.268 592.137 922.295 591.738 923.455 592.239 923.86 593.266Z" fill="#E06C64" fill-rule="evenodd"/><path d="M927.999 608.581C927.965 610.529 926.558 612.161 924.628 612.757 924.09 612.924 923.51 613.011 922.911 612.999 922.311 612.986 921.738 612.887 921.207 612.701 919.297 612.043 917.96 610.362 918.001 608.419 918.035 606.477 919.442 604.839 921.373 604.243 921.911 604.076 922.49 603.989 923.09 604.001 923.69 604.014 924.262 604.113 924.793 604.299 926.696 604.957 928.034 606.638 927.999 608.581Z" fill="#FFFFFF" fill-rule="evenodd"/><path d="M927.999 608.559C927.969 610.631 926.717 612.367 925 613L925.147 604C926.84 604.706 928.03 606.494 927.999 608.559Z" fill="#EDBA55" fill-rule="evenodd"/><path d="M921 604 920.853 613C919.154 612.301 917.964 610.512 918.001 608.447 918.031 606.375 919.283 604.64 921 604Z" fill="#5B4127" fill-rule="evenodd"/><path d="M920.055 632C922.221 632.028 924.041 633.419 924.717 635.34 924.903 635.878 925.007 636.449 925 637.055 924.993 637.654 924.883 638.233 924.682 638.763 923.958 640.671 922.103 642.021 919.945 642 917.786 641.972 915.959 640.581 915.283 638.66 915.097 638.123 914.993 637.551 915 636.945 915.007 636.346 915.118 635.767 915.318 635.237 916.042 633.323 917.897 631.973 920.055 632Z" fill="#DD504C" fill-rule="evenodd"/><path d="M920.54 632C922.611 632.025 924.353 633.274 925 635L916 634.901C916.699 633.188 918.474 631.976 920.54 632Z" fill="#E9A72C" fill-rule="evenodd"/><path d="M916 638 925 638.132C924.307 640.411 922.532 642.024 920.467 642 918.395 641.959 916.653 640.304 916 638Z" fill="#EDBA55" fill-rule="evenodd"/><path d="M917.143 618.092 926.935 621.705 924.786 627.527 914.994 623.913Z" fill="#FFFFFF" fill-rule="evenodd"/><path d="M917.144 618.089 920.438 619.305 918.29 625.127 914.996 623.911Z" fill="#5B4127" fill-rule="evenodd"/><path d="M923.637 620.454 926.932 621.67 924.783 627.491 921.489 626.276Z" fill="#EDBA55" fill-rule="evenodd"/><path d="M958.999 593.295 958.155 640.949C958.116 643.225 956.205 645.038 953.889 644.999L948 644.897C950.316 644.935 952.227 643.122 952.266 640.846L953.11 593.192C953.15 590.916 951.304 589.039 948.988 589L954.877 589.103C957.2 589.148 959.045 591.019 958.999 593.295Z" fill="#9C4E4E" fill-rule="evenodd"/><path d="M951.175 490 973.951 490.314 977 550.174C963.712 551.091 952.927 551.32 946 550.475L947.659 517.866 951.175 490 951.175 490Z" fill="#F6FDFF" fill-rule="evenodd"/><path d="M962.633 635C962.633 635 966.104 637.833 967 646.98 967 646.98 953.829 648.455 938 647.857 938 647.857 938.275 639.886 952.606 635.474L962.633 635 962.633 635Z" fill="#5D6497" fill-rule="evenodd"/><path d="M966.571 644C966.744 644.912 966.891 645.908 967 646.999 967 646.999 953.829 648.447 938 647.86 938 647.86 938.038 646.731 938.871 645.091 944.557 645.544 958.362 646.316 966.571 644L966.571 644Z" fill="#EBF4F9" fill-rule="evenodd"/><path d="M945 586.007 952.007 636.34C955.514 637.147 959.65 637.298 964 636.32L961.203 586 945 586Z" fill="#E6A397" fill-rule="evenodd"/><path d="M961 596.605C956.165 597.108 951.144 597.183 946.335 596.522L945 586 960.464 586 961 596.605Z" fill="#D88A82" fill-rule="evenodd"/><path d="M974.61 636C974.61 636 971.737 638.833 971 647.98 971 647.98 981.9 649.455 995 648.857 995 648.857 994.771 640.886 982.911 636.474L974.61 636 974.61 636Z" fill="#5D6497" fill-rule="evenodd"/><path d="M971.356 644C971.21 645.141 971.089 646.385 971 647.748 971 647.748 981.9 649.559 995 648.825 995 648.825 994.968 647.413 994.275 645.372 989.578 645.93 978.15 646.895 971.356 644L971.356 644Z" fill="#EBF4F9" fill-rule="evenodd"/><path d="M966 587.451 972.848 637.545C975.731 638.292 980.825 638.273 984 636.303L982.964 587 966 587.451 966 587.451Z" fill="#E6A397" fill-rule="evenodd"/><path d="M983 591.575C978.871 592.725 973.266 594.073 967.072 595L966 587.433 982.901 587 983 591.575 983 591.575Z" fill="#D88A82" fill-rule="evenodd"/><path d="M940.405 546.343C948.168 548.672 964.98 548.348 984.983 546L987 589.392C987 589.392 967.399 592.801 962.217 591.824L961.776 590.453C961.776 590.453 950.86 592.426 943.155 591.662 943.155 591.662 938.653 555.271 940.405 546.343L940.405 546.343Z" fill="#5D6497" fill-rule="evenodd"/><path d="M958.528 591C957.316 580.976 954.371 571.683 949 563L959.002 564.77 962 590.23 962 590.224C962.007 590.23 960.681 590.609 958.528 591Z" fill="#484E75" fill-rule="evenodd"/><path d="M945 517.941 938.51 534 932 525.574 935.696 513 945 517.941Z" fill="#D88A82" fill-rule="evenodd"/><path d="M949 487C949 487 943.929 488.619 939.94 494.98 936.679 500.177 932 516.137 932 516.137L944.682 524 949 487Z" fill="#C25F5F" fill-rule="evenodd"/><path d="M917.423 504.5C917.423 504.5 925.962 501.824 937 506 937 506 934.539 484.111 931.455 475.342 931.455 475.342 924.058 473.199 919.455 474.329 915.609 475.271 909 479.071 909 479.071 909 479.071 916.513 493.542 917.423 504.5Z" fill="#E2F4EC" fill-rule="evenodd"/><path d="M935 504C935 504 933.852 503.516 932.059 503.012 930.891 502.685 929.447 502.352 927.866 502.143L927.86 502.143C924.919 501.757 921.52 501.809 918.579 503.156 918.579 503.156 918.404 499.461 916.134 492.607 916.134 492.607 916.134 492.607 916.134 492.601 915.863 491.77 915.56 490.887 915.212 489.959 915.031 489.462 914.831 488.945 914.631 488.422 914.341 487.67 914.025 486.885 913.683 486.081 912.916 484.243 912.026 482.268 911 480.162 911 480.162 917.424 477.075 920.726 476.231 921.533 476.029 922.507 475.976 923.519 476.009 924.577 476.048 925.667 476.186 926.654 476.349 927.286 476.454 927.879 476.571 928.389 476.676 929.44 476.905 930.137 477.095 930.137 477.095 930.137 477.095 930.33 477.978 930.633 479.449 931.343 482.837 932.678 489.318 933.691 495.119 933.865 496.113 934.033 497.087 934.187 498.023 934.568 500.364 934.858 502.45 935 504Z" fill="#7DA351" fill-rule="evenodd"/><path d="M931.968 503.036C932.42 498.476 922.964 498.144 921.94 494.415 921.195 491.713 922.917 488.846 924.094 487.294 922.046 488.003 919.446 488.227 917.697 488.399 916.527 488.514 915.463 489.331 914.598 490.296 914.412 489.81 914.206 489.306 914 488.795 914.698 488.278 915.43 487.869 916.115 487.741 918.475 487.288 923.177 487.333 924.773 485.647 926.043 484.312 926.322 479.075 926.382 477 927.034 477.102 927.645 477.217 928.171 477.319 928.004 479.069 927.652 482.383 927.193 484.567 927.067 485.187 926.721 485.691 926.242 486.119 926.249 486.113 926.256 486.113 926.256 486.113L926.262 486.113C926.262 486.164 924.746 488.399 924.374 490.328 923.988 492.32 924.114 494.07 928.669 495.366 931.768 496.254 933.417 497.474 934.162 498.17 934.555 500.449 934.854 502.487 935 504 935 503.994 933.816 503.521 931.968 503.036Z" fill="#8EBBCF" fill-rule="evenodd"/><path d="M924.319 483.347C922.192 485.163 917.836 483.483 915.696 484.599 914.837 485.046 914.165 485.552 913.665 486 912.903 484.177 912.019 482.218 911 480.129 911 480.129 917.381 477.066 920.661 476.23 921.462 476.028 922.429 475.977 923.435 476.009 924.325 477.949 925.914 481.991 924.319 483.347Z" fill="#A4BB62" fill-rule="evenodd"/><path d="M934 495C927.199 492.746 925.573 488.608 928.175 486.805 930.112 485.465 930.509 481.922 930.574 480 931.369 483.237 932.858 489.447 934 495Z" fill="#A4BB62" fill-rule="evenodd"/><path d="M928 502.029C924.99 501.659 921.512 501.709 918.502 503 918.502 503 918.323 499.46 916 492.894 916 492.894 916 492.894 916 492.888 917.393 491.109 919.419 488.954 920.172 490.57 921.32 493.032 919.795 496.271 922.343 498.477 924.422 500.287 927.195 500.481 928 502.029Z" fill="#A4BB62" fill-rule="evenodd"/><path d="M925.687 518.282C925.687 518.282 921.93 509.509 922.001 507.724 922.072 505.939 924.366 500.717 925.842 500.101 927.318 499.485 931.661 501.835 931.481 503.249 931.481 503.249 932.628 503.576 933.047 504.23 933.762 505.33 933.408 506.48 933.408 506.48 933.408 506.48 934.4 506.649 934.549 507.837 934.768 509.547 934.078 510.489 934.078 510.489 934.078 510.489 934.974 510.558 935 512.004 935.026 513.613 932.757 514.336 932.757 514.336 932.757 514.336 934.903 517.44 931.745 520.45 929.638 522.468 925.687 518.282 925.687 518.282Z" fill="#E6A397" fill-rule="evenodd"/><path d="M930.49 503.003C930.49 503.003 926.655 503.428 924.145 505.345 923.963 505.486 923.95 505.721 924.119 505.879 924.288 506.031 924.568 506.042 924.75 505.9 927.064 504.13 930.607 503.749 930.607 503.749 930.854 503.722 931.023 503.531 930.997 503.33 930.965 503.123 930.737 502.976 930.49 503.003L930.49 503.003Z" fill="#C25F5F" fill-rule="evenodd"/><path d="M932.506 506.007C932.506 506.007 928.767 506.712 926.177 509.044 925.985 509.213 925.942 509.551 926.084 509.781 926.22 510.019 926.492 510.072 926.677 509.896 929.113 507.702 932.636 507.05 932.636 507.05 932.871 507.004 933.032 506.735 932.995 506.444 932.958 506.16 932.741 505.961 932.506 506.007L932.506 506.007Z" fill="#C25F5F" fill-rule="evenodd"/><path d="M933.46 510.002C933.46 510.002 930.371 510.267 927.182 512.308 926.97 512.443 926.942 512.686 927.104 512.855 927.274 513.024 927.578 513.046 927.79 512.917 930.724 511.039 933.566 510.775 933.566 510.775 933.835 510.752 934.026 510.56 933.997 510.346 933.969 510.132 933.729 509.98 933.46 510.002L933.46 510.002Z" fill="#C25F5F" fill-rule="evenodd"/><path d="M925 516C925 516 927.011 529.505 928.506 532.853 931.383 539.317 939.06 537.649 937.877 531.808 937.242 528.68 932.429 517.895 932.429 517.895L925 516Z" fill="#E6A397" fill-rule="evenodd"/><path d="M972.421 476C972.421 476 970.055 484.663 974 485.765L974 491.156C974 491.156 966.678 494.127 962.686 493.996 958.694 493.865 955.886 490.625 955 487.923L957.161 483.391C957.161 483.391 960.426 483.155 959.824 478.709L972.421 476 972.421 476Z" fill="#E6A397" fill-rule="evenodd"/><path d="M957 483.427C957.839 483.208 959.795 482.317 959.316 478.746L972 476C972 476 971.461 477.982 971.328 480.176 967.867 482.33 961.865 485.249 957 483.427Z" fill="#D88A82" fill-rule="evenodd"/><path d="M954.236 466.144C956.683 466.692 958.349 468.636 957.938 470.49 957.533 472.343 955.212 473.403 952.765 472.856 950.311 472.308 948.651 470.364 949.063 468.51 949.467 466.657 951.789 465.597 954.236 466.144Z" fill="#D88A82" fill-rule="evenodd"/><path d="M967.019 450.117C974.052 450.838 979.107 457.618 977.791 467.811 976.54 477.475 969.776 480.817 963.11 480.997 958.919 481.113 952.312 477.662 953.058 464.578 953.772 452.145 959.515 449.351 967.019 450.117Z" fill="#E6A397" fill-rule="evenodd"/><path d="M959.687 450.636C960.056 450.54 960.45 450.457 960.871 450.392 963.659 449.963 966.474 449.873 968.945 450.187 972.71 451.296 975.674 454.336 976.993 458.792 977.052 463.12 976.709 468 976.709 468 976.709 468 972.95 463.864 972.788 457.805 972.788 457.805 962.307 461.069 963.504 456.298 963.504 456.298 956.737 456.471 954 458.17 955.119 454.131 957.105 451.803 959.687 450.636Z" fill="#D88A82" fill-rule="evenodd"/><path d="M978.42 468.14C978.42 468.14 980.151 457.321 979.989 453.426 979.776 448.42 976.303 448.367 976.303 448.367 976.303 448.367 976.031 442.726 972.099 440.55 968.167 438.367 968.355 443.387 968.355 443.387 968.355 443.387 960.561 438.976 954.576 441.608 949.424 443.876 952.555 446.965 952.555 446.965 952.555 446.965 946.899 447.48 946.092 451.025 945.375 454.18 949.075 456.355 949.075 456.355 949.075 456.355 947.177 457.916 948.042 460.072 948.907 462.221 951.671 463.756 951.671 463.756 951.806 465.627 952.155 467.36 952.652 469 952.781 464.483 953.104 459.484 954.46 456.64 957.54 455.602 961.046 455.211 964.887 455.337 964.887 455.337 963.112 457.539 964.887 458.082 966.663 458.624 973.081 456.561 973.081 456.561 973.081 456.561 972.971 463.458 975.567 468.325L978.42 468.14Z" fill="#5B4127" fill-rule="evenodd"/><path d="M948.172 460C948.145 459.948 948.126 459.889 948.099 459.837 947.21 457.712 949.161 456.163 949.161 456.163 949.161 456.163 945.358 454.019 946.095 450.895 946.924 447.385 952.738 446.881 952.738 446.881 952.738 446.881 949.519 443.829 954.815 441.587 960.974 438.979 968.978 443.345 968.978 443.345 968.978 443.345 968.786 438.391 972.828 440.541 974.367 441.358 975.363 442.678 976 443.992 974.832 443.11 972.124 441.24 971.235 442.129 970.093 443.28 970.452 445.215 970.452 445.215 970.452 445.215 949.579 438.626 955.088 447.633 955.088 447.633 942.265 449.764 950.82 455.856 950.827 455.849 948.431 457.372 948.172 460Z" fill="#7D5936" fill-rule="evenodd"/><path d="M977.086 466.268C979.233 465.528 981.392 466.372 981.893 468.151 982.4 469.936 981.06 471.984 978.914 472.732 976.767 473.472 974.608 472.628 974.107 470.849 973.6 469.064 974.94 467.016 977.086 466.268Z" fill="#E6A397" fill-rule="evenodd"/><path d="M966.065 462.518 966 461.244C966 461.244 969.377 460.034 971 463 969.428 462.191 967.404 462.094 966.065 462.518L966.065 462.518Z" fill="#5B4127" fill-rule="evenodd"/><path d="M959 462.498 958.615 461.103C958.615 461.103 955.175 460.333 954 463 955.495 462.208 957.394 461.823 959 462.498Z" fill="#5B4127" fill-rule="evenodd"/><path d="M957.5 466C957.775 466 958 466.45 958 467 958 467.55 957.775 468 957.5 468 957.225 468 957 467.55 957 467 957 466.442 957.225 466 957.5 466Z" fill="#5B4127" fill-rule="evenodd"/><path d="M967 467C967.55 467 968 467.225 968 467.5 968 467.775 967.55 468 967 468 966.45 468 966 467.775 966 467.5 966.009 467.221 966.45 467 967 467Z" fill="#5B4127" fill-rule="evenodd"/><path d="M960 473.498 966.797 472C966.797 472 968.101 476.35 964.101 476.956 960.774 477.461 960 473.498 960 473.498Z" fill="#FFFFFF" fill-rule="evenodd"/><path d="M960.29 467.5C959.429 469.116 958.98 470.762 960.5 472.5" stroke="#B54A4A" stroke-width="1.06698" stroke-linecap="round" stroke-linejoin="round" stroke-miterlimit="10" fill="none" fill-rule="evenodd"/><path d="M959 483C959 483 952.079 508.2 951.651 556L938 554.697C938 554.697 942.251 492.163 946.892 488.415 950.26 485.691 959 483 959 483Z" fill="#B54A4A" fill-rule="evenodd"/><path d="M955.614 501C956.74 492.422 957.88 486.376 959 482 959 482 952.652 483.334 951.474 484.991 950.296 486.64 947 495.451 947 495.451 947 495.451 951.674 497.036 955.614 501L955.614 501Z" fill="#C25F5F" fill-rule="evenodd"/><path d="M987.037 501C991.282 513.76 994.564 526.705 996 540L992.253 540C990.893 529.586 988.55 519.225 985 508.91L987.037 501 987.037 501Z" fill="#5B4127" fill-rule="evenodd"/><path d="M973.273 485C973.273 485 962.949 505.318 968.79 556L987 554.768C987 554.768 985.622 508.084 985.892 502.92 986.163 497.757 987.936 492.371 984.508 489.652 981.073 486.939 973.273 485 973.273 485Z" fill="#B54A4A" fill-rule="evenodd"/><path d="M1001.74 529.62 1005 526.386 997.507 512 986 520.272 994.231 531 1001.74 529.62Z" fill="#D88A82" fill-rule="evenodd"/><path d="M983.553 489C983.553 489 986.972 490.348 990.732 496.316 994.49 502.284 999 511.913 999 511.913L984.29 524C984.29 524 980.805 515.138 980.231 509.778 979.37 501.775 981.014 493.831 983.553 489Z" fill="#C25F5F" fill-rule="evenodd"/><path d="M993.69 541.055C993.377 538.731 991.371 537 988.993 537 985.279 537 979.799 537 975.734 537 974.365 537 973.069 537.586 972.17 538.596 971.271 539.613 970.86 540.964 971.042 542.297 971.714 547.226 972.697 554.46 973.31 558.946 973.629 561.269 975.636 563 978.007 563 981.721 563 987.201 563 991.266 563 992.635 563 993.931 562.414 994.83 561.404 995.729 560.387 996.14 559.036 995.958 557.697 995.286 552.774 994.296 545.534 993.69 541.055L993.69 541.055Z" fill="#5B4127" fill-rule="evenodd"/><path d="M996.785 541.06C996.481 538.737 994.532 537 992.223 537 988.673 537 983.473 537 979.601 537 978.272 537 977.013 537.579 976.14 538.596 975.266 539.612 974.868 540.957 975.039 542.295 975.684 547.224 976.627 554.456 977.215 558.94 977.519 561.263 979.468 563 981.777 563 985.327 563 990.527 563 994.399 563 995.728 563 996.987 562.421 997.86 561.404 998.734 560.388 999.132 559.043 998.961 557.705 998.316 552.776 997.367 545.544 996.785 541.06L996.785 541.06Z" fill="#7D5936" fill-rule="evenodd"/><path d="M992.716 537 975.02 537C974.749 537 974.491 537.111 974.297 537.301 974.103 537.498 974 537.76 974 538.034L976.518 538.034 977.415 544.556C977.686 546.527 979.352 548 981.315 548 984.091 548 988.029 548 991.064 548 992.206 548 993.284 547.502 994.033 546.625 994.782 545.754 995.118 544.595 994.963 543.449 994.711 541.616 994.44 539.639 994.266 538.362 994.156 537.583 993.497 537 992.716 537L992.716 537Z" fill="#5B4127" fill-rule="evenodd"/><path d="M988.461 546 985 546 985.539 553 989 553 988.461 546Z" fill="#5B4127" fill-rule="evenodd"/><path d="M989.92 553 984 553 984.08 554 990 554 989.92 553Z" fill="#B78054" fill-rule="evenodd"/><path d="M975.429 539.091C975.252 522.784 976.686 506.632 982 488.5L979.105 487C973.379 504.171 971.373 521.881 972.166 540L975.429 539.091 975.429 539.091Z" fill="#5B4127" fill-rule="evenodd"/><path d="M1002.65 524.422C999.117 522.805 983.678 522.504 983.431 522.234 983.184 521.964 980.625 515.444 979.339 514.642 978.053 513.839 971.63 511.927 970.733 513.789 969.837 515.651 970.837 516.692 970.837 516.692 970.837 516.692 969.207 517.099 969.064 518.429 968.915 519.758 970.259 521.068 970.259 521.068 970.259 521.068 968.856 521.896 969.012 523.457 969.168 525.018 970.597 525.62 970.597 525.62 970.597 525.62 969.363 526.021 969.733 527.576 970.103 529.13 972.76 529.431 973.922 529.739 973.922 529.739 976.715 532.002 980.067 530.829 980.067 530.829 993.972 535.814 998.064 535.996 1000.69 536.115 1003.86 533.864 1004.62 531.933 1005.38 530.002 1005.13 525.563 1002.65 524.422L1002.65 524.422Z" fill="#E6A397" fill-rule="evenodd"/><path d="M971.377 516.009C971.377 516.009 975.214 515.799 977.845 517.427 978.019 517.534 978.052 517.739 977.916 517.877 977.78 518.015 977.521 518.041 977.346 517.933 974.948 516.449 971.436 516.654 971.436 516.654 971.209 516.664 971.014 516.531 971.002 516.357 970.982 516.178 971.151 516.024 971.377 516.009L971.377 516.009Z" fill="#CD7370" fill-rule="evenodd"/><path d="M970.397 520C970.397 520 973.841 520.152 975.844 522.091 976.015 522.259 976.052 522.571 975.923 522.795 975.795 523.02 975.557 523.068 975.386 522.899 973.548 521.121 970.373 521.009 970.373 521.009 970.159 521.001 969.994 520.769 970 520.489 970.006 520.208 970.183 519.992 970.397 520Z" fill="#CD7370" fill-rule="evenodd"/><path d="M970.403 525.001C970.403 525.001 973.431 524.913 975.829 526.376 976.016 526.491 976.057 526.706 975.916 526.859 975.775 527.013 975.514 527.046 975.326 526.931 973.169 525.611 970.436 525.694 970.436 525.694 970.202 525.699 970.007 525.551 970.001 525.358 969.987 525.171 970.168 525.007 970.403 525.001L970.403 525.001Z" fill="#CD7370" fill-rule="evenodd"/><path d="M969 502C969 502 973.26 497.008 979 496.757 979 496.757 978.188 487.285 977.224 486.366 975.54 484.758 971.523 483 971.523 483 970.481 489.488 969.524 495.688 969 502Z" fill="#C25F5F" fill-rule="evenodd"/><path d="M951.082 512.556C952.721 502.257 955.355 492.036 958.972 481.699 959.065 481.422 958.919 481.126 958.634 481.03 958.348 480.933 958.043 481.081 957.944 481.358 954.307 491.759 951.659 502.032 950.007 512.395 949.96 512.685 950.166 512.949 950.458 512.994 950.756 513.039 951.035 512.839 951.082 512.556Z" fill="#F0C361" fill-rule="evenodd"/><path d="M966.986 512.586C968.97 503.054 970.564 492.947 971.994 482.607 972.037 482.317 971.848 482.052 971.574 482.006 971.3 481.961 971.051 482.161 971.008 482.452 969.584 492.773 967.996 502.854 966.012 512.36 965.952 512.644 966.122 512.929 966.39 512.987 966.663 513.052 966.925 512.871 966.986 512.586L966.986 512.586Z" fill="#F0C361" fill-rule="evenodd"/><path d="M968.997 514.296C969.029 513.613 968.785 512.937 968.315 512.431 967.846 511.926 967.189 511.622 966.488 511.584 963.156 511.426 957.449 511.161 954.117 511.003 953.422 510.971 952.733 511.211 952.219 511.673 951.704 512.134 951.395 512.779 951.357 513.468 951.254 515.591 951.106 518.581 951.003 520.704 950.971 521.387 951.215 522.063 951.685 522.569 952.154 523.074 952.811 523.378 953.512 523.416 956.844 523.574 962.551 523.839 965.883 523.997 966.578 524.029 967.267 523.789 967.781 523.327 968.296 522.866 968.611 522.221 968.643 521.532 968.746 519.409 968.888 516.419 968.997 514.296Z" fill="#4A6AA0" fill-rule="evenodd"/><path d="M966.997 514.296C967.031 513.613 966.773 512.937 966.277 512.431 965.781 511.926 965.089 511.622 964.349 511.584 960.831 511.426 954.807 511.161 951.29 511.003 950.549 510.971 949.83 511.211 949.286 511.673 948.743 512.134 948.417 512.779 948.377 513.468 948.268 515.591 948.112 518.581 948.003 520.704 947.969 521.387 948.227 522.063 948.723 522.569 949.219 523.074 949.911 523.378 950.651 523.416 954.169 523.574 960.193 523.839 963.71 523.997 964.451 524.029 965.17 523.789 965.714 523.327 966.257 522.866 966.583 522.221 966.624 521.532 966.732 519.409 966.888 516.419 966.997 514.296L966.997 514.296Z" fill="#567BBB" fill-rule="evenodd"/><path d="M954.11 519.772C953.38 519.02 952.95 517.987 953.005 516.866 953.059 515.745 953.585 514.758 954.383 514.081L954.438 513 957.597 513.148 957.597 513.168C959.604 513.463 961.091 515.208 960.996 517.242 960.9 519.275 959.242 520.873 957.222 520.98L957.222 521 954.062 520.852 954.11 519.772 954.11 519.772Z" fill="#466395" fill-rule="evenodd"/><path d="M954.667 513.004C956.598 513.094 958.086 514.737 957.996 516.668 957.906 518.598 956.263 520.086 954.333 519.996 952.402 519.907 950.914 518.263 951.004 516.333 951.094 514.403 952.737 512.909 954.667 513.004Z" fill="#7797CB" fill-rule="evenodd"/><path d="M954.142 514.003C955.793 514.081 957.074 515.492 956.997 517.142 956.919 518.793 955.515 520.074 953.858 519.997 952.207 519.919 950.926 518.515 951.003 516.858 951.081 515.201 952.492 513.926 954.142 514.003Z" fill="#494E75" fill-rule="evenodd"/><path d="M953.045 515.001C953.594 515.014 954.026 515.247 953.999 515.525 953.972 515.798 953.504 516.013 952.955 515.999 952.406 515.986 951.974 515.753 952.001 515.475 952.019 515.198 952.487 514.987 953.045 515.001L953.045 515.001Z" fill="#FFFFFF" fill-rule="evenodd"/><path d="M965 512.438C965.006 512.297 964.907 512.184 964.774 512.177 964.07 512.142 962.01 512.036 961.306 512 961.173 511.993 961.067 512.099 961.06 512.241 961.047 512.587 961.014 513.215 961 513.562 960.994 513.703 961.093 513.816 961.226 513.823 961.93 513.858 963.99 513.964 964.694 514 964.827 514.007 964.933 513.901 964.94 513.76 964.96 513.413 964.986 512.785 965 512.438Z" fill="#3A5179" fill-rule="evenodd"/><path d="M964 513.283C964.006 513.197 963.934 513.127 963.843 513.122 963.326 513.099 961.716 513.023 961.199 513 961.109 512.995 961.036 513.064 961.03 513.151 961.024 513.312 961.012 513.555 961 513.717 960.994 513.803 961.066 513.873 961.157 513.878 961.674 513.901 963.284 513.977 963.801 514 963.891 514.005 963.964 513.936 963.97 513.849 963.976 513.688 963.994 513.439 964 513.283Z" fill="#262530" fill-rule="evenodd"/><path d="M963 513.607C963 513.508 962.993 513.41 962.98 513.328 962.966 513.246 962.945 513.213 962.925 513.197 962.737 513.148 962.273 513.049 962.085 513 962.065 513 962.044 513.033 962.027 513.098 962.01 513.164 962.003 513.262 962 513.361 962 513.377 962 513.377 962 513.393 962 513.492 962.007 513.59 962.02 513.672 962.034 513.754 962.055 513.787 962.075 513.803 962.263 513.852 962.727 513.951 962.915 514 962.935 514 962.956 513.967 962.973 513.902 962.99 513.836 962.997 513.738 963 513.639 963 513.623 963 513.607 963 513.607Z" fill="#FFFFFF" fill-rule="evenodd"/><path d="M1009 559.209C1009 559.209 1005.52 565.589 1005.31 566.834 1005.1 568.078 1004.79 569.588 1002.75 571.344 1000.7 573.1 996.027 574.781 994.753 573.612 994.119 573.031 998.021 570.397 998.021 570.397 998.021 570.397 998.066 569.588 996.263 569.632 995.236 569.657 990.74 570.232 990.387 570.043 990.034 569.847 989.688 568.331 990.485 567.036 991.283 565.741 997.596 564.08 998.903 563.467 1000.22 562.854 1001.43 557.497 1002.07 556L1009 559.209 1009 559.209Z" fill="#E6A397" fill-rule="evenodd"/><path d="M1007.49 562C1005.3 561.91 1002.54 561.561 1000 560.547 1000.64 558.803 1001.2 556.827 1001.57 556L1009 559.281C1009 559.281 1008.3 560.508 1007.49 562Z" fill="#D88A82" fill-rule="evenodd"/><path d="M990.819 568 985.782 569.174C985.164 569.315 984.838 569.911 985.081 570.433L985.081 570.433C985.268 570.833 985.748 571.06 986.227 570.986L992 570.095 990.819 568Z" fill="#E6A397" fill-rule="evenodd"/><path d="M991.563 566.108 986.949 566C986.383 565.985 985.939 566.6 986.007 567.308L986.007 567.308C986.062 567.846 986.401 568.269 986.832 568.323L992 569 991.563 566.108Z" fill="#E6A397" fill-rule="evenodd"/><path d="M993.563 565.108 988.949 565C988.383 564.985 987.939 565.6 988.007 566.308L988.007 566.308C988.062 566.846 988.401 567.269 988.832 567.323L994 568 993.563 565.108Z" fill="#E6A397" fill-rule="evenodd"/><path d="M996.49 565.072 991.107 565C990.446 564.99 989.929 565.4 990.008 565.872L990.008 565.872C990.073 566.231 990.468 566.513 990.971 566.549L997 567 996.49 565.072Z" fill="#E6A397" fill-rule="evenodd"/><path d="M1007.27 625.753C1007.27 625.753 1010.67 650.558 1002.78 649.99 996.444 649.534 995.558 642.634 996.157 635.812 996.698 629.618 998.437 623.403 1001.26 622L1007.27 625.753 1007.27 625.753Z" fill="#C85349" fill-rule="evenodd"/><path d="M996.014 638C995.841 644.062 997.213 649.585 1002.93 649.99 1006.08 650.216 1007.47 646.505 1008 641.897 1007.22 645.057 1005.75 648.603 1003.07 648.012 999.377 647.195 996.973 643.564 996.014 638L996.014 638Z" fill="#F5EAE9" fill-rule="evenodd"/><path d="M1012 622.49C1012 622.49 1006.7 628.849 1005.22 629.655 1003.73 630.462 999.707 630.325 1000.02 623.923L1004.56 616 1012 622.49 1012 622.49Z" fill="#E6A397" fill-rule="evenodd"/><path d="M1046.69 636.722C1046.69 636.722 1051.56 638.881 1055.67 640.448 1059.83 642.033 1062.24 645.527 1061.98 650L1033 647.789C1033 647.789 1034.74 638.475 1036.77 636L1046.69 636.722 1046.69 636.722Z" fill="#C85349" fill-rule="evenodd"/><path d="M1033.8 644C1033.3 646.097 1033 647.739 1033 647.739L1061.98 650C1062.04 649.011 1061.97 648.075 1061.79 647.191 1054.64 646.327 1040.5 644.745 1033.8 644Z" fill="#F5EAE9" fill-rule="evenodd"/><path d="M1048 626.05C1048 626.05 1047.55 636.611 1047.32 637.285 1047.09 637.958 1043.67 638.85 1036 636.287L1036.02 626 1048 626.05 1048 626.05Z" fill="#E6A397" fill-rule="evenodd"/><path d="M1053.12 532C1053.12 532 1060.71 540.97 1060.99 552.245 1061.27 563.52 1055.07 629.996 1055.07 629.996 1055.07 629.996 1041.7 630.177 1035.21 627.975L1014.96 625.495C1014.96 625.495 1003.82 624.223 1000 614.543 1000 614.543 1010.74 592.496 1011.62 585.457 1012.88 575.377 1015.21 545.645 1022.43 535.41L1053.12 532Z" fill="#5D6497" fill-rule="evenodd"/><path d="M1045.5 535.5C1045.5 535.5 1047.75 546.901 1045.5 559.5" stroke="#484E75" stroke-width="1.06698" stroke-linecap="round" stroke-linejoin="round" stroke-miterlimit="10" fill="none" fill-rule="evenodd"/><path d="M1041.5 536.5C1041.5 536.5 1041.95 551.077 1042.57 554.106 1043.19 557.135 1045.5 557.5 1045.5 557.5" stroke="#484E75" stroke-width="1.06698" stroke-linecap="round" stroke-linejoin="round" stroke-miterlimit="10" fill="none" fill-rule="evenodd"/><path d="M1029.5 534.5C1029.5 534.5 1026.8 543.962 1020.5 545.5" stroke="#484E75" stroke-width="1.06698" stroke-linecap="round" stroke-linejoin="round" stroke-miterlimit="10" fill="none" fill-rule="evenodd"/><path d="M1058.5 541.5C1058.5 541.5 1053.06 541.647 1050.5 533.5" stroke="#484E75" stroke-width="1.06698" stroke-linecap="round" stroke-linejoin="round" stroke-miterlimit="10" fill="none" fill-rule="evenodd"/><path d="M1066.07 490.582C1066.07 490.582 1065.04 483.055 1064.56 482.134 1064.07 481.212 1058.48 472.672 1058.02 470.967 1057.55 469.262 1064.94 463.27 1066.23 465.485 1067.51 467.7 1066.98 466.981 1066.98 466.981 1066.98 466.981 1068.95 466.361 1069.49 467.269 1070.03 468.177 1070.15 469.517 1070.15 469.517 1070.15 469.517 1072.01 469.628 1072.34 470.66 1072.66 471.692 1072.64 472.535 1072.64 472.535 1072.64 472.535 1073.6 472.293 1074.31 472.829 1075.01 473.371 1077.56 477.338 1076.89 477.926 1076.22 478.514 1073.37 475.887 1072.89 475.698 1072.43 475.515 1071.85 476.456 1071.38 476.756 1071.38 476.756 1072.44 480.33 1071.17 482.251L1074.09 491 1066.07 490.582 1066.07 490.582Z" fill="#E49B8C" fill-rule="evenodd"/><path d="M1072.92 473C1072.92 473 1073.33 477.684 1072.27 477.98 1071.25 478.268 1071 475.36 1071 475.36" fill="#E49B8C" fill-rule="evenodd"/><path d="M1072.91 473.269C1072.91 473.269 1073.15 475.344 1072.85 476.679 1072.77 477.068 1072.63 477.392 1072.45 477.619 1072.29 477.807 1072.1 477.93 1071.88 477.976 1071.25 478.105 1070.79 477.703 1070.49 477.113 1070.11 476.387 1070 475.415 1070 475.415 1069.98 475.246 1070.11 475.091 1070.28 475.071 1070.45 475.052 1070.6 475.175 1070.62 475.344 1070.62 475.344 1070.72 476.199 1071.05 476.835 1071.21 477.152 1071.42 477.438 1071.76 477.373 1071.86 477.347 1071.94 477.269 1072.01 477.159 1072.11 476.997 1072.18 476.789 1072.24 476.549 1072.52 475.292 1072.29 473.347 1072.29 473.347 1072.27 473.178 1072.39 473.023 1072.56 473.003 1072.73 472.978 1072.89 473.101 1072.91 473.269L1072.91 473.269Z" fill="#C25F5F" fill-rule="evenodd"/><path d="M1070.64 470C1070.64 470 1071.74 475.884 1070.08 475.996 1068.15 476.122 1068 473.005 1068 473.005" fill="#E49B8C" fill-rule="evenodd"/><path d="M1070.71 470.235C1070.71 470.235 1071.15 472.894 1070.94 474.529 1070.89 474.996 1070.77 475.385 1070.59 475.631 1070.44 475.852 1070.24 475.978 1069.99 475.996 1069.24 476.05 1068.74 475.565 1068.45 474.93 1068.05 474.091 1068 473.013 1068 473.013 1067.99 472.852 1068.11 472.72 1068.27 472.714 1068.43 472.708 1068.56 472.828 1068.57 472.989 1068.57 472.989 1068.61 473.942 1068.96 474.684 1069.16 475.104 1069.45 475.463 1069.95 475.427 1070.05 475.421 1070.12 475.331 1070.18 475.217 1070.28 475.026 1070.34 474.762 1070.37 474.463 1070.57 472.894 1070.14 470.336 1070.14 470.336 1070.11 470.181 1070.21 470.031 1070.37 470.007 1070.54 469.971 1070.68 470.079 1070.71 470.235Z" fill="#C25F5F" fill-rule="evenodd"/><path d="M1067.34 468C1067.34 468 1069.88 472.428 1068.67 472.9 1066.51 473.754 1064 468.871 1064 468.871" fill="#E49B8C" fill-rule="evenodd"/><path d="M1067.51 467.204C1067.51 467.204 1068.63 469.993 1068.92 471.874 1069.01 472.406 1069.02 472.875 1068.96 473.201 1068.89 473.513 1068.75 473.726 1068.54 473.84 1067.87 474.223 1067.14 473.889 1066.47 473.151 1065.13 471.668 1064.02 468.573 1064.02 468.573 1063.96 468.396 1064.03 468.197 1064.18 468.126 1064.34 468.055 1064.51 468.141 1064.58 468.311 1064.58 468.311 1065.62 471.256 1066.89 472.662 1067.34 473.165 1067.81 473.485 1068.28 473.222 1068.36 473.18 1068.37 473.059 1068.39 472.917 1068.41 472.669 1068.39 472.342 1068.33 471.987 1068.05 470.17 1066.96 467.48 1066.96 467.48 1066.89 467.31 1066.96 467.104 1067.11 467.026 1067.27 466.955 1067.44 467.033 1067.51 467.204Z" fill="#C25F5F" fill-rule="evenodd"/><path d="M1048.1 493.664C1053.29 493.967 1065.17 498.615 1066.58 499.541L1065.04 485C1065.04 485 1069.63 486.657 1076.24 488.28 1076.24 488.28 1080.51 505.064 1079.95 509.941 1079.38 514.859 1076.98 516.081 1074.11 515.996 1071.24 515.91 1056.51 514.674 1056.51 514.674 1049.05 511.203 1047.55 503.203 1048.1 493.664L1048.1 493.664Z" fill="#F0C361" fill-rule="evenodd"/><path d="M1078.5 492.5C1078.5 492.5 1069.53 490.964 1063.5 487.5" stroke="#D49461" stroke-width="1.06698" stroke-linecap="round" stroke-linejoin="round" stroke-miterlimit="10" fill="none" fill-rule="evenodd"/><path d="M1080.5 498.5C1080.5 498.5 1069.62 496.242 1064.5 492.5" stroke="#D49461" stroke-width="1.06698" stroke-linecap="round" stroke-linejoin="round" stroke-miterlimit="10" fill="none" fill-rule="evenodd"/><path d="M1081.5 503.5C1081.5 503.5 1071.83 502.348 1065.5 497.5" stroke="#D49461" stroke-width="1.06698" stroke-linecap="round" stroke-linejoin="round" stroke-miterlimit="10" fill="none" fill-rule="evenodd"/><path d="M1079.5 514.5C1079.5 514.5 1068.61 505.877 1066.5 499.5" stroke="#D49461" stroke-width="1.06698" stroke-linecap="round" stroke-linejoin="round" stroke-miterlimit="10" fill="none" fill-rule="evenodd"/><path d="M1064.5 497.5C1064.5 497.5 1066.56 513.087 1072.5 517.5" stroke="#D49461" stroke-width="1.06698" stroke-linecap="round" stroke-linejoin="round" stroke-miterlimit="10" fill="none" fill-rule="evenodd"/><path d="M1060.5 495.5C1060.5 495.5 1061.13 510.895 1066.5 518.5" stroke="#D49461" stroke-width="1.06698" stroke-linecap="round" stroke-linejoin="round" stroke-miterlimit="10" fill="none" fill-rule="evenodd"/><path d="M1056.5 493.5C1056.5 493.5 1056.38 509.53 1059.5 517.5" stroke="#D49461" stroke-width="1.06698" stroke-linecap="round" stroke-linejoin="round" stroke-miterlimit="10" fill="none" fill-rule="evenodd"/><path d="M1053.74 493.5C1053.74 493.5 1052.85 509.159 1054.5 517.5" stroke="#D49461" stroke-width="1.06698" stroke-linecap="round" stroke-linejoin="round" stroke-miterlimit="10" fill="none" fill-rule="evenodd"/><path d="M1051.5 492.5C1051.5 492.5 1047.27 503.535 1048.86 511.5" stroke="#D49461" stroke-width="1.06698" stroke-linecap="round" stroke-linejoin="round" stroke-miterlimit="10" fill="none" fill-rule="evenodd"/><path d="M1055.99 514.615C1056.03 519.6 1056.01 533.587 1054.54 534.949 1050.07 539.112 1025.23 538.373 1022.49 536.51 1021.59 535.893 1020.67 533.889 1020.61 532.218L1019 494.833C1028.28 492.186 1032.91 492 1032.91 492 1032.91 492 1042.9 493.812 1047.61 494.082 1052.17 497.917 1055.95 507.708 1055.99 514.615L1055.99 514.615Z" fill="#A7A332" fill-rule="evenodd"/><path d="M1020.42 531.92C1019.31 535.445 1008.97 560 1008.97 560 1008.97 560 1001.79 558.97 999 554.676 999 554.676 1004.46 524.465 1005.94 517.18 1007.42 509.894 1008.83 496.926 1018.83 494 1018.83 494 1027.04 510.793 1020.42 531.92L1020.42 531.92Z" fill="#F0C361" fill-rule="evenodd"/><path d="M1024.5 502.5C1023.96 502.5 1014.11 499.825 1009.5 496.5" stroke="#D49461" stroke-width="1.06698" stroke-linecap="round" stroke-linejoin="round" stroke-miterlimit="10" fill="none" fill-rule="evenodd"/><path d="M1025.5 508.5C1025.5 508.5 1014.62 506.619 1009.5 503.5" stroke="#D49461" stroke-width="1.06698" stroke-linecap="round" stroke-linejoin="round" stroke-miterlimit="10" fill="none" fill-rule="evenodd"/><path d="M1025.5 514.5C1025.5 514.5 1013.48 511.925 1007.5 506.5" stroke="#D49461" stroke-width="1.06698" stroke-linecap="round" stroke-linejoin="round" stroke-miterlimit="10" fill="none" fill-rule="evenodd"/><path d="M1025.5 518.5C1025.5 518.5 1013.49 517.242 1006.5 511.5" stroke="#D49461" stroke-width="1.06698" stroke-linecap="round" stroke-linejoin="round" stroke-miterlimit="10" fill="none" fill-rule="evenodd"/><path d="M1024.5 524.5C1024.5 524.5 1010.73 521.474 1004.5 515.5" stroke="#D49461" stroke-width="1.06698" stroke-linecap="round" stroke-linejoin="round" stroke-miterlimit="10" fill="none" fill-rule="evenodd"/><path d="M1022.5 531.5C1022.5 531.5 1006.39 525.144 1003.5 520.5" stroke="#D49461" stroke-width="1.06698" stroke-linecap="round" stroke-linejoin="round" stroke-miterlimit="10" fill="none" fill-rule="evenodd"/><path d="M1020.5 537.5C1020.5 537.5 1006.9 532.062 1002.5 527.5" stroke="#D49461" stroke-width="1.06698" stroke-linecap="round" stroke-linejoin="round" stroke-miterlimit="10" fill="none" fill-rule="evenodd"/><path d="M1018.5 544.5C1018.5 544.5 1004.37 537.962 1000.5 532.5" stroke="#D49461" stroke-width="1.06698" stroke-linecap="round" stroke-linejoin="round" stroke-miterlimit="10" fill="none" fill-rule="evenodd"/><path d="M1017.5 550.499C1017.48 550.591 1002.4 542.709 998.5 537.5" stroke="#D49461" stroke-width="1.06698" stroke-linecap="round" stroke-linejoin="round" stroke-miterlimit="10" fill="none" fill-rule="evenodd"/><path d="M1016.5 556.5C1016.5 556.5 1001.49 548.497 997.5 543.5" stroke="#D49461" stroke-width="1.06698" stroke-linecap="round" stroke-linejoin="round" stroke-miterlimit="10" fill="none" fill-rule="evenodd"/><path d="M1013.5 560.5C1013.5 560.5 1001.13 555.107 996.5 547.5" stroke="#D49461" stroke-width="1.06698" stroke-linecap="round" stroke-linejoin="round" stroke-miterlimit="10" fill="none" fill-rule="evenodd"/><path d="M1036.38 484.826C1036.38 484.826 1063.19 476.077 1067.41 458.568 1071.62 441.058 1052.23 436.593 1044.89 437.028 1034.98 437.612 1029.58 440.312 1022.64 446.536 1018.24 450.475 1016.46 456.686 1011.02 460.846 1006.36 464.402 994.67 469.847 996.124 476.415 997.494 482.613 1003.21 488.096 1021.55 486.812L1036.38 484.826Z" fill="#B78054" fill-rule="evenodd"/><path d="M1067.27 459C1067.32 458.832 1067.37 458.664 1067.41 458.489 1071.63 441.044 1052.17 436.595 1044.79 437.028 1039.09 437.364 1034.88 438.393 1031 440.378 1036.11 438.761 1041.62 438.024 1046.84 438.897 1054.65 440.203 1062.85 444.219 1065.68 451.939 1066.5 454.163 1066.99 456.595 1067.27 459Z" fill="#C09963" fill-rule="evenodd"/><path d="M1028.88 462.183C1019.26 464.414 1012.18 469.053 1013.08 472.542 1013.97 476.03 1022.51 477.049 1032.12 474.817 1041.74 472.586 1048.82 467.947 1047.92 464.458 1047.02 460.97 1038.49 459.951 1028.88 462.183Z" fill="#9B643D" fill-rule="evenodd"/><path d="M1039.27 460C1039.27 460 1045 461.507 1046.99 468.355 1048.98 475.21 1049.3 480.059 1048.68 482.328 1048.06 484.591 1045.38 487.361 1048.77 491.085 1052.15 494.808 1052.02 497.446 1050.7 501.328 1049.38 505.209 1048.36 507.571 1052 509.709 1052 509.709 1043.14 511.874 1041.35 504.394 1039.55 496.914 1042.46 495.703 1039.28 493.19 1033.01 488.256 1037.65 485.486 1037.75 481.749 1037.84 478.019 1039.27 460 1039.27 460L1039.27 460Z" fill="#5B4127" fill-rule="evenodd"/><path d="M1037.41 487.187C1037.41 487.187 1036.87 493.621 1039.8 493.774 1039.8 493.774 1041.18 500.837 1036.62 500.996 1031.38 501.182 1026 494.185 1026 494.185 1026 494.185 1029.45 493.833 1026.52 484L1037.41 487.187Z" fill="#E6A397" fill-rule="evenodd"/><path d="M1038 491.807C1037.29 489.914 1037.53 487.092 1037.53 487.092L1027 484C1027.62 486.066 1027.94 487.701 1028.07 488.991 1030.69 490.864 1034.28 492.589 1038 491.807L1038 491.807Z" fill="#D88A82" fill-rule="evenodd"/><path d="M1029.95 459.772C1023.13 461.37 1019.48 469.191 1021.6 476.852 1024.1 485.887 1031.13 488.449 1037.32 487.938 1041.22 487.612 1046.91 483.651 1044.37 471.325 1041.57 457.83 1036.76 458.175 1029.95 459.772Z" fill="#E6A397" fill-rule="evenodd"/><path d="M1043 465.207C1040.59 459.146 1037.23 458.512 1032.95 459.242L1027.34 461.043C1024.62 462.721 1022.77 465.611 1022 469 1031.38 463.842 1039.25 464.438 1043 465.207L1043 465.207Z" fill="#D88A82" fill-rule="evenodd"/><path d="M1024.75 462.002C1024.75 462.002 1022.83 469.791 1024.78 477.864 1026.73 485.937 1029.6 488.599 1028.89 492.161 1028.17 495.722 1025.32 496.886 1027.18 502.341 1029.18 508.197 1026.12 513.102 1020.08 511.784 1020.08 511.784 1023.13 509.58 1020.15 504.816 1017.16 500.053 1017.3 498.741 1018.14 494.068 1018.97 489.394 1019.84 490.913 1018.1 485.697 1016.35 480.488 1014.97 476.325 1017.03 468.996 1019.1 461.666 1024.75 462.002 1024.75 462.002Z" fill="#5B4127" fill-rule="evenodd"/><path d="M1052 465.807C1042.55 460.089 1018.8 462.443 1011 477L1012.8 463.074 1036.04 451 1049.21 456.815 1052 465.807Z" fill="#B78054" fill-rule="evenodd"/><path d="M1047.9 521.591C1045.63 511.564 1042.34 501.673 1038.04 491.704 1037.93 491.438 1038.07 491.14 1038.35 491.036 1038.64 490.932 1038.96 491.062 1039.07 491.321 1043.4 501.342 1046.71 511.291 1048.99 521.377 1049.05 521.656 1048.85 521.928 1048.55 521.987 1048.26 522.052 1047.96 521.87 1047.9 521.591Z" fill="#F0C361" fill-rule="evenodd"/><path d="M1032.02 521.597C1030.03 512.371 1028.44 502.592 1027 492.583 1026.97 492.307 1027.15 492.043 1027.42 492.005 1027.69 491.966 1027.95 492.159 1027.99 492.435 1029.41 502.419 1031.01 512.178 1032.99 521.379 1033.05 521.655 1032.87 521.925 1032.61 521.989 1032.34 522.047 1032.08 521.873 1032.02 521.597L1032.02 521.597Z" fill="#F0C361" fill-rule="evenodd"/><path d="M1030 523.295C1029.97 522.607 1030.21 521.938 1030.68 521.432 1031.15 520.925 1031.81 520.62 1032.51 520.587 1035.85 520.432 1041.56 520.165 1044.89 520.003 1045.59 519.97 1046.27 520.211 1046.79 520.672 1047.3 521.133 1047.61 521.776 1047.65 522.464 1047.75 524.588 1047.9 527.581 1048 529.705 1048.03 530.393 1047.79 531.062 1047.32 531.568 1046.85 532.075 1046.19 532.38 1045.49 532.413 1042.15 532.568 1036.44 532.835 1033.11 532.997 1032.41 533.03 1031.73 532.789 1031.21 532.328 1030.7 531.867 1030.39 531.218 1030.35 530.536 1030.25 528.412 1030.11 525.419 1030 523.295Z" fill="#4A6AA0" fill-rule="evenodd"/><path d="M1032 523.295C1031.97 522.607 1032.21 521.938 1032.68 521.432 1033.15 520.925 1033.81 520.62 1034.51 520.587 1037.85 520.432 1043.56 520.165 1046.89 520.003 1047.59 519.97 1048.27 520.211 1048.79 520.672 1049.3 521.133 1049.61 521.776 1049.65 522.464 1049.75 524.588 1049.9 527.581 1050 529.705 1050.03 530.393 1049.79 531.062 1049.32 531.568 1048.85 532.075 1048.19 532.38 1047.49 532.413 1044.15 532.568 1038.44 532.835 1035.11 532.997 1034.41 533.03 1033.73 532.789 1033.21 532.328 1032.7 531.867 1032.39 531.218 1032.35 530.536 1032.25 528.412 1032.11 525.425 1032 523.295L1032 523.295Z" fill="#567BBB" fill-rule="evenodd"/><path d="M1044.03 527.921C1044.67 527.264 1045.04 526.359 1045 525.382 1044.95 524.406 1044.49 523.537 1043.79 522.947L1043.74 522 1040.98 522.133 1040.98 522.151C1039.22 522.41 1037.92 523.935 1038 525.714 1038.09 527.493 1039.54 528.891 1041.31 528.982L1041.31 529 1044.07 528.867 1044.03 527.921 1044.03 527.921Z" fill="#466395" fill-rule="evenodd"/><path d="M1044.33 522.004C1042.41 522.096 1040.91 523.74 1041 525.666 1041.1 527.591 1042.74 529.088 1044.67 528.996 1046.6 528.904 1048.09 527.26 1048 525.334 1047.9 523.402 1046.27 521.912 1044.33 522.004Z" fill="#7797CB" fill-rule="evenodd"/><path d="M1043.86 523.003C1042.2 523.069 1040.92 524.245 1041 525.619 1041.08 526.999 1042.49 528.064 1044.14 527.997 1045.8 527.931 1047.08 526.755 1047 525.381 1046.92 524.001 1045.51 522.936 1043.86 523.003Z" fill="#494E75" fill-rule="evenodd"/><path d="M1045.48 524.001C1045.2 524.014 1044.99 524.249 1045 524.525 1045.01 524.802 1045.25 525.013 1045.52 524.999 1045.8 524.986 1046.01 524.751 1046 524.475 1045.99 524.199 1045.75 523.987 1045.48 524.001L1045.48 524.001Z" fill="#FFFFFF" fill-rule="evenodd"/><path d="M1034 521.437C1033.99 521.298 1034.1 521.182 1034.23 521.175 1034.93 521.138 1036.99 521.037 1037.69 521 1037.82 520.993 1037.93 521.102 1037.94 521.24 1037.95 521.589 1037.98 522.214 1038 522.563 1038.01 522.702 1037.9 522.818 1037.77 522.825 1037.07 522.862 1035.01 522.963 1034.31 523 1034.18 523.007 1034.07 522.898 1034.06 522.76 1034.04 522.418 1034.01 521.786 1034 521.437Z" fill="#3A5179" fill-rule="evenodd"/><path d="M1034 522.286C1033.99 522.203 1034.08 522.125 1034.21 522.125 1034.9 522.102 1037.05 522.03 1037.74 522 1037.85 521.994 1037.96 522.06 1037.96 522.149 1037.97 522.31 1037.98 522.554 1038 522.714 1038.01 522.797 1037.92 522.875 1037.79 522.875 1037.1 522.899 1034.95 522.976 1034.26 523 1034.15 523.006 1034.04 522.94 1034.04 522.851 1034.03 522.69 1034.01 522.447 1034 522.286Z" fill="#262530" fill-rule="evenodd"/><path d="M1035 522.61C1035 522.508 1035.01 522.407 1035.04 522.322 1035.07 522.237 1035.11 522.203 1035.15 522.187 1035.52 522.136 1036.45 522.034 1036.83 522 1036.87 522 1036.92 522.034 1036.95 522.102 1036.98 522.17 1037 522.271 1037 522.373 1037 522.39 1037 522.39 1037 522.407 1037 522.508 1036.99 522.61 1036.96 522.695 1036.93 522.78 1036.89 522.814 1036.85 522.814 1036.47 522.865 1035.55 522.966 1035.17 523 1035.13 523 1035.08 522.966 1035.05 522.898 1035.01 522.831 1035 522.729 1035 522.627 1035 522.627 1035 522.61 1035 522.61Z" fill="#FFFFFF" fill-rule="evenodd"/><path d="M1031 468.033 1030.84 467.047C1030.84 467.047 1027.86 466.52 1027 469 1028.17 468.188 1029.82 467.869 1031 468.033Z" fill="#5B4127" fill-rule="evenodd"/><path d="M1039 468.447 1039.35 467.086C1039.35 467.086 1042.77 466.382 1044 469 1042.5 468.209 1040.59 467.813 1039 468.447Z" fill="#5B4127" fill-rule="evenodd"/><path d="M1038 480.723C1036.01 480.471 1034.04 479.909 1032.09 479 1032.09 479 1031.32 483.229 1034.28 483.917 1037.23 484.612 1038 480.723 1038 480.723L1038 480.723Z" fill="#FFFFFF" fill-rule="evenodd"/><path d="M1041 473C1040.45 473 1040 473.223 1040 473.5 1040 473.777 1040.45 474 1041 474 1041.55 474 1042 473.777 1042 473.5 1042 473.223 1041.55 473 1041 473Z" fill="#5B4127" fill-rule="evenodd"/><path d="M1031 474C1031 474.552 1030.55 475 1030 475 1029.45 475 1029 474.552 1029 474 1029 473.448 1029.45 473 1030 473 1030.55 473 1031 473.448 1031 474Z" fill="#5B4127" fill-rule="evenodd"/><path d="M1036.71 474.5C1037.57 475.793 1038.02 477.109 1036.5 478.5" stroke="#B54A4A" stroke-width="1.06698" stroke-linecap="round" stroke-linejoin="round" stroke-miterlimit="10" fill="none" fill-rule="evenodd"/><path d="M1060.69 475.5C1060.69 475.5 1057.42 466.989 1058.09 466.309 1059.75 464.592 1062.77 470.476 1063.99 472.859 1063.99 472.859 1067.67 474.299 1068 479" fill="#E49B8C" fill-rule="evenodd"/><path d="M1058.65 466.788C1058.64 466.813 1058.63 466.914 1058.63 466.995 1058.64 467.178 1058.67 467.423 1058.72 467.706 1059.18 470.097 1061.13 475.256 1061.13 475.256 1061.19 475.413 1061.11 475.589 1060.95 475.646 1060.78 475.703 1060.6 475.621 1060.54 475.464 1060.54 475.464 1058.57 470.242 1058.1 467.82 1058.01 467.354 1057.98 466.989 1058.01 466.756 1058.04 466.587 1058.1 466.467 1058.17 466.398 1058.76 465.781 1059.5 465.913 1060.27 466.574 1061.7 467.801 1063.33 470.965 1064.16 472.62 1064.77 472.903 1067.71 474.482 1068 478.678 1068.01 478.848 1067.88 478.993 1067.71 478.999 1067.54 479.012 1067.39 478.886 1067.38 478.716 1067.08 474.444 1063.81 473.129 1063.81 473.129 1063.74 473.104 1063.68 473.048 1063.64 472.985 1062.86 471.418 1061.27 468.241 1059.86 467.033 1059.41 466.637 1059 466.448 1058.65 466.788Z" fill="#C25F5F" fill-rule="evenodd"/><path d="M849.91 367.979C862.91 370.113 871.718 382.382 869.584 395.382 867.45 408.382 855.181 417.19 842.181 415.056 829.181 412.922 820.372 400.653 822.507 387.653 824.641 374.653 836.909 365.845 849.91 367.979Z" fill="#FAEFA3" fill-rule="evenodd"/><path d="M868 391.5C868 403.926 858.15 414 846 414 833.85 414 824 403.926 824 391.5 824 379.074 833.85 369 846 369 858.15 369 868 379.074 868 391.5Z" fill="#F4D770" fill-rule="evenodd"/><path d="M864 416 779 416C779.325 407.735 786.068 401.141 794.345 401.141L794.351 401.141C797.752 393.401 805.424 388 814.358 388 825.092 388 834.019 395.8 835.873 406.083 836.256 406.037 836.653 406.011 837.049 406.011 840.508 406.011 843.584 407.702 845.502 410.304 846.159 410.14 846.848 410.049 847.55 410.049 850.053 410.049 852.303 411.137 853.864 412.867 854.904 412.317 856.094 412.008 857.349 412.008 860.222 412.008 862.719 413.621 864 416Z" fill="#FFFFFF" fill-rule="evenodd"/><path d="M1219 467 1153 465.485C1153.4 458.967 1158.74 453.878 1165.17 454.024L1165.17 454.024C1167.95 447.978 1174 443.845 1180.94 444.004 1189.28 444.197 1196.07 450.516 1197.33 458.668 1197.63 458.642 1197.94 458.628 1198.25 458.635 1200.94 458.695 1203.29 460.083 1204.74 462.176 1205.25 462.057 1205.79 462.004 1206.33 462.01 1208.28 462.057 1210 462.954 1211.19 464.349 1212.01 463.937 1212.93 463.711 1213.91 463.731 1216.14 463.778 1218.05 465.1 1219 467Z" fill="#FFFFFF" fill-rule="evenodd"/></g></svg>