<svg viewBox="0 0 96 96" xmlns="http://www.w3.org/2000/svg" xmlns:xlink="http://www.w3.org/1999/xlink" id="Icons_SpeakerPhone" overflow="hidden"><path d="M37 40.08C37.5384 39.5214 37.8395 38.7759 37.84 38 37.8433 37.2117 37.5298 36.455 36.97 35.9L27.49 26.41C26.9304 25.8497 26.1719 25.5333 25.38 25.53 24.5916 25.536 23.8372 25.8521 23.28 26.41L22.23 27.47 35.91 41.12Z" fill="#0B4582"/><path d="M50.75 64.36C50.1767 64.9427 49.2397 64.9503 48.657 64.377 48.6513 64.3714 48.6456 64.3657 48.64 64.36L31.64 47.36C31.0551 46.7744 31.0551 45.8256 31.64 45.24L33.76 43.18 20.13 29.56C19.25 30.44 18.39 31.3 17.83 31.83 16.4585 33.1117 15.6376 34.8754 15.54 36.75 15.4163 39.8077 15.9624 42.8555 17.14 45.68 18.2684 48.211 19.6522 50.6201 21.27 52.87 26.8963 61.3112 34.0123 68.6576 42.27 74.55 43.6487 75.5698 45.0991 76.4888 46.61 77.3 50.0246 79.0946 53.7656 80.1829 57.61 80.5 60.2395 80.6913 62.8139 79.6799 64.61 77.75L66.49 75.87 52.81 62.24Z" fill="#0B4582"/><path d="M69.63 68.51 60.15 59C58.9811 57.8434 57.0989 57.8434 55.93 59L54.93 60.08 68.57 73.78 69.63 72.78C70.7866 71.6111 70.7866 69.7289 69.63 68.56Z" fill="#0B4582"/><path d="M62.14 50 58.14 50C57.7064 44.2632 53.6018 39.4706 48 38.16L48 34.08C55.8263 35.4807 61.6727 42.063 62.14 50Z" fill="#0B4582"/><path d="M71.7 48C71.7 48.67 71.7 49.34 71.61 50L67.61 50C67.6787 49.3356 67.7121 48.668 67.71 48 67.6935 37.1229 58.8771 28.311 48 28.3L48 24.3C61.0846 24.311 71.689 34.9154 71.7 48Z" fill="#0B4582"/><path d="M82 48C82 48.67 82 49.34 81.93 50L77.93 50C77.93 49.34 78.01 48.67 78.01 48 78.01 31.9837 65.0263 19 49.01 19 49.0067 19 49.0033 19 49 19 48.66 19 48.33 19 48 19L48 15 49 15C67.2254 15 82 29.7746 82 48Z" fill="#0B4582"/></svg>