<?xml version="1.0" encoding="utf-8"?>
<!-- Generator: Adobe Illustrator 25.0.0, SVG Export Plug-In . SVG Version: 6.00 Build 0)  -->
<svg version="1.1" xmlns="http://www.w3.org/2000/svg" xmlns:xlink="http://www.w3.org/1999/xlink" x="0px" y="0px"
	 viewBox="0 0 750 500" style="enable-background:new 0 0 750 500;" xml:space="preserve">
<style type="text/css">
	.st0{fill:#FFFFFF;}
	.st1{clip-path:url(#SVGID_2_);}
	.st2{fill:#D9E8FF;}
	.st3{opacity:0.55;fill:#D9E8FF;}
	.st4{fill:#ACC9F9;}
	.st5{fill:#95BAEF;}
	.st6{fill:#92A7F4;}
	.st7{fill:#E2F0FB;}
	.st8{font-family:'Montserrat-ExtraBold';}
	.st9{font-size:51.8993px;}
	.st10{fill:#DEEBFF;}
	.st11{fill:none;stroke:#A0D0D8;stroke-width:1.1513;stroke-miterlimit:10;}
	.st12{fill:none;stroke:#9999EF;stroke-width:0.5176;stroke-miterlimit:10;}
	.st13{opacity:0.2412;fill:url(#SVGID_3_);}
	.st14{opacity:0.2412;fill:url(#SVGID_4_);}
	.st15{fill:none;stroke:#9999EF;stroke-width:0.7178;stroke-miterlimit:10;}
	.st16{fill:none;stroke:#FFFFFF;stroke-width:0.5605;stroke-miterlimit:10;}
	.st17{fill:#9999EF;stroke:#9999EF;stroke-miterlimit:10;}
	.st18{fill:#9999EF;}
	.st19{fill:none;stroke:#FFFFFF;stroke-width:1.7376;stroke-linecap:round;stroke-linejoin:round;stroke-miterlimit:10;}
	.st20{opacity:0.3;fill:#9999EF;}
	.st21{opacity:0.2;fill:#9999EF;}
	.st22{opacity:0.43;}
	.st23{opacity:0.3;}
	.st24{opacity:0.7;}
	.st25{fill:#B8E2FF;}
	.st26{fill:#BDD5FF;}
	.st27{fill:#8ABAFF;}
	.st28{opacity:0.5;}
	.st29{opacity:0.2;clip-path:url(#SVGID_6_);fill:#5275A0;}
	.st30{fill:#BDD0FF;}
	.st31{fill:#222B70;}
	.st32{fill:#4460EA;}
	.st33{fill:#7C98E5;}
	.st34{fill:#3B2E7A;}
	.st35{fill:#F2A181;}
	.st36{fill:#FFBE9D;}
	.st37{fill:#2B50D8;}
	.st38{fill:#CECAFF;}
	.st39{fill:#A3BCEF;}
	.st40{fill:#E8F6F7;}
	.st41{fill:#D0E0E2;}
	.st42{fill:#153351;}
	.st43{fill:#1F3A71;}
	.st44{fill:#285FAF;}
	.st45{opacity:0.35;}
	.st46{fill:#5275A0;}
	.st47{fill:#AABDE2;}
	.st48{fill:#E1E8F9;}
</style>
<g id="BACKGROUND">
	<rect class="st0" width="750" height="500"/>
</g>
<g id="OBJECTS">
	<g>
		<defs>
			<rect id="SVGID_1_" width="750" height="500"/>
		</defs>
		<clipPath id="SVGID_2_">
			<use xlink:href="#SVGID_1_"  style="overflow:visible;"/>
		</clipPath>
		<g class="st1">
			<path class="st2" d="M515.53-91.87C415.25-68.79,384.22,15.69,374.38,56.5c-7.62,31.61-25.67,61.17-53.15,80.78
				c-32.11,22.91-73.98,27.92-110.74,39.8c-32.69,10.57-68.82,29-80.83,63.55c-8.38,24.13-9.79,74.3-48.17,97.12
				c-12.92,7.68-35.99,14.94-40.61,31.6c-4.87,17.53,2.31,33.14,25.97,40.5c22.12,6.88,55.38-3.17,99.43,0
				c37.13,2.67,40.61,38.75,67.22,57.53c32.56,22.99,78,6.09,114.7,16.6c26.6,7.61,50.22,23.1,77.24,28.97
				c39.18,8.51,80.13,5.78,119.31-1.23c46.96-8.39,200.14,62.7,239.81-15.64c27.65-29.15,30.23-487.35-69.64-581.75
				c-28.85-27.27-128.01-50.74-166-39.21"/>
		</g>
	</g>
	<path class="st3" d="M540.05,411.88c0,4.25-68.61,7.7-153.23,7.7c-84.63,0-153.23-3.45-153.23-7.7c0-4.25,68.61-7.7,153.23-7.7
		C471.45,404.18,540.05,407.63,540.05,411.88z"/>
	<ellipse class="st3" cx="188.82" cy="366.59" rx="83.57" ry="7.7"/>
	<g>
		<path class="st4" d="M164.89,362.71c0,0-48.76,0-60.58,0c-11.82,0-9.9-14.02,22.98-7.78c-8.07-3.69-8.12-8.63-7.43-9.94
			c0.63-1.21,2.93-1.99,4.29-1.87c4.18,0.36,7.36,2.92,11.02,4.97c-6.63-4.31-10.75-12.23-10.48-20.13c0.07-2.17,0.54-4.5,2.14-5.98
			c1.8-1.66,4.73-2.76,7.13-2.29c4.44,0.88,12.6,8.29,15.85,11.44c-16.57-15.24-22.88-39.26-12.27-44.74
			c17.86-9.22,31.35,43.02,31.35,43.02s-8.88-39.26,6.02-39.49c14.9-0.23,2.79,45.61,2.79,45.61"/>
	</g>
	<path class="st0" d="M159.54,334.42c1.95,0,3.82,0.33,5.57,0.92c0.42-14.55,12.34-26.23,27-26.23c14.92,0,27.02,12.1,27.02,27.02
		c0,0.68-0.03,1.36-0.08,2.03c2.61-4.4,7.39-7.36,12.87-7.36c8.27,0,14.97,6.7,14.97,14.97c0,1.17-0.15,2.31-0.4,3.4
		c1.54-0.86,3.32-1.35,5.21-1.35c5.93,0,10.73,4.81,10.73,10.73c0,5.93-4.8,10.73-10.73,10.73c-5.93,0-84.61,0-92.16,0
		c-9.63,0-17.44-7.81-17.44-17.44C142.1,342.22,149.91,334.42,159.54,334.42z"/>
	<g>
		<g>
			<path class="st5" d="M557.19,374.18c5.24,0,9.49,4.25,9.49,9.49V157.06v0c0-5.24-4.25-9.49-9.49-9.49H278.17v226.61H557.19z"/>
			<path class="st4" d="M557.18,164.78c5.23,0,9.47-4.25,9.47-9.49v226.61v0c0,5.24-4.24,9.49-9.47,9.49H253.01V164.78H557.18z"/>
			<path class="st4" d="M253.84,390.56c-5.24,0-9.49,4.25-9.49,9.49V173.43v0c0-5.24,4.25-9.49,9.49-9.49h304.5v226.61H253.84z"/>
			<path class="st0" d="M253.84,183.82c-5.24,0-9.49-4.25-9.49-9.49v225.89l0,0c0,5.24,4.25,9.49,9.49,9.49h295.56V183.82H253.84z"
				/>
			<path class="st6" d="M254.29,166.18h304.05v-2.23H254.29c-5.49,0-9.94,4.45-9.94,9.94c0,5.49,4.45,9.94,9.94,9.94h295.11v-2.23
				H254.29c-4.25,0-7.7-3.46-7.7-7.7C246.59,169.63,250.04,166.18,254.29,166.18z"/>
			<path class="st6" d="M556.75,148.57H278.32v-2.23h278.42c5.49,0,9.94,4.45,9.94,9.94c0,5.49-4.45,9.94-9.94,9.94H261.63v-2.23
				h295.11c4.25,0,7.7-3.46,7.7-7.7C564.45,152.02,560.99,148.57,556.75,148.57z"/>
			<g>
				<g>
					<rect x="263.74" y="251.3" class="st7" width="149.69" height="4.47"/>
				</g>
				<g>
					<rect x="263.74" y="259.71" class="st7" width="149.69" height="4.47"/>
				</g>
				<g>
					<rect x="263.74" y="268.11" class="st7" width="149.69" height="4.47"/>
				</g>
				<g>
					<rect x="263.74" y="276.52" class="st7" width="149.69" height="4.47"/>
				</g>
				<g>
					<rect x="263.74" y="284.93" class="st7" width="149.69" height="4.47"/>
				</g>
				<g>
					<rect x="263.74" y="293.34" class="st7" width="149.69" height="4.47"/>
				</g>
				<g>
					<rect x="263.74" y="301.75" class="st7" width="149.69" height="4.47"/>
				</g>
				<g>
					<rect x="263.74" y="310.16" class="st7" width="149.69" height="4.47"/>
				</g>
			</g>
			<g>
				<g>
					<rect x="263.74" y="328.07" class="st7" width="149.69" height="4.47"/>
				</g>
				<g>
					<rect x="263.74" y="336.48" class="st7" width="149.69" height="4.47"/>
				</g>
				<g>
					<rect x="263.74" y="344.89" class="st7" width="149.69" height="45.05"/>
				</g>
				<g>
					<rect x="263.74" y="395.34" class="st7" width="149.69" height="4.47"/>
				</g>
			</g>
			<g>
				<g>
					<rect x="427.8" y="328.07" class="st7" width="99.36" height="4.47"/>
				</g>
				<g>
					<rect x="427.8" y="336.48" class="st7" width="99.36" height="4.47"/>
				</g>
				<g>
					<rect x="427.8" y="311.59" class="st7" width="99.36" height="4.47"/>
				</g>
				<g>
					<rect x="427.8" y="303.29" class="st7" width="99.36" height="4.47"/>
				</g>
				<g>
					<rect x="427.8" y="344.89" class="st7" width="99.36" height="4.47"/>
				</g>
				<g>
					<rect x="427.8" y="353.3" class="st7" width="99.36" height="4.47"/>
				</g>
				<g>
					<rect x="427.8" y="361.71" class="st7" width="99.36" height="4.47"/>
				</g>
				<g>
					<rect x="427.8" y="370.12" class="st7" width="99.36" height="4.47"/>
				</g>
				<g>
					<rect x="427.8" y="378.52" class="st7" width="99.36" height="4.47"/>
				</g>
				<g>
					<rect x="427.8" y="386.93" class="st7" width="99.36" height="4.47"/>
				</g>
				<g>
					<rect x="427.8" y="395.34" class="st7" width="99.36" height="4.47"/>
				</g>
			</g>
			<text transform="matrix(1 0 0 1 261.4951 235.3164)" class="st6 st8 st9">NEWS</text>
			<g>
				<rect x="427.8" y="251.3" class="st7" width="99.36" height="48.25"/>
			</g>
			<g>
				<rect x="446.31" y="194.88" class="st10" width="80.85" height="44.74"/>
			</g>
			<g>
				<line class="st11" x1="263.74" y1="244.39" x2="527.16" y2="244.39"/>
			</g>
			<g>
				<g>
					<path class="st0" d="M471.37,217.63c0-9.41,7.66-17.06,17.07-17.06c9.41,0,17.06,7.66,17.06,17.06
						c0,9.41-7.65,17.06-17.06,17.06C479.03,234.7,471.37,227.04,471.37,217.63z M473.11,217.63c0,8.45,6.88,15.33,15.33,15.33
						c8.45,0,15.33-6.88,15.33-15.33s-6.88-15.33-15.33-15.33C479.99,202.3,473.11,209.18,473.11,217.63z"/>
				</g>
				<g>
					<path class="st0" d="M480.8,217.63c0-9.57,3.35-17.06,7.64-17.06c4.28,0,7.64,7.5,7.64,17.06c0,9.57-3.35,17.06-7.64,17.06
						C484.16,234.7,480.8,227.2,480.8,217.63z M482.54,217.63c0,9.03,3.11,15.33,5.9,15.33c2.79,0,5.9-6.3,5.9-15.33
						c0-9.03-3.11-15.33-5.9-15.33C485.65,202.3,482.54,208.6,482.54,217.63z"/>
				</g>
				<g>
					<rect x="472.24" y="216.76" class="st0" width="32.39" height="1.74"/>
				</g>
				<g>
					<g>
						<path class="st0" d="M488.44,211.29c9.4,0,12.7-3.3,12.84-3.44l-1.25-1.21l0.62,0.6l-0.62-0.61
							c-0.03,0.03-3.03,2.92-11.6,2.92c-8.56,0-11.57-2.89-11.6-2.92l-1.24,1.21C475.74,207.99,479.04,211.29,488.44,211.29z"/>
					</g>
					<g>
						<path class="st0" d="M500.04,228.63l1.24-1.21c-0.14-0.14-3.44-3.44-12.84-3.44s-12.7,3.3-12.84,3.44l1.25,1.21
							c0.02-0.02,3.03-2.91,11.59-2.91C497,225.71,500.01,228.6,500.04,228.63z"/>
					</g>
				</g>
			</g>
			<g>
				<polyline class="st12" points="514.75,295 433.14,295 433.14,255.41 				"/>
				<linearGradient id="SVGID_3_" gradientUnits="userSpaceOnUse" x1="433.1425" y1="277.6106" x2="501.75" y2="277.6106">
					<stop  offset="0" style="stop-color:#FFFFFF"/>
					<stop  offset="1" style="stop-color:#FFFFFF;stop-opacity:0"/>
				</linearGradient>
				<polygon class="st13" points="433.14,283.71 450.73,268.2 455.26,274.34 461.93,260.26 466.64,271.98 472.35,264.33 
					480.31,278.49 495.1,264.23 501.75,276.08 501.75,294.96 433.14,294.96 				"/>
				<linearGradient id="SVGID_4_" gradientUnits="userSpaceOnUse" x1="462.0971" y1="267.4213" x2="462.0971" y2="294.6591">
					<stop  offset="0" style="stop-color:#FFFFFF"/>
					<stop  offset="1" style="stop-color:#FFFFFF;stop-opacity:0"/>
				</linearGradient>
				<polygon class="st14" points="433.14,278.8 449.6,286.05 461.83,261.18 468.51,278.8 479.48,267.33 491.05,279.85 
					491.05,294.96 433.14,294.96 				"/>
				<line class="st15" x1="511.31" y1="254.75" x2="522.98" y2="254.75"/>
				<line class="st15" x1="511.31" y1="256.67" x2="522.98" y2="256.67"/>
				<line class="st15" x1="511.31" y1="258.6" x2="522.98" y2="258.6"/>
				<line class="st15" x1="503.75" y1="254.75" x2="509.04" y2="254.75"/>
				<line class="st15" x1="503.75" y1="256.67" x2="509.04" y2="256.67"/>
				<line class="st15" x1="503.75" y1="258.6" x2="509.04" y2="258.6"/>
				<path class="st16" d="M436.61,272.21c2.7,1.15,4.38,3.5,5.66,5.84c1.27,2.33,2.32,4.83,4.34,6.74c2.02,1.91,5.37,3.11,8.11,2.03
					c2.42-0.95,3.58-3.28,4.45-5.43c2.54-6.26,4.43-12.72,5.65-19.26c0.18-0.97,0.35-1.97,0.9-2.83s1.55-1.59,2.71-1.61
					c1.35-0.02,2.45,0.9,3.31,1.79c5.74,5.97,8.23,13.73,13.1,20.24c0.95,1.28,2.21,2.61,3.98,2.77c1.41,0.13,2.74-0.55,3.89-1.25
					c3.44-2.08,6.47-4.66,8.93-7.58"/>
				<g>
					<path class="st17" d="M437.06,272.01c0,0.25-0.2,0.45-0.45,0.45c-0.25,0-0.45-0.2-0.45-0.45s0.2-0.45,0.45-0.45
						C436.86,271.56,437.06,271.76,437.06,272.01z"/>
					<path class="st17" d="M453.08,287.17c0,0.25-0.2,0.45-0.45,0.45c-0.25,0-0.45-0.2-0.45-0.45c0-0.25,0.2-0.45,0.45-0.45
						C452.88,286.72,453.08,286.92,453.08,287.17z"/>
					<path class="st17" d="M501.67,274c0,0.25-0.2,0.45-0.45,0.45c-0.25,0-0.45-0.2-0.45-0.45s0.2-0.45,0.45-0.45
						C501.46,273.55,501.67,273.75,501.67,274z"/>
					<path class="st17" d="M489.28,282.58c0,0.25-0.2,0.45-0.45,0.45c-0.25,0-0.45-0.2-0.45-0.45c0-0.25,0.2-0.45,0.45-0.45
						C489.08,282.13,489.28,282.33,489.28,282.58z"/>
					<path class="st17" d="M468.4,257.83c0,0.25-0.2,0.45-0.45,0.45c-0.25,0-0.45-0.2-0.45-0.45c0-0.25,0.2-0.45,0.45-0.45
						C468.2,257.38,468.4,257.58,468.4,257.83z"/>
				</g>
			</g>
		</g>
		<g>
			<g>
				<g>
					<path class="st18" d="M418.66,127.47c-1.67,4.2-6.43,6.24-10.62,4.57c-4.2-1.67-6.24-6.43-4.57-10.62
						c1.67-4.2,6.43-6.24,10.62-4.57C418.29,118.52,420.34,123.28,418.66,127.47z"/>
					<polyline class="st19" points="407.58,123.47 409.42,127.56 415.56,123.76 					"/>
				</g>
				<g>
					<path class="st18" d="M177.58,236.04c1.41,4.29-0.93,8.91-5.22,10.32c-4.29,1.41-8.91-0.93-10.32-5.22
						c-1.41-4.29,0.93-8.91,5.22-10.32C171.55,229.41,176.17,231.75,177.58,236.04z"/>
					<polyline class="st19" points="166.5,240.07 170.54,242.03 172.82,235.18 					"/>
				</g>
				<path class="st18" d="M629.76,289.16c0,1.66-1.35,3.01-3.01,3.01c-1.66,0-3.01-1.35-3.01-3.01c0-1.66,1.35-3.01,3.01-3.01
					C628.41,286.15,629.76,287.5,629.76,289.16z"/>
				<path class="st20" d="M382.34,95c0,1.66-1.35,3.01-3.01,3.01c-1.66,0-3.01-1.35-3.01-3.01c0-1.66,1.35-3.01,3.01-3.01
					C380.99,91.99,382.34,93.34,382.34,95z"/>
				<path class="st18" d="M84.8,383c0,2.65-2.15,4.8-4.8,4.8c-2.65,0-4.8-2.15-4.8-4.8c0-2.65,2.15-4.8,4.8-4.8
					C82.65,378.2,84.8,380.35,84.8,383z"/>
				<path class="st20" d="M641.38,235.67c0,4.08-3.3,7.38-7.38,7.38c-4.08,0-7.38-3.31-7.38-7.38c0-4.08,3.3-7.38,7.38-7.38
					C638.08,228.28,641.38,231.59,641.38,235.67z"/>
				<path class="st20" d="M308.05,99c0,4.08-3.3,7.38-7.38,7.38c-4.08,0-7.38-3.31-7.38-7.38c0-4.08,3.31-7.38,7.38-7.38
					C304.74,91.62,308.05,94.92,308.05,99z"/>
				<path class="st20" d="M198.52,440.88c0,4.08-3.3,7.38-7.38,7.38c-4.08,0-7.38-3.31-7.38-7.38c0-4.08,3.31-7.38,7.38-7.38
					C195.22,433.5,198.52,436.8,198.52,440.88z"/>
				<path class="st20" d="M469.67,97.9c0,2.65-2.15,4.8-4.8,4.8c-2.65,0-4.8-2.15-4.8-4.8c0-2.65,2.15-4.8,4.8-4.8
					C467.52,93.1,469.67,95.25,469.67,97.9z"/>
				<path class="st21" d="M596.13,187.67c0,2.65-2.15,4.8-4.8,4.8c-2.65,0-4.8-2.15-4.8-4.8c0-2.65,2.15-4.8,4.8-4.8
					C593.98,182.87,596.13,185.02,596.13,187.67z"/>
				<g>
					<g>
						<g>
							<path class="st18" d="M90.95,282.27c-0.53,0-0.96-0.43-0.96-0.96v-6.77c0-0.53,0.43-0.96,0.96-0.96
								c0.53,0,0.96,0.43,0.96,0.96v6.77C91.91,281.84,91.48,282.27,90.95,282.27z"/>
						</g>
						<g>
							<path class="st18" d="M94.33,278.89h-6.77c-0.53,0-0.96-0.43-0.96-0.96c0-0.53,0.43-0.96,0.96-0.96h6.77
								c0.53,0,0.96,0.43,0.96,0.96C95.29,278.46,94.86,278.89,94.33,278.89z"/>
						</g>
					</g>
				</g>
				<g class="st22">
					<g>
						<path class="st18" d="M208.29,67.39c-0.53,0-0.96-0.43-0.96-0.96v-6.77c0-0.53,0.43-0.96,0.96-0.96
							c0.53,0,0.96,0.43,0.96,0.96v6.77C209.25,66.96,208.82,67.39,208.29,67.39z"/>
					</g>
					<g>
						<path class="st18" d="M211.68,64.01h-6.77c-0.53,0-0.96-0.43-0.96-0.96c0-0.53,0.43-0.96,0.96-0.96h6.77
							c0.53,0,0.96,0.43,0.96,0.96C212.64,63.58,212.21,64.01,211.68,64.01z"/>
					</g>
				</g>
				<g class="st23">
					<g>
						<g>
							<path class="st18" d="M121.05,214.4c-0.53,0-0.96-0.43-0.96-0.96v-6.77c0-0.53,0.43-0.96,0.96-0.96
								c0.53,0,0.96,0.43,0.96,0.96v6.77C122.01,213.97,121.58,214.4,121.05,214.4z"/>
						</g>
						<g>
							<path class="st18" d="M124.43,211.02h-6.77c-0.53,0-0.96-0.43-0.96-0.96s0.43-0.96,0.96-0.96h6.77
								c0.53,0,0.96,0.43,0.96,0.96S124.96,211.02,124.43,211.02z"/>
						</g>
					</g>
				</g>
				<g>
					<g>
						<g>
							<path class="st18" d="M579.7,267.43c-0.53,0-0.96-0.43-0.96-0.96v-6.77c0-0.53,0.43-0.96,0.96-0.96
								c0.53,0,0.96,0.43,0.96,0.96v6.77C580.66,267,580.23,267.43,579.7,267.43z"/>
						</g>
						<g>
							<path class="st18" d="M583.09,264.05h-6.77c-0.53,0-0.96-0.43-0.96-0.96c0-0.53,0.43-0.96,0.96-0.96h6.77
								c0.53,0,0.96,0.43,0.96,0.96C584.05,263.62,583.62,264.05,583.09,264.05z"/>
						</g>
					</g>
				</g>
				<g>
					<g>
						<g>
							<path class="st18" d="M625.79,141.84c-0.53,0-0.96-0.43-0.96-0.96v-6.77c0-0.53,0.43-0.96,0.96-0.96
								c0.53,0,0.96,0.43,0.96,0.96v6.77C626.75,141.41,626.32,141.84,625.79,141.84z"/>
						</g>
						<g>
							<path class="st18" d="M629.18,138.46h-6.77c-0.53,0-0.96-0.43-0.96-0.96c0-0.53,0.43-0.96,0.96-0.96h6.77
								c0.53,0,0.96,0.43,0.96,0.96C630.14,138.03,629.71,138.46,629.18,138.46z"/>
						</g>
					</g>
				</g>
				<g>
					<path class="st0" d="M600.04,109.71c-1.86-0.96-3.92-1.4-5.68-2.56c-4.98-3.27-5.86-10.24-7.9-15.73
						c-2.29-6.17-8.48-9.59-14.92-8.94c-4.57,0.46-8.11,3.18-11.13,6.45c-1.95,2.11-2.54,9.16-8.55,9.27
						c-1.17,0.02-2.09-1-3.07-1.71c-2.89-2.09-7.38-0.55-8.67,2.97c-0.63,1.74-0.58,3.78-1.58,5.3c-2.55,3.89-8.86,0.81-12.21,3.89
						c-1.21,1.11-1.78,2.84-2.83,4.13c-1.52,1.88-3.86,2.65-6.08,3.29c-6.13,1.77-14.08,2.04-14.08,4.05
						c0,2.84,31.54,1.14,50.07,1.14c10.19,0,20.39,0,30.58,0c4.75,0,19.98,2.25,19.74-6.6C603.66,112.43,601.9,110.67,600.04,109.71
						z"/>
				</g>
				<g>
					<path class="st0" d="M425.73,67.33c-0.06-0.06-0.12-0.12-0.18-0.18c-1.79-1.89-2.5-3.95-5.46-4.08
						c-3.51-0.16-9.23,0.75-10.68-3.51c-0.87-2.56,0-5.54-1.87-7.78c-1.3-1.57-3.46-2.23-5.5-2.13c-3.49,0.16-6.33,2.59-9.74,3.06
						c-4.01,0.55-5.91-3.26-9.13-4.86c-5.7-2.81-10.59-0.32-13.51,1.95c-3.23,2.52-5.31,6.37-5.91,10.4
						c-0.73,4.9,3.78,9.65,8.58,11.8c2.37,1.06,5.03,1.31,7.63,1.33c3.06,0.02,6.12-0.08,9.16-0.15c5.73-0.13,52.47,0.27,52.47-1.18
						c0-0.92-6.8-1.8-7.76-2.08C431.07,69.12,427.9,69.42,425.73,67.33z"/>
				</g>
				<g>
					<path class="st2" d="M144.87,142.98c-0.06-0.06-0.12-0.12-0.18-0.18c-1.79-1.89-2.5-3.95-5.46-4.08
						c-3.51-0.16-9.23,0.75-10.68-3.51c-0.87-2.56,0-5.54-1.87-7.78c-1.3-1.57-3.46-2.23-5.5-2.13c-3.49,0.16-6.33,2.59-9.74,3.06
						c-4.01,0.55-5.91-3.26-9.14-4.86c-5.7-2.81-10.59-0.32-13.51,1.95c-3.23,2.52-5.31,6.37-5.91,10.4
						c-0.73,4.9,3.78,9.65,8.58,11.8c2.37,1.06,5.03,1.31,7.63,1.33c3.06,0.02,6.12-0.08,9.16-0.15c5.73-0.13,52.47,0.27,52.47-1.18
						c0-0.92-6.8-1.8-7.76-2.08C150.21,144.77,147.04,145.07,144.87,142.98z"/>
				</g>
			</g>
			<g>
				<g class="st24">
					<g>
						<path class="st25" d="M207.84,155.47l-1.94,1.2l-0.05,0.03c-0.41,0.25-0.94,0.13-1.2-0.28c-0.25-0.41-0.13-0.94,0.27-1.19
							l2.03-1.28c0.41-0.26,0.95-0.14,1.21,0.27c0.26,0.41,0.14,0.95-0.27,1.21l-0.01,0L207.84,155.47z"/>
						<path class="st25" d="M203.09,158.72c-1.22,0.96-2.38,1.99-3.5,3.07c-0.33,0.32-0.87,0.31-1.19-0.02
							c-0.32-0.33-0.31-0.86,0.02-1.19c1.15-1.12,2.35-2.19,3.6-3.2c0.37-0.3,0.91-0.24,1.21,0.13
							C203.52,157.88,203.46,158.42,203.09,158.72L203.09,158.72z"/>
						<path class="st25" d="M197.14,164.3c-1.05,1.15-2.05,2.34-3,3.58c-0.27,0.36-0.78,0.42-1.14,0.15
							c-0.35-0.27-0.42-0.78-0.15-1.14c0.97-1.28,1.99-2.51,3.07-3.7c0.31-0.34,0.83-0.37,1.17-0.06
							C197.43,163.43,197.45,163.95,197.14,164.3L197.14,164.3z"/>
						<path class="st25" d="M192.09,170.72c-0.87,1.29-1.68,2.62-2.43,3.99c-0.21,0.38-0.69,0.52-1.07,0.31
							c-0.38-0.21-0.52-0.68-0.32-1.06c0.76-1.41,1.59-2.79,2.47-4.13c0.24-0.37,0.74-0.47,1.11-0.23
							C192.24,169.84,192.34,170.34,192.09,170.72L192.09,170.72z"/>
						<path class="st25" d="M188.11,177.83c-0.64,1.41-1.2,2.86-1.67,4.34c-0.13,0.4-0.55,0.62-0.95,0.49
							c-0.4-0.13-0.62-0.55-0.5-0.95c0.48-1.54,1.05-3.05,1.7-4.52c0.17-0.39,0.63-0.57,1.02-0.39
							C188.11,176.98,188.28,177.43,188.11,177.83L188.11,177.83z"/>
						<path class="st25" d="M185.56,185.53c-0.31,1.51-0.51,3.04-0.56,4.58c-0.01,0.4-0.35,0.72-0.75,0.71
							c-0.4-0.01-0.72-0.35-0.71-0.75c0.04-1.63,0.24-3.24,0.56-4.83c0.08-0.4,0.47-0.67,0.88-0.59
							C185.37,184.73,185.64,185.12,185.56,185.53L185.56,185.53z"/>
						<path class="st25" d="M185.14,193.54c0.18,1.52,0.53,3.01,1.05,4.44c0.13,0.36-0.05,0.77-0.42,0.9
							c-0.36,0.13-0.76-0.05-0.9-0.41c-0.57-1.53-0.96-3.14-1.16-4.76c-0.05-0.39,0.23-0.75,0.62-0.8S185.09,193.14,185.14,193.54
							L185.14,193.54z"/>
						<path class="st25" d="M187.66,201.07c0.78,1.31,1.72,2.52,2.79,3.62c0.26,0.27,0.25,0.69-0.02,0.95
							c-0.27,0.26-0.69,0.25-0.95-0.01c-1.14-1.16-2.16-2.45-3.01-3.86c-0.2-0.33-0.09-0.75,0.23-0.95
							C187.03,200.64,187.46,200.74,187.66,201.07L187.66,201.07z"/>
						<path class="st25" d="M193.03,206.98c1.22,0.93,2.54,1.76,3.9,2.49c0.32,0.17,0.44,0.56,0.27,0.87
							c-0.17,0.31-0.56,0.43-0.87,0.27c-1.43-0.75-2.8-1.6-4.1-2.57c-0.29-0.22-0.35-0.64-0.13-0.93
							C192.32,206.82,192.73,206.76,193.03,206.98L193.03,206.98z"/>
						<path class="st25" d="M200.09,210.93c1.44,0.57,2.92,1.04,4.43,1.4c0.33,0.08,0.54,0.41,0.46,0.74
							c-0.08,0.33-0.41,0.54-0.74,0.46c-1.57-0.36-3.11-0.83-4.62-1.42c-0.33-0.13-0.49-0.49-0.36-0.82
							C199.4,210.97,199.76,210.81,200.09,210.93L200.09,210.93z"/>
						<path class="st25" d="M207.96,212.94c1.54,0.19,3.09,0.26,4.64,0.21c0.32-0.01,0.59,0.25,0.6,0.57
							c0.01,0.32-0.24,0.59-0.57,0.6c-1.61,0.06-3.22,0-4.82-0.19c-0.33-0.04-0.57-0.34-0.53-0.67
							C207.32,213.14,207.62,212.9,207.96,212.94L207.96,212.94z"/>
						<path class="st25" d="M216.07,212.86c1.54-0.22,3.05-0.56,4.54-1.01c0.29-0.09,0.61,0.08,0.7,0.37
							c0.09,0.29-0.07,0.6-0.37,0.69c-1.54,0.48-3.11,0.85-4.7,1.09c-0.31,0.05-0.61-0.17-0.65-0.48
							C215.54,213.2,215.75,212.91,216.07,212.86L216.07,212.86z"/>
						<path class="st25" d="M223.87,210.63c1.41-0.63,2.78-1.38,4.02-2.27c0.24-0.17,0.57-0.12,0.74,0.12
							c0.17,0.24,0.12,0.57-0.12,0.74c-1.31,0.96-2.73,1.75-4.2,2.41c-0.27,0.12-0.6,0-0.72-0.27
							C223.47,211.07,223.6,210.75,223.87,210.63L223.87,210.63z"/>
						<path class="st25" d="M230.46,206.07c1-1.14,1.79-2.46,2.21-3.9c0.08-0.27,0.36-0.42,0.62-0.34c0.26,0.08,0.42,0.35,0.34,0.62
							c-0.46,1.6-1.32,3.07-2.4,4.3c-0.19,0.22-0.51,0.24-0.73,0.05C230.29,206.61,230.27,206.29,230.46,206.07L230.46,206.07z"/>
						<path class="st25" d="M233.02,198.83c-0.11-1.5-0.53-3.01-1.15-4.39l0-0.01c-0.11-0.24,0-0.52,0.24-0.62
							c0.24-0.11,0.51,0,0.62,0.23c0.35,0.76,0.62,1.51,0.84,2.3c0.22,0.79,0.37,1.6,0.43,2.42c0.02,0.27-0.18,0.5-0.45,0.53
							C233.28,199.3,233.04,199.1,233.02,198.83L233.02,198.83z"/>
						<path class="st25" d="M229.91,191.71c-1.1-1.03-2.46-1.75-3.92-2.19c-0.24-0.07-0.37-0.32-0.3-0.55
							c0.07-0.23,0.32-0.37,0.55-0.3c1.57,0.46,3.07,1.24,4.29,2.37c0.19,0.17,0.2,0.46,0.03,0.65S230.1,191.88,229.91,191.71
							L229.91,191.71z"/>
						<path class="st25" d="M222.59,188.94c-1.54-0.08-3.09,0.03-4.63,0.29c-0.23,0.04-0.44-0.11-0.48-0.34
							c-0.04-0.23,0.11-0.44,0.34-0.48c1.58-0.28,3.2-0.41,4.81-0.33c0.24,0.01,0.42,0.21,0.41,0.45
							C223.04,188.77,222.83,188.95,222.59,188.94L222.59,188.94z"/>
						<path class="st25" d="M214.56,190.04c-1.49,0.45-2.95,1.01-4.37,1.67c-0.19,0.09-0.42,0.01-0.51-0.19
							c-0.09-0.19-0.01-0.42,0.19-0.51c1.44-0.68,2.93-1.27,4.46-1.74c0.21-0.07,0.44,0.05,0.51,0.27S214.77,189.97,214.56,190.04
							L214.56,190.04z"/>
						<path class="st25" d="M207.07,193.34c-1.35,0.79-2.65,1.67-3.9,2.61c-0.16,0.12-0.38,0.09-0.5-0.07
							c-0.12-0.16-0.09-0.38,0.07-0.5c1.26-0.98,2.58-1.88,3.95-2.69c0.18-0.11,0.41-0.05,0.51,0.13
							C207.31,193,207.25,193.23,207.07,193.34L207.07,193.34z"/>
						<path class="st25" d="M200.48,198.22c-1.15,1.06-2.24,2.19-3.25,3.39c-0.12,0.14-0.33,0.16-0.47,0.04
							c-0.14-0.12-0.16-0.32-0.04-0.46c1.02-1.23,2.12-2.39,3.28-3.47c0.14-0.13,0.36-0.12,0.49,0.02
							C200.63,197.87,200.62,198.08,200.48,198.22L200.48,198.22z"/>
						<path class="st25" d="M195.1,204.41c-0.88,1.29-1.68,2.64-2.37,4.05c-0.07,0.15-0.26,0.21-0.4,0.14
							c-0.15-0.07-0.21-0.25-0.14-0.4c0.7-1.43,1.5-2.82,2.39-4.14c0.1-0.15,0.3-0.18,0.44-0.09
							C195.16,204.06,195.2,204.26,195.1,204.41L195.1,204.41z"/>
						<path class="st25" d="M191.35,211.7c-0.53,1.47-0.95,2.98-1.25,4.52c-0.03,0.15-0.17,0.25-0.32,0.22
							c-0.15-0.03-0.24-0.17-0.22-0.32c0.3-1.57,0.71-3.11,1.25-4.61c0.05-0.15,0.22-0.23,0.37-0.18
							C191.32,211.38,191.4,211.54,191.35,211.7L191.35,211.7z"/>
						<path class="st25" d="M189.62,219.71c-0.12,1.56-0.12,3.13-0.01,4.7c0.01,0.14-0.09,0.25-0.23,0.26
							c-0.13,0.01-0.25-0.09-0.26-0.23c-0.12-1.59-0.13-3.18-0.02-4.77c0.01-0.14,0.14-0.25,0.28-0.24S189.63,219.56,189.62,219.71
							L189.62,219.71z"/>
						<path class="st25" d="M190.04,227.91c0.27,1.55,0.65,3.07,1.12,4.57c0.04,0.11-0.03,0.24-0.14,0.27
							c-0.11,0.04-0.24-0.03-0.27-0.14c-0.48-1.51-0.88-3.06-1.16-4.62c-0.02-0.13,0.06-0.25,0.19-0.27
							C189.89,227.69,190.01,227.78,190.04,227.91L190.04,227.91z"/>
						<path class="st25" d="M192.35,235.81c0.6,1.45,1.28,2.88,2.05,4.24c0.05,0.09,0.02,0.21-0.07,0.26
							c-0.09,0.05-0.21,0.02-0.26-0.07c-0.8-1.38-1.49-2.81-2.1-4.28c-0.04-0.1,0.01-0.23,0.11-0.27
							C192.19,235.65,192.31,235.7,192.35,235.81L192.35,235.81z"/>
						<path class="st25" d="M196.33,243.01c0.93,1.26,1.98,2.44,3.12,3.51c0.07,0.06,0.07,0.17,0.01,0.24
							c-0.06,0.07-0.17,0.07-0.24,0.01c-1.17-1.08-2.23-2.27-3.19-3.55c-0.06-0.08-0.04-0.2,0.04-0.26S196.27,242.93,196.33,243.01
							L196.33,243.01z"/>
						<path class="st25" d="M202.21,248.72c1.3,0.88,2.69,1.63,4.14,2.23c0.08,0.03,0.11,0.12,0.08,0.19
							c-0.03,0.08-0.12,0.11-0.19,0.08c-1.47-0.6-2.88-1.35-4.2-2.24c-0.07-0.05-0.09-0.15-0.04-0.22
							C202.04,248.69,202.14,248.67,202.21,248.72L202.21,248.72z"/>
						<path class="st25" d="M209.7,252.07c1.52,0.39,3.08,0.65,4.65,0.78c0.07,0.01,0.12,0.07,0.11,0.14
							c-0.01,0.07-0.07,0.12-0.14,0.11c-1.58-0.13-3.15-0.38-4.69-0.77c-0.07-0.02-0.12-0.09-0.1-0.17
							C209.55,252.1,209.63,252.05,209.7,252.07L209.7,252.07z"/>
						<path class="st25" d="M217.89,252.98c1.57-0.02,3.15-0.14,4.71-0.34c0.06-0.01,0.11,0.03,0.12,0.09
							c0.01,0.06-0.03,0.11-0.09,0.12c-1.57,0.21-3.15,0.34-4.73,0.37c-0.06,0-0.12-0.05-0.12-0.11
							C217.77,253.04,217.82,252.98,217.89,252.98L217.89,252.98z"/>
						<path class="st25" d="M226.1,252.07c1.55-0.31,3.08-0.68,4.6-1.1c0.04-0.01,0.09,0.01,0.1,0.06c0.01,0.04-0.01,0.09-0.06,0.1
							c-1.52,0.43-3.06,0.81-4.61,1.13c-0.05,0.01-0.1-0.02-0.11-0.07C226.02,252.13,226.05,252.08,226.1,252.07L226.1,252.07z"/>
						<path class="st25" d="M234.1,249.93c1.5-0.5,2.98-1.04,4.45-1.63c0.03-0.01,0.07,0,0.08,0.03c0.01,0.03,0,0.07-0.03,0.08
							c-1.47,0.59-2.95,1.14-4.45,1.65c-0.04,0.01-0.08-0.01-0.09-0.05C234.04,249.98,234.06,249.94,234.1,249.93L234.1,249.93z"/>
						<path class="st25" d="M241.82,246.93l4.29-2.01c0.02-0.01,0.04,0,0.05,0.02c0.01,0.02,0,0.04-0.02,0.05l-4.28,2.04
							c-0.03,0.01-0.06,0-0.07-0.02C241.78,246.97,241.8,246.94,241.82,246.93L241.82,246.93z"/>
						<path class="st25" d="M249.27,243.29l4.13-2.32c0.01,0,0.02,0,0.02,0.01c0,0.01,0,0.02-0.01,0.02l-4.12,2.35
							c-0.01,0.01-0.03,0-0.04-0.01C249.25,243.32,249.26,243.3,249.27,243.29L249.27,243.29z"/>
						<polygon class="st25" points="256.45,239.1 258.4,237.82 256.45,239.11 256.45,239.11 256.45,239.1 						"/>
					</g>
				</g>
				<g>
					<path class="st26" d="M218.72,124.36c0.1-0.24-12.68,7.68-12.68,7.68l3.32,21.54l6.27-16.11l16.52-3.15l23.54-22.14
						L218.72,124.36z"/>
					<polygon class="st27" points="255.69,112.17 209.36,153.57 215.63,137.46 					"/>
					<polygon class="st10" points="255.69,112.17 194.4,125.19 206.04,132.04 255.69,112.17 215.63,137.46 235.43,149.69 					"/>
				</g>
			</g>
		</g>
	</g>
	<g>
		<g class="st28">
			<defs>
				<rect id="SVGID_5_" x="452.77" y="323" class="st28" width="114.23" height="87.22"/>
			</defs>
			<clipPath id="SVGID_6_">
				<use xlink:href="#SVGID_5_"  style="overflow:visible;"/>
			</clipPath>
			<path class="st29" d="M626.19,389.72c-2.97,0-5.81,0.51-8.47,1.41c-0.64-22.14-18.78-39.89-41.07-39.89
				c-22.7,0-41.1,18.4-41.1,41.1c0,1.04,0.05,2.06,0.13,3.08c-3.97-6.69-11.24-11.19-19.58-11.19c-12.57,0-22.77,10.19-22.77,22.77
				c0,1.78,0.23,3.51,0.61,5.18c-2.35-1.31-5.05-2.06-7.93-2.06c-9.02,0-16.32,7.31-16.32,16.32c0,9.02,7.31,16.32,16.32,16.32
				c9.02,0,128.69,0,140.17,0c14.65,0,26.52-11.87,26.52-26.52C652.71,401.59,640.84,389.72,626.19,389.72z"/>
		</g>
		<ellipse class="st3" cx="561.21" cy="448.04" rx="97.37" ry="7.7"/>
		<g>
			<g>
				<path class="st30" d="M590.73,386.71c-5.36-18.45-1.38-38.34,4.95-56.48c1.52-4.36,3.26-8.81,6.52-12.08
					c1.67-1.67,3.97-3.05,6.29-2.58c3.4,0.69,4.82,4.73,5.21,8.18c2.42,21.75-11.91,41.68-15.54,63.26"/>
			</g>
			<g>
				<path class="st30" d="M575.48,377.45c-1.05-5.48-2.51-10.93-5.11-15.86c-2.6-4.93-6.42-9.34-11.35-11.94
					c-2.19-1.15-5.11-1.85-6.96-0.2c-2.03,1.81-1.38,5.13-0.18,7.57c6.58,13.36,23.4,19.34,29.8,32.79"/>
			</g>
			<g>
				<path class="st30" d="M583.24,388.34c-4.17-7.79-8.2-15.74-10.5-24.28c-2.3-8.53-2.79-17.76,0.09-26.12
					c0.89-2.58,3.1-5.53,5.68-4.64c0.95,0.33,1.65,1.13,2.26,1.93c4.8,6.32,6.64,14.39,7.51,22.28c0.87,7.89,0.89,15.9,2.63,23.64
					c0.26,1.15,0.58,2.35,1.39,3.21c0.81,0.86,2.26,1.23,3.19,0.5c0.52-0.41,0.78-1.07,0.98-1.7c1.1-3.45,18.21-38.98,33.72-41.47
					c1.25-0.2,2.54-0.34,3.79-0.13c19.44,3.23-24.35,43.85-24.68,49.9c15.84-13.58,19.2-16.08,26.42-17.39
					c5.56-1,15.24,3.93,12.06,10.72c-2.2,4.7-7.7,6.8-12.8,7.82c-5.56,1.11-11.28,1.47-16.73,3.01c-5.46,1.55-10.82,4.53-13.6,9.48"
					/>
			</g>
		</g>
		<path class="st0" d="M627,395c-2.97,0-5.81,0.51-8.47,1.41c-0.64-22.14-18.78-39.89-41.07-39.89c-22.7,0-41.1,18.4-41.1,41.1
			c0,1.04,0.05,2.06,0.13,3.08c-3.97-6.69-11.24-11.19-19.58-11.19c-12.57,0-22.77,10.19-22.77,22.77c0,1.78,0.23,3.51,0.61,5.18
			c-2.35-1.31-5.05-2.06-7.93-2.06c-9.02,0-16.32,7.31-16.32,16.32s7.31,16.32,16.32,16.32s128.69,0,140.17,0
			c14.65,0,26.52-11.87,26.52-26.52C653.52,406.87,641.64,395,627,395z"/>
	</g>
	<g>
		<path class="st2" d="M154.01,418.9c0,2.27,18.51,4.11,41.35,4.11c22.84,0,41.35-1.84,41.35-4.11c0-2.27-18.51-4.11-41.35-4.11
			C172.53,414.79,154.01,416.63,154.01,418.9z"/>
		<path class="st31" d="M217.56,413.07c0.35,0.64,2.01,2.11,4.32,3.08c2.3,0.97,7.19,1.42,4.47,2.28c-2.71,0.85-5.87,0.34-7.48,0.09
			c-1.6-0.24-3.15-0.28-5.04-0.29c-2.49-0.02-2.51-0.16-2.18-2.81C212.12,411.78,216.44,411.01,217.56,413.07z"/>
		<path class="st31" d="M172.41,411.75c0.14,0.74-0.97,2.96,1.01,4.6c1.98,1.63,6.48,3.35,3.5,3.42c-2.98,0.06-5.84-0.59-7.36-1.29
			c-1.52-0.71-0.31-1.82-2.19-2.38c-2.48-0.74-1.97-2.45-0.68-3.52C168.35,409.08,171.97,409.37,172.41,411.75z"/>
		<path class="st32" d="M181.91,337.59c0,0-5.94-16.45,10.91-30c0,0,9.03,3.39,16.26,3.8c5.69,0.32,8.59-0.17,8.59-0.17
			s0.48,14.61,0.5,22.49L181.91,337.59z"/>
		<path class="st32" d="M219.53,364.91c0.33-7.35-8.14-6.39-11.26-0.9c-6.45,11.36,2.38,37.53,3.55,49.92
			c1.21,0.44,3.25,0.79,4.47,0.26c0.84-0.36,1.3-1.35,1.3-1.35C217.4,397.64,219.18,372.77,219.53,364.91z"/>
		<path class="st32" d="M208.56,366.02c0.97,3,11.78,6.16,10.9-4.77c-0.39-4.85-1.42-31.62-1.62-34.2c-0.2-2.58-0.66-6.35-1.98-6.82
			c-6.62-2.35-18.33,5.8-16.59,15.49C200.44,342.2,206.54,359.79,208.56,366.02z"/>
		<path class="st32" d="M191.56,370.2c2.61-6.94-5.87-8.16-10.69-3.89c-11.27,10.01-11.71,33.59-14.47,45.76
			c1.57,1.01,4.06,1.37,4.93,1.33c0.92-0.05,1.34-0.65,1.34-0.65C177.25,398.17,188.77,377.61,191.56,370.2z"/>
		<path class="st32" d="M180.41,367.93c-0.29,3.13,8.71,9.59,12.26-0.85c1.57-4.63,8.3-31.99,9.15-34.46
			c0.84-2.46,0.61-7.55-0.43-8.45c-5.2-4.52-16.93-0.55-19.18,9.05C180.71,339.64,181.02,361.45,180.41,367.93z"/>
		<g>
			<path class="st6" d="M222.63,263.36c0,0,6.35,7.57,7.04,33.75l-7.18,2.55l-6.95-19.46L222.63,263.36z"/>
			<path class="st33" d="M217.45,275.66c-0.29,2.65-0.56,5.38-0.75,7.77l1.49,4.18c2.16-5.69,5.65-17.76,6.45-20.56
				c-1.13-2.64-2.01-3.69-2.01-3.69L217.45,275.66z"/>
			<g>
				<path class="st34" d="M211.07,230.54c1.48,0.4,2.27,2.21,2.77,3.44c0.61,1.49,0.91,3.07,1.11,4.65c0.14,1.1,0.22,2.25-0.24,3.27
					c-0.24,0.52-0.6,0.97-0.97,1.42c-0.21,0.25-0.42,0.51-0.7,0.69c-0.28,0.18-0.65,0.27-0.97,0.16c-0.46-0.17-0.65-0.68-0.78-1.13
					c-0.86-2.93-1.79-5.9-3.55-8.46"/>
			</g>
			<g>
				<path class="st35" d="M212.71,239.84c0.03-0.93,1.07-1.54,1.98-0.58c0.75,0.8,0.95,2.32,0.99,3.44c0.05,1.35-1.06,1.61-1.97,1.8
					"/>
			</g>
			<path class="st6" d="M222.63,263.36c-1.83-1.98-7.64-5.24-15.41-5.01c-5.35,0.16-19.93,0.99-21.56,4.36
				c-0.83,1.72-1.73,19.38-0.51,25.47c0.92,4.58,3.26,15.92,3.26,18.66c0,2.74-1.56,3.91-0.83,4.71c1.63,1.78,12.78,2.53,18.02,2.53
				c4.66,0,12.59-1.17,13-2.58c0.6-2.09-0.91-2.01-1.11-4.2s-0.79-16.4,0.06-18.72c1.54-4.2,2.29-11.04,3.52-14.15
				C221.99,272.07,224.46,265.33,222.63,263.36z"/>
			<path class="st33" d="M189.24,277.64c-0.56,1.09-4.33,6.8-4.33,6.8l-0.15,0.68c0.09,1.18,0.22,2.23,0.38,3.05
				c0.92,4.58,3.26,15.92,3.26,18.66c0,2.74-1.49,3.86-0.83,4.71c1.29,1.64,22.32,5.33,21.28,0.75
				c-0.09-0.41-17.65-13.04-17.75-13.46c-0.81-3.62-1.51-6.23-1.87-8.87C188.39,283.61,189.8,276.55,189.24,277.64z"/>
			<path class="st36" d="M211.45,252.03c0,0,0.05,5.74,0.3,5.98c0.25,0.23,1.45,0.77,1.45,0.77s-0.86,4.99-2.19,4.62
				c-1.33-0.37-10.1-4.54-10.1-4.54s1.24-0.48,1.24-0.94c0-0.46-1.18-9.5-1.18-9.5"/>
			<path class="st36" d="M205.36,231.16c1.28,0.33,4.65-0.33,5.58,0.98c0.93,1.31,1.74,4.49,2.09,5.36c0.69,1.74,1.15,3.61,1.65,5.4
				c0.66,2.34,1.74,6.63-0.69,8.59c-0.7,0.56-1.01,0.75-1.88,0.9c-1.15,0.2-2.3,0.42-3.45,0.61c-1.78,0.3-3.76,0.65-5.53,0.11
				c-2.37-0.72-3.67-3.79-4.27-5.87l-3.48-11.93L205.36,231.16z"/>
			<path class="st32" d="M211.66,265.64c0,0,0.51,22.41,1.48,36.05l-3.5,4.55l-2.41-5.69c0,0-1.02-16.45,2.28-34.75L211.66,265.64z"
				/>
			<path class="st37" d="M212.47,263.67l-0.08,0.31c-0.16,0.58-0.4,1.14-0.72,1.66l0,0l-2.15,0.16c0,0-1.46-0.72-1.65-1.49
				c-0.19-0.77,2.4-2.04,2.4-2.04l0.31,0.12c0.73,0.27,1.37,0.7,1.87,1.27L212.47,263.67z"/>
			<path class="st0" d="M202,256.52c0,0-1.37,0.8-2.45,2.34c1.1,2.38,3.6,6.61,6.35,8.53c1.28-3.25,4.36-5.13,4.36-5.13
				S202.77,261,202,256.52z"/>
			<path class="st0" d="M210.26,262.25c0,0,2.68,1,4.27,3.82c0,0,0.51-3.82-0.58-7.1c0,0-1.76-2.12-2.37-2.16
				C211.83,259.52,210.26,262.25,210.26,262.25z"/>
			<g>
				<g>
					<path class="st35" d="M209.92,312.3c2.66,0.38,3.64,1.31,5.14,2.7c0.12,0.11,0.25,0.26,0.22,0.42c-0.03,0.2-0.28,0.29-0.5,0.32
						c-1.24,0.19-1.44-0.56-2.59-1.01c-0.78-0.31-1.55-0.62-2.33-0.94"/>
				</g>
				<g>
					<g>
						<path class="st38" d="M218.95,294.04l-9.42,28.45c-0.25,0.76,0.21,1.42,1,1.43l19.66,1.63c0.71,0,1.42-0.52,1.65-1.2
							l10.13-28.02c0.25-0.76-0.92-1.86-1.71-1.86l-19.66-1.63C219.89,292.84,219.18,293.36,218.95,294.04z"/>
					</g>
					<g>
						<path class="st0" d="M219.6,294.78l-9.29,28.02c-0.25,0.76,0.21,1.42,1,1.43l19.66,1.63c0.71,0,1.42-0.52,1.65-1.2l9.29-28.02
							c0.25-0.76-0.21-1.42-1-1.43l-19.66-1.63C220.54,293.58,219.82,294.1,219.6,294.78z"/>
					</g>
				</g>
				<g>
					<path class="st36" d="M202.43,310.31c2.06,0.41,7.56,1.95,8.14,2.21c0.69,0.31,2.97,1.93,3.51,2.44
						c2.07,1.95,1.01,2.87,1.83,5.52c0.04,0.14,0.05,0.28,0.05,0.42c0,0.28-0.4,0.51-0.8,0.26c-0.22,0.34-0.85,0.13-1.16-0.24
						c0.01,0.26-0.39,0.43-1.02,0.1c-0.34-0.18-0.28-0.16-1.07-0.83c-0.56-0.48-1.22-0.85-2.24-1.28c-0.68-0.29-1.56-0.55-2.18-0.94
						c-0.84-0.52-2.32-0.64-3.06-2.89c-0.16-0.5-0.68-0.8-1.15-1.08c-1.12-0.66-2.24-1.32-3.36-1.99"/>
				</g>
				<path class="st6" d="M189.75,273.86c-0.87,2.94-4.51,23.3-4.51,23.3l20.5,13.98l-1.71,4.22c0,0-24.52-7.76-26.45-13.06
					c-1.93-5.3-1.84-29.26,4.97-37.66c2.17-2.67,6.51-4.02,6.51-4.02"/>
				<g>
					<path class="st35" d="M210.77,317.64c0.33,0.15,0.65,0.32,0.96,0.51c0.31,0.17,0.62,0.42,0.86,0.69
						c0.26,0.25,0.46,0.56,0.69,0.84c0.2,0.3,0.4,0.59,0.58,0.92c-0.3-0.21-0.56-0.47-0.81-0.73c-0.23-0.28-0.48-0.53-0.7-0.8
						c-0.23-0.28-0.47-0.49-0.75-0.73C211.32,318.11,211.04,317.88,210.77,317.64z"/>
				</g>
				<g>
					<path class="st35" d="M211.9,316.36c0.42,0.19,0.75,0.52,1.06,0.85c0.31,0.34,0.6,0.67,0.82,1.11l0.6,1.19
						c0.19,0.4,0.39,0.8,0.55,1.23c-0.3-0.34-0.56-0.71-0.81-1.09c-0.22-0.39-0.47-0.77-0.64-1.19c-0.17-0.37-0.46-0.73-0.71-1.09
						C212.51,317.01,212.25,316.64,211.9,316.36z"/>
				</g>
				<g>
					<path class="st35" d="M213.2,315.33c0.3,0.31,0.65,0.57,0.96,0.88c0.15,0.15,0.32,0.32,0.44,0.52
						c0.12,0.19,0.21,0.38,0.31,0.58c0.38,0.79,0.65,1.64,0.67,2.52c-0.34-0.81-0.63-1.6-0.97-2.39c-0.19-0.4-0.3-0.79-0.6-1.1
						C213.73,316.02,213.43,315.7,213.2,315.33z"/>
				</g>
			</g>
			<g>
				<path class="st34" d="M197.55,245.18c0.8-0.44,1.42-0.91,1.94-0.18c0.28,0.38,0.45,0.92,0.92,1.05
					c0.47,0.13,0.96-0.27,1.08-0.72c0.12-0.45-0.03-0.92-0.18-1.36c-0.32-0.98-0.65-1.96-0.97-2.93c-0.32-0.96-0.63-2.01-0.23-2.94
					c0.2-0.47,0.58-0.86,0.98-1.19c1.33-1.08,3.06-1.6,4.78-1.93c1.72-0.33,3.48-0.5,5.15-1c0.7-0.21,1.4-0.48,1.96-0.93
					c0.91-0.73,1.38-1.87,1.39-2.99c0.01-1.12-0.4-2.22-1.01-3.18c-0.13,0.38-0.3,0.76-0.51,1.1c-0.21-0.51-0.53-0.99-0.94-1.39
					c-0.5,2.63-12.24,1.75-14.99,2.91c-1.9,0.8-3.47,1.33-3.42,4.23c-0.05,0.19-0.22,0.33-0.37,0.46c-1.68,1.46-2.41,3.23-2.63,5.87
					c-0.26,3.22,1.73,6.71,3.69,9.37c0.49,0.67,0.76,1.14,1.45,1.63c0.69,0.49,1.88,0.73,2.73,0.58c0.85-0.15,2.52-0.08,2.53-0.9
					c0.01-0.58-1.31-1.62-1.67-2.09"/>
			</g>
			<g>
				<path class="st36" d="M200.62,248.23c0,0,0.14,0.54-0.22,0.97c-0.31,0.37-0.95,0.32-1.39,0.19c-1.25-0.38-2.11-1.53-2.34-2.71
					c-0.28-1.39,0.52-2.79,1.87-2.43c0.79,0.21,1.29,1.06,1.28,1.83"/>
			</g>
			<g>
				<path class="st35" d="M211.44,252.52l-3.77,0.65c0,0,1.26,1.33,3.82,1.33"/>
			</g>
		</g>
	</g>
	<g>
		<g>
			<g>
				<polyline class="st18" points="524.54,293.55 529.4,295.88 527.6,291.21 				"/>
			</g>
			<g>
				<path class="st18" d="M529.38,286.92c0.01,4.52-3.65,8.18-8.17,8.19c-4.52,0.01-8.18-3.65-8.19-8.17
					c-0.01-4.52,3.65-8.18,8.17-8.19C525.71,278.75,529.38,282.4,529.38,286.92z"/>
				<polyline class="st19" points="517.61,287.32 520.83,290.44 525.13,284.62 				"/>
			</g>
		</g>
		<g>
			<g>
				<g>
					<g>
						<g>
							<path class="st30" d="M554.5,458.8l-1.33-71.05h4.73l-1.33,71.05c-0.02,0.72-0.48,1.3-1.03,1.3
								C554.98,460.1,554.52,459.52,554.5,458.8z"/>
						</g>
					</g>
				</g>
				<g>
					<g>
						<g>
							<path class="st30" d="M597.94,451.41l-27.45-65.54l4.39-1.74l24.98,66.53c0.25,0.68,0.04,1.39-0.48,1.59
								C598.86,452.45,598.22,452.08,597.94,451.41z"/>
						</g>
					</g>
				</g>
				<g>
					<g>
						<g>
							<path class="st30" d="M513.14,453.04l27.45-65.54l-4.39-1.74l-24.98,66.53c-0.25,0.68-0.04,1.39,0.48,1.59
								C512.21,454.07,512.86,453.7,513.14,453.04z"/>
						</g>
					</g>
				</g>
				<g>
					<g>
						<g>
							<path class="st39" d="M575.64,386.16l-2.8,1.11l25.8,64.93c-0.29-0.14-0.56-0.41-0.71-0.78l-27.45-65.54l4.39-1.74
								L575.64,386.16z"/>
						</g>
					</g>
				</g>
				<g>
					<g>
						<g>
							<path class="st39" d="M557.87,389.62h-3.52l1.32,70.47c-0.04,0.01-0.08,0.02-0.12,0.02c-0.56,0-1.02-0.58-1.03-1.3
								l-1.33-71.05h4.73L557.87,389.62z"/>
						</g>
					</g>
				</g>
				<g>
					<g>
						<g>
							<path class="st39" d="M511.21,452.27l24.98-66.53l4.39,1.74l-0.5,1.21l-2.72-1.08l-24.84,66.14
								c-0.27,0.16-0.57,0.21-0.83,0.11C511.18,453.66,510.96,452.95,511.21,452.27z"/>
						</g>
					</g>
				</g>
			</g>
			<g>
				<g>
					<g>
						<g>
							<path class="st40" d="M522.97,396.2c4.79,3.9,11.9,7.49,29.94,7.85c23.73,0.47,36.16-2.23,42.9-14.46
								c11.26-20.44-2.83-86.47-25.06-71.85c-18.58,12.23-22.3,51.27-24.76,56.66C543.53,379.8,511.34,386.74,522.97,396.2z"/>
						</g>
					</g>
				</g>
			</g>
			<g>
				<g>
					<g>
						<path class="st41" d="M548.8,398.99c23.73,0.47,36.16-2.23,42.9-14.46c7.69-13.95,3.56-49.14-6.9-65.43
							c13.39,12.41,19.64,54.83,11.01,70.49c-6.74,12.24-19.17,14.93-42.9,14.46c-18.04-0.36-25.14-3.95-29.94-7.85
							c-1.63-1.33-2.4-2.61-2.51-3.84C525.27,395.77,532.65,398.68,548.8,398.99z"/>
					</g>
				</g>
			</g>
		</g>
		<g>
			<g>
				<path class="st42" d="M539.05,302.25c-0.99,0.4-1.75,1.34-1.93,2.4c-0.18,1.06,0.22,2.2,1.02,2.91c-0.92,0.03-1.54,1.09-1.43,2
					c0.11,0.92,0.73,1.68,1.36,2.36c0.73,0.77,1.61,1.54,2.67,1.56c0.77,0.01,1.49-0.38,2.06-0.9c0.4-0.37,0.75-0.82,0.96-1.32
					c0.24-0.58,0.29-1.21,0.34-1.83c0.18-2.18,0.37-4.36,0.55-6.54c0.04-0.44,0.05-0.95-0.26-1.27"/>
			</g>
			<g>
				<path class="st36" d="M557.86,316.66c0.14,2.84-0.06,7.78,0.75,8.51c0.81,0.73,6.53,0.7,6.53,0.7s-12.47,11.76-13.31,11.11
					c-0.84-0.65-11.92-9.68-9.43-10.15c2.49-0.47,4.93-0.37,4.86-1.66c-0.07-1.29-0.14-2.58-0.21-3.87"/>
			</g>
			<g>
				<path class="st36" d="M557.86,316.66c0.14,2.84-0.06,7.78,0.75,8.51c0.81,0.73,6.53,0.7,6.53,0.7s-12.47,11.76-13.31,11.11
					c-0.84-0.65-11.92-9.68-9.43-10.15c2.49-0.47,4.93-0.37,4.86-1.66c-0.07-1.29-0.14-2.58-0.21-3.87"/>
			</g>
			<path class="st6" d="M576.08,359.41l-5.6,18.42l-1.93,2.12c0,0-16.76,1.9-21.89,2.14c-0.22,0.01-0.43,0.02-0.61,0.02
				c-4.21,0.09-4-2.11-4-2.11c-0.04-0.98-0.11-2.26-0.2-3.68c-0.35-5.27-0.98-12.66-1.67-15.57c-0.81-3.46-1.17-4.74-1.88-8.02
				c-1.57-7.3-1.5-8.69-3.17-17.69l10.92-8.78c0,0,1.13,3.36,5.71,3.41c6.12,0.08,8.03-4.21,8.03-4.21l14.89,9.9L576.08,359.41z"/>
			<g>
				<path class="st36" d="M558.07,314.09c-0.33,1.43-0.76,2.83-1.29,4.2c-0.97,2.51-2.39,3.41-5.05,3.47
					c-1.87,0.04-3.73,0.09-5.6,0.13c-1.43,0.03-3.22,0.08-4.37-0.92c-1.15-1-1.17-2.67-1.43-4.05c-0.33-1.77-0.59-3.54-0.79-5.33
					c-0.4-3.49-0.57-7.02-0.49-10.53c0.01-0.48,0.02-0.97,0.13-1.44c0.04-0.19,0.1-0.39,0.24-0.53c0.17-0.17,0.43-0.22,0.67-0.26
					c3.5-0.55,7.05-0.78,10.58-0.68c2.5,0.07,5.15,0.36,7.13,1.89c1.99,1.54,2.94,4.04,3.79,6.41c0.14,0.38,0.24,0.89-0.09,1.12"/>
			</g>
			<g>
				<g>
					<path class="st36" d="M518.07,441.56c0,0,0.59,3.51,1.05,4.72c0.47,1.2,4.41,0.09,4.67-0.68c0.26-0.78-1.24-6.49-1.24-6.49"/>
					<path class="st43" d="M525.16,446.58c0.34,1.3,0.77,3.78,0.77,3.78l-3.94,1.72l-0.65-0.61c0,0-0.98,1.18-2.19,1.74
						c-0.9,0.41-2.83,0.95-3.81,1.06c-3.44,0.37-5.97-0.28-6.17-0.75c-0.85-1.99,3.71-2.53,4.62-2.76c2.6-0.68,4.05-2.89,4.32-4.33
						c0.2-1.04-0.06-1.23,0.53-1.2c0,0,0.51-0.03,0.99,0.46c0.73,0.75,1.82,1.09,2.8,0.65c0.56-0.25,1.09-0.62,1.4-1.16
						C523.82,445.18,524.82,445.29,525.16,446.58z"/>
				</g>
				<g>
					<g>
						<path class="st44" d="M546.66,382.09l-11.19,13.53c-0.45,0.09-0.89,0.17-1.34,0.24c-2.87,0.48-6.03,0.73-9.18,0.77
							c-3.32,0.05-6.63-0.14-9.6-0.54c0.87,2.5,3.01,5.7,3.82,9.21c2.68,11.6,3.61,27.19,4.3,36.83c0,0-1.3,2.47-5.43,0.59
							c-6.16-15.23-16.94-46.12-16.83-52.81c0.02-1.58,0.87-3.03,2.4-4.34c0.08-0.08,0.16-0.14,0.24-0.21
							c1.7-1.39,4.16-2.63,7.23-3.71c0.09-0.02,0.17-0.06,0.26-0.09c7.31-2.56,17.93-4.28,29.69-5.17c0.09-0.01,0.18-0.01,0.27-0.02
							c0.17-0.01,0.35-0.03,0.54-0.04v0.01c0.09,1.43,0.16,2.69,0.2,3.67c0,0-0.21,2.2,4,2.11
							C546.24,382.11,546.44,382.1,546.66,382.09z"/>
					</g>
					<g class="st45">
						<path class="st46" d="M546.66,382.09l-11.19,13.53c-0.45,0.09-0.89,0.17-1.34,0.24c-3.09,0.53-6.12,0.77-9.18,0.77
							c-0.33-0.64-0.64-1.3-0.78-1.99c-0.19-0.93-0.09-1.9-0.25-2.83c-0.31-1.82-1.63-3.37-3.21-4.32c-1.58-0.96-3.42-1.41-5.24-1.7
							c-4.11-0.66-11.11-0.26-11.85-0.21c-0.04,0-0.06,0-0.06,0c0.1-0.07,0.2-0.15,0.3-0.21c2.05-1.47,4.52-2.69,7.23-3.71
							c0.09-0.02,0.17-0.06,0.26-0.09c9.72-3.59,22.39-4.69,29.69-5.17c0.09-0.01,0.18-0.01,0.27-0.02
							c0.18-0.01,0.36-0.02,0.54-0.03c0.09,1.43,0.16,2.69,0.2,3.67c0,0-0.21,2.2,4,2.11C546.24,382.11,546.44,382.1,546.66,382.09z
							"/>
					</g>
				</g>
				<g>
					<path class="st36" d="M528.24,449.67c0,0-0.03,3.56,0.22,4.83c0.25,1.26,4.33,0.86,4.72,0.14c0.39-0.72-0.1-6.61-0.1-6.61"/>
					<path class="st43" d="M534.36,455.85c0.11,1.34,0.1,3.86,0.1,3.86l-4.18,1.01l-0.53-0.71c0,0-1.17,1-2.45,1.34
						c-0.96,0.25-2.95,0.45-3.94,0.38c-3.45-0.23-5.83-1.31-5.95-1.81c-0.5-2.11,4.09-1.85,5.03-1.92c2.68-0.22,4.49-2.15,5.01-3.52
						c0.38-0.99,0.16-1.22,0.73-1.09c0,0,0.51,0.06,0.89,0.63c0.59,0.87,1.61,1.39,2.64,1.13c0.59-0.15,1.18-0.43,1.58-0.9
						C533.28,454.23,534.24,454.51,534.36,455.85z"/>
				</g>
				<g>
					<path class="st44" d="M573.38,377.84c1.64,3.82,2.72,10.73,1.07,13.69c-1.45,2.59-2.13,4.2-4.59,5.02
						c-10.53,3.49-20.5,2.05-32.08,0.51c4.9,13.26-2.21,41.65-3.31,53.68c-4.45,1.98-6.97-0.13-6.97-0.13
						c0.51-24.5-4.96-58.72-1.65-64.57c2.01-3.56,25.99-8.26,26.47-8.19"/>
				</g>
			</g>
			<g>
				<path class="st42" d="M555,309.8c0.2-0.84,1.51-0.91,2.11-0.27c0.59,0.63,0.66,1.58,0.69,2.44c0.04,1.07-0.49,2.16-1.06,3.08
					s-1.41,1.44-2.18,0.69c-0.06,1.57,1.2,2.84,2.29,2.91c1.1,0.07,2.19-0.69,2.51-1.74c4.74,1.74,6.24-5.12,6.53-8.55
					c0.23-2.69-0.67-5.96-2.14-8.22c-0.8-1.23-2-2.26-3.43-2.59c-0.15-1.74-1.42-3.23-2.94-4.1c-1.52-0.87-2.88-1.26-4.6-1.61
					c-1.06-0.21-3.94,0.56-4.48,1.64c-2.01-1.16-3.81-0.04-5.41,0.15c-1.6,0.19-3.38,1.67-2.7,3.13c-2.51-0.76-5.23,2.1-4.48,4.61
					c0.75,2.51,4.39,3.49,6.39,1.8c0.73,1.64,2.61,2.57,4.41,2.58c1.8,0.01,3.52-0.76,5.03-1.73c-0.51,0.93-0.67,2.2-0.18,3.28
					c0.49,1.08,0.89,1.88,2.49,1.55c0,0-0.14,2.49,0.42,2.26C554.86,310.85,555,309.8,555,309.8z"/>
			</g>
			<g>
				<path class="st6" d="M522.95,371.63c6.39-9.2,9.8-16.46,15.36-26.18l7.75-19.19c0,0-2.61,0.14-3.12,0.18
					c-2.18,0.17-4.4,0.46-6.46,1.22c-2.96,1.1-6.02,3.11-7.46,6.01c-1.29,2.58-2.07,5.39-3.16,8.05c-1.22,2.98-2.51,5.92-3.81,8.87
					c-2.58,5.84-5.22,11.66-7.4,17.67"/>
			</g>
			<polygon class="st33" points="537.23,347.34 536.19,341.11 528.55,357.86 531.08,358.48 			"/>
			<g>
				<g>
					<path d="M573.97,335.04c0.4,7.62,0.43,15.27,0.02,22.9c-0.41,7.65-1.7,15.15-2.38,22.76c-0.04,0.43,0.65,0.52,0.75,0.1
						c1.77-7.22,2.22-14.97,2.61-22.37c0.41-7.8,0.32-15.59-0.23-23.38C574.71,334.54,573.94,334.53,573.97,335.04L573.97,335.04z"
						/>
				</g>
			</g>
			<g>
				
					<rect x="505.31" y="379.54" transform="matrix(-1 -1.224647e-16 1.224647e-16 -1 1069.6848 761.1941)" class="st47" width="59.07" height="2.12"/>
				<path class="st47" d="M494.77,381.66h47.29l-8.48-27.64c-0.47-1.53-1.88-2.57-3.47-2.57h-41.41c-1.59,0-2.72,1.53-2.25,3.05
					L494.77,381.66z"/>
				<path class="st48" d="M494.18,381.66h46.57l-8.48-27.64c-0.47-1.53-1.88-2.57-3.47-2.57h-41.41c-1.58,0-2.72,1.53-2.25,3.05
					l8.12,26.48C493.38,381.38,493.75,381.66,494.18,381.66z"/>
				<path class="st47" d="M515.88,366.86c0,2.63-2.13,4.77-4.77,4.77c-2.63,0-4.77-2.13-4.77-4.77c0-2.63,2.13-4.77,4.77-4.77
					C513.75,362.1,515.88,364.23,515.88,366.86z"/>
			</g>
			<g>
				<path class="st33" d="M567.58,340.05c-2.43,11.01-3.2,23.71-3.89,31.58c-9.13,0.67-11.7,4.18-20.06,7.9c0,0-6.61-1.1-7.3,1.39
					c-0.4,1.44,7.74,2.58,7.74,2.58c7.76,0.04,26.55-3.6,27.93-3.98c1.38-0.38,7.07-28.41,7.23-42.52c0.02-2-0.05-4.18-1.3-5.74
					c-0.66-0.82-1.58-1.39-2.52-1.87c-5.46-2.79-9.5-3.55-15.61-3.94"/>
			</g>
			<g>
				<path class="st36" d="M544.78,381.24c-0.92-1.16-2.59-1.33-4.07-1.29c-1.09,0.03-2.19,0.11-3.27,0.26
					c-0.49,0.07-1.06,0.18-1.11,0.72c-0.05,0.54,2.4,0,3.68,0.37c-2.52,0.22-5.04,0.28-7.57,0.21c-0.29-0.01-0.6-0.02-0.87,0.09
					c-0.27,0.11-0.51,0.37-0.49,0.66c0.01,0.23,0.18,0.42,0.35,0.58c0.7,0.63,1.67,0.89,2.6,1.05c3.86,0.68,7.91,0.56,11.5-1.02"/>
			</g>
			<g>
				<path class="st6" d="M567.58,340.05c-0.2,11.77-1.88,22.46-1.65,34.23c-9.13,0.67-13.78,2.45-22.14,6.17c0,0-0.5,1.66,0.28,3.06
					c0.64,0.23,27.32-0.89,29.52-2.91c1.97-1.82,5.49-29.47,5.65-43.58c0.02-2-0.05-4.18-1.3-5.74c-0.66-0.82-1.58-1.39-2.52-1.87
					c-5.46-2.79-9.5-3.55-15.61-3.94"/>
			</g>
		</g>
	</g>
</g>
<g id="DESIGNED_BY_FREEPIK">
</g>
</svg>
