<svg width="314" height="275" xmlns="http://www.w3.org/2000/svg" xmlns:xlink="http://www.w3.org/1999/xlink" overflow="hidden"><g transform="translate(-215 -343)"><path d="M355.415 566.957 357.825 567.715C361.125 568.748 364.67 566.883 365.701 563.575L420.716 386.937C421.746 383.629 419.885 380.076 416.585 379.043L414.175 378.285C410.875 377.252 407.331 379.117 406.3 382.425L351.285 559.063C350.254 562.363 352.108 565.924 355.415 566.957Z" fill="#233863" fill-rule="evenodd"/><path d="M359.782 569C359.043 569 358.311 568.889 357.587 568.659L355.184 567.909 355.184 567.909C353.306 567.322 351.769 566.031 350.852 564.271 349.936 562.512 349.751 560.507 350.335 558.629L405.179 382.206C405.763 380.32 407.049 378.776 408.801 377.856 410.553 376.935 412.549 376.75 414.42 377.336L416.822 378.093C420.703 379.311 422.877 383.476 421.664 387.373L366.82 563.796C366.236 565.682 364.949 567.226 363.198 568.146 362.133 568.711 360.958 569 359.782 569Z" fill="#233863" fill-rule="evenodd"/><path d="M450.5 608.237 368.745 582.771C359.929 580.024 355.012 570.662 357.764 561.864L412.55 386.721C415.303 377.923 424.684 373.016 433.5 375.763L515.255 401.229C524.071 403.976 528.988 413.338 526.236 422.136L471.45 597.279C468.69 606.077 459.316 610.984 450.5 608.237Z" fill="#2F4770" fill-rule="evenodd"/><path d="M455.455 610C453.702 610 451.918 609.739 450.158 609.188L450.158 609.188 368.513 583.638C363.973 582.216 360.251 579.109 358.044 574.878 355.837 570.655 355.399 565.813 356.818 561.262L411.531 385.541C414.458 376.14 424.466 370.874 433.849 373.816L515.494 399.366C524.871 402.301 530.116 412.335 527.189 421.743L472.476 597.464C470.099 605.099 463.048 610 455.455 610ZM450.826 607.058C454.801 608.302 459.021 607.922 462.706 605.978 466.391 604.041 469.111 600.778 470.352 596.793L525.064 421.072C527.627 412.849 523.036 404.066 514.826 401.497L433.181 375.947C424.978 373.377 416.219 377.98 413.655 386.211L358.943 561.932C357.702 565.917 358.081 570.148 360.02 573.843 361.952 577.538 365.206 580.264 369.181 581.508L450.826 607.058Z" fill="#233863" fill-rule="evenodd"/><path d="M398.889 461.722 420.724 391.776 516.178 421.574 494.343 491.52Z" fill="#FFFFFF" fill-rule="evenodd"/><path d="M494.149 493C494.038 493 493.927 492.985 493.816 492.948L398.779 463.146C398.497 463.057 398.26 462.863 398.127 462.595 397.986 462.335 397.964 462.03 398.053 461.747L419.791 391.783C419.88 391.5 420.073 391.262 420.34 391.128 420.599 390.986 420.903 390.964 421.184 391.053L516.221 420.855C516.503 420.944 516.74 421.138 516.873 421.406 517.014 421.666 517.036 421.971 516.947 422.254L495.209 492.219C495.061 492.695 494.623 493 494.149 493ZM400.498 461.345 493.416 490.484 514.495 422.649 421.577 393.509 400.498 461.345Z" fill="#233863" fill-rule="evenodd"/><path d="M504.262 409C504.187 409 504.113 408.985 504.039 408.962L437.523 387.5C437.129 387.377 436.914 386.94 437.033 386.541 437.152 386.134 437.575 385.911 437.961 386.034L504.477 407.495C504.871 407.618 505.086 408.056 504.967 408.455 504.878 408.785 504.581 409 504.262 409Z" fill="#FFFFFF" fill-rule="evenodd"/><path d="M437.944 410.957 422.638 405.89C422.162 405.735 421.894 405.19 422.04 404.686L422.921 401.677C423.067 401.172 423.58 400.888 424.056 401.042L439.363 406.11C439.838 406.264 440.106 406.809 439.96 407.313L439.079 410.323C438.933 410.835 438.427 411.112 437.944 410.957Z" fill="#FFB44F" fill-rule="evenodd"/><path d="M437.642 411C437.487 411 437.332 410.979 437.183 410.93L437.183 410.93 423.081 406.57C422.269 406.318 421.817 405.464 422.071 404.659L422.89 402.07C423.01 401.678 423.278 401.363 423.646 401.174 424.013 400.985 424.43 400.95 424.818 401.069L438.921 405.429C439.316 405.548 439.634 405.814 439.824 406.178 440.015 406.542 440.05 406.955 439.931 407.34L439.118 409.929C438.998 410.321 438.73 410.636 438.363 410.825 438.13 410.944 437.89 411 437.642 411ZM437.6 409.593C437.664 409.614 437.741 409.579 437.762 409.509L438.575 406.92C438.596 406.864 438.546 406.78 438.49 406.759L424.387 402.399C424.331 402.385 424.246 402.427 424.225 402.483L423.405 405.072C423.384 405.142 423.42 405.212 423.49 405.233L437.6 409.593Z" fill="#233863" fill-rule="evenodd"/><path d="M459.944 416.959 444.638 412.4C444.162 412.26 443.894 411.77 444.04 411.317L444.921 408.609C445.067 408.155 445.58 407.899 446.056 408.038L461.363 412.597C461.838 412.736 462.106 413.227 461.96 413.68L461.079 416.388C460.933 416.849 460.42 417.105 459.944 416.959Z" fill="#FFB44F" fill-rule="evenodd"/><path d="M460.518 418C460.354 418 460.19 417.979 460.033 417.93L460.033 417.93 445.141 413.57C444.284 413.319 443.806 412.465 444.075 411.66L444.932 409.071C445.201 408.266 446.111 407.818 446.968 408.07L461.86 412.43C462.278 412.549 462.613 412.815 462.815 413.179 463.016 413.542 463.053 413.955 462.927 414.34L462.061 416.929C461.935 417.321 461.651 417.636 461.264 417.825 461.032 417.937 460.771 418 460.518 418ZM460.473 416.594C460.533 416.615 460.622 416.566 460.645 416.51L461.51 413.92C461.532 413.864 461.48 413.78 461.42 413.759L446.528 409.4C446.469 409.386 446.379 409.428 446.357 409.484L445.499 412.073C445.477 412.143 445.514 412.213 445.589 412.234L460.473 416.594Z" fill="#233863" fill-rule="evenodd"/><path d="M483.944 424.959 468.638 420.4C468.162 420.26 467.894 419.77 468.04 419.317L468.921 416.609C469.067 416.155 469.58 415.899 470.056 416.038L485.363 420.597C485.838 420.736 486.106 421.227 485.96 421.68L485.079 424.388C484.933 424.849 484.42 425.105 483.944 424.959Z" fill="#FFB44F" fill-rule="evenodd"/><path d="M483.517 426C483.36 426 483.196 425.977 483.032 425.923L483.032 425.923 468.141 421.127C467.284 420.85 466.806 419.91 467.075 419.025L467.932 416.177C468.059 415.746 468.342 415.399 468.73 415.191 469.118 414.983 469.558 414.945 469.968 415.076L484.859 419.872C485.716 420.149 486.194 421.088 485.925 421.974L485.06 424.822C484.852 425.538 484.21 426 483.517 426ZM483.479 424.453C483.547 424.476 483.629 424.437 483.651 424.36L484.516 421.512C484.538 421.435 484.501 421.358 484.427 421.335L469.535 416.539C469.476 416.516 469.386 416.569 469.364 416.631L468.506 419.479C468.484 419.556 468.521 419.633 468.596 419.656L483.479 424.453Z" fill="#233863" fill-rule="evenodd"/><path d="M505.944 431.959 490.638 427.4C490.162 427.26 489.894 426.77 490.04 426.317L490.921 423.609C491.067 423.155 491.58 422.899 492.056 423.038L507.362 427.597C507.838 427.736 508.106 428.227 507.96 428.68L507.079 431.388C506.933 431.849 506.427 432.105 505.944 431.959Z" fill="#FFB44F" fill-rule="evenodd"/><path d="M506.517 433C506.353 433 506.188 432.977 506.032 432.923L506.032 432.923 491.14 428.128C490.722 427.997 490.387 427.704 490.185 427.304 489.984 426.904 489.947 426.449 490.073 426.026L490.931 423.178C491.199 422.293 492.109 421.8 492.967 422.077L507.859 426.873C508.716 427.15 509.194 428.089 508.925 428.974L508.06 431.822C507.933 432.253 507.65 432.6 507.262 432.808 507.031 432.931 506.778 433 506.517 433ZM506.472 431.453C506.539 431.476 506.621 431.437 506.643 431.361L507.508 428.512C507.531 428.435 507.493 428.358 507.419 428.335L492.527 423.54C492.452 423.517 492.378 423.555 492.355 423.632L491.498 426.48C491.475 426.542 491.528 426.634 491.587 426.657L506.472 431.453Z" fill="#233863" fill-rule="evenodd"/><path d="M393.436 483.757 398.802 466.568 491.657 495.554 486.29 512.744Z" fill="#233863" fill-rule="evenodd"/><path d="M486.483 514C486.371 514 486.259 513.985 486.146 513.947L392.786 484.608C392.195 484.42 391.865 483.787 392.052 483.192L397.447 465.792C397.537 465.506 397.731 465.265 398.001 465.129 398.263 464.986 398.569 464.963 398.854 465.054L492.214 494.393C492.805 494.581 493.135 495.214 492.948 495.809L487.553 513.209C487.463 513.495 487.269 513.736 486.999 513.872 486.842 513.962 486.67 514 486.483 514ZM394.529 482.793 485.742 511.462 490.471 496.223 399.258 467.555 394.529 482.793Z" fill="#233863" fill-rule="evenodd"/><path d="M424.637 488C424.447 488 424.258 487.971 424.077 487.921L407.327 482.954C406.328 482.659 405.776 481.646 406.086 480.704L407.546 476.262C407.698 475.802 408.023 475.428 408.477 475.206 408.923 474.983 409.438 474.94 409.922 475.083L426.672 480.05C427.156 480.194 427.549 480.503 427.784 480.934 428.018 481.358 428.064 481.847 427.912 482.307L426.452 486.749C426.187 487.504 425.439 488 424.637 488ZM424.296 487.231C424.886 487.411 425.529 487.094 425.718 486.527L427.178 482.084C427.269 481.811 427.239 481.517 427.103 481.265 426.959 481.013 426.725 480.819 426.437 480.733L409.687 475.766C409.4 475.68 409.09 475.709 408.825 475.838 408.553 475.975 408.356 476.197 408.265 476.471L406.805 480.913C406.616 481.481 406.956 482.084 407.546 482.264L424.296 487.231Z" fill="#FFFFFF" fill-rule="evenodd"/><path d="M449.797 496C449.616 496 449.436 495.971 449.255 495.921L433.268 490.957C432.806 490.813 432.43 490.504 432.207 490.073 431.983 489.65 431.939 489.161 432.084 488.701L433.477 484.262C433.622 483.802 433.932 483.428 434.366 483.205 434.792 482.983 435.283 482.94 435.745 483.083L451.732 488.047C452.194 488.191 452.57 488.5 452.794 488.931 453.017 489.355 453.061 489.843 452.916 490.303L451.523 494.743C451.378 495.203 451.068 495.576 450.635 495.799 450.375 495.928 450.086 496 449.797 496ZM449.472 495.231C449.746 495.318 450.042 495.289 450.295 495.16 450.555 495.023 450.743 494.8 450.83 494.527L452.223 490.088C452.31 489.815 452.281 489.52 452.151 489.269 452.014 489.01 451.79 488.823 451.516 488.737L435.528 483.773C435.254 483.687 434.958 483.715 434.705 483.845 434.445 483.981 434.257 484.204 434.171 484.477L432.777 488.917C432.69 489.19 432.719 489.484 432.849 489.736 432.986 489.987 433.21 490.181 433.485 490.267L449.472 495.231Z" fill="#FFFFFF" fill-rule="evenodd"/><path d="M475.797 504C475.616 504 475.436 503.971 475.255 503.921L459.267 498.954C458.313 498.659 457.786 497.646 458.082 496.704L459.476 492.262C459.621 491.802 459.931 491.428 460.364 491.206 460.79 490.983 461.281 490.94 461.744 491.083L477.732 496.05C478.194 496.194 478.57 496.503 478.794 496.934 479.017 497.358 479.061 497.847 478.916 498.307L477.523 502.735C477.378 503.195 477.068 503.569 476.634 503.792 476.374 503.928 476.086 504 475.797 504ZM475.472 503.231C475.746 503.317 476.042 503.288 476.295 503.159 476.555 503.022 476.743 502.8 476.829 502.527L478.223 498.084C478.31 497.811 478.281 497.517 478.151 497.265 478.014 497.006 477.79 496.819 477.515 496.733L461.527 491.766C461.253 491.68 460.956 491.709 460.704 491.838 460.444 491.975 460.256 492.197 460.169 492.471L458.776 496.913C458.595 497.481 458.92 498.084 459.491 498.264L475.472 503.231Z" fill="#FFFFFF" fill-rule="evenodd"/><path d="M404.509 519.717 392.502 516.052C389.137 515.025 387.239 511.493 388.29 508.204L390.46 501.399C391.511 498.111 395.126 496.256 398.491 497.283L410.498 500.948C413.863 501.975 415.761 505.507 414.71 508.796L412.54 515.601C411.489 518.889 407.874 520.744 404.509 519.717Z" fill="#5A6F8E" fill-rule="evenodd"/><path d="M406.375 521C405.625 521 404.883 520.886 404.149 520.65L392.249 516.872C388.315 515.622 386.112 511.349 387.34 507.35L389.491 500.335C390.72 496.336 394.924 494.097 398.858 495.346L410.751 499.124C414.685 500.373 416.889 504.646 415.66 508.645L413.509 515.661C412.917 517.595 411.613 519.18 409.837 520.124 408.758 520.703 407.574 521 406.375 521ZM396.64 497.289C394.415 497.289 392.339 498.751 391.642 501.021L389.491 508.036C388.629 510.831 390.173 513.825 392.923 514.701L404.824 518.479 404.824 518.479C406.15 518.898 407.566 518.768 408.81 518.106 410.054 517.443 410.968 516.338 411.381 514.99L413.531 507.975C414.393 505.18 412.849 502.186 410.092 501.31L398.199 497.532C397.682 497.365 397.157 497.289 396.64 497.289Z" fill="#233863" fill-rule="evenodd"/><path d="M436.51 529.716 424.502 526.051C421.137 525.024 419.239 521.492 420.29 518.204L422.46 511.399C423.511 508.111 427.126 506.256 430.491 507.283L442.498 510.948C445.863 511.975 447.761 515.507 446.71 518.795L444.54 525.6C443.489 528.896 439.874 530.743 436.51 529.716Z" fill="#5A6F8E" fill-rule="evenodd"/><path d="M438.37 531C437.628 531 436.879 530.89 436.145 530.663L436.145 530.663 424.248 527.031C420.314 525.831 418.112 521.723 419.34 517.879L421.491 511.135C422.083 509.275 423.386 507.752 425.162 506.844 426.937 505.936 428.96 505.753 430.855 506.332L442.753 509.963C446.686 511.164 448.888 515.272 447.66 519.116L445.502 525.86C444.91 527.72 443.607 529.243 441.831 530.151 440.752 530.715 439.561 531 438.37 531ZM436.819 528.569C438.145 528.972 439.561 528.847 440.805 528.21 442.048 527.573 442.962 526.512 443.374 525.215L445.532 518.472C445.944 517.176 445.817 515.792 445.165 514.576 444.513 513.361 443.427 512.468 442.101 512.065L430.204 508.433C428.878 508.03 427.462 508.155 426.218 508.792 424.974 509.429 424.06 510.491 423.648 511.787L421.498 518.53C421.086 519.826 421.213 521.21 421.865 522.426 422.517 523.641 423.603 524.535 424.929 524.937L436.819 528.569Z" fill="#233863" fill-rule="evenodd"/><path d="M468.509 539.716 456.502 536.051C453.137 535.024 451.239 531.492 452.29 528.204L454.46 521.399C455.511 518.111 459.126 516.256 462.491 517.283L474.498 520.948C477.863 521.975 479.761 525.507 478.71 528.795L476.54 535.6C475.496 538.896 471.882 540.743 468.509 539.716Z" fill="#5A6F8E" fill-rule="evenodd"/><path d="M470.37 541C469.636 541 468.886 540.886 468.145 540.65L456.248 536.873C452.314 535.624 450.112 531.352 451.34 527.354L453.491 520.34C454.082 518.406 455.386 516.822 457.162 515.878 458.937 514.934 460.96 514.743 462.855 515.345L474.752 519.122C478.686 520.371 480.888 524.643 479.66 528.641L477.509 535.654C476.513 538.914 473.554 541 470.37 541ZM460.638 517.294C459.799 517.294 458.975 517.5 458.203 517.911 456.959 518.574 456.045 519.678 455.633 521.026L453.483 528.039C452.622 530.834 454.165 533.827 456.922 534.702L468.819 538.479 468.819 538.479C471.568 539.355 474.513 537.786 475.374 534.992L477.524 527.978C478.386 525.184 476.843 522.191 474.093 521.315L462.196 517.538C461.679 517.378 461.155 517.294 460.638 517.294Z" fill="#233863" fill-rule="evenodd"/><path d="M396.509 544.716 384.502 541.051C381.137 540.024 379.239 536.492 380.29 533.204L382.46 526.399C383.511 523.111 387.126 521.256 390.491 522.283L402.498 525.948C405.863 526.975 407.761 530.507 406.71 533.795L404.54 540.6C403.489 543.896 399.874 545.743 396.509 544.716Z" fill="#5A6F8E" fill-rule="evenodd"/><path d="M398.368 546C397.634 546 396.885 545.89 396.143 545.67L396.143 545.67 384.252 542.037C382.349 541.458 380.792 540.183 379.863 538.447 378.935 536.711 378.748 534.732 379.339 532.879L381.496 526.132C382.724 522.285 386.918 520.131 390.857 521.333L402.748 524.967C404.651 525.545 406.208 526.82 407.137 528.556 408.065 530.293 408.253 532.271 407.661 534.124L405.512 540.872C404.508 543.993 401.55 546 398.368 546ZM396.81 543.568C399.558 544.403 402.501 542.901 403.362 540.212L405.512 533.465C405.924 532.168 405.796 530.784 405.145 529.567 404.493 528.351 403.407 527.458 402.082 527.055L390.19 523.421C388.865 523.018 387.449 523.143 386.206 523.78 384.963 524.417 384.049 525.479 383.638 526.776L381.481 533.524C381.069 534.82 381.196 536.205 381.848 537.421 382.499 538.637 383.585 539.531 384.911 539.934L396.81 543.568Z" fill="#233863" fill-rule="evenodd"/><path d="M428.509 554.717 416.502 551.052C413.137 550.025 411.239 546.493 412.29 543.204L414.46 536.399C415.511 533.111 419.126 531.256 422.491 532.283L434.498 535.948C437.863 536.975 439.761 540.507 438.71 543.796L436.54 550.601C435.496 553.889 431.882 555.744 428.509 554.717Z" fill="#5A6F8E" fill-rule="evenodd"/><path d="M430.373 556C429.639 556 428.889 555.89 428.148 555.67L428.148 555.67 416.253 552.037C414.35 551.458 412.792 550.183 411.864 548.447 410.935 546.711 410.747 544.732 411.339 542.879L413.489 536.132C414.717 532.285 418.92 530.131 422.852 531.333L434.747 534.967C436.65 535.545 438.208 536.82 439.136 538.556 440.065 540.293 440.253 542.271 439.661 544.124L437.511 550.872C436.522 553.993 433.564 556 430.373 556ZM428.822 553.575C431.571 554.418 434.515 552.908 435.376 550.22L437.526 543.472C437.938 542.176 437.811 540.791 437.159 539.575 436.507 538.359 435.421 537.465 434.095 537.062L422.2 533.428C419.451 532.593 416.508 534.095 415.646 536.784L413.496 543.531C413.085 544.828 413.212 546.212 413.864 547.428 414.515 548.645 415.601 549.538 416.927 549.941L428.822 553.575Z" fill="#233863" fill-rule="evenodd"/><path d="M460.51 564.717 448.502 561.052C445.137 560.025 443.239 556.493 444.29 553.204L446.46 546.399C447.511 543.111 451.126 541.256 454.491 542.283L466.498 545.948C469.863 546.975 471.761 550.507 470.71 553.796L468.54 560.601C467.489 563.889 463.874 565.744 460.51 564.717Z" fill="#5A6F8E" fill-rule="evenodd"/><path d="M462.361 566C461.627 566 460.878 565.89 460.136 565.67L460.136 565.67 448.245 562.037C444.314 560.835 442.112 556.725 443.34 552.879L445.497 546.132C446.725 542.285 450.918 540.131 454.857 541.333L466.749 544.967C468.651 545.545 470.208 546.82 471.137 548.556 472.065 550.293 472.253 552.271 471.661 554.124L469.512 560.872C468.501 563.993 465.543 566 462.361 566ZM460.81 563.575C463.559 564.418 466.502 562.908 467.363 560.22L469.512 553.472C469.924 552.176 469.796 550.791 469.145 549.575 468.493 548.359 467.408 547.465 466.082 547.062L454.191 543.428C452.865 543.025 451.45 543.15 450.207 543.787 448.964 544.425 448.05 545.487 447.639 546.784L445.482 553.531C444.621 556.22 446.163 559.099 448.912 559.941L460.81 563.575Z" fill="#233863" fill-rule="evenodd"/><path d="M388.509 569.717 376.502 566.052C373.137 565.025 371.239 561.493 372.29 558.204L374.46 551.399C375.511 548.111 379.126 546.256 382.491 547.283L394.498 550.948C397.863 551.975 399.761 555.507 398.71 558.796L396.54 565.601C395.489 568.889 391.874 570.744 388.509 569.717Z" fill="#3AAED5" fill-rule="evenodd"/><path d="M390.377 571C389.628 571 388.886 570.89 388.152 570.663L388.152 570.663 376.254 567.031C374.351 566.453 372.793 565.179 371.864 563.444 370.935 561.708 370.747 559.731 371.339 557.879L373.49 551.135C374.081 549.275 375.385 547.752 377.161 546.844 378.936 545.936 380.959 545.753 382.855 546.332L394.752 549.963C398.686 551.164 400.888 555.272 399.66 559.116L397.509 565.86C396.917 567.72 395.614 569.243 393.838 570.151 392.759 570.715 391.568 571 390.377 571ZM388.826 568.569C390.152 568.972 391.568 568.847 392.812 568.21 394.056 567.573 394.97 566.512 395.382 565.215L397.532 558.472C397.944 557.176 397.817 555.792 397.165 554.576 396.513 553.361 395.427 552.468 394.1 552.065L382.203 548.433C380.877 548.03 379.461 548.155 378.217 548.792 376.973 549.429 376.059 550.491 375.647 551.787L373.497 558.53C373.085 559.826 373.212 561.21 373.864 562.426 374.516 563.641 375.602 564.535 376.928 564.937L388.826 568.569Z" fill="#233863" fill-rule="evenodd"/><path d="M420.898 579.717 409.335 576.052C406.095 575.025 404.267 571.493 405.279 568.204L407.369 561.399C408.381 558.111 411.862 556.256 415.102 557.283L426.665 560.948C429.905 561.975 431.733 565.507 430.721 568.796L428.631 575.601C427.619 578.889 424.138 580.744 420.898 579.717Z" fill="#FFB44F" fill-rule="evenodd"/><path d="M422.372 582C421.63 582 420.881 581.886 420.147 581.65L408.253 577.873C406.35 577.271 404.792 575.946 403.863 574.141 402.935 572.336 402.747 570.28 403.339 568.354L405.496 561.34C406.088 559.406 407.391 557.822 409.167 556.878 410.942 555.934 412.964 555.743 414.859 556.345L426.754 560.122C430.686 561.371 432.888 565.643 431.66 569.641L429.51 576.654C428.918 578.589 427.615 580.172 425.84 581.117 424.754 581.703 423.563 582 422.372 582ZM412.642 558.294C411.803 558.294 410.979 558.5 410.208 558.911 408.964 559.574 408.05 560.678 407.639 562.026L405.481 569.039C405.069 570.387 405.197 571.826 405.848 573.09 406.5 574.354 407.586 575.284 408.912 575.702L420.806 579.479 420.806 579.479C422.132 579.898 423.548 579.769 424.791 579.106 426.034 578.444 426.948 577.34 427.36 575.992L429.51 568.978C430.371 566.184 428.828 563.191 426.079 562.315L414.185 558.538C413.683 558.37 413.166 558.294 412.642 558.294Z" fill="#233863" fill-rule="evenodd"/><path d="M452.51 589.717 440.502 586.052C437.137 585.025 435.239 581.493 436.29 578.204L438.46 571.399C439.511 568.111 443.126 566.256 446.491 567.283L458.498 570.948C461.863 571.975 463.761 575.507 462.71 578.796L460.54 585.601C459.496 588.889 455.882 590.744 452.51 589.717Z" fill="#3D85FD" fill-rule="evenodd"/><path d="M454.373 591C453.623 591 452.882 590.89 452.148 590.663L452.148 590.663 440.253 587.031C438.35 586.453 436.792 585.179 435.864 583.444 434.935 581.708 434.747 579.731 435.339 577.879L437.489 571.135C438.081 569.275 439.384 567.752 441.159 566.844 442.935 565.936 444.957 565.753 446.852 566.332L458.747 569.963C460.65 570.542 462.208 571.816 463.136 573.551 464.065 575.287 464.253 577.264 463.661 579.116L461.511 585.86C460.919 587.72 459.616 589.243 457.841 590.151 456.755 590.715 455.571 591 454.373 591ZM452.822 588.569C454.148 588.972 455.564 588.847 456.807 588.21 458.05 587.573 458.964 586.512 459.376 585.215L461.526 578.472C461.938 577.176 461.811 575.792 461.159 574.576 460.507 573.361 459.421 572.468 458.095 572.065L446.2 568.433C444.875 568.03 443.459 568.155 442.215 568.792 440.972 569.429 440.058 570.491 439.646 571.787L437.496 578.53C437.085 579.826 437.212 581.21 437.864 582.426 438.515 583.641 439.601 584.534 440.927 584.937L452.822 588.569Z" fill="#233863" fill-rule="evenodd"/><path d="M449.465 611.778 367.532 586.66C364.887 585.853 363.401 583.065 364.23 580.468L364.23 580.468C365.051 577.871 367.89 576.411 370.535 577.226L452.468 602.344C455.113 603.151 456.599 605.938 455.77 608.535L455.77 608.535C454.941 611.125 452.11 612.585 449.465 611.778Z" fill="#233863" fill-rule="evenodd"/><path d="M450.861 614C450.257 614 449.646 613.91 449.035 613.715L449.035 613.715 367.309 588.064C364.083 587.052 362.272 583.584 363.278 580.332 364.284 577.089 367.734 575.268 370.968 576.279L452.694 601.931C454.251 602.418 455.533 603.497 456.293 604.958 457.053 606.419 457.21 608.089 456.718 609.655 455.906 612.299 453.476 614 450.861 614ZM449.706 611.573C451.755 612.217 453.953 611.063 454.594 608.996 454.9 607.999 454.803 606.943 454.318 606.007 453.834 605.078 453.022 604.388 452.031 604.081L370.305 578.43C368.256 577.785 366.057 578.939 365.416 581.007 364.776 583.074 365.923 585.277 367.98 585.921L449.706 611.573Z" fill="#233863" fill-rule="evenodd"/><path d="M448 573C448 574.109 447.101 575 446 575 444.891 575 444 574.101 444 573 444 571.891 444.899 571 446 571 447.101 570.992 448 571.891 448 573Z" fill="#FFFFFF" fill-rule="evenodd"/><path d="M416 563.5C416 564.332 415.101 565 414 565 412.891 565 412 564.326 412 563.5 412 562.674 412.899 562 414 562 415.109 561.994 416 562.668 416 563.5Z" fill="#FFFFFF" fill-rule="evenodd"/><path d="M383 552.5C383 553.332 382.101 554 381 554 379.891 554 379 553.326 379 552.5 379 551.668 379.899 551 381 551 382.101 550.994 383 551.668 383 552.5Z" fill="#FFFFFF" fill-rule="evenodd"/><path d="M456 586C456 586.548 455.556 587 455 587 454.452 587 454 586.556 454 586 454 585.452 454.444 585 455 585 455.556 585 456 585.452 456 586Z" fill="#FFFFFF" fill-rule="evenodd"/><path d="M462 521C462 521.554 461.33 522 460.5 522 459.67 522 459 521.554 459 521 459 520.447 459.67 520 460.5 520 461.321 519.994 462 520.447 462 521Z" fill="#233863" fill-rule="evenodd"/><path d="M453 547.5C453 548.33 452.553 549 452 549 451.447 549 451 548.33 451 547.5 451 546.67 451.447 546 452 546 452.553 546 453 546.67 453 547.5Z" fill="#233863" fill-rule="evenodd"/><path d="M491 478.5C491 480.431 489.655 482 488 482 486.345 482 485 480.431 485 478.5 485 476.57 486.345 475 488 475 489.655 475 491 476.57 491 478.5Z" fill="#2F4770" fill-rule="evenodd"/><path d="M488 483C485.792 483 484 480.984 484 478.5 484 476.016 485.792 474 488 474 490.208 474 492 476.016 492 478.5 492.007 480.984 490.208 483 488 483ZM488 476.381C486.963 476.381 486.116 477.333 486.116 478.5 486.116 479.667 486.963 480.619 488 480.619 489.037 480.619 489.884 479.667 489.884 478.5 489.891 477.333 489.044 476.381 488 476.381Z" fill="#233863" fill-rule="evenodd"/><path d="M350 577.5C350 598.211 333.211 615 312.5 615 291.789 615 275 598.211 275 577.5 275 556.789 291.789 540 312.5 540 333.211 540 350 556.789 350 577.5Z" fill="#233863" fill-rule="evenodd"/><path d="M317.409 539.368C337.507 544.113 349.952 564.253 345.206 584.35 340.461 604.447 320.322 616.892 300.224 612.147 280.127 607.401 267.682 587.262 272.427 567.165 277.173 547.067 297.312 534.622 317.409 539.368Z" fill="#233863" fill-rule="evenodd"/><path d="M317.409 539.368C337.507 544.113 349.952 564.253 345.206 584.35 340.461 604.447 320.322 616.892 300.224 612.147 280.127 607.401 267.682 587.262 272.427 567.165 277.173 547.067 297.312 534.622 317.409 539.368Z" fill="#FFB44F" fill-rule="evenodd"/><path d="M308.5 614C287.275 614 270 596.733 270 575.5 270 554.267 287.267 537 308.5 537 329.733 537 347 554.267 347 575.5 347 596.733 329.725 614 308.5 614ZM308.5 539.239C288.502 539.239 272.232 555.51 272.232 575.507 272.232 595.505 288.502 611.776 308.5 611.776 328.498 611.776 344.768 595.505 344.768 575.507 344.768 555.51 328.498 539.239 308.5 539.239Z" fill="#233863" fill-rule="evenodd"/><path d="M309 607C291.904 607 278 593.096 278 576 278 558.904 291.904 545 309 545 326.096 545 340 558.904 340 576 340 593.096 326.089 607 309 607ZM309 546.503C292.734 546.503 279.495 559.741 279.495 576.008 279.495 592.274 292.734 605.513 309 605.513 325.266 605.513 338.505 592.274 338.505 576.008 338.505 559.741 325.266 546.503 309 546.503Z" fill="#FFFFFF" fill-rule="evenodd"/><path d="M308.5 603C293.337 603 281 590.663 281 575.5 281 560.337 293.337 548 308.5 548 323.663 548 336 560.337 336 575.5 336 590.663 323.663 603 308.5 603ZM308.5 549.487C294.155 549.487 282.487 561.155 282.487 575.5 282.487 589.845 294.155 601.513 308.5 601.513 322.845 601.513 334.513 589.845 334.513 575.5 334.513 561.163 322.845 549.487 308.5 549.487Z" fill="#FFFFFF" fill-rule="evenodd"/><path d="M319 579.943C319 582.404 318.011 584.782 316.319 586.513 315.179 587.709 313.805 588.544 312.242 588.996L312.242 590.794C312.242 591.652 311.917 592.465 311.343 593.059 310.762 593.661 309.969 594 309.108 594 308.187 594 307.386 593.654 306.79 593.059 306.186 592.457 305.823 591.645 305.823 590.794L305.823 589.342 302.84 589.342C301.489 589.342 300.371 588.913 299.593 588.206 298.838 587.498 298.43 586.49 298.43 585.316 298.43 582.984 300.001 581.81 302.833 581.81L309.901 581.81C310.18 581.81 310.565 581.704 310.845 581.464 311.207 581.185 311.381 580.824 311.381 580.395 311.381 579.77 311.147 579.364 310.671 579.131 310.437 579.025 310.286 578.98 310.18 578.958 310.029 578.935 309.946 578.913 309.946 578.913L306.571 578.913C304.23 578.852 302.063 577.927 300.492 576.407 298.921 574.864 298 572.81 298 570.477 298 568.062 299.035 565.729 300.749 564.013 302.123 562.644 303.905 561.726 305.816 561.402L305.816 560.206C305.816 559.325 306.14 558.58 306.782 557.941 307.409 557.316 308.179 557 309.078 557 309.916 557 310.709 557.346 311.313 557.941 311.932 558.58 312.234 559.333 312.234 560.206L312.234 561.274 313.374 561.274C316.191 561.274 317.845 562.621 317.845 564.954 317.845 567.52 316.191 568.889 313.374 568.889L306.782 568.889C306.027 568.889 305.536 569.379 305.536 570.063 305.536 570.771 305.921 571.35 306.548 571.35L309.788 571.35C312.302 571.35 314.62 572.23 316.319 573.765 318.034 575.323 319 577.483 319 579.943Z" fill="#233863" fill-rule="evenodd"/><path d="M330 577C330 578.653 328.661 580 327 580 325.347 580 324 578.661 324 577 324 575.347 325.339 574 327 574 328.661 574 330 575.339 330 577Z" fill="#233863" fill-rule="evenodd"/><path d="M292 577C292 578.653 290.884 580 289.5 580 288.116 580 287 578.661 287 577 287 575.347 288.116 574 289.5 574 290.884 574 292 575.339 292 577Z" fill="#233863" fill-rule="evenodd"/><path d="M283.671 532.054C282.043 539.597 274.828 544.348 267.555 542.659 260.281 540.97 255.7 533.489 257.329 525.946 258.957 518.403 266.172 513.652 273.445 515.341 280.719 517.022 285.3 524.511 283.671 532.054Z" fill="#233863" fill-rule="evenodd"/><path d="M276.648 516.765C282.852 520.905 284.525 529.291 280.385 535.496 276.244 541.7 267.858 543.373 261.654 539.233 255.449 535.092 253.776 526.706 257.917 520.502 262.057 514.297 270.443 512.624 276.648 516.765Z" fill="#233863" fill-rule="evenodd"/><path d="M276.648 516.765C282.852 520.905 284.525 529.291 280.385 535.496 276.244 541.7 267.858 543.373 261.654 539.233 255.449 535.092 253.776 526.706 257.917 520.502 262.057 514.297 270.443 512.624 276.648 516.765Z" fill="#FFB44F" fill-rule="evenodd"/><path d="M269 542C267.991 542 266.968 541.89 265.945 541.664 262.298 540.845 259.184 538.66 257.182 535.502 255.179 532.345 254.529 528.596 255.34 524.948 256.159 521.301 258.344 518.188 261.501 516.185 264.659 514.182 268.401 513.525 272.055 514.343 275.702 515.162 278.816 517.347 280.818 520.505 282.821 523.662 283.471 527.411 282.66 531.059L282.66 531.059C281.198 537.564 275.402 542 269 542ZM268.971 515.469C266.617 515.469 264.315 516.134 262.283 517.42 259.455 519.211 257.496 522.003 256.765 525.27 256.034 528.537 256.619 531.892 258.41 534.72 260.2 537.549 262.992 539.508 266.259 540.239 272.998 541.744 279.715 537.49 281.227 530.744 281.958 527.477 281.374 524.122 279.583 521.294 277.792 518.466 275 516.507 271.733 515.776 270.813 515.571 269.892 515.469 268.971 515.469ZM281.944 530.898 281.944 530.898 281.944 530.898Z" fill="#233863" fill-rule="evenodd"/><path d="M269.015 539C268.215 539 267.4 538.912 266.601 538.729L266.601 538.729C260.68 537.402 256.945 531.514 258.266 525.596 258.904 522.737 260.628 520.295 263.108 518.719 265.588 517.142 268.53 516.629 271.399 517.267 277.32 518.594 281.055 524.482 279.734 530.392 279.096 533.251 277.372 535.693 274.892 537.27 273.102 538.413 271.077 539 269.015 539ZM266.718 538.194C269.44 538.802 272.236 538.311 274.591 536.815 276.954 535.319 278.583 532.995 279.192 530.282 280.454 524.665 276.902 519.071 271.275 517.81 268.552 517.201 265.757 517.692 263.402 519.188 261.039 520.684 259.41 523.008 258.801 525.721 257.546 531.338 261.098 536.94 266.718 538.194L266.718 538.194Z" fill="#FFFFFF" fill-rule="evenodd"/><path d="M269 538C268.282 538 267.549 537.918 266.817 537.761 261.44 536.557 258.038 531.203 259.242 525.82 259.825 523.218 261.388 520.997 263.646 519.561 265.904 518.126 268.581 517.662 271.183 518.245 276.56 519.449 279.962 524.803 278.758 530.186 277.719 534.83 273.576 538 269 538ZM268.993 518.559C267.221 518.559 265.486 519.06 263.953 520.032 261.822 521.386 260.349 523.479 259.796 525.939 258.659 531.016 261.867 536.071 266.944 537.208 269.404 537.761 271.924 537.312 274.055 535.966 276.186 534.613 277.666 532.519 278.212 530.059 278.765 527.607 278.317 525.079 276.971 522.948 275.617 520.817 273.524 519.337 271.064 518.791L271.064 518.791C270.376 518.634 269.68 518.559 268.993 518.559Z" fill="#FFFFFF" fill-rule="evenodd"/><path d="M272.228 530.138C272.044 530.932 271.541 531.629 270.854 532.07 270.386 532.374 269.876 532.547 269.324 532.581L269.189 533.161C269.125 533.437 268.955 533.678 268.722 533.83 268.488 533.982 268.197 534.037 267.914 533.975 267.609 533.906 267.369 533.74 267.22 533.506 267.064 533.271 267.007 532.981 267.071 532.705L267.177 532.236 266.193 532.022C265.747 531.926 265.407 531.705 265.208 531.422 265.01 531.139 264.953 530.787 265.038 530.408 265.208 529.655 265.817 529.386 266.752 529.593L269.09 530.104C269.182 530.125 269.317 530.118 269.43 530.062 269.572 530 269.657 529.897 269.685 529.752 269.734 529.552 269.685 529.407 269.543 529.29 269.472 529.241 269.423 529.214 269.395 529.2 269.345 529.179 269.317 529.172 269.317 529.172L268.205 528.931C267.44 528.745 266.788 528.289 266.384 527.682 265.98 527.068 265.825 526.343 266.002 525.584 266.179 524.805 266.696 524.121 267.39 523.694 267.95 523.349 268.601 523.183 269.26 523.218L269.345 522.831C269.409 522.548 269.572 522.327 269.834 522.169 270.082 522.01 270.365 521.962 270.662 522.031 270.939 522.093 271.18 522.258 271.328 522.493 271.484 522.741 271.534 523.01 271.463 523.293L271.385 523.638 271.76 523.721C272.688 523.921 273.135 524.48 272.965 525.232 272.773 526.06 272.122 526.385 271.194 526.185L269.012 525.708C268.764 525.653 268.566 525.777 268.516 525.998 268.467 526.226 268.552 526.44 268.757 526.488L269.827 526.723C270.655 526.902 271.357 527.358 271.803 527.972 272.249 528.572 272.405 529.345 272.228 530.138Z" fill="#233863" fill-rule="evenodd"/><path d="M276.975 530.218C276.853 530.761 276.317 531.097 275.782 530.975 275.239 530.853 274.903 530.317 275.025 529.782 275.147 529.239 275.683 528.903 276.218 529.025 276.761 529.147 277.097 529.683 276.975 530.218Z" fill="#233863" fill-rule="evenodd"/><path d="M262.978 527.218C262.855 527.761 262.319 528.097 261.783 527.975 261.24 527.853 260.903 527.317 261.025 526.782 261.148 526.239 261.684 525.903 262.22 526.025 262.755 526.147 263.092 526.683 262.978 527.218Z" fill="#233863" fill-rule="evenodd"/><path d="M261.239 552.209C267.528 560.04 266.278 571.487 258.447 577.777 250.616 584.066 239.169 582.816 232.879 574.985 226.59 567.154 227.839 555.707 235.671 549.417 243.502 543.128 254.949 544.378 261.239 552.209Z" fill="#233863" fill-rule="evenodd"/><path d="M245.529 544.943C255.57 545.178 263.519 553.509 263.284 563.55 263.049 573.591 254.719 581.54 244.678 581.305 234.637 581.07 226.688 572.739 226.923 562.698 227.158 552.658 235.488 544.708 245.529 544.943Z" fill="#233863" fill-rule="evenodd"/><path d="M245.529 544.943C255.57 545.178 263.519 553.509 263.284 563.55 263.049 573.591 254.719 581.54 244.678 581.305 234.637 581.07 226.688 572.739 226.923 562.698 227.158 552.658 235.488 544.708 245.529 544.943Z" fill="#FFB44F" fill-rule="evenodd"/><path d="M245.007 582C236.725 582 229.087 576.529 226.721 568.18 223.865 558.102 229.746 547.578 239.823 544.721 249.907 541.865 260.423 547.746 263.279 557.824 266.135 567.902 260.254 578.426 250.178 581.282 248.457 581.766 246.721 582 245.007 582ZM245.029 546.186C243.491 546.186 241.946 546.399 240.43 546.831 231.518 549.358 226.319 558.659 228.845 567.572 231.372 576.485 240.672 581.685 249.584 579.158 253.905 577.935 257.486 575.101 259.676 571.19 261.865 567.272 262.393 562.738 261.17 558.417 259.947 554.096 257.113 550.515 253.202 548.325 250.661 546.911 247.856 546.186 245.029 546.186Z" fill="#233863" fill-rule="evenodd"/><path d="M245.009 578C238.465 578 232.438 573.686 230.568 567.092 228.317 559.137 232.954 550.831 240.911 548.573 244.762 547.481 248.808 547.96 252.308 549.919 255.807 551.878 258.335 555.07 259.427 558.92 260.519 562.771 260.04 566.815 258.081 570.314 256.122 573.813 252.928 576.34 249.077 577.432 247.731 577.813 246.362 578 245.009 578ZM245.016 548.558C243.7 548.558 242.376 548.737 241.075 549.111 233.418 551.279 228.946 559.279 231.114 566.935 233.283 574.598 241.285 579.054 248.942 576.893L248.942 576.893C252.644 575.847 255.725 573.41 257.61 570.038 259.494 566.666 259.95 562.771 258.903 559.07 257.856 555.362 255.419 552.289 252.046 550.405 249.855 549.179 247.447 548.558 245.016 548.558Z" fill="#FFFFFF" fill-rule="evenodd"/><path d="M244.993 576C242.805 576 240.638 575.44 238.668 574.342 235.637 572.648 233.441 569.879 232.496 566.542 231.551 563.204 231.965 559.7 233.659 556.669 235.353 553.637 238.123 551.441 241.46 550.496L241.46 550.496C244.796 549.551 248.3 549.965 251.332 551.659 254.363 553.353 256.559 556.123 257.504 559.46 258.449 562.797 258.035 566.302 256.341 569.333 254.647 572.365 251.877 574.561 248.54 575.506 247.37 575.833 246.178 576 244.993 576ZM245.007 550.54C243.873 550.54 242.732 550.7 241.605 551.012L241.605 551.012C238.414 551.921 235.76 554.015 234.132 556.923 232.511 559.831 232.111 563.19 233.02 566.382 233.928 569.573 236.022 572.227 238.93 573.855 241.838 575.477 245.196 575.877 248.388 574.968 251.579 574.059 254.24 571.965 255.861 569.057 257.482 566.149 257.882 562.79 256.973 559.599 256.065 556.407 253.971 553.746 251.063 552.125 249.18 551.078 247.108 550.54 245.007 550.54Z" fill="#FFFFFF" fill-rule="evenodd"/><path d="M250.821 563.792C251.162 564.979 251.011 566.26 250.416 567.331 250.02 568.069 249.464 568.659 248.759 569.086L249.012 569.955C249.131 570.366 249.084 570.801 248.885 571.174 248.687 571.538 248.338 571.818 247.918 571.934 247.466 572.058 247.03 572.004 246.649 571.795 246.268 571.585 245.975 571.243 245.856 570.832L245.65 570.126 244.182 570.537C243.516 570.723 242.906 570.669 242.43 570.428 241.962 570.188 241.621 569.761 241.454 569.194 241.129 568.069 241.732 567.285 243.128 566.897L246.601 565.934C246.736 565.895 246.911 565.795 247.022 565.639 247.164 565.453 247.196 565.259 247.133 565.049 247.046 564.747 246.871 564.584 246.609 564.537 246.475 564.514 246.395 564.514 246.34 564.522 246.26 564.529 246.221 564.529 246.221 564.529L244.563 564.987C243.405 565.274 242.208 565.127 241.224 564.607 240.241 564.079 239.495 563.21 239.17 562.084 238.829 560.912 239.011 559.647 239.622 558.591 240.106 557.745 240.859 557.054 241.748 556.635L241.581 556.053C241.454 555.634 241.51 555.223 241.74 554.827 241.962 554.439 242.295 554.183 242.739 554.058 243.151 553.942 243.588 554.004 243.968 554.206 244.365 554.431 244.619 554.749 244.738 555.176L244.888 555.696 245.451 555.541C246.839 555.161 247.839 555.58 248.164 556.705 248.521 557.947 247.902 558.832 246.514 559.22L243.27 560.12C242.898 560.221 242.723 560.532 242.826 560.858 242.921 561.199 243.199 561.425 243.5 561.339L245.095 560.897C246.332 560.555 247.593 560.664 248.64 561.176 249.694 561.696 250.472 562.604 250.821 563.792Z" fill="#233863" fill-rule="evenodd"/><path d="M254.961 561.091C255.114 561.889 254.803 562.713 254.271 562.942 253.74 563.171 253.191 562.704 253.039 561.906 252.886 561.108 253.197 560.285 253.729 560.055 254.26 559.835 254.814 560.293 254.961 561.091Z" fill="#233863" fill-rule="evenodd"/><path d="M236.742 565.115C237.373 565.468 237.599 566.266 237.246 566.897 236.893 567.529 236.095 567.754 235.464 567.401 234.833 567.048 234.607 566.25 234.96 565.619 235.313 564.988 236.111 564.762 236.742 565.115Z" fill="#233863" fill-rule="evenodd"/><path d="M379.648 491.991 302.256 488.135C298.626 487.956 295.823 484.866 296.009 481.24L301.809 364.912C302.36 353.931 311.707 345.476 322.699 346.025L374.071 348.581C385.062 349.131 393.525 358.47 392.975 369.451L387.204 485.163C387.003 489.13 383.62 492.191 379.648 491.991Z" fill="#233863" fill-rule="evenodd"/><path d="M374.648 491.991 297.255 488.135C293.626 487.956 290.83 484.866 291.008 481.24L296.809 364.912C297.359 353.931 306.707 345.476 317.698 346.025L369.071 348.581C380.062 349.131 388.525 358.47 387.975 369.451L382.204 485.163C382.003 489.13 378.627 492.191 374.648 491.991Z" fill="#FFFFFF" fill-rule="evenodd"/><path d="M375.787 493C375.645 493 375.51 493 375.367 492.993L375.367 492.993 297.376 489.143C293.105 488.935 289.8 485.322 290.009 481.086L295.855 364.937C296.14 359.336 298.605 354.188 302.802 350.426 306.999 346.665 312.439 344.751 318.082 345.026L369.859 347.578C381.535 348.156 390.558 358.023 389.973 369.581L384.158 485.114C383.933 489.543 380.216 493 375.787 493ZM375.48 490.767C378.889 490.938 381.745 488.349 381.917 485.003L387.732 369.469C388.25 359.136 380.186 350.315 369.747 349.796L317.977 347.244C312.919 346.992 308.07 348.705 304.316 352.073 300.561 355.434 298.358 360.041 298.103 365.048L292.258 481.197C292.108 484.202 294.453 486.769 297.489 486.917L375.48 490.767Z" fill="#233863" fill-rule="evenodd"/><path d="M369 348.705 369 348.683 295.436 345.018C286.971 344.6 279.747 351.407 279.306 360.23L279 366.298 353.401 370 353.707 363.932C354.133 355.401 360.894 348.75 369 348.705Z" fill="#FFFFFF" fill-rule="evenodd"/><path d="M353.314 371C353.3 371 353.277 371 353.262 371L279.059 367.33C278.441 367.3 277.972 366.775 278.001 366.168L278.307 360.152C278.53 355.631 280.445 351.465 283.694 348.424 286.958 345.368 291.168 343.799 295.565 344.021L368.94 347.654C369.238 347.669 369.522 347.802 369.715 348.024 369.917 348.246 370.013 348.534 369.998 348.83 369.961 349.415 369.477 349.896 368.888 349.896 361.347 349.94 355.133 356.112 354.745 363.941L354.44 369.957C354.425 370.253 354.291 370.527 354.074 370.726 353.858 370.904 353.59 371 353.314 371ZM280.289 365.169 352.256 368.728 352.502 363.822C352.815 357.533 356.414 352.183 361.526 349.504L295.445 346.233C291.66 346.048 288.039 347.395 285.222 350.037 282.398 352.686 280.729 356.319 280.527 360.263L280.289 365.169Z" fill="#233863" fill-rule="evenodd"/><path d="M369 348.705 369 348.683 295.436 345.018C286.971 344.6 279.747 351.407 279.306 360.23L279 366.298 353.401 370 353.707 363.932C354.133 355.401 360.894 348.75 369 348.705Z" fill="#233863" fill-rule="evenodd"/><path d="M332.885 380C332.863 380 332.848 380 332.825 380L314.063 379.116C313.442 379.088 312.971 378.586 313.001 378.006 313.031 377.419 313.577 376.973 314.175 377.001L332.937 377.885C333.558 377.914 334.029 378.416 333.999 378.996 333.976 379.562 333.483 380 332.885 380Z" fill="#233863" fill-rule="evenodd"/><path d="M374.885 383C374.863 383 374.848 383 374.825 383L356.063 382.116C355.442 382.088 354.971 381.586 355.001 381.006 355.031 380.419 355.577 379.967 356.175 380.002L374.937 380.886C375.558 380.914 376.029 381.416 375.999 381.996 375.969 382.555 375.475 383 374.885 383Z" fill="#233863" fill-rule="evenodd"/><path d="M349.899 403C349.884 403 349.87 403 349.848 403L313.057 401.314C312.444 401.283 311.972 400.742 312.001 400.107 312.031 399.465 312.518 398.97 313.153 399.001L349.943 400.687C350.556 400.718 351.028 401.26 350.999 401.894 350.977 402.513 350.49 403 349.899 403Z" fill="#233863" fill-rule="evenodd"/><path d="M326.926 415C326.905 415 326.883 415 326.869 415L312.01 413.883C311.417 413.834 310.966 413.16 311.002 412.36 311.038 411.561 311.545 410.963 312.131 411.002L326.99 412.119C327.584 412.168 328.034 412.842 327.998 413.642 327.97 414.403 327.491 415 326.926 415Z" fill="#233863" fill-rule="evenodd"/><path d="M339.885 392C339.862 392 339.847 392 339.825 392L313.063 390.508C312.443 390.474 311.971 389.879 312.001 389.192 312.031 388.496 312.562 387.968 313.175 388.002L339.937 389.494C340.557 389.527 341.029 390.122 340.999 390.81 340.969 391.472 340.475 392 339.885 392Z" fill="#233863" fill-rule="evenodd"/><path d="M349.829 392C349.806 392 349.79 392 349.766 392L346.116 391.857C345.465 391.833 344.97 391.392 345.001 390.883 345.033 390.368 345.559 389.971 346.234 390.002L349.884 390.144C350.536 390.169 351.03 390.61 350.999 391.119 350.975 391.615 350.449 392 349.829 392Z" fill="#233863" fill-rule="evenodd"/><path d="M375.494 410.441C375.405 412.439 374.518 414.326 373.076 415.673 372.107 416.602 370.954 417.232 369.66 417.546L369.594 419.003C369.564 419.698 369.276 420.342 368.78 420.81 368.285 421.278 367.627 421.527 366.925 421.498 366.17 421.469 365.535 421.161 365.061 420.656 364.588 420.151 364.322 419.478 364.352 418.783L364.403 417.605 361.963 417.502C360.862 417.458 359.96 417.071 359.353 416.471 358.762 415.871 358.466 415.044 358.503 414.085 358.584 412.197 359.908 411.297 362.222 411.392L367.989 411.634C368.218 411.641 368.536 411.568 368.773 411.392 369.083 411.18 369.231 410.887 369.246 410.543 369.268 410.038 369.091 409.702 368.714 409.497 368.522 409.402 368.403 409.365 368.315 409.343 368.196 409.321 368.122 409.299 368.122 409.299L365.372 409.182C363.464 409.05 361.727 408.231 360.499 406.943 359.272 405.64 358.592 403.943 358.673 402.055 358.754 400.094 359.679 398.242 361.143 396.91 362.311 395.849 363.797 395.161 365.372 394.971L365.416 393.998C365.446 393.288 365.734 392.688 366.281 392.19 366.814 391.707 367.449 391.473 368.189 391.502 368.869 391.532 369.512 391.839 369.978 392.344 370.466 392.886 370.681 393.5 370.651 394.217L370.614 395.088 371.546 395.125C373.845 395.22 375.146 396.369 375.065 398.264 374.976 400.342 373.579 401.396 371.279 401.301L365.897 401.074C365.283 401.045 364.862 401.433 364.84 401.989 364.817 402.56 365.113 403.043 365.616 403.065L368.263 403.174C370.311 403.262 372.174 404.052 373.505 405.362 374.865 406.658 375.575 408.443 375.494 410.441Z" stroke="#FFFFFF" stroke-width="1.34761" stroke-miterlimit="8" fill="#233863" fill-rule="evenodd"/><path d="M280 360 296 361" stroke="#233863" stroke-width="2.02142" stroke-linecap="round" stroke-miterlimit="8" fill="none" fill-rule="evenodd"/><path d="M229 422.014 289.3 503 341 464.514 279.557 382 279.03 391.178 270.541 389.16 270.036 397.871 262.007 395.964 261.517 404.355 253.637 402.486 253.162 410.729 245.281 408.859 244.851 416.323 236.213 414.268 235.686 423.29 229 422.014" fill="#3AAED5" fill-rule="evenodd"/><path d="M288.841 504C288.789 504 288.737 504 288.677 503.985 288.385 503.941 288.116 503.785 287.937 503.548L227.223 422.735C226.947 422.365 226.924 421.868 227.171 421.483 227.418 421.098 227.873 420.898 228.329 420.98L233.807 422.009 234.255 414.271C234.277 413.945 234.442 413.642 234.703 413.442 234.965 413.242 235.309 413.175 235.63 413.249L243.028 414.99 243.386 408.866C243.409 408.54 243.573 408.237 243.835 408.037 244.096 407.844 244.44 407.77 244.761 407.844L251.397 409.407 251.8 402.505C251.823 402.18 251.987 401.876 252.249 401.676 252.51 401.476 252.854 401.41 253.175 401.484L259.811 403.046 260.222 395.989C260.244 395.664 260.408 395.36 260.67 395.16 260.932 394.96 261.275 394.894 261.597 394.968L268.382 396.567 268.815 389.199C268.837 388.874 269.002 388.57 269.263 388.37 269.525 388.17 269.869 388.104 270.19 388.178L277.438 389.881 277.894 382.047C277.924 381.58 278.238 381.18 278.694 381.047 279.142 380.914 279.635 381.069 279.912 381.447L341.776 463.793C342.15 464.282 342.045 464.978 341.544 465.348L289.506 503.778C289.312 503.926 289.08 504 288.841 504ZM230.743 423.697 289.073 501.334 339.332 464.26 279.971 385.253 279.613 391.362C279.59 391.687 279.426 391.991 279.164 392.191 278.895 392.391 278.559 392.457 278.238 392.383L270.989 390.68 270.556 398.048C270.534 398.374 270.369 398.677 270.108 398.877 269.839 399.077 269.502 399.144 269.181 399.07L262.396 397.47 261.985 404.527C261.963 404.853 261.798 405.156 261.537 405.356 261.275 405.549 260.932 405.623 260.61 405.549L253.975 403.986 253.571 410.887C253.549 411.213 253.384 411.517 253.123 411.717 252.854 411.909 252.518 411.983 252.196 411.909L245.561 410.347 245.202 416.471C245.18 416.796 245.015 417.1 244.754 417.3 244.492 417.5 244.148 417.566 243.827 417.492L236.429 415.752 235.981 423.431C235.966 423.749 235.809 424.045 235.555 424.245 235.301 424.445 234.972 424.519 234.658 424.46L230.743 423.697Z" fill="#233863" fill-rule="evenodd"/><path d="M247.105 433C246.766 433 246.435 432.845 246.221 432.557 245.853 432.069 245.956 431.374 246.449 431.005L262.232 419.218C262.718 418.856 263.411 418.952 263.779 419.447 264.148 419.935 264.044 420.63 263.551 420.999L247.768 432.786C247.562 432.926 247.334 433 247.105 433Z" fill="#FFFFFF" fill-rule="evenodd"/><path d="M252.097 440C251.761 440 251.431 439.844 251.219 439.554 250.854 439.064 250.956 438.366 251.446 437.994L280.245 416.22C280.728 415.856 281.415 415.952 281.781 416.45 282.146 416.94 282.044 417.639 281.554 418.01L252.755 439.785C252.55 439.933 252.324 440 252.097 440Z" fill="#233863" fill-rule="evenodd"/><path d="M284.087 416C283.754 416 283.427 415.818 283.217 415.48 282.855 414.909 282.956 414.094 283.442 413.661L287.261 410.256C287.739 409.832 288.42 409.944 288.783 410.525 289.145 411.096 289.044 411.911 288.558 412.344L284.739 415.749C284.543 415.914 284.312 416 284.087 416Z" fill="#FFFFFF" fill-rule="evenodd"/><path d="M258.116 449C257.773 449 257.439 448.848 257.223 448.564 256.851 448.085 256.955 447.402 257.454 447.039L268.215 439.215C268.706 438.859 269.413 438.953 269.777 439.44 270.149 439.919 270.045 440.602 269.546 440.965L258.785 448.789C258.584 448.927 258.346 449 258.116 449Z" fill="#233863" fill-rule="evenodd"/><path d="M274.106 437C273.767 437 273.435 436.842 273.221 436.55 272.853 436.054 272.956 435.349 273.45 434.974L294.231 419.222C294.717 418.854 295.41 418.952 295.779 419.454 296.148 419.95 296.044 420.655 295.551 421.03L274.769 436.782C274.563 436.925 274.334 437 274.106 437Z" fill="#233863" fill-rule="evenodd"/><path d="M268.122 462C267.778 462 267.441 461.842 267.224 461.55 266.85 461.054 266.955 460.348 267.456 459.973L291.205 442.222C291.699 441.854 292.402 441.952 292.776 442.455 293.15 442.95 293.045 443.656 292.544 444.032L268.795 461.782C268.593 461.925 268.354 462 268.122 462Z" fill="#FFFFFF" fill-rule="evenodd"/><path d="M303.19 456C302.825 456 302.468 455.849 302.238 455.568 301.841 455.093 301.952 454.417 302.484 454.057L314.096 446.213C314.62 445.86 315.374 445.954 315.762 446.436 316.159 446.911 316.048 447.587 315.516 447.947L303.904 455.791C303.689 455.935 303.436 456 303.19 456Z" fill="#233863" fill-rule="evenodd"/><path d="M310.439 406.255 303 467.217 348.421 473 356 410.889 351.318 414.607 347.863 410.071 343.423 413.601 340.144 409.305 335.866 412.714 332.654 408.501 328.449 411.843 325.237 407.63 321.429 410.656 317.915 406.038 313.313 409.695 310.498 406" fill="#FFB44F" fill-rule="evenodd"/><path d="M348.351 474C348.307 474 348.263 474 348.212 473.993L302.962 468.231C302.361 468.156 301.929 467.594 302.01 466.981L309.421 406.24C309.428 406.15 309.45 406.068 309.479 405.993 309.516 405.708 309.655 405.431 309.897 405.237 310.373 404.855 311.061 404.945 311.435 405.431L313.566 408.23 317.286 405.274C317.513 405.095 317.806 405.012 318.099 405.05 318.384 405.087 318.648 405.237 318.831 405.476L321.665 409.196 324.595 406.868C325.07 406.487 325.759 406.576 326.132 407.063L328.659 410.378 331.984 407.736C332.46 407.355 333.148 407.445 333.522 407.931L336.048 411.246 339.446 408.545C339.922 408.163 340.61 408.253 340.984 408.739L343.569 412.136 347.128 409.308C347.604 408.926 348.292 409.016 348.666 409.502L351.434 413.139 355.228 410.123C355.579 409.847 356.055 409.809 356.443 410.034 356.831 410.258 357.044 410.7 356.992 411.149L349.442 473.035C349.406 473.334 349.259 473.596 349.025 473.783 348.827 473.918 348.593 474 348.351 474ZM304.324 466.135 347.392 471.62 354.481 413.536 351.91 415.579C351.434 415.96 350.738 415.871 350.372 415.384L347.604 411.747 344.045 414.576C343.569 414.958 342.873 414.868 342.507 414.381L339.915 410.992 336.517 413.693C336.29 413.873 335.997 413.962 335.704 413.917 335.418 413.88 335.155 413.73 334.971 413.491L332.445 410.176 329.12 412.817C328.644 413.199 327.948 413.109 327.582 412.623L325.056 409.308 322.127 411.635C321.9 411.815 321.607 411.904 321.314 411.86 321.028 411.822 320.764 411.672 320.581 411.433L317.747 407.714 314.027 410.67C313.551 411.051 312.855 410.962 312.489 410.475L311.288 408.896 304.324 466.135Z" fill="#233863" fill-rule="evenodd"/><path d="M329.232 421C329.202 421 329.171 421 329.141 420.993L314.669 419.369C314.25 419.321 313.953 418.979 314.006 418.602 314.06 418.225 314.44 417.958 314.859 418.006L329.331 419.63C329.75 419.678 330.047 420.02 329.994 420.397 329.941 420.746 329.613 421 329.232 421Z" fill="#FFFFFF" fill-rule="evenodd"/><path d="M340.263 428C340.234 428 340.204 428 340.175 427.992L314.642 424.571C314.24 424.516 313.955 424.123 314.006 423.691 314.057 423.258 314.415 422.951 314.825 423.006L340.358 426.427C340.76 426.482 341.045 426.875 340.994 427.308 340.936 427.709 340.621 428 340.263 428Z" fill="#233863" fill-rule="evenodd"/><path d="M346.246 428C346.216 428 346.186 428 346.156 427.996L342.657 427.772C342.245 427.745 341.954 427.552 342.006 427.339 342.058 427.127 342.425 426.976 342.844 427.003L346.343 427.227C346.755 427.254 347.046 427.447 346.994 427.66 346.942 427.857 346.62 428 346.246 428Z" fill="#FFFFFF" fill-rule="evenodd"/><path d="M323.253 432C323.223 432 323.193 432 323.164 431.995L313.651 431.108C313.243 431.069 312.954 430.792 313.006 430.487 313.058 430.182 313.429 429.966 313.836 430.004L323.349 430.891C323.757 430.93 324.046 431.207 323.994 431.512 323.942 431.795 323.623 432 323.253 432Z" fill="#233863" fill-rule="evenodd"/><path d="M345.253 435C345.224 435 345.194 435 345.165 434.992L326.65 432.559C326.243 432.504 325.954 432.114 326.006 431.685 326.058 431.256 326.428 430.952 326.835 431.006L345.35 433.44C345.757 433.495 346.046 433.885 345.994 434.314 345.942 434.712 345.624 435 345.253 435Z" fill="#233863" fill-rule="evenodd"/><path d="M333.231 444C333.201 444 333.171 444 333.14 443.993L311.67 441.448C311.25 441.398 310.953 441.035 311.006 440.637 311.06 440.238 311.433 439.955 311.86 440.006L333.331 442.55C333.75 442.601 334.047 442.964 333.994 443.362 333.941 443.732 333.605 444 333.231 444Z" fill="#233863" fill-rule="evenodd"/><path d="M342.973 455C342.931 455 342.89 455 342.842 454.994L333.904 453.94C333.339 453.875 332.933 453.387 333.009 452.854 333.078 452.321 333.587 451.937 334.158 452.009L343.096 453.062C343.661 453.127 344.067 453.615 343.991 454.148 343.929 454.642 343.482 455 342.973 455Z" fill="#233863" fill-rule="evenodd"/><path d="M434.62 518.627 314.762 547.8C310.988 548.721 307.184 546.377 306.277 542.572L287.199 462.926C286.285 459.121 288.61 455.287 292.384 454.373L412.243 425.2C416.017 424.279 419.821 426.623 420.727 430.428L439.799 510.074C440.72 513.871 438.394 517.706 434.62 518.627Z" fill="#3D85FD" fill-rule="evenodd"/><path d="M312.348 549C310.862 549 309.399 548.589 308.092 547.797 306.225 546.653 304.919 544.851 304.404 542.728L285.23 463.236C284.17 458.841 286.88 454.408 291.27 453.346L411.726 424.23C416.109 423.169 420.544 425.882 421.604 430.278L440.77 509.77C441.831 514.165 439.12 518.598 434.73 519.659 434.73 519.659 434.73 519.659 434.73 519.659L314.274 548.776C313.639 548.925 312.99 549 312.348 549ZM413.652 426.241C413.189 426.241 412.726 426.293 412.256 426.405L291.8 455.522C288.612 456.292 286.648 459.513 287.417 462.705L306.584 542.198C306.957 543.745 307.905 545.053 309.264 545.883 310.623 546.713 312.221 546.967 313.759 546.593L434.215 517.477 434.215 517.477C437.403 516.707 439.374 513.485 438.605 510.293L419.439 430.801C418.774 428.072 416.333 426.241 413.652 426.241ZM434.476 518.568 434.476 518.568 434.476 518.568Z" fill="#233863" fill-rule="evenodd"/><path d="M398.031 427.813 362.748 436.406 370.949 470.002C372.013 474.358 368.285 479.011 362.614 480.393L362.614 480.393C351.853 483.01 344.775 491.847 346.792 500.12L346.792 500.12C347.648 503.621 344.649 507.36 340.094 508.467L340.094 508.467C327.39 511.56 319.018 521.995 321.407 531.77L324.637 545 432.421 518.755C437.749 517.454 441.016 512.095 439.714 506.765L421.846 433.566C420.379 427.546 414.299 423.851 408.271 425.323L398.031 427.813Z" fill="#233863" fill-rule="evenodd" fill-opacity="0.360784"/><path d="M333.41 502.963 316.803 506.979C316.386 507.076 315.969 506.828 315.87 506.415L315.021 502.963C314.923 502.549 315.173 502.135 315.59 502.037L332.198 498.021C332.615 497.924 333.031 498.172 333.13 498.585L333.979 502.037C334.078 502.444 333.82 502.865 333.41 502.963Z" fill="#233863" fill-rule="evenodd"/><path d="M353.439 497.963 337.708 501.979C337.313 502.076 336.918 501.828 336.824 501.415L336.02 497.963C335.927 497.549 336.164 497.135 336.559 497.037L352.29 493.021C352.685 492.924 353.08 493.172 353.173 493.585L353.977 497.037C354.078 497.451 353.834 497.865 353.439 497.963Z" fill="#233863" fill-rule="evenodd"/><path d="M374.41 492.963 357.803 496.979C357.386 497.076 356.969 496.828 356.87 496.415L356.021 492.963C355.923 492.549 356.173 492.135 356.59 492.037L373.198 488.021C373.615 487.924 374.031 488.172 374.13 488.585L374.979 492.037C375.078 492.451 374.82 492.865 374.41 492.963Z" fill="#233863" fill-rule="evenodd"/><path d="M394.441 487.963 378.708 491.979C378.313 492.076 377.918 491.828 377.825 491.415L377.02 487.963C376.927 487.549 377.164 487.135 377.559 487.037L393.292 483.021C393.687 482.924 394.082 483.172 394.176 483.585L394.98 487.037C395.073 487.451 394.836 487.865 394.441 487.963Z" fill="#233863" fill-rule="evenodd"/><path d="M332.435 514.945 319.315 517.981C318.915 518.07 318.515 517.843 318.421 517.463L318.021 515.904C317.926 515.524 318.166 515.145 318.566 515.055L331.685 512.02C332.085 511.93 332.485 512.157 332.58 512.537L332.98 514.096C333.074 514.476 332.827 514.855 332.435 514.945Z" fill="#FFFFFF" fill-rule="evenodd"/><path d="M410.342 440.526 396.206 442.989C395.774 443.063 395.373 442.753 395.304 442.304L395.01 440.428C394.941 439.971 395.226 439.547 395.658 439.474L409.794 437.011C410.226 436.937 410.627 437.247 410.697 437.696L410.99 439.572C411.059 440.02 410.766 440.453 410.342 440.526Z" fill="#FFFFFF" fill-rule="evenodd"/><path d="M360.212 453.413 305.831 466.97C305.276 467.108 304.72 466.762 304.585 466.194L304.03 463.861C303.895 463.293 304.232 462.725 304.788 462.587L359.169 449.03C359.724 448.892 360.28 449.238 360.415 449.806L360.97 452.139C361.105 452.7 360.768 453.275 360.212 453.413Z" fill="#FFFFFF" fill-rule="evenodd"/><path d="M351.432 510.436 338.315 513.977C337.915 514.082 337.515 513.816 337.42 513.374L337.021 511.555C336.926 511.112 337.166 510.669 337.566 510.564L350.683 507.023C351.083 506.918 351.483 507.184 351.577 507.626L351.977 509.446C352.079 509.88 351.832 510.331 351.432 510.436Z" fill="#FFFFFF" fill-rule="evenodd"/><path d="M370.396 505.945 356.403 508.981C355.976 509.07 355.549 508.843 355.449 508.463L355.022 506.904C354.921 506.524 355.177 506.145 355.604 506.055L369.597 503.02C370.024 502.93 370.451 503.158 370.551 503.537L370.978 505.096C371.079 505.469 370.823 505.855 370.396 505.945Z" fill="#FFFFFF" fill-rule="evenodd"/><path d="M334.434 524.945 321.315 527.981C320.915 528.07 320.515 527.843 320.421 527.463L320.021 525.904C319.926 525.524 320.166 525.145 320.566 525.055L333.685 522.02C334.085 521.93 334.485 522.157 334.579 522.537L334.979 524.096C335.074 524.469 334.834 524.855 334.434 524.945Z" fill="#FFB44F" fill-rule="evenodd"/><path d="M334.418 488.231 314.352 492.944C313.241 493.203 312.123 492.537 311.857 491.464L310.396 485.59 309.057 480.196C308.791 479.116 309.476 478.028 310.579 477.769L330.645 473.056C331.756 472.797 332.874 473.463 333.14 474.536L335.94 485.804C336.214 486.884 335.529 487.972 334.418 488.231Z" fill="#FFB44F" fill-rule="evenodd"/><path d="M309.114 487C308.615 487 308.16 486.684 308.034 486.205 307.885 485.643 308.242 485.066 308.846 484.925L333.611 479.032C334.207 478.891 334.817 479.229 334.966 479.798 335.115 480.361 334.758 480.938 334.154 481.078L309.389 486.972C309.3 486.993 309.203 487 309.114 487Z" fill="#3D85FD" fill-rule="evenodd"/><path d="M325.983 482.617C326.17 484.819 324.761 486.768 322.835 486.981 320.909 487.194 319.203 485.584 319.017 483.382 318.83 481.18 320.239 479.231 322.165 479.018 324.092 478.812 325.797 480.422 325.983 482.617Z" fill="#FFB44F" fill-rule="evenodd"/><path d="M321.993 488C319.451 488 317.268 486.06 317.024 483.48 316.895 482.148 317.29 480.854 318.143 479.819 318.995 478.792 320.189 478.153 321.521 478.024 324.26 477.757 326.71 479.774 326.976 482.521 327.243 485.26 325.226 487.711 322.48 487.977 322.32 487.992 322.152 488 321.993 488ZM322 480.284C321.909 480.284 321.825 480.291 321.734 480.299 321.011 480.367 320.364 480.717 319.9 481.273 319.436 481.836 319.223 482.536 319.292 483.259 319.436 484.751 320.76 485.846 322.251 485.702 322.974 485.633 323.621 485.283 324.085 484.728 324.549 484.165 324.762 483.465 324.694 482.742 324.625 482.019 324.275 481.372 323.72 480.908 323.233 480.504 322.632 480.284 322 480.284Z" fill="#3D85FD" fill-rule="evenodd"/><path d="M409.39 505.327C408.832 503.362 409.176 501.361 410.176 499.751 408.661 498.989 406.867 498.769 405.108 499.267 401.376 500.321 399.21 504.195 400.268 507.912 401.326 511.629 405.215 513.787 408.947 512.733 410.705 512.234 412.114 511.109 413 509.671 411.299 508.816 409.948 507.292 409.39 505.327Z" fill="#FFFFFF" fill-rule="evenodd"/><path d="M417.086 495.286C415.334 495.821 413.931 497.027 413.048 498.569 412.058 500.294 411.709 502.447 412.264 504.546 412.82 506.653 414.166 508.286 415.861 509.195 417.371 510.011 419.159 510.248 420.911 509.714 424.629 508.584 426.787 504.431 425.733 500.447 424.672 496.47 420.804 494.157 417.086 495.286Z" fill="#FFB44F" fill-rule="evenodd"/><path d="M422.106 366.529C422.193 366.356 422.325 366.204 422.508 366.096L434.435 359.142C434.926 358.853 435.563 359.02 435.856 359.503 436.149 359.994 435.98 360.615 435.49 360.904L423.563 367.858C423.072 368.147 422.435 367.981 422.142 367.497 421.959 367.193 421.959 366.825 422.106 366.529Z" fill="#233863" fill-rule="evenodd"/><path d="M414.007 364.104C413.992 363.969 413.999 363.826 414.052 363.69L419.928 345.71C420.101 345.174 420.7 344.881 421.255 345.046 421.817 345.21 422.125 345.781 421.952 346.31L416.076 364.29C415.903 364.826 415.304 365.119 414.749 364.954 414.337 364.833 414.059 364.49 414.007 364.104Z" fill="#233863" fill-rule="evenodd"/><path d="M393.095 346.501C392.866 345.995 393.065 345.392 393.553 345.124 394.064 344.848 394.7 345.049 394.966 345.563L404.884 364.455C405.143 364.991 404.958 365.608 404.447 365.876 403.937 366.152 403.301 365.951 403.035 365.437L393.124 346.553C393.117 346.538 393.102 346.523 393.095 346.501Z" fill="#233863" fill-rule="evenodd"/><path d="M363.859 596.417C363.769 596.568 363.634 596.688 363.461 596.763L352.305 601.917C351.84 602.128 351.3 601.924 351.083 601.465 350.873 600.997 351.075 600.455 351.533 600.237L362.689 595.083C363.154 594.872 363.694 595.076 363.911 595.535 364.054 595.837 364.016 596.161 363.859 596.417Z" fill="#233863" fill-rule="evenodd"/><path d="M370 598.879C370 599.003 369.979 599.119 369.93 599.243L363.643 614.462C363.454 614.912 362.951 615.123 362.518 614.927 362.085 614.731 361.882 614.208 362.071 613.758L368.358 598.538C368.547 598.088 369.05 597.877 369.483 598.073 369.804 598.219 370 598.538 370 598.879Z" fill="#233863" fill-rule="evenodd"/><path d="M385.955 615.794C386.098 616.249 385.893 616.756 385.477 616.935 385.047 617.121 384.563 616.897 384.386 616.428L378.057 599.258C377.893 598.774 378.091 598.259 378.521 598.066 378.951 597.879 379.435 598.103 379.612 598.572L385.941 615.742C385.948 615.764 385.955 615.779 385.955 615.794Z" fill="#233863" fill-rule="evenodd"/><path d="M247.628 487.754 247.126 475 269 495.424 248.786 517.509 248.285 504.755C248.285 504.755 229.407 500.945 217.488 523 217.488 523 213.658 506.681 227.458 494.202 227.466 494.202 233.687 487.88 247.628 487.754L247.628 487.754Z" fill="#FFB44F" fill-rule="evenodd"/><path d="M217.559 524C217.507 524 217.463 524 217.411 523.993 216.955 523.934 216.587 523.594 216.485 523.151 216.448 522.982 212.681 506.112 226.754 493.405 226.967 493.184 233.051 487.169 246.447 486.727L245.991 475.148C245.977 474.698 246.227 474.285 246.631 474.1 247.036 473.916 247.514 473.99 247.845 474.292L269.65 494.63C270.091 495.043 270.121 495.744 269.709 496.187L249.559 518.178C249.258 518.51 248.787 518.62 248.367 518.466 247.948 518.311 247.661 517.919 247.647 517.469L247.183 505.684C243.446 505.256 228.571 504.843 218.522 523.417 218.331 523.786 217.963 524 217.559 524ZM248.309 477.738 248.699 487.76C248.713 488.062 248.603 488.35 248.397 488.564 248.191 488.778 247.904 488.903 247.61 488.903 234.317 489.021 228.343 494.932 228.284 494.991 218.691 503.662 217.941 514.34 218.25 519.528 230.425 500.275 248.287 503.611 248.47 503.648 248.971 503.751 249.339 504.179 249.353 504.688L249.743 514.709 267.34 495.508 248.309 477.738Z" fill="#233863" fill-rule="evenodd"/><path d="M473.039 531.21 472.681 544 452 522.103 473.867 501.38 473.509 514.17C473.509 514.17 492.289 519.251 505.796 498 505.796 498 508.555 514.579 493.803 526.129 493.81 526.122 487.105 532.019 473.039 531.21L473.039 531.21Z" fill="#FFB44F" fill-rule="evenodd"/><path d="M472.713 545C472.408 545 472.119 544.874 471.903 544.653L451.304 522.859C450.881 522.415 450.903 521.713 451.349 521.299L473.129 500.673C473.456 500.362 473.939 500.281 474.347 500.466 474.756 500.651 475.023 501.057 475.008 501.508L474.681 513.315C478.41 513.995 493.371 515.407 504.759 497.516 505.004 497.132 505.465 496.932 505.925 497.021 506.379 497.11 506.728 497.472 506.802 497.923 506.832 498.093 509.484 515.207 494.448 526.969 494.218 527.176 487.689 532.78 474.154 532.321L473.827 543.921C473.812 544.372 473.53 544.764 473.107 544.926 472.98 544.971 472.847 545 472.713 545ZM453.681 522.134 471.673 541.171 471.955 531.131C471.963 530.828 472.096 530.547 472.312 530.348 472.535 530.148 472.832 530.037 473.129 530.059 486.455 530.821 492.948 525.328 493.015 525.269 503.288 517.233 504.744 506.617 504.774 501.427 491.21 519.857 473.433 515.325 473.248 515.274 472.75 515.141 472.408 514.682 472.423 514.172L472.705 504.133 453.681 522.134Z" fill="#233863" fill-rule="evenodd"/></g></svg>