<svg viewBox="0 0 96 96" xmlns="http://www.w3.org/2000/svg" xmlns:xlink="http://www.w3.org/1999/xlink" id="Icons_CustomerReview_LTR" overflow="hidden"><circle cx="69.25" cy="56.53" r="7.78" fill="#920F1D"/><circle cx="27.76" cy="56.53" r="7.78" fill="#920F1D"/><path d="M83.26 71.05C81.0154 69.3044 78.4191 68.066 75.65 67.42 73.5687 66.812 71.4175 66.4758 69.25 66.42 67.0807 66.4151 64.9241 66.7526 62.86 67.42 60.7943 67.97 58.8201 68.819 57 69.94L56.64 70.35C59.5474 71.1348 62.2677 72.495 64.64 74.35 66.5046 75.7199 67.5923 77.9065 67.56 80.22L67.56 82 84.81 82 84.81 74.17C84.8441 72.937 84.2632 71.7677 83.26 71.05Z" fill="#920F1D"/><path d="M29.48 80.22C29.4816 77.9674 30.5176 75.8402 32.29 74.45L32.4 74.35 32.53 74.26C34.9304 72.5518 37.5868 71.2354 40.4 70.36 40.2 70.15 40.01 69.93 39.83 69.71 38.0558 68.6793 36.143 67.9081 34.15 67.42 32.072 66.8128 29.9242 66.4767 27.76 66.42 25.5873 66.4144 23.4274 66.7519 21.36 67.42 18.6297 68.1732 16.0536 69.402 13.75 71.05 12.78 71.7965 12.2053 72.9461 12.19 74.17L12.19 82 29.48 82Z" fill="#920F1D"/><path d="M32.94 88 32.94 80.22C32.9447 78.9963 33.522 77.8454 34.5 77.11 36.799 75.4543 39.3765 74.2248 42.11 73.48 44.1731 72.8082 46.3303 72.4706 48.5 72.48 50.668 72.5309 52.8198 72.8672 54.9 73.48 57.6721 74.1175 60.2701 75.3567 62.51 77.11 63.5168 77.8211 64.1021 78.9879 64.07 80.22L64.07 88Z" fill="#920F1D"/><circle cx="48.5" cy="62.58" r="7.78" fill="#920F1D"/><path d="M81 8 16.25 8C14.0409 8 12.25 9.79086 12.25 12L12.25 34C12.25 36.2091 14.0409 38 16.25 38L31 38 31 44 37.3 38 44.1 38 48 44 51.6 38 58.7 38 65 44 65 38 81 38C83.2091 38 85 36.2091 85 34L85 12C85 9.79086 83.2091 8 81 8ZM22.25 17 69 17 69 19 22.25 19ZM59 29 22.25 29 22.25 27 59 27ZM75 24 22.25 24 22.25 22 75 22Z" fill="#920F1D"/></svg>