<svg viewBox="0 0 96 96" xmlns="http://www.w3.org/2000/svg" xmlns:xlink="http://www.w3.org/1999/xlink" id="Icons_Microscope" overflow="hidden"><rect x="27.4" y="63.6" width="18" height="4" fill="#0B4582" transform="matrix(0.9239 0.3827 -0.3827 0.9239 27.8719 -8.9198)"/><circle cx="55" cy="44" r="4" fill="#0B4582"/><circle cx="55" cy="44" r="4" fill="#0B4582"/><path d="M57 82C64.3 76.5 69 67.8 69 58 69 47.9 63.9 38.9 56.2 33.5L64.3 14 61.5 12.9 63.7 7.5 58.2 5.2 56 10.6 53.2 9.5 36.3 50.2 36.3 50.2C35.5 52.2 35.8 54.5 37.1 56.1L36 58.7 41.5 61 42.6 58.4C44.7 58.1 46.5 56.8 47.4 54.8L47.4 54.8 48.5 52 62.2 52C62.7 53.9 63 55.9 63 58 63 71.2 52.2 82 39 82L20 82 20 88 20 90 76 90 76 88 76 82 57 82ZM55 50C51.7 50 49 47.3 49 44 49 40.7 51.7 38 55 38 58.3 38 61 40.7 61 44 61 47.3 58.3 50 55 50Z" fill="#0B4582"/></svg>