<svg viewBox="0 0 96 96" xmlns="http://www.w3.org/2000/svg" xmlns:xlink="http://www.w3.org/1999/xlink" id="Icons_Cheers" overflow="hidden"><path d="M62.8 61.3C63.3 60.3 63 59.1 62 58.6 61 58.1 59.8 58.4 59.3 59.4L55.3 66.5 58 55.8C58.3 54.7 57.6 53.6 56.5 53.4 55.4 53.1 54.3 53.8 54.1 54.9L51.8 64.1 51.8 54.1C51.8 53 50.9 52.1 49.8 52.1 48.7 52.1 47.8 53 47.8 54.1L47.8 64.8 45.5 54.9C45.3 53.8 44.2 53.2 43.1 53.4 42 53.6 41.4 54.7 41.6 55.8L44.4 67.7C44.3 69.1 44 70.5 43.7 71.7 43.7 71.7 43.7 71.6 43.6 71.6 41.9 69 39.2 66.7 36.6 66 35.6 65.7 34.6 66.3 34.3 67.3 34 68.3 34.6 69.3 35.6 69.6 36.9 69.9 38.1 71.8 39.4 73.8 41 76.3 43 79.2 46 80.9L46 91.6 54.8 91.6 54.8 80.3C58.1 78.6 58.5 71.5 58.6 68.8L62.8 61.3Z" fill="#517B23"/><path d="M27.5 62.1 36.2 62.2C36.2 62.2 36.2 62.2 36.2 62.2 37.3 62.2 38.2 61.3 38.2 60.2 38.2 59.1 37.3 58.2 36.2 58.2L28.1 58.1 38.7 55.4C39.8 55.1 40.4 54 40.1 53 39.8 51.9 38.7 51.3 37.7 51.6L28.5 54 37.3 49.2C38.3 48.7 38.6 47.5 38.1 46.5 37.6 45.5 36.4 45.2 35.4 45.7L26 50.7 33.6 44C34.4 43.3 34.5 42 33.8 41.2 33.1 40.4 31.8 40.3 31 41L21.8 49C20.5 49.6 19.2 50 17.9 50.2 17.9 50.2 17.9 50.1 18 50.1 19.5 47.3 20.2 43.9 19.6 41.3 19.4 40.3 18.3 39.7 17.3 39.9 16.3 40.1 15.7 41.2 15.9 42.2 16.2 43.5 15.2 45.4 14.1 47.5 12.7 50.1 11.1 53.2 11 56.7L1.6 61.8 5.8 69.5 15.7 64.2C18.7 66.3 25.1 63.3 27.5 62.1Z" fill="#517B23"/><path d="M28.6 29.5 30.7 37.9C30.9 38.8 31.7 39.4 32.6 39.4 32.8 39.4 32.9 39.4 33.1 39.3 34.2 39 34.8 38 34.6 36.9L32.7 29 38 38.5C38.4 39.2 39 39.5 39.8 39.5 40.1 39.5 40.5 39.4 40.8 39.2 41.8 38.7 42.1 37.4 41.6 36.5L37 28.2 43.8 35.5C44.2 35.9 44.7 36.1 45.3 36.1 45.8 36.1 46.3 35.9 46.7 35.6 47.5 34.8 47.5 33.6 46.8 32.8L39.5 25 48 30.7C48.3 30.9 48.7 31 49.1 31 49.7 31 50.4 30.7 50.8 30.1 51.4 29.2 51.2 27.9 50.3 27.3L40.1 20.5C39.2 19.4 38.5 18.2 37.9 17.1 37.9 17.1 38 17.1 38 17.1 41 17.8 44.5 17.7 46.9 16.4 47.8 15.9 48.1 14.8 47.6 13.9 47.1 13 46 12.7 45.1 13.2 44 13.8 41.8 13.3 39.5 12.8 36.6 12.1 33.2 11.3 29.8 12.2L22.5 4.4 16.1 10.4 23.8 18.6C22.2 22.1 26.7 27.6 28.6 29.5Z" fill="#517B23"/><path d="M94.4 68.8 86.8 60.5C88.1 57 83.6 51.5 81.8 49.5L79.8 41.1C79.5 40 78.5 39.4 77.4 39.6 76.3 39.9 75.7 40.9 75.9 42L77.8 49.9 72.5 40.3C72 39.3 70.8 39 69.8 39.5 68.8 40 68.5 41.2 69 42.2L73.6 50.6 66.8 43.3C66 42.5 64.8 42.4 64 43.2 63.2 44 63.1 45.2 63.9 46L71.2 53.9 62.8 48.2C61.9 47.6 60.6 47.8 60 48.7 59.4 49.6 59.6 50.9 60.5 51.5L70.6 58.4C71.5 59.5 72.2 60.7 72.8 61.8 72.8 61.8 72.7 61.8 72.7 61.8 69.7 61.1 66.2 61.2 63.8 62.5 62.9 63 62.5 64.1 63 65 63.5 65.9 64.6 66.3 65.5 65.8 66.6 65.2 68.8 65.7 71.1 66.3 74 67 77.4 67.8 80.8 67L88 74.8 94.4 68.8Z" fill="#517B23"/><path d="M53.3 26C53.5 26 53.7 26 54 25.9L61.6 23.2 52.6 29.4C51.7 30 51.5 31.3 52.1 32.2 52.5 32.8 53.1 33.1 53.7 33.1 54.1 33.1 54.5 33 54.8 32.7L62.6 27.3 56 34.8C55.3 35.6 55.4 36.9 56.2 37.6 56.6 37.9 57 38.1 57.5 38.1 58.1 38.1 58.6 37.9 59 37.4L66.1 29.3 61.3 38.3C60.8 39.3 61.1 40.5 62.1 41 62.4 41.2 62.7 41.2 63 41.2 63.7 41.2 64.4 40.8 64.8 40.1L70.6 29.3C71.6 28.3 72.7 27.5 73.8 26.8 73.8 26.8 73.8 26.9 73.8 26.9 73.4 30 73.9 33.5 75.4 35.7 76 36.6 77.1 36.8 78 36.2 78.9 35.6 79.1 34.5 78.5 33.6 77.8 32.5 78.1 30.3 78.4 27.9 78.8 25 79.2 21.5 78.1 18.2L85.1 10.2 78.5 4.4 71.1 12.9C67.5 12 62.5 17.1 60.7 19L52.5 21.9C51.5 22.3 50.9 23.4 51.3 24.5 51.7 25.5 52.5 26 53.3 26Z" fill="#517B23"/></svg>