<svg width="483.81" height="464.79" viewBox="0 0 483.81 464.79" xmlns="http://www.w3.org/2000/svg" xmlns:xlink="http://www.w3.org/1999/xlink" xml:space="preserve" overflow="visible"><defs></defs><g><g><path d="M440.86 143.51C441.56 138.46 434.43 134.31 429.07 133.88 426.52 133.67 423.86 134.06 421.45 133.22 416.21 131.39 414.12 124.62 409 122.47 405.18 120.86 400.78 122.29 397.07 124.16 393.36 126.03 389.7 128.37 385.56 128.64 381.96 128.87 378.05 127.53 374.9 129.29 372.55 130.6 371.32 133.31 369.16 134.9 367.04 136.46 364.28 136.79 361.65 136.94 359.02 137.08 356.3 137.11 353.91 138.2 351.52 139.3 349.54 141.83 350.03 144.41L440.86 143.51Z" fill="#EBEBEB"/></g></g><g><g><path d="M221.11 97.16C221.81 92.11 214.68 87.96 209.32 87.53 206.77 87.32 204.11 87.71 201.7 86.87 196.46 85.04 194.37 78.27 189.25 76.12 185.43 74.51 181.03 75.94 177.32 77.81 173.61 79.68 169.95 82.02 165.81 82.29 162.21 82.52 158.3 81.18 155.15 82.94 152.8 84.25 151.57 86.96 149.41 88.55 147.29 90.11 144.53 90.44 141.9 90.59 139.27 90.73 136.55 90.76 134.16 91.85 131.77 92.95 129.79 95.48 130.28 98.06L221.11 97.16Z" fill="#EBEBEB"/></g></g><g><g><path d="M123.22 255.29C123.92 250.24 116.79 246.09 111.44 245.66 108.89 245.45 106.23 245.84 103.82 245 98.58 243.17 96.49 236.4 91.37 234.25 87.55 232.64 83.15 234.07 79.44 235.94 75.73 237.81 72.07 240.15 67.93 240.42 64.33 240.65 60.42 239.31 57.27 241.07 54.92 242.38 53.69 245.09 51.53 246.68 49.41 248.24 46.65 248.57 44.02 248.72 41.39 248.86 38.67 248.89 36.28 249.98 33.89 251.08 31.91 253.61 32.4 256.19L123.22 255.29Z" fill="#EBEBEB"/></g></g><g><g><path d="M305.19 187.04C305.61 183.95 301.26 181.42 297.99 181.15 296.43 181.02 294.81 181.26 293.33 180.75 290.13 179.63 288.85 175.5 285.72 174.18 283.38 173.19 280.69 174.07 278.43 175.21 276.17 176.35 273.93 177.78 271.4 177.95 269.2 178.09 266.81 177.27 264.88 178.35 263.45 179.15 262.69 180.8 261.37 181.78 260.08 182.73 258.39 182.94 256.78 183.02 255.17 183.11 253.51 183.12 252.05 183.79 250.59 184.46 249.38 186.01 249.68 187.58L305.19 187.04Z" fill="#EBEBEB"/></g></g><g><path d="M483.81 464.53C483.81 464.67 376.04 464.79 243.13 464.79 110.17 464.79 2.43 464.67 2.43 464.53 2.43 464.39 110.18 464.27 243.13 464.27 376.04 464.27 483.81 464.39 483.81 464.53Z" fill="#263238"/></g><g><path d="M312.08 389.29 387.68 464.29 402.45 464.25 407.7 389.29Z" fill="#E0E0E0"/><path d="M373.56 396.39 297.38 464.29 350.59 464.21 395.44 426.49Z" fill="#E0E0E0"/></g><g><path d="M366.39 202.36 460.3 289.4 461.95 199.11Z" fill="#E0E0E0"/><path d="M429.66 206.11 175.68 464.25 225.73 464.25 452.55 235.45Z" fill="#E0E0E0"/></g><g><path d="M100.1 301.7 190.99 391.88 195.71 301.7Z" fill="#E0E0E0"/><path d="M163.2 307.6 0 464.25 52.59 464.25 185.08 337.7Z" fill="#E0E0E0"/></g><g><path d="M179.34 270.74 309.11 399.48 309.11 270.74Z" fill="#FF725E"/><path d="M264.97 273.65C262.03 276 75.23 464.25 75.23 464.25L155.71 464.25 302.57 316.53 264.97 273.65Z" fill="#FF725E"/></g><g><g><ellipse cx="87.01" cy="51.94" rx="12.83" ry="12.83" fill="#FF725E" transform="matrix(0.9251 -0.3797 0.3797 0.9251 -13.2044 36.9295)"/></g><g><g><path d="M85.19 80.63C85.12 80.63 85.05 78.26 85.05 75.34 85.05 72.42 85.11 70.05 85.19 70.05 85.27 70.05 85.33 72.42 85.33 75.34 85.32 78.26 85.26 80.63 85.19 80.63Z" fill="#FF725E"/></g></g><g><g><path d="M77.79 67.06C77.85 67.1 76.65 69.31 75.09 72 73.54 74.69 72.22 76.84 72.16 76.8 72.1 76.76 73.3 74.55 74.86 71.86 76.41 69.18 77.73 67.03 77.79 67.06Z" fill="#FF725E"/></g></g><g><g><path d="M70.2 62.34C70.25 62.4 68.9 63.54 67.2 64.89 65.5 66.24 64.08 67.29 64.03 67.23 63.98 67.17 65.33 66.03 67.03 64.67 68.74 63.33 70.15 62.28 70.2 62.34Z" fill="#FF725E"/></g></g><g><g><path d="M97.99 75.42C97.95 75.43 97.84 74.93 97.65 74.12 97.47 73.31 97.2 72.2 96.88 70.98 96.55 69.76 96.22 68.67 95.97 67.87 95.72 67.08 95.57 66.59 95.61 66.57 95.64 66.56 95.86 67.03 96.15 67.8 96.44 68.58 96.81 69.67 97.14 70.9 97.47 72.13 97.7 73.25 97.84 74.07 97.98 74.9 98.02 75.41 97.99 75.42Z" fill="#FF725E"/></g></g><g><g><path d="M111.01 66.18C110.96 66.24 109.26 64.83 107.22 63.04 105.17 61.25 103.56 59.76 103.6 59.7 103.65 59.64 105.35 61.05 107.39 62.84 109.44 64.63 111.05 66.13 111.01 66.18Z" fill="#FF725E"/></g></g><g><g><path d="M115.99 53.49C115.98 53.53 115.39 53.43 114.44 53.27 113.49 53.11 112.17 52.91 110.72 52.74 109.26 52.57 107.93 52.47 106.97 52.41 106.01 52.35 105.41 52.32 105.41 52.28 105.41 52.25 106.01 52.21 106.98 52.22 107.95 52.23 109.28 52.3 110.75 52.47 112.22 52.64 113.53 52.87 114.48 53.08 115.42 53.29 116 53.46 115.99 53.49Z" fill="#FF725E"/></g></g><g><g><path d="M116.01 41.01C116.03 41.08 113.25 41.82 109.81 42.66 106.36 43.5 103.56 44.12 103.54 44.05 103.52 43.98 106.3 43.24 109.75 42.4 113.18 41.56 115.99 40.93 116.01 41.01Z" fill="#FF725E"/></g></g><g><g><path d="M101.51 26.46C101.57 26.5 100.24 28.62 98.54 31.2 96.84 33.77 95.41 35.83 95.35 35.79 95.29 35.75 96.62 33.63 98.32 31.05 100.01 28.48 101.44 26.42 101.51 26.46Z" fill="#FF725E"/></g></g><g><g><path d="M87.11 23.43C87.15 23.43 87.14 24.11 87.13 25.19 87.11 26.28 87.09 27.78 87.09 29.43 87.09 31.09 87.12 32.59 87.14 33.68 87.16 34.77 87.16 35.44 87.13 35.44 87.09 35.44 87.02 34.77 86.95 33.69 86.88 32.6 86.83 31.1 86.83 29.44 86.83 27.78 86.88 26.28 86.94 25.19 87.01 24.09 87.08 23.42 87.11 23.43Z" fill="#FF725E"/></g></g><g><g><path d="M76.22 37C76.16 37.04 74.8 34.94 73.2 32.32 71.6 29.69 70.35 27.54 70.41 27.5 70.47 27.46 71.83 29.56 73.43 32.18 75.03 34.8 76.28 36.96 76.22 37Z" fill="#FF725E"/></g></g><g><g><path d="M69.7 42.53C69.69 42.57 69.17 42.49 68.34 42.31 67.51 42.13 66.36 41.85 65.11 41.49 63.86 41.12 62.75 40.74 61.95 40.43 61.15 40.12 60.67 39.91 60.69 39.87 60.7 39.83 61.21 39.99 62.02 40.25 62.83 40.51 63.95 40.86 65.19 41.23 66.43 41.6 67.57 41.9 68.39 42.13 69.21 42.35 69.71 42.5 69.7 42.53Z" fill="#FF725E"/></g></g><g><g><path d="M66.86 52.39C66.87 52.46 65.03 52.7 62.76 52.92 60.49 53.14 58.65 53.25 58.64 53.18 58.63 53.11 60.47 52.87 62.74 52.65 65.01 52.44 66.85 52.32 66.86 52.39Z" fill="#FF725E"/></g></g></g><g><g><g><path d="M449.17 334.44C449.69 330.64 444.33 327.51 440.3 327.19 438.38 327.04 436.38 327.33 434.56 326.69 430.61 325.31 429.04 320.22 425.19 318.59 422.31 317.38 419 318.46 416.21 319.86 413.42 321.26 410.66 323.03 407.54 323.23 404.83 323.4 401.88 322.4 399.51 323.72 397.74 324.71 396.82 326.74 395.19 327.95 393.6 329.13 391.52 329.37 389.54 329.48 387.56 329.59 385.51 329.61 383.71 330.43 381.91 331.25 380.42 333.16 380.79 335.1L449.17 334.44Z" fill="#FFFFFF"/><g><path d="M449.17 334.44C449.18 334.45 449.06 334.45 448.84 334.46 448.59 334.47 448.26 334.48 447.84 334.49 446.92 334.51 445.62 334.53 443.94 334.57 440.5 334.62 435.57 334.7 429.45 334.79 417.1 334.94 399.99 335.14 380.78 335.38L380.56 335.38 380.52 335.17C380.3 334.04 380.7 332.83 381.41 331.93 382.12 331.01 383.14 330.32 384.25 329.94 386.81 329.07 389.46 329.44 391.88 328.99 393.09 328.78 394.27 328.37 395.19 327.61 396.12 326.86 396.82 325.84 397.66 324.93 398.08 324.47 398.54 324.03 399.08 323.69 399.62 323.35 400.21 323.11 400.82 322.97 402.05 322.71 403.27 322.8 404.44 322.88 405.61 322.97 406.76 323.09 407.87 322.96 408.98 322.85 410.06 322.53 411.09 322.12 413.15 321.3 415.01 320.13 416.97 319.24 418.91 318.36 420.99 317.73 423.05 317.89 424.07 317.97 425.07 318.26 425.93 318.76 426.79 319.25 427.52 319.9 428.17 320.57 429.47 321.93 430.49 323.39 431.68 324.57 432.84 325.77 434.25 326.62 435.74 326.83 437.22 327.07 438.68 326.94 440.03 327.04 442.77 327.26 444.95 328.35 446.49 329.46 448.04 330.6 448.86 331.95 449.09 332.93 449.34 333.9 449.14 334.47 449.17 334.44 449.12 334.42 449.26 333.91 449.01 332.94 448.76 331.99 447.93 330.7 446.4 329.6 444.87 328.54 442.71 327.49 440.04 327.31 438.71 327.22 437.26 327.37 435.71 327.14 434.15 326.94 432.64 326.04 431.44 324.82 430.21 323.61 429.18 322.15 427.91 320.83 427.27 320.18 426.57 319.56 425.75 319.1 424.94 318.64 424 318.38 423.04 318.3 421.09 318.16 419.08 318.77 417.18 319.64 415.27 320.52 413.4 321.7 411.29 322.55 410.24 322.98 409.12 323.31 407.94 323.44 406.76 323.57 405.58 323.45 404.42 323.37 403.26 323.28 402.08 323.21 400.95 323.45 399.81 323.69 398.85 324.36 398.06 325.26 397.25 326.14 396.54 327.18 395.53 328 394.52 328.82 393.25 329.26 391.99 329.48 389.46 329.94 386.84 329.59 384.44 330.42 383.4 330.77 382.48 331.4 381.84 332.23 381.19 333.06 380.85 334.1 381.04 335.06L380.78 334.85C399.92 334.7 416.98 334.57 429.28 334.48 435.42 334.45 440.37 334.43 443.82 334.41 445.52 334.41 446.84 334.41 447.77 334.41 448.2 334.41 448.55 334.42 448.8 334.42 449.04 334.43 449.16 334.43 449.17 334.44Z" fill="#263238"/></g></g></g></g><g><g><g><path d="M234.32 418.14C235.01 413.09 227.89 408.94 222.53 408.51 219.98 408.3 217.32 408.69 214.91 407.85 209.67 406.02 207.58 399.25 202.46 397.1 198.64 395.49 194.24 396.92 190.53 398.79 186.82 400.66 183.16 403 179.02 403.27 175.42 403.5 171.51 402.16 168.36 403.92 166.01 405.23 164.78 407.94 162.62 409.53 160.5 411.09 157.74 411.42 155.11 411.57 152.48 411.71 149.76 411.74 147.37 412.83 144.98 413.93 143 416.46 143.49 419.04L234.32 418.14Z" fill="#FFFFFF"/><g><path d="M234.32 418.14C234.32 418.14 234.18 418.15 233.88 418.16 233.56 418.17 233.11 418.18 232.54 418.19 231.33 418.21 229.59 418.24 227.36 418.28 222.81 418.34 216.25 418.43 208.11 418.55 191.73 418.74 169 419 143.5 419.29L143.28 419.29 143.24 419.08C142.95 417.6 143.48 416.03 144.41 414.84 145.34 413.63 146.69 412.72 148.15 412.23 151.53 411.08 155.03 411.57 158.27 410.96 159.89 410.68 161.46 410.13 162.71 409.12 163.96 408.12 164.89 406.76 166 405.55 166.56 404.95 167.16 404.36 167.86 403.91 168.57 403.46 169.35 403.14 170.15 402.97 171.76 402.62 173.38 402.74 174.93 402.86 176.49 402.98 178.02 403.14 179.51 402.97 181 402.82 182.44 402.39 183.81 401.84 186.56 400.74 189.03 399.19 191.62 398.01 194.2 396.84 196.94 396.01 199.66 396.21 201.01 396.32 202.32 396.69 203.46 397.35 204.6 398 205.56 398.85 206.42 399.74 208.14 401.53 209.49 403.48 211.08 405.06 212.63 406.66 214.52 407.79 216.51 408.07 218.49 408.38 220.42 408.21 222.22 408.34 224.03 408.45 225.66 408.93 227.1 409.5 228.53 410.08 229.77 410.78 230.79 411.53 231.81 412.29 232.6 413.11 233.18 413.9 233.77 414.69 234.07 415.48 234.25 416.12 234.39 416.77 234.44 417.28 234.39 417.63 234.34 417.98 234.32 418.14 234.32 418.14 234.32 418.14 234.31 417.95 234.32 417.62 234.35 417.29 234.29 416.79 234.13 416.15 233.8 414.88 232.7 413.16 230.66 411.7 229.64 410.97 228.42 410.29 227 409.73 225.58 409.18 223.97 408.73 222.2 408.63 220.43 408.51 218.5 408.7 216.46 408.4 214.4 408.13 212.41 406.94 210.82 405.32 209.2 403.72 207.83 401.77 206.13 400.02 205.28 399.15 204.34 398.33 203.25 397.71 202.16 397.09 200.91 396.74 199.62 396.64 197.02 396.46 194.34 397.26 191.8 398.42 189.25 399.59 186.78 401.15 183.98 402.28 182.59 402.84 181.1 403.29 179.56 403.45 178.01 403.63 176.44 403.47 174.89 403.35 173.34 403.23 171.77 403.13 170.26 403.46 169.51 403.63 168.79 403.93 168.14 404.34 167.49 404.76 166.92 405.31 166.38 405.89 165.3 407.06 164.36 408.45 163.03 409.52 161.7 410.6 160.03 411.18 158.36 411.47 155.01 412.08 151.53 411.61 148.32 412.72 146.93 413.19 145.69 414.03 144.82 415.16 143.95 416.27 143.49 417.68 143.75 418.98L143.49 418.77C168.93 418.56 191.6 418.37 207.93 418.24 216.09 418.19 222.67 418.15 227.23 418.13 229.49 418.12 231.25 418.12 232.47 418.12 233.05 418.12 233.51 418.12 233.84 418.13 234.16 418.13 234.32 418.14 234.32 418.14Z" fill="#263238"/></g></g></g></g><g><g><g><path d="M141.84 179.65C142.42 175.41 136.44 171.93 131.95 171.56 129.81 171.39 127.58 171.71 125.55 171.01 121.15 169.48 119.39 163.79 115.1 161.98 111.89 160.63 108.2 161.83 105.09 163.4 101.98 164.97 98.9 166.94 95.43 167.16 92.41 167.35 89.12 166.23 86.48 167.71 84.51 168.81 83.48 171.08 81.66 172.42 79.88 173.73 77.56 174.01 75.36 174.13 73.15 174.25 70.87 174.27 68.86 175.19 66.85 176.11 65.19 178.23 65.61 180.4L141.84 179.65Z" fill="#FFFFFF"/><g><path d="M141.84 179.65C141.85 179.66 141.72 179.66 141.47 179.67 141.2 179.68 140.82 179.69 140.35 179.7 139.33 179.72 137.87 179.75 136 179.78 132.18 179.84 126.67 179.92 119.85 180.02 106.09 180.18 87.01 180.41 65.6 180.66L65.38 180.66 65.34 180.45C65.09 179.2 65.54 177.86 66.33 176.86 67.12 175.84 68.25 175.07 69.49 174.66 72.34 173.69 75.28 174.1 77.99 173.6 79.34 173.36 80.66 172.9 81.7 172.06 82.75 171.22 83.53 170.08 84.46 169.07 84.93 168.56 85.44 168.07 86.03 167.69 86.63 167.31 87.29 167.04 87.96 166.89 89.32 166.6 90.68 166.7 91.99 166.79 93.3 166.89 94.58 167.02 95.82 166.88 97.07 166.75 98.27 166.4 99.42 165.94 101.72 165.02 103.79 163.72 105.97 162.73 108.14 161.75 110.44 161.05 112.74 161.22 113.88 161.31 114.98 161.63 115.94 162.18 116.9 162.73 117.71 163.45 118.43 164.2 119.87 165.71 121.01 167.34 122.34 168.66 123.64 170 125.21 170.95 126.88 171.18 128.54 171.44 130.16 171.3 131.67 171.41 134.72 171.65 137.15 172.86 138.87 174.1 140.59 175.37 141.51 176.87 141.77 177.97 141.89 178.52 141.92 178.95 141.88 179.24 141.86 179.52 141.84 179.65 141.84 179.65 141.84 179.65 141.83 179.49 141.83 179.21 141.85 178.94 141.8 178.51 141.67 177.98 141.39 176.92 140.47 175.48 138.76 174.25 137.06 173.06 134.64 171.9 131.66 171.69 130.17 171.59 128.56 171.75 126.84 171.5 125.1 171.28 123.42 170.27 122.09 168.91 120.72 167.57 119.57 165.93 118.15 164.46 117.44 163.73 116.65 163.04 115.74 162.53 114.83 162.01 113.79 161.72 112.71 161.64 110.53 161.49 108.29 162.16 106.17 163.14 104.04 164.12 101.96 165.43 99.61 166.38 98.44 166.85 97.19 167.23 95.89 167.37 94.58 167.52 93.27 167.38 91.97 167.29 90.67 167.19 89.35 167.11 88.09 167.38 86.82 167.64 85.73 168.4 84.85 169.41 83.95 170.39 83.16 171.56 82.04 172.46 80.92 173.37 79.51 173.86 78.1 174.11 75.28 174.62 72.36 174.23 69.68 175.16 68.52 175.55 67.49 176.25 66.76 177.19 66.04 178.12 65.65 179.29 65.87 180.37L65.61 180.16C86.96 179.99 105.97 179.84 119.69 179.73 126.54 179.7 132.06 179.67 135.9 179.65 137.79 179.65 139.27 179.65 140.3 179.64 140.79 179.64 141.17 179.65 141.45 179.65 141.7 179.64 141.84 179.65 141.84 179.65Z" fill="#263238"/></g></g></g></g><g><g><g><path d="M414.46 69.26C414.92 65.93 410.22 63.19 406.68 62.9 405 62.76 403.25 63.02 401.65 62.47 398.19 61.26 396.81 56.8 393.44 55.37 390.92 54.31 388.01 55.25 385.57 56.48 383.12 57.71 380.71 59.26 377.98 59.43 375.6 59.58 373.02 58.7 370.94 59.86 369.39 60.73 368.58 62.51 367.15 63.56 365.75 64.59 363.93 64.81 362.2 64.9 360.47 64.99 358.67 65.01 357.09 65.73 355.51 66.45 354.21 68.12 354.53 69.83L414.46 69.26Z" fill="#FFFFFF"/><g><path d="M414.46 69.26C414.47 69.27 414.37 69.27 414.17 69.28 413.95 69.29 413.66 69.3 413.29 69.31 412.48 69.33 411.34 69.35 409.88 69.38 406.86 69.43 402.54 69.5 397.19 69.58 386.36 69.71 371.36 69.9 354.53 70.11L354.31 70.11 354.27 69.9C354.07 68.9 354.43 67.83 355.06 67.03 355.69 66.22 356.59 65.61 357.57 65.28 359.83 64.51 362.14 64.84 364.26 64.44 365.32 64.26 366.34 63.9 367.15 63.24 367.96 62.59 368.58 61.7 369.31 60.89 370.02 60.07 371 59.38 372.09 59.16 373.17 58.93 374.25 59.01 375.27 59.08 376.3 59.16 377.3 59.26 378.27 59.15 379.24 59.05 380.19 58.77 381.08 58.41 382.88 57.69 384.51 56.67 386.23 55.89 387.94 55.12 389.76 54.57 391.57 54.7 392.47 54.77 393.35 55.03 394.11 55.46 394.87 55.89 395.51 56.46 396.08 57.05 397.22 58.24 398.11 59.53 399.15 60.56 400.17 61.61 401.39 62.35 402.7 62.53 404 62.74 405.27 62.63 406.46 62.71 408.87 62.9 410.78 63.86 412.13 64.84 413.49 65.85 414.21 67.03 414.4 67.89 414.62 68.79 414.44 69.29 414.46 69.26 414.42 69.24 414.53 68.79 414.32 67.95 414.1 67.12 413.37 65.99 412.03 65.03 410.69 64.1 408.79 63.19 406.46 63.03 405.3 62.96 404.02 63.08 402.67 62.88 401.3 62.7 399.97 61.91 398.92 60.84 397.84 59.78 396.94 58.5 395.82 57.35 395.26 56.78 394.65 56.24 393.93 55.84 393.22 55.44 392.41 55.21 391.57 55.14 389.87 55.02 388.12 55.55 386.45 56.31 384.78 57.08 383.14 58.11 381.29 58.86 380.37 59.23 379.38 59.53 378.35 59.64 377.31 59.76 376.28 59.65 375.26 59.58 374.24 59.5 373.21 59.44 372.23 59.65 371.24 59.86 370.4 60.44 369.71 61.23 369 62 368.38 62.92 367.49 63.63 366.6 64.36 365.48 64.74 364.37 64.94 362.15 65.34 359.85 65.04 357.76 65.76 356.86 66.07 356.06 66.61 355.49 67.34 354.93 68.06 354.64 68.96 354.8 69.79L354.54 69.58C371.31 69.46 386.24 69.35 397.03 69.27 402.41 69.25 406.75 69.23 409.78 69.22 411.26 69.22 412.42 69.22 413.25 69.22 413.63 69.22 413.93 69.23 414.16 69.23 414.35 69.25 414.46 69.25 414.46 69.26Z" fill="#263238"/></g></g></g></g><g><g><g><g><g><g><g><g><g><g><g><g><g><g><g><path d="M240.12 245.03 239.4 261.48C239.4 261.48 255.87 267.73 256.04 270.79L224.1 270.54 224.17 244.87 240.12 245.03Z" fill="#455A64"/></g></g></g></g></g></g></g></g></g></g></g><g><g><g><g><g><g><g><g><g><g><g><g><path d="M229.53 260.01C228.91 260.17 228.48 260.87 228.62 261.49 228.76 262.12 229.46 262.56 230.08 262.41 230.7 262.26 231.25 261.44 231.04 260.84 230.83 260.23 229.98 259.76 229.42 260.05" fill="#E0E0E0"/></g></g></g></g></g></g></g></g></g></g></g></g><g opacity="0.6"><g><g><g><g><g><g><g><g><g><g><path d="M224.1 270.53 224.21 267.94 254.79 269.15C254.79 269.15 256.21 269.78 256.04 270.78L224.1 270.53Z" fill="#FFFFFF"/></g></g></g></g></g></g></g></g></g></g></g><g><g><g><g><g><g><g><g><g><g><g><g><path d="M239.92 261.32C239.91 261.48 239.13 261.54 238.36 262.04 237.58 262.52 237.17 263.19 237.03 263.12 236.89 263.09 237.13 262.16 238.07 261.57 239.01 260.98 239.95 261.17 239.92 261.32Z" fill="#263238"/></g></g></g></g></g></g></g></g></g></g></g></g><g><g><g><g><g><g><g><g><g><g><g><g><path d="M243.25 262.73C243.28 262.88 242.61 263.14 242.07 263.8 241.52 264.44 241.38 265.15 241.22 265.14 241.07 265.16 240.97 264.25 241.65 263.45 242.33 262.64 243.25 262.58 243.25 262.73Z" fill="#263238"/></g></g></g></g></g></g></g></g></g></g></g></g><g><g><g><g><g><g><g><g><g><g><g><g><path d="M245.13 266.75C244.99 266.78 244.78 266 245.18 265.15 245.58 264.3 246.32 263.96 246.38 264.1 246.47 264.23 245.99 264.68 245.67 265.39 245.33 266.08 245.28 266.74 245.13 266.75Z" fill="#263238"/></g></g></g></g></g></g></g></g></g></g></g></g><g><g><g><g><g><g><g><g><g><g><g><g><path d="M239.66 257.55C239.59 257.69 238.88 257.47 238 257.52 237.12 257.56 236.43 257.85 236.35 257.71 236.26 257.6 236.93 257.02 237.97 256.98 239.01 256.93 239.74 257.43 239.66 257.55Z" fill="#263238"/></g></g></g></g></g></g></g></g></g></g></g></g></g></g></g><g><g><g><g><g><g><g><g><g><g><g><g><g><g><path d="M289.74 245.03 289.02 261.48C289.02 261.48 305.49 267.73 305.66 270.79L273.72 270.54 273.79 244.87 289.74 245.03Z" fill="#455A64"/></g></g></g></g></g></g></g></g></g></g></g><g><g><g><g><g><g><g><g><g><g><g><g><path d="M279.15 260.01C278.53 260.17 278.1 260.87 278.24 261.49 278.38 262.12 279.08 262.56 279.7 262.41 280.32 262.26 280.87 261.44 280.66 260.84 280.45 260.23 279.6 259.76 279.04 260.05" fill="#E0E0E0"/></g></g></g></g></g></g></g></g></g></g></g></g><g opacity="0.6"><g><g><g><g><g><g><g><g><g><g><path d="M273.72 270.53 273.83 267.94 304.41 269.15C304.41 269.15 305.83 269.78 305.66 270.78L273.72 270.53Z" fill="#FFFFFF"/></g></g></g></g></g></g></g></g></g></g></g><g><g><g><g><g><g><g><g><g><g><g><g><path d="M289.54 261.32C289.53 261.48 288.75 261.54 287.98 262.04 287.2 262.52 286.79 263.19 286.65 263.12 286.51 263.09 286.75 262.16 287.69 261.57 288.63 260.98 289.57 261.17 289.54 261.32Z" fill="#263238"/></g></g></g></g></g></g></g></g></g></g></g></g><g><g><g><g><g><g><g><g><g><g><g><g><path d="M292.88 262.73C292.91 262.88 292.24 263.14 291.7 263.8 291.15 264.44 291.01 265.15 290.85 265.14 290.7 265.16 290.6 264.25 291.28 263.45 291.96 262.64 292.88 262.58 292.88 262.73Z" fill="#263238"/></g></g></g></g></g></g></g></g></g></g></g></g><g><g><g><g><g><g><g><g><g><g><g><g><path d="M294.75 266.75C294.61 266.78 294.4 266 294.8 265.15 295.2 264.3 295.94 263.96 296 264.1 296.09 264.23 295.61 264.68 295.29 265.39 294.95 266.08 294.9 266.74 294.75 266.75Z" fill="#263238"/></g></g></g></g></g></g></g></g></g></g></g></g><g><g><g><g><g><g><g><g><g><g><g><g><path d="M289.29 257.55C289.22 257.69 288.51 257.47 287.63 257.52 286.75 257.56 286.06 257.85 285.98 257.71 285.89 257.6 286.56 257.02 287.6 256.98 288.64 256.93 289.36 257.43 289.29 257.55Z" fill="#263238"/></g></g></g></g></g></g></g></g></g></g></g></g></g></g></g><g><g><g><g><g><g><g><g><g><g><g><g><g><g><path d="M224.25 29.08C223.13 26.01 222.01 22.91 221.44 19.68 220.86 16.46 220.84 13.08 221.87 9.97 222.03 9.5 223.39 6.33 223.88 6.36 224.23 6.38 223.43 9.32 223.62 9.62 225.43 12.48 226.02 15.98 225.87 19.36 225.71 22.75 225.12 25.81 224.25 29.08" fill="#263238"/></g></g></g></g></g></g></g></g><g><g><g><g><g><g><g><g><g><path d="M225.3 46.52 224.1 16.81C223.54 8.62 227.21 1.27 235.41 0.93L236.3 0.95C243.87 1.08 250.08 7.01 250.56 14.57 251.01 21.71 251.42 29.63 251.31 33.46 251.08 41.34 243.18 42.42 243.18 42.42 243.16 42.42 243.52 48.13 243.58 50.44 243.58 50.44 242.75 51.05 235.41 51.31 228.06 51.56 225.3 46.52 225.3 46.52Z" fill="#FFBF9D"/></g></g></g></g></g></g></g></g></g><g><g><g><g><g><g><g><g><g><g><path d="M243.18 42.41C243.18 42.41 238.21 42.61 232.98 39.2 232.98 39.2 235.38 44.97 243.25 44.4L243.18 42.41Z" fill="#FF9A6C"/></g></g></g></g></g></g></g></g></g></g><g><g><g><g><g><g><g><g><g><g><g><g><g><g><g><g><path d="M247.86 21.71C247.87 22.3 247.38 22.8 246.76 22.83 246.14 22.85 245.63 22.39 245.62 21.8 245.61 21.21 246.1 20.71 246.72 20.68 247.34 20.66 247.85 21.12 247.86 21.71Z" fill="#263238"/></g></g></g></g></g></g></g></g></g></g></g></g></g></g></g></g><g><g><g><g><g><g><g><g><g><g><g><g><g><g><g><g><g><path d="M248.57 18.9C248.43 19.04 247.59 18.4 246.38 18.38 245.17 18.34 244.27 18.95 244.14 18.8 244.08 18.73 244.22 18.47 244.61 18.2 245 17.93 245.65 17.66 246.4 17.68 247.15 17.7 247.78 17.99 248.14 18.28 248.52 18.57 248.65 18.84 248.57 18.9Z" fill="#263238"/></g></g></g></g></g></g></g></g></g></g></g></g></g></g></g></g></g><g><g><g><g><g><g><g><g><g><g><g><g><g><g><g><g><g><path d="M237.51 21.9C237.37 22.04 236.53 21.4 235.32 21.38 234.11 21.34 233.21 21.95 233.08 21.8 233.02 21.73 233.16 21.47 233.56 21.2 233.95 20.93 234.6 20.66 235.35 20.68 236.1 20.7 236.73 20.99 237.09 21.28 237.46 21.57 237.58 21.83 237.51 21.9Z" fill="#263238"/></g></g></g></g></g></g></g></g></g></g></g></g></g></g></g></g></g><g><g><g><g><g><g><g><g><g><g><g><g><g><g><g><g><path d="M241.2 28.44C241.2 28.37 241.95 28.25 243.17 28.12 243.48 28.09 243.77 28.04 243.83 27.83 243.91 27.61 243.78 27.27 243.64 26.91 243.36 26.16 243.07 25.37 242.77 24.54 241.56 21.17 240.69 18.4 240.82 18.35 240.96 18.3 242.05 21 243.26 24.37 243.55 25.2 243.83 25.99 244.09 26.75 244.2 27.1 244.4 27.51 244.23 27.97 244.14 28.2 243.91 28.36 243.71 28.41 243.51 28.47 243.34 28.47 243.18 28.47 241.96 28.52 241.2 28.51 241.2 28.44Z" fill="#263238"/></g></g></g></g></g></g></g></g></g></g></g></g></g></g></g></g><g><g><g><g><g><g><g><g><g><g><g><g><path d="M237.57 18.68C237.42 19 236.23 18.73 234.8 18.78 233.37 18.79 232.19 19.11 232.03 18.79 231.96 18.64 232.19 18.35 232.68 18.08 233.17 17.8 233.92 17.57 234.78 17.55 235.64 17.53 236.4 17.74 236.9 17.99 237.39 18.24 237.63 18.52 237.57 18.68Z" fill="#263238"/></g></g></g></g></g></g></g></g></g></g></g></g><g><g><g><g><g><g><g><g><g><g><g><g><path d="M249.05 14.37C248.87 14.69 247.86 14.62 246.72 14.85 245.57 15.05 244.66 15.49 244.37 15.25 244.24 15.13 244.34 14.83 244.7 14.49 245.06 14.15 245.71 13.79 246.5 13.64 247.29 13.49 248.02 13.59 248.48 13.78 248.94 13.97 249.13 14.22 249.05 14.37Z" fill="#263238"/></g></g></g></g></g></g></g></g></g></g></g></g><g><g><g><g><g><g><g><g><path d="M224.65 22.59C224.52 22.53 219.27 20.89 219.34 26.28 219.42 31.67 224.81 30.48 224.82 30.32 224.82 30.17 224.65 22.59 224.65 22.59Z" fill="#FFBF9D"/></g></g></g></g></g></g></g></g><g><g><g><g><g><g><g><g><g><path d="M223.05 28.33C223.03 28.31 222.96 28.4 222.8 28.47 222.65 28.54 222.38 28.6 222.1 28.49 221.53 28.29 221.04 27.39 221 26.42 220.98 25.93 221.08 25.46 221.24 25.07 221.4 24.67 221.65 24.39 221.94 24.34 222.22 24.27 222.43 24.44 222.5 24.59 222.57 24.74 222.54 24.85 222.57 24.86 222.59 24.87 222.68 24.77 222.64 24.55 222.62 24.44 222.55 24.32 222.42 24.22 222.29 24.12 222.1 24.07 221.9 24.09 221.48 24.12 221.12 24.51 220.93 24.94 220.72 25.37 220.6 25.9 220.63 26.45 220.68 27.54 221.25 28.54 222.03 28.76 222.41 28.85 222.73 28.73 222.89 28.6 223.04 28.46 223.07 28.34 223.05 28.33Z" fill="#FF9A6C"/></g></g></g></g></g></g></g></g></g><g><g><g><g><g><g><g><g><path d="M246.88 5.85C247.74 5.35 245.06 2.59 242.89 1.66 239.62 0.27 234.65-0.52 231.69 0.39 228.12 1.49 225.17 3.35 223.45 6.67 221.72 9.98 221.13 13.81 221.32 17.54 221.38 18.68 221.52 19.86 222.16 20.81 222.94 21.98 224.4 22.7 224.38 24.34 224.37 24.94 224.56 25.54 224.98 25.97 225.99 27 227.17 25.98 227.7 24.98 228.83 22.84 228.91 20.32 228.96 17.9 228.99 16.18 229.02 14.42 228.5 12.78 228.22 11.89 227.77 11.05 227.54 10.14 227.31 9.23 227.31 8.2 227.86 7.44 227.95 7.32 228.1 7.16 228.29 6.99 229.78 5.62 231.91 5.17 233.84 5.8 236.9 6.8 242.12 8.28 243.45 7.22 245.36 5.69 245.81 4.72 245.81 4.72L246.88 5.85Z" fill="#263238"/></g></g></g></g></g></g></g></g></g></g></g></g></g><g><g><path d="M241.98 31.72C242 31.81 241.7 31.98 241.16 32.05 240.62 32.12 239.85 32.04 239.09 31.68 238.33 31.32 237.78 30.77 237.5 30.31 237.21 29.85 237.16 29.51 237.24 29.47 237.42 29.38 238.07 30.44 239.39 31.04 240.7 31.68 241.94 31.52 241.98 31.72Z" fill="#263238"/></g></g></g><g><path d="M316.99 18.6C316.99 18.6 316.78 17.34 316.16 17.34 315.54 17.34 314.6 17.68 314.19 18.6 313.77 19.52 316.99 18.6 316.99 18.6Z" fill="#FFBF9D"/><path d="M301.13 38.65 301.75 28.72 303.72 18.49C303.72 18.49 305.28 16.83 306.11 17.21 306.94 17.6 306.63 18.96 306.63 18.96 306.63 18.96 308.81 16.61 309.64 17.15 310.47 17.69 310.16 18.96 310.16 18.96 310.16 18.96 312.13 16.35 313.06 17.07 313.99 17.79 313.06 18.96 313.06 18.96 313.06 18.96 314.3 30.42 313.67 34.51 313.05 38.6 309.56 40.12 309.56 40.12L307.9 46.56 299.77 42.14 301.13 38.65Z" fill="#FFBF9D"/><g><path d="M306.1 25.65 261.96 25.17 261.96 21.63 306.1 20.4Z" fill="#FF725E"/><path d="M352.71 29.15 290.34 26.52C289.56 24.4 289.53 22.11 290.29 19.63L352.27 16.9C355.13 19.86 355.16 26.1 352.71 29.15Z" fill="#FF725E"/><path d="M352.1 17.47C352.1 17.47 350.22 19.23 350.29 23.06 350.36 26.89 352.25 28.5 352.25 28.5 352.25 28.5 354.3 26.34 354 22.5 353.71 18.74 352.1 17.47 352.1 17.47Z" fill="#E0E0E0"/><g><path d="M349.61 29.15C349.56 29.19 349.02 28.68 348.4 27.64 347.79 26.61 347.14 25 347.17 23.11 347.2 21.27 347.67 19.61 348.26 18.55 348.85 17.48 349.44 16.99 349.47 17.03 349.54 17.09 349.06 17.65 348.59 18.71 348.1 19.76 347.72 21.34 347.69 23.11 347.66 24.87 348.21 26.42 348.72 27.45 349.23 28.51 349.68 29.1 349.61 29.15Z" fill="#263238"/></g><g><path d="M352.39 17.03C352.46 17.08 352 17.67 351.5 18.73 351 19.78 350.51 21.36 350.55 23.13 350.58 24.91 351.13 26.46 351.67 27.49 352.17 28.57 352.8 28.94 352.78 29 352.77 29.03 352.57 28.99 352.28 28.79 351.99 28.59 351.66 28.2 351.35 27.68 350.71 26.65 350.06 25.03 350.03 23.15 349.99 21.27 350.57 19.62 351.17 18.57 351.78 17.5 352.35 17 352.39 17.03Z" fill="#263238"/></g><path d="M353.2 20.24C353.12 20.04 353.02 19.84 352.87 19.69 352.72 19.54 352.49 19.45 352.28 19.49 352.07 19.53 351.91 19.71 351.85 19.92 351.79 20.12 351.83 20.35 351.92 20.54 352.15 20.99 352.52 21.41 352.5 21.86 352.49 22.31 352.37 22.76 352.41 23.21 352.42 23.37 352.46 23.54 352.56 23.68 352.66 23.81 352.82 23.91 352.98 23.89 353.25 23.85 353.38 23.55 353.44 23.29 353.68 22.27 353.59 21.19 353.2 20.24Z" fill="#FFFFFF"/><g><path d="M290.33 26.74C290.22 26.81 289.43 25.25 289.48 23.16 289.51 21.07 290.34 19.54 290.45 19.61 290.6 19.67 290.02 21.2 290 23.17 289.95 25.14 290.48 26.69 290.33 26.74Z" fill="#263238"/></g><g><path d="M261.87 26 261.87 26C261.5 26 261.2 25.7 261.2 25.33L261.2 21.59C261.2 21.22 261.5 20.92 261.87 20.92L261.87 20.92C262.24 20.92 262.54 21.22 262.54 21.59L262.54 25.33C262.54 25.7 262.24 26 261.87 26Z" fill="#FF725E"/><g><path d="M261.87 26C261.86 25.96 262.05 25.95 262.23 25.77 262.32 25.68 262.4 25.54 262.39 25.37 262.38 25.14 262.37 24.9 262.35 24.67 262.33 24.07 262.31 23.45 262.29 22.81 262.29 22.45 262.28 22.08 262.27 21.71 262.3 21.38 262.11 21.19 261.85 21.18 261.59 21.19 261.4 21.38 261.43 21.71 261.42 22.08 261.42 22.45 261.41 22.81 261.39 23.45 261.37 24.07 261.35 24.67 261.34 24.91 261.33 25.14 261.31 25.37 261.31 25.54 261.39 25.68 261.47 25.77 261.69 25.96 261.87 25.96 261.87 26 261.88 26.02 261.68 26.11 261.38 25.93 261.24 25.84 261.09 25.66 261.05 25.4 261.04 25.16 261.02 24.92 261.01 24.67 260.99 24.07 260.97 23.45 260.95 22.81 260.95 22.45 260.94 22.08 260.93 21.71 260.91 21.54 260.96 21.19 261.14 21 261.31 20.79 261.58 20.65 261.86 20.65 262.14 20.65 262.41 20.78 262.58 21 262.76 21.19 262.8 21.54 262.79 21.71 262.78 22.08 262.78 22.45 262.77 22.81 262.75 23.45 262.73 24.07 262.71 24.67 262.7 24.92 262.68 25.16 262.67 25.4 262.63 25.66 262.48 25.84 262.34 25.93 262.06 26.11 261.86 26.03 261.87 26Z" fill="#263238"/></g></g></g><path d="M269.53 33.4C269.53 33.4 268.59 21.81 268.87 20.79 269.19 19.63 272.35 16.19 273.47 16.07 274.59 15.95 274.71 17.19 274.71 17.19 274.71 17.19 276.28 16.11 277.82 16.06 279.45 16.01 279.66 17.45 279.66 17.45 279.66 17.45 280.57 16.78 282.13 17.06 282.79 17.18 283.54 18.35 283.54 18.35 283.54 18.35 285.18 17.64 285.96 18.37 286.94 19.29 286.93 20.93 286.93 20.93 285.41 20.82 284.03 21.85 284.03 21.85 284.03 21.85 283.65 26.87 283.03 29.36 282.41 31.84 279.95 33.9 279.13 35.18L278.48 43.75 267.93 38.16 269.53 33.4Z" fill="#FFBF9D"/><g><path d="M271.91 21.66C271.78 21.68 271.73 20.14 272.78 18.65 273.81 17.15 275.28 16.67 275.31 16.8 275.38 16.94 274.15 17.58 273.21 18.95 272.25 20.3 272.06 21.68 271.91 21.66Z" fill="#FF9A6C"/></g><g><path d="M277.07 21.46C276.95 21.51 276.65 20.13 277.51 18.71 277.93 18.02 278.56 17.56 279.06 17.39 279.56 17.21 279.89 17.25 279.9 17.31 279.94 17.45 278.69 17.71 277.96 18.98 277.19 20.21 277.23 21.47 277.07 21.46Z" fill="#FF9A6C"/></g><g><path d="M280.84 21.08C280.71 21.06 280.93 19.95 281.92 19.07 282.9 18.17 284.02 18.05 284.03 18.19 284.07 18.34 283.13 18.66 282.27 19.46 281.4 20.23 280.99 21.13 280.84 21.08Z" fill="#FF9A6C"/></g><g><path d="M307.82 36.25C309.58 34.18 308.24 28.61 308.24 28.61 308.24 28.61 310.73 27.78 311.35 25.29 311.97 22.8 310.73 22.39 310.73 22.39 310.32 22.6 306.48 25.09 304.51 26.12 302.54 27.16 301.92 37.72 301.92 37.72" fill="#FFBF9D"/><g><path d="M301.92 37.73C301.88 37.73 301.88 37.23 301.92 36.34 301.97 35.45 302.06 34.16 302.25 32.58 302.48 31 302.68 29.1 303.48 27.09 303.6 26.84 303.72 26.59 303.9 26.35 304.06 26.11 304.39 25.88 304.61 25.78 305.09 25.52 305.57 25.24 306.06 24.94 307.03 24.34 308.04 23.72 309.07 23.09 309.59 22.77 310.06 22.46 310.61 22.15L310.71 22.09 310.81 22.13C311.29 22.34 311.5 22.72 311.64 23.1 311.77 23.49 311.79 23.88 311.77 24.24 311.72 24.97 311.55 25.68 311.22 26.31 310.55 27.57 309.44 28.38 308.31 28.8L308.45 28.54C308.94 30.89 308.99 32.9 308.73 34.27 308.61 34.96 308.37 35.47 308.19 35.79 307.97 36.1 307.83 36.24 307.82 36.22 307.8 36.2 307.9 36.03 308.08 35.72 308.22 35.39 308.41 34.9 308.49 34.22 308.67 32.89 308.56 30.91 308.03 28.63L307.99 28.45 308.17 28.38C309.18 27.98 310.22 27.2 310.78 26.08 311.07 25.53 311.21 24.87 311.26 24.21 311.32 23.58 311.11 22.83 310.64 22.61L310.84 22.6C310.37 22.87 309.85 23.2 309.35 23.52 308.32 24.16 307.31 24.78 306.32 25.37 305.83 25.66 305.34 25.94 304.85 26.2 304.57 26.34 304.45 26.43 304.29 26.63 304.14 26.81 304.03 27.05 303.92 27.27 303.13 29.15 302.88 31.07 302.61 32.62 302.37 34.19 302.22 35.46 302.12 36.34 302.01 37.24 301.95 37.73 301.92 37.73Z" fill="#FF9A6C"/></g></g></g><g><path d="M225.33 128.93C225.33 128.93 226.56 179.26 225.33 185.4 224.1 191.54 222.06 216.91 222.06 235.73 222.06 254.55 222.85 258.84 222.85 258.84L241.12 258.84C241.12 258.84 242.38 223.05 248.02 202.35 253.26 183.12 259.29 153.89 259.29 141.2 259.29 128.52 259.29 124.01 259.29 124.01L226.96 124.01 225.33 128.93Z" fill="#263238"/><path d="M269.52 124.02C269.52 124.02 288.69 177.21 289.92 192.76 291.15 208.31 291.21 258.84 291.21 258.84L272.29 258.84 269.76 197.81 255.2 158.27 255.2 124.02 269.52 124.02Z" fill="#263238"/><g><path d="M259.29 152.67C259.33 152.68 259.24 153.19 259.06 154.12 258.86 155.14 258.61 156.46 258.3 158.04 257.65 161.45 256.78 165.97 255.82 170.98 254.84 176.03 253.92 180.6 253.19 183.9 252.82 185.55 252.51 186.88 252.27 187.79 252.02 188.7 251.87 189.2 251.84 189.19 251.81 189.18 251.89 188.67 252.07 187.74 252.27 186.72 252.52 185.4 252.83 183.82 253.48 180.41 254.35 175.88 255.31 170.88 256.29 165.83 257.21 161.26 257.94 157.96 258.31 156.31 258.62 154.98 258.86 154.07 259.11 153.16 259.26 152.66 259.29 152.67Z" fill="#455A64"/></g></g><g><path d="M276.78 147.51 280.83 147.51C280.83 147.51 281.76 133.48 279.42 124.02 277.08 114.56 265.12 73.38 265.12 73.38L251.88 51.5 244.78 48.31 268.1 126.5 276.78 147.51Z" fill="#455A64"/><path d="M262.04 79.58C262.04 79.58 274.3 115.91 276.33 125.43 278.36 134.95 279.41 147.51 279.41 147.51L276.78 147.51 267.15 122.15C267.15 122.15 257.12 81.82 257.58 81.92 258.06 82.03 262.04 79.58 262.04 79.58Z" opacity="0.3"/><path d="M222.53 47.46 223.63 40.5 243.18 49.28 243.18 45.02 251.82 59.43 270.83 113.47C271.45 115.13 272.18 120.68 271.08 122.07L269.53 124.02 248.93 126.68 229.39 56.14 222.53 47.46Z" fill="#E0E0E0"/><path d="M225.77 152.67C225.77 152.67 251.93 155.61 257.29 153.47 262.65 151.34 262.91 145.87 262.91 145.87 262.91 145.87 265.53 127.29 265.35 123.2 265.14 118.55 263.65 111.92 263.65 111.92L225.72 149.39 225.77 152.67Z" opacity="0.3"/><path d="M245.47 55.53C245.47 55.53 254.41 85.97 254.34 86.19 254.26 86.42 264.26 117.36 264.26 117.36L266.22 108.06 252.32 61.66 246.73 54.81 245.47 55.53Z" fill="#FF725E"/><path d="M216.72 50.3C207.55 55.89 207.07 64.56 211.15 74.5 211.83 76.15 213.13 78.98 214.03 80.9 217.98 89.29 226.17 102.98 226.17 106.18 226.17 113.71 219.42 148.69 219.42 148.69 219.42 148.69 255.99 153.13 259.29 149.68 262.59 146.23 265.13 124.68 264.07 115.04 262.9 104.4 257.42 86.41 255.2 79.75 253.86 75.74 249.45 65.76 244.19 59.22 240.25 54.33 235.57 50.09 230.31 46.65L222.53 41.55 220.92 46.95C220.92 46.95 218.78 49.05 216.72 50.3Z" fill="#455A64"/><path d="M252.32 52.73C253.07 52.69 286.5 63.65 284.57 62.85L285.46 61.92 297.51 43.76 308.48 50.27C308.48 50.27 297.59 71.07 295.79 74.33 294.18 77.25 291.07 79.59 286.92 79.58 284.47 79.58 263.53 76.08 263.53 76.08L252.32 52.73Z" fill="#455A64"/><path d="M265.77 40.23 268.36 35.65 280 42.28 278.18 47.32Z" fill="#E0E0E0"/><path d="M214.55 74.85C214.55 74.85 237.05 87.38 244.17 89.03 251.3 90.68 259.29 92.97 259.29 92.97L256.08 82.75 236.55 70.88 214.55 74.85Z" opacity="0.3"/><g><path d="M214.55 74.85C214.27 74.64 248.27 86.73 255.19 84.55 262.12 82.37 264.37 75.5 266.84 71.28 271.37 63.55 279.4 48.18 279.4 48.18L264.98 39.95 250.66 63.92C250.66 63.92 225.35 53.49 223.02 52.81 220.69 52.13 213.48 51.2 209.96 59.62 206.06 68.94 214.55 74.85 214.55 74.85Z" fill="#455A64"/><g><path d="M214.55 74.85C214.56 74.86 214.45 74.8 214.3 74.68 214.14 74.56 213.9 74.38 213.6 74.12 213.01 73.6 212.15 72.79 211.25 71.55 210.36 70.32 209.42 68.63 209.01 66.45 208.87 65.91 208.88 65.33 208.82 64.74 208.79 64.15 208.87 63.54 208.9 62.91 209.04 62.3 209.12 61.64 209.32 61.01 209.56 60.39 209.71 59.7 210.04 59.08 210.59 57.78 211.41 56.51 212.46 55.36 213.52 54.22 214.92 53.27 216.54 52.73 218.15 52.18 219.97 52.05 221.77 52.33 222.68 52.45 223.58 52.75 224.44 53.09 225.31 53.42 226.19 53.76 227.09 54.11 234.23 56.92 242.18 60.17 250.76 63.69L250.46 63.79C254.89 56.37 259.73 48.26 264.77 39.81L264.9 39.59 265.12 39.72C266.77 40.66 268.53 41.66 270.3 42.68 273.46 44.49 276.59 46.27 279.53 47.95L279.75 48.07 279.63 48.29C276.8 53.69 274.01 58.91 271.26 63.91 269.89 66.41 268.53 68.85 267.15 71.21 265.79 73.55 264.71 76.02 263.26 78.21 261.85 80.42 260.04 82.34 257.87 83.59 256.77 84.18 255.67 84.71 254.43 84.92 253.21 85.08 252.03 85 250.88 84.9 246.28 84.39 242.14 83.31 238.37 82.34 230.86 80.32 224.92 78.37 220.83 77.02 216.77 75.66 214.55 74.85 214.55 74.85 214.55 74.83 214.7 74.87 214.97 74.95 215.27 75.04 215.67 75.17 216.2 75.33 217.3 75.68 218.88 76.19 220.91 76.84 225.01 78.13 230.97 80.04 238.48 82.01 242.24 82.96 246.39 84.01 250.94 84.5 252.07 84.6 253.24 84.67 254.39 84.51 255.5 84.32 256.62 83.78 257.67 83.22 259.76 82 261.51 80.14 262.89 77.96 264.31 75.8 265.37 73.35 266.75 70.97 268.12 68.61 269.47 66.17 270.84 63.67 273.57 58.67 276.36 53.44 279.18 48.05L279.28 48.39C276.33 46.71 273.21 44.93 270.04 43.12 268.26 42.11 266.5 41.1 264.86 40.16L265.21 40.07C260.16 48.51 255.31 56.61 250.87 64.03L250.76 64.21 250.57 64.13C242 60.6 234.06 57.33 226.94 54.49 226.05 54.14 225.17 53.8 224.3 53.46 223.43 53.11 222.59 52.83 221.71 52.71 219.96 52.44 218.21 52.55 216.65 53.07 215.09 53.58 213.74 54.48 212.7 55.58 211.67 56.69 210.86 57.92 210.31 59.19 209.98 59.8 209.83 60.47 209.59 61.08 209.39 61.7 209.31 62.34 209.16 62.94 209.13 63.56 209.04 64.15 209.07 64.73 209.12 65.31 209.1 65.87 209.24 66.4 209.62 68.54 210.52 70.21 211.38 71.45 212.25 72.69 213.08 73.52 213.65 74.05 213.94 74.32 214.17 74.51 214.32 74.64 214.43 74.75 214.49 74.8 214.55 74.85Z" fill="#263238"/></g></g><g><path d="M230.9 126.08 234.05 119.7 256.09 120.09 253.64 126.69Z" fill="#455A64"/><g><path d="M230.9 126.08C230.91 126.07 231.08 126.07 231.38 126.07 231.73 126.07 232.16 126.07 232.69 126.08 233.88 126.09 235.5 126.11 237.49 126.14 241.56 126.2 247.19 126.28 253.65 126.44L253.41 126.61C254.15 124.6 254.94 122.48 255.74 120.31 255.78 120.21 255.81 120.11 255.85 120.01L256.09 120.36C247.22 120.2 239.3 120.03 234.05 119.88L234.2 119.79C233.21 121.71 232.4 123.25 231.82 124.38 231.55 124.89 231.33 125.3 231.16 125.64 231 125.92 230.91 126.07 230.9 126.08 230.89 126.09 230.95 125.95 231.07 125.67 231.22 125.34 231.41 124.93 231.64 124.42 232.19 123.24 232.95 121.63 233.89 119.63L233.93 119.54 234.04 119.54C239.28 119.58 247.21 119.68 256.08 119.84L256.45 119.85 256.32 120.19C256.28 120.29 256.25 120.39 256.21 120.49 255.4 122.67 254.61 124.78 253.86 126.79L253.8 126.96 253.62 126.95C247.03 126.76 241.3 126.54 237.25 126.38 235.29 126.3 233.7 126.23 232.53 126.19 232.03 126.17 231.62 126.15 231.29 126.13 231.02 126.1 230.89 126.09 230.9 126.08Z" fill="#263238"/></g></g><g><path d="M245.61 61.1C245.54 61.22 239.95 58.16 233.14 54.25 226.32 50.34 220.85 47.07 220.93 46.95 221 46.83 226.59 49.89 233.4 53.8 240.21 57.71 245.68 60.98 245.61 61.1Z" fill="#263238"/></g><g><path d="M253.23 109.22C253.22 109.36 247.91 109.14 241.37 108.72 234.83 108.3 229.54 107.85 229.55 107.7 229.56 107.55 234.87 107.78 241.41 108.2 247.95 108.62 253.24 109.08 253.23 109.22Z" fill="#263238"/></g><path d="M298.2 44.24 300.41 40.5 309.22 45.64 307.51 49.7Z" fill="#E0E0E0"/><g><path d="M286.87 70.53C286.78 70.62 285.46 69.25 284.72 67.08 283.96 64.91 284.16 63.02 284.29 63.04 284.45 63.04 284.49 64.85 285.22 66.92 285.91 68.99 286.99 70.44 286.87 70.53Z" fill="#263238"/></g><g><path d="M265.33 74.1C265.47 74.06 266.4 76.86 267.4 80.34 268.41 83.83 269.11 86.69 268.97 86.73 268.83 86.77 267.9 83.97 266.9 80.49 265.9 77 265.2 74.14 265.33 74.1Z" fill="#263238"/></g><g><path d="M251.84 71.49C251.75 71.59 250.5 70.11 250.13 67.83 249.74 65.56 250.43 63.76 250.55 63.82 250.71 63.85 250.27 65.61 250.65 67.75 250.99 69.89 251.97 71.41 251.84 71.49Z" fill="#263238"/></g><path d="M232.67 126.12 232.28 128.05 255.1 128.69 256.09 120.09 253.64 126.69Z" opacity="0.3"/><path d="M242.7 53.49 242.94 53.75 245.47 55.53 246.73 54.82 245.91 52.03 243.25 50.04Z" fill="#FF725E"/><g><path d="M246.11 50.04C246.18 50.03 246.39 50.94 246.67 52.45L246.75 52.88 246.39 52.62C245.51 52 244.37 51.18 243.1 50.24L243.5 50.08C243.38 50.86 243.25 51.7 243.12 52.56 243.04 53.08 242.96 53.58 242.88 54.07L242.83 54.41 242.52 54.26C240.6 53.32 238.93 52.47 237.74 51.85 236.55 51.22 235.85 50.82 235.87 50.76 235.9 50.7 236.65 51 237.88 51.55 239.11 52.1 240.81 52.89 242.74 53.81L242.37 54C242.45 53.51 242.52 53.01 242.6 52.49 242.74 51.63 242.87 50.8 243 50.01L243.07 49.6 243.4 49.85C244.66 50.81 245.77 51.67 246.61 52.34L246.33 52.51C246.13 50.97 246.04 50.05 246.11 50.04Z" fill="#263238"/></g></g></g></svg>