<svg width="78.93" height="93.16" viewBox="0 0 78.93 93.16" xmlns="http://www.w3.org/2000/svg" xmlns:xlink="http://www.w3.org/1999/xlink" xml:space="preserve" overflow="visible"><defs></defs><g><path d="M78.93 76.15 52.23 91.57 25.52 76.15 52.23 60.74Z" fill="#564920" opacity="0.35"/><ellipse cx="13.85" cy="85.17" rx="13.85" ry="8" fill="#564920" opacity="0.35"/><g><g><g><path d="M71.45 44.98 71.31 77.95 52.59 88.83 52.73 55.86Z" fill="#E4D1C2"/><path d="M52.73 55.86 52.59 88.83 33.75 77.95 33.89 44.98Z" fill="#F3E9DF"/><path d="M71.45 44.98 52.73 55.86 33.89 44.98 52.61 34.1 62.16 39.61 65.7 45.44Z" fill="#FFF5EA"/></g><g><path d="M45.02 14.36C45.02 14.36 43.03 14.61 42.11 17.9 41.19 21.19 40.58 23.4 40.58 23.4 41.44 24.41 42.59 25.13 43.88 25.46L44.18 25.54 47.95 17.97 45.02 14.36Z" fill="#F3E9DF"/><path d="M45.02 14.36C45.26 17.11 44.86 19.88 43.85 22.45L42.82 25.07C43.16 25.23 43.52 25.36 43.89 25.45L44.19 25.53 47.96 17.96 45.02 14.36Z" fill="#E4D1C2"/><path d="M62.24 40.46C62.25 40.45 62.25 40.44 62.24 40.46 61.96 39.14 61.65 38.56 61.65 38.56 61.24 36.08 60.12 33.54 59.41 32.42 58.7 31.3 60.19 23.75 61.07 21.39 61.95 19.03 61.1 16.91 59.81 15.93 58.52 14.95 53.05 13.35 49.27 14.04 49.27 14.04 47.79 13.55 45 14.36 45.68 17.93 46.12 21.3 45.23 23 44.34 24.7 43.56 26.71 45.48 28.93 45.48 28.93 44.81 31.9 43.83 34.45 43.58 35.09 43.47 36.32 43.42 37.31 43.42 37.31 42.64 40.91 42.6 41.87 42.48 44.03 44.58 46.31 46.94 47.92 49.51 49.67 52.73 50.16 55.74 49.37 58.88 48.55 62.98 46.99 62.82 44.45 62.88 44.35 62.24 40.47 62.24 40.46Z" fill="#F3E9DF"/><path d="M59.41 32.42C58.7 31.3 60.19 23.75 61.07 21.39 61.95 19.03 61.1 16.91 59.81 15.93 58.63 15.03 53.98 13.63 50.31 13.91 53.47 14.13 56.73 15.2 57.69 15.93 58.98 16.91 61.2 17.88 60.32 20.24 59.44 22.6 56.43 30.96 55.59 33.12 55.2 34.1 58.18 33.84 59.22 36.06 59.71 37.12 59.22 38.37 58.17 38.88 56.01 39.91 53.64 41.75 52.53 43.13 52.53 43.13 51.34 44.5 51.02 46.74L51.79 46.74C51.79 46.74 52.02 45.16 53.35 43.48 53.74 43 54.2 42.57 54.68 42.18 57.78 39.71 59.96 38.78 61.66 38.56 61.25 36.08 60.13 33.54 59.41 32.42Z" fill="#E4D1C2"/><path d="M59.98 16.07C59.98 16.07 63.48 16.22 65.29 17.44L64.27 22.45C64.27 22.45 62.43 21.96 60.72 22.5 60.72 22.5 58.61 18.07 59.98 16.07Z" fill="#F3E9DF"/><path d="M65.6 20.11C65.32 21.49 64.72 22.54 64.27 22.45 63.82 22.36 63.68 21.16 63.96 19.78 64.24 18.4 64.84 17.35 65.29 17.44 65.75 17.54 65.89 18.73 65.6 20.11Z" fill="#E4D1C2"/><path d="M51.33 38.34C51.6 38.34 52.01 37.83 52.01 37.56 52.01 37.29 51.79 37.06 51.51 37.06 51.24 37.06 51.01 37.28 51.01 37.56 51.01 37.84 51.05 38.34 51.33 38.34Z" fill="#E4D1C2"/><g><g><path d="M49.63 14.95C49.63 14.95 49.36 18.55 51.31 19.14L54.61 18.31C54.61 18.31 55.02 14.9 55.18 13.59 55.34 12.28 49.47 11.13 49.47 11.13 49.47 11.13 49.56 12.85 49.63 14.95Z" fill="#F3E9DF"/><path d="M49.46 11.13C49.46 11.13 49.97 11.3 50.67 11.57 50.32 12.46 50.28 14.64 50.71 15.48 51.3 16.64 53.22 16.76 54.6 18.3L51.3 19.13C50.09 18.77 49.24 17.1 48.78 15.88 48.5 15.14 48.54 14.33 48.87 13.61 49.56 12.12 49.46 11.13 49.46 11.13Z" fill="#E4D1C2"/></g><g><path d="M47.35 1.19C48.89-0.27 51.09-0.4 52.29 0.86 52.99 1.6 53.19 2.65 52.95 3.68 51.53 4.24 46.36 6.17 47.35 1.19Z" fill="#BDAB9F"/><path d="M47.35 1.19C46.94 3.94 49.43 3.48 50.77 2.88 52.23 2.23 52.43 3.89 52.95 3.68 52.77 4.42 52.37 5.15 51.73 5.75 50.22 7.18 48.02 7.32 46.82 6.05 45.62 4.8 45.86 2.63 47.35 1.19Z" fill="#AE9A8A"/></g><path d="M48.21 8.78C47.14 5.44 49.98 1.4 54.3 2.87 57.53 3.97 58.59 7.02 58.89 8.69 59.01 9.34 58.93 10.06 58.81 10.7 58.52 12.29 57.79 15.62 56.76 16.47 56.26 16.88 55.42 16.79 54.51 16.42 52.92 15.79 51.48 14.09 50.82 13.14 49.77 11.66 48.55 9.84 48.21 8.78Z" fill="#F3E9DF"/><path d="M54.51 16.43C52.92 15.8 51.09 14.38 50.43 13.43 49.38 11.93 48.59 9.83 48.21 8.78 47.51 6.84 48.71 5.55 50.09 4.35L53.05 7.87C53.05 7.87 54.24 8.77 52.97 12.64 52.5 14.07 53.52 15.73 54.51 16.43Z" fill="#E4D1C2"/><g><path d="M49.02 4.11C50.28 2.51 52.41 1.66 54.56 2.57 57.02 3.6 59.29 6.08 58.95 9.48 58.89 7.47 57.88 7.42 56.57 7.54 55.56 7.64 54.42 7.92 53.78 8.48 52.6 7.74 49.69 5.74 49.02 4.11Z" fill="#BDAB9F"/><path d="M49.02 4.11C49.69 5.74 52.6 7.74 53.78 8.49 53.46 8.77 53.26 9.12 53.28 9.55 53.36 11.31 51.33 12.01 51.33 12.01 51.33 12.01 51.18 10.78 50.61 10.2 49.59 9.17 48.84 9.88 48.82 10.34 48.56 9.72 48.03 8.88 47.93 8.32 47.66 6.78 48.12 5.25 49.02 4.11Z" fill="#AE9A8A"/></g></g><path d="M45.49 28.93C50.93 30.69 52.34 25.47 50.93 21.51 50.13 19.15 47.55 19.58 45.74 20.41 45.73 21.46 45.51 22.38 45.02 22.92 43.13 24.89 43.89 27.18 45.49 28.93Z" fill="#F3E9DF"/><path d="M45.49 28.93C46.48 29.11 47.49 29.22 48.41 28.97 49.33 28.72 50.09 28.09 50.54 27.26 51 26.43 51.18 25.45 51.23 24.47 51.27 23.49 51.15 22.5 50.92 21.51 51.36 22.42 51.59 23.44 51.63 24.47 51.67 25.5 51.49 26.56 50.99 27.5 50.48 28.43 49.55 29.18 48.5 29.35 47.46 29.55 46.42 29.31 45.49 28.93Z" fill="#E4D1C2"/><path d="M52.52 28.89C53.39 31.08 56.77 31.12 58.13 29.45 59.07 28.28 59.23 26.42 58.82 25.16 58.42 24.03 59.67 22.83 60.72 22.5 60.37 21.43 60.02 20.36 59.67 19.28 55.87 20.48 50.77 24.32 52.52 28.89Z" fill="#F3E9DF"/><path d="M52.52 28.89C53.08 30.02 54.36 30.5 55.51 30.42 56.68 30.35 57.8 29.76 58.29 28.72 58.81 27.7 58.92 26.44 58.66 25.31 58.57 25.01 58.54 24.62 58.64 24.31 58.74 23.99 58.92 23.7 59.13 23.46 59.57 23 60.12 22.65 60.72 22.51 60.16 22.76 59.67 23.14 59.32 23.62 58.96 24.09 58.8 24.67 59.03 25.19 59.42 26.42 59.32 27.78 58.74 28.95 58.45 29.53 57.96 30.05 57.38 30.36 56.8 30.67 56.15 30.83 55.5 30.82 54.86 30.81 54.21 30.66 53.66 30.33 53.13 30 52.69 29.49 52.52 28.89Z" fill="#E4D1C2"/></g><path d="M37.2 42.86 33.89 44.98 37.6 51.94 42.13 49.73Z" fill="#E4D1C2"/><path d="M41.35 43.5 37.52 39.75 37.2 42.86 42.13 49.73Z" fill="#F3E9DF"/><path d="M37.52 39.75 44.1 33.73 43.24 39.09 41.35 43.5Z" fill="#FFF9F2"/><path d="M41.35 43.5 43.24 39.09 45.01 46.37 42.13 49.73Z" fill="#E8DFD5"/><path d="M61.65 38.56 62.62 42.86 65.38 48.51 65.7 44.98Z" fill="#FFF9F2"/><path d="M65.7 44.98 65.38 48.51 71.45 44.98Z" fill="#E4D1C2"/><path d="M48.14 53.2 52.84 60.38 55.43 54.29 52.52 50.21Z" fill="#D1C0B2"/><path d="M52.52 50.21 55.43 54.29 62.84 49.99Z" fill="#FFF9F2"/><path d="M58.55 44.68 52.52 50.21 62.84 49.99Z" fill="#E4D1C2"/><path d="M53.88 46.03 52.52 50.21 58.55 44.68Z" fill="#FFF9F2"/><path d="M62.62 42.86 58.55 44.68 62.84 49.99 65.38 48.51Z" fill="#D1C0B2"/><path d="M45.01 46.37 48.14 53.2 52.52 50.21Z" fill="#E8DFD5"/><path d="M45.01 46.37 42.13 49.73 48.14 53.2Z" fill="#E4D1C2"/><path d="M42.13 49.73 44.1 54.71 48.14 53.2Z" fill="#E4D1C2"/><path d="M49.59 44.68 45.01 46.37 52.52 50.21Z" fill="#E4D1C2"/><path d="M43.24 39.09 45.01 46.37 46.65 43.53Z" fill="#D1C0B2"/><path d="M46.65 43.53 45.01 46.37 49.59 44.68Z" fill="#FFF9F2"/><path d="M52.52 50.21 53.88 46.03 49.59 44.68Z" fill="#D1C0B2"/></g><g><g><path d="M4.39 79.11C4.39 79.11 4.04 81.15 3.64 82.07 3.24 82.99 2.87 84.54 4.01 85.05 5.15 85.56 7.45 83.91 8.13 83.76 8.81 83.61 11.33 83.64 12.46 83.19 13.59 82.74 14.7 81.84 14.39 81.12 13.9 80 10.74 80.18 9.81 80.15 8.89 80.11 8.03 79.73 8.01 79.11 8 78.49 7.31 77.46 6.44 77.35 5.57 77.24 4.54 78.29 4.39 79.11Z" fill="#1E6F9C"/><path d="M14.39 81.67C14.16 82.25 13.32 82.85 12.47 83.19 11.34 83.64 8.81 83.61 8.14 83.76 7.46 83.91 5.16 85.56 4.02 85.05 3.54 84.83 3.33 84.43 3.28 83.96 3.2 84.64 3.35 85.31 4.02 85.61 5.16 86.12 7.46 84.47 8.14 84.32 8.82 84.17 11.34 84.2 12.47 83.75 13.6 83.3 14.71 82.4 14.4 81.68 14.39 81.68 14.39 81.68 14.39 81.67Z" fill="#165A89"/><path d="M15.88 83.34C15.88 83.34 15.55 86.13 15.48 87.27 15.41 88.4 15.83 89.17 17.09 89.2 18.36 89.23 23.57 87.13 24.91 86.53 26.57 85.78 26.7 83.48 24.71 83.34 22.7 83.2 20.99 83.32 19.61 83.34 19.61 83.34 19.54 81.96 18.84 81.58 18.14 81.2 16.05 81.82 15.88 83.34Z" fill="#1E6F9C"/><path d="M24.92 86.52C23.58 87.13 18.37 89.22 17.1 89.19 16.02 89.17 15.56 88.6 15.49 87.73 15.49 87.76 15.49 87.79 15.48 87.82 15.41 88.95 15.83 89.72 17.1 89.75 18.37 89.78 23.58 87.68 24.92 87.08 25.86 86.65 26.31 85.73 26.16 84.99 26.05 85.6 25.63 86.2 24.92 86.52Z" fill="#165A89"/><g><path d="M22.93 41.51C22.93 41.51 23.97 49.02 23.97 51.26 23.97 53.5 21.42 64.45 21.42 64.45L20.61 67.67C20.61 67.67 20.89 70.86 20.78 73.47 20.67 76.07 19.63 83.35 19.63 83.35 19.63 83.35 17.82 84.78 15.89 83.35 15.89 83.35 14.8 76.99 14.56 75.54 14.11 72.82 14.77 70.11 14.73 68.65 14.69 67.19 14.45 59.03 14.45 59.03L10.31 66.47C10.31 66.47 10.03 68.82 9.36 71.57 8.69 74.31 8.04 79.13 8.04 79.13 8.04 79.13 6.33 80.61 4.41 79.13 4.41 79.13 3.73 70.1 3.75 68.93 3.77 67.76 4.87 65.07 6.13 62.59 7.39 60.11 7.88 51.81 8.1 48.62 8.32 45.43 7.96 41.37 9.92 37.77 11.87 34.14 22.23 38.4 22.93 41.51Z" fill="#4F2A10"/><path d="M11.83 48.7C11.83 48.7 12.2 50.47 14.35 52.38L14.44 59.02 13.58 52.76C13.58 52.76 11.88 51.09 11.83 48.7Z" fill="#40220A"/></g></g><g><path d="M41.92 20.53C41.88 20.1 41.6 20.14 41.6 20.14 41.6 19.82 41.2 19.73 41.2 19.73 41.14 19.26 40.61 19.31 40.61 19.31 40.54 18.94 40.3 18.89 39.76 18.96 39.22 19.03 37.26 19.22 37.26 19.22 37.26 19.22 31.83 18.83 29.57 18.62 27.31 18.41 25.27 18.62 25.27 18.62L18.84 16.95C18.26 16.92 16.3 17.44 16.24 19.02 16.19 20.6 18.21 22.21 18.21 22.21 18.21 22.21 22.35 22.73 24.3 23.01 26.25 23.29 30.22 22.32 32.16 22.02 34.09 21.72 37.1 21.76 37.1 21.76L39.13 20.48 40.27 21.58C40.27 21.58 40.88 21.73 41.89 22.43 41.97 22.14 41.96 20.96 41.92 20.53Z" fill="#FEBEB4"/><path d="M38.82 20.18C38.82 20.18 39.64 20.08 39.92 20.53 40.2 20.98 40.46 21.46 40.29 21.59L38.82 20.18Z" fill="#FFAD97"/></g><path d="M8.8 17.69C8.8 17.69 9.72 14.93 12 14.94 13.91 14.94 17.33 16.29 18.85 16.95 18.85 16.95 19.89 19.37 18.22 22.21 18.22 22.21 9.07 21.34 8.8 17.69Z" fill="#165A89"/><path d="M23.18 34.42C23.18 36.71 22.93 41.5 22.93 41.5 22.93 41.5 21.68 43.26 18 43.18 14 43.09 10.42 41.61 9.91 37.73 9.91 37.73 10.45 36.29 9.66 33.24 8.87 30.19 7.05 26.32 7.22 23.49 7.22 23.49 7.33 18.92 9.34 17.05 9.94 16.5 10.65 16.32 11.39 16.4 12.05 16.46 12.73 16.72 13.4 17.08 15.44 18.18 17.3 20.23 17.63 20.77 17.82 21.09 18.31 21.52 18.91 22.1 19.36 22.52 19.88 23.01 20.39 23.57 21.21 24.47 22.03 25.56 22.58 26.85 23.37 28.69 23.18 32.13 23.18 34.42Z" fill="#1E6F9C"/><g><path d="M20.4 23.58C19.23 22.91 17.71 22.74 16.12 22.54 15.35 22.44 14.56 22.35 13.79 22.19 10.62 21.53 9.82 19.43 10.09 17.84 10.18 17.35 10.44 16.94 10.86 16.66 11.02 16.55 11.2 16.47 11.4 16.41 12.06 16.47 12.74 16.73 13.41 17.09 12.66 17.04 11.83 17.08 11.35 17.4 11.13 17.55 11.01 17.73 10.96 17.99 10.68 19.61 11.84 20.89 13.98 21.33 14.7 21.48 15.47 21.58 16.23 21.66 17.13 21.77 18.06 21.88 18.92 22.1 19.36 22.53 19.88 23.02 20.4 23.58Z" fill="#F97419"/></g><g><path d="M38.15 20.26C37.88 19.66 37.53 19.32 37 19.42 37 19.42 36.14 19.77 36.39 20.66 36.64 21.55 38.05 22.64 38.05 22.64L38.84 21.71C38.63 21.27 38.32 20.64 38.15 20.26Z" fill="#FFAD97"/><g><path d="M35.73 19.71 42.11 23.7 42.22 23.49 36.71 18.12Z" fill="#40220A"/><path d="M36.73 19.28C36.43 19.71 35.95 19.88 35.64 19.66 35.33 19.45 35.33 18.93 35.62 18.51 35.92 18.09 36.4 17.91 36.71 18.13 37.02 18.33 37.03 18.85 36.73 19.28Z" fill="#4F2A10"/></g><path d="M39.69 21.7C39.69 21.7 39.3 21.76 38.95 21.79 38.6 21.82 38.5 22.02 38.35 22.44 38.2 22.86 38.51 23.35 38.7 23.37 38.89 23.39 40.56 23.24 41.05 23.13 41.53 23.02 41.85 22.74 41.91 22.44 41.3 21.15 39.69 21.7 39.69 21.7Z" fill="#FEBEB4"/><path d="M39.11 22.22C39.08 22.17 38.93 21.88 38.8 21.63L38.06 22.64C38.06 22.64 38.44 23.72 38.69 23.86 38.93 24 39.45 23.85 39.39 23.18 39.32 22.51 39.21 22.36 39.11 22.22Z" fill="#FFAD97"/></g><path d="M11.36 17.66C11.36 17.66 11.16 19.68 13.85 20.46 16.54 21.24 17.89 21.11 17.89 21.11 17.89 21.11 18.02 19.65 18.08 18.83 18.14 18 18.77 16.61 19.48 16.4 20.19 16.18 19.27 12.24 17.38 12.11 15.49 11.98 12.75 11.38 12.4 13.85 12.05 16.31 11.36 17.66 11.36 17.66Z" fill="#FFAD97"/><path d="M12.22 14.87C12.22 14.87 11.5 13.32 11.26 12.09 11.02 10.86 11.28 8.68 12.62 7.66 13.96 6.64 15.34 6.11 17.88 6.4 20.43 6.69 21.27 7.67 21.7 9.18 22.13 10.69 21.8 13.55 21.55 14.53 21.3 15.51 21.31 16.77 20.35 17.05 19.38 17.33 18.17 17.3 17.16 16.95 16.15 16.6 12.97 15.83 12.22 14.87Z" fill="#FEBEB4"/><path d="M11.94 16.06C11.94 16.06 12 14.63 11.36 13.37 10.72 12.11 10.72 9.25 11.28 8.31 11.84 7.37 12.12 6.61 12.95 6.32 13.78 6.03 14.73 5.36 17.35 5.75 19.97 6.14 21.51 7.29 22.05 8.55 22.59 9.81 22.28 10.51 21.96 11 21.64 11.49 20.14 12.37 19.3 12.82L19.41 13.34C19.41 13.34 18.65 13.43 18.66 14.72L18.27 14.78C18.27 14.78 17.89 13.89 17.11 14.02 16.34 14.15 16.35 15.75 16.52 16.83 16.76 18.36 15.1 18.21 14.07 17.64 12.63 16.87 12.43 16.7 11.94 16.06Z" fill="#49270B"/><path d="M18.06 14.27C18.12 14.69 18.21 15.18 18.06 15.69 17.91 16.2 17.09 16.47 16.79 15.79 16.49 15.11 16.68 14.18 17.23 13.8 17.78 13.42 18.03 13.99 18.06 14.27Z" fill="#FEBEB4"/><path d="M9.48 32.62C9.48 32.62 10.2 35.55 12.26 36.37 17.99 38.65 22.19 35.14 22.19 35.14L23.15 29.79C23.15 29.79 24.14 49.47 24.12 52.94 24.1 56.41 23.65 62.39 23.65 62.39 23.65 62.39 22.87 63.92 19.24 63.29 19.24 63.29 18.6 47.27 17.99 44.14 17.37 41 13.26 38.18 11.83 37.88 10.49 37.6 9.57 38.45 9.07 39.69 9.07 39.69 9.68 37.39 9.48 32.62Z" fill="#F97419"/><g><path d="M32.58 24.29C32.58 24.29 32.94 23.38 33.22 22.95 33.5 22.51 34.13 22.14 34.39 22.05 34.64 21.97 35.25 22.05 35.58 22.34 35.91 22.63 35.68 22.79 35.68 22.79 35.68 22.79 35.1 22.86 34.8 22.96 34.5 23.05 34.46 23.49 34.39 23.69 33.94 24.95 32.26 25.58 32.58 24.29Z" fill="#FEBEB4"/><g><g><g><linearGradient x1="-600.564" y1="166.732" x2="-599.855" y2="168.006" gradientUnits="userSpaceOnUse" id="SVGID_1_" gradientTransform="matrix(-0.5127 0.8586 -0.8586 -0.5127 -129.31 627.031)"><stop offset="0.2281" stop-color="#40220A"/><stop offset="1" stop-color="#4F2A10"/></linearGradient><path d="M34.72 31.6 35.34 31.25C35.39 31.22 35.41 31.19 35.41 31.16L35.41 31.16 35.32 20.13 34.1 20.2 33.92 31.24 33.92 31.24C33.92 31.27 33.93 31.29 33.96 31.31L34.44 31.6C34.51 31.65 34.64 31.65 34.72 31.6Z" fill="url(#SVGID_1_)"/><path d="M34.16 20.14 34.67 19.85C34.74 19.81 34.84 19.81 34.89 19.84L35.28 20.07C35.34 20.1 35.33 20.16 35.26 20.2L34.75 20.49C34.68 20.53 34.58 20.53 34.53 20.5L34.14 20.27C34.08 20.23 34.09 20.18 34.16 20.14Z" fill="#F0E7CA"/></g></g><g><path d="M33.92 20 32.66 19.27 35.61 17.56 36.87 18.29Z" fill="#E6E6E4"/><path d="M32.22 21.72 30.97 20.99 32.66 19.27 33.92 20Z" fill="#A7A7A7"/><path d="M32.22 22.09 30.97 21.36 30.97 20.99 32.22 21.72Z" fill="#E6E6E4"/><path d="M36.87 18.29 36.88 19.93 33.92 21.64 32.22 22.09 32.22 21.72 33.92 20Z" fill="#919191"/></g></g><path d="M18.34 35.11C18.34 35.11 19.51 37.72 20.96 38.37 22.42 39.01 24.1 38.51 25.47 37.28 26.84 36.05 33.54 28.09 33.54 28.09 33.54 28.09 36.28 27.93 36.91 27.67 37.54 27.41 37.06 26.83 37.06 26.83 37.06 26.83 37.35 26.66 37.44 26.48 37.53 26.29 37.23 25.9 37.23 25.9 37.23 25.9 37.45 25.55 37.39 25.26 37.32 24.97 36.98 24.75 36.98 24.75 36.98 24.75 37.13 24.29 36.93 23.93 36.73 23.57 35.97 22.86 35.67 22.8 35.37 22.74 35.14 23.23 35.52 23.73 35.52 23.73 34.82 23.69 34.38 23.69 33.94 23.69 32.91 23.77 32.57 24.3 32.23 24.82 32.07 25.17 31.81 25.48 31.56 25.79 28.47 29.38 27.04 30.36 25.82 31.2 23.51 33.33 23.51 33.33L22.92 32.05C22.92 32.05 22.26 30.46 21.11 29.96 19.96 29.46 17.98 30.45 17.77 31.45 17.58 32.42 18.34 35.11 18.34 35.11Z" fill="#FEBEB4"/><path d="M15.69 31.14C15.69 31.14 14.58 29.65 14.45 28.29 14.32 26.94 14.64 25.34 15.98 24.38 17.33 23.42 19.58 23.66 20.75 25.5 21.92 27.33 22.93 32.04 22.93 32.04 22.93 32.04 21.7 35.44 18.34 35.12 18.34 35.11 16.64 32.64 15.69 31.14Z" fill="#165A89"/></g></g></g></g></svg>