<svg width="365" height="381" xmlns="http://www.w3.org/2000/svg" xmlns:xlink="http://www.w3.org/1999/xlink" overflow="hidden"><g transform="translate(-172 -319)"><g><g><g><path d="M248.021 672.208 234.615 672.208 239.625 671.098C240.356 670.935 240.817 670.204 240.654 669.473 240.492 668.742 239.76 668.281 239.029 668.444L231.717 670.069C231.446 670.15 231.175 670.312 230.958 670.583L228.656 673.562 226.625 673.562 226.625 681.417 227.979 681.417C229.902 681.417 230.038 683.583 233.667 683.583 234.533 683.583 237.404 683.583 238.542 683.583 239.435 683.583 240.167 682.852 240.167 681.958 240.167 681.525 240.004 681.146 239.733 680.875 239.788 680.875 239.842 680.875 239.896 680.875 240.79 680.875 241.521 680.144 241.521 679.25 241.521 678.817 241.358 678.41 241.06 678.112 241.792 677.95 242.333 677.3 242.333 676.542 242.333 675.648 241.602 674.917 240.708 674.917L248.021 674.917C248.779 674.917 249.375 674.321 249.375 673.562 249.375 672.804 248.779 672.208 248.021 672.208Z"/></g></g></g><path d="M503.037 571.075 503.037 534.355 487.11 534.355 487.11 535.265 482.412 535.265 482.412 534.355 477.688 534.355 477.688 554.264 468.299 554.264 468.299 536.62 451.399 536.62 451.399 544.312 446.708 544.312 446.708 517.75 433.895 517.75 433.895 516.194 423.231 516.194 423.231 529.379 391.311 529.379 391.311 549.288 384.74 549.288 384.74 514 370.505 514 370.505 516.581 361.894 516.581 361.894 514 350.935 514 350.935 514.639 343.894 514.639 343.894 514 337.793 514 337.793 531.192 332.162 531.192 332.162 523.048 258.926 523.048 258.926 545.216 253.295 545.216 253.295 531.373 241.377 531.373 241.377 529.831 229.638 529.831 229.638 531.373 221.369 531.373 221.369 545.216 206.348 545.216 206.348 571.075 178 571.075 178 676.998 213.035 676.998 213.035 662.871 219.914 662.871 219.914 672.151 250.206 672.151 250.206 655.656 255.869 655.656 255.869 684 274.294 684 274.294 648.099 312.817 648.099 312.817 618.386 320.746 618.386 320.746 681.089 377.391 681.089 377.391 644.22 384.187 644.22 384.187 661.684 472.559 661.684 472.559 627.125 479.355 627.125 479.355 647.131 517.871 647.131 517.871 614.14 536 614.14 536 571.075Z" fill="#CCCCCC" fill-rule="evenodd" fill-opacity="0.490196"/><path d="M370 640 379 640 379 540.834 370 537Z" fill="#786567" fill-rule="evenodd"/><path d="M370 640 379 640 379 627.278C375.987 616.863 372.987 606.454 370 596L370 640Z" fill="#3B3B3D" fill-rule="evenodd"/><path d="M370 640 356 640 356 540.834 370 537Z" fill="#AEAB8A" fill-rule="evenodd"/><path d="M356 561 356 640 370 640 370 595.151Z" fill="#786567" fill-rule="evenodd"/><path d="M370 540 356 543.316 356 545 370 541.743Z" fill="#F1E4B0" fill-rule="evenodd"/><path d="M370 547 356 550.225 356 552 370 548.83Z" fill="#F1E4B0" fill-rule="evenodd"/><path d="M370 555 356 557.502 356 559 370 556.551Z" fill="#F1E4B0" fill-rule="evenodd"/><path d="M370 562 356 564.415 356 566 370 563.641Z" fill="#F1E4B0" fill-rule="evenodd"/><path d="M370 569 356 571.316 356 573 370 570.743Z" fill="#F1E4B0" fill-rule="evenodd"/><path d="M370 577 356 578.656 356 580 370 578.392Z" fill="#F1E4B0" fill-rule="evenodd"/><path d="M370 584 356 585.559 356 587 370 585.492Z" fill="#F1E4B0" fill-rule="evenodd"/><path d="M370 591 356 592.445 356 594 370 592.604Z" fill="#F1E4B0" fill-rule="evenodd"/><path d="M370 599 356 599.879 356 601 370 600.161Z" fill="#F1E4B0" fill-rule="evenodd"/><path d="M370 606 356 606.778 356 608 370 607.271Z" fill="#F1E4B0" fill-rule="evenodd"/><path d="M370 613 356 613.654 356 615 370 614.399Z" fill="#F1E4B0" fill-rule="evenodd"/><path d="M370 620 356 620.503 356 622 370 621.55Z" fill="#F1E4B0" fill-rule="evenodd"/><path d="M370 628 356 628.157 356 629 370 628.873Z" fill="#F1E4B0" fill-rule="evenodd"/><path d="M370 635 356 635.034 356 636 370 636Z" fill="#F1E4B0" fill-rule="evenodd"/><path d="M395 640 376 640 376 495.443 395 489Z" fill="#F1E4B0" fill-rule="evenodd"/><path d="M395 640 407 640 407 495.443 395 489Z" fill="#DFB374" fill-rule="evenodd"/><path d="M407 495.451 395 489 395 532 407 516.163Z" fill="#DFB374" fill-rule="evenodd"/><path d="M395 531.834 395 640 407 640 407 516Z" fill="#786567" fill-rule="evenodd"/><path d="M379 638 378 638 378 494.49 379 494Z" fill="#786567" fill-rule="evenodd"/><path d="M383 638 381 638 381 493.496 383 493Z" fill="#786567" fill-rule="evenodd"/><path d="M386 638 385 638 385 491.511 386 491Z" fill="#786567" fill-rule="evenodd"/><path d="M390 638 388 638 388 490.516 390 490Z" fill="#786567" fill-rule="evenodd"/><path d="M394 638 392 638 392 489.528 394 489Z" fill="#786567" fill-rule="evenodd"/><path d="M452 326 440.544 332.958C440.544 332.958 446.269 412.115 416 426.108L416 640 452 640 452 326Z" fill="#F1E4B0" fill-rule="evenodd"/><path d="M431 409.598 431 640 440 640 440 373C438.681 385.697 436.049 399.135 431 409.598Z" fill="#AEAB8A" fill-rule="evenodd"/><path d="M441.073 334 452 327.276 452 326 441 332.787C441 332.787 441.031 333.215 441.073 334Z" fill="#FFFFFF" fill-rule="evenodd"/><path d="M441.032 343 452 336.754 452 335 441 341.302C441.013 341.847 441.019 342.418 441.032 343Z" fill="#FFFFFF" fill-rule="evenodd"/><path d="M441 353 452 346.797 452 345 441.025 351.229C441.019 351.806 441.006 352.403 441 353Z" fill="#FFFFFF" fill-rule="evenodd"/><path d="M441 362 452 355.8 452 354 441.092 360.188C441.061 360.785 441.031 361.389 441 362Z" fill="#FFFFFF" fill-rule="evenodd"/><path d="M440 372 452 365.759 452 364 440.176 370.191C440.12 370.788 440.057 371.391 440 372Z" fill="#FFFFFF" fill-rule="evenodd"/><path d="M439 382 452 374.884 452 373 439.278 380.01C439.192 380.669 439.099 381.334 439 382Z" fill="#FFFFFF" fill-rule="evenodd"/><path d="M437 392 452 384.739 452 383 437.429 390.102C437.299 390.735 437.149 391.367 437 392Z" fill="#FFFFFF" fill-rule="evenodd"/><path d="M434 403 452 394.713 452 393 434.701 401.027C434.472 401.686 434.236 402.346 434 403Z" fill="#FFFFFF" fill-rule="evenodd"/><path d="M428 415 452 403.839 452 402 429.427 412.577C428.97 413.408 428.495 414.22 428 415Z" fill="#FFFFFF" fill-rule="evenodd"/><path d="M416 429 452 413.759 452 412 416 427.365Z" fill="#FFFFFF" fill-rule="evenodd"/><path d="M416 438 452 422.821 452 421 416 436.301Z" fill="#FFFFFF" fill-rule="evenodd"/><path d="M416 447 452 432.783 452 431 416 445.337Z" fill="#FFFFFF" fill-rule="evenodd"/><path d="M416 456 452 441.858 452 440 416 454.267Z" fill="#FFFFFF" fill-rule="evenodd"/><path d="M416 465 452 451.819 452 450 416 463.303Z" fill="#FFFFFF" fill-rule="evenodd"/><path d="M416 474 452 461.775 452 460 416 472.344Z" fill="#FFFFFF" fill-rule="evenodd"/><path d="M416 483 452 470.861 452 469 416 481.264Z" fill="#FFFFFF" fill-rule="evenodd"/><path d="M416 492 452 480.815 452 479 416 490.307Z" fill="#FFFFFF" fill-rule="evenodd"/><path d="M416 501 452 489.912 452 488 416 499.216Z" fill="#FFFFFF" fill-rule="evenodd"/><path d="M416 510 452 499.865 452 498 416 508.26Z" fill="#FFFFFF" fill-rule="evenodd"/><path d="M416 519 452 508.976 452 507 416 517.157Z" fill="#FFFFFF" fill-rule="evenodd"/><path d="M416 527 452 518.756 452 517 416 525.367Z" fill="#FFFFFF" fill-rule="evenodd"/><path d="M416 536 452 528.688 452 527 416 534.437Z" fill="#FFFFFF" fill-rule="evenodd"/><path d="M416 545 452 537.81 452 536 416 543.317Z" fill="#FFFFFF" fill-rule="evenodd"/><path d="M416 554 452 547.736 452 546 416 552.387Z" fill="#FFFFFF" fill-rule="evenodd"/><path d="M416 563 452 556.882 452 555 416 561.25Z" fill="#FFFFFF" fill-rule="evenodd"/><path d="M416 572 452 566.801 452 565 416 570.326Z" fill="#FFFFFF" fill-rule="evenodd"/><path d="M416 581 452 575.986 452 574 416 579.154Z" fill="#FFFFFF" fill-rule="evenodd"/><path d="M416 590 452 585.889 452 584 416 588.238Z" fill="#FFFFFF" fill-rule="evenodd"/><path d="M416 599 452 595.778 452 594 416 597.342Z" fill="#FFFFFF" fill-rule="evenodd"/><path d="M416 608 452 605.039 452 603 416 606.098Z" fill="#FFFFFF" fill-rule="evenodd"/><path d="M416 617 452 614.915 452 613 416 615.213Z" fill="#FFFFFF" fill-rule="evenodd"/><path d="M416 626 452 624.32 452 622 416 623.836Z" fill="#FFFFFF" fill-rule="evenodd"/><path d="M416 634 452 633.466 452 632 416 632.632Z" fill="#FFFFFF" fill-rule="evenodd"/><path d="M453 326 464.456 332.958C464.456 332.958 458.731 412.115 489 426.108L489 640 453 640 453 326Z" fill="#786567" fill-rule="evenodd"/><path d="M484 422.562C479.949 419.444 476.663 415.106 474 410L474 640 484 640 484 422.562Z" fill="#3B3B3D" fill-rule="evenodd"/><path d="M463.963 334C463.988 333.609 464 333.396 464 333.396L453 326 453 326.652 463.963 334Z" fill="#3B3B3D" fill-rule="evenodd"/><path d="M453 335.98 463.962 343C463.975 342.331 463.987 341.703 464 341.09L453 334 453 335.98Z" fill="#3B3B3D" fill-rule="evenodd"/><path d="M453 345.806 464 352C463.994 351.396 463.981 350.804 463.981 350.219L453 344 453 345.806Z" fill="#3B3B3D" fill-rule="evenodd"/><path d="M453 355.817 464 362C463.969 361.388 463.938 360.783 463.914 360.177L453 354 453 355.817Z" fill="#3B3B3D" fill-rule="evenodd"/><path d="M453 364.774 465 371C464.943 370.388 464.886 369.782 464.829 369.176L453 363 453 364.774Z" fill="#3B3B3D" fill-rule="evenodd"/><path d="M453.006 374.692 466 381C465.906 380.404 465.813 379.815 465.726 379.219L453 373 453 374.692Z" fill="#3B3B3D" fill-rule="evenodd"/><path d="M453 383.955 468 392C467.855 391.291 467.711 390.582 467.572 389.873L453 382 453 383.955Z" fill="#3B3B3D" fill-rule="evenodd"/><path d="M453 393.912 471 403C470.761 402.273 470.528 401.546 470.308 400.805L453 392 453 393.912Z" fill="#3B3B3D" fill-rule="evenodd"/><path d="M453 403.733 476 414C475.541 413.274 475.101 412.524 474.673 411.749L453 402 453 403.733Z" fill="#3B3B3D" fill-rule="evenodd"/><path d="M453 412.863 489 429 489 427.262 453 411Z" fill="#3B3B3D" fill-rule="evenodd"/><path d="M453 422.828 489 438 489 436.294 453 421Z" fill="#3B3B3D" fill-rule="evenodd"/><path d="M453 431.902 489 447 489 445.232 453 430Z" fill="#3B3B3D" fill-rule="evenodd"/><path d="M453 441.865 489 456 489 454.259 453 440Z" fill="#3B3B3D" fill-rule="evenodd"/><path d="M453 451.825 489 465 489 463.297 453 450Z" fill="#3B3B3D" fill-rule="evenodd"/><path d="M453 460.909 489 474 489 472.225 453 459Z" fill="#3B3B3D" fill-rule="evenodd"/><path d="M453 470.734 489 482 489 480.382 453 469Z" fill="#3B3B3D" fill-rule="evenodd"/><path d="M453 479.821 489 491 489 489.301 453 478Z" fill="#3B3B3D" fill-rule="evenodd"/><path d="M453 489.772 489 500 489 498.353 453 488Z" fill="#3B3B3D" fill-rule="evenodd"/><path d="M453 499.716 489 509 489 507.405 453 498Z" fill="#3B3B3D" fill-rule="evenodd"/><path d="M453 508.817 489 518 489 516.304 453 507Z" fill="#3B3B3D" fill-rule="evenodd"/><path d="M453 518.757 489 527 489 525.366 453 517Z" fill="#3B3B3D" fill-rule="evenodd"/><path d="M453 527.876 489 536 489 534.256 453 526Z" fill="#3B3B3D" fill-rule="evenodd"/><path d="M453 537.81 489 545 489 543.311 453 536Z" fill="#3B3B3D" fill-rule="evenodd"/><path d="M453 547.737 489 554 489 552.385 453 546Z" fill="#3B3B3D" fill-rule="evenodd"/><path d="M453 556.884 489 563 489 561.249 453 555Z" fill="#3B3B3D" fill-rule="evenodd"/><path d="M453 566.801 489 572 489 570.32 453 565Z" fill="#3B3B3D" fill-rule="evenodd"/><path d="M453 575.986 489 581 489 579.154 453 574Z" fill="#3B3B3D" fill-rule="evenodd"/><path d="M453 585.896 489 590 489 588.238 453 584Z" fill="#3B3B3D" fill-rule="evenodd"/><path d="M453 595.782 489 599 489 597.338 453 594Z" fill="#3B3B3D" fill-rule="evenodd"/><path d="M453 605.046 489 608 489 606.098 453 603Z" fill="#3B3B3D" fill-rule="evenodd"/><path d="M453 614.922 489 617 489 615.213 453 613Z" fill="#3B3B3D" fill-rule="evenodd"/><path d="M453 623.742 489 625 489 623.374 453 622Z" fill="#3B3B3D" fill-rule="evenodd"/><path d="M453 633.472 489 634 489 632.632 453 632Z" fill="#3B3B3D" fill-rule="evenodd"/><path d="M451 640 448 640 448 386.6 451 385Z" fill="#F1E4B0" fill-rule="evenodd"/><path d="M451 640 453 640 453 386.6 451 385Z" fill="#F4A42F" fill-rule="evenodd"/><path d="M474 640 472 640 472 403.491 474 402Z" fill="#F1E4B0" fill-rule="evenodd"/><path d="M474 640 477 640 477 403.491 474 402Z" fill="#F4A42F" fill-rule="evenodd"/><path d="M429 640 427 640 427 403.491 429 402Z" fill="#F1E4B0" fill-rule="evenodd"/><path d="M429 640 432 640 432 403.491 429 402Z" fill="#F4A42F" fill-rule="evenodd"/><path d="M323 641 341 641 341 554.273 323 548Z" fill="#786567" fill-rule="evenodd"/><path d="M323 559 323 641 341 641 341 591.734Z" fill="#3B3B3D" fill-rule="evenodd"/><path d="M341 556.645 341 558 323 553.355 323 552Z" fill="#DFB374" fill-rule="evenodd"/><path d="M341 562.816 341 564 323 560.184 323 559Z" fill="#DFB374" fill-rule="evenodd"/><path d="M341 569.513 341 571 323 566.495 323 565Z" fill="#DFB374" fill-rule="evenodd"/><path d="M341 575.692 341 577 323 573.308 323 572Z" fill="#DFB374" fill-rule="evenodd"/><path d="M341 581.898 341 583 323 580.107 323 579Z" fill="#DFB374" fill-rule="evenodd"/><path d="M341 588.535 341 590 323 586.466 323 585Z" fill="#DFB374" fill-rule="evenodd"/><path d="M341 594.75 341 596 323 593.25 323 592Z" fill="#DFB374" fill-rule="evenodd"/><path d="M341 601.002 341 602 323 599.998 323 599Z" fill="#DFB374" fill-rule="evenodd"/><path d="M341 607.568 341 609 323 606.432 323 605Z" fill="#DFB374" fill-rule="evenodd"/><path d="M341 613.844 341 615 323 613.156 323 612Z" fill="#DFB374" fill-rule="evenodd"/><path d="M341 620.324 341 622 323 619.685 323 618Z" fill="#DFB374" fill-rule="evenodd"/><path d="M341 626.616 341 628 323 626.377 323 625Z" fill="#DFB374" fill-rule="evenodd"/><path d="M341 632.982 341 634 323 633.018 323 632Z" fill="#DFB374" fill-rule="evenodd"/><path d="M341 639.293 341 641 323 639.707 323 638Z" fill="#DFB374" fill-rule="evenodd"/><path d="M323 641 312 641 312 554.273 323 548Z" fill="#DFB374" fill-rule="evenodd"/><path d="M343 641 343 566 329 569.706 329 641Z" fill="#F1E4B0" fill-rule="evenodd"/><path d="M329 592 329 641 343 641 343 611.905Z" fill="#DFB374" fill-rule="evenodd"/><path d="M351 641 351 568.723 343 565 343 641Z" fill="#3B3B3D" fill-rule="evenodd"/><path d="M485 640 464 640 464 536.489 485 529Z" fill="#FFFFFF" fill-rule="evenodd"/><path d="M464 539.416 464 541 484 535.584 484 534Z" fill="#DFB374" fill-rule="evenodd"/><path d="M464 547.344 464 549 484 543.656 484 542Z" fill="#DFB374" fill-rule="evenodd"/><path d="M464 554.506 464 556 484 551.488 484 550Z" fill="#DFB374" fill-rule="evenodd"/><path d="M464 562.43 464 564 484 559.57 484 558Z" fill="#DFB374" fill-rule="evenodd"/><path d="M464 569.617 464 571 484 567.383 484 566Z" fill="#DFB374" fill-rule="evenodd"/><path d="M464 577.533 464 579 484 575.467 484 574Z" fill="#DFB374" fill-rule="evenodd"/><path d="M464 584.443 464 586 484 582.557 484 581Z" fill="#DFB374" fill-rule="evenodd"/><path d="M464 592.336 464 594 484 590.664 484 589Z" fill="#DFB374" fill-rule="evenodd"/><path d="M464 599.574 464 601 484 598.432 484 597Z" fill="#DFB374" fill-rule="evenodd"/><path d="M464 607.457 464 609 484 606.543 484 605Z" fill="#DFB374" fill-rule="evenodd"/><path d="M464 615.315 464 617 484 614.678 484 613Z" fill="#DFB374" fill-rule="evenodd"/><path d="M464 622.618 464 624 484 622.382 484 621Z" fill="#DFB374" fill-rule="evenodd"/><path d="M464 630.471 464 632 484 630.529 484 629Z" fill="#DFB374" fill-rule="evenodd"/><path d="M464 637.862 464 639 484 638.138 484 637Z" fill="#DFB374" fill-rule="evenodd"/><path d="M485 640 497 640 497 536.489 485 529Z" fill="#DFB374" fill-rule="evenodd"/><path d="M231 346 269 346 269 385 231 385 231 346ZM268.425 346.567 231.582 346.567 231.582 384.426 268.425 384.426 268.425 346.567Z" fill="#B3B3B3" fill-rule="evenodd"/><path d="M269 388 270 388 270 397 269 397Z" fill="#B3B3B3" fill-rule="evenodd"/><path d="M231 388 232 388 232 397 231 397Z" fill="#B3B3B3" fill-rule="evenodd"/><path d="M233 395 269 395 269 396 233 396Z" fill="#B3B3B3" fill-rule="evenodd"/><path d="M266.654 395.889 270.004 392.818 270.386 393.236 267.037 396.306Z" fill="#B3B3B3" fill-rule="evenodd"/><path d="M228.024 397.408 233.39 393.449 233.726 393.905 228.361 397.864Z" fill="#B3B3B3" fill-rule="evenodd"/><path d="M219 384 230 384 230 385 219 385Z" fill="#B3B3B3" fill-rule="evenodd"/><path d="M221 346 222 346 222 384 221 384Z" fill="#B3B3B3" fill-rule="evenodd"/><path d="M216 346 230 346 230 347 216 347Z" fill="#B3B3B3" fill-rule="evenodd"/><path d="M218.119 348.989 223.111 343.997 223.512 344.398 218.519 349.39Z" fill="#B3B3B3" fill-rule="evenodd"/><path d="M217.287 387.638 222.693 382.232 223.093 382.632 217.687 388.039Z" fill="#B3B3B3" fill-rule="evenodd"/><path d="M249 331 250 331 250 386 249 386Z" fill="#B3B3B3" fill-rule="evenodd"/><path d="M212 330 270 330 270 331 212 331Z" fill="#B3B3B3" fill-rule="evenodd"/><path d="M236.123 326 236.653 326.076C236.159 329.905 237.225 334 239.508 337.025 241.79 340.051 245.338 342.076 249 342.443L248.952 343C245.151 342.62 241.465 340.513 239.092 337.367 236.719 334.228 235.611 329.975 236.123 326Z" fill="#B3B3B3" fill-rule="evenodd"/><path d="M227 330 228 330 228 338 227 338Z" fill="#B3B3B3" fill-rule="evenodd"/><path d="M269 319 270 319 270 344 269 344Z" fill="#B3B3B3" fill-rule="evenodd"/><path d="M264.952 334.935 270.96 328.246 271.382 328.625 265.373 335.313Z" fill="#B3B3B3" fill-rule="evenodd"/><path d="M292 462C296.96 462 301 466.034 301 471 301 475.96 296.966 480 292 480 287.034 480 283 475.966 283 471 283 466.034 287.04 462 292 462ZM292 479.491C296.682 479.491 300.491 475.682 300.491 471 300.491 466.318 296.682 462.509 292 462.509 287.318 462.509 283.509 466.318 283.509 471 283.509 475.682 287.318 479.491 292 479.491Z" fill="#B3B3B3" fill-rule="evenodd"/><path d="M261 471 307 471 307 472 261 472Z" fill="#B3B3B3" fill-rule="evenodd"/><path d="M292 471 293 471 293 504 292 504Z" fill="#B3B3B3" fill-rule="evenodd"/><path d="M272.045 456 272.52 456.026C272.063 464.618 275.176 473.459 280.84 479.685 286.447 485.845 294.624 489.502 302.744 489.502 302.825 489.502 302.906 489.502 302.994 489.502L303 490C302.919 490 302.831 490 302.75 490 294.499 490 286.197 486.284 280.496 480.025 274.739 473.714 271.582 464.729 272.045 456Z" fill="#B3B3B3" fill-rule="evenodd"/><path d="M226 427 255 427 254.994 427.291C254.872 434.959 251.835 442.154 246.435 447.555 241.035 452.956 233.879 455.961 226.282 456L226 456 226 427ZM254.423 427.57 226.57 427.57 226.57 455.424C241.618 455.191 254.026 442.782 254.423 427.57Z" fill="#B3B3B3" fill-rule="evenodd"/><path d="M218 399 219 399 219 487 218 487Z" fill="#B3B3B3" fill-rule="evenodd"/><path d="M191 424 282 424 282 425 191 425Z" fill="#B3B3B3" fill-rule="evenodd"/><path d="M268 420 269 420 269 427 268 427Z" fill="#B3B3B3" fill-rule="evenodd"/><path d="M212.059 429.282 221.157 420.185 221.558 420.586 212.459 429.683Z" fill="#B3B3B3" fill-rule="evenodd"/><path d="M214.957 472.963 220.995 466.924 221.396 467.325 215.357 473.364Z" fill="#B3B3B3" fill-rule="evenodd"/><path d="M218 470 219.001 470 219.001 471 218 471Z" fill="#B3B3B3" fill-rule="evenodd"/><path d="M217 470 248 470 248 471 217 471Z" fill="#B3B3B3" fill-rule="evenodd"/><path d="M240 462 241 462 241 470 240 470Z" fill="#B3B3B3" fill-rule="evenodd"/><path d="M240 424 241 424 241 438 240 438Z" fill="#B3B3B3" fill-rule="evenodd"/><path d="M272 573 219 573 219 518 272 518 272 573ZM219.884 572.119 271.109 572.119 271.109 518.888 219.884 518.888 219.884 572.119Z" fill="#B3B3B3" fill-rule="evenodd"/><path d="M218 501 219 501 219 513 218 513Z" fill="#B3B3B3" fill-rule="evenodd"/><path d="M271 501 272 501 272 513 271 513Z" fill="#B3B3B3" fill-rule="evenodd"/><path d="M219 504 270 504 270 505 219 505Z" fill="#B3B3B3" fill-rule="evenodd"/><path d="M216.595 506.357 221.287 502.056 221.883 502.706 217.191 507.007Z" fill="#B3B3B3" fill-rule="evenodd"/><path d="M267.945 505.434 275.457 499.886 275.981 500.595 268.469 506.143Z" fill="#B3B3B3" fill-rule="evenodd"/><path d="M274 519 289 519 289 520 274 520Z" fill="#B3B3B3" fill-rule="evenodd"/><path d="M285 520 286 520 286 572 285 572Z" fill="#B3B3B3" fill-rule="evenodd"/><path d="M274 572 293 572 293 573 274 573Z" fill="#B3B3B3" fill-rule="evenodd"/><path d="M282.246 574.752 289.241 567.757 289.864 568.381 282.869 575.375Z" fill="#B3B3B3" fill-rule="evenodd"/><path d="M282.833 521.207 290.41 513.63 291.034 514.254 283.456 521.831Z" fill="#B3B3B3" fill-rule="evenodd"/><path d="M246 517 247 517 247 593 246 593Z" fill="#B3B3B3" fill-rule="evenodd"/><path d="M217 594 299 594 299 595 217 595Z" fill="#B3B3B3" fill-rule="evenodd"/><path d="M264.819 601 263.972 600.881C264.693 595.276 263.138 589.279 259.815 584.842 256.491 580.404 251.324 577.439 246 576.902L246.082 576C251.637 576.564 257.018 579.655 260.486 584.278 263.953 588.895 265.571 595.15 264.819 601Z" fill="#B3B3B3" fill-rule="evenodd"/><path d="M276 584 277 584 277 595 276 595Z" fill="#B3B3B3" fill-rule="evenodd"/><path d="M218 576 219 576 219 610 218 610Z" fill="#B3B3B3" fill-rule="evenodd"/><path d="M215.2 596.84 223.62 587.473 224.276 588.062 215.856 597.43Z" fill="#B3B3B3" fill-rule="evenodd"/><path d="M323 607.5C323 613.843 317.843 619 311.5 619 305.157 619 300 613.843 300 607.5 300 601.157 305.157 596 311.5 596 317.843 596 323 601.157 323 607.5ZM300.716 607.5C300.716 613.45 305.557 618.291 311.507 618.291 317.456 618.291 322.297 613.45 322.297 607.5 322.297 601.55 317.456 596.709 311.507 596.709 305.557 596.709 300.716 601.55 300.716 607.5Z" fill="#B3B3B3" fill-rule="evenodd"/><path d="M312 567 313 567 313 626 312 626Z" fill="#B3B3B3" fill-rule="evenodd"/><path d="M269 608 313 608 313 609 269 609Z" fill="#B3B3B3" fill-rule="evenodd"/><path d="M332 581.058 331.961 581.753C320.864 581.153 309.436 585.26 301.398 592.742 293.438 600.148 288.713 610.935 288.713 621.665 288.713 621.773 288.713 621.886 288.713 621.994L288 622C288 621.886 288 621.779 288 621.665 288 610.752 292.81 599.776 300.906 592.237 309.08 584.628 320.708 580.451 332 581.058Z" fill="#B3B3B3" fill-rule="evenodd"/><path d="M340.377 464.068C343.645 470.083 343.877 477.781 340.974 483.996 337.533 484.043 334.033 483.656 330.868 482.241 327.709 480.825 324.909 478.288 323.657 474.957 322.405 471.625 322.925 467.5 325.365 464.976 328.351 461.892 333.089 461.878 337.295 462.065L340.377 464.068Z" fill="#FA9774" fill-rule="evenodd"/><path d="M337 491.557C335.565 487.291 334.636 482.816 334.258 478.288 331.515 478.181 328.779 477.751 326.116 477 326.44 481.991 326.403 487.016 326 492 329.671 491.852 333.335 491.705 337 491.557Z" fill="#FA9774" fill-rule="evenodd"/><path d="M331.987 478.087C330.013 477.872 328.052 477.51 326.123 477 326.468 481.991 326.429 487.016 326 492 328.331 491.913 330.662 491.826 333 491.738 331.883 487.25 331.416 482.595 331.987 478.087Z" fill="#EA7D5C" fill-rule="evenodd"/><path d="M335.761 464.391C335.447 464.326 335.126 464.286 334.812 464.253 330.76 463.838 326.4 463.68 322.912 465.84 321.63 466.63 320.475 467.803 320.116 469.291 319.648 471.273 320.668 473.288 321.822 474.948 323.463 477.319 325.021 479.209 327.246 481 327.548 479.518 329.054 478.563 330.247 477.674 331.44 476.785 332.78 476.114 333.934 475.179 334.344 474.849 334.729 474.48 335.081 474.085 335.447 474.559 335.838 475.014 336.268 475.429 336.3 474.336 336.364 473.236 336.46 472.143 336.742 471.642 336.979 471.115 337.178 470.575 338.082 470.45 338.973 470.266 339.852 470.009 340.576 469.798 341.307 469.535 341.91 469.061 342.513 468.586 342.974 467.882 343 467.105 340.929 465.491 338.364 464.536 335.761 464.391Z" fill="#282626" fill-rule="evenodd"/><path d="M335.19 473.446C334.396 472.757 333.032 472.882 332.385 473.711 331.738 474.54 331.93 475.899 332.787 476.512 333.05 476.7 333.382 476.846 333.499 477.146 333.592 477.382 333.522 477.647 333.499 477.898 333.446 478.532 333.726 479.18 334.216 479.577 334.706 479.974 335.399 480.106 336 479.911L335.19 473.446Z" fill="#FA9774" fill-rule="evenodd"/><path d="M334.665 476.971C334.747 477.075 334.842 477.142 334.914 477.26 334.986 477.379 335.029 477.564 334.977 477.697 334.732 478.052 334.545 478.511 334.445 479 334.526 478.585 334.407 478.141 334.224 477.808 334.047 477.475 333.812 477.23 333.616 476.927 333.42 476.623 333.247 476.238 333.252 475.801 333.491 475.75 333.726 475.69 333.966 475.639 333.764 475.461 333.52 475.424 333.314 475.261 333.108 475.098 332.931 474.72 333.027 474.395 333.094 474.173 333.262 474.076 333.415 474.032 334.004 473.869 334.641 474.343 334.934 475.15 334.689 475.239 334.488 475.55 334.435 475.927 334.373 476.312 334.469 476.727 334.665 476.971Z" fill="#282626" fill-rule="evenodd"/><path d="M330.043 652.87C327.513 652.94 324.969 652.352 322.709 651.219 327.339 620.505 339.649 590.757 338.973 559.716 332.67 560.068 326.334 559.825 320.076 559L319.651 563.823C318.428 572.502 323.939 582.288 323.714 591.045 323.566 596.833 321.879 602.449 320.642 608.11 317.739 621.452 317.352 635.165 317.423 648.853 316.992 651.61 316.56 654.366 316.129 657.123 315.994 657.993 315.865 658.94 316.296 659.714 316.702 660.455 317.552 660.878 318.395 660.974 319.239 661.069 320.089 660.89 320.913 660.679 324.48 659.765 327.892 658.287 330.996 656.317 331.479 656.01 331.968 655.678 332.29 655.204 332.612 654.731 332.728 654.079 332.432 653.586 331.987 652.838 330.919 652.844 330.043 652.87Z" fill="#FA9774" fill-rule="evenodd"/><path d="M320.722 657.869C323.84 657.183 326.671 655.445 328.717 653.079 326.587 652.958 324.476 652.4 322.567 651.451 327.236 620.659 339.655 590.836 338.973 559.718 332.614 560.071 326.223 559.827 319.91 559L319.481 563.835C318.247 572.536 323.807 582.347 323.58 591.125 323.43 596.928 321.729 602.558 320.482 608.233 317.552 621.608 317.163 635.356 317.234 649.078 316.825 651.701 316.409 654.317 316 656.94 317.286 657.863 318.955 658.216 320.722 657.869Z" fill="#FA9774" fill-rule="evenodd"/><path d="M329.588 595.87C332.863 584.579 330.775 572.373 331.969 560.474 331.969 560.269 331.981 560.07 332 559.865 328.05 559.82 324.1 559.532 320.181 559L319.769 563.831C318.581 572.527 323.931 582.33 323.713 591.102 323.569 596.901 321.931 602.527 320.731 608.198 317.912 621.564 317.538 635.302 317.606 649.015 317.406 650.341 317.206 651.674 317 653 317.956 651.264 319.069 649.604 320.356 648.041 323.638 630.958 324.531 612.959 329.588 595.87Z" fill="#EA7D5C" fill-rule="evenodd"/><path d="M331.835 653.794C331.401 652.993 330.371 653 329.527 653.027 329.13 653.041 328.733 653.027 328.329 653 326.375 655.527 323.669 657.383 320.691 658.115 319.003 658.485 317.409 658.109 316.186 657.116 316.168 657.266 316.143 657.424 316.124 657.575 315.994 658.506 315.87 659.519 316.286 660.348 316.528 660.841 316.937 661.197 317.403 661.43 317.676 661.834 317.874 662.3 317.967 662.793 318.904 663.204 319.959 662.937 320.914 662.574 321.43 662.375 321.951 662.149 322.366 661.759 322.683 661.464 322.931 661.06 323.024 660.622 325.636 659.656 328.137 658.341 330.458 656.705 330.923 656.376 331.395 656.02 331.705 655.513 332.009 655.02 332.12 654.315 331.835 653.794Z" fill="#282626" fill-rule="evenodd"/><path d="M378.919 664.354C378.585 663.447 377.438 663.267 376.493 663.151 372.096 662.611 367.969 660.231 365.146 656.757 360.679 624.715 364.586 591.56 357.403 560 351.783 561.242 346.019 561.795 340.273 561.653L339 566.973C343.095 576.294 347.235 585.789 348.488 595.921 349.27 602.226 348.91 608.62 349.32 614.963 350.309 630.157 355.671 644.631 358.953 659.504 358.852 660.507 358.569 661.537 358.298 662.495 357.731 664.509 357.473 667.063 359.098 668.336 360.012 669.05 361.265 669.108 362.393 668.883 363.521 668.664 364.592 668.201 365.713 667.97 367.793 667.539 369.941 667.918 372.058 668.021 374.175 668.124 376.468 667.886 378.081 666.477 378.698 665.943 379.202 665.113 378.919 664.354Z" fill="#FA9774" fill-rule="evenodd"/><path d="M359.95 652.878C359.061 645.83 356.692 638.781 356.692 631.726 356.692 611.191 357.283 591.57 353.141 570.727 352.451 567.392 352.476 564.244 352.519 561 348.465 561.624 344.354 561.888 340.256 561.785L339 567.109C343.042 576.436 347.128 585.938 348.365 596.076 349.136 602.385 348.782 608.784 349.186 615.131 350.162 630.335 355.454 644.819 358.694 659.702 358.62 660.468 358.439 661.247 358.24 662 359.415 659.052 360.211 656.026 359.95 652.878Z" fill="#EA7D5C" fill-rule="evenodd"/><path d="M378.919 664.172C378.644 663.393 377.817 663.133 377.009 663 376.007 664.478 374.56 665.59 372.568 666.043 368.096 667.308 364.514 664.778 360.342 664.139 359.634 664.139 358.851 664.065 358.068 664.059 357.881 665.577 358.043 667.108 359.014 668.081 359.152 668.547 359.246 669.026 359.29 669.505 360.317 670.038 361.532 670.145 362.628 669.805 363.543 669.519 364.369 668.919 364.965 668.127 365.24 668.041 365.522 667.967 365.804 667.907 367.871 667.461 370.007 667.854 372.111 667.961 374.216 668.067 376.495 667.821 378.099 666.363 378.7 665.817 379.201 664.958 378.919 664.172Z" fill="#282626" fill-rule="evenodd"/><path d="M310.266 498.909C308.41 510.188 308.551 521.823 310.98 533 322.092 532.569 331.866 525.8 340.358 518.651 341.716 517.503 343.119 516.272 343.737 514.604 344.355 512.941 343.89 510.734 342.271 509.992 334.869 513.316 327.473 516.633 320.071 519.958 322.245 513.627 321.984 506.756 321.697 500.07 321.614 498.148 321.518 496.169 320.747 494.405 319.969 492.642 318.35 491.107 316.418 491.005 314.582 490.91 312.873 492.141 311.904 493.695 310.929 495.255 310.565 497.101 310.266 498.909Z" fill="#2C2F3D" fill-rule="evenodd"/><path d="M313 491C312.423 491.48 311.924 492.116 311.548 492.816 310.696 494.405 310.371 496.293 310.113 498.142 308.481 509.675 308.605 521.571 310.741 533 310.853 532.994 310.965 532.987 311.077 532.981 309.62 518.775 308.644 504.161 313 491Z" fill="#343747" fill-rule="evenodd"/><path d="M290.483 545.888C291.802 548.406 295.191 548.859 298.055 549 315.108 530.979 333.17 513.891 352.131 497.845 354.278 496.03 356.664 493.525 355.83 490.854 355.079 488.457 351.937 487.512 349.505 488.24 347.08 488.969 345.224 490.867 343.459 492.669 328.184 508.332 311.5 522.582 294.712 536.66 293.296 537.842 291.86 539.057 290.916 540.635 289.991 542.22 289.629 544.258 290.483 545.888Z" fill="#786567" fill-rule="evenodd"/><path d="M295.837 541.767C295.176 540.926 294.054 540.309 293.15 540.814 292.404 541.228 292.131 542.214 291.949 543.1 291.864 543.514 291.78 543.934 291.822 544.355 291.864 544.775 292.052 545.202 292.386 545.412 291.834 545.123 291.549 544.42 291.543 543.757 291.543 543.094 291.773 542.456 292.034 541.852 292.289 541.248 292.58 540.65 292.689 540 291.816 540.86 291.173 542.023 291.027 543.297 290.888 544.565 291.282 545.924 292.174 546.772 293.271 547.823 294.867 547.934 296.328 548 297.384 546.082 297.177 543.455 295.837 541.767Z" fill="#3B3B3D" fill-rule="evenodd"/><path d="M355.832 490.848C355.127 488.56 352.258 487.602 349.907 488.151 347.889 491.091 346.442 494.319 344.149 497.118 338.967 504.116 332.863 508.679 327.374 515.07 320.969 522.676 312.431 526.938 306.026 534.243 303.585 536.985 300.229 539.414 300.229 541.548 300.075 544.021 299.211 546.571 298 548.962 298.205 548.974 298.404 548.987 298.602 549 315.492 530.977 333.382 513.888 352.161 497.84 354.288 496.019 356.658 493.513 355.832 490.848Z" fill="#282626" fill-rule="evenodd"/><path d="M360.995 490.192C360.906 488.376 359.666 486.788 358.144 485.828 356.623 484.869 354.852 484.428 353.114 484 338.604 508.132 316.858 526.694 297.28 546.806 295.746 548.381 294.135 550.171 294.007 552.382 293.892 554.463 295.19 556.415 296.871 557.621 298.545 558.826 300.565 559.423 302.54 560 311.464 550.793 320.4 541.567 328.441 531.557 337.901 519.789 346.146 506.9 357.134 496.585 359.007 494.828 361.116 492.772 360.995 490.192Z" fill="#F1E4B0" fill-rule="evenodd"/><path d="M318.701 535.813C319.303 544.156 307.844 545.388 306.634 551.876 306.33 553.965 305.766 556.015 305 558 313.197 549.45 321.349 540.841 328.735 531.557 338.109 519.782 346.281 506.885 357.169 496.563 359.025 494.805 361.115 492.749 360.995 490.167 360.957 489.395 360.71 488.662 360.324 488 350.582 507.08 333.713 521.313 318.701 535.813Z" fill="#FA9774" fill-rule="evenodd"/><path d="M302.672 556.99C303.222 554.867 303.076 552.532 302.268 550.519 301.907 549.615 301.374 548.738 300.585 548.293 299.434 547.649 297.934 548.115 297.102 549.211 296.264 550.307 296.055 551.888 296.368 553.285 295.529 552.34 295.468 550.669 296.233 549.656 294.874 550.834 294.678 553.196 295.449 554.915 296.221 556.641 297.739 557.805 299.318 558.572 300.046 558.928 300.915 559.209 301.619 558.791 302.188 558.428 302.488 557.696 302.672 556.99Z" fill="#786567" fill-rule="evenodd"/><path d="M296 552.763C296.61 555.076 298.243 557.025 300.271 557.832 300.716 558.01 301.262 558.117 301.631 557.782 301.98 557.453 302.006 556.868 301.999 556.361 301.987 554.897 301.974 553.441 301.961 551.978 301.955 550.992 301.872 549.843 301.141 549.286 300.588 548.865 299.839 548.951 299.235 549.272 298.25 549.793 297.532 550.9 297.392 552.113 297.252 553.327 297.703 554.605 298.542 555.383 298.364 554.562 298.085 553.769 297.983 552.927 297.881 552.085 297.976 551.171 298.472 550.536 298.968 549.9 299.934 549.7 300.48 550.286 300.9 550.735 300.951 551.464 300.932 552.113 300.906 552.891 300.824 553.662 300.684 554.419 300.608 554.826 300.506 555.247 300.252 555.547 299.826 556.054 299.082 556.083 298.523 555.776 297.964 555.469 297.557 554.912 297.195 554.341 296.833 553.784 296.489 553.191 296 552.763Z" fill="#3B3B3D" fill-rule="evenodd"/><path d="M358.478 541.492C346.493 540.579 332.672 539.15 320.925 537 316.717 552.918 315.893 569.436 318.451 585.591 330.996 590.229 345.758 589.317 359.432 587.62 361.332 587.403 364 587.014 364 587.014 364 587.014 359.831 553.276 358.478 541.492Z" fill="#282626" fill-rule="evenodd"/><path d="M327.184 581.73C325.922 578.994 326.553 576.87 328.446 574.44 329.077 573.228 328.446 572.01 327.815 571.098 317.493 561.186 326.984 549.036 330 538.41 326.931 537.976 323.929 537.51 321.046 537 316.709 552.914 315.859 569.427 318.496 585.576 321.564 586.68 324.759 587.464 328.041 588 328.333 585.653 327.981 583.261 327.184 581.73Z" fill="#3B3B3D" fill-rule="evenodd"/><path d="M321 471.1C320.273 470.8 319.411 471.195 319 472L321 471.1Z" fill="#F4A42F" fill-rule="evenodd"/><path d="M361 558.777C353.909 512.183 361.911 512.267 349.774 491.285 349.768 491.285 346.595 489.195 346.589 489.195 337.854 486.771 327.641 488.454 318.817 490.53 316.816 491.001 314.656 491.73 313.637 493.483 312.904 494.754 312.923 496.308 313.108 497.759 314.268 506.96 320.817 514.833 322.136 524.015 323.423 532.959 317.485 541.019 316.459 549.994 316.217 552.109 316.192 554.444 317.523 556.12 318.517 557.377 322.219 558.79 323.748 559.318 325.557 559.944 327.405 560.46 329.272 560.872 328.329 552.677 331.928 544.739 332.795 536.795 333.286 545.004 333.184 553.599 334.891 561.794 342.148 562.588 354.036 560.982 361 558.777Z" fill="#343747" fill-rule="evenodd"/><path d="M313.661 496.788C313.46 495.958 313.26 494.986 313.184 494 312.927 495.018 312.978 496.127 313.103 497.177 314.244 506.431 320.69 514.348 321.988 523.582 323.254 532.576 317.41 540.681 316.401 549.707 316.244 551.128 316.182 552.645 316.545 554 317.818 546.828 320.715 539.559 322.32 532.919 325.605 519.944 316.05 509.446 313.661 496.788Z" fill="#F1E4B0" fill-rule="evenodd"/><path d="M349.836 490.866C349.829 490.866 346.674 488.789 346.668 488.789 345.432 488.449 344.165 488.186 342.879 488 333.4 501.614 344.127 518.908 345.312 533.862 346.015 542.776 343.842 552.106 344.013 561 350.013 560.564 356.527 559.397 361 557.98 353.948 511.649 361.906 511.733 349.836 490.866Z" fill="#2C2F3D" fill-rule="evenodd"/><path d="M340 488.539C335.509 486.639 330.502 485.772 325.566 486.051 325.257 486.069 324.921 486.099 324.689 486.295 324.445 486.502 324.393 486.835 324.354 487.138 324.238 488.094 324.116 489.044 324 490 328.298 489.495 332.59 488.991 336.888 488.492L340 488.539Z" fill="#2C2F3D" fill-rule="evenodd"/><path d="M360.297 570.279C359.381 570.684 358.428 571.147 357.85 571.978 357.22 572.872 357.144 574.03 357.1 575.131 356.75 583.78 357.322 592.474 358.803 601 370.543 597.158 380.764 589.623 390 581.347 388.843 575.227 387.68 569.107 386.517 562.988 386.282 561.765 386.034 560.497 385.335 559.474 384.629 558.451 383.339 557.73 382.156 558.097 379.353 561.263 375.698 563.535 371.904 565.349 368.109 567.164 364.136 568.567 360.297 570.279Z" fill="#786567" fill-rule="evenodd"/><path d="M379.819 558C380.063 558 380.281 558.108 380.471 558.222 381.314 558.738 381.871 559.508 382 560.318 381.586 560.639 381.062 560.871 380.498 561 380.498 560.587 380.498 560.164 380.274 559.787 380.05 559.415 379.533 559.105 379.003 559.167 378.996 558.919 378.99 558.661 379.105 558.434 379.214 558.201 379.493 558 379.819 558Z" fill="#282626" fill-rule="evenodd"/><path d="M358.366 601C370.271 597.225 380.635 589.821 390 581.69 389.626 579.794 389.259 577.897 388.885 576 380.145 583.473 368.434 587.602 357 590.839 357.309 594.247 357.761 597.636 358.366 601Z" fill="#3B3B3D" fill-rule="evenodd"/><path d="M361.794 592.661C362.424 586.039 361.605 579.274 359.425 573 358.203 575.603 358.014 578.572 358.001 581.458 357.97 587.353 358.581 593.247 359.815 599 361.164 597.228 361.579 594.903 361.794 592.661Z" fill="#282626" fill-rule="evenodd"/><path d="M363.202 588 363.208 587.769C363.31 585.083 363.335 581.917 362.719 578.827 362.083 575.628 360.792 572.859 359 570.833L359.229 570.628C361.059 572.699 362.369 575.513 363.017 578.763 363.621 581.801 363.615 584.891 363.519 587.545 371.751 584.365 379.538 580.103 386.67 574.872 386.561 574.109 386.46 573.276 386.352 572.397 385.729 567.32 384.871 560.365 381.858 559.289L381.959 559C385.15 560.141 385.983 566.917 386.657 572.359 386.771 573.269 386.873 574.135 386.987 574.917L387 575.006 386.924 575.058C379.69 580.372 371.783 584.699 363.418 587.904L363.202 588Z" fill="#3B3B3D" fill-rule="evenodd"/><path d="M369 585C368.421 585.193 367.828 585.399 367.416 585.747 367.003 586.094 366.836 586.625 367.202 587 367.795 586.775 368.394 586.549 368.993 586.324 368.987 585.883 368.993 585.441 369 585Z" fill="#282626" fill-rule="evenodd"/><path d="M385.108 578C385.448 577.972 385.774 577.539 385.917 576.922 386.061 576.305 386.014 575.539 385.803 575 385.534 575.34 385.269 575.688 385 576.028 385.036 576.688 385.072 577.341 385.108 578Z" fill="#282626" fill-rule="evenodd"/><path d="M384 560.829C383.719 560.552 383.432 560.276 383.151 560 376.558 564.997 368.997 568.752 361 571.008 361.635 571.455 362.016 572.237 361.976 573 364.142 571.034 366.783 569.673 369.398 568.331 374.265 565.833 379.133 563.334 384 560.829Z" fill="#F1E4B0" fill-rule="evenodd"/><path d="M370.71 561.01C370.317 560.957 369.924 561.117 369.597 561.329 368.559 562.013 368.107 563.207 368.018 564.356 367.936 565.504 368.159 566.653 368.211 567.801 368.574 568.093 369.182 568.046 369.568 567.774 369.953 567.502 370.146 567.057 370.205 566.619 370.265 566.181 370.205 565.743 370.176 565.305 370.139 564.661 370.176 563.997 370.458 563.407 370.739 562.816 371.296 562.298 372 562.159 371.711 561.661 371.333 561.097 370.71 561.01Z" fill="#282626" fill-rule="evenodd"/><path d="M371.837 553C372.685 553.911 374.045 553.979 375.256 553.945 376.474 553.911 377.801 553.877 378.753 554.666 379.951 555.665 380.022 557.508 379.996 559.112 379.99 559.649 379.957 560.234 379.608 560.628 379.187 561.104 378.371 561.193 378.177 561.818 378.06 562.206 378.254 562.654 378.099 563.022 377.963 563.348 377.607 563.491 377.283 563.606 375.975 564.069 374.673 564.538 373.365 565 372.588 564.089 371.533 563.436 370.393 563.171 371.079 562.682 371.915 562.423 372.744 562.43 371.222 562.301 369.882 561.261 368.975 559.976 368.068 558.691 367.524 557.168 367 555.665 368.088 555.706 369.182 555.257 369.966 554.469L371.837 553Z" fill="#FA9774" fill-rule="evenodd"/><path d="M369.877 550C370.916 551.049 371.961 552.091 373 553.14 372.119 556.143 369.516 558.51 366.557 559 365.86 557.302 365.006 555.68 364 554.169 366.308 553.472 368.398 551.988 369.877 550Z" fill="#2C2F3D" fill-rule="evenodd"/><path d="M371 550.081C370.279 548.67 369.347 547.324 368.517 545.972 360.146 532.395 359.921 517.284 355.353 501.994 353.892 497.105 351.782 489.93 346.931 488.346 345.027 487.728 342.698 487.869 341.334 489.338 340.086 490.684 339.983 492.706 340.002 494.548 340.259 517.065 349.106 539.344 364.219 556 366.162 555.234 368.06 553.9 369.295 552.805 369.977 552.007 370.575 551.073 371 550.081Z" fill="#343747" fill-rule="evenodd"/><path d="M371 549.828C370.292 548.422 369.376 547.08 368.561 545.732 360.342 532.201 360.121 517.142 355.635 501.904 354.201 497.031 352.128 489.881 347.365 488.302 346.929 488.154 346.467 488.058 346 488 347.567 489.618 348.281 492.487 348.862 494.464 352.173 509.439 351.869 524.113 358.787 537.561 361.719 543.075 364.442 548.659 367.468 554 368.17 553.512 368.801 553.005 369.319 552.543 369.995 551.747 370.583 550.816 371 549.828Z" fill="#2C2F3D" fill-rule="evenodd"/><path d="M344.715 524C340.912 513.856 339.363 502.793 340.238 492L340.542 492.026C339.674 502.767 341.216 513.791 345 523.891L344.715 524Z" fill="#282626" fill-rule="evenodd"/><path d="M332.69 457.396C337.379 458.728 340.546 462.964 343 467.118 335.188 468.412 327.383 469.706 319.572 471 318.28 467.37 319.225 463.065 321.916 460.275 324.608 457.478 328.931 456.323 332.69 457.396Z" fill="#F4A42F" fill-rule="evenodd"/><path d="M322.212 464.062C321.358 463.715 320.895 462.995 320.703 462.122 318.968 464.727 318.499 468.083 319.572 471 327.384 469.749 335.189 468.498 343 467.247 341.889 465.423 340.623 463.586 339.139 462 334.064 465.362 327.724 466.546 322.212 464.062Z" fill="#DB8E1D" fill-rule="evenodd"/><path d="M319 471.694C328.189 469.465 337.372 467.229 346.562 465 346.71 465.566 346.852 466.131 347 466.697 337.901 468.798 328.802 470.899 319.702 473 319.47 472.562 319.238 472.131 319 471.694Z" fill="#F4A42F" fill-rule="evenodd"/><path d="M322.311 470 322 469.987C322.084 467.471 322.615 465.208 323.573 463.245 324.648 461.054 326.299 459.253 328.235 458.18 330.365 456.997 332.831 456.685 335 457.328L334.916 457.628C332.825 457.01 330.442 457.309 328.383 458.453 326.506 459.493 324.9 461.249 323.852 463.381 322.913 465.306 322.395 467.529 322.311 470Z" fill="#3B3B3D" fill-rule="evenodd"/><path d="M318.626 471.168 345.799 464.79 345.87 465.091 318.697 471.469Z" fill="#F1E4B0" fill-rule="evenodd"/><path d="M323 472.017C323.717 472.498 324.282 473.286 324.549 474.191 324.815 475.096 324.796 476.117 324.479 477 325.164 476.767 325.723 476.11 325.92 475.322 326.116 474.534 325.945 473.637 325.475 473.017 325.006 472.404 323.705 471.9 323 472.017Z" fill="#F4A42F" fill-rule="evenodd"/><path d="M316.775 498.267C316.476 498.191 316.177 498.115 315.885 498.033 316.565 498.753 317.608 499.114 318.586 498.968 319.565 498.823 320.455 498.172 320.894 497.287 321.599 495.846 321.104 494.026 321.86 492.61 322.597 491.232 324.383 490.506 324.758 488.989 325.292 486.834 322.578 484.843 323.144 482.694 323.487 481.392 324.974 480.507 325 479.161 325.012 478.403 324.548 477.733 324.212 477.044 323.875 476.361 323.69 475.47 324.193 474.895 324.428 474.623 324.828 474.383 324.758 474.029 324.714 473.795 324.472 473.656 324.262 473.555 322.426 472.664 320.43 471.981 318.389 472 316.349 472.019 314.233 472.809 312.993 474.427 311.754 476.045 311.607 478.523 312.936 480.065 314.004 481.297 315.93 482.03 316.063 483.648 316.158 484.78 315.275 485.721 314.589 486.625 313.966 487.44 313.451 488.369 313.285 489.381 313.12 490.392 313.349 491.498 314.055 492.25 314.982 493.236 316.546 493.457 317.411 494.494 318.319 495.612 318.008 497.508 316.775 498.267Z" fill="#282626" fill-rule="evenodd"/><path d="M316 473C315.007 473.056 314.061 473.57 313.515 474.344 312.969 475.118 312.849 476.133 313.195 477 312.935 476.189 313.362 475.316 313.968 474.684 314.574 474.053 315.354 473.588 316 473Z" fill="#786567" fill-rule="evenodd"/><path d="M316.739 480C315.574 479.228 314.905 478.089 314.957 476.956 315.009 475.824 315.774 474.716 317 474 315.235 474.255 313.974 475.562 314 476.851 314.035 478.139 315.192 479.334 316.739 480Z" fill="#786567" fill-rule="evenodd"/><path d="M317.216 474.986C317.065 475.273 316.987 475.643 317.002 476 317.333 475.336 317.669 474.664 318 474L317.216 474.986Z" fill="#786567" fill-rule="evenodd"/><path d="M315.869 486.072C314.857 486.452 314.084 487.622 314.006 488.892 313.929 490.163 314.557 491.447 315.521 492 314.797 490.909 315.078 489.072 316.078 488.361 316.132 488.785 316.599 488.95 316.928 488.806 317.264 488.663 317.503 488.325 317.779 488.053 318.389 487.457 319.21 487.191 319.988 487.342 319.994 486.897 319.994 486.452 320 486 319.599 486.617 318.946 486.99 318.294 486.969 317.641 486.947 316.24 486.718 315.869 486.072Z" fill="#786567" fill-rule="evenodd"/><path d="M290 433 213 453.169 226.113 502 290 433ZM267.595 446.563 232.109 484.894 224.824 457.767 267.595 446.563Z" fill="#3B6082" fill-rule="evenodd"/><path d="M271.38 438.199 271.908 438.059 272.755 441.251 272.226 441.391Z" fill="#E8E8E8" fill-rule="evenodd"/><path d="M264.462 440.036 264.99 439.896 265.837 443.088 265.308 443.228Z" fill="#E8E8E8" fill-rule="evenodd"/><path d="M257.514 441.874 258.043 441.734 258.889 444.925 258.361 445.065Z" fill="#E8E8E8" fill-rule="evenodd"/><path d="M250.592 443.712 251.121 443.571 251.968 446.763 251.439 446.903Z" fill="#E8E8E8" fill-rule="evenodd"/><path d="M243.647 445.555 244.175 445.414 245.022 448.606 244.493 448.746Z" fill="#E8E8E8" fill-rule="evenodd"/><path d="M236.724 447.389 237.253 447.249 238.099 450.44 237.571 450.58Z" fill="#E8E8E8" fill-rule="evenodd"/><path d="M229.787 449.225 230.315 449.085 231.162 452.277 230.633 452.417Z" fill="#E8E8E8" fill-rule="evenodd"/><path d="M222.855 451.071 223.384 450.931 224.231 454.122 223.702 454.262Z" fill="#E8E8E8" fill-rule="evenodd"/><path d="M215.913 452.91 216.441 452.77 217.288 455.961 216.759 456.102Z" fill="#E8E8E8" fill-rule="evenodd"/><path d="M366.154 449.656 368.46 447.495 412.61 494.608 410.304 496.769Z" fill="#B82337" fill-rule="evenodd"/><path d="M412.31 495 410 497.072 416.8 502 417 501.821Z" fill="#FA9774" fill-rule="evenodd"/><path d="M412 495.787C413.309 497.202 414.654 498.598 416 500L412.806 495 412 495.787Z" fill="#EA7D5C" fill-rule="evenodd"/><path d="M415 499.978 416.855 502 417 501.805 415.723 499Z" fill="#282626" fill-rule="evenodd"/><path d="M366.158 449.641 366.557 449.266 410.707 496.38 410.307 496.754Z" fill="#282626" fill-rule="evenodd"/><path d="M367.008 448.816 367.557 448.301 411.707 495.408 411.158 495.922Z" fill="#282626" fill-rule="evenodd"/><path d="M267 611.799 266.601 612 264 608.61 265.205 608Z" fill="#282626" fill-rule="evenodd"/><path d="M266 609.352 264.859 610 259 601.955 262.43 600Z" fill="#FFFFFF" fill-rule="evenodd"/><path d="M261 600.928C262.6 603.879 264.064 606.927 265.463 610L266 609.678 262.529 600 261 600.928Z" fill="#B0B8AD" fill-rule="evenodd"/><path d="M217.857 526.003 219.781 524.934 221.959 528.855 220.035 529.924Z" fill="#3B6082" fill-rule="evenodd"/><path d="M217.884 528.606 222.058 526.286 262.542 599.144 258.368 601.464Z" fill="#282626" fill-rule="evenodd"/><path d="M218.635 528.189 219.546 527.683 260.03 600.541 259.119 601.047Z" fill="#3B3B3D" fill-rule="evenodd"/><path d="M250.54 587.752 255.051 585.245 263.838 601.059 259.327 603.566Z" fill="#3B6082" fill-rule="evenodd"/><path d="M218.55 530.178 223.062 527.671 231.849 543.485 227.337 545.992Z" fill="#3B6082" fill-rule="evenodd"/><path d="M219.4 529.676 219.732 529.492 228.427 545.166 228.095 545.351Z" fill="#FFFFFF" fill-rule="evenodd"/><path d="M251.515 587.476 251.847 587.292 260.545 602.965 260.213 603.149Z" fill="#FFFFFF" fill-rule="evenodd"/><path d="M220.624 526.434 221.401 526.003 235.361 551.127 234.585 551.559Z" fill="#B0B8AD" fill-rule="evenodd"/><path d="M453.231 512.636 453.771 511.715 470.987 521.798 470.447 522.72Z" fill="#3B3B3D" fill-rule="evenodd"/><path d="M406.374 584 404 582.584 458.929 513 464 516.025Z" fill="#282626" fill-rule="evenodd"/><path d="M464 515.923 460.743 514 405 583.54 405.782 584Z" fill="#786567" fill-rule="evenodd"/><path d="M432 598.496 434.526 600 467 517.995 461.967 515Z" fill="#282626" fill-rule="evenodd"/><path d="M460.892 517.62 469.951 502.153 471.423 503.015 462.364 518.482Z" fill="#B82337" fill-rule="evenodd"/><path d="M467.174 520.784C465.503 523.88 461.825 524.921 458.968 523.11 456.11 521.298 455.15 517.312 456.822 514.216 458.493 511.12 462.171 510.079 465.028 511.89 467.892 513.709 468.852 517.688 467.174 520.784Z" fill="#B82337" fill-rule="evenodd"/><path d="M463.726 519.01C463.168 519.961 461.941 520.285 460.99 519.726 460.039 519.168 459.715 517.941 460.274 516.99 460.832 516.039 462.059 515.715 463.01 516.274 463.961 516.832 464.285 518.059 463.726 519.01Z" fill="#3B3B3D" fill-rule="evenodd"/><path d="M464.755 509.118 469.663 500.738 472.796 502.572 467.887 510.952Z" fill="#282626" fill-rule="evenodd"/><path d="M407.157 579.961C408.769 578.189 410.388 576.417 412 574.645 410.476 574.432 408.951 574.213 407.42 574 405.7 576.004 403.98 578.008 402.26 580.012 401.97 580.35 401.666 580.713 401.592 581.139 401.444 582.003 402.219 582.704 402.698 583.481 401.774 584.633 400.87 585.804 400 587 402.752 585.015 405.174 582.623 407.157 579.961Z" fill="#282626" fill-rule="evenodd"/><path d="M432.488 598.027C431.34 600.536 430.504 603.221 430 605.974 430.276 606.063 430.578 605.913 430.768 605.683 430.965 605.452 431.069 605.154 431.18 604.856 432.12 602.238 433.06 599.621 434 597.01 433.552 596.874 432.931 598.17 432.488 598.027Z" fill="#282626" fill-rule="evenodd"/><path d="M435.572 589 432.482 591.124 429 602.195 432.593 603 438 590.506Z" fill="#3B6082" fill-rule="evenodd"/><path d="M432.816 603 438 590.278 436.054 589C434.875 593.625 433.431 598.198 432 602.81L432.816 603Z" fill="#E8E8E8" fill-rule="evenodd"/><path d="M466 515C465.247 513.38 463.795 512.24 462.233 512.033 460.671 511.832 459.035 512.57 458 513.953 459.985 512.298 463.874 513.602 466 515Z" fill="#F4A42F" fill-rule="evenodd"/><rect x="172" y="631" width="364" height="68" fill="#FFFFFF"/></g></svg>