<svg width="394" height="255" xmlns="http://www.w3.org/2000/svg" xmlns:xlink="http://www.w3.org/1999/xlink" overflow="hidden"><defs><clipPath id="clip0"><rect x="822" y="325" width="394" height="255"/></clipPath></defs><g clip-path="url(#clip0)" transform="translate(-822 -325)"><path d="M1214.78 539.976C1214.41 544.817 1213.6 549.278 1212.53 553.329 1210.55 560.81 1206.3 567.203 1200.64 571.856 1194.41 576.979 1186.46 579.989 1177.96 580L1177.77 580C1169.81 579.968 1160.03 579.926 1148.86 579.876 1148.52 579.875 1148.17 579.873 1147.82 579.871 1140.57 579.839 1132.75 579.805 1124.49 579.766 1122.03 579.755 1119.53 579.743 1116.99 579.73 1110.93 579.703 1104.66 579.675 1098.23 579.644 1096.39 579.634 1094.54 579.627 1092.68 579.617 1083.33 579.574 1073.67 579.527 1063.82 579.479 1062.18 579.472 1060.54 579.464 1058.9 579.456 1052.52 579.425 1046.07 579.394 1039.59 579.363 1029.02 579.312 1018.37 579.261 1007.76 579.208 1007.34 579.207 1006.92 579.205 1006.5 579.204 995.075 579.148 983.719 579.092 972.613 579.038 967.111 579.012 961.672 578.985 956.314 578.959 955.098 578.951 953.886 578.947 952.679 578.942 952.678 578.942 952.678 578.942 952.678 578.942 943.207 578.894 934.017 578.849 925.234 578.804 923.362 578.795 921.508 578.787 919.673 578.778 913.793 578.748 908.114 578.719 902.677 578.693 899.624 578.679 896.65 578.663 893.756 578.649 884.845 578.604 876.727 578.564 869.606 578.53 868.972 578.527 868.349 578.522 867.73 578.521 864.61 578.505 861.695 578.491 859.005 578.476 852.648 578.445 846.646 576.515 841.616 573.158 835.742 569.238 831.193 563.37 828.964 556.3 828.912 556.131 828.859 555.959 828.808 555.789 827.402 551.058 826.094 545.735 825.113 539.976 824.683 537.46 824.32 534.86 824.037 532.19 820.973 503.331 822.27 454.596 862.768 425.171 894.218 402.318 862.795 365.62 891.754 344.801 913.777 328.969 939.482 332.542 956.192 333.361 965.783 333.832 973.231 329.817 973.231 329.817 988.389 329.837 1003.17 333.748 1022.87 330.893 1032.07 329.561 1049.25 327.397 1051.08 327.259 1086.8 324.612 1125.83 342.623 1146.57 364.39 1150.74 368.772 1169.73 391.451 1154.76 422.624 1145.31 442.304 1184.9 461.101 1198.97 483.575 1210.44 501.898 1214.61 518.314 1214.97 532.188 1215.04 534.884 1214.97 537.48 1214.78 539.976Z" fill="#1C468A" fill-rule="evenodd"/><path d="M966.337 371 932 533 1087 533 1058.41 371 1038.58 371.134 1014.8 441.109 986.166 371.134Z" fill="#F9DDBF" fill-rule="evenodd"/><path d="M903 363 1161 363 1161 365 903 365Z" fill="#233862" fill-rule="evenodd"/><path d="M903 353 1175 353 1175 355 903 355Z" fill="#233862" fill-rule="evenodd"/><path d="M908.857 354.647 909.72 353.57 922.314 363.657 921.45 364.735Z" fill="#233862" fill-rule="evenodd"/><path d="M923.978 354.647 924.841 353.57 937.434 363.657 936.571 364.735Z" fill="#233862" fill-rule="evenodd"/><path d="M939.994 354.647 940.858 353.57 953.451 363.657 952.587 364.735Z" fill="#233862" fill-rule="evenodd"/><path d="M955.115 354.647 955.978 353.57 968.571 363.657 967.708 364.735Z" fill="#233862" fill-rule="evenodd"/><path d="M971.561 354.647 972.424 353.569 985.017 363.657 984.154 364.734Z" fill="#233862" fill-rule="evenodd"/><path d="M986.68 354.649 987.544 353.571 1000.14 363.658 999.274 364.736Z" fill="#233862" fill-rule="evenodd"/><path d="M1001.63 354.649 1002.5 353.571 1015.09 363.658 1014.23 364.736Z" fill="#233862" fill-rule="evenodd"/><path d="M1016.75 354.648 1017.62 353.571 1030.21 363.658 1029.35 364.736Z" fill="#233862" fill-rule="evenodd"/><path d="M1033.58 354.647 1034.44 353.569 1047.03 363.655 1046.17 364.732Z" fill="#233862" fill-rule="evenodd"/><path d="M1048.72 354.647 1049.58 353.57 1062.17 363.657 1061.31 364.735Z" fill="#233862" fill-rule="evenodd"/><path d="M1064.67 354.646 1065.53 353.569 1078.13 363.656 1077.26 364.734Z" fill="#233862" fill-rule="evenodd"/><path d="M1079.79 354.649 1080.65 353.571 1093.25 363.659 1092.38 364.736Z" fill="#233862" fill-rule="evenodd"/><path d="M1098.38 354.648 1099.25 353.57 1111.84 363.658 1110.98 364.735Z" fill="#233862" fill-rule="evenodd"/><path d="M1113.5 354.648 1114.37 353.57 1126.96 363.658 1126.1 364.735Z" fill="#233862" fill-rule="evenodd"/><path d="M1132.73 354.648 1133.59 353.57 1146.18 363.658 1145.32 364.735Z" fill="#233862" fill-rule="evenodd"/><path d="M924 462.486C924 462.486 924.454 459.138 925.545 459.01 926.636 458.882 927.947 459.995 927.999 460.909 928.051 461.822 925.545 464 925.545 464L924 462.486Z" fill="#FFB27D" fill-rule="evenodd"/><path d="M909 454C909 454 915.602 466.78 918.226 466.335 920.851 465.888 923.561 462.818 923.561 462.818L925 464.249C925 464.249 921.614 471.628 918.142 471.979 914.671 472.333 909.591 468.031 909.591 468.031L909 454Z" fill="#8C9DF4" fill-rule="evenodd"/><path d="M913 532 903.267 532C902.57 531.558 903.456 527.232 903.456 527.232 903.456 527.232 906.112 526.289 906.571 528.207 907.031 530.123 909.954 530.733 911.502 530.966 912.56 531.128 912.894 531.671 913 532Z" fill="#102B51" fill-rule="evenodd"/><path d="M898 532 888.267 532C887.57 531.558 888.456 527.232 888.456 527.232 888.456 527.232 891.112 526.289 891.571 528.207 892.031 530.123 894.954 530.733 896.502 530.966 897.56 531.128 897.894 531.671 898 532Z" fill="#102B51" fill-rule="evenodd"/><path d="M910 483.782C910 483.782 909.571 489.432 909.066 496.225 908.38 505.45 906.529 528.327 906.529 528.327 906.529 528.327 905.316 529.418 902.628 528.822 902.628 528.822 900.34 520.93 899.657 511.923 899.647 511.774 899.636 511.626 899.626 511.478 898.989 502.308 898 483 898 483L910 483.782Z" fill="#183768" fill-rule="evenodd"/><path d="M911 482C911 482 910.383 489.58 909.843 496.351L899.774 512C899.762 511.852 899.751 511.704 899.74 511.556 899.059 502.415 898 483.164 898 483.164L911 482Z" fill="#102B51" fill-rule="evenodd"/><path d="M908 482.383C908 482.383 900.76 499.893 898.446 506.531 896.798 511.259 892.149 527.845 892.149 527.845 892.149 527.845 890.127 528.444 888.428 527.288 888.428 527.288 886.698 510.341 890.193 505.564 892.047 503.03 890.653 479.212 898.169 479.009 905.684 478.802 908 482.383 908 482.383Z" fill="#183768" fill-rule="evenodd"/><path d="M904.628 456.444C903.606 457.057 902.608 457.095 901.743 456.885 900.953 456.697 900.273 456.299 899.789 455.947 899.292 455.587 899 455.271 899 455.271 899 455.271 899.035 455.215 899.093 455.103 899.395 454.517 900.311 452.406 899.904 449.014 899.898 448.97 900.195 449.033 900.641 449.153 901.969 449.511 904.64 450.372 904.759 450.41 904.762 450.41 904.763 450.41 904.763 450.41 904.763 450.41 904.796 451.123 904.905 452.401 904.914 452.514 904.924 452.633 904.936 452.753 904.949 452.903 904.964 453.062 904.98 453.225 905.103 454.556 904.628 456.444 904.628 456.444Z" fill="#FFB27D" fill-rule="evenodd"/><path d="M905 451.951C902.994 452.42 900 449.398 900 449.398 900.219 449.231 900.448 449.1 900.686 449 902.03 449.326 904.731 450.107 904.852 450.142 904.855 450.142 904.856 450.142 904.856 450.142 904.856 450.142 904.89 450.79 905 451.951Z" fill="#ED975D" fill-rule="evenodd"/><path d="M911.663 488.579C911.663 488.579 891.85 489.61 892.001 488.446 892.051 488.054 892.57 482.573 892.988 477.431 893.095 476.122 893.194 474.837 893.278 473.662 893.419 471.661 893.516 469.98 893.52 469.065 893.531 466.878 893.551 464.753 893.623 462.96 893.623 462.96 892.633 455.916 893.733 454.761 895.021 453.408 898.809 452.995 899.045 453.046 899.117 453.031 899.187 453.013 899.261 453 899.261 453 902.484 454.84 904.881 453.478 904.881 453.478 904.904 453.482 904.949 453.489 905.531 453.583 908.443 454.263 909.448 455.339 909.796 455.708 911.18 457.983 911.219 460.481 911.272 463.961 912.608 488.579 911.663 488.579Z" fill="#8C9DF4" fill-rule="evenodd"/><path d="M905.327 452 905 467 908.504 461.591 906.822 460.15 909 458.259 907.547 452.401Z" fill="#6980E2" fill-rule="evenodd"/><path d="M900 452 902.995 453.957 905 452 904.426 467Z" fill="#FFFFFF" fill-rule="evenodd"/><path d="M913.155 444.721C911.083 443.415 908.231 443.941 906.229 445.83L906.229 445.83C905.856 446.182 905.513 446.582 905.209 447.025 903.767 449.133 903.64 451.645 904.694 453.428L904.694 453.428C905.051 454.031 905.541 454.552 906.163 454.943 906.688 455.273 908.57 455.872 909.08 455.961 909.59 456.05 909.826 456.949 909.826 456.949L910.141 456.915C910.141 456.915 909.884 456.253 910.965 455.838 912.045 455.422 914.716 456.758 915.134 457.438 915.553 458.119 914.648 458.628 914.648 458.628L914.88 459.025C915.544 458.612 916.585 459.424 916.585 459.424L916.596 459.407C916.879 459.722 917.21 460.006 917.59 460.245 919.798 461.638 922.764 461.048 924.214 458.928 925.664 456.807 925.05 453.959 922.842 452.566 922.409 452.293 921.949 452.098 921.475 451.974 921.16 451.785 920.463 451.296 920.566 450.714L920.096 450.667C920.096 450.667 919.966 451.667 919.151 451.567 918.335 451.468 915.998 449.644 915.966 448.526 915.934 447.409 916.668 447.373 916.668 447.373L916.575 447.082C916.575 447.082 915.622 447.229 915.334 446.814 915.048 446.401 913.694 445.062 913.155 444.721Z" fill="#F99746" fill-rule="evenodd"/><path d="M912.42 454.11 914.244 451.333 914.593 451.562 912.769 454.339Z" fill="#FFFFFF" fill-rule="evenodd"/><path d="M930 463.031 929.365 464 916 456.13 917.395 454Z" fill="#ED7D2B" fill-rule="evenodd"/><path d="M914.901 455.692C914.885 455.709 914.72 456.123 913.959 455.964 913.818 455.933 913.396 455.767 913.115 455.579 912.339 455.061 911.138 454.077 910.439 454.142 910.437 454.142 910.437 454.142 910.436 454.142 910.43 454.142 910.427 454.144 910.422 454.144 910.265 454.169 910.105 454.299 910.139 454.389 910.16 454.444 910.161 454.487 910.337 454.485 910.512 454.483 910.638 454.931 910.344 454.917 910.051 454.904 910.02 454.693 910.02 454.693 909.881 454.041 910.512 454.016 910.514 454.018 911.242 453.882 912.359 454.552 913.188 455.107 913.466 455.292 913.886 455.57 914.01 455.631 914.55 455.897 914.798 455.608 914.812 455.595 914.931 455.459 914.923 455.239 914.829 455.214 914.776 455.2 914.746 455.177 914.645 455.338 914.545 455.499 914.146 455.35 914.329 455.091 914.511 454.831 914.679 454.929 914.679 454.929 915.234 455.183 914.901 455.692 914.901 455.692Z" fill="#FFFFFF" fill-rule="evenodd"/><path d="M916.915 452.782C916.922 452.763 917.174 452.492 916.775 451.903 916.701 451.794 916.419 451.493 916.174 451.318 915.498 450.833 914.316 450.142 914.108 449.534 914.108 449.533 914.108 449.533 914.107 449.531 914.105 449.527 914.105 449.524 914.104 449.519 914.064 449.379 914.105 449.202 914.185 449.202 914.236 449.201 914.267 449.19 914.328 449.336 914.391 449.485 914.775 449.446 914.657 449.202 914.539 448.961 914.371 449.003 914.371 449.003 913.828 449.096 914.041 449.636 914.042 449.636 914.207 450.292 915.122 451.014 915.844 451.532 916.086 451.705 916.449 451.968 916.54 452.054 916.938 452.422 916.812 452.724 916.806 452.74 916.748 452.883 916.578 452.947 916.526 452.877 916.496 452.838 916.468 452.819 916.551 452.682 916.635 452.545 916.379 452.26 916.25 452.497 916.121 452.734 916.256 452.844 916.256 452.844 916.652 453.228 916.915 452.782 916.915 452.782Z" fill="#FFFFFF" fill-rule="evenodd"/><path d="M929.242 463.836 930.01 462.668 933.047 464.663 932.279 465.831Z" fill="#ED7D2B" fill-rule="evenodd"/><path d="M910 451.033C910.103 451.135 912.513 453.378 912.616 453.473L912.619 453.475 912.622 453.476 930.979 465 931 464.957 912.646 453.435C912.557 453.351 910.137 451.099 910.035 451L910 451.033Z" fill="#FFFFFF" fill-rule="evenodd"/><path d="M910 451.035 912.751 453.091 930.977 464 931 463.961 912.777 453.053 910.029 451Z" fill="#FFFFFF" fill-rule="evenodd"/><path d="M911.017 450 911 450.044 914.164 451.608 931.973 464 932 463.962 914.188 451.568Z" fill="#FFFFFF" fill-rule="evenodd"/><path d="M911 451.035 913.921 452.996 931.975 464 932 463.963 913.947 452.959 911.028 451Z" fill="#FFFFFF" fill-rule="evenodd"/><path d="M928.148 465.211 928.148 465.211C927.875 465.428 927.991 465.72 928.409 465.861L928.593 465.924C929.012 466.065 929.578 466.005 929.852 465.789L929.852 465.789C930.126 465.572 930.009 465.28 929.591 465.139L929.407 465.076C928.99 464.935 928.424 464.995 928.148 465.211Z" fill="#ED7D2B" fill-rule="evenodd"/><path d="M928.947 465.402 929.783 464.129 930.087 464.329 929.251 465.601Z" fill="#ED7D2B" fill-rule="evenodd"/><path d="M930.074 465.211 930.074 465.211C929.937 465.427 929.996 465.72 930.204 465.861L930.296 465.924C930.505 466.065 930.789 466.005 930.926 465.789L930.926 465.789C931.063 465.573 931.004 465.28 930.796 465.139L930.704 465.077C930.493 464.935 930.211 464.995 930.074 465.211Z" fill="#ED7D2B" fill-rule="evenodd"/><path d="M930.369 465.831 930.974 464.909 931.194 465.053 930.588 465.975Z" fill="#ED7D2B" fill-rule="evenodd"/><path d="M931.074 461.211 931.074 461.211C931.211 460.995 931.494 460.935 931.703 461.076L931.795 461.139C932.005 461.28 932.063 461.574 931.926 461.789L931.926 461.789C931.789 462.005 931.505 462.065 931.297 461.924L931.205 461.861C930.995 461.72 930.937 461.428 931.074 461.211Z" fill="#ED7D2B" fill-rule="evenodd"/><path d="M931.633 461.973 930.796 463.245 930.493 463.046 931.329 461.773Z" fill="#ED7D2B" fill-rule="evenodd"/><path d="M932.074 463.211 932.074 463.211C932.211 462.995 932.495 462.935 932.704 463.077L932.796 463.139C933.004 463.28 933.063 463.573 932.926 463.789L932.926 463.789C932.789 464.005 932.505 464.065 932.296 463.924L932.204 463.861C931.996 463.718 931.937 463.427 932.074 463.211Z" fill="#ED7D2B" fill-rule="evenodd"/><path d="M932.507 463.04 931.902 463.962 931.682 463.818 932.288 462.896Z" fill="#ED7D2B" fill-rule="evenodd"/><path d="M910.454 453C910.287 452.883 905 447.814 905 447.814L905.503 447 912 450.497 910.454 453Z" fill="#ED7D2B" fill-rule="evenodd"/><path d="M906.69 446 906.69 446C906.239 446.37 905.824 446.791 905.458 447.258 903.719 449.478 903.566 452.123 904.837 454L904.837 454C904.837 454 907.381 453.588 907.934 451.984 908.488 450.385 905.373 448.668 905.358 448.66 905.36 448.661 907.545 447.001 906.69 446Z" fill="#ED7D2B" fill-rule="evenodd"/><path d="M902.993 472.437 902.544 472.102C902.409 472.001 902.545 471.614 902.845 471.237L917.313 453.108C917.613 452.731 917.968 452.506 918.102 452.606L918.552 452.942 919 452.379 918.55 452.044C918.306 451.861 917.66 452.271 917.112 452.959L902.645 471.088C902.097 471.774 901.849 472.482 902.095 472.664L902.545 473 902.993 472.437Z" fill="#0B0755" fill-rule="evenodd"/><path d="M902.655 473.334 918.756 452.452 918.864 452.535 902.763 473.417Z" fill="#0B0755" fill-rule="evenodd"/><path d="M905.434 450.473C905.434 450.473 904.595 450.777 903.525 450.924 901.96 451.137 899.903 451.012 899.257 449.097 898.168 445.875 896.778 443.943 899.981 442.628 901.696 441.923 902.793 441.885 903.538 442.155 904.185 442.386 904.567 442.85 904.855 443.308 905.479 444.294 906.73 449.909 905.434 450.473Z" fill="#FFB27D" fill-rule="evenodd"/><path d="M903.477 439.579C904.485 439.675 905.202 440.667 904.949 441.69 904.735 442.547 903.998 443.335 901.914 443.692 901.037 443.841 900.955 445.492 900.941 445.944 900.926 446.396 900.869 446.778 899.765 446.508 899.583 446.463 899.453 446.476 899.364 446.533 898.906 446.817 899.49 448.191 899.667 448.489 899.667 448.489 899.922 449.473 899.357 449.953 899.289 450.01 898.181 450.515 895.513 446.251 895.093 445.582 894.693 444.074 895.34 442.623 895.987 441.172 898.601 438.726 900.985 439.025 902.236 439.181 902.819 439.517 903.477 439.579Z" fill="#102B51" fill-rule="evenodd"/><path d="M905.999 448C905.999 448 906.072 448.497 905.032 448.893 905.032 448.893 904.16 449.226 904 448.717 904.002 448.717 904.695 447.984 905.999 448Z" fill="#FFFFFF" fill-rule="evenodd"/><path d="M899 470.351C899 470.351 902.288 468.131 903.411 468.009 904.175 467.926 907 468.452 907 468.853 907 470.734 903.295 471.506 902.878 471.584 902.461 471.661 901.2 471.727 900.677 471.977 900.152 472.226 899 470.351 899 470.351Z" fill="#FFB27D" fill-rule="evenodd"/><path d="M902.953 454.325C902.953 454.325 901.24 453.901 901.098 454.022 900.955 454.143 900.945 454.87 901.228 454.981 901.511 455.091 902.963 454.697 902.993 454.616 903.022 454.536 902.953 454.325 902.953 454.325Z" fill="#A9453D" fill-rule="evenodd"/><path d="M903.063 454.411C903.063 454.411 904.792 455.2 904.926 454.952 905.06 454.703 905.022 453.246 904.733 453.034 904.444 452.822 903.028 453.665 903.004 453.829 902.981 453.99 903.063 454.411 903.063 454.411Z" fill="#A9453D" fill-rule="evenodd"/><path d="M903.001 454.535C902.981 454.26 903.19 454.022 903.465 454.001 903.74 453.981 903.979 454.19 903.999 454.465 904.017 454.74 903.81 454.978 903.535 454.999 903.26 455.019 903.022 454.81 903.001 454.535Z" fill="#A9453D" fill-rule="evenodd"/><path d="M899.862 452 905 467 900.679 462.227 901.651 460.239 898.943 459.273 898 453.21Z" fill="#6980E2" fill-rule="evenodd"/><path d="M901 472C901 472 896.989 476.763 893 477 893.11 475.83 893.212 474.682 893.298 473.632L901 472Z" fill="#6980E2" fill-rule="evenodd"/><path d="M893.856 455.065C893.856 455.065 890.907 458.05 889.289 463.921 887.671 469.79 887.473 474.111 889.289 474.817 891.105 475.523 897.413 474.122 901 471.74L900.2 469.864C900.2 469.864 894.361 468.82 894.541 468.291 894.722 467.762 898.684 461.327 898.737 459.563 898.789 457.797 894.658 454.497 893.856 455.065Z" fill="#8C9DF4" fill-rule="evenodd"/><path d="M925.314 459.024C925.314 459.024 923.784 458.813 924.026 459.652 924.269 460.49 925.231 460.971 925.964 460.999 926.696 461.027 927 460.484 927 460.484 927 460.484 926.545 459.015 925.314 459.024Z" fill="#FFB27D" fill-rule="evenodd"/><path d="M905 476.5C905 476.776 904.776 477 904.5 477 904.224 477 904 476.776 904 476.5 904 476.224 904.224 476 904.5 476 904.776 476 905 476.224 905 476.5Z" fill="#030333" fill-rule="evenodd"/><path d="M904 481.5C904 481.225 904.223 481 904.5 481 904.775 481 905 481.223 905 481.5 905 481.775 904.777 482 904.5 482 904.223 482 904 481.775 904 481.5Z" fill="#030333" fill-rule="evenodd"/><path d="M954.751 469C954.751 469 952.821 469.039 952.065 469.607 951.309 470.176 951.461 471.373 950.255 471.874 949.05 472.374 948.714 472.636 949.241 472.882 949.769 473.126 951.896 473.027 952.772 472.249 953.648 471.47 955 470.539 955 470.539L954.751 469Z" fill="#FFB27D" fill-rule="evenodd"/><path d="M952 470C952 470 950.291 470.507 950.027 470.655 949.763 470.803 951.529 471 951.529 471L952 470Z" fill="#FFB27D" fill-rule="evenodd"/><path d="M1006.25 469C1006.25 469 1008.18 469.039 1008.93 469.607 1009.69 470.176 1009.54 471.373 1010.74 471.874 1011.95 472.374 1012.29 472.636 1011.76 472.882 1011.23 473.126 1009.1 473.027 1008.23 472.249 1007.35 471.47 1006 470.539 1006 470.539L1006.25 469Z" fill="#FFB27D" fill-rule="evenodd"/><path d="M1009 470C1009 470 1010.71 470.507 1010.97 470.655 1011.24 470.803 1009.47 471 1009.47 471L1009 470Z" fill="#FFB27D" fill-rule="evenodd"/><path d="M1007 469.409 1005.59 472C1005.59 472 1001.79 471.16 998.483 470.037 997.32 469.64 996.217 469.207 995.365 468.763 993.379 467.732 991.451 465.791 990.24 464.421 990.24 464.421 990.24 464.42 990.239 464.418 989.452 463.531 988.97 462.883 988.97 462.883L986 448C986 448 988.858 448.759 990.566 450.269 992.273 451.778 996.151 462.193 999.288 464.237 1002.43 466.283 1007 469.409 1007 469.409Z" fill="#8C9DF4" fill-rule="evenodd"/><path d="M975 448 971.786 462.102C971.786 462.102 970.804 463.35 969.362 464.73 968.235 465.814 966.825 466.975 965.382 467.687 964.34 468.202 962.933 468.722 961.5 469.197 958.422 470.212 955.217 471 955.217 471L954 468.533C954 468.533 958.311 465.331 961.453 463.39 964.596 461.448 968.647 451.2 970.357 449.768 972.069 448.333 975 448 975 448Z" fill="#8C9DF4" fill-rule="evenodd"/><path d="M994 532 983.295 532C982.527 531.557 983.501 527.232 983.501 527.232 983.501 527.232 986.423 526.289 986.928 528.207 987.434 530.123 990.649 530.733 992.35 530.967 993.515 531.128 993.884 531.671 994 532Z" fill="#133160" fill-rule="evenodd"/><path d="M978 532 967.295 532C966.527 531.557 967.501 527.232 967.501 527.232 967.501 527.232 970.423 526.289 970.928 528.207 971.434 530.123 974.65 530.733 976.35 530.967 977.515 531.128 977.884 531.671 978 532Z" fill="#133160" fill-rule="evenodd"/><path d="M991 480.832C991 480.832 990.534 486.851 989.988 494.086 989.244 503.914 987.239 528.283 987.239 528.283 987.239 528.283 985.925 529.446 983.015 528.809 983.015 528.809 980.537 520.403 979.796 510.808 979.784 510.651 979.774 510.492 979.762 510.335 979.072 500.567 978 480 978 480L991 480.832Z" fill="#213F7A" fill-rule="evenodd"/><path d="M991 479C991 479 990.383 487.084 989.843 494.307L979.774 511C979.763 510.843 979.752 510.684 979.74 510.527 979.059 500.777 978 480.245 978 480.245L991 479Z" fill="#233862" fill-rule="evenodd"/><path d="M988 478.661C988 478.661 980.398 497.6 977.969 504.78 976.237 509.894 971.357 527.833 971.357 527.833 971.357 527.833 969.235 528.479 967.45 527.23 967.45 527.23 965.633 508.901 969.301 503.733 971.247 500.99 969.785 475.23 977.677 475.009 985.569 474.789 988 478.661 988 478.661Z" fill="#213F7A" fill-rule="evenodd"/><path d="M982.566 450.444C981.374 451.057 980.209 451.094 979.201 450.885 978.277 450.697 977.484 450.299 976.921 449.948 976.341 449.588 976 449.274 976 449.274 976 449.274 976.04 449.216 976.108 449.105 976.46 448.517 977.529 446.406 977.054 443.014 977.048 442.97 977.392 443.033 977.913 443.154 979.464 443.511 982.581 444.372 982.719 444.411 982.722 444.411 982.724 444.411 982.724 444.411 982.724 444.411 982.762 445.124 982.89 446.403 982.901 446.516 982.913 446.634 982.925 446.756 982.941 446.906 982.957 447.065 982.976 447.227 983.12 448.556 982.566 450.444 982.566 450.444Z" fill="#FFB27D" fill-rule="evenodd"/><path d="M983 446.951C980.994 447.42 978 444.397 978 444.397 978.219 444.232 978.449 444.1 978.687 444 980.031 444.324 982.732 445.107 982.851 445.142 982.854 445.142 982.856 445.142 982.856 445.142 982.856 445.142 982.889 445.789 983 446.951Z" fill="#ED975D" fill-rule="evenodd"/><path d="M991.854 485.999C991.854 485.999 978.863 488.363 969.022 485.826 968.725 485.75 971.537 475.684 972.003 468.722 972.173 466.198 970.476 459.935 970.546 458.822 970.546 458.822 970.512 451.086 971.689 449.863 973.068 448.433 977.121 447.994 977.376 448.048 977.452 448.033 977.528 448.012 977.606 448 977.606 448 981.057 449.947 983.62 448.506 983.62 448.506 983.645 448.51 983.693 448.517 984.316 448.616 987.433 449.337 988.509 450.474 988.881 450.865 990.363 453.272 990.403 455.914 990.459 459.599 992.563 485.999 991.854 485.999Z" fill="#8C9DF4" fill-rule="evenodd"/><path d="M983.422 447 983 463 986.504 456.917 984.822 455.297 987 453.17 986.025 448.143Z" fill="#6980E2" fill-rule="evenodd"/><path d="M977.756 447 981.196 449.087 983.083 447.297 984 448.616 982.839 463 977 448.071Z" fill="#BDCAFF" fill-rule="evenodd"/><path d="M984.364 444.415C984.364 444.415 983.419 444.753 982.216 444.915 980.455 445.153 978.142 445.013 977.414 442.886 976.189 439.306 974.625 437.159 978.228 435.697 980.158 434.914 981.393 434.873 982.23 435.172 982.958 435.43 983.388 435.944 983.714 436.454 984.413 437.549 985.821 443.787 984.364 444.415Z" fill="#FFB27D" fill-rule="evenodd"/><path d="M982.325 433.578C983.434 433.674 984.223 434.667 983.943 435.69 983.709 436.548 982.897 437.336 980.606 437.691 979.639 437.842 979.551 439.493 979.534 439.943 979.518 440.396 979.455 440.778 978.241 440.507 978.041 440.462 977.898 440.475 977.799 440.532 977.295 440.815 977.939 442.19 978.134 442.489 978.134 442.489 978.414 443.473 977.793 443.953 977.717 444.01 976.5 444.515 973.564 440.252 973.102 439.582 972.662 438.075 973.376 436.624 974.088 435.173 976.963 432.725 979.586 433.025 980.961 433.182 981.6 433.517 982.325 433.578Z" fill="#183768" fill-rule="evenodd"/><path d="M980.953 448.649C980.953 448.649 979.24 447.802 979.097 448.043 978.955 448.285 978.946 449.741 979.227 449.961 979.51 450.182 980.962 449.394 980.992 449.233 981.023 449.071 980.953 448.649 980.953 448.649Z" fill="#030333" fill-rule="evenodd"/><path d="M981.063 449.411C981.063 449.411 982.791 450.2 982.926 449.952 983.06 449.704 983.021 448.245 982.733 448.034 982.444 447.822 981.028 448.665 981.004 448.828 980.98 448.992 981.063 449.411 981.063 449.411Z" fill="#030333" fill-rule="evenodd"/><path d="M981.001 449.535C980.982 449.261 981.188 449.02 981.465 449.001 981.739 448.982 981.98 449.188 981.999 449.465 982.018 449.739 981.812 449.98 981.535 449.999 981.259 450.018 981.02 449.81 981.001 449.535Z" fill="#030333" fill-rule="evenodd"/><path d="M976.533 448 983 463 978.063 458.002 979.173 455.919 976.078 454.908 975 448.558Z" fill="#6980E2" fill-rule="evenodd"/><path d="M983.987 442.42C984.049 442.692 983.883 442.949 983.613 442.993 983.345 443.038 983.076 442.852 983.013 442.58 982.951 442.306 983.117 442.051 983.387 442.006 983.656 441.963 983.924 442.148 983.987 442.42Z" fill="#FFFFFF" fill-rule="evenodd"/><path d="M983.146 476.854C982.951 476.658 982.951 476.342 983.146 476.146 983.342 475.951 983.658 475.951 983.854 476.146 984.049 476.342 984.049 476.658 983.854 476.854 983.658 477.049 983.342 477.049 983.146 476.854Z" fill="#030333" fill-rule="evenodd"/><path d="M983.146 469.854C982.951 469.658 982.951 469.342 983.146 469.146 983.342 468.951 983.658 468.951 983.854 469.146 984.049 469.342 984.049 469.658 983.854 469.854 983.658 470.049 983.342 470.049 983.146 469.854Z" fill="#030333" fill-rule="evenodd"/><path d="M982.146 462.854C981.951 462.658 981.951 462.342 982.146 462.146 982.342 461.951 982.658 461.951 982.854 462.146 983.049 462.342 983.049 462.658 982.854 462.854 982.658 463.049 982.342 463.049 982.146 462.854Z" fill="#030333" fill-rule="evenodd"/><path d="M999 470C997.775 469.593 996.613 469.149 995.714 468.694 993.621 467.636 991.59 465.646 990.313 464.241 990.313 464.241 990.313 464.239 990.312 464.238 990.284 464.118 989.623 461.228 990.313 461.007 991.019 460.784 993.136 465.649 995.569 467.097 997.064 467.987 998.286 469.198 999 470Z" fill="#6980E2" fill-rule="evenodd"/><path d="M971 463.87C969.899 465.007 968.36 467.279 965.797 468.417 964.747 468.883 963.404 469.502 962.004 470 961.935 469.137 962.811 468.269 965.798 467.27 969.469 466.042 968.747 461.065 969.685 461.001 970.624 460.934 971 463.87 971 463.87Z" fill="#6980E2" fill-rule="evenodd"/><path d="M1007 458.636C1007 458.636 1005.76 457.202 1004.92 457.062 1004.08 456.922 1003.41 457.951 1002.33 457.42 1001.25 456.887 1000.87 456.833 1001.04 457.42 1001.22 458.007 1002.62 459.545 1003.67 459.615 1004.72 459.685 1006.17 460 1006.17 460L1007 458.636Z" fill="#FFB27D" fill-rule="evenodd"/><path d="M1042.02 471C1042.02 471 1057.58 480.591 1062.87 504.306 1068.16 528.02 1076 532 1076 532L1022 532C1022 532 1024.88 486.113 1032.78 473.08 1032.79 473.08 1040.07 471.833 1042.02 471Z" fill="#FFA561" fill-rule="evenodd"/><path d="M1031 442.336C1031 442.336 1036.52 437.622 1038.32 441.586 1038.32 441.586 1039.04 441.817 1039.71 443.413 1039.99 444.068 1041.12 444.634 1040.99 446.224 1040.72 449.485 1037.72 451.162 1036.74 450.378 1036.12 449.876 1035.39 451 1035.39 451L1031 442.336Z" fill="#233862" fill-rule="evenodd"/><path d="M1042 461.057C1042.05 457.251 1041.46 455.396 1039.84 454.779 1039.27 454.563 1037.61 454.737 1037.14 454.704 1036.64 454.639 1035.57 452.932 1035.2 450L1034.98 450.074 1031.37 451.337C1031.37 451.337 1031.61 452.526 1031.76 453.655 1031.88 454.597 1031.9 455.18 1031.55 455.466 1031.14 455.765 1029.34 456.635 1029.34 456.635 1029.34 456.635 1028.81 460.576 1029.08 464.717 1029.35 468.857 1041.99 461.71 1042 461.057Z" fill="#FFB27D" fill-rule="evenodd"/><path d="M1031 451.046C1031 451.046 1031.18 451.796 1031.43 453 1033.54 452.659 1034.45 451.899 1035 451L1031 451.046Z" fill="#E8945B" fill-rule="evenodd"/><path d="M1042 460.849 1041.82 471.2C1041.41 471.533 1040.97 471.851 1040.49 472.154 1037.87 473.84 1034.58 475 1034.58 475 1033.11 474.978 1031.52 472.69 1031.52 472.69 1031.52 472.69 1028.25 467.935 1027.25 465.668 1026.38 463.697 1028 458.535 1028.44 457.218 1028.5 457.02 1028.67 456.836 1028.67 456.836 1035.23 457.363 1039.61 455.258 1040.08 455.02 1040.1 455.006 1040.12 455 1040.12 455L1040.19 455.218 1040.36 455.751 1040.36 455.754 1042 460.849Z" fill="#F77D48" fill-rule="evenodd"/><path d="M1034.51 463C1033.06 463.043 1029 456.816 1029 456.816 1035.31 456.844 1039.55 455.238 1040 455 1040.04 455.068 1035.97 462.957 1034.51 463Z" fill="#FFB27D" fill-rule="evenodd"/><path d="M1037 454.564C1036.97 454.289 1037.16 454.038 1037.43 454.004 1037.71 453.97 1037.96 454.163 1038 454.436 1038.03 454.711 1037.84 454.961 1037.57 454.996 1037.29 455.032 1037.04 454.838 1037 454.564Z" fill="#FFFFFF" fill-rule="evenodd"/><path d="M1037 455.564C1036.97 455.289 1037.16 455.038 1037.43 455.004 1037.71 454.97 1037.96 455.163 1038 455.436 1038.03 455.711 1037.84 455.961 1037.57 455.996 1037.3 456.032 1037.04 455.838 1037 455.564Z" fill="#FFFFFF" fill-rule="evenodd"/><path d="M1036 455.564C1035.97 455.289 1036.16 455.038 1036.43 455.004 1036.71 454.97 1036.96 455.164 1037 455.436 1037.03 455.711 1036.84 455.962 1036.57 455.996 1036.29 456.03 1036.04 455.837 1036 455.564Z" fill="#FFFFFF" fill-rule="evenodd"/><path d="M1036 456.564C1035.97 456.289 1036.16 456.038 1036.43 456.004 1036.71 455.97 1036.96 456.164 1037 456.436 1037.03 456.711 1036.84 456.962 1036.57 456.996 1036.29 457.03 1036.04 456.839 1036 456.564Z" fill="#FFFFFF" fill-rule="evenodd"/><path d="M1036 457.564C1035.97 457.289 1036.16 457.038 1036.43 457.004 1036.71 456.97 1036.96 457.163 1037 457.436 1037.03 457.711 1036.84 457.961 1036.57 457.996 1036.3 458.032 1036.04 457.838 1036 457.564Z" fill="#FFFFFF" fill-rule="evenodd"/><path d="M1035 457.564C1034.97 457.289 1035.16 457.038 1035.43 457.004 1035.71 456.97 1035.96 457.163 1036 457.436 1036.03 457.711 1035.84 457.961 1035.57 457.996 1035.29 458.032 1035.04 457.838 1035 457.564Z" fill="#FFFFFF" fill-rule="evenodd"/><path d="M1035 457.564C1034.97 457.289 1035.16 457.038 1035.43 457.004 1035.71 456.97 1035.96 457.163 1036 457.436 1036.03 457.711 1035.84 457.961 1035.57 457.996 1035.29 458.032 1035.04 457.838 1035 457.564Z" fill="#FFFFFF" fill-rule="evenodd"/><path d="M1034 458.564C1033.97 458.289 1034.16 458.038 1034.43 458.004 1034.71 457.97 1034.96 458.163 1035 458.436 1035.03 458.711 1034.84 458.961 1034.57 458.996 1034.29 459.032 1034.04 458.838 1034 458.564Z" fill="#FFFFFF" fill-rule="evenodd"/><path d="M1034 458.564C1033.97 458.289 1034.16 458.038 1034.43 458.004 1034.71 457.97 1034.96 458.163 1035 458.436 1035.03 458.708 1034.84 458.961 1034.57 458.996 1034.29 459.032 1034.04 458.838 1034 458.564Z" fill="#FFFFFF" fill-rule="evenodd"/><path d="M1033 458.564C1032.97 458.289 1033.16 458.038 1033.43 458.004 1033.71 457.97 1033.96 458.164 1034 458.436 1034.03 458.711 1033.84 458.962 1033.57 458.996 1033.29 459.03 1033.04 458.839 1033 458.564Z" fill="#FFFFFF" fill-rule="evenodd"/><path d="M1032 457.564C1031.97 457.289 1032.16 457.038 1032.43 457.004 1032.71 456.97 1032.96 457.163 1033 457.436 1033.03 457.711 1032.84 457.961 1032.57 457.996 1032.29 458.032 1032.04 457.838 1032 457.564Z" fill="#FFFFFF" fill-rule="evenodd"/><path d="M1032 457.564C1031.97 457.289 1032.16 457.038 1032.43 457.004 1032.71 456.97 1032.96 457.163 1033 457.436 1033.03 457.711 1032.84 457.961 1032.57 457.996 1032.29 458.032 1032.04 457.838 1032 457.564Z" fill="#FFFFFF" fill-rule="evenodd"/><path d="M1032 457.564C1031.97 457.289 1032.16 457.038 1032.43 457.004 1032.71 456.97 1032.96 457.163 1033 457.436 1033.03 457.711 1032.84 457.961 1032.57 457.996 1032.3 458.032 1032.04 457.838 1032 457.564Z" fill="#FFFFFF" fill-rule="evenodd"/><path d="M1031 456.564C1030.97 456.289 1031.16 456.038 1031.43 456.004 1031.71 455.97 1031.96 456.163 1032 456.436 1032.03 456.711 1031.84 456.961 1031.57 456.996 1031.29 457.032 1031.04 456.838 1031 456.564Z" fill="#FFFFFF" fill-rule="evenodd"/><path d="M1031 456.564C1030.97 456.291 1031.16 456.039 1031.43 456.004 1031.71 455.969 1031.96 456.161 1032 456.437 1032.03 456.709 1031.84 456.961 1031.57 456.996 1031.3 457.031 1031.04 456.837 1031 456.564Z" fill="#FFFFFF" fill-rule="evenodd"/><path d="M1031 455.564C1030.97 455.291 1031.16 455.039 1031.43 455.004 1031.71 454.969 1031.96 455.161 1032 455.437 1032.03 455.709 1031.84 455.961 1031.57 455.996 1031.3 456.031 1031.04 455.837 1031 455.564Z" fill="#FFFFFF" fill-rule="evenodd"/><path d="M1032 455.564C1031.97 455.291 1032.16 455.039 1032.43 455.004 1032.71 454.969 1032.96 455.164 1033 455.436 1033.03 455.709 1032.84 455.961 1032.57 455.996 1032.3 456.031 1032.04 455.837 1032 455.564Z" fill="#FFFFFF" fill-rule="evenodd"/><path d="M1032 455.563C1031.97 455.291 1032.16 455.039 1032.43 455.004 1032.71 454.969 1032.96 455.161 1033 455.436 1033.03 455.709 1032.84 455.961 1032.57 455.996 1032.3 456.033 1032.04 455.838 1032 455.563Z" fill="#FFFFFF" fill-rule="evenodd"/><path d="M1033 455.564C1032.97 455.291 1033.16 455.039 1033.43 455.004 1033.71 454.969 1033.96 455.161 1034 455.437 1034.03 455.709 1033.84 455.961 1033.57 455.996 1033.3 456.031 1033.04 455.837 1033 455.564Z" fill="#FFFFFF" fill-rule="evenodd"/><path d="M1034 455.564C1033.97 455.291 1034.16 455.039 1034.43 455.004 1034.71 454.969 1034.96 455.161 1035 455.436 1035.03 455.709 1034.84 455.961 1034.57 455.996 1034.3 456.031 1034.04 455.836 1034 455.564Z" fill="#FFFFFF" fill-rule="evenodd"/><path d="M1034 455.564C1033.97 455.291 1034.16 455.039 1034.43 455.004 1034.71 454.969 1034.96 455.161 1035 455.437 1035.03 455.709 1034.84 455.961 1034.57 455.996 1034.3 456.031 1034.04 455.837 1034 455.564Z" fill="#FFFFFF" fill-rule="evenodd"/><path d="M1035 454.564C1034.97 454.291 1035.16 454.039 1035.43 454.004 1035.71 453.969 1035.96 454.164 1036 454.436 1036.03 454.709 1035.84 454.961 1035.57 454.996 1035.3 455.031 1035.04 454.839 1035 454.564Z" fill="#FFFFFF" fill-rule="evenodd"/><path d="M1036 454.564C1035.97 454.291 1036.16 454.039 1036.43 454.004 1036.71 453.969 1036.96 454.161 1037 454.436 1037.03 454.709 1036.84 454.961 1036.57 454.996 1036.3 455.031 1036.04 454.839 1036 454.564Z" fill="#FFFFFF" fill-rule="evenodd"/><path d="M1036 454.564C1035.97 454.29 1036.16 454.04 1036.43 454.004 1036.71 453.968 1036.96 454.163 1037 454.436 1037.03 454.71 1036.84 454.96 1036.57 454.996 1036.29 455.032 1036.04 454.837 1036 454.564Z" fill="#FFFFFF" fill-rule="evenodd"/><path d="M1035.87 450C1035.87 450 1037.29 448.3 1037.82 446.716 1038.2 445.583 1038.35 441.151 1034.27 441.006 1034.27 441.006 1033.09 440.907 1031.87 441.501 1030.91 441.973 1029.44 443.11 1030.22 447.157L1030.38 448.503 1035.87 450Z" fill="#233862" fill-rule="evenodd"/><path d="M1030.01 450.865C1030.01 450.865 1035.68 451.787 1036.31 448.81 1036.94 445.835 1038.1 443.951 1034.5 443.238 1030.9 442.525 1029.96 443.554 1029.46 444.505 1028.96 445.454 1028.55 450.549 1030.01 450.865Z" fill="#FFB27D" fill-rule="evenodd"/><path d="M1032 442.459C1032 442.459 1032.76 446.455 1034.85 447.387 1036.95 448.322 1038 447.909 1038 447.909 1038 447.909 1036.55 446.306 1036.62 443.951 1036.61 443.951 1033.4 440.861 1032 442.459Z" fill="#233862" fill-rule="evenodd"/><path d="M1032 442.873C1032 442.873 1030.81 443.598 1030.41 444.453 1030.01 445.308 1029.6 447.15 1029.13 446.99 1029.13 446.99 1028.52 443.947 1029.96 442.576 1031.48 441.125 1032 442.873 1032 442.873Z" fill="#233862" fill-rule="evenodd"/><path d="M1030.99 449.568C1030.93 449.841 1030.66 450.032 1030.39 449.996 1030.12 449.958 1029.95 449.705 1030.01 449.432 1030.07 449.159 1030.34 448.968 1030.61 449.004 1030.88 449.042 1031.05 449.293 1030.99 449.568Z" fill="#FFFFFF" fill-rule="evenodd"/><path d="M1029 457.051C1029 457.051 1026.89 453.522 1025.9 454.055 1024.9 454.588 1018.2 462.361 1014.48 461.431 1010.77 460.501 1009.53 457.738 1007.2 457.999L1006 460.154C1006 460.154 1005.91 462.138 1007.7 464.008 1009.5 465.878 1014.21 467.874 1016.65 467.997 1019.1 468.118 1027.53 464.458 1027.53 464.458L1029 457.051Z" fill="#F77D48" fill-rule="evenodd"/><path d="M1005 456.618C1005 456.618 1004.18 456.046 1004.03 456.001 1003.87 455.956 1004.41 457 1004.41 457L1005 456.618Z" fill="#FFB27D" fill-rule="evenodd"/><path d="M1061.11 468.011C1061.11 468.011 1062.99 467.909 1063.77 468.325 1064.55 468.741 1064.51 469.737 1065.72 470.067 1066.93 470.396 1067.28 470.588 1066.78 470.826 1066.29 471.064 1064.22 471.131 1063.31 470.55 1062.39 469.969 1061 469.296 1061 469.296L1061.11 468.011Z" fill="#FFB27D" fill-rule="evenodd"/><path d="M1064 468C1064 468 1065.7 468.402 1065.97 468.534 1066.24 468.668 1064.56 469 1064.56 469L1064 468Z" fill="#FFB27D" fill-rule="evenodd"/><path d="M1040 454.509C1040 454.509 1041.37 451.696 1042.35 452.027 1043.33 452.358 1049.5 463.995 1051.76 464.683 1054.03 465.371 1061.37 466.823 1061.91 467.989 1062.45 469.155 1060.41 471.046 1058.89 470.999 1057.38 470.952 1050.6 469.818 1048.69 468.966 1046.78 468.114 1041.71 463.59 1041.71 463.59L1040 454.509Z" fill="#F77D48" fill-rule="evenodd"/><path d="M1214 540C1213.63 544.838 1212.82 549.297 1211.75 553.345 1207.59 569.112 1193.32 580.065 1177.05 580 1111.55 579.735 922.419 578.794 858.835 578.476 844.902 578.405 832.664 569.195 828.689 555.804 827.285 551.076 825.979 545.756 825 540L1214 540Z" fill="#233862" fill-rule="evenodd"/><path d="M1214.78 540 825.077 540C824.647 537.415 824.283 534.744 824 532L1214.97 532C1215.04 534.768 1214.97 537.436 1214.78 540Z" fill="#6980E2" fill-rule="evenodd"/><path d="M1213.62 544.878C1201.45 545.081 1203.11 547.687 1191.53 544.185 1189.35 543.525 1186.63 539.724 1180.38 537.409 1171.3 534.046 1163.11 537.648 1163.11 537.648L1169.4 455.999C1093.95 436.274 1058.54 349.126 1051 328.076 1099.92 324.7 1151.74 323.98 1174.9 337.435 1205.25 355.07 1208.61 393.005 1206.47 428.674 1206.08 435.057 1205.52 441.367 1204.91 447.476 1204.87 447.918 1204.82 448.355 1204.78 448.792 1200.65 489.281 1220.25 504.323 1213.62 544.878Z" fill="#F77D48" fill-rule="evenodd"/><path d="M859.239 455.347 864.503 536.874C864.503 536.874 859.842 539.925 854.218 537.641 847.51 534.918 842.828 541.426 840.685 540.978 833.264 539.429 836.294 536.976 824.606 536.775 816.87 509.323 829.21 487.95 825.241 448.288 825.232 448.197 825.224 448.108 825.213 448.017 824.629 442.159 824.089 436.104 823.702 429.972 821.478 394.63 824.405 356.708 853.951 339.204 876.205 326.021 925.99 326.727 973 330.034 965.754 350.655 931.727 436.027 859.239 455.347Z" fill="#F77D48" fill-rule="evenodd"/><path d="M982.777 374 965.748 373.887C964.122 373.876 963.523 372.726 964.41 371.316L968.675 364.533C969.561 363.123 971.597 361.989 973.223 362L990.252 362.113C991.878 362.124 992.477 363.274 991.59 364.684L987.325 371.467C986.439 372.877 984.403 374.011 982.777 374Z" fill="#233862" fill-rule="evenodd"/><path d="M982.391 373 967.475 372.899C966.103 372.89 965.598 371.904 966.345 370.697L969.771 365.168C970.52 363.961 972.237 362.991 973.609 363L988.525 363.101C989.897 363.11 990.402 364.096 989.655 365.303L986.229 370.832C985.48 372.038 983.763 373.009 982.391 373Z" fill="#FFE6CF" fill-rule="evenodd"/><path d="M974 362 967.494 362C966.175 362 965.102 362.991 965.086 364.221L965 371 971.128 362.994 974 362Z" fill="#233862" fill-rule="evenodd"/><path d="M1042.22 374 1059.25 373.887C1060.88 373.876 1061.48 372.726 1060.59 371.316L1056.33 364.533C1055.44 363.123 1053.4 361.989 1051.78 362L1034.75 362.113C1033.12 362.124 1032.52 363.274 1033.41 364.684L1037.67 371.467C1038.56 372.877 1040.6 374.011 1042.22 374Z" fill="#233862" fill-rule="evenodd"/><path d="M1042.61 373 1057.52 372.899C1058.9 372.89 1059.4 371.904 1058.65 370.697L1055.23 365.168C1054.48 363.961 1052.76 362.991 1051.39 363L1036.48 363.101C1035.1 363.11 1034.6 364.096 1035.35 365.303L1038.77 370.832C1039.52 372.038 1041.24 373.009 1042.61 373Z" fill="#FFE6CF" fill-rule="evenodd"/><path d="M1052 362 1057.78 362C1058.96 362 1059.91 362.991 1059.92 364.221L1060 371 1054.55 362.994 1052 362Z" fill="#233862" fill-rule="evenodd"/><path d="M1132.58 532 1132.54 532C1132.22 531.994 1131.97 531.707 1132 531.377L1134.14 508 1136 508.182 1132.94 531.685C1132.91 531.868 1132.76 532.003 1132.58 532Z" fill="#102B51" fill-rule="evenodd"/><path d="M1154.42 532 1154.46 532C1154.78 531.994 1155.03 531.707 1155 531.377L1152.86 508 1151 508.182 1154.06 531.685C1154.09 531.868 1154.24 532.003 1154.42 532Z" fill="#102B51" fill-rule="evenodd"/><path d="M1153.08 505 1156.93 485.095C1157.42 482.4 1155.29 479.936 1152.53 480.001L1145.12 480.178C1142.56 480.239 1140.33 482.034 1139.62 484.611L1134 504.998 1153.08 504.998Z" fill="#102B51" fill-rule="evenodd"/><path d="M1151.08 505 1154.93 485.095C1155.42 482.4 1153.29 479.936 1150.53 480.001L1143.12 480.178C1140.56 480.239 1138.33 482.034 1137.62 484.611L1132 504.998 1151.08 504.998Z" fill="#102B51" fill-rule="evenodd"/><path d="M1151.94 508 1123.06 508C1122.48 508 1122 507.582 1122 507.072L1122 505.928C1122 505.418 1122.48 505 1123.06 505L1153 505 1153 507.072C1153 507.582 1152.52 508 1151.94 508Z" fill="#102B51" fill-rule="evenodd"/><path d="M1138.16 508 1119.84 508C1119.38 508 1119 507.664 1119 507.252L1119 505.748C1119 505.336 1119.38 505 1119.84 505L1138.16 505C1138.62 505 1139 505.336 1139 505.748L1139 507.252C1139 507.662 1138.62 508 1138.16 508Z" fill="#102B51" fill-rule="evenodd"/><path d="M1142.52 471.076C1142.91 470.509 1143.06 469.982 1142.98 469.688 1142.98 469.688 1142.98 469.688 1142.98 469.688 1142.27 469.545 1141.71 469.001 1141.54 468.289 1141.4 467.653 1141.28 466.897 1141.23 466L1140.99 466.066 1136.95 467.162C1136.95 467.162 1137.13 468.46 1137.22 469.69 1137.23 469.861 1137.24 470.032 1137.25 470.197 1137.25 470.39 1137.12 470.56 1136.94 470.599 1136.94 470.599 1136.94 470.599 1136.94 470.599 1135.68 470.854 1135.6 472.802 1137.22 473.296 1137.43 473.706 1137.84 474.033 1138.63 473.997 1139.95 473.938 1142.8 472.322 1142.54 471.177 1142.54 471.145 1142.53 471.112 1142.52 471.076Z" fill="#FFB27D" fill-rule="evenodd"/><path d="M1137.08 457.619C1137.08 457.619 1136.42 455.332 1138.93 455.032 1141.44 454.731 1143.94 456.604 1144.82 459.554 1145.41 461.499 1144.51 464.188 1142.55 463.99 1140.6 463.79 1137.08 457.619 1137.08 457.619Z" fill="#102B51" fill-rule="evenodd"/><path d="M1134.16 472C1134.16 472 1133.32 473.54 1130.58 477.771 1128.04 481.711 1128.25 480.301 1127.35 479.044 1126.62 478.046 1124.2 474.271 1124.2 474.271L1123 476.171C1123 476.171 1126.77 485.816 1128.66 484.944 1130.54 484.073 1135.98 479.208 1136.86 477.112 1137.74 475.016 1134.16 472 1134.16 472Z" fill="#F4A269" fill-rule="evenodd"/><path d="M1130.98 526.71C1131.47 527.594 1123.45 531.599 1124.03 530.924 1124.18 530.751 1124.33 530.571 1124.49 530.387 1124.59 530.273 1124.69 530.16 1124.79 530.044 1125.66 529.015 1125.81 527.698 1126.25 526.34 1126.65 525.054 1124.63 519 1124.63 519L1128.54 519.932C1128.54 519.932 1128.95 522.876 1129.18 524.104 1129.32 524.826 1129.87 525.441 1130.31 525.896 1130.56 526.145 1130.8 526.399 1130.98 526.71Z" fill="#FFB27D" fill-rule="evenodd"/><path d="M1128.82 529.013C1127.41 529.716 1127.99 529.803 1126.17 531.013 1124.36 532.221 1123.31 532.058 1123.04 531.869 1122.81 531.701 1123.55 530.945 1124.34 530.118L1124.36 530.127C1124.36 530.127 1125.98 529.961 1127.38 528.842 1128.52 527.931 1129.43 526.636 1130.21 526 1130.46 526.228 1130.7 526.461 1130.88 526.746 1131.38 527.556 1130.24 528.31 1128.82 529.013Z" fill="#102B51" fill-rule="evenodd"/><path d="M1142.35 494C1142.35 494 1119.49 494.217 1118.59 498.562 1116.64 507.945 1113.09 526.895 1113.09 526.895 1113.09 526.895 1112.7 527.94 1113.53 527.998 1114.31 528.051 1115.93 527.057 1115.93 527.057 1115.93 527.057 1123.27 513.77 1123.83 511.349 1124.55 508.262 1124.9 505.838 1126.28 505.709 1127.67 505.58 1145.08 507.082 1147.52 502.377 1149.96 497.668 1142.35 494 1142.35 494Z" fill="#FFB27D" fill-rule="evenodd"/><path d="M1137 466.908C1137 466.908 1137.18 467.982 1137.26 469 1139.52 468.818 1140.59 466.998 1141 466L1137 466.908Z" fill="#F4A269" fill-rule="evenodd"/><path d="M1146.99 491.531C1145.64 487.309 1146.8 476.384 1146.76 476.154 1145.86 470.689 1142.91 469 1142.91 469 1142.91 469 1141.22 472.321 1138.51 472.321 1135.79 472.321 1136.42 469.974 1136.42 469.974 1136.42 469.974 1133.95 470.268 1133.36 470.906 1132.78 471.544 1131.3 474.302 1131 475.056 1131 475.056 1130.94 476.014 1133.28 476.469 1133.28 476.469 1132.71 479.068 1132.64 480.8 1132.59 482.079 1133.5 486.084 1133.77 488.574 1133.86 489.457 1134.51 491.496 1133.09 491.972 1128.62 493.466 1147.56 493.343 1146.99 491.531Z" fill="#8C9DF4" fill-rule="evenodd"/><path d="M1141.69 465C1141.69 465 1142.8 463.086 1142.99 461.497 1143.12 460.363 1142.21 456.244 1137.78 457.122 1137.78 457.122 1136.49 457.321 1135.33 458.169 1134.4 458.842 1133.09 460.251 1134.92 463.779L1135.41 464.979 1141.69 465Z" fill="#102B51" fill-rule="evenodd"/><path d="M1146.4 489C1146.4 489 1148.66 494.531 1148.99 500.463 1149.23 504.621 1142.9 505.641 1138.07 505.822 1133.24 506.002 1128.43 507.799 1128.66 509.928 1128.89 512.058 1128.96 520.497 1128.96 520.497 1128.96 520.497 1125.36 521.974 1123.02 519.868 1120.69 517.76 1115.73 520.234 1113.65 518.426 1111.58 516.62 1110 513.577 1110 513.577 1110 513.577 1118.12 497.658 1121.01 495.253 1123.89 492.857 1134.65 491.376 1134.65 491.376L1146.4 489Z" fill="#8C9DF4" fill-rule="evenodd"/><path d="M1136.1 468C1136.1 468 1141.2 467.707 1140.99 464.079 1140.79 460.449 1141.3 457.967 1138.03 458 1134.76 458.034 1134.21 459.465 1134.02 460.696 1133.84 461.928 1134.76 467.983 1136.1 468Z" fill="#FFB27D" fill-rule="evenodd"/><path d="M1136 458.748C1136 458.748 1137.67 462.445 1139.88 462.861 1142.1 463.276 1143 462.63 1143 462.63 1143 462.63 1141.24 461.413 1140.74 459.116 1140.74 459.115 1136.95 456.872 1136 458.748Z" fill="#102B51" fill-rule="evenodd"/><path d="M1136 458.578C1136 458.578 1134.8 459.526 1134.55 460.396 1134.31 461.265 1134.31 463.025 1133.71 463 1133.71 463 1132.23 460.407 1133.55 458.817 1134.95 457.131 1136 458.578 1136 458.578Z" fill="#102B51" fill-rule="evenodd"/><path d="M1124.47 517.599C1124.35 516.486 1126.14 515.416 1126.14 515.416L1125.87 514.787C1125.87 514.787 1124.6 515.747 1123.03 513.78 1121.45 511.814 1122.68 505.431 1123.89 504.127 1125.1 502.823 1126.77 504.362 1126.77 504.362L1127.48 503.628C1126.46 502.769 1126.91 500.96 1127.16 500.198 1127.76 499.327 1128.24 498.348 1128.56 497.278 1130.2 491.813 1127.08 486.062 1121.58 484.433 1116.09 482.804 1110.31 485.912 1108.67 491.377 1108.39 492.317 1108.25 493.264 1108.24 494.198L1108.19 494.186C1108.19 494.186 1107.65 497.03 1105.95 497.242L1106.14 498.244C1106.14 498.244 1108.38 497.866 1108.68 499.616 1108.97 501.366 1106.48 507.376 1104.08 508.162 1101.68 508.951 1101.15 507.455 1101.15 507.455L1100.57 507.834C1100.57 507.834 1101.49 509.708 1100.77 510.57 1100.05 511.433 1097.8 515.078 1097.41 516.374 1096.95 517.913 1096.89 519.49 1097.17 521.024L1097.17 521.026C1098.02 525.555 1101.89 529.697 1107.35 531.319 1108.5 531.659 1109.65 531.869 1110.78 531.955L1110.78 531.954C1116.85 532.418 1122.36 529.358 1123.9 524.231 1124.3 522.895 1124.6 518.712 1124.47 517.599Z" fill="#F99746" fill-rule="evenodd"/><path d="M1109.75 508.683 1116.85 510.799 1116.58 511.69 1109.48 509.574Z" fill="#FFFFFF" fill-rule="evenodd"/><path d="M1127 468.755 1124.53 468 1113 501.341 1118.43 503Z" fill="#ED7D2B" fill-rule="evenodd"/><path d="M1111.31 504.049C1111.26 504.046 1110.54 503.704 1109.57 504.865 1109.39 505.081 1108.94 505.828 1108.73 506.426 1108.14 508.079 1107.43 510.872 1106.3 511.66 1106.3 511.661 1106.3 511.663 1106.3 511.663 1106.29 511.669 1106.28 511.672 1106.28 511.677 1106.01 511.84 1105.62 511.867 1105.57 511.707 1105.54 511.608 1105.49 511.552 1105.76 511.337 1106.03 511.123 1105.71 510.374 1105.28 510.758 1104.85 511.143 1105.04 511.455 1105.04 511.455 1105.57 512.488 1106.56 511.735 1106.56 511.732 1107.82 511.003 1108.75 508.724 1109.38 506.96 1109.59 506.369 1109.91 505.479 1110.03 505.242 1110.55 504.219 1111.25 504.287 1111.29 504.29 1111.62 504.32 1111.86 504.62 1111.75 504.77 1111.68 504.854 1111.66 504.922 1111.33 504.836 1110.99 504.751 1110.56 505.442 1111.13 505.556 1111.7 505.67 1111.85 505.334 1111.85 505.334 1112.39 504.305 1111.31 504.049 1111.31 504.049Z" fill="#FFFFFF" fill-rule="evenodd"/><path d="M1119.41 506.057C1119.46 506.078 1120.41 506.18 1120.61 507.707 1120.65 507.992 1120.6 508.876 1120.41 509.506 1119.88 511.244 1118.71 514.024 1119.32 515.318 1119.32 515.319 1119.32 515.321 1119.32 515.324 1119.32 515.333 1119.33 515.34 1119.33 515.35 1119.49 515.634 1119.86 515.871 1120.03 515.762 1120.12 515.695 1120.21 515.671 1120.08 515.34 1119.96 515.01 1120.78 514.542 1120.96 515.107 1121.13 515.672 1120.72 515.833 1120.72 515.833 1119.49 516.428 1119.01 515.242 1119.01 515.239 1118.23 513.924 1118.83 511.461 1119.39 509.606 1119.58 508.985 1119.85 508.046 1119.89 507.778 1120.06 506.619 1119.31 506.29 1119.27 506.272 1118.91 506.115 1118.47 506.242 1118.48 506.431 1118.49 506.537 1118.46 506.607 1118.86 506.717 1119.26 506.828 1119.23 507.657 1118.57 507.443 1117.92 507.228 1118 506.86 1118 506.86 1118.15 505.681 1119.41 506.057 1119.41 506.057Z" fill="#FFFFFF" fill-rule="evenodd"/><path d="M1126.51 461.071 1129.5 461.961 1127.18 469.724 1124.2 468.834Z" fill="#ED7D2B" fill-rule="evenodd"/><path d="M1110 516.994C1110.04 516.681 1111.13 509.565 1111.18 509.263L1111.18 509.255 1111.18 509.249 1126.91 464 1127 464.037 1111.28 509.28C1111.24 509.544 1110.14 516.693 1110.1 517L1110 516.994Z" fill="#FFFFFF" fill-rule="evenodd"/><path d="M1110 516.98 1111.69 509.413 1126.9 464 1127 464.034 1111.79 509.439 1110.1 517Z" fill="#FFFFFF" fill-rule="evenodd"/><path d="M1112.09 518 1112 517.952 1115.17 510.731 1127.9 464 1128 464.025 1115.27 510.767Z" fill="#FFFFFF" fill-rule="evenodd"/><path d="M1112 517.975 1113.85 510.178 1126.91 464 1127 464.031 1113.95 510.204 1112.09 518Z" fill="#FFFFFF" fill-rule="evenodd"/><path d="M1121.04 467.945 1121.04 467.945C1120.27 467.732 1119.83 466.981 1120.06 466.271L1120.16 465.961C1120.39 465.252 1121.2 464.844 1121.96 465.056L1121.96 465.056C1122.73 465.268 1123.17 466.02 1122.94 466.73L1122.84 467.04C1122.61 467.749 1121.8 468.155 1121.04 467.945Z" fill="#ED7D2B" fill-rule="evenodd"/><path d="M1121.67 465.812 1124.92 466.782 1124.69 467.559 1121.44 466.589Z" fill="#ED7D2B" fill-rule="evenodd"/><path d="M1122.69 464.963 1122.69 464.963C1122.18 464.822 1121.89 464.32 1122.04 463.848L1122.11 463.641C1122.26 463.167 1122.8 462.897 1123.31 463.037L1123.31 463.037C1123.82 463.178 1124.11 463.681 1123.96 464.152L1123.89 464.359C1123.74 464.833 1123.2 465.103 1122.69 464.963Z" fill="#ED7D2B" fill-rule="evenodd"/><path d="M1123.42 463.266 1125.77 463.968 1125.6 464.531 1123.25 463.829Z" fill="#ED7D2B" fill-rule="evenodd"/><path d="M1130.03 470.944 1130.03 470.944C1130.8 471.156 1131.61 470.748 1131.84 470.04L1131.94 469.73C1132.17 469.021 1131.73 468.268 1130.96 468.056L1130.96 468.056C1130.2 467.844 1129.39 468.252 1129.16 468.96L1129.06 469.27C1128.83 469.979 1129.27 470.732 1130.03 470.944Z" fill="#ED7D2B" fill-rule="evenodd"/><path d="M1130.7 469.358 1127.45 468.388 1127.68 467.613 1130.93 468.583Z" fill="#ED7D2B" fill-rule="evenodd"/><path d="M1130.69 466.963 1130.69 466.963C1131.2 467.103 1131.74 466.833 1131.89 466.359L1131.96 466.152C1132.11 465.679 1131.82 465.178 1131.31 465.037L1131.31 465.037C1130.8 464.897 1130.26 465.167 1130.11 465.641L1130.04 465.848C1129.89 466.321 1130.18 466.822 1130.69 466.963Z" fill="#ED7D2B" fill-rule="evenodd"/><path d="M1130.71 466.068 1128.36 465.366 1128.53 464.804 1130.88 465.506Z" fill="#ED7D2B" fill-rule="evenodd"/><path d="M1108.21 515C1108.09 515.407 1106 530.442 1106 530.442L1107.88 531 1114 516.715 1108.21 515Z" fill="#ED7D2B" fill-rule="evenodd"/><path d="M1129 463.364 1128.65 464 1126 463.63 1126.42 463Z" fill="#F99746" fill-rule="evenodd"/><path d="M1145.06 472.005C1145.06 472.005 1147.48 471.977 1147.98 474.993 1148.49 478.009 1136.9 490.712 1133.91 489.969 1130.59 489.145 1123 483.434 1123 483.434L1123.91 482.269C1123.91 482.269 1133.59 485.689 1134.23 485.442 1134.86 485.196 1144.02 471.711 1145.06 472.005Z" fill="#FFB27D" fill-rule="evenodd"/><path d="M1142.95 469C1142.95 469 1146.39 469.674 1147.58 471.684 1148.52 473.275 1147.58 478.828 1147.58 478.828 1147.58 478.828 1144.13 479.47 1140 478.272L1142.95 469Z" fill="#8C9DF4" fill-rule="evenodd"/><path d="M1125 482.439C1125 482.439 1121.23 480.797 1120.58 481.021 1119.93 481.245 1118.28 482.191 1118.03 482.581 1117.77 482.97 1119.39 482.504 1119.9 482.462 1120.23 482.434 1121 482.884 1121.39 483.102 1122.36 483.65 1123.08 483.578 1123.55 483.634 1123.87 483.673 1124.4 484 1124.4 484L1125 482.439Z" fill="#FFB27D" fill-rule="evenodd"/><path d="M1120 482C1120 482 1118.85 482.886 1118.52 482.962 1118.19 483.038 1118 482.976 1118 482.976L1118.83 482.103 1120 482Z" fill="#FFB27D" fill-rule="evenodd"/><path d="M1120 481 1118 481.758C1118 481.758 1118.06 481.95 1118.28 481.992 1118.51 482.035 1119.12 481.892 1119.12 481.892L1120 481Z" fill="#FFB27D" fill-rule="evenodd"/><path d="M1123 483.645C1123 483.645 1122.19 484.163 1121.44 483.948 1120.69 483.732 1119.99 483.784 1120 483.556 1120.01 483.33 1121.07 483 1121.07 483L1123 483.645Z" fill="#FFB27D" fill-rule="evenodd"/><path d="M1122.49 472.108C1122.49 472.108 1124.07 471.739 1124 472.364 1123.93 472.99 1122.55 474.302 1122.16 473.937 1121.78 473.57 1122.15 472.324 1122.49 472.108Z" fill="#F4A269" fill-rule="evenodd"/><path d="M972.488 571.481C972.406 570.666 972.008 569.917 971.378 569.391 968.951 567.362 962.812 562.094 962.282 560.32 962.135 559.827 961.983 559.376 961.823 558.965 960.811 556.32 959.585 555.277 958.357 554.836 956.256 554.085 953.843 553.589 951.39 553.33 951.389 553.317 951.389 553.305 951.387 553.292 952.476 553.418 953.114 553.551 953.114 553.551 953.114 553.551 952.661 552.796 951.314 552.218 951.285 551.544 951.295 550.86 951.379 550.274L951.379 550.272C952.31 549.563 953.214 548.473 953.733 546.8 954.223 546.26 954.648 545.406 954.518 545.037 954.477 544.917 954.422 544.837 954.358 544.787 954.433 544.664 954.502 544.533 954.565 544.396 955.091 543.967 955.012 542.899 955.328 542.431 955.709 541.861 956.179 540.393 955.792 539.928 955.406 539.463 955.239 538.856 955.138 537.58 955.038 536.304 954.118 536.883 953.347 536.714 952.575 536.545 952.73 536.302 952.345 535.374 951.958 534.444 951.11 534.521 949.795 534.793 948.484 535.063 948.753 534.212 947.401 534.02 946.05 533.825 945.51 535.102 944.32 535.115 943.131 535.126 942.921 536.456 941.841 537.153 940.759 537.85 941.841 540.162 941.841 540.162 941.79 540.68 941.841 540.162 941.306 541.062 940.77 541.962 941.686 542.507 941.36 543.669 941.035 544.829 942.243 544.712 942.243 544.712 942.246 544.729 942.252 544.745 942.255 544.76 942.053 544.68 941.787 544.661 941.657 545.037 941.462 545.596 942.533 547.27 943.188 547.267 943.639 548.782 944.276 549.721 944.978 550.323 945.018 550.712 945.06 551.312 945.055 551.99 943.43 552.52 942.658 553.38 942.611 553.434 942.042 553.518 941.497 553.616 940.977 553.732 939.223 554.12 937.774 554.685 936.827 555.42 934.778 557.013 928.989 565.981 926.758 569.502 926.172 570.429 925.813 571.479 925.708 572.571L925 578.763C933.9 578.807 943.209 578.854 952.804 578.903 952.804 578.903 952.804 578.903 952.805 578.903 954.028 578.907 955.256 578.914 956.488 578.92 961.916 578.947 967.426 578.973 973 579 972.911 575.87 972.553 572.12 972.488 571.481ZM944.983 553.168C944.983 553.175 944.983 553.182 944.982 553.187 944.276 553.234 943.587 553.302 942.929 553.39 943.631 553.289 944.317 553.219 944.983 553.168Z" fill="#1B2E4C" fill-rule="evenodd"/><path d="M1035.99 569.098 1035.99 569.098C1035.9 568.154 1035.44 567.286 1034.72 566.677 1031.94 564.327 1024.9 558.232 1024.29 556.178 1023.04 551.942 1021.42 550.417 1019.78 549.83 1017.37 548.961 1014.61 548.386 1011.8 548.084 1011.69 546.944 1011.63 545.606 1011.79 544.55 1011.79 544.548 1011.79 544.548 1011.79 544.547 1012.85 543.725 1013.89 542.465 1014.48 540.525 1015.05 539.902 1015.53 538.912 1015.38 538.485 1015.33 538.329 1015.26 538.235 1015.17 538.178 1015.36 537.871 1015.53 537.535 1015.64 537.144 1016.19 535.266 1016.4 531.455 1013.95 529.415 1011.82 527.639 1009.15 526.481 1006.5 527.233 1004.17 527.895 1001.77 530.072 1000.84 532.843 1000.19 534.771 1000.59 536.807 1001.13 538.115 1000.94 538.09 1000.74 538.161 1000.63 538.485 1000.41 539.131 1001.63 541.065 1002.38 541.066 1002.9 542.823 1003.64 543.91 1004.44 544.607 1004.51 545.313 1004.6 546.618 1004.45 547.924 1000.42 548.192 996.93 549.069 995.095 550.508 992.744 552.351 986.108 562.733 983.549 566.81 982.876 567.881 982.463 569.098 982.344 570.363L982 574 1033.38 574C1034.67 573.932 1036.12 570.4 1035.99 569.098Z" fill="#1B2E4C" fill-rule="evenodd"/><path d="M1059 567.411 1059 579C1052.55 578.969 1046.03 578.938 1039.47 578.907 1028.79 578.856 1018 578.804 1007.28 578.751 1006.85 578.75 1006.43 578.748 1006 578.747L1008.04 575.55C1008.27 575.204 1008.58 574.809 1008.92 574.399 1009.18 574.079 1009.46 573.748 1009.75 573.422 1010.86 572.175 1012.05 570.98 1012.48 570.625 1015.13 568.43 1021.83 562.737 1022.41 560.82 1023.07 558.619 1023.84 557.201 1024.67 556.283 1025.32 555.55 1026.01 555.135 1026.7 554.891 1027.84 554.484 1029.07 554.149 1030.35 553.877 1031.63 553.605 1032.96 553.4 1034.3 553.26 1034.4 552.195 1034.45 550.947 1034.31 549.961 1034.31 549.961 1031.89 550.963 1031.31 543.95 1031.14 543.861 1030.99 543.741 1030.87 543.569 1028.93 542.424 1028.85 540.604 1029.19 538.866 1029.78 535.832 1032.44 531.734 1036.85 532.211 1037.69 532.301 1038.54 532.267 1039.38 532.137 1041.02 531.884 1043.68 531.8 1044.95 533.569 1049.83 540.396 1043.82 544.285 1044.72 546.708 1045.62 549.128 1051.49 552.412 1050.19 555.522 1050.19 555.523 1050.19 555.523 1050.19 555.523 1050.57 555.811 1051.07 556.35 1051.67 557.066 1053.66 559.461 1056.64 563.835 1059 567.411Z" fill="#1B2E4C" fill-rule="evenodd"/><path d="M1010 575.599C1010.06 576.173 1008.97 577.671 1007.75 579 1007.32 578.998 1006.9 578.997 1006.48 578.995 994.983 578.939 983.558 578.883 972.383 578.828 966.847 578.801 961.374 578.775 955.983 578.748L955.252 575.782 955.113 575.224C954.826 574.058 955.092 572.821 955.843 571.884 955.878 571.844 955.91 571.802 955.946 571.758 956.99 570.469 958.392 569.015 958.752 568.446 959.139 567.83 959.658 567.016 960.255 566.088 959.717 565.701 959.398 565.111 959.379 564.276 959.329 562.126 960.194 560.411 961.284 558.881 963.562 555.677 966.821 553.272 964.748 549.359 963.299 546.621 969.656 542.257 970.475 540.026 971.293 537.796 971.701 535.063 974.105 533.287 976.51 531.508 980.428 532.24 980.428 532.24 985.063 530.951 987.858 535.134 988.446 538.164 988.754 539.745 988.682 541.399 986.98 542.456 986.846 542.779 986.667 543.062 986.466 543.32 986.21 545.289 985.494 546.649 984.644 547.59 984.744 548.691 985.164 549.567 985.965 549.685 989.629 550.226 990.723 551.659 991.028 553.049 991.252 553.15 991.477 553.274 991.7 553.429 992.767 554.168 993.785 555.589 994.616 558.382 995.142 560.149 1001.24 565.391 1003.65 567.411 1004.27 567.933 1006.66 570.426 1007.7 571.947L1008.76 573.639 1009.38 574.622 1010 575.599Z" fill="#1B2E4C" fill-rule="evenodd"/><path d="M921.998 575.072C922.049 575.578 921.19 576.809 920.138 578 914.221 577.971 908.507 577.941 903.037 577.915 899.965 577.901 896.972 577.886 894.06 577.872 885.095 577.827 876.926 577.787 869.761 577.753 869.123 577.75 868.496 577.745 867.873 577.744L867.112 574.699C866.943 574.017 866.967 573.309 867.171 572.655 867.313 572.204 867.537 571.777 867.844 571.4 868.899 570.098 870.38 568.585 870.751 568.004 871.14 567.396 871.66 566.591 872.256 565.675 871.717 565.292 871.398 564.71 871.379 563.885 871.297 560.288 873.837 557.923 875.648 555.582 877.139 553.65 878.134 551.733 876.75 549.147 875.301 546.443 881.658 542.132 882.477 539.928 883.296 537.726 883.703 535.026 886.108 533.272 888.512 531.514 892.429 532.237 892.429 532.237 897.065 530.964 899.86 535.096 900.448 538.089 900.757 539.65 900.685 541.284 898.983 542.328 898.849 542.648 898.67 542.928 898.469 543.183 898.212 545.127 897.495 546.471 896.647 547.401 896.746 548.488 897.166 549.353 897.968 549.47 901.631 550.005 902.725 551.419 903.03 552.792 904.336 553.372 905.615 554.726 906.619 558.061 906.781 558.597 907.467 559.457 908.413 560.45 910.542 562.686 913.982 565.598 915.651 566.98 916.277 567.496 918.663 569.958 919.698 571.461L921.998 575.072Z" fill="#1B2E4C" fill-rule="evenodd"/><path d="M955.47 576.065C954.551 577.198 953.403 578.373 952.559 579 952.557 579 952.557 579 952.557 579 943.076 578.952 933.875 578.907 925.081 578.862 923.208 578.852 921.351 578.844 919.515 578.835 913.627 578.805 907.942 578.776 902.499 578.75L901.116 573.025C900.822 571.809 901.094 570.522 901.859 569.547 902.934 568.173 904.442 566.574 904.82 565.965 905.513 564.838 906.605 563.087 907.847 561.153 910.63 556.807 914.158 551.542 915.592 550.402 917.211 549.113 920.289 548.326 923.841 548.086 923.863 547.889 923.88 547.69 923.891 547.495 919.767 547.405 915.792 546.129 914.22 542.218 913.02 539.235 915.922 538.684 916.755 536.361 917.588 534.039 918.003 531.193 920.453 529.34 922.9 527.488 926.89 528.249 926.89 528.249 931.611 526.909 934.457 531.263 935.056 534.419 935.368 536.067 935.298 537.79 933.562 538.89 933.424 539.227 933.243 539.52 933.039 539.789 932.861 541.19 932.464 542.294 931.958 543.164 932.077 543.289 932.221 543.393 932.396 543.465 933.743 544.016 934.649 545.584 933.705 545.908 932.76 546.231 931.568 546.566 930.236 546.846 930.25 547.318 930.283 547.788 930.323 548.226 932.8 548.497 935.241 549.012 937.367 549.789 938.609 550.243 939.843 551.323 940.868 554.054 941.032 554.487 941.188 554.958 941.339 555.478 941.874 557.317 948.081 562.778 950.536 564.885 951.171 565.428 953.601 568.025 954.655 569.607L956.162 572.055 956.998 573.415C957.041 573.89 956.366 574.957 955.47 576.065Z" fill="#1B2E4C" fill-rule="evenodd"/><path d="M869.749 578C869.115 577.997 868.493 577.992 867.874 577.991 864.757 577.975 861.844 577.961 859.157 577.946 852.806 577.915 846.808 575.983 841.782 572.624 835.913 568.703 831.368 562.831 829.141 555.756 829.317 555.575 829.477 555.428 829.616 555.321 831.197 554.093 834.195 553.346 837.662 553.117 837.684 552.928 837.699 552.74 837.71 552.554 833.688 552.469 829.81 551.253 828.279 547.532 827.111 544.694 829.939 544.168 830.75 541.956 831.563 539.746 831.968 537.038 834.355 535.275 836.743 533.514 840.634 534.237 840.634 534.237 845.236 532.963 848.012 537.106 848.597 540.11 848.902 541.679 848.831 543.317 847.14 544.365 847.007 544.687 846.83 544.966 846.63 545.222 846.459 546.555 846.071 547.606 845.575 548.437 845.691 548.553 845.83 548.652 846.004 548.721 847.318 549.245 848.202 550.739 847.279 551.046 846.36 551.354 845.196 551.674 843.898 551.94 843.91 552.388 843.941 552.836 843.98 553.253 846.397 553.51 848.777 554 850.851 554.741 851.699 555.045 852.543 555.639 853.315 556.859 853.824 557.657 854.3 558.725 854.725 560.154 855.247 561.904 861.302 567.103 863.696 569.107 864.223 569.547 866.021 571.406 867.176 572.879 867.378 573.136 867.559 573.379 867.712 573.604L869.998 577.228C870.016 577.409 869.924 577.676 869.749 578Z" fill="#1B2E4C" fill-rule="evenodd"/><path d="M1113.87 563.24C1113.79 562.451 1113.4 561.725 1112.78 561.218 1111.27 559.977 1108.3 557.488 1106.19 555.39 1104.96 554.169 1104.02 553.079 1103.83 552.449 1102.76 548.909 1101.37 547.637 1099.97 547.146 1097.9 546.42 1095.53 545.939 1093.12 545.688 1093.12 545.676 1093.11 545.664 1093.11 545.652 1094.19 545.773 1094.81 545.903 1094.81 545.903 1094.81 545.903 1094.37 545.172 1093.04 544.616 1093.01 543.964 1093.02 543.302 1093.11 542.737 1093.11 542.735 1093.11 542.735 1093.11 542.734 1094.02 542.047 1094.91 540.995 1095.42 539.376 1095.9 538.857 1096.32 538.029 1096.19 537.671 1096.15 537.556 1096.1 537.478 1096.04 537.43 1096.11 537.311 1096.18 537.187 1096.24 537.052 1096.76 536.637 1096.68 535.604 1096.99 535.152 1097.36 534.602 1097.82 533.181 1097.45 532.732 1097.07 532.282 1096.9 531.698 1096.8 530.462 1096.7 529.227 1095.8 529.787 1095.04 529.623 1094.28 529.461 1094.43 529.226 1094.05 528.328 1093.67 527.429 1092.84 527.504 1091.55 527.766 1090.25 528.029 1090.52 527.204 1089.19 527.019 1087.86 526.833 1087.33 528.065 1086.16 528.078 1084.99 528.088 1084.78 529.376 1083.72 530.049 1082.66 530.723 1083.72 532.958 1083.72 532.958 1083.67 533.46 1083.72 532.958 1083.19 533.828 1082.66 534.698 1083.57 535.225 1083.25 536.349 1082.93 537.471 1084.11 537.357 1084.11 537.357 1084.12 537.373 1084.12 537.389 1084.13 537.405 1083.93 537.326 1083.67 537.308 1083.54 537.671 1083.35 538.212 1084.4 539.83 1085.04 539.827 1085.49 541.293 1086.12 542.201 1086.81 542.782 1086.84 543.159 1086.89 543.74 1086.88 544.395 1085.23 544.923 1084.48 545.792 1084.48 545.792 1082.03 546.144 1079.99 546.791 1078.79 547.711 1077.68 548.554 1075.47 551.542 1073.34 554.631 1071.58 557.177 1069.87 559.79 1068.88 561.328 1068.31 562.223 1067.95 563.239 1067.85 564.294L1064 578.754C1073.82 578.801 1083.45 578.845 1092.77 578.889 1094.63 578.898 1096.47 578.906 1098.3 578.915 1104.71 578.944 1110.96 578.973 1117 579 1115.97 572.989 1113.95 563.96 1113.87 563.24ZM1086.81 545.532C1086.81 545.538 1086.81 545.546 1086.81 545.553 1086.02 545.603 1085.25 545.681 1084.52 545.787 1085.31 545.669 1086.07 545.587 1086.81 545.532Z" fill="#1B2E4C" fill-rule="evenodd"/><path d="M1177.81 580 1177.62 580C1169.61 579.967 1159.76 579.926 1148.53 579.876 1148.18 579.874 1147.83 579.873 1147.48 579.871 1140.18 579.839 1132.32 579.805 1124 579.766L1124.21 577.634C1124.33 576.363 1124.75 575.138 1125.44 574.058 1127.7 570.499 1133.11 562.161 1136.06 558.808 1136.51 558.296 1136.91 557.9 1137.23 557.655 1139.1 556.207 1142.66 555.322 1146.78 555.052 1146.93 553.74 1146.84 552.425 1146.77 551.715 1145.95 551.013 1145.2 549.921 1144.67 548.153 1143.9 548.153 1142.65 546.206 1142.88 545.557 1142.99 545.231 1143.2 545.16 1143.39 545.185 1142.83 543.867 1142.43 541.819 1143.1 539.879 1144.05 537.091 1146.49 534.9 1148.87 534.234 1151.58 533.478 1154.31 534.642 1156.48 536.43 1158.98 538.483 1158.77 542.317 1158.21 544.207 1158.09 544.603 1157.92 544.94 1157.73 545.249 1157.82 545.304 1157.89 545.401 1157.95 545.557 1158.1 545.989 1157.6 546.983 1157.03 547.61 1156.42 549.562 1155.36 550.83 1154.27 551.657L1154.27 551.659C1154.12 552.723 1154.17 554.069 1154.28 555.215 1157.15 555.52 1159.98 556.098 1162.44 556.972 1163.34 557.29 1164.23 557.881 1165.06 559.023 1165.78 560.003 1166.45 561.39 1167.04 563.362 1167.66 565.428 1174.85 571.563 1177.69 573.927 1178.43 574.539 1178.9 575.413 1178.99 576.363 1179.07 577.171 1178.54 578.83 1177.81 580Z" fill="#1B2E4C" fill-rule="evenodd"/><path d="M893.5 578C884.699 577.956 876.68 577.916 869.647 577.882 869.02 577.879 868.405 577.875 867.794 577.873 864.712 577.858 861.832 577.844 859.176 577.829 852.897 577.798 846.968 575.893 842 572.579 844.869 568.086 850.799 559.016 852.999 557.312 853.126 557.214 853.261 557.119 853.403 557.026 855.323 555.769 858.615 554.994 862.375 554.747 862.523 553.454 862.439 552.158 862.367 551.458 861.561 550.767 860.824 549.69 860.306 547.948 859.552 547.948 858.325 546.029 858.549 545.39 858.661 545.069 858.861 544.998 859.052 545.023 858.505 543.724 858.114 541.706 858.762 539.794 859.697 537.046 862.095 534.887 864.433 534.231 867.089 533.486 869.766 534.633 871.903 536.395 874.355 538.418 874.144 542.197 873.596 544.059 873.481 544.449 873.316 544.781 873.125 545.086 873.209 545.141 873.284 545.235 873.338 545.39 873.486 545.815 872.998 546.795 872.433 547.413 871.837 549.337 870.8 550.586 869.731 551.401L869.731 551.403C869.576 552.452 869.633 553.778 869.741 554.908 871.691 555.114 873.622 555.453 875.426 555.928 876.229 556.139 877.004 556.375 877.748 556.639 879.383 557.222 881.008 558.734 882.262 562.937 882.87 564.972 889.927 571.019 892.716 573.348 893.437 573.952 893.896 574.813 893.992 575.749 894.044 576.264 893.842 577.136 893.5 578Z" fill="#1B2E4C" fill-rule="evenodd"/><path d="M1200 567.75 1200 571.756C1193.86 576.942 1186.04 579.989 1177.68 580L1177.49 580C1169.65 579.967 1160.01 579.925 1149.02 579.875 1148.68 579.873 1148.34 579.871 1148 579.87L1150.4 575.967C1150.63 575.617 1150.93 575.219 1151.25 574.805 1152.49 573.248 1154.2 571.448 1154.72 570.994 1157.3 568.779 1163.82 563.031 1164.38 561.096 1164.64 560.212 1164.91 559.453 1165.2 558.801 1166.21 556.508 1167.38 555.542 1168.55 555.109 1170.79 554.291 1173.35 553.747 1175.95 553.463 1175.95 553.463 1175.95 553.463 1175.95 553.463 1176.05 552.387 1176.11 551.128 1175.96 550.132 1175.96 550.132 1173.61 551.144 1173.04 544.064 1172.88 543.974 1172.73 543.853 1172.62 543.679 1170.73 542.524 1170.65 540.686 1170.98 538.931 1171.56 535.869 1174.15 531.732 1178.44 532.213 1179.26 532.304 1180.08 532.27 1180.9 532.138 1182.49 531.882 1185.09 531.798 1186.32 533.584 1191.07 540.476 1185.22 544.402 1186.1 546.849 1186.97 549.292 1192.68 552.607 1191.42 555.746 1191.42 555.748 1191.42 555.748 1191.42 555.748 1193.01 557.013 1197.02 563.061 1200 567.75Z" fill="#1B2E4C" fill-rule="evenodd"/><path d="M1151 575.898C1151.07 576.578 1149.58 578.538 1148.15 580 1147.81 579.998 1147.47 579.997 1147.13 579.995 1139.96 579.962 1132.24 579.928 1124.08 579.888 1121.65 579.877 1119.18 579.865 1116.67 579.852 1110.68 579.824 1104.49 579.795 1098.13 579.764L1097.11 575.518C1096.83 574.344 1097.09 573.099 1097.83 572.156 1098.86 570.829 1100.32 569.286 1100.68 568.694 1101.07 568.074 1101.57 567.254 1102.16 566.32 1101.63 565.93 1101.32 565.337 1101.3 564.496 1101.21 560.495 1104.19 557.988 1105.96 555.377 1107.14 553.622 1107.78 551.818 1106.57 549.477 1105.15 546.721 1111.39 542.327 1112.2 540.081 1113 537.836 1113.4 535.084 1115.76 533.296 1118.12 531.505 1121.97 532.241 1121.97 532.241 1126.52 530.944 1129.26 535.155 1129.84 538.206 1130.14 539.797 1130.07 541.463 1128.4 542.527 1128.27 542.853 1128.09 543.138 1127.9 543.398 1127.65 545.379 1126.94 546.749 1126.11 547.696 1126.21 548.805 1126.62 549.686 1127.41 549.806 1131 550.351 1132.08 551.792 1132.38 553.192 1133.66 553.782 1134.91 555.163 1135.9 558.561 1135.91 558.583 1135.91 558.604 1135.92 558.628 1136.56 560.466 1142.43 565.644 1144.77 567.652 1145.38 568.178 1147.73 570.687 1148.74 572.219L1150.39 574.912 1151 575.898Z" fill="#1B2E4C" fill-rule="evenodd"/><path d="M1092.04 579C1082.81 578.957 1073.26 578.91 1063.53 578.862 1061.91 578.855 1060.29 578.847 1058.67 578.839 1052.37 578.808 1046 578.777 1039.59 578.746L1039.11 576.772C1038.83 575.617 1039.09 574.393 1039.83 573.468 1040.86 572.163 1042.32 570.644 1042.68 570.064 1044.44 567.264 1048.83 560.373 1051.51 556.996 1052.15 556.188 1052.69 555.583 1053.07 555.28 1054.63 554.055 1057.6 553.309 1061.03 553.08 1061.05 552.891 1061.06 552.704 1061.07 552.518 1057.1 552.433 1053.26 551.22 1051.75 547.506 1050.59 544.673 1053.39 544.148 1054.19 541.941 1055 539.735 1055.4 537.032 1057.76 535.273 1060.12 533.515 1063.96 534.236 1063.96 534.236 1068.52 532.965 1071.26 537.1 1071.84 540.098 1072.14 541.664 1072.07 543.299 1070.4 544.345 1070.27 544.667 1070.09 544.945 1069.89 545.201 1069.72 546.531 1069.34 547.58 1068.85 548.409 1068.97 548.525 1069.1 548.624 1069.27 548.692 1070.57 549.215 1071.45 550.707 1070.54 551.013 1069.63 551.321 1068.47 551.64 1067.19 551.906 1067.2 552.353 1067.24 552.8 1067.28 553.216 1069.18 553.42 1071.06 553.771 1072.78 554.282 1073.22 554.41 1073.65 554.551 1074.07 554.701 1075.46 555.203 1076.83 556.497 1077.9 560.104 1078.41 561.85 1084.4 567.039 1086.77 569.04 1087.38 569.557 1089.72 572.023 1090.74 573.528L1093 577.145C1093.03 577.498 1092.64 578.202 1092.04 579Z" fill="#1B2E4C" fill-rule="evenodd"/><path d="M942 344C942 344 928.099 415.257 833 449.637L848.733 457C848.731 457 923.669 441.204 942 344Z" fill="#E56539" fill-rule="evenodd" fill-opacity="0.4"/><path d="M825 447C825 447 842.752 455.41 859.478 455.963 859.478 455.963 862.596 460.359 859.906 465.754 859.906 465.754 843.841 467.542 825.734 461.474L825 447Z" fill="#FFA561" fill-rule="evenodd"/><path d="M917 349C916.819 349.521 897.357 405.048 829.167 447.923 829.167 447.923 827.593 448.119 825.511 447.886 824.927 442.024 824.386 435.965 824 429.828 840.596 421.051 878.993 406.116 917 349Z" fill="#E56539" fill-rule="evenodd" fill-opacity="0.4"/><path d="M1088 343C1088 343 1103.7 416.747 1199 451.429L1181.47 457C1181.47 457 1106.37 441.064 1088 343Z" fill="#E56539" fill-rule="evenodd" fill-opacity="0.4"/><path d="M1207 428.949C1206.61 435.358 1206.05 441.694 1205.43 447.827 1203.35 448.067 1202.04 449 1202.04 449 1133.28 406.117 1113.18 349.521 1113 349 1150.64 405.102 1189.76 420.115 1207 428.949Z" fill="#E56539" fill-rule="evenodd" fill-opacity="0.4"/><path d="M1205 447C1205 447 1186.76 455.41 1169.56 455.962 1169.56 455.962 1166.36 460.358 1169.12 465.754 1169.12 465.754 1185.63 467.542 1204.24 461.474L1205 447Z" fill="#FFA561" fill-rule="evenodd"/></g></svg>