<svg width="372" height="177" xmlns="http://www.w3.org/2000/svg" xmlns:xlink="http://www.w3.org/1999/xlink" overflow="hidden"><defs><clipPath id="clip0"><rect x="180" y="372" width="372" height="177"/></clipPath></defs><g clip-path="url(#clip0)" transform="translate(-180 -372)"><path d="M546.554 537.35C546.503 537.507 546.45 537.664 546.397 537.822 545.943 539.157 545.442 540.513 544.894 541.89 544.819 542.081 544.74 542.274 544.662 542.466 543.996 544.104 543.26 545.773 542.452 547.471 542.452 547.472 542.452 547.472 542.45 547.473 542.441 547.492 542.432 547.514 542.422 547.533L199.459 548C199.54 546.626 168.135 502.23 200.995 459.019 233.856 415.812 272.28 439.096 280.164 408.692 281.867 402.123 284.607 396.585 288.126 391.978 288.312 391.732 288.502 391.488 288.696 391.248 289.189 390.629 289.697 390.029 290.218 389.445 290.363 389.283 290.508 389.123 290.655 388.963 291.983 387.524 293.395 386.191 294.882 384.962 295.181 384.715 295.481 384.471 295.788 384.233L295.789 384.233C314.045 369.931 342.74 370.541 363.238 379.047 390.461 390.342 440.286 370.71 482.861 385.056 483.567 385.292 484.27 385.539 484.971 385.798L484.973 385.798C486.447 386.336 487.911 386.917 489.364 387.546 492.529 388.911 495.295 390.462 497.712 392.169 498.056 392.412 498.393 392.658 498.723 392.906L498.725 392.906C528.219 415.187 501.998 461.906 517.232 469.131 526.79 473.664 540.901 483.842 547.005 500.367 547.082 500.577 547.159 500.787 547.233 501 547.317 501.235 547.397 501.471 547.477 501.708 547.549 501.921 547.62 502.136 547.686 502.349 550.764 511.944 551.137 523.572 546.554 537.35Z" fill="#EBF3FA" fill-rule="evenodd"/><path d="M376 427 349 427 349 405 376 405Z" fill="#C3DAFC" fill-rule="evenodd"/><path d="M389 427 362 427 362 405 389 405Z" fill="#D4E4F8" fill-rule="evenodd"/><path d="M349 421 353 421 352.647 419.834 353 419 349 419Z" fill="#9DC3F3" fill-rule="evenodd"/><path d="M362 412 367 412 366.56 410.833 367 410 362 410Z" fill="#E3F0FF" fill-rule="evenodd"/><path d="M362 410 358 410 358.352 411.166 358 412 362 412Z" fill="#9DC3F3" fill-rule="evenodd"/><path d="M389 421 385 421 385.352 422.166 385 423 389 423Z" fill="#E3F0FF" fill-rule="evenodd"/><path d="M380 406 387 406 387 409 380 409Z" fill="#FFFFFF" fill-rule="evenodd"/><path d="M329 427 302 427 302 405 329 405Z" fill="#C3DAFC" fill-rule="evenodd"/><path d="M342 427 316 427 316 405 342 405Z" fill="#D4E4F8" fill-rule="evenodd"/><path d="M302 421 307 421 306.56 419.834 307 419 302 419Z" fill="#9DC3F3" fill-rule="evenodd"/><path d="M316 412 320 412 319.648 410.833 320 410 316 410Z" fill="#E3F0FF" fill-rule="evenodd"/><path d="M316 410 311 410 311.441 411.166 311 412 316 412Z" fill="#9DC3F3" fill-rule="evenodd"/><path d="M342 421 338 421 338.353 422.166 338 423 342 423Z" fill="#E3F0FF" fill-rule="evenodd"/><path d="M333 406 340 406 340 409 333 409Z" fill="#FFFFFF" fill-rule="evenodd"/><path d="M285 427 295 427 295 548 285 548Z" fill="#C3DAFC" fill-rule="evenodd"/><path d="M397 427 405 427 405 548 397 548Z" fill="#C3DAFC" fill-rule="evenodd"/><path d="M295 427 405 427 405 430 295 430Z" fill="#C3DAFC" fill-rule="evenodd"/><path d="M295 484 405 484 405 487 295 487Z" fill="#C3DAFC" fill-rule="evenodd"/><path d="M295 533 405 533 405 536 295 536Z" fill="#C3DAFC" fill-rule="evenodd"/><path d="M378 484 351 484 351 462 378 462Z" fill="#A9C8ED" fill-rule="evenodd"/><path d="M392 484 365 484 365 462 392 462Z" fill="#D4E4F8" fill-rule="evenodd"/><path d="M351 479 355 479 354.648 477.25 355 476 351 476Z" fill="#9DC3F3" fill-rule="evenodd"/><path d="M365 469 369 469 368.648 467.833 369 467 365 467Z" fill="#E3F0FF" fill-rule="evenodd"/><path d="M365 467 360 467 360.44 468.166 360 469 365 469Z" fill="#9DC3F3" fill-rule="evenodd"/><path d="M392 479 388 479 388.352 480.166 388 481 392 481Z" fill="#E3F0FF" fill-rule="evenodd"/><path d="M382 463 390 463 390 466 382 466Z" fill="#FFFFFF" fill-rule="evenodd"/><path d="M343 484 316 484 316 462 343 462Z" fill="#C3DAFC" fill-rule="evenodd"/><path d="M357 484 329 484 329 462 357 462Z" fill="#D4E4F8" fill-rule="evenodd"/><path d="M316 479 320 479 319.648 477.25 320 476 316 476Z" fill="#9DC3F3" fill-rule="evenodd"/><path d="M329 469 334 469 333.56 467.833 334 467 329 467Z" fill="#E3F0FF" fill-rule="evenodd"/><path d="M329 467 325 467 325.352 468.166 325 469 329 469Z" fill="#9DC3F3" fill-rule="evenodd"/><path d="M357 479 353 479 353.352 480.166 353 481 357 481Z" fill="#E3F0FF" fill-rule="evenodd"/><path d="M357 466 353 466 353.352 467.166 353 468 357 468Z" fill="#E3F0FF" fill-rule="evenodd"/><path d="M332 477 345 477 345 482 332 482Z" fill="#FFFFFF" fill-rule="evenodd"/><path d="M375 533 351 533 351 513 375 513Z" fill="#C3DAFC" fill-rule="evenodd"/><path d="M386 533 363 533 363 513 386 513Z" fill="#D4E4F8" fill-rule="evenodd"/><path d="M351 528 355 528 354.647 526.834 355 526 351 526Z" fill="#9DC3F3" fill-rule="evenodd"/><path d="M363 519 367 519 366.647 517.833 367 517 363 517Z" fill="#E3F0FF" fill-rule="evenodd"/><path d="M363 517 359 517 359.353 518.166 359 519 363 519Z" fill="#9DC3F3" fill-rule="evenodd"/><path d="M386 528 383 528 383.265 529.167 383 530 386 530Z" fill="#E3F0FF" fill-rule="evenodd"/><path d="M378 514 385 514 385 517 378 517Z" fill="#FFFFFF" fill-rule="evenodd"/><path d="M333 533 306 533 306 510 333 510Z" fill="#C3DAFC" fill-rule="evenodd"/><path d="M347 533 320 533 320 510 347 510Z" fill="#D4E4F8" fill-rule="evenodd"/><path d="M306 527 310 527 309.647 525.833 310 525 306 525Z" fill="#2A4E96" fill-rule="evenodd"/><path d="M320 517 324 517 323.648 515.834 324 515 320 515Z" fill="#618DC1" fill-rule="evenodd"/><path d="M320 515 315 515 315.442 516.167 315 517 320 517Z" fill="#2A4E96" fill-rule="evenodd"/><path d="M347 527 343 527 343.352 528.167 343 529 347 529Z" fill="#618DC1" fill-rule="evenodd"/><path d="M337 511 345 511 345 515 337 515Z" fill="#FFFFFF" fill-rule="evenodd"/><path d="M335 462 314 462 314 444 335 444Z" fill="#C3DAFC" fill-rule="evenodd"/><path d="M345 462 324 462 324 444 345 444Z" fill="#D4E4F8" fill-rule="evenodd"/><path d="M314 457 317 457 316.736 456.416 317 456 314 456Z" fill="#9DC3F3" fill-rule="evenodd"/><path d="M324 450 327 450 326.736 448.833 327 448 324 448Z" fill="#E3F0FF" fill-rule="evenodd"/><path d="M324 448 321 448 321.264 449.166 321 450 324 450Z" fill="#9DC3F3" fill-rule="evenodd"/><path d="M345 457 342 457 342.264 458.166 342 459 345 459Z" fill="#E3F0FF" fill-rule="evenodd"/><path d="M338 445 344 445 344 448 338 448Z" fill="#FFFFFF" fill-rule="evenodd"/><path d="M372 462 351 462 351 444 372 444Z" fill="#C3DAFC" fill-rule="evenodd"/><path d="M383 462 362 462 362 444 383 444Z" fill="#D4E4F8" fill-rule="evenodd"/><path d="M351 457 354 457 353.736 456.416 354 456 351 456Z" fill="#9DC3F3" fill-rule="evenodd"/><path d="M362 450 365 450 364.736 448.833 365 448 362 448Z" fill="#E3F0FF" fill-rule="evenodd"/><path d="M362 448 358 448 358.352 449.166 358 450 362 450Z" fill="#9DC3F3" fill-rule="evenodd"/><path d="M383 457 379 457 379.352 458.166 379 459 383 459Z" fill="#E3F0FF" fill-rule="evenodd"/><path d="M375 445 381 445 381 448 375 448Z" fill="#FFFFFF" fill-rule="evenodd"/><path d="M518.596 514 518.074 513.849C519.455 509.253 516.949 504.468 512.489 503.182L501.255 499.943C498.943 499.277 497.644 496.796 498.359 494.412 500.672 486.711 496.474 478.693 489 476.539L489.162 476C496.924 478.237 501.284 486.565 498.882 494.564 498.256 496.649 499.393 498.821 501.417 499.404L512.651 502.642C517.398 504.013 520.066 509.107 518.596 514Z" fill="#2B478B" fill-rule="evenodd"/><path d="M517.596 518 517.074 517.849C518.455 513.253 515.949 508.468 511.489 507.182L500.255 503.943C497.943 503.277 496.644 500.796 497.359 498.414 499.672 490.713 495.474 482.694 488 480.539L488.162 480C495.924 482.237 500.284 490.565 497.882 498.564 497.256 500.649 498.393 502.821 500.417 503.404L511.651 506.642C516.399 508.013 519.066 513.107 517.596 518Z" fill="#2B478B" fill-rule="evenodd"/><path d="M436 461 460 461 460 481 436 481Z" fill="#ED823A" fill-rule="evenodd"/><path d="M424 461 448 461 448 481 424 481Z" fill="#FF9E55" fill-rule="evenodd"/><path d="M460 476 456 476 456.351 474.834 456 474 460 474Z" fill="#DD732C" fill-rule="evenodd"/><path d="M448 468 444 468 444.353 466.834 444 466 448 466Z" fill="#FFB27D" fill-rule="evenodd"/><path d="M448 466 451 466 450.737 467.166 451 468 448 468Z" fill="#DD732C" fill-rule="evenodd"/><path d="M424 476 428 476 427.647 477.166 428 478 424 478Z" fill="#FFB27D" fill-rule="evenodd"/><path d="M432 465 426 465 426 463 432 463Z" fill="#FFFFFF" fill-rule="evenodd"/><path d="M460.23 409C456.828 409 453.261 408.441 451.281 407.26 448.132 405.379 444.137 406.176 444.097 406.184L444 405.685C444.17 405.649 448.215 404.839 451.528 406.818 454.793 408.768 462.907 408.941 466.58 407.647 470.198 406.372 475.002 405 477 405L477 405.51C475.058 405.51 470.32 406.867 466.738 408.13 465.116 408.701 462.717 409 460.23 409Z" fill="#2B478B" fill-rule="evenodd"/><path d="M439 444 441 444 441 454 439 454Z" fill="#2B478B" fill-rule="evenodd"/><path d="M442 444 444 444 444 454 442 454Z" fill="#2B478B" fill-rule="evenodd"/><path d="M460.23 407C456.828 407 453.261 406.581 451.281 405.695 448.132 404.284 444.137 404.882 444.097 404.888L444 404.514C444.17 404.486 448.215 403.88 451.528 405.363 454.793 406.826 462.907 406.956 466.58 405.985 470.198 405.029 475.002 404 477 404L477 404.382C475.058 404.382 470.32 405.4 466.738 406.347 465.116 406.776 462.717 407 460.23 407Z" fill="#2B478B" fill-rule="evenodd"/><path d="M492.92 466 492.256 466 492.256 465.515 492.92 465.515C495.993 465.515 498.494 463.116 498.494 460.169L498.494 404.832C498.494 401.884 495.993 399.485 492.92 399.485L488 399.485 488 399 492.92 399C496.273 399 499 401.616 499 404.83L499 460.167C499 463.384 496.273 466 492.92 466Z" fill="#2B478B" fill-rule="evenodd"/><path d="M492.707 462 492.707 461.504C494.801 461.504 496.504 459.801 496.504 457.708L496.504 405.178C496.504 403.147 494.852 401.496 492.821 401.496L489 401.496 489 401 492.821 401C495.125 401 497 402.874 497 405.178L497 457.707C497.001 460.075 495.074 462 492.707 462Z" fill="#2B478B" fill-rule="evenodd"/><path d="M448.43 446 434.57 446C432.598 446 431 444.448 431 442.533L431 412.467C431 410.552 432.598 409 434.57 409L448.43 409C450.402 409 452 410.552 452 412.467L452 442.533C452 444.448 450.402 446 448.43 446Z" fill="#AEC3FF" fill-rule="evenodd"/><path d="M439 414.5C439 415.328 438.105 416 437 416 435.895 416 435 415.328 435 414.5 435 413.672 435.895 413 437 413 438.105 413 439 413.672 439 414.5Z" fill="#DDE7FE" fill-rule="evenodd"/><path d="M435 439.5C435 438.671 435.895 438 437 438 438.105 438 439 438.671 439 439.5 439 440.329 438.105 441 437 441 435.895 441 435 440.329 435 439.5Z" fill="#DDE7FE" fill-rule="evenodd"/><path d="M444 414.5C444 413.671 444.895 413 446.001 413 447.107 413 448 413.671 448 414.5 448 415.329 447.105 416 446.001 416 444.896 416 444 415.329 444 414.5Z" fill="#DDE7FE" fill-rule="evenodd"/><path d="M444 439.5C444 438.671 444.895 438 446.001 438 447.107 438 448 438.671 448 439.5 448 440.329 447.105 441 446.001 441 444.896 441 444 440.329 444 439.5Z" fill="#DDE7FE" fill-rule="evenodd"/><path d="M449 454.991C449 455.34 448.921 455.678 448.774 456L435.226 456C435.079 455.677 435 455.34 435 454.991 435 452.788 438.135 451 442 451 445.865 451 449 452.788 449 454.991Z" fill="#FF9E55" fill-rule="evenodd"/><path d="M461 460.454 461 479.13C461 480.628 460.263 482.031 459.031 482.88L453.336 486.808C452.927 487.089 452.368 486.987 452.087 486.579L452.087 486.579C451.806 486.17 451.908 485.611 452.316 485.33L458.011 481.402C458.757 480.887 459.204 480.039 459.204 479.13L459.204 460.454C459.204 458.434 457.567 456.796 455.547 456.796L428.456 456.796C426.436 456.796 424.799 458.434 424.799 460.454L424.799 479.023C424.799 479.98 425.284 480.855 426.096 481.363L432.458 485.341C432.878 485.604 433.005 486.157 432.743 486.578L432.743 486.578C432.481 486.998 431.926 487.126 431.506 486.864L425.142 482.887C423.801 482.048 423 480.604 423 479.023L423 460.454C423 457.442 425.441 455 428.453 455L455.544 455C458.559 455 461 457.442 461 460.454Z" fill="#2B478B" fill-rule="evenodd"/><path d="M441 398 479 398 479 399 441 399Z" fill="#2B478B" fill-rule="evenodd"/><path d="M441 401 479 401 479 402 441 402Z" fill="#2B478B" fill-rule="evenodd"/><path d="M446.621 409 435 409 435 400.935C435 397.658 437.686 395 441 395L441 395C444.313 395 447 397.657 447 400.935L447 408.625C447 408.832 446.831 409 446.621 409Z" fill="#FF9E55" fill-rule="evenodd"/><path d="M486.274 395 480.726 395C478.115 395 476 397.185 476 399.879L476 502.121C476 504.816 478.116 507 480.726 507L486.274 507C488.885 507 491 504.815 491 502.121L491 399.879C491.001 397.185 488.885 395 486.274 395Z" fill="#AEC3FF" fill-rule="evenodd"/><path d="M484 401C484 401.552 483.552 402 483 402 482.448 402 482 401.552 482 401 482 400.448 482.448 400 483 400 483.552 400 484 400.448 484 401Z" fill="#2B478B" fill-rule="evenodd"/><path d="M489.696 486 476.304 486C475.031 486 474 484.929 474 483.606L474 413.394C474 412.071 475.032 411 476.304 411L489.696 411C490.969 411 492 412.072 492 413.394L492 483.608C492 484.929 490.969 486 489.696 486Z" fill="#98B5F4" fill-rule="evenodd"/><path d="M493 513 476.224 513C474.996 513 474 511.932 474 510.615L474 502.385C474 501.068 474.996 500 476.224 500L490.776 500C492.004 500 493 501.068 493 502.385L493 513Z" fill="#98B5F4" fill-rule="evenodd"/><path d="M440.989 397.483C442.879 397.526 444.376 399.093 444.334 400.983 444.291 402.873 442.724 404.37 440.834 404.328 438.944 404.285 437.446 402.718 437.489 400.828 437.532 398.938 439.099 397.44 440.989 397.483Z" fill="#FF9E55" fill-rule="evenodd"/><path d="M440.5 404C438.571 404 437 402.431 437 400.5 437 398.571 438.569 397 440.5 397 442.431 397 444 398.569 444 400.5 444 402.429 442.431 404 440.5 404ZM440.5 397.211C438.686 397.211 437.211 398.686 437.211 400.5 437.211 402.314 438.686 403.789 440.5 403.789 442.314 403.789 443.789 402.314 443.789 400.5 443.79 398.686 442.314 397.211 440.5 397.211Z" fill="#2B478B" fill-rule="evenodd"/><path d="M441.408 398.879C442.531 399.144 443.226 400.269 442.961 401.392 442.696 402.515 441.57 403.21 440.447 402.945 439.324 402.68 438.629 401.555 438.894 400.432 439.159 399.309 440.285 398.613 441.408 398.879Z" fill="#ED823A" fill-rule="evenodd"/><path d="M535.564 506.109 522.173 512.194 517.155 501.152 530.547 495.066Z" fill="#C3DAFC" fill-rule="evenodd"/><path d="M542.261 503.062 528.87 509.147 523.852 498.105 537.244 492.019Z" fill="#D4E4F8" fill-rule="evenodd"/><path d="M525.538 502 528 501.03 527.468 500.515 527.46 500 525 500.97Z" fill="#618DC1" fill-rule="evenodd"/><path d="M524.641 501 523 501.97 523.354 502.485 523.36 503 525 502.03Z" fill="#2A4E96" fill-rule="evenodd"/><path d="M541.46 500 539 500.97 539.532 501.485 539.54 502 542 501.03Z" fill="#618DC1" fill-rule="evenodd"/><path d="M532.843 494.947 536.696 493.196 537.378 494.695 533.524 496.446Z" fill="#FFFFFF" fill-rule="evenodd"/><path d="M546.587 536.983C546.536 537.138 546.484 537.294 546.431 537.45 545.981 538.772 545.485 540.114 544.943 541.476 544.867 541.666 544.79 541.857 544.712 542.046 544.052 543.668 543.324 545.32 542.523 547L524.671 547 523.649 537.45 523.599 536.983 523.56 536.617 521.019 512.919 521 512.735 522.343 512.136 528.999 509.159 535.657 506.184 542.313 503.21 547.259 501C547.342 501.233 547.422 501.467 547.501 501.701 547.572 501.912 547.642 502.125 547.708 502.336 550.757 511.837 551.126 523.346 546.587 536.983Z" fill="#2B478B" fill-rule="evenodd"/><path d="M546.58 537.521C546.529 537.68 546.477 537.84 546.424 538L525.381 538 525.335 537.521 525.298 537.146 523 513.336 524.061 512.85 547.703 502C550.759 511.741 551.128 523.54 546.58 537.521Z" fill="#D2E0FF" fill-rule="evenodd"/><path d="M525.633 538 344.366 538C337.536 538 332 532.403 332 525.5L332 525.5C332 518.596 337.537 513 344.366 513L525.634 513C532.464 513 538 518.597 538 525.5L538 525.5C537.999 532.403 532.463 538 525.633 538Z" fill="#AEC3FF" fill-rule="evenodd"/><path d="M538 525.499C538 528.951 536.594 532.076 534.32 534.339 532.048 536.6 528.906 538 525.438 538L494.212 538C493.542 538 493 537.461 493 536.794L493 514.206C493 513.539 493.542 513 494.212 513L525.438 513C532.376 513 538 518.597 538 525.499Z" fill="#C5D7FF" fill-rule="evenodd"/><path d="M547 537C546.949 537.154 546.896 537.307 546.843 537.462 546.389 538.769 545.888 540.096 545.34 541.444 545.265 541.631 545.186 541.82 545.108 542.008 544.442 543.612 543.706 545.245 542.898 546.907 542.898 546.908 542.898 546.908 542.896 546.909L523.262 546.918 343 547 343 537.001 547 537.001Z" fill="#C5D7FF" fill-rule="evenodd"/><path d="M396.804 524.226 395.446 523.574C395.333 523.519 395.259 523.404 395.257 523.276 395.253 523.112 395.242 522.946 395.225 522.78 395.193 522.472 395.14 522.171 395.063 521.882 395.027 521.748 395.075 521.605 395.182 521.521L396.426 520.541C396.559 520.438 396.594 520.244 396.503 520.096L395.737 518.846C395.651 518.704 395.474 518.655 395.329 518.728L394.036 519.383C393.911 519.45 393.758 519.422 393.658 519.314 393.236 518.859 392.743 518.476 392.203 518.179 392.071 518.107 392.004 517.948 392.039 517.8L392.249 516.921C392.287 516.754 392.2 516.581 392.041 516.519L390.706 516.021C390.678 516.009 390.651 516.003 390.622 516.002 390.49 515.987 390.357 516.062 390.301 516.193L389.828 517.241 389.714 517.498C389.448 517.487 389.177 517.498 388.906 517.529 388.54 517.57 388.185 517.645 387.848 517.751 387.719 517.791 387.579 517.747 387.498 517.634L386.736 516.598C386.631 516.456 386.44 516.421 386.295 516.518L385.37 517.121 385.105 517.295C384.96 517.389 384.907 517.583 384.983 517.74L385.513 518.858C385.575 518.987 385.553 519.143 385.454 519.241 385.167 519.545 384.908 519.878 384.689 520.234 384.667 520.264 384.651 520.293 384.633 520.323 384.628 520.335 384.621 520.344 384.613 520.353 384.534 520.462 384.401 520.51 384.272 520.477L382.889 520.127C382.874 520.123 382.858 520.122 382.843 520.118 382.697 520.104 382.556 520.194 382.503 520.34L382.02 521.716C381.962 521.881 382.035 522.065 382.191 522.141L383.609 522.82C383.73 522.876 383.802 523.004 383.795 523.141 383.782 523.441 383.791 523.747 383.824 524.057 383.841 524.222 383.865 524.383 383.895 524.543 383.918 524.672 383.869 524.805 383.767 524.884L382.571 525.828C382.439 525.93 382.404 526.122 382.494 526.268L383.254 527.503C383.346 527.651 383.531 527.708 383.687 527.629L384.711 527.111C384.849 527.041 385.012 527.077 385.109 527.197 385.49 527.672 385.94 528.082 386.442 528.415 386.563 528.492 386.621 528.641 386.586 528.783L386.28 530.07C386.24 530.243 386.332 530.42 386.492 530.482L387.819 530.98C387.977 531.039 388.156 530.962 388.225 530.805L388.252 530.744 388.801 529.525C388.859 529.395 388.987 529.319 389.127 529.328L389.128 529.328C389.462 529.35 389.801 529.345 390.145 529.306 390.329 529.287 390.507 529.256 390.686 529.218 390.81 529.191 390.936 529.24 391.012 529.343L391.786 530.395C391.893 530.54 392.089 530.576 392.235 530.481L393.424 529.7C393.458 529.676 393.486 529.648 393.509 529.618 393.583 529.518 393.599 529.38 393.545 529.262L393.119 528.37C393.068 528.262 393.078 528.132 393.142 528.032 393.159 528.006 393.181 527.983 393.203 527.961 393.792 527.453 394.274 526.831 394.625 526.127 394.684 526.007 394.807 525.939 394.935 525.946 394.953 525.948 394.972 525.95 394.991 525.957L396.109 526.239C396.273 526.281 396.438 526.19 396.498 526.026L396.509 525.994 396.982 524.654C397.037 524.485 396.961 524.302 396.804 524.226ZM392.402 524.669C392.265 525.065 391.92 525.55 391.567 525.866 391.484 525.939 391.402 526.003 391.324 526.054 390.957 526.291 390.581 526.448 390.21 526.535 388.087 527.022 386.106 525.181 386.475 522.844 386.512 522.61 386.572 522.37 386.658 522.129 386.824 521.665 387.289 521.065 387.691 520.802 387.734 520.773 387.778 520.746 387.82 520.719 390.467 519.115 393.451 521.639 392.402 524.669Z" fill="#98B5F4" fill-rule="evenodd"/><path d="M406.852 530.033 405.856 529.555C405.773 529.515 405.721 529.429 405.717 529.336 405.715 529.215 405.706 529.095 405.693 528.971 405.669 528.745 405.631 528.525 405.575 528.315 405.549 528.215 405.584 528.109 405.661 528.049L406.575 527.33C406.674 527.255 406.697 527.112 406.632 527.004L406.07 526.088C406.006 525.984 405.879 525.949 405.771 526L404.823 526.483C404.732 526.53 404.619 526.511 404.547 526.432 404.236 526.1 403.876 525.818 403.478 525.6 403.383 525.547 403.333 525.432 403.36 525.322L403.514 524.676C403.542 524.554 403.477 524.426 403.362 524.382L402.383 524.016C402.362 524.007 402.342 524.003 402.322 524.001 402.224 523.991 402.127 524.046 402.086 524.141L401.741 524.911 401.657 525.097C401.461 525.092 401.263 525.099 401.063 525.121 400.796 525.151 400.535 525.207 400.288 525.284 400.195 525.313 400.09 525.282 400.032 525.199L399.472 524.439C399.395 524.336 399.255 524.309 399.149 524.379L398.471 524.822 398.279 524.951C398.173 525.021 398.134 525.162 398.188 525.278L398.577 526.096C398.623 526.191 398.606 526.305 398.535 526.378 398.322 526.6 398.134 526.844 397.973 527.105 397.958 527.128 397.945 527.149 397.931 527.171 397.929 527.178 397.922 527.186 397.917 527.194 397.86 527.272 397.76 527.308 397.668 527.283L396.652 527.028C396.641 527.024 396.628 527.022 396.618 527.02 396.512 527.009 396.407 527.076 396.37 527.183L396.014 528.191C395.972 528.313 396.026 528.448 396.14 528.504L397.18 529C397.268 529.042 397.321 529.136 397.317 529.236 397.307 529.455 397.315 529.68 397.339 529.908 397.352 530.028 397.368 530.148 397.391 530.265 397.408 530.359 397.373 530.457 397.298 530.515L396.422 531.207C396.324 531.282 396.3 531.424 396.365 531.531L396.922 532.436C396.989 532.545 397.125 532.586 397.238 532.528L397.99 532.148C398.09 532.096 398.209 532.123 398.281 532.211 398.559 532.558 398.89 532.86 399.258 533.103 399.346 533.16 399.388 533.269 399.363 533.374L399.14 534.318C399.111 534.445 399.178 534.574 399.297 534.619L400.27 534.985C400.386 535.029 400.516 534.973 400.566 534.858L400.587 534.814 400.989 533.92C401.031 533.825 401.127 533.769 401.229 533.775L401.23 533.775C401.473 533.793 401.722 533.789 401.975 533.76 402.109 533.745 402.24 533.721 402.373 533.696 402.463 533.677 402.557 533.711 402.613 533.787L403.181 534.56C403.259 534.665 403.402 534.691 403.51 534.62L404.384 534.048C404.408 534.032 404.428 534.01 404.445 533.989 404.5 533.915 404.511 533.812 404.472 533.727L404.158 533.073C404.121 532.992 404.128 532.896 404.175 532.824 404.188 532.806 404.202 532.786 404.219 532.773 404.651 532.4 405.004 531.944 405.263 531.427 405.306 531.338 405.396 531.29 405.491 531.295 405.503 531.295 405.517 531.298 405.531 531.3L406.352 531.508C406.47 531.539 406.592 531.473 406.636 531.352L406.645 531.329 406.991 530.346C407.023 530.223 406.968 530.087 406.852 530.033ZM403.625 530.357C403.524 530.648 403.269 531.004 403.011 531.234 402.951 531.288 402.891 531.336 402.832 531.371 402.562 531.546 402.289 531.662 402.016 531.725 400.46 532.082 399.007 530.732 399.276 529.017 399.303 528.848 399.348 528.671 399.41 528.494 399.532 528.154 399.872 527.713 400.168 527.52 400.2 527.5 400.232 527.479 400.263 527.459 402.206 526.286 404.394 528.136 403.625 530.357Z" fill="#D2E0FF" fill-rule="evenodd"/><path d="M450.792 524.226 449.344 523.574C449.224 523.519 449.146 523.404 449.142 523.276 449.138 523.112 449.128 522.946 449.109 522.78 449.074 522.472 449.018 522.171 448.937 521.882 448.898 521.748 448.948 521.605 449.062 521.521L450.39 520.541C450.534 520.438 450.57 520.244 450.471 520.096L449.655 518.846C449.562 518.704 449.376 518.655 449.221 518.728L447.84 519.383C447.707 519.45 447.544 519.422 447.438 519.314 446.987 518.859 446.462 518.476 445.884 518.179 445.745 518.107 445.672 517.948 445.709 517.8L445.934 516.921C445.974 516.754 445.881 516.581 445.713 516.519L444.287 516.021C444.258 516.009 444.23 516.003 444.199 516.002 444.058 515.987 443.916 516.062 443.855 516.193L443.351 517.241 443.23 517.498C442.946 517.487 442.657 517.498 442.368 517.529 441.977 517.57 441.599 517.645 441.239 517.751 441.102 517.791 440.952 517.747 440.866 517.634L440.051 516.598C439.941 516.456 439.736 516.421 439.582 516.518L438.595 517.121 438.313 517.295C438.159 517.389 438.102 517.583 438.181 517.74L438.748 518.858C438.813 518.987 438.791 519.143 438.685 519.241 438.376 519.545 438.102 519.878 437.87 520.234 437.846 520.264 437.828 520.293 437.81 520.323 437.804 520.335 437.795 520.344 437.788 520.353 437.704 520.462 437.56 520.51 437.424 520.477L435.949 520.127C435.933 520.123 435.916 520.122 435.9 520.118 435.744 520.104 435.593 520.194 435.537 520.34L435.021 521.716C434.959 521.881 435.037 522.065 435.204 522.141L436.717 522.82C436.845 522.876 436.923 523.004 436.915 523.141 436.901 523.441 436.911 523.747 436.946 524.057 436.963 524.222 436.99 524.383 437.021 524.543 437.046 524.672 436.994 524.805 436.886 524.884L435.609 525.828C435.469 525.93 435.432 526.122 435.527 526.268L436.337 527.503C436.433 527.651 436.631 527.708 436.798 527.629L437.891 527.111C438.038 527.041 438.211 527.077 438.316 527.197 438.721 527.672 439.202 528.082 439.738 528.415 439.865 528.492 439.929 528.641 439.891 528.783L439.565 530.07C439.521 530.243 439.621 530.42 439.791 530.482L441.206 530.98C441.376 531.039 441.565 530.962 441.639 530.805L441.669 530.744 442.254 529.525C442.316 529.395 442.453 529.319 442.601 529.328L442.604 529.328C442.958 529.35 443.321 529.345 443.687 529.306 443.883 529.287 444.075 529.256 444.264 529.218 444.398 529.191 444.532 529.24 444.613 529.343L445.44 530.395C445.552 530.54 445.761 530.576 445.918 530.481L447.187 529.7C447.222 529.676 447.252 529.648 447.278 529.618 447.355 529.518 447.374 529.38 447.314 529.262L446.861 528.37C446.806 528.262 446.817 528.132 446.885 528.032 446.902 528.006 446.925 527.983 446.95 527.961 447.578 527.453 448.091 526.831 448.467 526.127 448.528 526.007 448.661 525.939 448.797 525.946 448.816 525.948 448.837 525.95 448.856 525.957L450.051 526.239C450.223 526.281 450.4 526.19 450.463 526.026L450.475 525.994 450.98 524.654C451.04 524.485 450.96 524.302 450.792 524.226ZM446.097 524.669C445.949 525.065 445.582 525.55 445.205 525.866 445.117 525.939 445.029 526.003 444.947 526.054 444.554 526.291 444.154 526.448 443.757 526.535 441.492 527.022 439.38 525.181 439.771 522.844 439.813 522.61 439.877 522.37 439.969 522.129 440.146 521.665 440.64 521.065 441.07 520.802 441.116 520.773 441.162 520.746 441.208 520.719 444.034 519.115 447.215 521.639 446.097 524.669Z" fill="#98B5F4" fill-rule="evenodd"/><path d="M459.856 530.033 458.86 529.555C458.777 529.515 458.723 529.429 458.721 529.336 458.718 529.215 458.71 529.095 458.697 528.971 458.673 528.745 458.635 528.525 458.579 528.315 458.552 528.215 458.585 528.109 458.665 528.049L459.579 527.33C459.677 527.255 459.701 527.112 459.635 527.004L459.074 526.088C459.011 525.984 458.882 525.949 458.775 526L457.826 526.483C457.736 526.53 457.624 526.511 457.55 526.432 457.24 526.1 456.878 525.818 456.482 525.6 456.385 525.547 456.337 525.432 456.363 525.322L456.518 524.676C456.546 524.554 456.481 524.426 456.365 524.382L455.386 524.016C455.367 524.007 455.346 524.003 455.326 524.001 455.228 523.991 455.132 524.046 455.09 524.141L454.744 524.911 454.66 525.097C454.465 525.092 454.266 525.099 454.067 525.121 453.799 525.151 453.539 525.207 453.292 525.284 453.196 525.313 453.094 525.282 453.036 525.199L452.475 524.439C452.399 524.336 452.259 524.309 452.152 524.379L451.474 524.822 451.279 524.951C451.174 525.021 451.134 525.162 451.19 525.278L451.579 526.096C451.625 526.191 451.608 526.305 451.535 526.378 451.324 526.6 451.135 526.844 450.975 527.105 450.958 527.128 450.947 527.149 450.933 527.171 450.929 527.178 450.923 527.186 450.919 527.194 450.86 527.272 450.762 527.308 450.668 527.283L449.654 527.028C449.643 527.024 449.63 527.022 449.618 527.02 449.512 527.009 449.407 527.076 449.37 527.183L449.015 528.191C448.971 528.313 449.026 528.448 449.141 528.504L450.179 529C450.268 529.042 450.322 529.136 450.316 529.236 450.306 529.455 450.314 529.68 450.337 529.908 450.35 530.028 450.367 530.148 450.39 530.265 450.407 530.359 450.371 530.457 450.296 530.515L449.419 531.207C449.322 531.282 449.296 531.424 449.362 531.531L449.919 532.436C449.987 532.545 450.122 532.586 450.236 532.528L450.986 532.148C451.087 532.096 451.207 532.123 451.278 532.211 451.557 532.558 451.887 532.86 452.256 533.103 452.343 533.16 452.386 533.269 452.361 533.374L452.137 534.318C452.106 534.445 452.175 534.574 452.292 534.619L453.265 534.985C453.382 535.029 453.512 534.973 453.563 534.858L453.585 534.814 453.986 533.92C454.029 533.825 454.123 533.769 454.225 533.775L454.227 533.775C454.471 533.793 454.72 533.789 454.973 533.76 455.107 533.745 455.238 533.721 455.37 533.696 455.461 533.677 455.554 533.711 455.61 533.787L456.179 534.56C456.256 534.665 456.399 534.691 456.508 534.62L457.38 534.048C457.406 534.032 457.426 534.01 457.443 533.989 457.496 533.915 457.509 533.812 457.468 533.727L457.156 533.073C457.118 532.992 457.125 532.896 457.171 532.824 457.184 532.806 457.199 532.786 457.217 532.773 457.648 532.4 458.002 531.944 458.26 531.427 458.302 531.338 458.393 531.29 458.487 531.295 458.501 531.295 458.514 531.298 458.528 531.3L459.349 531.508C459.468 531.539 459.59 531.473 459.633 531.352L459.642 531.329 459.987 530.346C460.027 530.223 459.971 530.087 459.856 530.033ZM456.629 530.357C456.528 530.648 456.275 531.004 456.016 531.234 455.955 531.288 455.895 531.336 455.838 531.371 455.568 531.546 455.293 531.662 455.02 531.725 453.465 532.082 452.012 530.732 452.28 529.017 452.309 528.848 452.353 528.671 452.415 528.494 452.538 528.154 452.877 527.713 453.173 527.52 453.204 527.5 453.236 527.479 453.269 527.459 455.211 526.286 457.397 528.136 456.629 530.357Z" fill="#D2E0FF" fill-rule="evenodd"/><path d="M420.71 522.225 419.156 521.961C419.028 521.936 418.922 521.846 418.887 521.725 418.839 521.569 418.784 521.414 418.724 521.261 418.609 520.977 418.479 520.704 418.325 520.449 418.253 520.329 418.263 520.182 418.351 520.074L419.363 518.816C419.471 518.683 419.455 518.49 419.324 518.373L418.217 517.382C418.091 517.27 417.901 517.269 417.772 517.375L416.626 518.337C416.519 518.433 416.355 518.445 416.225 518.368 415.677 518.047 415.077 517.81 414.445 517.668 414.294 517.634 414.183 517.499 414.181 517.349L414.165 516.458C414.161 516.288 414.027 516.145 413.85 516.129L412.36 516.002C412.33 515.999 412.301 515.999 412.27 516.004 412.132 516.027 412.018 516.133 411.993 516.272L411.786 517.393 411.738 517.666C411.465 517.726 411.19 517.807 410.922 517.906 410.561 518.041 410.219 518.206 409.902 518.394 409.781 518.466 409.629 518.461 409.517 518.375L408.468 517.587C408.325 517.48 408.121 517.496 407.998 517.625L407.214 518.441 406.991 518.675C406.868 518.804 406.863 519.001 406.981 519.132L407.813 520.059C407.912 520.164 407.927 520.318 407.854 520.438 407.639 520.801 407.464 521.185 407.334 521.583 407.32 521.616 407.31 521.649 407.3 521.682 407.298 521.695 407.293 521.705 407.288 521.715 407.237 521.84 407.11 521.92 406.972 521.921L405.472 521.949C405.457 521.948 405.44 521.95 405.424 521.953 405.271 521.978 405.151 522.1 405.134 522.253L405.001 523.688C404.986 523.861 405.108 524.018 405.287 524.048L406.906 524.325C407.043 524.347 407.15 524.45 407.179 524.581 407.243 524.871 407.333 525.159 407.447 525.447 407.508 525.599 407.575 525.747 407.646 525.892 407.704 526.009 407.689 526.148 407.606 526.25L406.633 527.459C406.526 527.591 406.542 527.782 406.671 527.899L407.767 528.877C407.898 528.995 408.1 529 408.239 528.886L409.146 528.124C409.268 528.022 409.443 528.014 409.575 528.101 410.085 528.456 410.652 528.728 411.249 528.915 411.392 528.957 411.49 529.084 411.492 529.229L411.518 530.535C411.52 530.709 411.661 530.852 411.841 530.869L413.322 530.999C413.499 531.014 413.66 530.894 413.69 530.727L413.703 530.661 413.943 529.359C413.968 529.219 414.078 529.112 414.223 529.085L414.224 529.084C414.569 529.02 414.912 528.926 415.253 528.799 415.435 528.732 415.609 528.657 415.782 528.574 415.9 528.516 416.041 528.53 416.148 528.607L417.212 529.408C417.357 529.519 417.566 529.502 417.69 529.371L418.697 528.317C418.726 528.287 418.746 528.251 418.762 528.218 418.811 528.104 418.791 527.965 418.704 527.869L418.038 527.131C417.957 527.041 417.933 526.914 417.972 526.803 417.984 526.774 417.999 526.746 418.017 526.719 418.482 526.084 418.812 525.365 418.985 524.602 419.013 524.473 419.121 524.375 419.253 524.349 419.271 524.346 419.292 524.344 419.312 524.343L420.526 524.321C420.702 524.319 420.847 524.188 420.864 524.018L420.867 523.985 420.998 522.585C421.016 522.413 420.892 522.257 420.71 522.225ZM416.346 523.795C416.308 524.207 416.083 524.759 415.808 525.153 415.742 525.243 415.675 525.326 415.609 525.395 415.298 525.717 414.957 525.965 414.6 526.143 412.568 527.16 410.071 525.923 409.834 523.603 409.811 523.37 409.81 523.126 409.835 522.873 409.882 522.39 410.198 521.697 410.542 521.341 410.577 521.302 410.614 521.266 410.651 521.228 412.928 519.011 416.623 520.637 416.346 523.795Z" fill="#98B5F4" fill-rule="evenodd"/><path d="M547 537C546.948 537.155 546.895 537.31 546.842 537.466 546.382 538.784 545.876 540.122 545.322 541.481 545.245 541.67 545.166 541.86 545.087 542.049 544.414 543.666 543.67 545.313 542.852 546.989 542.852 546.99 542.852 546.99 542.851 546.991L523 547 523 537.001 547 537.001Z" fill="#D2E0FF" fill-rule="evenodd"/><path d="M525.087 538 343.915 538C336.794 538 331 532.167 331 524.999 331 521.527 332.343 518.263 334.783 515.807 337.223 513.351 340.465 512 343.914 512L525.086 512C532.207 512 538 517.832 538 525 538 528.471 536.657 531.737 534.218 534.193 531.78 536.648 528.537 538 525.087 538ZM343.915 513.115C340.762 513.115 337.798 514.351 335.568 516.595 333.337 518.841 332.109 521.824 332.109 524.999 332.109 531.552 337.405 536.883 343.915 536.883L525.087 536.883C528.241 536.883 531.205 535.646 533.435 533.402 535.664 531.157 536.892 528.172 536.892 524.997 536.892 518.445 531.597 513.115 525.088 513.115L343.915 513.115Z" fill="#2B478B" fill-rule="evenodd"/><path d="M243.999 462 232.001 462C231.45 462 231 461.535 231 460.968L231 449.032C231 448.464 231.451 448 232.001 448L243.999 448C244.55 448 245 448.465 245 449.032L245 460.968C245.001 461.536 244.55 462 243.999 462Z" fill="#C0D8FB" fill-rule="evenodd"/><path d="M243.07 461 231.93 461C231.418 461 231 460.602 231 460.115L231 449.885C231 449.398 231.418 449 231.93 449L243.07 449C243.582 449 244 449.398 244 449.885L244 460.115C243.999 460.602 243.58 461 243.07 461Z" fill="#DFEBFD" fill-rule="evenodd"/><path d="M238 450.5C238 450.776 237.776 451 237.5 451 237.224 451 237 450.776 237 450.5 237 450.224 237.224 450 237.5 450 237.776 450 238 450.224 238 450.5Z" fill="#B7D3F3" fill-rule="evenodd"/><path d="M240.062 450.257C240.197 450.017 240.5 449.928 240.743 450.063 240.983 450.198 241.072 450.5 240.937 450.743 240.802 450.983 240.5 451.072 240.257 450.937 240.016 450.802 239.93 450.498 240.062 450.257Z" fill="#B7D3F3" fill-rule="evenodd"/><path d="M242.228 452.08C242.46 451.93 242.769 451.997 242.92 452.228 243.07 452.46 243.004 452.769 242.772 452.92 242.54 453.07 242.231 453.004 242.08 452.772 241.93 452.54 241.997 452.231 242.228 452.08Z" fill="#B7D3F3" fill-rule="evenodd"/><path d="M242.5 454C242.777 454 243 454.223 243 454.5 243 454.777 242.777 455 242.5 455 242.223 455 242 454.777 242 454.5 242 454.223 242.223 454 242.5 454Z" fill="#B7D3F3" fill-rule="evenodd"/><path d="M242.854 457.147C243.049 457.342 243.049 457.66 242.854 457.854 242.659 458.049 242.341 458.049 242.146 457.854 241.951 457.66 241.951 457.342 242.146 457.147 242.341 456.951 242.659 456.951 242.854 457.147Z" fill="#B7D3F3" fill-rule="evenodd"/><path d="M240.854 459.146C241.049 459.341 241.049 459.659 240.854 459.854 240.659 460.049 240.341 460.049 240.146 459.854 239.951 459.659 239.951 459.341 240.146 459.146 240.341 458.951 240.659 458.951 240.854 459.146Z" fill="#B7D3F3" fill-rule="evenodd"/><path d="M237 460.5C237 460.223 237.223 460 237.5 460 237.777 460 238 460.223 238 460.5 238 460.777 237.777 461 237.5 461 237.223 461.002 237 460.777 237 460.5Z" fill="#B7D3F3" fill-rule="evenodd"/><path d="M235.937 450.257C235.802 450.017 235.5 449.928 235.257 450.063 235.017 450.198 234.928 450.5 235.063 450.743 235.198 450.983 235.5 451.072 235.742 450.937 235.985 450.802 236.071 450.498 235.937 450.257Z" fill="#B7D3F3" fill-rule="evenodd"/><path d="M233.772 452.08C233.54 451.93 233.231 451.997 233.08 452.228 232.93 452.46 232.997 452.769 233.228 452.92 233.46 453.07 233.769 453.004 233.92 452.772 234.07 452.54 234.004 452.231 233.772 452.08Z" fill="#B7D3F3" fill-rule="evenodd"/><path d="M233 454.5C233 454.776 232.776 455 232.5 455 232.224 455 232 454.776 232 454.5 232 454.224 232.224 454 232.5 454 232.776 454 233 454.224 233 454.5Z" fill="#B7D3F3" fill-rule="evenodd"/><path d="M233.146 457.147C232.951 457.342 232.951 457.66 233.146 457.854 233.341 458.049 233.659 458.049 233.854 457.854 234.049 457.66 234.049 457.342 233.854 457.147 233.657 456.951 233.341 456.951 233.146 457.147Z" fill="#B7D3F3" fill-rule="evenodd"/><path d="M235.146 459.146C234.951 459.341 234.951 459.659 235.146 459.854 235.341 460.049 235.659 460.049 235.854 459.854 236.049 459.659 236.049 459.341 235.854 459.146 235.657 458.951 235.341 458.951 235.146 459.146Z" fill="#B7D3F3" fill-rule="evenodd"/><path d="M239 454.5C239 454.776 238.776 455 238.5 455 238.224 455 238 454.776 238 454.5 238 454.224 238.224 454 238.5 454 238.776 454 239 454.224 239 454.5Z" fill="#B7D3F3" fill-rule="evenodd"/><path d="M238 451 239 451 239 455 238 455Z" fill="#B7D3F3" fill-rule="evenodd"/><path d="M237.835 454.534 239.757 453.025 239.904 453.212 237.982 454.721Z" fill="#B7D3F3" fill-rule="evenodd"/><path d="M379 493 361 493 361 478 379 478Z" fill="#D8702A" fill-rule="evenodd"/><path d="M388 493 370 493 370 478 388 478Z" fill="#FF9E55" fill-rule="evenodd"/><path d="M361 489 364 489 363.736 488.416 364 488 361 488Z" fill="#C15E1B" fill-rule="evenodd"/><path d="M370 483 372 483 371.824 481.834 372 481 370 481Z" fill="#FFB27D" fill-rule="evenodd"/><path d="M370 481 367 481 367.264 482.166 367 483 370 483Z" fill="#C15E1B" fill-rule="evenodd"/><path d="M388 489 385 489 385.264 490.166 385 491 388 491Z" fill="#FFB27D" fill-rule="evenodd"/><path d="M381 479 386 479 386 481 381 481Z" fill="#FFFFFF" fill-rule="evenodd"/><path d="M379.168 491.78C379.62 491.497 380.645 490.875 380.69 491.022 380.723 491.129 380.662 491.307 380.535 491.489 381.148 491.294 381.767 491.174 383.205 491.497 383.493 491.561 383.75 491.731 383.9 491.977 384.038 492.204 384.082 492.483 383.704 492.692 382.947 493.108 383.172 492.85 382.118 493.458 381.063 494.066 379.798 494.184 379.064 493.703L378.061 493.503 378 491.897C378.001 491.897 378.58 491.853 379.168 491.78Z" fill="#FFC299" fill-rule="evenodd"/><path d="M358.994 476.349C356.54 478.121 354 475.713 354 475.713 354 475.713 354.973 472.822 354.365 469.008 354.34 468.853 358.645 470.912 358.774 470.945 358.775 470.945 358.776 470.945 358.776 470.945 358.776 470.945 358.777 470.958 358.78 470.98 358.782 471.004 358.784 471.028 358.788 471.052 358.855 471.724 358.903 472.392 358.934 473.015 359.028 474.878 358.994 476.349 358.994 476.349Z" fill="#FFB27D" fill-rule="evenodd"/><path d="M359 473C357.026 472.819 355.508 471.697 355.004 471.065 354.851 470.874 358.724 471.164 358.839 471.174 358.84 471.174 358.841 471.174 358.841 471.174 358.841 471.174 358.842 471.185 358.845 471.204 358.847 471.22 358.849 471.242 358.853 471.268 358.921 471.861 358.969 472.45 359 473Z" fill="#ED975D" fill-rule="evenodd"/><path d="M359.613 471.244C359.613 471.244 355.429 473.452 354.316 470.321 353.205 467.189 351.915 465.364 354.541 463.823 357.165 462.28 358.112 463.21 358.697 464.149 359.281 465.085 360.673 470.59 359.613 471.244Z" fill="#FFB27D" fill-rule="evenodd"/><path d="M354.389 470.944C354.33 470.998 353.341 471.513 350.609 467.956 350.18 467.397 349.715 466.104 350.22 464.791 350.725 463.477 353.13 462.071 355.198 461.27 356.169 460.894 357.093 460.967 357.801 461.151 358.672 461.376 359.185 462.283 358.938 463.141 358.547 464.498 357.577 465.331 356.349 465.294 355.526 465.269 355.579 466.933 355.594 467.33 355.61 467.727 355.581 468.064 354.546 467.899 353.659 467.758 354.159 468.918 354.457 469.441 354.604 469.699 354.686 469.991 354.668 470.286 354.655 470.516 354.586 470.761 354.389 470.944Z" fill="#2A4E96" fill-rule="evenodd"/><path d="M347.896 547 344.605 547C343.914 547 343.148 546.406 342.956 545.316 342.764 544.226 341.346 543.633 341.04 542.741 340.733 541.849 342.306 540.595 342.306 540.595L342.569 540.303 342.843 540 345.45 540.528C345.45 540.528 345.514 541.062 345.554 541.743 345.581 542.235 345.597 542.802 345.564 543.301 345.487 544.49 345.951 545.77 347.177 546.001 348.403 546.233 347.896 547 347.896 547Z" fill="#2C3A64" fill-rule="evenodd"/><path d="M368 547 360.513 547C360.442 546.987 360.388 546.971 360.354 546.954 359.854 546.708 360.011 544.83 360.072 544.25 360.083 544.143 360.091 544.08 360.091 544.08 360.091 544.08 362.724 542.014 363.086 543.597 363.097 543.646 363.11 543.694 363.124 543.742L363.124 543.744C363.581 545.224 365.624 545.896 366.804 546.083 367.706 546.227 367.94 546.742 368 547Z" fill="#2C3A64" fill-rule="evenodd"/><path d="M366 501.722C366 501.722 365.607 506.937 365.143 513.206 364.514 521.722 363.758 532.181 363.683 534.163 363.554 537.604 363.035 543.108 363.035 543.108 363.035 543.108 361.804 544.415 359.34 543.865 359.34 543.865 357.146 536.008 356.519 527.695 356.509 527.559 356.5 527.421 356.49 527.284 355.907 518.82 355 501 355 501L366 501.722Z" fill="#FF9E55" fill-rule="evenodd"/><path d="M364.996 500.994C363.908 501.058 352.437 500.63 352.434 499.998 352.424 497.801 351.958 494.245 351.377 489.925 351.27 489.119 351.187 488.32 351.125 487.531 350.964 485.475 350.958 483.496 351.112 481.706 351.401 478.384 352.277 476.25 353.737 475 353.737 475 355.111 475.111 356.377 475.3 357.811 475.512 358.34 475.423 359.326 475.152L361.077 476.639C362.124 477.602 362.964 478.607 363.302 479.998 363.301 479.998 365.094 500.987 364.996 500.994Z" fill="#2A4E96" fill-rule="evenodd"/><path d="M353 486C353 486 354.276 489.783 358.533 491.616 362.79 493.448 360.246 488.134 360.246 488.134L353 486Z" fill="#1B407A" fill-rule="evenodd"/><path d="M363.193 480 360.086 480.721 355.809 492.28C355.195 493.94 353.78 494.965 352.006 494.965L352 495.241 352.211 500.75 365.992 502C365.992 502 366.058 495.106 365.81 492.897 365.445 489.628 363.193 480 363.193 480Z" fill="#FF9E55" fill-rule="evenodd"/><path d="M378.986 492.616C379.085 491.695 378.618 491.524 378.618 491.524 378.618 491.524 369.382 489.464 368.6 489.181 367.819 488.899 361.33 481.549 361.33 481.549 361.33 481.549 358.852 478.503 356.705 479.071 354.84 479.564 354.063 480.985 353.764 482.357 353.408 483.99 352.291 484.509 353.672 485.439 356.771 487.524 364.783 492.803 366.264 493.303 369.557 494.417 378.542 493.861 378.542 493.861 378.542 493.861 378.908 493.338 378.986 492.616Z" fill="#2A4E96" fill-rule="evenodd"/><path d="M357.286 477.272C356.533 476.525 354 474.612 354 474.612 354 474.612 354.102 474.43 354.251 474.271 354.397 474.115 354.573 474.002 354.573 474.002 354.895 473.929 357.391 475.934 358.222 476.724 359.224 477.675 362 480.662 362 480.662L360.638 481C360.639 481 358.174 478.151 357.286 477.272Z" fill="#ED823A" fill-rule="evenodd"/><path d="M360 464.377C360 464.377 358.264 465.419 357.622 465.594 357.432 465.646 354.593 466.407 354.593 466.407L350.528 468C350.528 468 349.148 464.834 350.85 462.353L350.85 462.352C350.893 462.29 350.938 462.227 350.985 462.167 351.454 461.551 352.125 460.984 353.07 460.529 357.865 458.223 359.946 464.188 360 464.377Z" fill="#FF9E55" fill-rule="evenodd"/><path d="M358 465.705 357.207 466C356.422 465.158 353.552 462.267 351 462.283 351.011 462.254 351.021 462.231 351.031 462.211L351.031 462.209C351.065 462.139 351.095 462.103 351.141 462 351.15 462 351.159 462.001 351.168 462.003 354.473 462.222 357.33 464.95 358 465.705Z" fill="#E27830" fill-rule="evenodd"/><path d="M355 466C355 466 354.471 466.83 354.426 467.55 354.382 468.269 351.108 469.258 350.809 468.938 350.509 468.62 350 467.752 350 467.752L355 466Z" fill="#FF9E55" fill-rule="evenodd"/><path d="M355 466C355 466 359.897 465.142 361.917 463.423 362.072 463.292 361.997 463.022 361.802 463.009 361.452 462.986 360.865 462.998 359.917 463.145 359.917 463.144 358.431 465.071 355 466Z" fill="#E27830" fill-rule="evenodd"/><path d="M364.981 501.38C364.981 501.38 365.249 504.671 363.763 510.846 362.675 515.377 356.59 528 356.59 528 356.58 527.862 356.57 527.723 356.56 527.584 355.949 519.024 355 501 355 501L364.981 501.38Z" fill="#ED823A" fill-rule="evenodd"/><path d="M365 501.508C365 501.508 357.269 521.564 352.411 530.531 347.554 539.498 346.035 542 346.035 542 346.035 542 343.252 540.854 343 540.071 343 540.071 344.857 522.76 348.111 518.539 349.949 516.155 352.107 508.999 352.21 506.497 352.312 503.995 352.581 498 352.581 498L365 501.508Z" fill="#FF9E55" fill-rule="evenodd"/><path d="M482.891 385.046C483.596 385.35 484.299 385.668 485 386L480.481 385.975 480.48 385.975 479.291 385.97 479.289 385.97 465.407 385.891 464.215 385.886 464.214 385.886 450.331 385.806 449.139 385.802 449.138 385.802 435.254 385.722 434.063 385.717 434.061 385.717 420.178 385.638 418.986 385.633 418.985 385.633 405.102 385.553 403.91 385.548 403.908 385.548 390.026 385.469 388.834 385.464 388.833 385.464 374.95 385.385 373.755 385.378 373.754 385.378 359.872 385.3 358.678 385.294 358.676 385.294 344.794 385.216 343.6 385.209 343.599 385.209 329.719 385.132 328.525 385.125 328.523 385.125 314.641 385.047 313.447 385.041 313.446 385.041 299.564 384.963 298.369 384.956 298.368 384.956 295 384.938C295.299 384.62 295.599 384.306 295.906 384L295.907 384 298.414 384.013 298.415 384.013 313.489 384.101 313.493 384.101 328.566 384.187 328.57 384.187 343.641 384.273 343.645 384.273 358.717 384.359 358.721 384.359 373.794 384.445 373.798 384.445 388.87 384.531 388.874 384.531 403.946 384.617 403.949 384.617 419.022 384.703 419.026 384.703 434.098 384.789 434.102 384.789 449.175 384.875 449.179 384.875 464.251 384.961 464.255 384.961 479.328 385.047 482.891 385.046Z" fill="#C3DAFC" fill-rule="evenodd"/><path d="M497.988 392.109C498.333 392.402 498.669 392.7 499 393L288 391.882C288.186 391.584 288.377 391.289 288.571 391L292.935 391.022 294.132 391.028 308.049 391.101 309.243 391.107 323.16 391.18 323.161 391.18 324.356 391.186 338.272 391.259 338.274 391.259 339.468 391.266 353.385 391.339 353.386 391.339 354.581 391.345 354.582 391.345 368.498 391.418 368.499 391.418 369.694 391.424 369.695 391.424 383.608 391.497 383.609 391.497 384.804 391.503 384.805 391.503 398.72 391.576 398.721 391.576 399.916 391.582 399.917 391.582 413.833 391.655 413.834 391.655 415.029 391.662 415.03 391.662 428.945 391.734 428.947 391.734 430.141 391.741 430.143 391.741 444.055 391.814 444.057 391.814 445.251 391.82 445.253 391.82 459.169 391.894 459.17 391.894 460.364 391.899 460.365 391.899 474.282 391.974 474.283 391.974 475.477 391.978 475.478 391.978 489.394 392.053 489.396 392.053 490.589 392.057 490.59 392.057 497.988 392.109Z" fill="#C3DAFC" fill-rule="evenodd"/><path d="M294 391.432 293.656 392 292.811 391.424 290 389.507C290.144 389.337 290.288 389.168 290.433 389L293.996 391.429 294 391.432Z" fill="#C3DAFC" fill-rule="evenodd"/><path d="M298.128 384.808 298.474 384.27 309.499 391.353 309.153 391.891Z" fill="#C3DAFC" fill-rule="evenodd"/><path d="M313.199 384.874 313.545 384.336 324.569 391.419 324.223 391.957Z" fill="#C3DAFC" fill-rule="evenodd"/><path d="M328.271 384.941 328.617 384.403 339.641 391.485 339.295 392.024Z" fill="#C3DAFC" fill-rule="evenodd"/><path d="M343.341 385.007 343.687 384.469 354.712 391.551 354.366 392.09Z" fill="#C3DAFC" fill-rule="evenodd"/><path d="M358.413 385.074 358.759 384.535 369.783 391.618 369.437 392.156Z" fill="#C3DAFC" fill-rule="evenodd"/><path d="M373.485 385.142 373.831 384.603 384.855 391.686 384.509 392.224Z" fill="#C3DAFC" fill-rule="evenodd"/><path d="M388.555 385.208 388.901 384.669 399.925 391.752 399.58 392.29Z" fill="#C3DAFC" fill-rule="evenodd"/><path d="M403.626 385.276 403.972 384.737 414.996 391.82 414.65 392.358Z" fill="#C3DAFC" fill-rule="evenodd"/><path d="M418.696 385.341 419.042 384.803 430.066 391.886 429.72 392.424Z" fill="#C3DAFC" fill-rule="evenodd"/><path d="M433.768 385.408 434.114 384.87 445.138 391.952 444.792 392.491Z" fill="#C3DAFC" fill-rule="evenodd"/><path d="M448.839 385.475 449.185 384.936 460.209 392.019 459.863 392.558Z" fill="#C3DAFC" fill-rule="evenodd"/><path d="M463.908 385.541 464.254 385.002 475.279 392.085 474.933 392.623Z" fill="#C3DAFC" fill-rule="evenodd"/><path d="M478.981 385.609 479.327 385.07 490.352 392.153 490.006 392.692Z" fill="#C3DAFC" fill-rule="evenodd"/><path d="M416 512 392 512 392 492 416 492Z" fill="#8DB0FF" fill-rule="evenodd"/><path d="M428 512 404 512 404 492 428 492Z" fill="#AEC3FF" fill-rule="evenodd"/><path d="M392 507 396 507 395.648 505.834 396 505 392 505Z" fill="#2A4E96" fill-rule="evenodd"/><path d="M404 498 408 498 407.648 497.417 408 497 404 497Z" fill="#618DC1" fill-rule="evenodd"/><path d="M404 497 400 497 400.352 497.583 400 498 404 498Z" fill="#2A4E96" fill-rule="evenodd"/><path d="M428 507 425 507 425.264 508.166 425 509 428 509Z" fill="#618DC1" fill-rule="evenodd"/><path d="M420 494 427 494 427 496 420 496Z" fill="#FFFFFF" fill-rule="evenodd"/><path d="M471 479C471 479 469.911 485.612 468.719 492.518 467.425 500.025 466.008 507.881 465.742 507.98 465.229 508.169 465.27 506.974 464.918 506.063 464.635 505.329 463.773 499.053 464.056 495.137 464.124 494.182 464.355 482.402 465.887 481.011 467.418 479.62 471 479 471 479Z" fill="#FFB27D" fill-rule="evenodd"/><path d="M464.43 504C464.43 504 464.709 505.219 464.305 506.413 463.901 507.606 463.816 507.948 464.563 508.617 465.311 509.286 466.119 510.228 466.68 509.95 467.241 509.672 466.894 504.207 466.894 504.207L464.43 504Z" fill="#FFB27D" fill-rule="evenodd"/><path d="M465.581 547C466.289 546.571 465.886 543.37 465.886 543.37 465.886 543.37 462.59 540.75 462.136 542.756 461.682 544.763 459.004 545.663 457.48 545.908 456.428 546.078 456.102 546.657 456 546.999L465.581 546.999Z" fill="#2A4E96" fill-rule="evenodd"/><path d="M480.581 547C481.289 546.571 480.886 543.37 480.886 543.37 480.886 543.37 477.59 540.75 477.136 542.756 476.682 544.763 474.004 545.663 472.48 545.908 471.428 546.078 471.102 546.657 471 546.999L480.581 546.999Z" fill="#2A4E96" fill-rule="evenodd"/><path d="M475.491 510.67C474.396 515.578 473.018 521.183 472.479 524.343 472.416 524.71 472.364 525.043 472.327 525.337 472.289 525.633 472.263 525.891 472.253 526.106 471.967 532.024 467.558 545.556 466.77 545.872 465.55 546.36 463.629 545.322 462.623 544.982 462.207 544.84 461.924 544.395 462.018 543.942 464.202 533.292 465.547 518.049 465.839 508.969 465.986 504.395 466.182 501.142 466.182 501.142 466.182 501.142 476.935 498.098 476.999 501.949 477.024 503.441 476.344 506.844 475.491 510.67Z" fill="#FF9843" fill-rule="evenodd"/><path d="M476 510.326C474.766 515.3 473.213 520.98 472.606 524.183 472.535 524.554 472.163 527.7 472.121 528L470 505 473.008 505.264 476 510.326Z" fill="#E27830" fill-rule="evenodd"/><path d="M471 502.6 475.181 544.498C475.181 544.498 478.275 545.461 481.071 544.719 481.071 544.719 482.696 521.812 482.543 516.213 482.391 510.614 483.86 501.229 482.208 500.194 480.557 499.159 471 502.6 471 502.6Z" fill="#FF9843" fill-rule="evenodd"/><path d="M482.189 492.015C482.233 492.504 482.42 501.635 482.431 501.978 482.446 502.357 481.415 503.109 477.776 503.651 476.471 503.845 474.933 503.978 473.163 503.999 468.626 504.049 466.892 502.137 466.892 502.137 466.583 502.143 467.237 499.919 467.342 485.486 467.265 485.486 467.179 485.5 467.105 485.471 465.497 484.846 464 483.537 464 483.537 464 483.537 465.822 478.462 467.545 475.878 467.965 475.248 469.097 474.752 470.604 474.429 471 474.343 471.423 474.27 471.865 474.209 473.919 473.928 476.402 473.919 478.701 474.253 479.101 474.309 479.496 474.376 479.882 474.456 481.584 474.802 483.117 475.358 484.205 476.151 485.806 477.319 487 483.293 487 483.293 487 483.293 485.49 485.01 482.094 485.846 481.916 489.284 481.988 489.751 482.189 492.015Z" fill="#2A4E96" fill-rule="evenodd"/><path d="M466 500.52 467.368 483.663C467.447 482.693 468.287 481.958 469.27 482.002L478.587 482.363C479.354 482.393 479.973 482.996 480.013 483.755 480.127 485.97 480.555 490.269 482.156 491.469L483 503.673 472.588 513C472.588 513 471.405 506.164 469.778 504.265 468.868 503.2 466 500.52 466 500.52Z" fill="#FF9843" fill-rule="evenodd"/><path d="M480 475.18 478.529 483 477 482.834 478.475 475C478.992 475.05 479.502 475.111 480 475.18Z" fill="#FF9843" fill-rule="evenodd"/><path d="M472 475 470.409 482.381 470.276 483 470.133 482.972 469 482.754 470.627 475.204C471.057 475.125 471.519 475.056 472 475Z" fill="#FF9843" fill-rule="evenodd"/><path d="M486.474 492.955C486.474 492.955 485.791 495.072 477.007 498 477.007 498 476.907 495.608 477.441 495.289 479.093 494.3 483.026 491.352 483.162 490.833 483.251 490.489 482.356 487.884 481.222 485.265 483.305 485.029 484.646 484.839 486.181 484 486.751 488.118 487.538 490.999 486.474 492.955Z" fill="#FFB27D" fill-rule="evenodd"/><path d="M476 494.893C476 494.893 475.177 494.331 474.544 494.249 473.911 494.165 472.846 493.806 473.019 494.139 473.192 494.473 474.358 495 474.358 495L476 494.893Z" fill="#FFB27D" fill-rule="evenodd"/><path d="M474.436 498.652 471.635 498.995C471.326 499.034 471.034 498.842 470.944 498.543L469.028 492.171C468.913 491.788 469.169 491.395 469.564 491.348L472.365 491.005C472.674 490.966 472.966 491.158 473.056 491.457L474.972 497.829C475.087 498.212 474.831 498.605 474.436 498.652Z" fill="#233862" fill-rule="evenodd"/><path d="M473.437 498.653 470.636 498.995C470.326 499.033 470.034 498.843 469.945 498.542L468.028 492.17C467.913 491.788 468.169 491.394 468.564 491.347L471.365 491.005C471.674 490.967 471.967 491.157 472.056 491.458L473.973 497.83C474.087 498.211 473.832 498.604 473.437 498.653Z" fill="#192E4F" fill-rule="evenodd"/><path d="M471.853 491.999 471.853 491.999C471.741 492.009 471.621 491.951 471.583 491.87L469.011 486.167C468.973 486.086 469.036 486.011 469.147 486.001L469.147 486.001C469.259 485.991 469.379 486.049 469.416 486.13L471.989 491.833C472.026 491.913 471.965 491.987 471.853 491.999Z" fill="#192E4F" fill-rule="evenodd"/><path d="M478 495.189C478 495.189 477.416 495.47 477.001 495.385 476.658 495.315 476.357 495.29 475.961 495.08 475.543 494.859 474.619 495.151 474.345 495.293 473.58 495.69 471 495.674 471 496.069 471 496.466 472.123 497.58 473.483 497.91 474.842 498.24 477.504 497.557 477.504 497.557L478 495.189Z" fill="#FFB27D" fill-rule="evenodd"/><path d="M477.998 474.214C478.05 475.55 476.796 476.2 474.917 475.946 473.038 475.693 473 474.316 473 474.316L473.046 472.984 473.1 471.409 473.149 470 477.698 470.582C477.683 470.688 477.687 470.937 477.703 471.261L477.703 471.263C477.748 472.108 477.875 473.47 477.998 474.214Z" fill="#FFB27D" fill-rule="evenodd"/><path d="M477 471C477 471 477 471 476.999 471.001 476.962 471.068 476.07 472.623 473 473L473.046 471.169 477 471 477 471Z" fill="#ED975D" fill-rule="evenodd"/><path d="M471.976 471.852C471.976 471.852 477.623 472.813 478.28 469.842 478.936 466.869 480.108 464.993 476.529 464.253 472.952 463.514 471.998 464.537 471.493 465.484 470.987 466.431 470.523 471.525 471.976 471.852Z" fill="#FFB27D" fill-rule="evenodd"/><path d="M477.871 470.983C477.871 470.983 479.781 471.416 479.962 467.918 480.031 466.57 480.365 461.842 476.541 462.004 472.717 462.166 470.974 464.416 470.626 464.81 468.015 467.773 474.367 465.568 475.212 466.256 476.057 466.945 475.252 468.078 476.219 468.485 477.185 468.89 477.951 468.89 477.79 469.781 477.628 470.671 477.871 470.983 477.871 470.983Z" fill="#233862" fill-rule="evenodd"/><path d="M470 465.237C470 465.237 472.052 465.928 472.772 465.978 472.987 465.994 476.17 466.205 476.17 466.205L480.821 467C480.821 467 481.729 463.658 479.454 461.557L479.453 461.556C479.395 461.503 479.337 461.452 479.275 461.4 478.661 460.887 477.837 460.46 476.739 460.193 471.179 458.841 470.024 465.042 470 465.237Z" fill="#FF9E55" fill-rule="evenodd"/><path d="M473 465.877 473.776 466C474.384 465.045 476.631 461.733 479 461.241 478.986 461.216 478.973 461.195 478.96 461.178L478.959 461.177C478.918 461.118 478.885 461.088 478.826 461 478.817 461.003 478.81 461.004 478.801 461.007 475.773 461.87 473.514 465.028 473 465.877Z" fill="#E27830" fill-rule="evenodd"/><path d="M476 466C476 466 476.643 466.628 476.812 467.232 476.98 467.836 480.227 468.199 480.45 467.884 480.673 467.57 481 466.76 481 466.76L476 466Z" fill="#FF9E55" fill-rule="evenodd"/><path d="M476 465.998C476 465.998 470.594 466.106 468.124 464.709 467.937 464.602 467.968 464.302 468.175 464.247 468.546 464.15 469.178 464.042 470.221 464 470.22 464.001 472.154 465.726 476 465.998Z" fill="#E27830" fill-rule="evenodd"/><path d="M200 507 257 507 257 548 200 548Z" fill="#AEC3FF" fill-rule="evenodd"/><path d="M264.667 459 257 459 257 547 270 547 270 503.598 264.667 481.299Z" fill="#AEC3FF" fill-rule="evenodd"/><path d="M265 459 308 459 308 482 265 482Z" fill="#D2E0FF" fill-rule="evenodd"/><path d="M270 504 313 504 313 547 270 547Z" fill="#D2E0FF" fill-rule="evenodd"/><path d="M313 504 270.351 504 265 482 307.647 482Z" fill="#C1D4F7" fill-rule="evenodd"/><path d="M271 486 269.553 486 269 485 270.447 485Z" fill="#AEC3FF" fill-rule="evenodd"/><path d="M273 486 272.277 486 272 485 272.723 485Z" fill="#AEC3FF" fill-rule="evenodd"/><path d="M276 486 274.553 486 274 485 275.447 485Z" fill="#AEC3FF" fill-rule="evenodd"/><path d="M279 486 277.554 486 277 485 278.446 485Z" fill="#AEC3FF" fill-rule="evenodd"/><path d="M281 486 280.276 486 280 485 280.724 485Z" fill="#AEC3FF" fill-rule="evenodd"/><path d="M284 486 282.554 486 282 485 283.446 485Z" fill="#AEC3FF" fill-rule="evenodd"/><path d="M272 489 270.553 489 270 488 271.445 488Z" fill="#AEC3FF" fill-rule="evenodd"/><path d="M274 489 273.276 489 273 488 273.724 488Z" fill="#AEC3FF" fill-rule="evenodd"/><path d="M277 489 275.553 489 275 488 276.447 488Z" fill="#AEC3FF" fill-rule="evenodd"/><path d="M279 489 278.276 489 278 488 278.724 488Z" fill="#AEC3FF" fill-rule="evenodd"/><path d="M282 489 280.553 489 280 488 281.447 488Z" fill="#AEC3FF" fill-rule="evenodd"/><path d="M284 489 283.276 489 283 488 283.724 488Z" fill="#AEC3FF" fill-rule="evenodd"/><path d="M272 492 271.276 492 271 491 271.724 491Z" fill="#AEC3FF" fill-rule="evenodd"/><path d="M275 492 273.554 492 273 491 274.446 491Z" fill="#AEC3FF" fill-rule="evenodd"/><path d="M278 492 276.553 492 276 491 277.447 491Z" fill="#AEC3FF" fill-rule="evenodd"/><path d="M280 492 279.277 492 279 491 279.723 491Z" fill="#AEC3FF" fill-rule="evenodd"/><path d="M283 492 281.553 492 281 491 282.447 491Z" fill="#AEC3FF" fill-rule="evenodd"/><path d="M285 492 284.277 492 284 491 284.723 491Z" fill="#AEC3FF" fill-rule="evenodd"/><path d="M273 495 272.277 495 272 494 272.723 494Z" fill="#AEC3FF" fill-rule="evenodd"/><path d="M276 495 274.553 495 274 494 275.447 494Z" fill="#AEC3FF" fill-rule="evenodd"/><path d="M278 495 277.276 495 277 494 277.724 494Z" fill="#AEC3FF" fill-rule="evenodd"/><path d="M281 495 279.553 495 279 494 280.447 494Z" fill="#AEC3FF" fill-rule="evenodd"/><path d="M284 495 282.553 495 282 494 283.447 494Z" fill="#AEC3FF" fill-rule="evenodd"/><path d="M286 495 285.276 495 285 494 285.724 494Z" fill="#AEC3FF" fill-rule="evenodd"/><path d="M289 486 287.553 486 287 485 288.447 485Z" fill="#AEC3FF" fill-rule="evenodd"/><path d="M291 486 290.276 486 290 485 290.724 485Z" fill="#AEC3FF" fill-rule="evenodd"/><path d="M294 486 292.553 486 292 485 293.447 485Z" fill="#AEC3FF" fill-rule="evenodd"/><path d="M296 486 295.276 486 295 485 295.724 485Z" fill="#AEC3FF" fill-rule="evenodd"/><path d="M299 486 297.553 486 297 485 298.447 485Z" fill="#AEC3FF" fill-rule="evenodd"/><path d="M302 486 300.553 486 300 485 301.447 485Z" fill="#AEC3FF" fill-rule="evenodd"/><path d="M290 489 288.553 489 288 488 289.447 488Z" fill="#AEC3FF" fill-rule="evenodd"/><path d="M292 489 291.277 489 291 488 291.723 488Z" fill="#AEC3FF" fill-rule="evenodd"/><path d="M295 489 293.553 489 293 488 294.447 488Z" fill="#AEC3FF" fill-rule="evenodd"/><path d="M297 489 296.277 489 296 488 296.723 488Z" fill="#AEC3FF" fill-rule="evenodd"/><path d="M300 489 298.553 489 298 488 299.447 488Z" fill="#AEC3FF" fill-rule="evenodd"/><path d="M302 489 301.277 489 301 488 301.723 488Z" fill="#AEC3FF" fill-rule="evenodd"/><path d="M290 492 289.276 492 289 491 289.724 491Z" fill="#AEC3FF" fill-rule="evenodd"/><path d="M293 492 291.553 492 291 491 292.447 491Z" fill="#AEC3FF" fill-rule="evenodd"/><path d="M296 492 294.553 492 294 491 295.447 491Z" fill="#AEC3FF" fill-rule="evenodd"/><path d="M298 492 297.276 492 297 491 297.724 491Z" fill="#AEC3FF" fill-rule="evenodd"/><path d="M301 492 299.553 492 299 491 300.447 491Z" fill="#AEC3FF" fill-rule="evenodd"/><path d="M303 492 302.276 492 302 491 302.724 491Z" fill="#AEC3FF" fill-rule="evenodd"/><path d="M291 495 290.276 495 290 494 290.724 494Z" fill="#AEC3FF" fill-rule="evenodd"/><path d="M294 495 292.554 495 292 494 293.446 494Z" fill="#AEC3FF" fill-rule="evenodd"/><path d="M296 495 295.276 495 295 494 295.724 494Z" fill="#AEC3FF" fill-rule="evenodd"/><path d="M299 495 297.554 495 297 494 298.446 494Z" fill="#AEC3FF" fill-rule="evenodd"/><path d="M301 495 300.276 495 300 494 300.724 494Z" fill="#AEC3FF" fill-rule="evenodd"/><path d="M304 495 302.554 495 302 494 303.446 494Z" fill="#AEC3FF" fill-rule="evenodd"/><path d="M268 467 284 467 284 480 268 480Z" fill="#2B478B" fill-rule="evenodd"/><path d="M283 467 284 467 284 480 283 480Z" fill="#699DEE" fill-rule="evenodd"/><path d="M312 543 273 543 273 527 312 527 312 543ZM273.255 542.746 311.744 542.746 311.744 527.254 273.255 527.254 273.255 542.746Z" fill="#AEC3FF" fill-rule="evenodd"/><path d="M294 463C294 463.552 293.776 464 293.5 464 293.224 464 293 463.552 293 463 293 462.448 293.224 462 293.5 462 293.776 462 294 462.448 294 463Z" fill="#FFFFFF" fill-rule="evenodd"/><path d="M297 463C297 463.552 296.776 464 296.5 464 296.224 464 296 463.552 296 463 296 462.448 296.224 462 296.5 462 296.776 462 297 462.448 297 463Z" fill="#FF9E55" fill-rule="evenodd"/><path d="M300 463C300 463.552 299.552 464 299 464 298.448 464 298 463.552 298 463 298 462.448 298.448 462 299 462 299.552 462 300 462.448 300 463Z" fill="#699DEE" fill-rule="evenodd"/><path d="M303 463C303 463.552 302.552 464 302 464 301.448 464 301 463.552 301 463 301 462.448 301.448 462 302 462 302.552 462 303 462.448 303 463Z" fill="#FFFFFF" fill-rule="evenodd"/><path d="M305 463C305 463.552 304.776 464 304.5 464 304.224 464 304 463.552 304 463 304 462.448 304.224 462 304.5 462 304.776 462 305 462.448 305 463Z" fill="#FF9E55" fill-rule="evenodd"/><path d="M306 477 293 477 293 466 306 466 306 477ZM293.257 476.739 305.74 476.739 305.74 466.258 293.257 466.258 293.257 476.739Z" fill="#AEC3FF" fill-rule="evenodd"/><path d="M272 468 274 468 274 469 272 469Z" fill="#E9F3FE" fill-rule="evenodd"/><path d="M269 468 272 468 272 469 269 469Z" fill="#E9F3FE" fill-rule="evenodd"/><path d="M269 469 273 469 273 470 269 470Z" fill="#E9F3FE" fill-rule="evenodd"/><path d="M274 469 277 469 277 470 274 470Z" fill="#E9F3FE" fill-rule="evenodd"/><path d="M275 468 278 468 278 469 275 469Z" fill="#E9F3FE" fill-rule="evenodd"/><path d="M269 471 272 471 272 472 269 472Z" fill="#E9F3FE" fill-rule="evenodd"/><path d="M269 472 273 472 273 473 269 473Z" fill="#E9F3FE" fill-rule="evenodd"/><path d="M274 472 277 472 277 473 274 473Z" fill="#E9F3FE" fill-rule="evenodd"/><path d="M272 471 274 471 274 472 272 472Z" fill="#E9F3FE" fill-rule="evenodd"/><path d="M275 471 278 471 278 472 275 472Z" fill="#E9F3FE" fill-rule="evenodd"/><path d="M269 474 272 474 272 475 269 475Z" fill="#E9F3FE" fill-rule="evenodd"/><path d="M269 474 273 474 273 475 269 475Z" fill="#E9F3FE" fill-rule="evenodd"/><path d="M274 474 277 474 277 475 274 475Z" fill="#E9F3FE" fill-rule="evenodd"/><path d="M272 474 274 474 274 475 272 475Z" fill="#E9F3FE" fill-rule="evenodd"/><path d="M275 474 278 474 278 475 275 475Z" fill="#E9F3FE" fill-rule="evenodd"/><path d="M269 476 272 476 272 477 269 477Z" fill="#E9F3FE" fill-rule="evenodd"/><path d="M269 477 273 477 273 478 269 478Z" fill="#E9F3FE" fill-rule="evenodd"/><path d="M274 477 277 477 277 478 274 478Z" fill="#E9F3FE" fill-rule="evenodd"/><path d="M272 476 274 476 274 477 272 477Z" fill="#E9F3FE" fill-rule="evenodd"/><path d="M275 476 278 476 278 477 275 477Z" fill="#E9F3FE" fill-rule="evenodd"/><path d="M199 507 270 507 270 509 199 509Z" fill="#D2E0FF" fill-rule="evenodd"/><path d="M215.321 489.15 214.011 505.034C214.011 505.034 213.874 505.998 214.576 505.999 215.732 506.001 220.327 505.999 220.327 505.999 220.327 505.999 219.458 505.799 219.468 505.348 219.48 504.817 221 489 221 489L215.321 489.15Z" fill="#D86713" fill-rule="evenodd"/><path d="M220.318 505.993C220.091 505.993 215.704 506.008 214.58 505.993 214.09 505.987 214.004 505.549 214 505.265 213.998 505.129 214.015 505.029 214.015 505.029L214.049 504.617 214.136 503.565 214.213 502.636 214.311 501.442 214.395 500.434 215.326 489.15 221 489C221 489 220.361 495.617 219.909 500.434 219.858 500.971 219.811 501.486 219.765 501.965 219.751 502.119 219.737 502.269 219.724 502.415 219.682 502.871 219.643 503.289 219.61 503.659 219.592 503.854 219.575 504.035 219.561 504.201 219.503 504.85 219.469 505.265 219.469 505.344 219.469 505.39 219.472 505.433 219.48 505.473 219.572 505.977 220.232 505.993 220.318 505.993Z" fill="#EE9849" fill-rule="evenodd"/><path d="M201 480 204.315 493.727 204.769 495.607 206.313 502 235 502 229.309 480Z" fill="#F1A34F" fill-rule="evenodd"/><path d="M200.476 480 200 480.155 205.365 502 206 501.533Z" fill="#EE9849" fill-rule="evenodd"/><path d="M205 503 234.193 503 235 502 205.626 502Z" fill="#D86713" fill-rule="evenodd"/><path d="M222 507 215 507 215 506 222 506Z" fill="#F1A34F" fill-rule="evenodd"/><path d="M233.661 498 229.006 480.292 201 480.292 201 480 229.36 480 234 497.961Z" fill="#F1A34F" fill-rule="evenodd"/><path d="M220 502 219.967 502.321 214 504 214.082 502.645 214.122 502Z" fill="#D86713" fill-rule="evenodd"/><path d="M221 505.993C220.749 505.993 215.888 506.009 214.642 505.993 214.099 505.986 214.004 505.499 214 505.184L220.161 504C220.097 504.721 220.059 505.181 220.059 505.269 220.059 505.32 220.063 505.367 220.072 505.412 220.173 505.975 220.905 505.993 221 505.993Z" fill="#D86713" fill-rule="evenodd" fill-opacity="0.4"/><path d="M219 497.82 205.637 502 204 496Z" fill="#D86713" fill-rule="evenodd" fill-opacity="0.4"/><path d="M201 480 229.394 480 234 498 205.138 498Z" fill="#AEC3FF" fill-rule="evenodd"/><path d="M232 497 205.838 497 202.874 484.65 202.648 483.702 202.454 482.895 202 481 227.785 481 228.285 482.895 228.497 483.702 228.747 484.65Z" fill="#8AA8ED" fill-rule="evenodd"/><path d="M226 482.862 224.044 483 224 482.138 225.956 482Z" fill="#F9DDBF" fill-rule="evenodd"/><path d="M225 482.89 224.03 483 224 482.099 224.97 482Z" fill="#F9DDBF" fill-rule="evenodd"/><path d="M226 482.89 225.03 483 225 482.099 225.97 482Z" fill="#F9DDBF" fill-rule="evenodd"/><path d="M227 482.931 226.046 483 226 482.069 226.952 482Z" fill="#F9DDBF" fill-rule="evenodd"/><path d="M227 482.911 226.035 483 226 482.09 226.965 482Z" fill="#F9DDBF" fill-rule="evenodd"/><path d="M228 482.91 227.035 483 227 482.09 227.965 482Z" fill="#F9DDBF" fill-rule="evenodd"/><path d="M229 496.862 228.021 497 228 496.138 228.978 496Z" fill="#F9DDBF" fill-rule="evenodd"/><path d="M229 496.89 228.03 497 228 496.11 228.97 496Z" fill="#F9DDBF" fill-rule="evenodd"/><path d="M230 496.901 229.029 497 229 496.11 229.97 496Z" fill="#F9DDBF" fill-rule="evenodd"/><path d="M231 496.932 230.048 497 230 496.068 230.952 496Z" fill="#F9DDBF" fill-rule="evenodd"/><path d="M230 496.911 229.033 497 229 496.089 229.965 496Z" fill="#F9DDBF" fill-rule="evenodd"/><path d="M231 496.9 230.033 497 230 496.089 230.965 496Z" fill="#F9DDBF" fill-rule="evenodd"/><path d="M207 484 204.059 483.974 204 483 206.941 483.027Z" fill="#F9DDBF" fill-rule="evenodd"/><path d="M206 484 204.053 483.979 204 483 205.947 483.021Z" fill="#F9DDBF" fill-rule="evenodd"/><path d="M209 484 206.08 483.979 206 483 208.92 483.021Z" fill="#F9DDBF" fill-rule="evenodd"/><path d="M210 484 209.042 483.989 209 483 209.958 483.016Z" fill="#F9DDBF" fill-rule="evenodd"/><path d="M209 484 207.063 483.979 207 483 208.939 483.016Z" fill="#F9DDBF" fill-rule="evenodd"/><path d="M211 484 210.031 483.984 210 483 210.969 483.016Z" fill="#F9DDBF" fill-rule="evenodd"/><path d="M207 486 204.068 485.979 204 485 206.932 485.027Z" fill="#F9DDBF" fill-rule="evenodd"/><path d="M209 486 207.082 485.984 207 485 208.92 485.011Z" fill="#F9DDBF" fill-rule="evenodd"/><path d="M211 486 209.053 485.979 209 485 210.946 485.021Z" fill="#F9DDBF" fill-rule="evenodd"/><path d="M207 486 205.038 485.969 205 485 206.962 485.026Z" fill="#F9DDBF" fill-rule="evenodd"/><path d="M207 487 205.054 486.979 205 486 206.946 486.021Z" fill="#F9DDBF" fill-rule="evenodd"/><path d="M209 487 207.054 486.979 207 486 208.946 486.021Z" fill="#F9DDBF" fill-rule="evenodd"/><path d="M211 487 210.042 486.989 210 486 210.958 486.011Z" fill="#F9DDBF" fill-rule="evenodd"/><path d="M210 486 208.062 485.984 208 485 209.938 485.021Z" fill="#F9DDBF" fill-rule="evenodd"/><path d="M212 486 210.063 485.984 210 485 211.937 485.016Z" fill="#F9DDBF" fill-rule="evenodd"/><path d="M208 489 205.068 488.974 205 488 207.932 488.026Z" fill="#163560" fill-rule="evenodd"/><path d="M209 489 208.041 488.989 208 488 208.96 488.016Z" fill="#163560" fill-rule="evenodd"/><path d="M212 489 210.053 488.979 210 488 211.946 488.021Z" fill="#163560" fill-rule="evenodd"/><path d="M208 489 205.058 488.974 205 488 207.942 488.027Z" fill="#163560" fill-rule="evenodd"/><path d="M208 490 205.081 489.979 205 489 207.92 489.021Z" fill="#163560" fill-rule="evenodd"/><path d="M210 490 208.054 489.979 208 489 209.946 489.021Z" fill="#163560" fill-rule="evenodd"/><path d="M212 490 210.084 489.989 210 489 211.914 489.016Z" fill="#163560" fill-rule="evenodd"/><path d="M210 489 209.031 488.979 209 488 209.969 488.016Z" fill="#163560" fill-rule="evenodd"/><path d="M213 489 211.062 488.984 211 488 212.938 488.016Z" fill="#163560" fill-rule="evenodd"/><path d="M208 492 206.046 491.974 206 491 207.954 491.021Z" fill="#F9DDBF" fill-rule="evenodd"/><path d="M210 492 209.041 491.989 209 491 209.96 491.016Z" fill="#F9DDBF" fill-rule="evenodd"/><path d="M213 492 211.054 491.979 211 491 212.947 491.021Z" fill="#F9DDBF" fill-rule="evenodd"/><path d="M209 492 206.058 491.974 206 491 208.941 491.032Z" fill="#F9DDBF" fill-rule="evenodd"/><path d="M208 493 206.054 492.979 206 492 207.946 492.021Z" fill="#F9DDBF" fill-rule="evenodd"/><path d="M211 493 208.08 492.979 208 492 210.92 492.021Z" fill="#F9DDBF" fill-rule="evenodd"/><path d="M212 493 211.042 492.984 211 492 211.958 492.016Z" fill="#F9DDBF" fill-rule="evenodd"/><path d="M211 492 209.062 491.984 209 491 210.938 491.016Z" fill="#F9DDBF" fill-rule="evenodd"/><path d="M213 492 212.031 491.984 212 491 212.969 491.021Z" fill="#F9DDBF" fill-rule="evenodd"/><path d="M209 494 206.07 493.974 206 493 208.93 493.026Z" fill="#163560" fill-rule="evenodd"/><path d="M211 494 209.08 493.99 209 493 210.918 493.011Z" fill="#163560" fill-rule="evenodd"/><path d="M213 494 211.054 493.984 211 493 212.947 493.021Z" fill="#163560" fill-rule="evenodd"/><path d="M210 495 207.059 494.974 207 494 209.942 494.027Z" fill="#163560" fill-rule="evenodd"/><path d="M209 496 207.053 495.984 207 495 208.947 495.021Z" fill="#163560" fill-rule="evenodd"/><path d="M211 496 209.053 495.979 209 495 210.947 495.021Z" fill="#163560" fill-rule="evenodd"/><path d="M213 496 212.043 495.989 212 495 212.958 495.016Z" fill="#163560" fill-rule="evenodd"/><path d="M212 495 210.063 494.979 210 494 211.937 494.016Z" fill="#163560" fill-rule="evenodd"/><path d="M214 495 212.062 494.984 212 494 213.938 494.016Z" fill="#163560" fill-rule="evenodd"/><path d="M219 484 216.058 483.974 216 483 218.942 483.027Z" fill="#F1A34F" fill-rule="evenodd"/><path d="M219 484 216.081 483.984 216 483 218.919 483.021Z" fill="#F1A34F" fill-rule="evenodd"/><path d="M221 484 219.054 483.979 219 483 220.946 483.021Z" fill="#F1A34F" fill-rule="evenodd"/><path d="M223 484 221.084 483.989 221 483 222.916 483.016Z" fill="#F1A34F" fill-rule="evenodd"/><path d="M221 484 220.031 483.979 220 483 220.969 483.016Z" fill="#F1A34F" fill-rule="evenodd"/><path d="M224 484 222.063 483.984 222 483 223.937 483.016Z" fill="#F1A34F" fill-rule="evenodd"/><path d="M219 486 217.045 485.979 217 485 218.955 485.027Z" fill="#F1A34F" fill-rule="evenodd"/><path d="M221 486 220.041 485.984 220 485 220.96 485.011Z" fill="#F1A34F" fill-rule="evenodd"/><path d="M224 486 222.053 485.979 222 485 223.946 485.021Z" fill="#F1A34F" fill-rule="evenodd"/><path d="M220 487 217.058 486.969 217 486 219.942 486.026Z" fill="#F1A34F" fill-rule="evenodd"/><path d="M219 487 217.054 486.979 217 486 218.947 486.021Z" fill="#F1A34F" fill-rule="evenodd"/><path d="M221 487 219.054 486.979 219 486 220.946 486.021Z" fill="#F1A34F" fill-rule="evenodd"/><path d="M223 487 222.042 486.989 222 486 222.957 486.011Z" fill="#F1A34F" fill-rule="evenodd"/><path d="M222 487 220.062 486.984 220 486 221.938 486.021Z" fill="#F1A34F" fill-rule="evenodd"/><path d="M224 487 223.031 486.984 223 486 223.969 486.016Z" fill="#F1A34F" fill-rule="evenodd"/><path d="M220 489 217.068 488.974 217 488 219.932 488.027Z" fill="#F9DDBF" fill-rule="evenodd"/><path d="M222 489 220.08 488.989 220 488 221.918 488.016Z" fill="#F9DDBF" fill-rule="evenodd"/><path d="M224 489 222.053 488.979 222 488 223.947 488.021Z" fill="#F9DDBF" fill-rule="evenodd"/><path d="M221 489 218.058 488.974 218 488 220.942 488.026Z" fill="#F9DDBF" fill-rule="evenodd"/><path d="M220 490 218.053 489.979 218 489 219.947 489.021Z" fill="#F9DDBF" fill-rule="evenodd"/><path d="M222 490 220.053 489.979 220 489 221.947 489.021Z" fill="#F9DDBF" fill-rule="evenodd"/><path d="M224 490 223.043 489.989 223 489 223.957 489.016Z" fill="#F9DDBF" fill-rule="evenodd"/><path d="M223 490 221.061 489.979 221 489 222.937 489.016Z" fill="#F9DDBF" fill-rule="evenodd"/><path d="M225 490 223.062 489.984 223 489 224.938 489.016Z" fill="#F9DDBF" fill-rule="evenodd"/><path d="M221 492 218.068 491.974 218 491 220.932 491.021Z" fill="#F9DDBF" fill-rule="evenodd"/><path d="M222 492 221.041 491.989 221 491 221.96 491.016Z" fill="#F9DDBF" fill-rule="evenodd"/><path d="M225 492 223.053 491.979 223 491 224.946 491.021Z" fill="#F9DDBF" fill-rule="evenodd"/><path d="M221 492 218.058 491.974 218 491 220.942 491.032Z" fill="#F9DDBF" fill-rule="evenodd"/><path d="M221 493 218.081 492.979 218 492 220.919 492.021Z" fill="#F9DDBF" fill-rule="evenodd"/><path d="M223 493 221.054 492.979 221 492 222.946 492.021Z" fill="#F9DDBF" fill-rule="evenodd"/><path d="M225 493 223.084 492.984 223 492 224.916 492.016Z" fill="#F9DDBF" fill-rule="evenodd"/><path d="M223 492 222.031 491.984 222 491 222.969 491.016Z" fill="#F9DDBF" fill-rule="evenodd"/><path d="M226 492 224.063 491.984 224 491 225.939 491.021Z" fill="#F9DDBF" fill-rule="evenodd"/><path d="M221 495 219.046 494.979 219 494 220.954 494.027Z" fill="#F9DDBF" fill-rule="evenodd"/><path d="M223 495 222.04 494.989 222 494 222.96 494.011Z" fill="#F9DDBF" fill-rule="evenodd"/><path d="M226 495 224.054 494.984 224 494 225.947 494.021Z" fill="#F9DDBF" fill-rule="evenodd"/><path d="M222 495 219.059 494.974 219 494 221.941 494.026Z" fill="#F9DDBF" fill-rule="evenodd"/><path d="M221 496 219.053 495.984 219 495 220.947 495.021Z" fill="#F9DDBF" fill-rule="evenodd"/><path d="M224 496 221.08 495.979 221 495 223.92 495.021Z" fill="#F9DDBF" fill-rule="evenodd"/><path d="M225 496 224.042 495.989 224 495 224.958 495.016Z" fill="#F9DDBF" fill-rule="evenodd"/><path d="M224 495 222.063 494.979 222 494 223.939 494.016Z" fill="#F9DDBF" fill-rule="evenodd"/><path d="M226 495 225.031 494.984 225 494 225.969 494.016Z" fill="#F9DDBF" fill-rule="evenodd"/><path d="M234 543.207C234 543.207 233.739 546.945 232.952 546.997 232.847 547.004 228.961 546.996 228.961 546.996L224 546.96C224 546.96 224.035 545.862 225.485 545.632 226.936 545.403 229.365 544.472 230.247 542.711 231.178 540.86 234 543.207 234 543.207Z" fill="#0E2C4F" fill-rule="evenodd"/><path d="M248.3 510C248.484 510.16 253.376 515.651 252.977 519.867 252.86 521.107 251.83 522.038 250.628 522.038L244.669 522.038C244.669 522.038 238.588 523.163 238.443 524.525 238.298 525.886 237.054 533.222 234.587 543.648 234.587 543.648 232.77 544.296 231.668 543.833 230.212 543.222 230 542.572 230 542.572 230 542.572 231.47 519.227 232.631 517.584 233.791 515.941 245.745 511.056 249.616 510.57 253.484 510.082 248.3 510 248.3 510Z" fill="#163560" fill-rule="evenodd"/><path d="M213 504.461C213 504.461 209.233 503.424 208.27 504.461 207.307 505.498 207 507 207 507L213 507 213 504.461Z" fill="#FFB27D" fill-rule="evenodd"/><path d="M226 543.207C226 543.207 225.739 546.945 224.952 546.997 224.848 547.004 220.961 546.996 220.961 546.996L216 546.96C216 546.96 216.035 545.862 217.485 545.632 218.935 545.403 221.365 544.472 222.247 542.711 223.178 540.86 226 543.207 226 543.207Z" fill="#163560" fill-rule="evenodd"/><path d="M252.93 510C253.073 510.122 254.163 513.088 254.892 516.455 255.519 519.353 253.337 522.096 250.402 522.096L236.123 522.096C236.123 522.096 229.86 523.227 229.711 524.596 229.562 525.964 228.281 533.336 225.74 543.814 225.74 543.814 223.862 544.312 222.395 543.679 221.616 543.342 221 542.535 221 542.535 221 542.535 222.528 519.272 223.722 517.62 224.918 515.969 237.23 511.06 241.216 510.571 245.204 510.083 252.93 510 252.93 510Z" fill="#2B478B" fill-rule="evenodd"/><path d="M245 489.781 242.781 491.999 239.001 492C238.997 491.684 239.009 490.363 239.023 489.166 239.024 489.095 239.026 489.025 239.026 488.956 239.028 488.69 239.032 488.433 239.035 488.2 239.042 487.54 239.049 487.062 239.049 487.062L240.021 486.37 242.18 484.831 243.348 484C243.349 484.02 243.444 485.108 243.458 485.266 243.717 488.083 245 489.781 245 489.781Z" fill="#FFB27D" fill-rule="evenodd"/><path d="M239.445 489.581C239.515 489.554 243.49 487.864 243.955 488.009 244.42 488.154 245 489.5 245 489.5L238 491C238 490.999 238.551 489.938 239.445 489.581Z" fill="#163560" fill-rule="evenodd"/><path d="M256.943 501.211C256.177 496.457 252.941 492.9 251.557 491.567 250.628 490.161 245.167 489 245.167 489 245.167 489 240.643 490.029 238.084 490.611 238.084 490.611 234.092 491.047 231.841 494.792 230.449 497.108 226.461 502.405 223.842 502.57 221.224 502.735 213 504.34 213 504.34L213 506.375 225.538 506.72C225.691 506.724 225.843 506.713 225.994 506.684 227.073 506.479 231.697 505.555 233.998 504.351 234.365 510.308 234.798 519.404 236.867 520.849 239.054 522.376 254.44 522.581 256.07 520.252 256.904 519.06 255.882 512.003 254.604 505.199 256.192 504.438 257.265 503.203 256.943 501.211Z" fill="#2A4E96" fill-rule="evenodd"/><path d="M243 486 242.792 486.121C242.792 486.121 240.873 487.418 239 488 239.008 487.359 239.015 486.894 239.015 486.894L240.064 486.222 243 486Z" fill="#EAA16E" fill-rule="evenodd"/><path d="M238.187 486.952C238.187 486.952 243.312 487.589 243.64 484.228 243.968 480.867 244.851 478.686 241.593 478.136 238.335 477.587 237.572 478.801 237.204 479.895 236.834 480.988 236.862 486.7 238.187 486.952Z" fill="#FFB27D" fill-rule="evenodd"/><path d="M236.766 479.497C236.766 479.497 237.82 483.238 238.582 482.926 239.345 482.614 240.042 482.359 240.142 483.527 240.242 484.695 239.391 486.223 241.876 485.973 244.361 485.723 246.7 478.82 245.805 477.76 243.221 474.704 233.177 475.848 236.766 479.497Z" fill="#163560" fill-rule="evenodd"/><path d="M233 523 261.07 523C262.137 523 263 522.186 263 521.182L263 520 233 520 233 523Z" fill="#77A4E5" fill-rule="evenodd"/><path d="M229.422 523 250.578 523C251.363 523 252 522.398 252 521.656L252 521.344C252 520.602 251.363 520 250.578 520L229.422 520C228.637 520 228 520.602 228 521.344L228 521.656C228 522.398 228.637 523 229.422 523Z" fill="#F99746" fill-rule="evenodd"/><path d="M247.485 546 249.449 546 250 523 247 523Z" fill="#2B478B" fill-rule="evenodd"/><path d="M239 546 257 546 257 544.675 247.826 544 239 544.675Z" fill="#2B478B" fill-rule="evenodd"/><path d="M258.54 545.012C259.065 545.623 258.996 546.546 258.384 547.072 257.772 547.597 256.85 547.528 256.324 546.916 255.798 546.304 255.868 545.382 256.479 544.856 257.091 544.33 258.014 544.4 258.54 545.012Z" fill="#2B478B" fill-rule="evenodd"/><path d="M241 546C241 545.448 240.328 545 239.5 545 238.672 545 238 545.448 238 546 238 546.552 238.672 547 239.5 547 240.328 547.001 241 546.553 241 546Z" fill="#2B478B" fill-rule="evenodd"/><path d="M240.483 525 256.517 525C257.337 525 258 524.105 258 523L258 523 239 523 239 523C239 524.105 239.663 525 240.483 525Z" fill="#2B478B" fill-rule="evenodd"/><path d="M260.607 523C261.377 523 262 522.379 262 521.612L262 500.248C262 496.245 259.373 493 256.133 493L242.867 493C239.627 493 237 496.245 237 500.248L237 523 260.607 523Z" fill="#F99746" fill-rule="evenodd"/><path d="M260.46 523C261.863 523 263 521.867 263 520.469L263 500.248C263 496.245 260.373 493 257.133 493L243.867 493C240.627 493 238 496.245 238 500.248L238 523 260.46 523Z" fill="#CC6A27" fill-rule="evenodd"/><path d="M531 547 512 547 512 532 531 532Z" fill="#7F9EF4" fill-rule="evenodd"/><path d="M540 547 522 547 522 532 540 532Z" fill="#AEC3FF" fill-rule="evenodd"/><path d="M512 543 515 543 514.736 542.417 515 542 512 542Z" fill="#5D86E2" fill-rule="evenodd"/><path d="M522 537 525 537 524.735 535.833 525 535 522 535Z" fill="#7F9EF4" fill-rule="evenodd"/><path d="M522 535 519 535 519.264 536.167 519 537 522 537Z" fill="#5D86E2" fill-rule="evenodd"/><path d="M540 543 537 543 537.265 544.167 537 545 540 545Z" fill="#7F9EF4" fill-rule="evenodd"/><path d="M534 533 539 533 539 535 534 535Z" fill="#FFFFFF" fill-rule="evenodd"/><path d="M506 547 487 547 487 532 506 532Z" fill="#7F9EF4" fill-rule="evenodd"/><path d="M515 547 496 547 496 532 515 532Z" fill="#D4E4F8" fill-rule="evenodd"/><path d="M487 543 490 543 489.736 542.416 490 542 487 542Z" fill="#2A4E96" fill-rule="evenodd"/><path d="M496 537 499 537 498.736 535.833 499 535 496 535Z" fill="#618DC1" fill-rule="evenodd"/><path d="M496 535 493 535 493.264 536.167 493 537 496 537Z" fill="#2A4E96" fill-rule="evenodd"/><path d="M515 543 512 543 512.264 544.167 512 545 515 545Z" fill="#618DC1" fill-rule="evenodd"/><path d="M508 533 514 533 514 535 508 535Z" fill="#FFFFFF" fill-rule="evenodd"/><path d="M514 532 497 532 497 517 514 517Z" fill="#ED823A" fill-rule="evenodd"/><path d="M523 532 505 532 505 517 523 517Z" fill="#FF9E55" fill-rule="evenodd"/><path d="M497 528 499 528 498.824 527.417 499 527 497 527Z" fill="#DD732C" fill-rule="evenodd"/><path d="M505 522 508 522 507.736 520.834 508 520 505 520Z" fill="#FFB27D" fill-rule="evenodd"/><path d="M505 520 503 520 503.176 521.166 503 522 505 522Z" fill="#DD732C" fill-rule="evenodd"/><path d="M523 528 520 528 520.264 529.167 520 530 523 530Z" fill="#FFB27D" fill-rule="evenodd"/><path d="M517 518 522 518 522 520 517 520Z" fill="#FFFFFF" fill-rule="evenodd"/><path d="M285 471 286 471 286 472 285 472Z" fill="#AEC3FF" fill-rule="evenodd"/><path d="M287 471 288 471 288 472 287 472Z" fill="#AEC3FF" fill-rule="evenodd"/><path d="M289 471 290 471 290 472 289 472Z" fill="#AEC3FF" fill-rule="evenodd"/><path d="M285 472 286 472 286 473 285 473Z" fill="#AEC3FF" fill-rule="evenodd"/><path d="M287 472 288 472 288 473 287 473Z" fill="#AEC3FF" fill-rule="evenodd"/><path d="M289 472 290 472 290 473 289 473Z" fill="#AEC3FF" fill-rule="evenodd"/><path d="M285 474 286 474 286 475 285 475Z" fill="#AEC3FF" fill-rule="evenodd"/><path d="M287 474 288 474 288 475 287 475Z" fill="#AEC3FF" fill-rule="evenodd"/><path d="M289 474 290 474 290 475 289 475Z" fill="#AEC3FF" fill-rule="evenodd"/><path d="M293.645 491.997 294.845 491.796C294.977 491.774 295.035 491.62 294.979 491.431L293.812 487.41C293.741 487.169 293.523 486.975 293.354 487.003L292.155 487.204C292.023 487.226 291.965 487.38 292.021 487.568L293.19 491.59C293.258 491.831 293.476 492.026 293.645 491.997Z" fill="#233862" fill-rule="evenodd"/><path d="M293.647 491.997 294.845 491.796C294.977 491.774 295.035 491.62 294.979 491.432L293.812 487.41C293.741 487.169 293.524 486.975 293.355 487.003L292.155 487.204C292.023 487.226 291.965 487.38 292.021 487.568L293.189 491.59C293.26 491.831 293.477 492.025 293.647 491.997Z" fill="#192E4F" fill-rule="evenodd"/><path d="M292.96 488 292.96 488C292.992 487.995 293.008 487.958 292.996 487.917L292.121 485.066C292.109 485.025 292.072 484.996 292.04 485L292.04 485C292.008 485.005 291.992 485.042 292.004 485.083L292.879 487.934C292.891 487.975 292.927 488.004 292.96 488Z" fill="#192E4F" fill-rule="evenodd"/><path d="M292 475.811C292 475.811 291.166 474.234 290.506 473.65 289.845 473.065 288.099 472.903 288.031 473.052 287.822 473.515 288.723 474.183 288.911 474.607 289.098 475.032 289.017 475.644 289.906 476.144 290.823 476.661 291.355 477 291.355 477L292 475.811Z" fill="#FFB27D" fill-rule="evenodd"/><path d="M291.38 475.728C291.856 475.036 291.998 475 291.998 475 291.998 475 299.873 477.933 300.624 478.178 301.375 478.423 312.61 479.04 312.61 479.04L316 486C316 486 301.029 482.811 299.138 482.155 296.013 481.073 291 476.829 291 476.829 291 476.829 291.007 476.271 291.38 475.728Z" fill="#233862" fill-rule="evenodd"/><path d="M311 543.992C311 543.992 310.82 546.428 310.282 547L302 547C302.052 546.757 302.287 546.157 303.322 546.006 304.631 545.814 306.821 545.041 307.614 543.589 308.447 542.06 311 543.992 311 543.992Z" fill="#163560" fill-rule="evenodd"/><path d="M324.819 543.915C324.819 543.915 325.335 546.939 324.626 546.992 324.532 546.999 321.474 546.998 320.277 546.992 318.787 546.986 316.407 547 316.407 547 316.1 547.01 315.897 546.742 316.055 546.529 316.227 546.296 316.554 546.046 317.181 545.95 318.487 545.748 320.662 544.978 321.424 543.578 322.225 542.104 324.819 543.915 324.819 543.915Z" fill="#163560" fill-rule="evenodd"/><path d="M307 507.747C307 507.747 309.016 514.634 314.795 526.592 320.574 538.55 321.019 544 321.019 544L325 543.817C325 543.817 324.626 529.584 321.897 523.548 319.167 517.513 318.611 501 318.611 501L307 507.747Z" fill="#ED823A" fill-rule="evenodd"/><path d="M304.003 502C304.003 502 303.845 512.525 305.714 525.447 307.584 538.369 306.95 543.855 306.95 543.855L311.427 544C311.427 544 314.103 531.073 313.336 524.604 312.569 518.136 317 502.41 317 502.41L304.003 502Z" fill="#FF9E55" fill-rule="evenodd"/><path d="M313 477.414 310.955 479 308 478.348C308.04 478.066 308.237 476.896 308.414 475.838 308.424 475.776 308.435 475.713 308.445 475.652 308.597 474.751 308.729 473.977 308.729 473.977L311.488 472.537 312.517 472C312.514 472.019 312.437 473 312.426 473.143 312.235 475.687 313 477.414 313 477.414Z" fill="#FFB27D" fill-rule="evenodd"/><path d="M307.955 476.172C308.018 476.142 311.905 474.857 312.327 475.013 312.75 475.169 313 476.084 313 476.084L307 478C306.999 478 307.143 476.555 307.955 476.172Z" fill="#163560" fill-rule="evenodd"/><path d="M318.83 503.387C318.144 506.529 303.811 496.669 304.002 494.751 304.023 494.541 304.043 494.329 304.065 494.118 304.33 491.448 304.583 488.836 304.601 487.13 304.616 485.651 304.818 484.139 305.09 482.764 305.34 481.495 305.646 480.345 305.912 479.448 306.098 478.816 306.449 478.259 306.913 477.823 307.243 477.512 307.629 477.264 308.056 477.093 308.172 477.044 308.291 477.004 308.412 476.968 310.139 476.467 312.526 475.845 313.174 476.035 314.929 476.552 316.231 479.645 317.154 483.59 318.879 490.973 319.279 501.339 318.83 503.387Z" fill="#2A4E96" fill-rule="evenodd"/><path d="M311.919 472.789C311.295 474.26 308.97 475.531 308 476 308.01 475.925 308.022 475.849 308.033 475.775 308.189 474.684 308.324 473.745 308.324 473.745L311.165 472.001C311.794 471.986 312.176 472.182 311.919 472.789Z" fill="#FCA56B" fill-rule="evenodd"/><path d="M306.658 473.594C306.658 473.594 311.924 475.223 312.895 471.955 313.868 468.688 315.201 466.698 311.881 465.52 308.56 464.342 307.533 465.396 306.942 466.409 306.35 467.422 305.314 473.087 306.658 473.594Z" fill="#FFB27D" fill-rule="evenodd"/><path d="M307.463 466.578C307.463 466.578 307.777 469.983 308.52 469.834 309.263 469.686 309.935 469.576 309.826 470.603 309.717 471.629 308.688 472.814 310.976 472.996 313.262 473.177 316.55 467.58 315.922 466.522 314.11 463.465 304.844 462.847 307.463 466.578Z" fill="#163560" fill-rule="evenodd"/><path d="M304.416 501.915C305.855 502.42 304.391 500.525 304.416 500.13 304.528 498.393 303.827 496.197 304.041 494.106L312.832 489C312.832 488.999 314.917 501.835 304.416 501.915Z" fill="#233862" fill-rule="evenodd"/><path d="M318.604 503.598C314.978 510.403 314.399 513 314.399 513 311.242 512.636 305.834 506.354 304.118 504.677 304.118 504.677 303.886 496.947 304.073 495.048L306.694 494.972C306.694 494.972 311.433 496.188 312.662 494.538 313.892 492.888 313.359 484.789 313.359 484.789L316.961 484C318.652 491.309 319.578 501.772 318.604 503.598Z" fill="#FF9E55" fill-rule="evenodd"/><path d="M298 490.608C298 490.608 296.92 490.401 296.639 490.175 296.223 489.839 295.896 489.278 295.694 489.216 295.352 489.112 294.514 488.077 294.444 488.005 294.416 487.976 294.191 488.084 294.245 488.254 294.301 488.426 294.425 488.796 294.47 488.93 294.669 489.518 294.658 489.699 293.943 489.471 293.85 489.441 292.196 488.926 292.026 489.294 291.856 489.662 292.542 491.435 293.404 491.818 294.267 492.2 296.399 491.854 296.553 491.899 297.857 492.269 298 490.608 298 490.608Z" fill="#FFB27D" fill-rule="evenodd"/><path d="M296.549 489.91C296.549 489.91 305.058 491.396 305.812 491.019 307.015 490.418 305.344 481.553 305.344 481.553 305.344 481.553 305.272 479.544 307.558 479.07 309.544 478.659 311.46 480.186 311.46 480.186 311.46 480.186 313.203 481.786 312.98 483.562 312.487 487.499 311.72 495.505 309.155 496.733 305.848 498.316 296.278 492.344 296.278 492.344 296.278 492.344 295.959 491.943 296.004 491.2 296.044 490.542 296.549 489.91 296.549 489.91Z" fill="#2A4E96" fill-rule="evenodd"/><path d="M314 483.852 313.315 484C313.315 484 311.866 477.731 307 477.7 307.317 477.402 307.689 477.163 308.099 477 309.884 477.478 312.979 479.003 314 483.852Z" fill="#FF9E55" fill-rule="evenodd"/><path d="M289.696 474.715C289.696 474.715 288.078 473.66 288.001 474.113 287.964 474.339 288.684 474.955 288.973 475.219 289.262 475.483 290 476 290 476L289.696 474.715Z" fill="#FFB27D" fill-rule="evenodd"/><path d="M551.503 549 180.497 549C180.223 549 180 548.674 180 548.276L180 547.724C180 547.326 180.223 547 180.497 547L551.503 547C551.776 547 552 547.326 552 547.724L552 548.276C552 548.674 551.776 549 551.503 549Z" fill="#2E3552" fill-rule="evenodd"/></g></svg>