<svg width="771.88" height="500" viewBox="0 0 771.88 500" xmlns="http://www.w3.org/2000/svg" xmlns:xlink="http://www.w3.org/1999/xlink" xml:space="preserve" overflow="visible"><defs></defs><g><g><path d="M513.48 29.02C378.74 55.49 442.54 148.51 379.27 167.42 316 186.33 365.17 211.66 365.17 241 365.17 270.34 358.19 240.91 286.76 288.96 215.33 337.01 286.76 411.62 286.76 411.62L750 411.62C750 411.62 750 216.36 750 168.35 750 120.34 664.37 99.73 664.37 99.73 664.37 99.73 645.4 4.37 513.48 29.02Z" fill="#C5F4FF"/><g><path d="M700.96 100.75 630.6 87.7C630.6 87.7 637.12 80.24 628.74 73.72 620.35 67.2 603.11 71.39 603.11 71.39 603.11 71.39 611.5 35.04 585.87 42.03 560.24 49.02 569.09 82.1 569.09 82.1L520.18 94.01 700.96 100.75Z" fill="#FFFFFF"/><path d="M407.99 139.86C407.99 139.86 400.9 107.37 437.53 101.46 474.16 95.55 467.66 142.22 467.66 142.22 467.66 142.22 472.98 135.72 490.7 143.99 508.42 152.26 495.43 165.26 495.43 165.26L569.87 176.48 328.82 176.48 370.76 168.21C370.77 168.22 361.32 135.14 407.99 139.86Z" fill="#FFFFFF"/><path d="M471.41 257.13 415.11 246.69C415.11 246.69 420.33 240.72 413.62 235.51 406.91 230.29 393.11 233.65 393.11 233.65 393.11 233.65 399.82 204.57 379.32 210.16 358.81 215.75 365.9 242.22 365.9 242.22L326.77 251.75 471.41 257.13Z" fill="#FFFFFF"/></g></g><g><defs><rect x="0" y="0" width="750" height="500" id="SVGID_1_"/></defs><clipPath id="SVGID_2_"><use width="100%" height="100%" xlink:href="#SVGID_1_" overflow="visible"></use></clipPath><g clip-path="url(#SVGID_2_)"><g><g><path d="M750.34 392.39C756.34 395.37 760.77 398.67 763.74 402.08 767.51 406.45 768.94 410.99 768.25 415.36 766.26 427.93 746.75 439.07 714.86 439.64 663.11 440.56 436.24 455.39 326.34 442.41 322.36 441.94 318.59 441.48 315 441.02 219.73 428.86 262.53 421.11 262.53 421.11 262.53 421.11 215.73 413.7 251.18 394.23 286.63 374.78 407.16 368.29 407.16 368.29 407.16 368.29 412.1 346.38 525.55 348.84 605.76 350.57 758.52 358.78 771.06 374.25 771.92 375.33 772.13 376.43 771.57 377.57 763.31 394.64 751.07 392.52 750.34 392.39Z" fill="#C17536"/><g><g><path d="M768.24 415.36C766.25 427.93 746.74 439.07 714.85 439.64 663.1 440.56 436.23 455.39 326.33 442.41 322.35 441.94 318.58 441.48 314.99 441.02 334.46 440.15 352.57 437.63 364.02 434.77 386.46 429.17 353.77 396.79 368.63 401.12 383.49 405.44 371.27 417.52 397.03 420.54 422.78 423.55 436.32 422.69 453.48 425.72 470.65 428.74 498.39 435.65 529.42 432.62 539.97 431.59 551.03 431.46 561.02 431.73 561.52 429.67 609.67 423.83 642.35 422.26 678.01 420.53 709.05 423.99 695.51 421.39 681.97 418.81 668.1 419.24 680.32 417.51 692.54 415.78 693.19 414.49 719.28 415.36 735.95 415.92 756.28 416.82 768.24 415.36Z" fill="#AF5D20"/><path d="M771.57 377.56C763.31 394.64 751.07 392.52 750.34 392.39 756.34 395.37 760.77 398.67 763.74 402.08 759.67 401.27 754.91 400.42 749.67 398.96 734.16 394.64 697.83 389.89 710.38 389.03 722.93 388.16 738.11 389.03 729.53 387.3 720.94 385.56 700.48 382.98 709.72 381.68 718.96 380.38 729.86 382.11 751 379.53 761.51 378.23 769.34 376.84 771.08 374.23 771.92 375.31 772.13 376.42 771.57 377.56Z" fill="#AF5D20"/></g><path d="M263.89 391.15C263.26 391.15 249.87 395.53 252.17 399.63 254.47 403.73 265.98 402.64 265.98 402.64 265.98 402.64 253.63 409.75 277.49 410.57 301.35 411.39 297.79 404.55 297.79 404.55 297.79 404.55 316.42 417.68 334.84 410.84 353.26 404 341.54 399.08 341.54 399.08 341.54 399.08 346.35 404.28 361.63 400.17 376.91 396.07 368.33 381.57 338.61 381.84 308.89 382.13 263.89 391.15 263.89 391.15Z" fill="#AF5D20"/><path d="M656.69 411.31C656.69 411.31 653.63 412.03 652.65 412.95 651.67 413.87 656.72 417.72 659.8 416.98 662.89 416.25 669.2 415.7 670.04 414.23 670.88 412.76 665.55 411.11 665.55 411.11L656.69 411.31Z" fill="#AF5D20"/><path d="M652.04 367.05C651.34 367.11 642.22 371.63 642.22 371.63 642.22 371.63 643.9 374.56 651.2 374.56 658.5 374.56 660.46 374.19 662 373.83 663.54 373.46 669.43 371.08 669.57 369.43 669.71 367.78 670.13 365.76 670.13 365.76 670.13 365.76 654.15 366.87 652.04 367.05Z" fill="#AF5D20"/></g></g><g><g><path d="M351.1 382.48C350.63 397.42 335.4 391.2 335.4 391.2 335.4 391.2 329.69 401.16 316.36 399.9 303.03 398.66 300.41 396.18 300.41 396.18 300.41 396.18 285.41 409.54 268.52 396.8 268.52 396.8 261.62 402.7 258.77 393.06 255.91 383.42 263.28 380.32 263.28 380.32 263.28 380.32 258.05 360.1 264.7 350.76 265.88 349.12 267.09 347.98 268.28 347.2 273.88 343.52 279.22 347.96 279.22 347.96 279.22 347.96 279.46 334.6 284.22 331.18 284.63 330.88 285.05 330.64 285.46 330.46 289.7 328.48 293.26 332.1 293.26 332.1 293.26 332.1 297.3 311.88 314.44 313.44 331.56 315 333.95 339.26 333.95 339.26 333.95 339.26 337.53 337.84 341.23 339.9 343.02 340.88 344.84 342.66 346.31 345.8 346.72 346.68 347.01 347.54 347.21 348.4 349.28 357 341.79 364.46 341.79 364.46 341.79 364.46 351.57 367.56 351.1 382.48Z" fill="#306F54"/><path d="M331.05 341.98C331.46 346.56 329.98 348.68 329.98 348.68 327.41 335.12 312.46 337.4 312.46 337.4 317.04 330.18 322.56 333 322.56 333 322.56 333 324.58 316.44 310.7 318.38 296.82 320.32 293.04 337.76 293.04 337.76 290.84 333.2 287.88 331.26 285.48 330.46 289.72 328.48 293.28 332.1 293.28 332.1 293.28 332.1 297.32 311.88 314.46 313.44 331.58 315 333.97 339.26 333.97 339.26 333.97 339.26 337.55 337.84 341.25 339.9 335.49 339.9 331.05 341.98 331.05 341.98Z" fill="#3F8968"/><path d="M351.1 382.48C350.63 397.42 335.4 391.2 335.4 391.2 335.4 391.2 329.69 401.16 316.36 399.9 303.03 398.66 300.41 396.18 300.41 396.18 300.41 396.18 285.41 409.54 268.52 396.8 268.52 396.8 261.62 402.7 258.77 393.06 255.91 383.42 263.28 380.32 263.28 380.32 263.28 380.32 258.05 360.1 264.7 350.76 265.88 349.12 267.09 347.98 268.28 347.2 266.35 353.72 264.71 363.74 269.32 371.18 276.74 383.16 285.72 367.08 285.72 367.08 285.72 367.08 289.24 380.62 299.58 381.12 307.78 381.54 312.31 373.6 313.84 370.3 312.54 373.96 310.15 383.72 319.9 388.02 332 393.38 335.51 373.22 332.59 364.02 332.59 364.02 347.82 361.48 347.23 348.72 347.23 348.62 347.21 348.5 347.21 348.4 349.28 357 341.79 364.46 341.79 364.46 341.79 364.46 351.57 367.56 351.1 382.48Z" fill="#266046"/><g><path d="M286.86 370.36C279.4 369.14 280.2 380.62 287.81 380.31 295.42 380 290.66 370.98 286.86 370.36Z" fill="#59A780"/><path d="M285.19 353.56C280.45 353.56 282.1 359.47 286.14 358.23 290.19 356.98 287.09 353.56 285.19 353.56Z" fill="#59A780"/><path d="M301.13 342.06C296.41 343.55 295.42 352.01 302.8 353.57 310.18 355.12 308.03 339.88 301.13 342.06Z" fill="#59A780"/><path d="M305.65 364.14C301.58 364.14 301.6 374.4 306.36 373.47 311.13 372.54 311.13 364.14 305.65 364.14Z" fill="#59A780"/><path d="M324.45 373.16C317.64 370.28 313.03 383.11 320.64 385.91 328.26 388.71 333.26 376.89 324.45 373.16Z" fill="#59A780"/><path d="M321.36 335.84C316.63 335.11 318.03 343.62 323.26 342.99 328.5 342.37 325.41 336.46 321.36 335.84Z" fill="#59A780"/></g></g></g><g><g><path d="M550.08 354.93C550.08 354.93 534.54 356.42 532.17 362.1 529.8 367.78 550.21 368.74 550.21 368.74 550.21 368.74 536.13 385.21 568.36 383.62 600.59 382.03 592.51 378.53 592.51 378.53 592.51 378.53 609.89 384.25 626.41 378.35 642.92 372.45 632.58 370.63 632.58 370.63 632.58 370.63 658.59 366.07 633.37 360.43 608.16 354.78 566.06 349.68 550.08 354.93Z" fill="#AF5D20"/><path d="M637.57 361.04C636.72 375.36 622.26 368.7 622.26 368.7 622.26 368.7 616.51 378 603.75 376.19 591 374.4 588.55 371.89 588.55 371.89 588.55 371.89 573.8 384.04 557.91 371.03 557.91 371.03 551.13 376.39 548.65 367 546.16 357.62 553.33 354.97 553.33 354.97 553.33 354.97 548.84 335.33 555.48 326.66 558.45 322.8 561.55 321.98 564.08 322.26 567.23 322.59 569.5 324.63 569.5 324.63 569.5 324.63 570.09 311.81 574.74 308.74 576 307.91 577.2 307.63 578.29 307.65 580.22 307.69 581.8 308.69 582.67 309.39 583.14 309.76 583.4 310.05 583.4 310.05 583.4 310.05 583.61 309.15 584.1 307.74 585.89 302.71 591.39 291.31 604.23 293.08 613.72 294.39 618.27 302.79 620.43 309.62 621.98 314.61 622.28 318.76 622.28 318.76 622.28 318.76 625.19 317.76 628.39 319.22 628.87 319.44 629.37 319.73 629.85 320.07 631.35 321.15 632.82 322.87 634 325.59 636.17 330.61 634.66 335.3 632.77 338.58 631.12 341.49 629.16 343.3 629.16 343.3 629.16 343.3 638.42 346.73 637.57 361.04Z" fill="#306F54"/><path d="M578.27 307.65C580.2 307.69 581.78 308.69 582.65 309.39 580.2 312.41 578.98 315.05 578.98 315.05 578.67 312.47 578.42 310 578.27 307.65Z" fill="#3F8968"/><path d="M620.41 309.62C616.97 306.68 612.4 303.82 606.39 301.8 595.93 298.3 588.54 303 584.09 307.74 585.88 302.71 591.38 291.31 604.22 293.08 613.71 294.39 618.26 302.79 620.41 309.62Z" fill="#3F8968"/><path d="M629.83 320.07C629.78 321.39 629.74 322.14 629.74 322.14 629.74 322.14 629.35 321 628.36 319.22 628.85 319.44 629.35 319.73 629.83 320.07Z" fill="#3F8968"/><path d="M637.57 361.04C636.72 375.36 622.26 368.7 622.26 368.7 622.26 368.7 616.51 378 603.75 376.19 591 374.4 588.55 371.89 588.55 371.89 588.55 371.89 573.8 384.04 557.91 371.03 557.91 371.03 551.13 376.39 548.65 367 546.16 357.62 553.33 354.97 553.33 354.97 553.33 354.97 548.84 335.33 555.48 326.66 558.45 322.8 561.55 321.98 564.08 322.26 563.6 326.94 563.71 332.38 565.13 338.28 569.43 356.05 588.64 336.96 588.64 336.96 588.64 336.96 587.66 347.81 600.61 348.42 613.55 349.03 617.84 324.15 617.84 324.15 617.84 324.15 623.12 335.86 632.76 338.59 631.11 341.5 629.15 343.31 629.15 343.31 629.15 343.31 638.42 346.73 637.57 361.04Z" fill="#266046"/><g><path d="M576.2 346.48C569.07 344.97 569.53 356.03 576.85 356.08 584.17 356.13 579.84 347.25 576.2 346.48Z" fill="#59A780"/><path d="M575.05 330.28C570.5 330.06 571.92 335.81 575.84 334.8 579.75 333.79 576.87 330.37 575.05 330.28Z" fill="#59A780"/><path d="M590.66 319.95C586.09 321.16 584.91 329.25 591.95 331.08 599 332.91 597.35 318.18 590.66 319.95Z" fill="#59A780"/><path d="M594.42 341.36C590.51 341.17 590.26 351.03 594.86 350.35 599.45 349.68 599.67 341.61 594.42 341.36Z" fill="#59A780"/><path d="M612.23 350.88C605.77 347.8 601 359.92 608.23 362.95 615.47 365.98 620.58 354.86 612.23 350.88Z" fill="#59A780"/><path d="M610.25 314.9C605.73 313.99 606.84 322.21 611.89 321.86 616.93 321.5 614.12 315.68 610.25 314.9Z" fill="#59A780"/></g></g></g><g><g><g><path d="M316.64 412.97C316.1 412.97 307.8 415.81 309.98 416.17 312.16 416.53 317.19 419.72 323.85 418.48 330.51 417.24 335.81 416.53 335.81 414.75 335.81 412.97 325.07 412.97 323.85 412.8 322.62 412.62 316.64 412.97 316.64 412.97Z" fill="#AF5D20"/><path d="M329.29 416.29C327.17 416.18 324.6 415.83 320.97 415.83 317.34 415.83 315.88 416.75 315.07 415.71 314.62 415.14 314.13 413.43 313.92 411.91 313.76 410.69 313.78 409.58 314.16 409.28 315.02 408.59 320.37 407.44 322.33 407.32 324.3 407.21 325.61 405.49 327.98 405.14 329.84 404.87 331.52 408.46 332.2 410.21 332.39 410.69 332.5 411.04 332.52 411.11 332.92 412.96 331.41 416.41 329.29 416.29Z" fill="#BAB4A6"/><g><path d="M329.29 416.29C327.17 416.18 324.6 415.83 320.97 415.83 317.34 415.83 315.88 416.75 315.07 415.71 314.62 415.14 314.13 413.43 313.92 411.91 314.76 412.39 316.06 412.86 317.69 412.61 320.66 412.14 323.44 411.46 323.64 411.46 323.84 411.46 321.27 413.76 321.27 413.76 321.27 413.76 324.2 415.02 325.35 413.88 326.51 412.73 326.16 410.09 326.81 409.85 327.47 409.62 328.63 411.58 329.84 411.23 330.46 411.05 331.42 410.61 332.2 410.21 332.39 410.69 332.5 411.04 332.52 411.11 332.92 412.96 331.41 416.41 329.29 416.29Z" fill="#A59D88"/></g></g></g><g><g><path d="M669.9 410.29C669.8 411.28 669.35 412.99 666.02 413.52 662.69 414.05 661.23 414.24 660.22 413.98 659.21 413.72 657.7 411.41 657.5 411.21 657.33 411.04 658.29 409.82 658.58 409.47 658.63 409.41 658.66 409.37 658.66 409.37 659.01 409.04 660.49 407.34 662.78 407.14 665.07 406.93 666.28 407.59 667.59 407.92 668.38 408.12 669.1 408.58 669.53 409.13 669.79 409.49 669.94 409.9 669.9 410.29Z" fill="#BAB4A6"/><g><path d="M669.9 410.29C669.8 411.28 669.35 412.99 666.02 413.52 662.69 414.05 661.23 414.24 660.22 413.98 659.21 413.72 657.7 411.41 657.5 411.21 657.33 411.04 658.29 409.82 658.58 409.47 659.04 409.76 659.49 410.04 659.77 410.23 660.58 410.76 664.41 410.1 664.41 410.1L664 411.16C664 411.16 666.62 411.02 667.13 410.7 667.64 410.37 667.99 409.51 668.19 409.45 668.28 409.42 668.88 409.28 669.52 409.15 669.79 409.49 669.94 409.9 669.9 410.29Z" fill="#A59D88"/></g></g></g><g><g><g><path d="M711.86 367.38C711.3 367.38 703.72 368.11 703.3 368.48 702.88 368.85 711.86 372.88 713.54 372.33 715.22 371.78 719.29 373.43 719.29 373.43 719.29 373.43 714.1 375.08 718.03 375.26 721.96 375.44 728.83 375.63 731.78 375.63 734.73 375.63 738.65 376.91 741.6 375.81 744.55 374.71 749.88 371.41 750.58 371.23 750.63 371.22 750.69 371.19 750.75 371.16 752.1 370.5 751.92 368.49 750.51 367.95 746.73 366.49 740.11 364.07 737.95 364.07 734.86 364.08 711.86 367.38 711.86 367.38Z" fill="#AF5D20"/><path d="M742.25 353.82C742.25 353.82 740.07 363.77 739.66 365.52 739.24 367.27 729.12 369.13 729.12 369.13L711.63 365.3C711.63 365.3 710.8 359.19 710.69 356.4 710.67 355.87 710.67 355.46 710.71 355.24 710.96 353.82 712.3 352.61 712.3 352.61 712.3 352.61 711.13 350.97 712.58 349.18 712.63 349.12 712.67 349.06 712.72 349 714.39 347.14 720.17 343.97 724.6 341.89 729.03 339.81 730.88 339.92 732.21 340.58 733.07 341 735.32 342.99 737.21 344.54 738.27 345.41 739.22 346.15 739.73 346.38 741.16 347.04 742.25 353.82 742.25 353.82Z" fill="#BAB4A6"/><g><path d="M723.28 346.44C723.28 346.44 719.2 348.96 717.57 348.57 716.43 348.3 714.07 349.16 712.57 349.18 711.12 350.97 712.29 352.61 712.29 352.61 712.29 352.61 717.27 350.99 718.9 350.21 720.54 349.44 723.28 346.44 723.28 346.44Z" fill="#A59D88"/></g><g><path d="M739.73 346.38C739.22 346.14 738.27 345.41 737.21 344.54 736.01 346.64 734.17 350.11 734.02 351.57 733.8 353.7 730.61 355.06 730.09 355.54 729.57 356.02 728.46 358.83 728.16 359.12 727.86 359.41 724.38 361.06 722.6 362.51 720.82 363.96 719.34 365.9 719.34 365.9 719.34 365.9 715.86 360.96 714.37 359.8 713.33 358.98 711.67 357.36 710.67 356.39 710.78 359.18 711.61 365.29 711.61 365.29L729.1 369.12C729.1 369.12 739.22 367.26 739.64 365.51 740.06 363.76 742.23 353.81 742.23 353.81 742.23 353.81 741.16 347.04 739.73 346.38Z" fill="#A59D88"/></g></g></g><g><g><path d="M721.15 369.95C719.03 369.89 716.46 369.69 712.83 369.69 709.2 369.69 707.74 370.22 706.93 369.62 706.48 369.29 705.99 368.31 705.78 367.44 705.62 366.74 705.64 366.11 706.02 365.93 706.88 365.53 712.23 364.87 714.19 364.81 716.16 364.75 717.47 363.76 719.84 363.56 721.7 363.4 723.38 365.46 724.06 366.47 724.25 366.74 724.36 366.94 724.38 366.99 724.79 368.04 723.27 370.02 721.15 369.95Z" fill="#BAB4A6"/><g><path d="M721.15 369.95C719.03 369.89 716.46 369.69 712.83 369.69 709.2 369.69 707.74 370.22 706.93 369.62 706.48 369.29 705.99 368.31 705.78 367.44 706.62 367.71 707.92 367.99 709.55 367.84 712.52 367.57 715.3 367.18 715.5 367.18 715.7 367.18 713.13 368.5 713.13 368.5 713.13 368.5 716.06 369.22 717.21 368.57 718.37 367.91 718.02 366.4 718.67 366.26 719.33 366.13 720.49 367.25 721.7 367.05 722.32 366.95 723.28 366.69 724.06 366.46 724.25 366.73 724.36 366.93 724.38 366.98 724.79 368.04 723.27 370.02 721.15 369.95Z" fill="#A59D88"/></g></g></g><g><g><path d="M731.01 369.62C730.91 370.61 730.46 372.32 727.13 372.85 723.8 373.38 722.34 373.57 721.33 373.31 720.32 373.05 718.81 370.74 718.61 370.54 718.44 370.37 719.4 369.15 719.69 368.8 719.74 368.74 719.77 368.7 719.77 368.7 720.12 368.37 721.6 366.67 723.89 366.47 726.18 366.26 727.39 366.92 728.7 367.25 729.49 367.45 730.21 367.91 730.64 368.46 730.9 368.83 731.05 369.23 731.01 369.62Z" fill="#BAB4A6"/><g><path d="M731.01 369.62C730.91 370.61 730.46 372.32 727.13 372.85 723.8 373.38 722.34 373.57 721.33 373.31 720.32 373.05 718.81 370.74 718.61 370.54 718.44 370.37 719.4 369.15 719.69 368.8 720.15 369.09 720.6 369.37 720.88 369.56 721.69 370.09 725.52 369.43 725.52 369.43L725.11 370.49C725.11 370.49 727.73 370.35 728.24 370.03 728.75 369.7 729.1 368.84 729.3 368.78 729.39 368.75 729.99 368.61 730.63 368.48 730.9 368.83 731.05 369.23 731.01 369.62Z" fill="#A59D88"/></g></g></g><g><g><path d="M746.44 363.41C746.29 366.31 745.7 368.15 744.96 369.32 744.22 370.48 739.25 372.81 735.92 372.91 732.59 373.01 729.99 371.17 729.99 371.17 729.99 371.17 726.88 365.84 726.88 364.97 726.88 364.89 726.89 364.8 726.91 364.7 727.13 363.68 728.46 361.6 730.28 360.8 732.28 359.93 735.24 355.93 735.47 355.86 737.03 355.38 742.44 356.54 744.29 358.48 745.23 359.46 745.81 359.97 746.13 360.62 746.44 361.23 746.52 361.98 746.44 363.41Z" fill="#BAB4A6"/><g><path d="M738.81 362.82C736.07 362.72 733.7 362.63 733.7 362.63L736.52 365.34C736.52 365.34 731.33 366.99 729.48 366.21 728.59 365.84 727.66 365.23 726.92 364.69 726.9 364.79 726.88 364.88 726.88 364.96 726.88 365.83 729.99 371.16 729.99 371.16 729.99 371.16 732.58 373 735.92 372.9 739.25 372.8 744.22 370.48 744.96 369.32 745.7 368.16 746.29 366.32 746.44 363.41 746.51 361.98 746.44 361.23 746.13 360.61 746.03 360.7 745.95 360.76 745.92 360.79 745.7 360.98 741.55 362.92 738.81 362.82Z" fill="#A59D88"/></g></g></g></g><g><g><path d="M339.21 406.58C338.78 406.65 334.72 409.42 334.72 409.42 334.72 409.42 342.47 411.91 346.01 411.02 349.55 410.13 355.12 407.11 355.12 405.87 355.12 404.62 348.32 404.98 339.21 406.58Z" fill="#AF5D20"/><path d="M352.27 400.49C352.12 403.39 351.53 405.23 350.79 406.4 350.05 407.56 345.08 409.89 341.75 409.99 338.42 410.09 335.82 408.25 335.82 408.25 335.82 408.25 332.71 402.92 332.71 402.05 332.71 401.97 332.72 401.88 332.74 401.78 332.96 400.76 334.29 398.68 336.11 397.88 338.11 397.01 341.07 393.01 341.3 392.94 342.86 392.46 348.27 393.62 350.12 395.56 351.06 396.54 351.64 397.05 351.96 397.7 352.27 398.32 352.35 399.07 352.27 400.49Z" fill="#BAB4A6"/><g><path d="M344.64 399.91C341.9 399.81 339.53 399.72 339.53 399.72L342.35 402.43C342.35 402.43 337.16 404.08 335.31 403.3 334.42 402.93 333.49 402.32 332.75 401.78 332.73 401.88 332.71 401.97 332.71 402.05 332.71 402.92 335.82 408.25 335.82 408.25 335.82 408.25 338.41 410.09 341.75 409.99 345.08 409.89 350.05 407.57 350.79 406.41 351.53 405.25 352.12 403.41 352.27 400.5 352.34 399.07 352.27 398.32 351.96 397.7 351.86 397.79 351.78 397.85 351.75 397.88 351.53 398.07 347.38 400.01 344.64 399.91Z" fill="#A59D88"/></g></g></g><g><g><path d="M670.11 361.12C669.96 364.02 669.37 365.86 668.63 367.03 667.89 368.19 662.92 370.52 659.59 370.62 656.26 370.72 653.66 368.88 653.66 368.88 653.66 368.88 650.55 363.55 650.55 362.68 650.55 362.6 650.56 362.51 650.58 362.41 650.8 361.39 652.13 359.31 653.95 358.51 655.95 357.64 658.91 353.64 659.14 353.57 660.7 353.09 666.11 354.25 667.96 356.19 668.9 357.17 669.48 357.68 669.8 358.33 670.11 358.94 670.18 359.69 670.11 361.12Z" fill="#BAB4A6"/><g><path d="M662.48 360.53C659.74 360.43 657.37 360.34 657.37 360.34L660.19 363.05C660.19 363.05 655 364.7 653.15 363.92 652.26 363.55 651.33 362.94 650.59 362.4 650.57 362.5 650.55 362.59 650.55 362.67 650.55 363.54 653.66 368.87 653.66 368.87 653.66 368.87 656.25 370.71 659.59 370.61 662.92 370.51 667.89 368.19 668.63 367.03 669.37 365.87 669.96 364.03 670.11 361.12 670.18 359.69 670.11 358.94 669.8 358.32 669.7 358.41 669.62 358.47 669.59 358.5 669.37 358.69 665.22 360.63 662.48 360.53Z" fill="#A59D88"/></g></g></g></g></g><g><path d="M616.97 395.83C614.91 395.83 588.68 401.13 600.91 402.9 613.14 404.67 636.12 403.78 655.13 402.02 674.14 400.25 710.97 401.73 712 396.72 713.03 391.71 703.9 390.24 687.98 392.15 672.07 394.07 652.32 395.24 640.68 395.24 629.05 395.24 616.97 395.83 616.97 395.83Z" fill="#AF5D20"/><g><g><g><path d="M627.18 334.05C627.18 334.05 632.7 331.43 643.04 332.26 653.38 333.09 655.34 336.41 655.34 336.41 655.34 336.41 634.9 344.12 627.18 334.05Z" fill="#DD890E"/><path d="M668.88 269.33C668.88 269.33 655.24 320.78 653.33 328.19 651.41 335.62 650.22 341.12 650.22 341.12 650.22 341.12 630.11 348.29 630.36 336.57 630.39 334.78 630.62 331.87 630.98 328.24 632.77 310.61 637.76 275.69 639.1 266.85 639.29 265.59 639.41 264.85 639.44 264.77L668.88 269.33Z" fill="#25596E"/><path d="M668.88 269.33C668.88 269.33 655.24 320.78 653.33 328.19 651.41 335.62 650.22 341.12 650.22 341.12 650.22 341.12 630.11 348.29 630.36 336.57 630.39 334.78 630.62 331.87 630.98 328.24 633.34 329.14 636.78 330.14 640.68 329.84 647.5 329.31 642.6 332.64 641.55 333.7 640.5 334.75 645.92 335.62 650.49 320.39 655.04 305.15 652.58 308.12 645.06 310.57 637.52 313.03 648.92 304.62 654.34 294.46 659.77 284.3 644.89 287.8 639.45 268.19 639.33 267.73 639.22 267.29 639.11 266.86 639.3 265.6 639.42 264.86 639.45 264.78L668.88 269.33Z" fill="#2F6C7F" opacity="0.5"/><path d="M646.62 384.12C646.62 385.56 648.54 392.81 647.1 400.71L607.04 400.71C607.04 400.71 606.78 399.04 607.16 397.42 607.4 396.35 607.92 395.29 608.97 394.74 611.08 393.63 622.91 387.08 627.46 384.55 628.57 383.94 629.25 383.56 629.25 383.56L629.15 381.25 627.18 334.04C627.18 334.04 635.85 336.32 645.48 336.77 648.75 336.91 652.15 336.85 655.34 336.4 655.35 336.41 646.62 382.68 646.62 384.12Z" fill="#EDA024"/><path d="M646.62 384.12C646.62 385.56 648.54 392.81 647.1 400.71L607.04 400.71C607.04 400.71 606.78 399.04 607.16 397.42 613.11 395.87 632.16 393.11 631.71 389.85 631.4 387.51 629.12 385.79 627.46 384.55 628.57 383.94 629.25 383.56 629.25 383.56L629.15 381.25C633.02 379.48 639.23 375.64 642.61 365.83 646.33 355.03 645.84 342.76 645.48 336.77 648.75 336.91 652.15 336.85 655.34 336.4 655.35 336.41 646.62 382.68 646.62 384.12Z" fill="#DD890E"/></g><g><path d="M681.39 337.78 673.94 334.06C673.94 334.06 678.35 331.16 688.28 330.34 698.21 329.51 703.45 332.68 703.45 332.68 703.45 332.68 694.08 343.02 681.39 337.78Z" fill="#DD890E"/><path d="M699.27 336.1C693.54 338.97 680.13 339.69 678.21 336.82 677.83 336.25 676.69 333.15 675.11 328.56 670.68 315.64 662.78 290.89 658.47 277.35 656.65 271.62 655.48 267.9 655.48 267.9 660.26 260.73 689.46 260.48 690.18 264.54 690.9 268.62 690.9 284.89 691.38 288.48 691.58 289.93 692.92 298.07 694.44 307.21 694.83 309.56 695.23 311.98 695.64 314.36 697.49 325.54 699.27 336.1 699.27 336.1Z" fill="#25596E"/><path d="M676.76 276.6C668.89 278.46 662.74 278.16 658.47 277.35 656.65 271.62 655.48 267.9 655.48 267.9 660.26 260.73 689.46 260.48 690.18 264.54 690.9 268.62 690.9 284.89 691.38 288.48 691.58 289.93 692.92 298.07 694.44 307.21 693.6 306.46 692.38 306.23 690.77 306.73 681.84 309.53 675.54 308.48 684.64 296.39 693.75 284.3 693.04 272.74 676.76 276.6Z" fill="#2F6C7F" opacity="0.5"/><path d="M699.27 336.1C693.54 338.97 680.13 339.69 678.21 336.82 677.83 336.25 676.69 333.15 675.11 328.56 677.94 329.84 681.16 330.23 684.63 328.79 690.78 326.26 694.59 319.7 695.62 314.35 697.49 325.54 699.27 336.1 699.27 336.1Z" fill="#CC4729"/><path d="M707.32 396.25 667.18 396.25C667.18 396.25 666.91 394.86 667.15 393.4 667.3 392.56 667.63 391.67 668.28 391.02 669.65 389.65 682.03 384.88 687.75 382.72 689.5 382.05 690.63 381.63 690.63 381.63L673.96 334.06C674.54 334.29 689.53 340.24 703.45 332.67L704.7 381.09C704.7 381.09 707.32 388.11 707.32 396.25Z" fill="#EDA024"/><path d="M707.32 396.25 667.18 396.25C667.18 396.25 666.91 394.86 667.15 393.4 669.72 392.64 672.77 391.81 676.18 390.87 688.61 387.46 688.11 385.42 687.77 382.87 687.77 382.83 687.76 382.77 687.74 382.72 689.49 382.05 690.62 381.63 690.62 381.63L673.95 334.06C674.53 334.29 689.52 340.24 703.44 332.67L704.69 381.09C704.7 381.09 707.32 388.11 707.32 396.25Z" fill="#DD890E"/></g></g><g><g><path d="M691.77 195.28C681.49 196.1 678.13 190.77 678.13 190.77 678.13 190.77 672.47 193.66 665.54 193.31 658.6 192.97 651.78 186.84 651.78 186.84 651.78 186.84 644.27 189.73 633.17 186.49 622.08 183.26 633.06 170.66 633.06 170.66 633.06 170.66 630.86 167.54 632.83 164.76 633.2 164.24 633.67 163.78 634.23 163.35 636.69 161.45 640.45 160.36 640.45 160.36 640.45 160.36 638.83 154.12 642.65 151.46 646.47 148.81 650.16 144.99 650.16 144.99 663.11 114.71 681.95 132.51 681.95 132.51 685.65 138.75 682.06 146.26 685.54 150.66 694.1 161.51 686.34 161.41 694.21 164.64 702.06 167.87 699.64 172.97 699.64 172.97 710.38 181.52 702.05 194.46 691.77 195.28Z" fill="#5D291B"/><path d="M679.18 135.98C679.18 135.98 681.51 141.08 679.71 147 677.91 152.92 680.1 152.28 681.38 154.98 682.67 157.68 679.02 163.36 679.02 163.36 679.02 163.36 680.73 159.61 678.29 157.43 675.85 155.24 675.59 153.57 675.59 150.48 675.59 147.39 673.66 153.05 675.08 156.91 676.5 160.77 675.98 161 674.57 163.84 673.15 166.69 674.96 169.29 674.96 169.29 674.96 169.29 672.26 169.39 672.39 165.91 672.52 162.44 672.95 159.96 672.15 158.68 671.35 157.4 669.83 163.84 671.12 167.33 672.74 171.69 669.41 176.61 669.41 176.61 669.41 176.61 655.58 176.15 655.1 173.93 654.62 171.71 655.83 167.46 654.32 165.79 652.82 164.12 653.07 152.55 653.07 152.55 653.07 152.55 650.46 156.79 650.03 160.39 649.6 163.99 646.5 164.76 646.5 164.76 646.5 164.76 649.65 161.95 648.87 157.63 648.09 153.31 648.3 149.57 653.32 145.33 658.34 141.09 675.44 125.6 679.18 135.98Z" fill="#441A11"/><path d="M691.77 195.28C681.49 196.1 678.13 190.77 678.13 190.77 678.13 190.77 672.47 193.66 665.54 193.31 658.6 192.97 651.78 186.84 651.78 186.84 651.78 186.84 644.27 189.73 633.17 186.49 622.08 183.26 633.06 170.66 633.06 170.66 633.06 170.66 630.86 167.54 632.83 164.76 633.2 164.24 633.67 163.78 634.23 163.35 634.23 163.35 632.78 166.19 636.31 170.35 639.73 174.4 647.34 166 647.72 165.57 647.57 165.83 645.61 169.36 648.54 173.12 651.56 177.03 664.66 170.35 664.66 170.35 664.66 170.35 670.66 175.44 677.29 173.22 683.91 171.01 683.69 167.81 683.69 167.81 683.69 167.81 686.03 169.32 688.61 174.34 691.18 179.37 699.95 181.13 699.64 172.97 710.38 181.52 702.05 194.46 691.77 195.28Z" fill="#441A11"/></g><path d="M644.86 179.47 642.41 178.33C642.41 178.33 635.54 179.15 632.44 189.94 629.33 200.73 616.84 229.82 620.6 238.32 624.36 246.82 633.05 243.78 637.95 224.66 642.85 205.52 644.86 179.47 644.86 179.47Z" fill="#CC4729"/><path d="M635.16 208.6C635.16 208.6 635.97 197.54 639.65 195.24 643.34 192.94 638.5 205.61 638.5 206.64 638.5 207.68 640.8 208.14 640.46 213.55 640.11 218.96 634.93 234.74 633.78 237.28 632.63 239.81 632.86 238.78 632.05 232.21 631.24 225.64 635.16 208.6 635.16 208.6Z" fill="#C13B25"/><g><path d="M694.55 203.17C693.73 216.25 692.25 266.11 692.25 266.11 692.25 266.11 689.94 267.9 684.81 269.63 680.03 271.25 672.79 272.81 662.68 272.81 641.75 272.81 637.51 266.28 637.51 266.28L644.21 223.77C644.21 223.77 638.98 214.61 638.33 209.22 637.68 203.83 642.41 178.33 642.41 178.33L659.74 170.32C667.13 166.57 681.96 174.06 689.14 178.17 691.65 179.62 693.23 180.66 693.23 180.66 693.23 180.66 695.37 190.09 694.55 203.17Z" fill="#DD613B"/><path d="M694.55 203.17C693.73 216.25 692.25 266.11 692.25 266.11 692.25 266.11 689.94 267.9 684.81 269.63 685.29 264.56 685.26 260.34 684.08 259.85 681.76 258.89 673.27 261.39 675.39 258.3 677.51 255.22 676.54 245.56 670.76 245.18 664.97 244.79 658.98 240.74 652.81 242.08 646.63 243.44 640.84 245.56 640.84 245.56L644.21 223.77C644.21 223.77 650.3 221.62 656.48 220.09 662.65 218.54 669.02 225.69 677.13 220.86 685.24 216.02 687.55 186.83 687.55 186.83 687.79 185.68 690.66 183.27 691 182.26 693.51 183.71 693.22 180.65 693.22 180.65 693.22 180.65 695.37 190.09 694.55 203.17Z" fill="#CC4729"/></g><g><g><path d="M673.82 311.45C676.54 304.06 724.63 301.81 724 312.75 723.37 323.69 693.69 321.93 687.19 320.53 680.68 319.12 673.82 311.45 673.82 311.45Z" fill="#403A3A"/><g><g><g><path d="M715.02 296.24C714.65 300.52 712.36 307.06 714.29 314.56 714.32 314.7 714.37 314.84 714.4 314.99 714.4 314.99 714.28 314.85 714.07 314.6 712.14 312.29 702.31 300.54 700.35 296.46 699.54 294.76 699.41 293.33 699.47 291.97 699.58 289.7 700.3 287.66 699.39 285.11 697.95 281.03 696.69 273.91 701.69 266.59 706.51 259.54 708.48 262.05 710.39 269.52 710.45 269.79 710.53 270.06 710.59 270.35 712.57 278.44 710.17 282.26 710.44 285.6 710.71 288.92 715.42 291.88 715.02 296.24Z" fill="#306F54"/><path d="M704.44 269.73C704.44 269.73 701.38 293.19 713.05 311.78 713.05 311.78 702.97 292.45 705.61 270.97 705.61 270.97 705.9 268.67 706.1 267.9 706.3 267.14 704.88 266.71 704.44 269.73Z" fill="#59A780"/><path d="M715.02 296.24C714.65 300.52 712.36 307.06 714.29 314.56 714.22 314.58 714.15 314.59 714.07 314.59 712.14 312.28 702.31 300.53 700.35 296.45 699.54 294.75 699.41 293.32 699.47 291.96 700.27 292.5 701.79 293.59 702.58 293.48 703.68 293.33 702.88 290.11 705.52 286.82 708.18 283.54 705.26 281.28 707.53 276.05 708.69 273.39 709.57 271.19 710.4 269.51 710.46 269.78 710.54 270.05 710.6 270.34 712.58 278.43 710.18 282.25 710.45 285.59 710.71 288.92 715.42 291.88 715.02 296.24Z" fill="#59A780"/></g><g><path d="M725.12 270.54C724.49 279.8 720.66 283.04 719.81 286.68 719.71 287.1 719.68 287.51 719.71 287.94 719.78 291.36 722.74 295.53 721.08 299.54 719.2 304.05 714.44 310.37 714.11 319.24 714.11 319.24 708.56 306 706.31 298.45 705.87 296.98 705.57 295.72 705.43 294.82 704.65 289.28 708.38 287.26 708.23 282.45 708.08 277.64 709.15 269.64 716.91 263.56 724.68 257.48 725.74 261.26 725.12 270.54Z" fill="#306F54"/><path d="M721.07 299.53C719.19 304.04 714.43 310.36 714.1 319.23 714.1 319.23 708.55 305.99 706.3 298.44 707.86 298.66 709.96 298.99 711.53 299.19 714.1 299.49 712.53 295.46 716.63 291.46 717.94 290.19 718.95 288.98 719.7 287.94 719.78 291.36 722.74 295.53 721.07 299.53Z" fill="#59A780"/><path d="M718.76 267.82C718.76 267.82 707.61 291.71 713.74 315.38 713.74 315.38 709.54 291.46 719.58 269.53 719.58 269.53 720.66 267.19 721.14 266.44 721.6 265.69 720.24 264.75 718.76 267.82Z" fill="#59A780"/></g><g><path d="M741.33 282.63C739.25 287.15 736.95 289.73 734.93 291.62 733.15 293.26 731.6 294.42 730.63 295.85 728.56 298.95 730.62 304.77 727.26 308.32 723.9 311.86 717.2 316.08 713.76 324.28 713.76 324.28 713.2 307.97 713.98 300.6 714.06 299.71 714.18 298.96 714.31 298.37 715.54 292.91 719.75 292.34 721.31 287.79 722.88 283.24 726.72 276.14 736.13 273.22 745.55 270.27 745.19 274.19 741.33 282.63Z" fill="#306F54"/><path d="M734.93 291.63C733.15 293.27 731.6 294.43 730.63 295.86 728.56 298.96 730.62 304.78 727.26 308.33 723.9 311.87 717.2 316.09 713.76 324.29 713.76 324.29 713.2 307.98 713.98 300.61 714.56 301.23 715.4 302.07 716.46 303.02 718.71 305.01 720.99 298.62 726.66 295.07 729.53 293.27 732.44 292.35 734.93 291.63Z" fill="#59A780"/><path d="M736.35 277.84C736.35 277.84 717.45 296.22 714.79 320.53 714.79 320.53 719.35 296.68 736.51 279.73 736.51 279.73 738.35 277.92 739.06 277.39 739.77 276.86 738.82 275.51 736.35 277.84Z" fill="#59A780"/></g><g><path d="M758.48 303.22C757.61 303.66 756.79 304.03 756.01 304.34 749.22 307.1 745.08 305.89 741.9 306.9 738.34 308.03 736.33 313.88 731.49 314.56 726.67 315.24 718.78 314.37 710.99 318.64 710.99 318.64 716.47 311.25 721.41 305.33 723.84 302.41 726.12 299.85 727.56 298.69 731.92 295.2 735.57 297.37 739.63 294.78 743.69 292.19 751.11 289.02 760.3 292.59 769.48 296.18 766.76 299.04 758.48 303.22Z" fill="#306F54"/><path d="M756.01 304.35C749.22 307.11 745.08 305.9 741.9 306.91 738.34 308.04 736.33 313.89 731.49 314.57 726.67 315.25 718.78 314.38 710.99 318.65 710.99 318.65 716.47 311.26 721.41 305.34 720.71 306.62 720.12 308.07 720.21 309.12 720.42 311.47 729.06 309.89 735.1 306.92 741.14 303.97 743.76 305.51 751.52 305.05 753.03 304.97 754.54 304.72 756.01 304.35Z" fill="#59A780"/><path d="M757.57 296.37C757.57 296.37 731.34 298.99 714.12 316.35 714.12 316.35 732.54 300.52 756.51 297.95 756.51 297.95 759.08 297.68 759.96 297.71 760.85 297.74 760.96 296.09 757.57 296.37Z" fill="#59A780"/></g></g><g><g><path d="M707.71 305.4C706.06 311.32 700 314.51 694.07 312.87 688.16 311.22 684.62 305.35 686.28 299.42 686.34 299.18 686.42 298.94 686.51 298.72 688.39 293.4 693.72 292.32 699.41 293.91 704.28 295.28 707.9 298.18 708.07 302.48 708.12 303.4 708 304.37 707.71 305.4Z" fill="#EDA024"/><path d="M701.91 295.95C700.53 296.12 702.54 299.18 698.38 298.97 694.23 298.76 700.09 303.41 705.26 302.01 710.43 300.61 703.67 295.74 701.91 295.95Z" fill="#FFB850"/><path d="M707.71 305.4C706.06 311.32 700 314.51 694.07 312.87 688.93 311.43 685.56 306.77 685.9 301.68 685.94 300.93 686.07 300.18 686.28 299.42 686.34 299.18 686.42 298.94 686.51 298.72 687.42 299.79 689.37 301.49 693.32 302.86 699.5 304.99 701.9 302.1 708.07 302.48 708.08 302.63 708.08 302.79 708.07 302.94 708.08 303.72 707.96 304.54 707.71 305.4Z" fill="#FFB850"/><path d="M707.71 305.4C706.06 311.32 700 314.51 694.07 312.87 688.93 311.43 685.56 306.77 685.9 301.68 686.23 302.11 686.78 302.47 687.61 302.57 690.43 302.94 692.22 302.64 694.66 304.44 697.12 306.24 697.15 306.58 700.17 304.91 702.82 303.45 705.39 302.19 708.06 302.94 708.08 303.72 707.96 304.54 707.71 305.4Z" fill="#FFB850"/><g><path d="M698.49 297.06C698.49 297.06 697.44 296.23 696.56 295.73 695.68 295.23 698.86 294.91 700.5 296.1 702.14 297.29 700.37 296.35 698.49 297.06Z" fill="#AF6800"/><path d="M699.17 296.46C699.14 296.58 698.9 296.62 698.63 296.54 698.37 296.47 698.18 296.31 698.22 296.19 698.25 296.07 698.49 296.03 698.76 296.11 699.02 296.18 699.2 296.34 699.17 296.46Z" fill="#331D00"/></g></g><g><path d="M697.76 317.27C696.11 323.18 690.05 326.38 684.13 324.73 678.21 323.08 674.68 317.21 676.34 311.28 676.57 310.43 676.9 309.68 677.3 309.02 679.59 305.07 684.39 304.37 689.44 305.78 693.78 307 697.11 309.41 697.93 312.95 698.23 314.23 698.2 315.68 697.76 317.27Z" fill="#EDA024"/><path d="M690.8 306.95C689.42 307.12 691.43 310.18 687.27 309.97 683.12 309.76 688.98 314.41 694.15 313.01 699.33 311.6 692.57 306.73 690.8 306.95Z" fill="#FFB850"/><path d="M697.76 317.27C696.11 323.18 690.05 326.38 684.13 324.73 678.21 323.08 674.68 317.21 676.34 311.28 676.57 310.43 676.9 309.68 677.3 309.02 678.31 309.83 680.49 310.9 685.21 312.22 692.4 314.23 696.4 313.46 697.93 312.96 698.23 314.23 698.2 315.68 697.76 317.27Z" fill="#FFB850"/><g><path d="M688.54 308.92C688.54 308.92 687.49 308.09 686.61 307.59 685.73 307.09 688.91 306.77 690.55 307.96 692.19 309.15 690.42 308.2 688.54 308.92Z" fill="#AF6800"/><path d="M689.22 308.31C689.19 308.43 688.95 308.47 688.68 308.39 688.42 308.32 688.23 308.16 688.27 308.04 688.3 307.92 688.54 307.88 688.81 307.96 689.07 308.03 689.25 308.19 689.22 308.31Z" fill="#331D00"/></g></g><g><path d="M707.3 325.09C701.17 324.52 696.64 319.38 697.22 313.26 697.32 312.18 697.56 311.21 697.95 310.36 699.68 306.44 704.11 305.03 709.14 305.5 715.25 306.08 719.94 309.21 719.37 315.32 719.36 315.41 719.35 315.5 719.33 315.58 718.65 321.57 713.32 325.66 707.3 325.09Z" fill="#EDA024"/><path d="M713.21 306.86C711.83 307.03 713.84 310.09 709.68 309.88 705.53 309.67 711.39 314.32 716.56 312.92 721.73 311.51 714.97 306.64 713.21 306.86Z" fill="#FFB850"/><path d="M707.3 325.09C701.17 324.52 696.64 319.38 697.22 313.26 697.32 312.18 697.56 311.21 697.95 310.36 698.91 311.65 701.29 313.69 707.28 315.61 714.24 317.85 717.84 316.52 719.33 315.58 718.65 321.57 713.32 325.66 707.3 325.09Z" fill="#FFB850"/><g><path d="M708.81 308.75C708.81 308.75 707.63 308.12 706.67 307.78 705.72 307.44 708.78 306.56 710.61 307.44 712.44 308.32 710.54 307.71 708.81 308.75Z" fill="#AF6800"/><path d="M709.37 308.03C709.36 308.15 709.13 308.23 708.86 308.21 708.59 308.18 708.38 308.06 708.39 307.94 708.4 307.82 708.63 307.74 708.9 307.76 709.17 307.79 709.38 307.91 709.37 308.03Z" fill="#331D00"/></g></g></g></g><path d="M720.69 318C720.69 318 723.07 302.85 714.29 293.91 710.31 289.85 704.01 287.08 694.13 287.59 694.13 287.59 689.76 287.35 685.31 289.87 679.92 292.93 674.42 300.1 676.66 316.79L674.74 316.55C674.74 316.55 670.38 294.76 683.56 287.67 686.13 286.27 689.35 285.44 693.41 285.44 701.51 285.44 707.47 286.49 711.83 288.63 711.83 288.63 711.83 288.63 711.84 288.64 720.9 293.11 723.09 302.4 723.09 317.26L720.69 318Z" fill="#706C6C"/><path d="M674.38 303.27C673.64 309.02 674.37 314.35 674.65 316.02L675.89 316.71 676.66 316.81C676.17 313.16 676.07 309.99 676.24 307.2 675.63 306.19 674.98 304.89 674.38 303.27Z" fill="#544D4D"/><path d="M714.29 293.92C710.31 289.86 704.01 287.09 694.13 287.6 694.13 287.6 689.76 287.36 685.31 289.88 684.86 288.75 684.17 288.09 683.56 287.68 686.13 286.28 689.35 285.45 693.41 285.45 701.51 285.45 707.47 286.5 711.83 288.64 711.83 288.64 711.83 288.64 711.84 288.65 713.58 290.85 714.37 292.87 714.29 293.92Z" fill="#544D4D"/><path d="M724 312.75 723.82 315.79 721.4 357.96C721.4 357.96 720.45 359.88 702.01 361.07 683.59 362.27 676.65 356.76 675.93 356.76 675.78 356.76 675.6 354.89 675.43 351.88 674.7 340.17 673.81 311.44 673.81 311.44 673.81 311.44 681.82 319.44 698.98 319.6 716.15 319.78 724 312.75 724 312.75Z" fill="#706C6C"/><path d="M723.83 315.8 721.41 357.97C721.41 357.97 720.46 359.89 702.02 361.08 683.6 362.28 676.66 356.77 675.94 356.77 675.79 356.77 675.61 354.9 675.44 351.89 702.2 357.49 716.03 345.87 702.13 346.75 687.42 347.69 675.97 339.97 691.85 339.97 707.73 339.97 718.25 332.04 703.99 334.37 689.75 336.71 665.46 328.53 695.83 330.16 712.54 331.07 720.27 323.12 723.83 315.8Z" fill="#544D4D"/></g><g><path d="M689.39 256.13C689.39 256.13 690.53 252.65 699.11 251.41 707.68 250.17 706.47 254.01 706.47 254.01 706.47 254.01 701.35 265.12 689.39 256.13Z" fill="#C1AF91"/><path d="M705.86 247.2C705.67 255.98 705.17 262.35 705.17 262.35L691.83 263.82C691.83 263.82 691.65 260.7 691.39 256.32 690.98 249.46 690.35 239.53 689.83 233.74 688.97 224.26 686.38 211.35 687.24 199.09 688.1 186.84 687.96 181.28 692.55 180.45 697.57 179.57 703.46 203.34 705.18 221.98 705.97 230.53 706.03 239.74 705.86 247.2Z" fill="#DD613B"/><path d="M705.86 247.2C705.67 255.98 705.17 262.35 705.17 262.35L691.83 263.82C691.83 263.82 691.65 260.7 691.39 256.32 693.7 256.28 701.43 255.54 705.86 247.2Z" fill="#CC4729"/><g><path d="M706.79 286.64C706.77 287.16 706.71 287.62 706.61 288.01 705.74 291.61 703.27 291.46 703.27 291.46 703.27 291.46 702.2 293.81 700.41 294.41 698.66 295.01 697.82 293.74 697.82 293.74 697.82 293.74 696.74 296.25 694.96 296.1 693.08 295.96 692.24 295 692.24 295 692.24 295 690.88 298.02 688.82 296.62 688.77 296.59 688.71 296.55 688.67 296.51 688.47 296.35 688.29 295.98 688.15 295.44 687.91 294.54 687.74 293.2 687.64 291.66 687.37 287.54 687.57 282.04 688.1 279.99 688.97 276.73 691.97 274.6 691.97 274.6L689.39 256.14C689.39 256.14 694.27 258.1 699.14 257.61 704.02 257.12 706.46 254.01 706.46 254.01L705.45 273.95C705.46 273.95 707.06 282.29 706.79 286.64Z" fill="#E6D2AF"/><path d="M706.79 286.64C706.77 287.16 706.71 287.62 706.61 288.01 705.74 291.61 703.27 291.46 703.27 291.46 703.27 291.46 702.2 293.81 700.41 294.41 698.66 295.01 697.82 293.74 697.82 293.74 697.82 293.74 696.74 296.25 694.96 296.1 693.08 295.96 692.24 295 692.24 295 692.24 295 690.88 298.02 688.82 296.62 688.48 296.39 688.31 296.13 688.14 295.44 687.9 294.54 687.73 293.2 687.63 291.66 688.2 292.16 689.01 292.64 690.04 292.64 692.25 292.64 692.57 290.56 692.57 290.56 692.57 290.56 693.93 292.27 695.68 291.52 697.43 290.79 697.83 289.09 697.83 289.09 697.83 289.09 699 290.79 700.68 289.97 702.36 289.15 702.36 287.82 702.36 287.82 702.36 287.82 705.28 288.73 706.79 286.64Z" fill="#C1AF91"/></g></g></g><g><g><path d="M653.14 234.53C653.14 234.53 636.13 245.18 625.39 242.89 623.66 242.52 622.47 241.82 621.75 240.9 617.97 236.13 626.35 225.6 632.26 225.93L634.85 226.08 653.19 227.17C659.84 235.35 653.14 234.53 653.14 234.53Z" fill="#DD613B"/><path d="M653.14 234.53C653.14 234.53 636.13 245.18 625.39 242.89 623.66 242.52 622.47 241.82 621.75 240.9 623.16 240.82 624.25 240.14 624.22 238.77 624.15 236.08 625 233.67 625.64 235.94 626.27 238.21 628.26 242.04 628.83 235.44 629.23 230.65 632.84 227.47 634.84 226.09L653.18 227.18C659.84 235.35 653.14 234.53 653.14 234.53Z" fill="#CC4729"/></g><g><g><path d="M655.25 220.49C655.11 222.01 655.02 223.77 654.99 225.85 654.83 238.08 657.14 247.28 657.46 247.28 657.7 247.28 663.72 232.72 665.12 222.78 658.67 223.45 656.02 221.31 655.25 220.49Z" fill="#EAFFCA"/><g><path d="M662.2 222.89C660.41 229.75 659.14 236.89 657.2 233.57 656.42 232.23 655.69 231.12 655.03 230.2 655.36 240.19 657.17 247.27 657.45 247.27 657.69 247.27 663.71 232.71 665.11 222.77 664.04 222.88 663.08 222.92 662.2 222.89Z" fill="#EAEAEA"/></g></g><path d="M665.37 226.4C665.37 226.4 665.89 228.69 665.71 229.74 665.69 229.85 665.66 229.94 665.63 230.01 665.25 230.88 664.37 232.13 664.37 232.13 664.37 232.13 664.55 233.85 664.37 234.66 664.35 234.8 664.31 234.92 664.25 234.99 663.88 235.49 662.51 236.24 662.51 236.24 662.51 236.24 662.64 237.86 661.51 238.35 661.05 238.55 659.71 238.78 657.89 238.81 656.72 238.85 655.34 238.8 653.89 238.62 652.08 238.39 650.14 237.97 648.29 237.23L635.73 244.16C635.73 244.16 632.06 242.57 630.46 237.71 630.08 236.58 629.82 235.27 629.75 233.76 629.35 225.78 636.78 225.62 636.78 225.62L645.43 225.15 650.41 223.9C650.41 223.9 652.21 220.52 653.71 218.89 655.2 217.28 660.01 218.54 660.62 218.79 661.25 219.04 661.5 221.79 661.5 221.79 661.5 221.79 663.87 222.04 665.49 223.15 665.96 223.48 666.14 223.89 666.17 224.3 666.25 225.34 665.37 226.4 665.37 226.4Z" fill="#E6D2AF"/><g><g><g><path d="M662.8 210.07C662.32 205.18 665.08 189.04 660.57 197.02 656.06 205 660.06 217.55 660.06 217.55 660.06 217.55 663.28 214.97 662.8 210.07Z" fill="#306F54"/><path d="M661.37 199.38C659.27 204.96 660.3 216.22 660.31 215.87 660.42 208.19 661.37 199.38 661.37 199.38Z" fill="#59A780"/></g><g><path d="M664.44 212.18C664.91 208.19 669.89 196.31 664.95 201.24 660.01 206.17 660.98 217.24 660.98 217.24 660.98 217.24 663.97 216.17 664.44 212.18Z" fill="#306F54"/><path d="M661.47 215.99C662.89 209.98 665.17 203.33 665.17 203.33 662.55 207.09 661.4 216.27 661.47 215.99Z" fill="#59A780"/></g></g><path d="M665.17 223.44C665.35 222.15 665.46 220.93 665.46 219.84 665.46 218.65 665.15 217.48 664.57 216.58 664.56 216.57 664.55 216.55 664.54 216.54 662.77 213.89 659.32 212.5 656.38 216.94 655.9 217.66 655.6 218.56 655.48 219.51 655.42 220.02 655.36 220.58 655.31 221.16 656.07 221.98 658.72 224.12 665.17 223.44Z" fill="#EAFFCA"/><path d="M665.17 223.44C665.35 222.15 665.46 220.93 665.46 219.84 665.46 218.64 665.15 217.46 664.55 216.56 664.55 216.55 664.54 216.55 664.54 216.54 663.66 218.46 662.92 220.99 662.25 223.56 663.13 223.58 664.09 223.55 665.17 223.44Z" fill="#EAEAEA"/></g><g><g><path d="M651.16 236.91C652.1 237.49 653.06 238.11 653.9 238.63 652.09 238.4 650.15 237.98 648.3 237.24L635.74 244.17C635.74 244.17 632.07 242.58 630.47 237.72 636.29 239.06 641.14 238.32 642.58 236.13 644.22 233.65 642.86 232.69 644.05 232.63 645.24 232.57 645.91 235.33 646.53 234.33 647.15 233.31 646.53 232.02 647.21 232.63 647.89 233.25 648.91 235.51 651.16 236.91Z" fill="#C1AF91"/><path d="M664.01 234.84C664.13 234.8 664.25 234.76 664.38 234.67 664.36 234.81 664.32 234.93 664.26 235 663.89 235.5 662.52 236.25 662.52 236.25 662.52 236.25 662.65 237.87 661.52 238.36 661.06 238.56 659.72 238.79 657.9 238.82 658.66 238.27 659.42 237.54 659.56 236.8 659.84 235.33 659.39 235.16 659.39 235.16 659.39 235.16 662.82 235.17 664.01 234.84Z" fill="#C1AF91"/><path d="M665.19 230.04C665.38 229.93 665.56 229.83 665.71 229.74 665.69 229.85 665.66 229.94 665.63 230.01 665.25 230.88 664.37 232.13 664.37 232.13 662.48 232.49 660.06 231.55 660.06 231.55 660.06 231.55 663.39 231.05 665.19 230.04Z" fill="#C1AF91"/><path d="M660.12 227.16C660.12 227.16 662.37 226.71 664.41 225.7 665.41 225.2 665.9 224.7 666.18 224.31 666.25 225.33 665.37 226.4 665.37 226.4 662.56 227.34 660.12 227.16 660.12 227.16Z" fill="#C1AF91"/></g></g></g></g><g><path d="M671.12 173.25C671.12 173.25 666.94 183.89 659.17 184.85 651.4 185.81 655.33 173.15 655.33 173.15 655.4 172.47 655.44 171.81 655.48 171.15 655.74 166.34 655.36 162.7 655.51 162.32L669.73 153.5C669.57 156.01 669.65 158.85 669.81 161.57 670.19 167.7 671.12 173.25 671.12 173.25Z" fill="#FFB78F"/><path d="M669.8 161.58C668.2 165.72 664.39 170.33 655.47 171.16 655.73 166.35 655.35 162.71 655.5 162.33L669.72 153.51C669.56 156.02 669.64 158.86 669.8 161.58Z" fill="#DD7957"/><path d="M660.21 121.54C650.27 121.54 647.73 128.59 647.73 142.69 647.73 156.79 648.42 163.84 657.21 163.84 666 163.84 670.27 157.37 671.43 151.59 672.58 145.81 678.82 121.54 660.21 121.54Z" fill="#FFB78F"/><g><path d="M663.06 154.85C663.06 154.85 662.75 155.2 662.23 155.71 661.5 156.42 660.34 157.41 659.02 158.06 657.4 158.89 655.56 159.24 653.94 158.03 653.29 157.55 652.69 156.85 652.15 155.82 652 155.53 651.85 155.24 651.72 154.91 651.72 154.91 657.36 156.77 663.06 154.85Z" fill="#5D291B"/><path d="M663.06 154.85C663.06 154.85 662.75 155.2 662.23 155.71 660.97 156.27 659.08 156.85 656.85 156.82 654.51 156.79 653.02 156.28 652.15 155.81 652 155.52 651.85 155.23 651.72 154.9 651.72 154.91 657.36 156.77 663.06 154.85Z" fill="#FEFEFE"/><path d="M659.03 158.06C657.41 158.89 655.57 159.24 653.95 158.03 656.03 156.77 657.87 157.37 659.03 158.06Z" fill="#FF6652"/></g><g><path d="M662.24 143.81C662.24 145.2 661.41 146.32 660.38 146.32 659.35 146.32 658.52 145.2 658.52 143.81 658.52 142.42 659.35 141.3 660.38 141.3 661.4 141.3 662.24 142.42 662.24 143.81Z" fill="#5D291B"/><path d="M661.32 142.95C661.32 143.36 661.05 143.7 660.71 143.7 660.37 143.7 660.1 143.37 660.1 142.95 660.1 142.53 660.37 142.2 660.71 142.2 661.05 142.2 661.32 142.54 661.32 142.95Z" fill="#FEFEFE"/></g><g><ellipse cx="651.2" cy="143.81" rx="1.86" ry="2.51" fill="#5D291B"/><path d="M652.14 142.95C652.14 143.36 651.87 143.7 651.53 143.7 651.19 143.7 650.92 143.37 650.92 142.95 650.92 142.53 651.19 142.2 651.53 142.2 651.87 142.2 652.14 142.54 652.14 142.95Z" fill="#FEFEFE"/></g><path d="M653.55 143.6C653.55 143.6 654.54 145.77 653.55 148.31 652.56 150.85 651.04 152.68 653.22 153.13 654.62 153.42 655.72 153.06 655.72 153.06 655.72 153.06 653.16 153.13 652.92 151.93 652.67 150.62 655.87 147.54 653.55 143.6Z" fill="#5D291B"/><path d="M648.48 139.39C648.48 139.39 650.79 137.97 652.98 140.87 652.98 140.87 652.32 135.3 648.48 139.39Z" fill="#5D291B"/><path d="M665.94 139.39C665.94 139.39 661.41 137.97 657.12 140.87 657.12 140.87 658.4 135.3 665.94 139.39Z" fill="#5D291B"/><path d="M683.66 131.45C683.48 134.02 682.56 136.78 680.79 139.57 674.77 149.05 672 147.78 672 147.78L670.26 142.47C670.26 142.47 665.75 141.37 661.23 138.53 659.53 137.47 657.83 136.17 656.39 134.58 656.29 134.5 656.25 134.46 656.25 134.46 654.19 132.18 652.61 129.34 652.23 125.82 648.14 127.16 645.86 125.81 645.86 125.81 645.55 129.59 646.81 132.3 646.81 132.3 646.73 135.17 644.85 134.15 644.85 134.15 641.1 132.03 641.09 127.34 641.09 127.34 639.83 132.98 642.69 137 644.58 138.97 642.11 137.31 639.08 134.12 639.28 128.48 639.63 119.01 646.68 120.4 646.68 120.4 646.68 120.4 649.25 119.16 654.11 117.63 657.94 116.43 661.58 117.85 661.58 117.85 661.58 117.85 666.58 115.45 673.14 117.74 680.15 120.17 684.06 125.31 683.66 131.45Z" fill="#5D291B"/><path d="M683.66 131.45C683.48 134.02 682.56 136.78 680.79 139.57 674.77 149.05 672 147.78 672 147.78L670.26 142.47C670.26 142.47 665.75 141.37 661.23 138.53 659.53 137.47 657.83 136.17 656.39 134.58 657.04 135.15 660 137.43 666.12 137.88 666.12 137.88 663.77 135.19 662.21 131.7 662.54 132.05 667.86 137.64 673.36 138.23 679.04 138.84 669.43 129.85 669.43 129.85 669.43 129.85 674.05 130.54 677.28 134.74 680.51 138.92 682.52 131.71 678.79 125.81 679.04 125.9 682.07 127.28 683.66 131.45Z" fill="#441A11"/><path d="M652.24 125.81C652.24 125.81 647.84 129.64 647.72 140.51 647.72 140.51 646.28 140.09 644.6 138.96 642.71 136.99 639.85 132.97 641.11 127.33 641.11 127.33 641.12 132.02 644.87 134.14 644.87 134.14 646.74 135.16 646.83 132.29 646.83 132.29 645.57 129.57 645.88 125.8 645.86 125.79 648.15 127.15 652.24 125.81Z" fill="#5D291B"/><path d="M652.24 125.81C652.24 125.81 647.84 129.64 647.72 140.51 647.72 140.51 646.28 140.09 644.6 138.96 642.71 136.99 639.85 132.97 641.11 127.33 641.11 127.33 641.12 132.02 644.87 134.14 644.87 134.14 646.74 135.16 646.83 132.29 646.83 132.29 645.57 129.57 645.88 125.8 645.86 125.79 648.15 127.15 652.24 125.81Z" fill="#441A11"/><g><path d="M671.73 144.7C671.64 144.44 673.3 142.43 675.92 142.95 678.54 143.47 677.75 154.65 670.42 153.6L671.73 144.7Z" fill="#FFB78F"/><path d="M671.83 149.19C671.83 149.19 672.53 145.4 674.51 144.97 676.49 144.54 676.84 146.84 676.84 146.84 676.84 146.84 675.01 152.78 672.21 152.49 672.21 152.49 673.48 151.1 673.03 150.06 672.59 149.03 671.83 149.19 671.83 149.19Z" fill="#DD7957"/><path d="M672.21 152.49C672.21 152.49 673.39 151.28 673.14 150.38 672.9 149.49 671.61 149.47 671.61 149.47 671.61 149.47 671.8 145.2 674.35 144.58 676.9 143.96 676.83 146.84 676.83 146.84 676.83 146.84 676.37 144.74 674.61 145.12 672.85 145.49 672.56 148.92 672.56 148.92 672.56 148.92 675.62 150 672.21 152.49Z" fill="#5D291B"/></g></g></g></g></g><g><g><path d="M519.86 404.77C519.27 404.62 481.55 406.98 486.12 410.52 490.69 414.06 512.64 413.17 533.12 413.17 553.6 413.17 552.13 413.17 572.9 413.17 593.67 413.17 613.71 407.13 613.57 406.54 613.42 405.95 610.62 404.18 588.82 404.33 567.01 404.48 565.69 404.92 553.75 404.92 541.81 404.92 519.86 404.77 519.86 404.77Z" fill="#AF5D20"/><g><g><path d="M547.08 176.22C546.88 181.82 537.33 230.61 534.62 240.79 531.93 250.96 525.27 258.64 523.21 261.13 521.13 263.63 517.18 277.32 507.22 276.09 500.36 275.23 498.21 269.45 498.57 264.64 498.73 262.47 499.4 260.5 500.38 259.27 503.49 255.33 512.42 240.37 512.42 240.37 512.42 240.37 514.08 238.29 514.28 236.43 514.5 234.56 517.81 232.07 517.81 232.07 517.81 232.07 523.62 207.78 528.81 193.04 532.07 183.76 536.66 179.25 539.61 177.19 541.35 175.97 542.52 175.6 542.52 175.6L547.08 176.22Z" fill="#533E3D"/><path d="M547.08 176.22C546.88 181.82 537.33 230.61 534.62 240.79 531.93 250.96 525.27 258.64 523.21 261.13 521.13 263.63 517.18 277.32 507.22 276.09 500.36 275.23 498.21 269.45 498.57 264.64 510.32 254.94 514.64 267.03 516.5 260.39 518.4 253.61 515.02 244.07 517.56 241.96 520.1 239.84 522.86 244.5 522.22 239.41 521.6 234.33 518.4 235.17 519.9 233.91 521.38 232.63 523.92 235.61 526.46 225.64 529.01 215.68 538.75 182.4 538.75 182.4 538.98 180.42 539.27 178.69 539.61 177.21 541.35 175.99 542.52 175.62 542.52 175.62L547.08 176.22Z" fill="#4C3434"/></g><g><path d="M508.6 266.37C504.5 264.21 498.89 268.53 494.15 274.14 489.4 279.75 495.23 284.93 497.6 287.08 499.97 289.24 505.58 287.94 506.88 284.92 508.17 281.9 514.49 278.69 513.35 271.11 512.7 266.8 508.6 266.37 508.6 266.37Z" fill="#DD7957"/></g></g><g><path d="M546.87 347.91C546.87 347.91 544.38 343.34 531.09 343.34 517.8 343.34 514.69 345.21 514.69 345.21 514.69 345.21 514.48 354.14 529.22 354.76 543.97 355.39 546.87 347.91 546.87 347.91Z" fill="#DD890E"/><path d="M543.14 322.79C542.09 332.56 543.76 357.88 543.76 357.88L520.5 357.88C520.5 357.88 519.9 355.75 519.11 352.22 517.43 344.72 514.89 330.88 515.31 317.61 515.93 298.1 529.02 262.39 529.02 262.39L531.51 260.31 559.96 263.01C559.96 263.01 559.29 265.14 558.21 268.62 554.06 281.95 543.96 315.04 543.14 322.79Z" fill="#25596E"/><path d="M532.34 264.45C532.34 264.45 534.62 277.32 541.68 288.53 541.68 288.53 560.16 292.68 573.03 291.02 573.03 291.02 582.79 276.9 584.66 262.58 586.53 248.26 530.47 249.51 532.34 264.45Z" fill="#25596E"/><path d="M543.77 357.88 520.51 357.88C520.51 357.88 519.91 355.75 519.12 352.22 531.67 351.55 537.09 347.89 535.65 336.65 534.03 324.04 522.69 326.03 528.45 316.84 534.21 307.66 548.26 287.66 539.07 282.8 529.89 277.95 528.27 273.81 541.23 272.9 548.43 272.4 554.37 270.35 558.2 268.62 554.06 281.96 543.95 315.05 543.13 322.8 542.09 332.56 543.77 357.88 543.77 357.88Z" fill="#2F6C7F" opacity="0.5"/><g><path d="M574.9 343.35C574.9 343.35 586.32 342.73 592.55 345.63 592.55 345.63 577.81 359.33 559.54 347.71 559.54 347.71 564.31 343.97 574.9 343.35Z" fill="#DD890E"/><path d="M591.3 357.47C591.3 358.3 569.51 357.47 569.51 357.47 569.51 357.47 566.41 350.54 563.1 341.77 560.79 335.63 558.37 328.61 556.84 322.38 553.1 307.22 549.65 269.02 549.79 267.99 551.22 257.2 580.79 247.21 586.03 260.91 586.15 261.18 586.25 261.47 586.33 261.75 590.68 276.71 586.94 287.91 586.94 287.91 586.94 287.91 582.17 309.5 583.2 321.55 584.25 333.59 591.3 356.63 591.3 357.47Z" fill="#25596E"/><path d="M591.3 357.47C591.3 358.3 569.51 357.47 569.51 357.47 569.51 357.47 566.41 350.54 563.1 341.77 569.01 338.35 567.39 335.62 576.96 315.29 588.53 290.72 584.66 262.58 584.66 262.58 585.12 261.98 585.58 261.43 586.03 260.91 586.15 261.18 586.25 261.47 586.33 261.75 590.68 276.71 586.94 287.91 586.94 287.91 586.94 287.91 582.17 309.5 583.2 321.55 584.25 333.59 591.3 356.63 591.3 357.47Z" fill="#2F6C7F" opacity="0.5"/><path d="M600.64 405.22C600.64 405.22 578.01 409.57 571.37 409.78 564.73 409.98 554.97 409.98 554.97 409.98 554.97 409.98 554.01 407.82 555.46 405.65 556.34 404.31 558.14 402.96 561.61 402.09 567.61 400.58 572.82 394.78 575.68 390.98 577.15 389 578 387.57 578 387.57L577.8 387.12 559.54 347.71C560.07 347.86 570.95 351.12 582.35 349.11 585.79 348.5 589.28 347.41 592.54 345.62 592.54 345.62 598.56 391.09 598.78 392.54 598.99 394 600.64 405.22 600.64 405.22Z" fill="#EDA024"/><path d="M600.64 405.22C600.64 405.22 578.01 409.57 571.37 409.78 564.73 409.98 554.97 409.98 554.97 409.98 554.97 409.98 554.01 407.82 555.46 405.65 563.75 403.33 585.35 402.08 586.38 397.53 587.37 393.14 577.58 391.29 575.69 390.98 577.16 389 578.01 387.57 578.01 387.57L577.81 387.12C580.8 386.4 587.96 384.12 589.7 378.59 591.28 373.52 585.72 357.82 582.36 349.11 585.8 348.5 589.29 347.41 592.55 345.62 592.55 345.62 598.57 391.09 598.79 392.54 598.99 394 600.64 405.22 600.64 405.22Z" fill="#DD890E"/></g><path d="M543.97 409.99C543.77 410.61 495.8 409.99 495.8 409.99 495.8 409.99 495.05 408.31 495.6 406.44 496.09 404.78 497.61 402.98 501.62 402.09 506.99 400.92 513.43 396.44 517.45 393.29 519.66 391.56 521.16 390.23 521.34 390.07L521.35 390.06 514.71 345.22C514.71 345.22 518.51 350.15 528.46 351.31 528.92 351.36 529.38 351.41 529.87 351.45 540.87 352.28 546.89 347.93 546.89 347.93 546.89 347.93 543.56 386.74 543.36 389.87 543.14 392.97 544.17 409.36 543.97 409.99Z" fill="#EDA024"/><path d="M543.97 409.99C543.77 410.61 495.8 409.99 495.8 409.99 495.8 409.99 495.05 408.31 495.6 406.44 506.33 406.11 528.5 404.9 527.16 400.39 525.96 396.34 520.69 394.24 517.45 393.29 519.66 391.56 521.16 390.23 521.34 390.07L521.35 390.06C521.35 390.06 532.45 396.65 532.23 379.48 532.08 368.1 529.91 357.3 528.45 351.31 528.91 351.36 529.37 351.41 529.86 351.45 540.86 352.28 546.88 347.93 546.88 347.93 546.88 347.93 543.55 386.74 543.35 389.87 543.14 392.97 544.17 409.36 543.97 409.99Z" fill="#DD890E"/></g><g><path d="M559.38 168.36C559.38 168.36 550.8 169.52 540.59 177.41 530.38 185.3 531.72 247.43 531.51 261.34 531.51 261.34 559.95 269.85 586.32 261.76 586.32 261.76 595.74 191.78 592.21 182.64 588.68 173.5 571.26 167.98 559.38 168.36Z" fill="#533E3D"/><path d="M547.82 173.05C547.82 173.05 543.66 188.05 544.21 197.99 544.21 197.99 563.37 196.54 570.6 198.35 570.6 198.35 576.02 180.82 581.99 176.48 587.95 172.14 586.69 177.74 586.69 177.74 586.69 177.74 579.82 193.28 580.36 205.39 580.9 217.5 577.65 216.59 569.16 218.22 560.67 219.85 534.82 207.56 534.82 207.56L543.49 175.03 547.82 173.05Z" fill="#4C3434"/><g><path d="M584.24 173.94C584.24 173.94 575.21 176.12 572.31 201.87 572.31 201.87 556.54 197.38 541.8 200.29 541.8 200.29 543.8 182.15 547.95 172.19L542.22 174.54C542.22 174.54 537.39 184.86 535.31 201.47L532.12 203.02C532.12 203.02 528.38 228.14 529.01 262.4 529.01 262.4 536.28 268.01 561.81 266.55 587.35 265.1 588.38 262.61 588.38 262.61 588.38 262.61 590.87 230.02 591.29 211.95 591.29 211.95 583.82 211.53 578 205.31 578 205.31 578.19 181.96 588.36 176.15L584.24 173.94Z" fill="#25596E"/><g><path d="M540.8 206.27C540.8 207.56 539.76 208.6 538.47 208.6 537.18 208.6 536.14 207.56 536.14 206.27 536.14 204.98 537.18 203.94 538.47 203.94 539.76 203.94 540.8 204.98 540.8 206.27Z" fill="#2F6C7F"/><path d="M575.98 208.53C575.98 209.82 574.94 210.86 573.65 210.86 572.36 210.86 571.32 209.82 571.32 208.53 571.32 207.24 572.36 206.2 573.65 206.2 574.94 206.2 575.98 207.24 575.98 208.53Z" fill="#2F6C7F"/></g><path d="M537.09 224.35C537.09 224.35 555.36 229.21 570.33 225.71L569.36 256.04C569.36 256.04 563.72 261.09 551.67 260.71 539.62 260.32 537.87 253.71 537.87 253.71L537.09 224.35Z" fill="#2F6C7F"/><path d="M588.34 275.62 586.17 277.43C586.17 277.43 579.31 280.69 570.45 286.83 561.59 292.97 546.77 293.16 553.28 287.37 559.79 281.58 570.8 268.75 556.17 269.83 541.53 270.92 537.37 265.13 550.21 262.97 563.03 260.8 569 254.29 574.61 242.19 580.21 230.07 580.15 207.85 579.79 207.13 579.79 207.13 581.3 207.77 583.28 209.3 584.67 220.18 582.85 251.47 582.85 251.47 588.93 262.87 588.34 275.62 588.34 275.62Z" fill="#2F6C7F" opacity="0.5"/></g></g><g><path d="M606.04 248.47C603.98 253.66 582.38 271.52 576.98 277.32 571.57 283.13 564.73 286.67 558.5 282.93 552.78 279.51 554.06 270.68 555.74 267.47 555.9 267.17 556.05 266.93 556.22 266.74 558.08 264.46 577.38 245.15 577.38 245.15 577.38 245.15 581.12 242.24 580.29 240.16 579.46 238.08 581.74 235.38 581.74 235.38 581.74 235.38 582.36 220.86 580.71 207.78 579.05 194.7 579.43 180.72 588.18 180.38 595.88 180.07 600.84 195.45 603.63 211.71 606.5 228.32 607.08 245.84 606.04 248.47Z" fill="#533E3D"/><path d="M606.04 248.47C603.98 253.66 582.38 271.52 576.98 277.32 571.57 283.13 564.73 286.67 558.5 282.93 552.78 279.51 554.06 270.68 555.74 267.47 569.13 260.77 572.78 271.82 572.78 271.82 572.78 271.82 589.68 262.54 590.06 254.54 590.43 246.55 579.1 243.58 585.78 243.96 592.46 244.33 598.97 251.2 597.49 244.88 596 238.56 581.69 234.47 591.91 237.08 602.14 239.67 600.84 250.46 604.18 240.61 605.86 235.65 604.95 223.07 603.64 211.7 606.5 228.32 607.08 245.84 606.04 248.47Z" fill="#4C3434"/><path d="M569.86 275.65C569.86 275.65 569.78 277.27 569.28 279.4 569.28 279.43 569.27 279.44 569.27 279.47 569.22 279.7 569.15 279.93 569.08 280.18 568.54 282.16 567.63 284.45 566.12 286.28 564.98 287.67 563.91 287.99 562.98 287.83 562.23 288.41 561.09 289.2 559.94 289.46 558 289.88 557.78 289.46 557.78 289.46 557.78 289.46 556.12 291.38 554.18 292.01 552.24 292.66 550.82 291.62 550.82 291.62 550.82 291.62 547.42 293.55 545.28 292.48 543.12 291.41 540.74 283.42 540.53 281.91 540.49 281.6 540.6 280.97 540.82 280.16 541.7 277.01 544.34 271.07 546.58 270.05 549.38 268.75 560.38 267.02 560.38 267.02 566.19 265.72 569.64 269.17 569.86 275.65Z" fill="#F08D63"/><path d="M569.07 280.17C568.53 282.15 567.62 284.44 566.11 286.27 564.97 287.66 563.9 287.98 562.97 287.82 562.22 288.4 561.08 289.19 559.93 289.45 557.99 289.87 557.77 289.45 557.77 289.45 557.77 289.45 556.11 291.37 554.17 292 552.23 292.65 550.81 291.61 550.81 291.61 550.81 291.61 547.41 293.54 545.27 292.47 543.11 291.4 540.73 283.41 540.52 281.9 540.48 281.59 540.59 280.96 540.81 280.15 541.01 280.54 541.29 280.9 541.67 281.2 544.37 283.33 543.01 278.74 546.51 277.63 550 276.53 551.74 281.99 551.1 284.29 550.48 286.59 546.74 288.41 547.38 289.68 548.02 290.94 550.87 289.68 551.43 288.88 551.93 288.15 553.11 283.22 553.3 282.48 553.22 283.23 552.68 288.23 553.56 288.96 554.51 289.75 557.2 288.65 558.4 284.21 559.58 279.78 559.42 282.55 559.42 285.64 559.42 288.74 562.04 287.94 563.47 283.51 564.9 279.07 564.65 281.61 564.34 285.02 564.05 287.94 567.16 284.29 569.07 280.17Z" fill="#DD7957"/><path d="M569.86 275.65C569.9 276.97 569.68 278.23 569.28 279.4 569.78 277.27 569.86 275.65 569.86 275.65Z" fill="#F08D63"/></g><g><g><path d="M502.38 276.94 494.54 279.67 472.3 331.99 463.91 334.36C463.91 334.36 463.36 341.83 464.09 341.65 464.82 341.47 476.12 338 476.12 338L498.43 285.28 506.01 282.22C506.02 282.22 506.93 278.4 502.38 276.94Z" fill="#AF2708"/><g><path d="M550.65 284.91 541.68 288.54 515.27 350.92C515.27 350.92 501.9 355.02 501.03 355.24 500.17 355.46 500.83 346.6 500.83 346.6L510.75 343.8 515.71 332.14 537.07 281.89 545.76 278.86 546.34 278.66C551.74 280.39 550.65 284.91 550.65 284.91Z" fill="#AF2708"/><path d="M550.65 284.91 541.68 288.54 515.27 350.92C515.27 350.92 501.9 355.02 501.03 355.24 500.17 355.46 500.83 346.6 500.83 346.6L510.75 343.8 515.71 332.14C518.02 331.39 521.39 330.14 522.48 328.89 524.21 326.92 538.67 287.21 539.41 286.48 540.14 285.73 545.54 284.51 546.51 282.55 547.12 281.33 546.4 279.82 545.76 278.85L546.34 278.65C551.74 280.39 550.65 284.91 550.65 284.91Z" fill="#9E1600"/></g></g><g><g><path d="M369.64 320.49 465.04 286.57 465.94 342.09 396.61 361.48Z" fill="#380800"/><path d="M523.45 299.12 465.04 286.57 465.94 342.09 505.58 354.83Z" fill="#380800"/></g><g><g><g><path d="M499.73 290.87C499.73 290.87 503.32 272.79 516.01 268.31 528.71 263.83 512.42 279.21 509.44 285.19 506.45 291.17 499.73 290.87 499.73 290.87Z" fill="#306F54"/><path d="M501.37 289.22C501.1 289.61 508.09 275.92 515.41 271.74 515.42 271.75 507.35 280.71 501.37 289.22Z" fill="#59A780"/></g><path d="M506.5 293.27C506.55 294.22 506.45 295.16 506.15 295.95 504.66 299.98 496 308.95 479.42 312.99 479.42 312.99 482.84 303.02 487.73 295.48 490.16 291.76 492.93 288.63 495.85 287.59 502.93 285.06 506.24 289.38 506.5 293.27Z" fill="#EAFFCA"/><g><path d="M488.12 301.49C488.12 299.02 487.94 297 487.73 295.47 482.83 303.01 479.41 312.98 479.41 312.98 495.99 308.95 504.66 299.98 506.15 295.95 506.44 295.16 506.56 294.23 506.49 293.27 498.86 296.29 488.12 307.24 488.12 301.49Z" fill="#EAEAEA"/></g><g><g><path d="M506.3 299.68C506.3 299.68 512.42 284.29 524.97 283.1 537.52 281.9 530.35 287.58 522.28 292.21 514.22 296.84 511.98 299.68 506.3 299.68Z" fill="#306F54"/><path d="M508.25 298.34C508.25 298.34 518.11 286.84 525.88 285.79 525.87 285.79 516.31 290.87 508.25 298.34Z" fill="#59A780"/></g><path d="M515.97 309.3C514.92 313 479.02 315.07 479.02 315.07 479.48 314.61 481.76 311.81 485.26 308.58 489.68 304.5 496.02 299.76 502.96 298.36 506.67 297.61 509.4 297.95 511.41 298.9 516.11 301.13 516.69 306.7 515.97 309.3Z" fill="#EAFFCA"/><path d="M515.97 309.3C514.92 313 479.02 315.07 479.02 315.07 479.48 314.61 481.76 311.81 485.26 308.58 486.8 310.92 493.22 306.91 502.35 303.84 507.97 301.94 510.39 300.17 511.41 298.91 516.11 301.13 516.69 306.7 515.97 309.3Z" fill="#EAEAEA"/></g></g><g><g><g><path d="M428.52 281.32C428.52 281.32 425.28 273.61 428.61 268.7 431.94 263.8 435.45 267.58 435.45 267.58L450.84 269.6C450.84 269.6 453.05 267.28 456.72 267.61 460.38 267.94 463.25 271.7 461.3 278.99 459.35 286.27 439.77 306.75 428.52 281.32Z" fill="#BDCCA2"/><path d="M430.5 283.32C430.06 282.85 429.44 276.76 431.92 272.17 434.4 267.59 438.76 264.34 443.79 264.35 448.82 264.36 449.6 272.66 449.27 276.32 448.94 279.99 438.57 291.9 430.5 283.32Z" fill="#D5E0BA"/><path d="M455.68 278.72C454.22 286.12 448.03 289.46 443.4 287.73 441.49 287.02 439.84 286.19 438.83 284.9 437.42 283.11 437.28 280.41 439.46 275.87 439.46 275.87 444.06 268.22 448.44 266.77L448.45 266.77C448.93 266.62 449.4 266.53 449.86 266.54 454.62 266.61 457.14 271.32 455.68 278.72Z" fill="#EBEFDA"/><path d="M449.19 280.56C445.1 284.8 441.27 285.78 438.83 284.89 437.42 283.1 437.28 280.4 439.46 275.86 439.46 275.86 444.06 268.21 448.44 266.76L448.45 266.76C449.3 266.96 450.21 267.45 451.09 268.49 453.82 271.71 454.79 274.78 449.19 280.56Z" fill="#BDCCA2"/><g><path d="M446.27 287.62C445.87 287.65 435.65 286.71 436.07 277.64 436.33 272.11 437.47 270.06 439.03 269.21 440.04 268.65 441.22 268.59 442.46 268.43 445.65 268.01 446.11 271.59 446.11 271.59 446.52 275.21 446.63 282.22 446.51 285.64 446.45 286.86 446.37 287.62 446.27 287.62Z" fill="#EBEFDA"/><path d="M446.51 285.64C443.52 284.86 439 282.78 438.23 277.25 437.69 273.37 438.27 270.82 439.03 269.21 440.04 268.65 441.22 268.59 442.46 268.43 445.65 268.01 446.11 271.59 446.11 271.59 446.53 275.22 446.63 282.23 446.51 285.64Z" fill="#BDCCA2"/></g><path d="M445.55 269.18C445.55 269.18 444.33 268.35 441.94 273.59 439.55 278.83 441.32 283.29 445.19 284.86 449.06 286.43 452.59 276.92 451.1 272.89 449.61 268.87 445.55 269.18 445.55 269.18Z" fill="#EBEFDA"/><path d="M445.64 269.61C445.64 269.61 442.93 273.55 445.06 278.38 445.06 278.39 449.26 276.21 445.64 269.61Z" fill="#BDCCA2"/></g><path d="M461.29 278.99C459.35 286.27 439.77 306.74 428.51 281.31 428.51 281.31 426.62 276.81 427.22 272.51 427.63 272.4 429.95 271.97 432.5 274.6 435.33 277.49 435.99 283.95 437.62 286.62 439.25 289.28 448.15 287.95 451.19 285.06 454 282.38 460.28 278.91 461.81 273.25 462.04 274.83 461.89 276.75 461.29 278.99Z" fill="#BDCCA2"/></g><g><g><path d="M404.6 296.59C404.6 296.59 398.56 290.8 399.66 284.98 400.76 279.16 405.48 281.23 405.48 281.23L420.4 276.95C420.4 276.95 421.51 273.94 425 272.78 428.49 271.63 432.62 273.93 433.74 281.39 434.85 288.86 425.05 315.43 404.6 296.59Z" fill="#BDCCA2"/><path d="M407.22 297.64C406.63 297.39 403.64 292.04 404.09 286.85 404.54 281.66 407.25 276.95 411.86 274.95 416.47 272.95 420.5 280.26 421.65 283.75 422.8 287.24 418.03 302.29 407.22 297.64Z" fill="#D5E0BA"/><path d="M428.48 283.39C430.08 290.76 425.74 296.28 420.8 296.54 418.76 296.65 416.92 296.55 415.48 295.76 413.47 294.68 412.27 292.26 412.46 287.23 412.46 287.23 413.64 278.38 417.08 275.3L417.09 275.3C417.47 274.97 417.86 274.7 418.29 274.53 422.68 272.7 426.86 276.02 428.48 283.39Z" fill="#EBEFDA"/><path d="M423.26 287.66C421.19 293.18 418.08 295.6 415.48 295.76 413.47 294.68 412.27 292.26 412.46 287.23 412.46 287.23 413.64 278.38 417.08 275.3L417.09 275.3C417.95 275.14 418.98 275.23 420.2 275.83 423.98 277.7 426.09 280.13 423.26 287.66Z" fill="#BDCCA2"/><g><path d="M423.39 295.3C423.04 295.49 413.28 298.69 410.06 290.21 408.1 285.03 408.32 282.7 409.42 281.3 410.12 280.38 411.19 279.86 412.26 279.22 415.02 277.57 416.86 280.67 416.86 280.67 418.68 283.83 421.57 290.22 422.82 293.4 423.25 294.53 423.48 295.26 423.39 295.3Z" fill="#EBEFDA"/><path d="M422.82 293.39C419.77 293.87 414.79 293.76 411.89 288.99 409.85 285.65 409.37 283.07 409.43 281.29 410.13 280.37 411.2 279.85 412.27 279.21 415.03 277.56 416.87 280.66 416.87 280.66 418.68 283.82 421.57 290.21 422.82 293.39Z" fill="#BDCCA2"/></g><path d="M415.39 278.68C415.39 278.68 413.94 278.4 413.84 284.16 413.74 289.92 417.14 293.3 421.31 293.2 425.49 293.1 424.94 282.97 421.97 279.87 418.99 276.77 415.39 278.68 415.39 278.68Z" fill="#EBEFDA"/><path d="M415.64 279.04C415.64 279.04 414.72 283.73 418.6 287.32 418.6 287.32 421.59 283.64 415.64 279.04Z" fill="#BDCCA2"/></g><path d="M432.81 288.65C430.08 297.87 421.7 309.46 407.76 299.21 408.52 298.2 409.73 297.08 411.55 296.56 415.23 295.51 415.8 293.52 421.56 292.08 427.14 290.67 431.45 288.83 432.81 288.65Z" fill="#BDCCA2"/></g></g><g><g><path d="M386.83 318.92C387.62 320.91 387.64 322.01 387.64 322.01 387.64 322.01 385.2 327.72 379.27 329.07 379.24 329.08 379.22 329.1 379.18 329.09 373.21 330.42 383.47 322.91 383.47 322.91 383.47 322.91 371.52 320.58 371.5 317.86 371.49 315.14 384.13 319.88 384.13 319.88 384.13 319.88 379.8 313.76 381.59 311.13 382.77 309.39 385.27 314.97 386.83 318.92Z" fill="#59A780"/><path d="M379.27 329.08C385.19 327.72 388.16 322.49 388.16 322.49 388.16 322.49 387.62 320.91 386.84 318.92 386.24 323.38 382.02 327.14 379.27 329.08Z" fill="#59A780"/><g><path d="M422.73 330.09C422.31 329.83 421.86 329.57 421.41 329.31 419.22 328.03 416.69 326.68 414.07 325.36 413.49 325.07 412.91 324.78 412.33 324.5 408.77 322.75 405.14 321.1 402.08 319.86 401.52 319.63 400.98 319.42 400.46 319.21 399.16 318.72 398.02 318.32 397.06 318.04 388.02 315.39 382.15 326.16 390.79 331.01 391.53 331.43 392.43 331.81 393.45 332.15 393.97 332.33 394.53 332.51 395.13 332.68 398.27 333.54 402.19 334.14 406.22 334.57 406.87 334.64 407.52 334.7 408.18 334.76 411.02 335.02 413.86 335.19 416.47 335.31 417 335.34 417.51 335.36 418.01 335.37 423.72 335.59 427.96 335.55 427.96 335.55 429.86 335.04 427.23 332.81 422.73 330.09Z" fill="#DD613B"/><path d="M387.94 321.87C386.53 324.11 387.58 328.42 391.11 328.62 394.63 328.83 390.29 318.13 387.94 321.87Z" fill="#FC7C5E"/><g><g><path d="M418.01 335.35C417.51 335.33 416.99 335.31 416.46 335.29 416.77 333.91 417.28 332.15 417.95 331.56 418.59 330.99 418.36 333.23 418.01 335.35Z" fill="#B7391C"/><path d="M408.18 334.74C407.53 334.68 406.87 334.62 406.22 334.55 406.65 332.11 407.37 328.64 408.14 327.65 409.01 326.52 408.53 331.65 408.18 334.74Z" fill="#B7391C"/><path d="M395.13 332.66C394.53 332.49 393.97 332.32 393.45 332.13 394.07 329.73 395.39 324.9 396.34 323.74 397.44 322.36 395.98 328.78 395.13 332.66Z" fill="#B7391C"/><path d="M421.41 329.31C421.86 329.57 422.31 329.83 422.73 330.09 421.89 331.97 420.95 333.76 420.73 332.98 420.51 332.18 420.95 330.6 421.41 329.31Z" fill="#B7391C"/><path d="M412.34 324.49C412.92 324.77 413.5 325.06 414.08 325.35 412.68 328.14 410.49 332.26 410.38 330.92 410.27 329.74 411.4 326.74 412.34 324.49Z" fill="#B7391C"/><path d="M398.33 327.78C398.18 326.3 399.68 321.57 400.46 319.21 400.98 319.41 401.52 319.62 402.08 319.86 400.69 323.58 398.51 329.52 398.33 327.78Z" fill="#B7391C"/><g opacity="0.5"><path d="M422.73 330.09C422.31 329.83 421.86 329.56 421.41 329.3 419.22 328.03 416.69 326.68 414.07 325.34 413.49 325.05 412.92 324.77 412.32 324.49 409.43 323.06 406.51 321.72 403.87 320.6 403.26 320.35 402.65 320.09 402.08 319.85 401.99 319.81 401.9 319.79 401.82 319.74 401.35 319.55 400.91 319.38 400.46 319.19 399.17 318.71 398.02 318.32 397.06 318.03 395.19 317.48 393.48 317.53 391.99 317.95 390.88 318.27 389.9 318.8 389.08 319.48 394.24 325.24 403.32 327.78 400.28 329.29 397.21 330.81 392.26 331.64 392.17 331.65 392.58 331.82 393 331.98 393.46 332.13 393.97 332.32 394.53 332.5 395.13 332.66 395.95 332.88 396.84 333.09 397.77 333.29 400.35 333.82 403.25 334.23 406.22 334.54 406.88 334.61 407.53 334.68 408.18 334.74 411.02 335 413.86 335.17 416.47 335.28 416.99 335.31 417.51 335.33 418.02 335.36 423.72 335.58 427.96 335.54 427.96 335.54 429.86 335.04 427.23 332.8 422.73 330.09Z" fill="#DB452C"/></g><path d="M427.96 335.53C427.96 335.53 423.71 335.57 418.02 335.35 417.52 335.32 417 335.3 416.47 335.27 413.86 335.16 411.02 334.99 408.18 334.73 407.53 334.67 406.87 334.6 406.22 334.53 403.25 334.22 400.35 333.81 397.77 333.28 399.41 332.94 401.33 332.35 402.58 331.25 405.09 329.05 398.4 322.35 398.4 322.35 398.4 322.35 399.7 321.21 401.81 319.73 401.9 319.77 401.99 319.79 402.07 319.84 402.64 320.08 403.25 320.33 403.86 320.59 406.5 321.71 409.43 323.05 412.31 324.48 412.9 324.76 413.48 325.05 414.06 325.33 416.67 326.66 419.21 328.02 421.4 329.29 421.85 329.55 422.3 329.82 422.72 330.08 427.23 332.8 429.86 335.04 427.96 335.53Z" fill="#DB452C" opacity="0.5"/></g></g></g></g><g><path d="M389.07 298.62C389.08 301.82 388.69 303.98 388.69 303.98 388.69 303.98 382.9 309.3 375.21 308.02 374.29 307.88 373.72 307.68 373.39 307.46 371.06 305.86 383.2 302.74 383.2 302.74 383.2 302.74 370.18 294.33 371.47 291.12 372.75 287.9 385.42 299.5 385.42 299.5 385.42 299.5 383.21 290.2 386.56 287.94 388.66 286.55 389.06 293.32 389.07 298.62Z" fill="#59A780"/><path d="M373.4 307.47C373.72 307.69 374.3 307.88 375.22 308.03 382.91 309.3 388.94 304.48 388.94 304.48 388.94 304.48 389.08 301.82 389.07 298.62 387.84 300.51 385.97 302.65 383.2 304.23 379.28 306.47 375.62 307.21 373.4 307.47Z" fill="#59A780"/><g><path d="M405.02 306.45C405.54 306.93 406.08 307.44 406.63 307.98 409.65 310.9 413.16 314.56 416.53 318.33 417.08 318.94 417.63 319.56 418.17 320.17 420.63 322.97 422.97 325.77 424.96 328.32 425.37 328.84 425.77 329.37 426.14 329.87 430.17 335.22 432.22 339.1 429.73 338.77 429.73 338.77 424.7 336.81 418.07 333.84 417.49 333.58 416.89 333.31 416.28 333.03 413.26 331.65 409.99 330.1 406.76 328.45 406.01 328.07 405.28 327.68 404.54 327.29 399.98 324.88 395.63 322.3 392.33 319.8 391.7 319.32 391.13 318.85 390.6 318.38 389.56 317.5 388.68 316.62 388 315.78 380.1 305.96 392.15 296.03 401.56 303.45 402.56 304.24 403.72 305.26 405.02 306.45Z" fill="#DD613B"/><path d="M390.07 303.49C386.95 305.95 389.35 309.54 393.81 308.1 398.27 306.66 400.21 304.88 398.95 303.73 397.7 302.58 392.96 301.21 390.07 303.49Z" fill="#FC7C5E"/><g><g><path d="M418.08 333.85C417.5 333.59 416.9 333.32 416.29 333.04 417.31 331.55 418.75 329.72 419.82 329.34 420.83 328.98 419.5 331.5 418.08 333.85Z" fill="#B7391C"/><path d="M406.76 328.46C406.01 328.08 405.28 327.69 404.54 327.3 406.2 324.63 408.7 320.87 410.08 320.06 411.64 319.15 408.64 324.98 406.76 328.46Z" fill="#B7391C"/><path d="M392.34 319.81C391.71 319.33 391.14 318.86 390.61 318.39 392.48 315.84 396.34 310.78 398 309.85 399.96 308.75 395.18 315.62 392.34 319.81Z" fill="#B7391C"/><path d="M424.96 328.32C425.37 328.84 425.77 329.37 426.14 329.87 424.25 331.69 422.3 333.35 422.41 332.33 422.53 331.29 423.8 329.64 424.96 328.32Z" fill="#B7391C"/><path d="M416.53 318.33C417.08 318.94 417.63 319.56 418.17 320.17 415.19 322.8 410.64 326.62 411.15 324.98 411.61 323.55 414.36 320.54 416.53 318.33Z" fill="#B7391C"/><path d="M398.43 315.56C398.96 313.75 402.97 308.87 405.02 306.45 405.54 306.93 406.08 307.44 406.63 307.98 403.21 311.73 397.82 317.7 398.43 315.56Z" fill="#B7391C"/><path d="M429.74 338.78C429.74 338.78 424.71 336.83 418.08 333.85 417.5 333.6 416.9 333.32 416.29 333.03 413.27 331.66 410 330.11 406.76 328.46 406.45 328.29 406.14 328.13 405.83 327.98 405.41 327.75 404.98 327.53 404.54 327.3 399.98 324.88 395.64 322.31 392.33 319.81 391.7 319.32 391.12 318.85 390.6 318.39 389.56 317.5 388.69 316.63 388 315.79 387.53 315.21 387.16 314.63 386.82 314.05 388.87 316.14 392.38 318.84 397.89 320.41 407.84 323.27 404.21 317.55 402.29 309.41 401.73 306.98 401.36 304.91 401.14 303.18 401.27 303.28 401.42 303.36 401.57 303.47 402.33 304.08 403.22 304.85 404.18 305.71 404.46 305.96 404.74 306.2 405.01 306.47 405.54 306.96 406.08 307.46 406.63 308.01 409.35 310.62 412.44 313.86 415.49 317.22 415.83 317.6 416.18 317.98 416.52 318.36 417.08 318.95 417.62 319.58 418.17 320.19 418.77 320.88 419.37 321.56 419.95 322.24 421.76 324.34 423.45 326.41 424.95 328.34 425.37 328.85 425.77 329.38 426.13 329.88 430.17 335.22 432.23 339.11 429.74 338.78Z" fill="#DB452C" opacity="0.5"/><path d="M429.74 338.78C429.74 338.78 424.71 336.83 418.08 333.85 417.5 333.6 416.9 333.32 416.29 333.03 413.27 331.66 410 330.11 406.76 328.46 406.45 328.29 406.14 328.13 405.83 327.98 406.81 328.11 408.06 328.08 409.33 327.54 412.12 326.33 406.57 315.07 406.57 315.07 406.57 315.07 410.84 316.05 415.51 317.19 415.85 317.57 416.2 317.95 416.54 318.33 417.1 318.92 417.64 319.55 418.19 320.16 418.79 320.85 419.39 321.53 419.97 322.21 421.78 324.31 423.47 326.38 424.97 328.31 425.39 328.82 425.79 329.35 426.15 329.85 430.17 335.22 432.23 339.11 429.74 338.78Z" fill="#DB452C" opacity="0.5"/></g></g></g></g><g><g><path d="M410.83 288.24C409.19 290.71 407.75 291.96 407.75 291.96 407.75 291.96 400.55 293.32 395.22 288.37 394.98 288.14 394.78 287.94 394.61 287.75 391.2 283.86 404.15 288.38 404.15 288.38 404.15 288.38 398.37 275.13 401.04 273.29 403.69 271.46 407.56 287.01 407.56 287.01 407.56 287.01 410.62 278.65 414.4 278.61 416.77 278.6 413.57 284.11 410.83 288.24Z" fill="#59A780"/><path d="M406.18 290.18C401.92 290.95 397.02 288.89 394.63 287.75 394.8 287.94 394.99 288.14 395.23 288.37 400.55 293.32 407.73 292.69 407.73 292.69 407.73 292.69 409.2 290.71 410.83 288.24 409.49 289.12 407.93 289.87 406.18 290.18Z" fill="#59A780"/><g><path d="M423.66 335.97C423.66 336.21 423.66 336.45 423.65 336.68 423.64 336.91 423.63 337.14 423.61 337.37 423.59 337.79 423.55 338.19 423.49 338.55 423.44 338.93 423.37 339.28 423.31 339.57 423.27 339.68 423.24 339.79 423.2 339.88 423.16 339.99 423.13 340.08 423.09 340.17 423.06 340.22 423.04 340.27 423.01 340.31 423.01 340.32 423.01 340.32 423 340.34 422.96 340.41 422.92 340.48 422.86 340.52 422.81 340.59 422.75 340.63 422.68 340.66 422.44 340.82 422.12 340.74 421.74 340.42L421.73 340.42C421.73 340.42 421.72 340.41 421.72 340.38 421.71 340.37 421.71 340.37 421.71 340.37 421.67 340.32 421.59 340.21 421.48 340.03 421.47 340.02 421.47 340.02 421.45 340 421.26 339.74 421 339.36 420.68 338.88 420.43 338.53 420.15 338.11 419.83 337.65 419.1 336.58 418.21 335.23 417.21 333.68 416.58 332.72 415.91 331.66 415.21 330.57 414.99 330.23 414.77 329.88 414.55 329.51 414.44 329.35 414.33 329.19 414.23 329.02 413.82 328.36 413.41 327.68 412.98 327 411.72 324.93 410.44 322.75 409.18 320.54 408.81 319.85 408.44 319.17 408.06 318.49 407.25 317.01 406.5 315.53 405.78 314.07 405.78 314.07 405.77 314.06 405.77 314.06L405.77 314.06C404.43 311.36 403.26 308.73 402.44 306.36 402.19 305.67 402 305 401.82 304.37 401.46 303.15 401.24 302.01 401.15 301 400.07 289.3 414.56 287.78 418.05 298.41 418.41 299.54 418.8 300.93 419.19 302.52 419.34 303.17 419.51 303.84 419.65 304.54 420.28 307.34 420.89 310.58 421.44 313.95 421.64 315.19 421.83 316.43 422.02 317.7 422.13 318.46 422.25 319.22 422.34 319.98 422.45 320.84 422.57 321.7 422.68 322.55 422.78 323.41 422.88 324.25 422.96 325.08 423.15 326.72 423.3 328.32 423.41 329.83 423.45 330.43 423.5 331.04 423.53 331.6L423.53 331.64C423.64 333.24 423.68 334.71 423.66 335.97Z" fill="#DD613B"/><path d="M406.74 292.41C403.26 293.17 402.01 296.77 403.83 298.47 405.65 300.17 410.61 296.99 414.6 299.64 418.59 302.3 415.77 290.43 406.74 292.41Z" fill="#FC7C5E"/><g><g><path d="M415.23 330.56C414.91 330.06 414.58 329.54 414.25 329 415.81 328.37 417.87 327.69 418.9 327.95 419.89 328.2 417.54 329.47 415.23 330.56Z" fill="#B7391C"/><path d="M409.22 320.53C408.84 319.85 408.46 319.17 408.09 318.48 410.76 317.26 414.64 315.63 416.13 315.71 417.81 315.81 412.47 318.79 409.22 320.53Z" fill="#B7391C"/><path d="M402.46 306.36C402.22 305.66 402.02 305 401.84 304.36 404.61 303.35 410.22 301.4 412 301.53 414.1 301.7 406.83 304.58 402.46 306.36Z" fill="#B7391C"/><path d="M423.43 329.82C423.48 330.43 423.52 331.05 423.55 331.64 421.14 332.08 418.77 332.37 419.38 331.63 420.01 330.87 421.85 330.24 423.43 329.82Z" fill="#B7391C"/><path d="M422.04 317.7C422.16 318.46 422.26 319.22 422.37 319.98 418.7 320.49 413.19 321.11 414.43 320.1 415.51 319.21 419.21 318.3 422.04 317.7Z" fill="#B7391C"/><path d="M409.39 306.21C410.74 305.07 416.37 303.35 419.21 302.53 419.36 303.17 419.52 303.85 419.67 304.55 415.09 305.69 407.82 307.55 409.39 306.21Z" fill="#B7391C"/></g></g></g></g><path d="M423.66 335.97C423.66 336.21 423.66 336.45 423.65 336.68 423.64 336.91 423.63 337.14 423.61 337.37 423.59 337.79 423.55 338.19 423.49 338.55 423.44 338.93 423.37 339.28 423.31 339.57 423.27 339.68 423.24 339.79 423.2 339.88 423.16 339.99 423.13 340.08 423.09 340.17 423.06 340.22 423.04 340.27 423.01 340.31 423.01 340.32 423.01 340.32 423 340.34 422.96 340.41 422.92 340.48 422.86 340.52 422.81 340.59 422.75 340.63 422.68 340.66 422.44 340.82 422.12 340.74 421.74 340.42 421.74 340.42 421.73 340.41 421.71 340.38 421.7 340.37 421.7 340.37 421.7 340.37 421.66 340.3 421.58 340.19 421.47 340.03 421.46 340.02 421.46 340.02 421.44 340 421.4 339.92 421.33 339.84 421.26 339.73 421.1 339.5 420.89 339.22 420.67 338.88 420.42 338.53 420.14 338.11 419.82 337.65 419.26 336.8 418.57 335.77 417.82 334.62 417.61 334.32 417.41 334.01 417.2 333.69 416.57 332.73 415.9 331.67 415.2 330.58 414.98 330.24 414.76 329.89 414.54 329.52 414.43 329.36 414.33 329.2 414.24 329.03 413.83 328.37 413.4 327.69 412.98 327.01 411.72 324.94 410.44 322.76 409.18 320.55 408.81 319.86 408.44 319.18 408.06 318.5 407.26 317.02 406.5 315.53 405.77 314.07 407.62 316.45 409.97 319.07 411.91 319.92 412.54 320.2 413.15 320.29 413.66 320.11 417.24 318.84 419.35 315.34 419.35 315.34 419.35 315.34 420.19 314.57 421.42 313.96 421.62 315.2 421.81 316.44 422 317.71 422.11 318.47 422.23 319.23 422.32 319.99 422.43 320.85 422.55 321.71 422.66 322.56 422.76 323.42 422.86 324.26 422.94 325.09 423.13 326.73 423.28 328.33 423.39 329.84 423.43 330.44 423.48 331.05 423.51 331.61L423.51 331.65C423.64 333.24 423.68 334.71 423.66 335.97Z" fill="#DB452C" opacity="0.5"/></g></g><g><g><path d="M508.18 272.25C508.18 272.25 503.72 277.39 500.76 277.98 497.78 278.58 497 278.77 497 278.77 497 278.77 496.92 280.33 495.52 281.96 494.66 282.97 493.31 284 491.16 284.7 485.52 286.59 481.57 284.01 481.57 284.01 481.57 284.01 480.88 275.6 487.9 274.12 487.9 274.12 489 271.85 492.08 271.17 493.13 270.94 494.39 270.88 495.91 271.16 501.94 272.25 508.18 272.25 508.18 272.25Z" fill="#306F54"/><path d="M472.92 292.71C472.92 292.71 481.42 281.1 491.07 277.02 491.07 277.02 479.79 284.87 474.56 293.69L472.92 292.71Z" fill="#59A780"/><path d="M495.52 281.97C494.66 282.98 493.31 284.01 491.16 284.71 485.52 286.6 481.57 284.02 481.57 284.02 481.57 284.02 480.88 275.61 487.9 274.13 487.9 274.13 489 271.86 492.08 271.18 492.01 273.42 491.21 278.22 485.99 279.86 479.87 281.79 489.58 285.01 495.52 281.97Z" fill="#59A780"/></g><g><path d="M477.82 280.45C477.82 280.45 466.7 271.3 480.76 262.8 480.76 262.8 480.43 257.24 488.61 253.65 496.78 250.05 501.36 247.11 501.36 247.11 501.36 247.11 496.46 253.65 496.29 258.23 496.13 262.81 491.06 266.24 491.06 266.24 491.06 266.24 493.35 279.31 477.82 280.45Z" fill="#306F54"/><path d="M474.23 289.44C474.23 289.44 483.38 260.51 497.61 250.21 497.61 250.21 481.43 268.85 475.38 289.77L474.23 289.44Z" fill="#59A780"/></g></g><g><g><g><path d="M484.31 311.62C482.18 317.84 479.05 322.37 477.35 322.3 477.35 322.3 474.81 324.96 471.3 323.51 471.3 323.51 466.59 326.54 463.33 324.24 463.33 324.24 457.64 326.78 454.99 321.94 454.99 321.94 453.21 321.94 451.17 320.96 448.82 319.83 446.12 317.41 445.33 312.23 445.28 311.85 445.23 311.47 445.19 311.06 444.71 305.79 444.46 299.32 445.49 294.13 446.58 288.6 449.14 284.53 454.5 284.91 454.5 284.91 455.79 281.31 459.64 281.07 463.47 280.84 465.4 283.31 465.4 283.31 465.4 283.31 468.12 280.99 472.21 281.71 475.61 282.31 476.61 284.81 476.86 285.62 476.91 285.78 476.93 285.88 476.93 285.88 476.93 285.88 485.71 284.34 486.55 296.67 486.89 301.81 485.85 307.15 484.31 311.62Z" fill="#EDA024"/><path d="M484.31 311.62C482.18 317.84 479.05 322.37 477.35 322.3 477.35 322.3 474.81 324.96 471.3 323.51 471.3 323.51 466.59 326.54 463.33 324.24 463.33 324.24 457.64 326.78 454.99 321.94 454.99 321.94 453.21 321.94 451.17 320.96 450.11 320.46 448.98 319.68 448 318.53 447.88 318.39 447.77 318.26 447.66 318.12 447.56 318 447.47 317.88 447.4 317.75 447.29 317.6 447.2 317.45 447.1 317.3 446.83 316.88 446.58 316.4 446.37 315.9 446.29 315.75 446.22 315.59 446.17 315.42 446.07 315.19 445.99 314.94 445.91 314.7 445.81 314.44 445.75 314.17 445.68 313.9 445.53 313.37 445.42 312.81 445.33 312.22 445.28 311.84 445.23 311.46 445.19 311.05 444.71 305.78 444.46 299.31 445.49 294.12 445.88 295.42 446.51 296.76 447.43 297.49 449.59 299.2 450.98 298.7 450.98 298.7 450.98 298.7 449.99 302.97 453.6 305.49 454.18 304.29 454.46 302.9 454.51 302.45 454.43 303.59 454.06 308.54 453.9 311.92 453.89 312.14 453.89 312.35 453.87 312.57 453.86 313.05 453.84 313.49 453.83 313.86 453.82 314.43 456.3 319.58 459.85 318.4 463.35 317.23 466.28 301.3 466.28 301.3 466.28 301.3 465.89 312.97 466.54 316.2 467.18 319.45 471.92 317.69 472.95 314.52 473.98 311.34 474.89 300.53 474.89 300.53 474.89 300.53 476.06 305.07 475.41 309.92 474.77 314.78 478.52 315.56 480.08 312.51 481.63 309.47 481.63 298.84 481.63 298.84 481.63 298.84 482.99 304.99 482.28 309.53 481.93 311.75 483 312.19 484.31 311.62Z" fill="#FFB850"/></g><path d="M472.43 290.88C474.56 294.13 474.56 298.53 474.56 298.53 474.18 293.35 469.44 290.69 467.96 291.6 466.59 292.43 466.53 297.02 466.53 297.78 466.53 296.84 466.39 290.59 463.81 291.01 461.01 291.46 456.22 296.97 456.22 296.97 456.87 294.54 457.62 291.92 458.54 290.79 457.25 290.41 454.44 289.93 451.8 294.13 452.09 293.45 453.4 285.67 462.18 289.39 460.05 285.95 456.09 285.82 456.09 285.82 462.76 285.63 463.74 289.13 464.44 287.38 465.16 285.63 465.38 283.3 465.38 283.3 465.22 285.98 467.62 291 470.66 287.89 473.7 284.78 476.75 285.62 476.75 285.62 476.75 285.62 476.78 285.62 476.83 285.61 476.88 285.77 476.9 285.87 476.9 285.87 475.36 286.44 474.94 287.57 474.94 287.57 479.67 288.74 479.93 293.28 479.93 293.28 477.68 288.3 470.29 287.64 472.43 290.88Z" fill="#FFB850"/></g><g><path d="M453.07 318.85C453.07 319.68 453 320.43 452.88 321.12 452.54 323.12 451.75 324.57 450.84 325.6 449.09 327.65 446.93 328.13 446.93 328.13 446.93 328.13 446.1 331.13 444.06 331.95 442.01 332.78 440.23 331.54 440.23 331.54 440.23 331.54 438.46 333.18 435.46 333.18 434.31 333.18 433.06 332.87 431.93 332.46 430.1 331.84 428.63 330.99 428.63 330.99 428.63 330.99 427.68 332.35 422.76 329.9 417.86 327.44 409.39 319.66 409.39 309.69 409.29 307.52 409.35 305.72 409.7 304.24 410.31 301.63 411.79 300 414.85 299.05 416.55 294.47 421.3 293.02 423.72 293.45 426.61 290.26 430.47 289.44 435.05 290.45 435.05 290.45 440.51 287.45 444.87 291.54 449.26 295.65 453.07 310.93 453.07 318.85Z" fill="#EDA024"/><path d="M414.68 300.54C414.61 300.82 420.06 312.82 426.54 319.3 433.02 325.78 414.75 315.78 412.27 308.47 409.79 301.16 414.68 300.54 414.68 300.54Z" fill="#FFB850"/><path d="M450.85 325.6C449.1 327.65 446.94 328.13 446.94 328.13 446.94 328.13 446.11 331.13 444.07 331.95 442.02 332.78 440.24 331.54 440.24 331.54 440.24 331.54 438.47 333.18 435.47 333.18 434.32 333.18 433.07 332.87 431.94 332.46 430.11 331.84 428.64 330.99 428.64 330.99 428.64 330.99 427.69 332.35 422.77 329.9 417.87 327.44 409.4 319.66 409.4 309.69 409.3 307.52 409.36 305.72 409.71 304.24 410.17 308.15 412.4 313.4 419.34 318.83 433.43 329.85 439.91 327.69 448.42 324.97 449.54 324.62 450.34 324.88 450.85 325.6Z" fill="#FFB850"/><path d="M427.89 292.21C428.09 292.02 429.81 290.2 434.61 291.69 439.41 293.17 445.43 307.05 444.91 313.25 444.39 319.45 438.45 307.23 434.17 301.99 429.9 296.75 425.8 294.13 427.89 292.21Z" fill="#FFB850"/><path d="M417.55 297.32C419.23 295.38 421.65 294 425.23 295.66 428.81 297.32 434.48 308.58 434.92 313.38 435.36 318.18 429.51 312.68 424.71 305.96 419.91 299.24 415.28 299.93 417.55 297.32Z" fill="#FFB850"/><path d="M439.68 290.99C443.08 291.08 446.05 293.17 449.19 301.73 452.33 310.28 451.37 314.65 449.8 315.17 448.23 315.69 449.19 307.23 445 300.86 440.81 294.49 436.45 290.9 439.68 290.99Z" fill="#FFB850"/><path d="M452.89 320.09C451.87 326 446.94 327.1 446.94 327.1 446.94 327.1 446.11 330.1 444.07 330.92 442.02 331.75 440.24 330.51 440.24 330.51 440.24 330.51 438.47 332.15 435.47 332.15 434.32 332.15 433.07 331.84 431.94 331.43 431.74 330.97 431.38 330.57 430.76 330.32 428.6 329.44 429.24 328.47 429.24 328.47 431.4 328.63 434.61 327.27 432.45 326.07 430.29 324.87 430.13 323.11 430.13 323.11 430.77 323.83 436.22 325.6 437.25 323.03 438.04 321.1 437.18 317.88 436.71 316.41 437.86 319.53 440.21 322.56 443.18 321.75 446.24 320.91 446.3 315.22 446.3 314.67 446.94 318.01 446.14 322.16 446.14 322.16 446.14 322.16 446.78 324.55 450.07 322.72 451.25 322.03 452.18 321.07 452.89 320.09Z" fill="#FFB850"/><path d="M439.72 327.18C440.6 326.45 442.52 328.22 441.16 329.02 439.8 329.82 437.88 328.7 439.72 327.18Z" fill="#FFB850"/></g></g></g><g><path d="M482.73 344.15C482.73 344.15 472.42 387.62 467.37 387.83 462.32 388.05 447.35 351.18 447.35 351.18L450.91 349.64C450.91 349.64 462.67 379.71 467.15 379.71 470.22 379.71 477.68 346.56 477.68 346.56L482.73 344.15Z" fill="#701000"/><path d="M504.34 352.39C504.34 352.39 494.03 395.86 488.98 396.07 483.93 396.29 468.96 359.42 468.96 359.42L472.52 357.88C472.52 357.88 484.28 387.95 488.76 387.95 491.83 387.95 499.29 354.8 499.29 354.8L504.34 352.39Z" fill="#AF2708"/></g><g><path d="M425.31 354.56 408.05 400.35C407.51 401.78 408.19 403.38 409.6 403.98L409.6 403.98C410.96 404.56 412.53 404.01 413.24 402.72L438.27 356.66 425.31 354.56Z" fill="#701000"/><ellipse cx="411.29" cy="400.11" rx="18.22" ry="18.22" fill="#3D3D3D" transform="matrix(0.7071 -0.7071 0.7071 0.7071 -162.456 408.018)"/><ellipse cx="417.31" cy="401.92" rx="18.22" ry="18.22" fill="#6C6C6C" transform="matrix(0.2298 -0.9732 0.9732 0.2298 -69.7317 715.721)"/><circle cx="417.31" cy="401.92" r="7.31" fill="#3D3D3D"/><path d="M444.28 358.48 435.84 374 419.25 404.52C418.75 405.47 417.77 406.01 416.75 406.01 416.37 406.01 415.99 405.94 415.62 405.78 414.21 405.18 413.53 403.58 414.07 402.15L423.51 377.09 431.32 356.36 444.28 358.48Z" fill="#AF2708"/><path d="M444.28 358.48 435.84 374 423.51 377.1 431.33 356.37Z" fill="#701000"/></g><g><g><g><path d="M369.64 320.49 414.48 334.16 431.65 372.7 396.61 361.48Z" fill="#701000"/></g><path d="M523.44 299.12 522.82 301.05 505.58 354.83 450.37 368.17 431.65 372.7 414.48 334.16Z" fill="#AF2708"/><path d="M522.82 301.05 505.58 354.83 450.37 368.17C493.64 344.14 515.37 313.4 522.82 301.05Z" fill="#9E1600"/></g></g></g></g><g><path d="M570.05 172.08C570.05 172.08 561.93 182.74 555.2 181.82 548.48 180.88 552.54 174.85 552.54 174.85 552.54 174.85 552.04 172.16 551.52 169.31 550.94 166.13 550.32 162.75 550.32 162.56L568.41 150.27 568.79 155.34 570.05 172.08Z" fill="#F08D63"/><path d="M568.8 155.33C566.9 159.6 561.86 168.09 551.52 169.31 550.94 166.13 550.32 162.75 550.32 162.56L568.41 150.27 568.8 155.33Z" fill="#DD7957"/><g><path d="M545.13 121.97C545.13 121.97 541.02 126.56 540.54 136.72 540.06 146.88 539.09 157.76 544.65 162.59 550.21 167.43 562.06 162.35 566.65 153.64 566.65 153.64 569.79 140.58 569.55 128.73 569.31 116.89 548.27 110.85 545.13 121.97Z" fill="#F08D63"/><g><path d="M549.66 137.22C549.66 137.22 549.47 135.92 550.77 134.74 552.07 133.56 558.14 134.37 559.19 137.47 559.2 137.47 553.81 135.61 549.66 137.22Z" fill="#5D291B"/><path d="M544.9 137.22C544.9 137.22 545.23 136.41 544.65 135.24 544.07 134.06 541.1 134.37 540.62 137.47 540.62 137.47 543.03 135.61 544.9 137.22Z" fill="#5D291B"/><g><path d="M554.55 141.52C554.55 142.91 553.72 144.03 552.69 144.03 551.66 144.03 550.83 142.91 550.83 141.52 550.83 140.13 551.66 139.01 552.69 139.01 553.72 139.01 554.55 140.14 554.55 141.52Z" fill="#5D291B"/><path d="M553.63 140.66C553.63 141.07 553.36 141.41 553.02 141.41 552.68 141.41 552.41 141.08 552.41 140.66 552.41 140.24 552.68 139.91 553.02 139.91 553.36 139.91 553.63 140.25 553.63 140.66Z" fill="#FEFEFE"/></g><g><path d="M545.65 141.52C545.65 142.91 544.82 144.03 543.79 144.03 542.76 144.03 541.93 142.91 541.93 141.52 541.93 140.13 542.76 139.01 543.79 139.01 544.82 139.01 545.65 140.14 545.65 141.52Z" fill="#5D291B"/><path d="M544.73 140.66C544.73 141.07 544.46 141.41 544.12 141.41 543.78 141.41 543.51 141.08 543.51 140.66 543.51 140.24 543.78 139.91 544.12 139.91 544.46 139.91 544.73 140.25 544.73 140.66Z" fill="#FEFEFE"/></g><path d="M546.88 144.45C546.88 144.45 544.39 147.22 543.19 150.26 541.99 153.3 546.83 153.49 548.86 151.78 548.86 151.78 544.56 152.81 544.25 150.63 544.02 149.02 546.88 144.45 546.88 144.45Z" fill="#5D291B"/><g><path d="M556.13 154.07C555.94 155.05 555.52 156.31 554.57 157.43 553.21 159.03 550.77 160.28 546.41 159.86L546.1 158.68 545.35 155.83 544.9 154.09C544.9 154.09 548.93 155.6 556.3 152.43 556.29 152.42 556.33 153.1 556.13 154.07Z" fill="#5D291B"/><path d="M556.13 154.07C551.55 156.39 547.08 156.08 545.34 155.82L544.89 154.08C544.89 154.08 548.92 155.59 556.29 152.42 556.29 152.42 556.33 153.1 556.13 154.07Z" fill="#FEFEFE"/><path d="M554.57 157.42C553.21 159.02 550.77 160.27 546.41 159.85L546.1 158.67C546.33 158.48 546.56 158.3 546.79 158.15 549.18 156.48 551.78 156.66 553.53 157.1 553.91 157.2 554.27 157.31 554.57 157.42Z" fill="#FF6652"/><path d="M554.57 157.42C553.21 159.02 550.77 160.27 546.41 159.85L546.1 158.67C546.33 158.48 546.56 158.3 546.79 158.15 546.87 158.46 547.08 158.77 547.47 159.1 548.76 160.16 552.78 158.88 553.53 157.1 553.91 157.2 554.27 157.31 554.57 157.42Z" fill="#E2493D"/></g></g><path d="M579.51 134.74C579.32 136.47 578.94 138.27 578.38 140.13 575.28 150.39 568.61 152.79 568.61 152.79L568.5 143.61 564.63 145.55 564.43 137.22C563.21 136.66 562.38 135.7 561.81 134.58 560.22 131.46 560.75 127.14 560.75 127.14 560.74 127.14 560.72 127.15 560.71 127.15 559.76 127.49 541.53 133.87 539.26 124.62 539.03 123.7 538.91 122.81 538.88 121.97 538.51 114.29 545.45 110.67 545.45 110.67 546.03 113.77 548.55 112.99 559.97 113.2 571.41 113.39 572.56 120.17 572.56 120.17 577.63 120.96 580.38 126.95 579.51 134.74Z" fill="#5D291B"/><path d="M568.92 122.36C568.92 122.36 565.81 124.94 560.74 127.14 560.73 127.14 560.71 127.15 560.7 127.15 559.75 127.49 541.52 133.87 539.25 124.62 539.02 123.7 538.9 122.81 538.87 121.97 539.35 123.21 540.31 124.46 542.12 125.46 547.93 128.71 562.25 122.88 562.25 122.88 562.25 122.88 559.4 123.36 553.85 122.31 548.32 121.25 546.41 119.06 546.41 119.06 546.41 119.06 551.57 120.77 557.5 120.11 563.41 119.44 566.22 121.26 566.22 121.26 566.22 121.26 565.17 117.89 560.19 117.32 555.2 116.76 552.81 114.47 552.81 114.47 552.81 114.47 556.6 116.09 562.25 116.09 567.9 116.1 571.2 117.92 572.56 120.17 572.56 120.17 570.5 121.83 565.52 122.41 565.53 122.41 566.82 122.5 568.92 122.36Z" fill="#441A11"/><path d="M579.51 134.74C579.32 136.47 578.94 138.27 578.38 140.13 575.28 150.39 568.61 152.79 568.61 152.79L568.5 143.61 564.63 145.55 564.43 137.22C563.21 136.66 562.38 135.7 561.81 134.58 563.98 135.83 567.26 137.19 571.36 137.03 571.36 137.03 569.65 136.6 567.43 133.16 567.65 133.36 569.59 135.03 573.64 135.61 573.64 135.61 571.87 133.84 571.06 132.68 571.41 133.02 573.02 134.46 576.3 135.06 577.51 135.27 578.6 135.09 579.51 134.74Z" fill="#441A11"/><path d="M565.52 146.56 566.8 142.04C566.8 142.04 570.28 138.79 573.41 141.34 576.54 143.89 571.9 152.13 565.87 153.4L565.52 146.56Z" fill="#F08D63"/><path d="M567.89 145.93C567.89 145.93 569.47 142.41 571.49 142.47 573.51 142.53 573.31 144.83 573.31 144.83 573.31 144.83 570.13 150.17 567.48 149.23 567.48 149.23 569.05 148.18 568.85 147.07 568.66 145.95 567.89 145.93 567.89 145.93Z" fill="#DD7957"/><path d="M567.48 149.23C567.48 149.23 568.91 148.33 568.88 147.4 568.85 146.47 567.61 146.15 567.61 146.15 567.61 146.15 568.8 142.04 571.43 142.04 574.05 142.04 573.31 144.82 573.31 144.82 573.31 144.82 573.36 142.67 571.56 142.62 569.76 142.57 568.67 145.83 568.67 145.83 568.67 145.83 571.38 147.61 567.48 149.23Z" fill="#5D291B"/></g></g></g></g></g></g></g></svg>