<svg width="410" height="278" xmlns="http://www.w3.org/2000/svg" xmlns:xlink="http://www.w3.org/1999/xlink" overflow="hidden"><g transform="translate(-180 -345)"><path d="M212.593 622 564.954 622C564.954 622 602.249 598.984 583.945 563.647 573.904 544.254 546.307 534.949 564.573 507.132 582.84 479.314 553.987 429.057 509.691 444.074 472.538 456.672 461.429 405.63 434.287 388.178 406.644 370.405 361.407 381.032 339.674 425.644 320.601 464.797 307.459 495.579 249.627 481.443 211.614 472.153 148.223 528.893 212.593 622Z" fill="#C2E2EF" fill-rule="evenodd"/><path d="M308.608 425.876C314.243 433.204 309.582 446.143 298.206 454.769 286.822 463.402 273.028 464.452 267.392 457.124 261.757 449.796 266.418 436.857 277.794 428.231 289.171 419.598 302.972 418.548 308.608 425.876Z" fill="#C2E2EF" fill-rule="evenodd"/><path d="M502.095 421.936C496.22 425.295 487.377 420.436 482.355 411.084 477.333 401.732 478.03 391.424 483.905 388.064 489.78 384.705 498.623 389.564 503.645 398.916 508.667 408.268 507.97 418.576 502.095 421.936Z" fill="#C2E2EF" fill-rule="evenodd"/><path d="M294 357C294 360.315 291.315 363 288 363 284.685 363 282 360.315 282 357 282 353.685 284.685 351 288 351 291.308 351 294 353.685 294 357Z" fill="#E9FBFF" fill-rule="evenodd"/><path d="M427 351.5C427 354.539 424.315 357 421 357 417.685 357 415 354.539 415 351.5 415 348.461 417.685 346 421 346 424.315 346 427 348.461 427 351.5Z" fill="#E9FBFF" fill-rule="evenodd"/><path d="M199 468C199 470.213 197.207 472 195.004 472 192.793 472 191 470.205 191 468 191 465.787 192.793 464 195.004 464 197.207 464 199 465.787 199 468Z" fill="#E9FBFF" fill-rule="evenodd"/><path d="M469 460.5C469 462.437 467.207 464 465.004 464 462.793 464 461 462.43 461 460.5 461 458.563 462.793 457 465.004 457 467.207 457 469 458.563 469 460.5Z" fill="#E9FBFF" fill-rule="evenodd"/><path d="M410 601C410 603.213 408.205 605 406 605 403.787 605 402 603.205 402 601 402 598.787 403.787 597 406 597 408.205 596.992 410 598.787 410 601Z" fill="#E9FBFF" fill-rule="evenodd"/><path d="M549 398.5C549 400.437 547.205 402 545 402 542.787 402 541 400.43 541 398.5 541 396.563 542.795 395 545 395 547.205 395 549 396.563 549 398.5Z" fill="#E9FBFF" fill-rule="evenodd"/><path d="M513 517C513 519.213 511.43 521 509.5 521 507.563 521 506 519.205 506 517 506 514.787 507.563 513 509.5 513 511.437 513 513 514.787 513 517Z" fill="#E9FBFF" fill-rule="evenodd"/><path d="M576 546.497C576 548.431 574.43 550 572.5 550 570.563 550 569 548.431 569 546.497 569 544.562 570.563 543 572.5 543 574.43 543 576 544.562 576 546.497Z" fill="#E9FBFF" fill-rule="evenodd"/><path d="M451 570C451 572.213 449.431 574 447.504 574 445.569 574 444 572.205 444 570 444 567.787 445.569 566 447.504 566 449.431 566 451 567.787 451 570Z" fill="#E9FBFF" fill-rule="evenodd"/><path d="M232 387C232 389.213 230.43 391 228.5 391 226.563 391 225 389.205 225 387 225 384.787 226.563 383 228.5 383 230.43 382.992 232 384.787 232 387Z" fill="#E9FBFF" fill-rule="evenodd"/><path d="M419 399.497C419 401.431 417.207 403 414.996 403 412.785 403 411 401.431 411 399.497 411 397.562 412.793 396 414.996 396 417.207 395.993 419 397.562 419 399.497Z" fill="#E9FBFF" fill-rule="evenodd"/><path d="M206 604.5C206 607.539 203.317 610 200.004 610 196.691 610 194 607.539 194 604.5 194 601.461 196.683 599 200.004 599 203.309 599 206 601.461 206 604.5Z" fill="#E9FBFF" fill-rule="evenodd"/><path d="M573 600C573 603.315 570.315 606 567 606 563.685 606 561 603.315 561 600 561 596.685 563.685 594 567 594 570.308 593.992 573 596.685 573 600Z" fill="#E9FBFF" fill-rule="evenodd"/><path d="M582 491C582 494.315 579.315 497 576 497 572.685 497 570 494.315 570 491 570 487.685 572.685 485 576 485 579.315 485 582 487.685 582 491Z" fill="#E9FBFF" fill-rule="evenodd"/><path d="M294.374 529C294.374 529 304.922 523.482 303.935 513.061 302.932 502.671 297.647 496.194 296.797 496.001 295.954 495.808 281.366 518.869 294.374 529L294.374 529Z" fill="#8AB839" fill-rule="evenodd"/><path d="M275 508.428C275 508.428 268.04 498.899 257.673 500.106 247.306 501.312 242.186 505.881 242.001 506.735 241.919 507.23 248.093 513.26 256.627 514.721 262.741 515.77 270.874 513.904 275 508.428L275 508.428Z" fill="#8AB839" fill-rule="evenodd"/><path d="M275.376 509C275.376 509 286.133 504.275 285.999 493.724 285.857 483.172 281.216 476.257 280.389 476.002 279.577 475.732 263.456 497.803 275.376 509L275.376 509Z" fill="#8AB839" fill-rule="evenodd"/><path d="M295 529.104C295 529.104 286.67 520.832 276.552 523.547 266.456 526.285 262.052 531.546 262 532.396 261.985 532.892 269.019 537.842 277.714 537.997 283.95 538.101 291.744 535.038 295 529.104L295 529.104Z" fill="#8AB839" fill-rule="evenodd"/><path d="M254 482.43C254 482.43 247.047 472.893 236.673 474.107 226.307 475.313 221.194 479.905 221.001 480.737 220.912 481.232 227.093 487.278 235.627 488.724 241.741 489.765 249.882 487.907 254 482.43L254 482.43Z" fill="#8AB839" fill-rule="evenodd"/><path d="M254.373 482C254.373 482 265.133 477.299 264.999 466.742 264.842 456.2 260.215 449.265 259.388 449.002 258.583 448.733 242.457 470.813 254.373 482L254.373 482Z" fill="#8AB839" fill-rule="evenodd"/><path d="M235 450.289C235 450.289 230.244 439.316 219.823 438.217 209.402 437.118 203.364 440.506 203.006 441.309 202.812 441.764 207.575 449.099 215.611 452.426 221.418 454.812 229.789 454.775 235 450.289L235 450.289Z" fill="#8AB839" fill-rule="evenodd"/><path d="M235.263 450C235.263 450 246.264 447.773 248.282 437.482 250.328 427.184 247.422 419.427 246.725 419.008 246.022 418.567 226.486 436.518 235.263 450L235.263 450Z" fill="#8AB839" fill-rule="evenodd"/><path d="M222.674 422C222.674 422 231.314 412.297 226.585 401.583 221.863 390.868 214.237 385.904 213.318 386.001 212.753 386.076 208.683 396.574 210.435 406.546 211.565 413.085 216.055 419.601 222.674 422L222.674 422Z" fill="#8AB839" fill-rule="evenodd"/><path d="M305 537.694C304.829 537.536 244.899 487.934 222.602 418L221 418.54C243.453 488.94 303.747 538.842 303.925 539L305 537.694Z" fill="#729624" fill-rule="evenodd"/><path d="M473.826 604C473.826 604 463.986 597.203 466.373 586.999 468.768 576.833 474.923 571.082 475.806 571 476.665 570.919 488.209 595.607 473.826 604L473.826 604Z" fill="#8AB839" fill-rule="evenodd"/><path d="M496 586.418C496 586.418 504.131 577.939 514.276 580.473 524.422 582.999 528.918 588.157 529 589.019 529.015 589.517 522.11 594.652 513.451 594.987 507.23 595.224 499.389 592.341 496 586.418L496 586.418Z" fill="#8AB839" fill-rule="evenodd"/><path d="M495.956 587C495.956 587 485.631 580.804 487.153 570.161 488.683 559.518 494.327 553.154 495.191 553.001 496.055 552.833 509.569 577.274 495.956 587L495.956 587Z" fill="#8AB839" fill-rule="evenodd"/><path d="M474 604.488C474 604.488 483.249 597.137 492.845 601.251 502.405 605.38 506.058 611.329 505.999 612.206 505.955 612.716 498.411 616.837 489.841 615.847 483.692 615.131 476.436 610.979 474 604.488L474 604.488Z" fill="#8AB839" fill-rule="evenodd"/><path d="M520 562.852C520 562.852 528.135 553.806 538.277 556.502 548.427 559.197 552.918 564.723 553 565.619 553.022 566.15 546.107 571.645 537.444 571.986 531.235 572.239 523.383 569.171 520 562.852L520 562.852Z" fill="#8AB839" fill-rule="evenodd"/><path d="M519.962 563C519.962 563 509.631 556.82 511.153 546.18 512.705 535.547 518.325 529.161 519.205 529.001 520.053 528.84 533.565 553.276 519.962 563L519.962 563Z" fill="#8AB839" fill-rule="evenodd"/><path d="M544 533.776C544 533.776 550.131 523.731 560.649 524.006 571.166 524.28 576.743 528.338 576.998 529.162 577.133 529.629 571.451 536.135 563.029 538.339 556.951 539.911 548.611 538.791 544 533.776L544 533.776Z" fill="#8AB839" fill-rule="evenodd"/><path d="M543.415 534C543.415 534 531.909 530.219 531.109 519.511 530.279 508.787 534.43 501.333 535.237 501.004 536.044 500.653 554.623 521.55 543.415 534L543.415 534Z" fill="#8AB839" fill-rule="evenodd"/><path d="M558.871 507C558.871 507 551.181 496.368 557.478 486.505 563.768 476.642 572.321 472.787 573.259 473.009 573.834 473.157 576.68 483.96 573.569 493.497 571.541 499.742 566.039 505.52 558.871 507L558.871 507Z" fill="#8AB839" fill-rule="evenodd"/><path d="M462 610.571C462.194 610.437 528.281 569.218 559.472 503L561 503.741C529.593 570.4 463.103 611.865 462.909 612L462 610.571Z" fill="#729624" fill-rule="evenodd"/><path d="M379.672 546.457C379.672 546.457 397.831 550.447 414.939 536.801 448.51 509.982 420.051 466.768 387.156 505.293 372.562 522.388 379.829 545.397 379.672 546.457L379.672 546.457Z" fill="#8AB839" fill-rule="evenodd"/><path d="M419 503C419 503 417.209 506.156 414.168 510.684 413.417 511.819 412.57 513.036 411.678 514.319 410.786 515.602 409.805 516.929 408.801 518.308 407.761 519.665 406.727 521.096 405.597 522.489 404.482 523.898 403.353 525.336 402.171 526.722 401.583 527.422 400.996 528.123 400.416 528.823 399.814 529.509 399.212 530.188 398.617 530.859 398.015 531.53 397.435 532.208 396.833 532.857 396.231 533.499 395.629 534.14 395.042 534.767 394.447 535.386 393.882 536.013 393.302 536.603 392.715 537.186 392.143 537.761 391.585 538.314 390.47 539.435 389.415 540.489 388.381 541.411 387.363 542.347 386.434 543.203 385.609 543.97 384.754 544.7 384.003 545.334 383.386 545.857 382.152 546.904 381.446 547.502 381.446 547.502 380.569 548.247 379.253 548.143 378.502 547.281 377.752 546.41 377.856 545.105 378.725 544.36 378.763 544.331 378.8 544.301 378.837 544.272L378.911 544.213C378.911 544.213 379.632 543.682 380.896 542.753 381.528 542.288 382.293 541.728 383.178 541.079 384.033 540.401 384.999 539.626 386.047 538.786 387.11 537.96 388.218 537.009 389.385 535.991 389.972 535.49 390.574 534.966 391.184 534.435 391.793 533.897 392.396 533.322 393.02 532.754 393.644 532.179 394.276 531.596 394.908 531.006 395.547 530.409 396.164 529.782 396.796 529.163 397.428 528.543 398.067 527.909 398.714 527.282 399.338 526.633 399.963 525.985 400.595 525.336 401.866 524.045 403.078 522.711 404.282 521.398 405.493 520.093 406.623 518.751 407.753 517.482 408.846 516.185 409.916 514.938 410.89 513.729 411.871 512.52 412.801 511.377 413.626 510.293 416.986 506.023 419 503 419 503Z" fill="#729624" fill-rule="evenodd"/><path d="M403 536.894C401.979 537.144 400.951 537.299 399.931 537.447 399.421 537.52 398.91 537.572 398.4 537.631 397.889 537.697 397.379 537.734 396.869 537.778 394.828 537.94 392.786 538.007 390.745 537.999 390.154 537.999 389.659 537.565 389.557 536.997L389.557 536.982C389.083 534.358 388.696 531.719 388.419 529.057 388.273 527.73 388.186 526.389 388.091 525.055 388.033 523.713 387.967 522.364 388.018 521 388.529 522.268 388.915 523.551 389.316 524.833 389.681 526.123 390.052 527.413 390.359 528.711 391 531.306 391.518 533.923 391.962 536.555L390.774 535.537C392.815 535.574 394.857 535.685 396.898 535.884 397.408 535.943 397.919 535.987 398.429 536.068 398.939 536.142 399.45 536.201 399.96 536.282 400.966 536.444 401.987 536.621 403 536.894Z" fill="#729624" fill-rule="evenodd"/><path d="M421 521.619C419.599 521.959 418.183 522.217 416.774 522.461 416.066 522.594 415.366 522.69 414.658 522.801 413.95 522.911 413.249 523.015 412.541 523.103 411.125 523.288 409.709 523.465 408.293 523.613 406.877 523.753 405.461 523.886 404.038 523.997 403.434 524.041 402.905 523.65 402.756 523.096L402.749 523.066C401.892 519.781 401.117 516.474 400.468 513.137L400.006 510.626C399.857 509.792 399.738 508.943 399.596 508.101 399.47 507.26 399.358 506.411 399.253 505.562 399.156 504.713 399.06 503.864 399 503 399.358 503.79 399.671 504.58 399.984 505.377 400.282 506.175 400.595 506.979 400.871 507.784 401.146 508.589 401.437 509.393 401.698 510.206L402.473 512.635C403.479 515.883 404.351 519.168 405.141 522.468L403.852 521.538C405.275 521.457 406.699 521.398 408.122 521.354 409.545 521.309 410.969 521.294 412.4 521.294 413.115 521.287 413.823 521.294 414.539 521.309 415.254 521.324 415.97 521.324 416.685 521.361 418.131 521.405 419.562 521.479 421 521.619Z" fill="#729624" fill-rule="evenodd"/><path d="M231.326 585.457C231.326 585.457 213.167 589.447 196.06 575.801 162.491 548.982 190.948 505.768 223.842 544.293 238.434 561.388 231.176 584.405 231.326 585.457L231.326 585.457Z" fill="#8AB839" fill-rule="evenodd"/><path d="M192 542C192 542 194.014 545.023 197.367 549.306 198.192 550.383 199.121 551.525 200.102 552.734 201.076 553.943 202.154 555.189 203.239 556.487 204.369 557.755 205.491 559.097 206.71 560.402 207.915 561.714 209.126 563.056 210.397 564.339 211.022 564.987 211.654 565.636 212.278 566.285 212.917 566.912 213.556 567.538 214.196 568.165 214.835 568.784 215.452 569.411 216.084 570.008 216.723 570.598 217.355 571.18 217.972 571.755 218.596 572.323 219.198 572.898 219.808 573.436 220.425 573.967 221.027 574.483 221.607 574.992 222.774 576.009 223.881 576.96 224.944 577.786 226 578.627 226.959 579.393 227.813 580.079 228.691 580.728 229.464 581.288 230.095 581.753 231.359 582.682 232.08 583.212 232.08 583.212L232.154 583.264C233.084 583.942 233.277 585.24 232.586 586.161 231.902 587.083 230.593 587.275 229.664 586.589 229.627 586.559 229.583 586.53 229.545 586.5 229.545 586.5 228.839 585.903 227.605 584.856 226.988 584.333 226.245 583.699 225.39 582.969 224.565 582.21 223.636 581.347 222.618 580.411 221.592 579.489 220.529 578.435 219.414 577.314 218.856 576.761 218.284 576.186 217.697 575.604 217.117 575.014 216.545 574.387 215.957 573.761 215.37 573.134 214.775 572.5 214.166 571.851 213.564 571.202 212.984 570.524 212.382 569.853 211.787 569.175 211.185 568.497 210.583 567.819 209.996 567.118 209.416 566.418 208.829 565.717 207.647 564.331 206.517 562.894 205.402 561.486 204.28 560.085 203.239 558.655 202.198 557.305 201.195 555.919 200.214 554.6 199.322 553.317 198.422 552.034 197.582 550.825 196.832 549.682 193.791 545.163 192 542 192 542Z" fill="#729624" fill-rule="evenodd"/><path d="M208 575.887C209.02 575.614 210.032 575.445 211.052 575.275 211.562 575.194 212.071 575.135 212.581 575.062 213.091 574.988 213.601 574.936 214.111 574.877 216.15 574.678 218.189 574.568 220.229 574.531L219.041 575.548C219.486 572.917 220.003 570.301 220.644 567.708 220.95 566.411 221.321 565.121 221.685 563.832 222.086 562.549 222.472 561.26 222.982 560 223.033 561.363 222.967 562.704 222.909 564.053 222.822 565.394 222.734 566.728 222.581 568.054 222.304 570.714 221.918 573.352 221.445 575.975L221.445 575.99C221.336 576.58 220.833 576.992 220.258 577 218.218 577.007 216.179 576.941 214.14 576.778 213.63 576.734 213.12 576.69 212.61 576.631 212.101 576.572 211.591 576.521 211.081 576.447 210.047 576.285 209.027 576.137 208 575.887Z" fill="#729624" fill-rule="evenodd"/><path d="M190 560.62C191.439 560.473 192.871 560.406 194.303 560.354 195.019 560.318 195.735 560.318 196.451 560.303 197.167 560.288 197.883 560.281 198.591 560.288 200.016 560.295 201.447 560.303 202.872 560.347 204.296 560.391 205.721 560.458 207.145 560.532L205.855 561.461C206.645 558.162 207.525 554.878 208.525 551.631L209.3 549.203C209.561 548.391 209.852 547.594 210.128 546.782 210.412 545.978 210.717 545.181 211.016 544.376 211.329 543.579 211.65 542.782 212 542 211.94 542.863 211.843 543.712 211.746 544.561 211.635 545.41 211.53 546.251 211.396 547.1 211.262 547.941 211.135 548.782 210.986 549.624L210.523 552.133C209.875 555.469 209.099 558.775 208.241 562.059L208.234 562.089C208.085 562.664 207.533 563.041 206.951 562.997 205.534 562.886 204.11 562.753 202.693 562.613 201.276 562.465 199.859 562.288 198.442 562.104 197.734 562.022 197.025 561.912 196.324 561.801 195.616 561.69 194.907 561.594 194.206 561.461 192.819 561.218 191.409 560.96 190 560.62Z" fill="#729624" fill-rule="evenodd"/><path d="M422 474.498 399.004 488 376 474.498 376 447.502 399.004 434 422 447.502Z" stroke="#8787A0" stroke-width="2.2" stroke-miterlimit="8" fill="none" fill-rule="evenodd"/><path d="M422 448 446 434" stroke="#8787A0" stroke-width="2.2" stroke-miterlimit="8" fill="none" fill-rule="evenodd"/><path d="M446 488 422 475" stroke="#8787A0" stroke-width="2.2" stroke-miterlimit="8" fill="none" fill-rule="evenodd"/><path d="M377 475 353 488" stroke="#8787A0" stroke-width="2.2" stroke-miterlimit="8" fill="none" fill-rule="evenodd"/><path d="M399 409 399 433" stroke="#8787A0" stroke-width="2.2" stroke-miterlimit="8" fill="none" fill-rule="evenodd"/><path d="M403 434C403 436.211 401.209 438 398.996 438 396.791 438 395 436.211 395 434 395 431.789 396.791 430 398.996 430 401.209 430.007 403 431.796 403 434Z" fill="#8787A0" fill-rule="evenodd"/><path d="M403 488C403 490.211 401.209 492 398.996 492 396.791 492 395 490.211 395 488 395 485.789 396.791 484 398.996 484 401.209 484 403 485.789 403 488Z" fill="#8787A0" fill-rule="evenodd"/><path d="M426 448C426 450.211 424.209 452 421.996 452 419.783 452 418 450.211 418 448 418 445.789 419.791 444 421.996 444 424.209 444 426 445.789 426 448Z" fill="#8787A0" fill-rule="evenodd"/><path d="M450 434C450 436.211 448.209 438 445.996 438 443.791 438 442 436.211 442 434 442 431.789 443.791 430 445.996 430 448.209 430.007 450 431.796 450 434Z" fill="#8787A0" fill-rule="evenodd"/><path d="M403 409C403 411.211 401.209 413 398.996 413 396.791 413 395 411.211 395 409 395 406.796 396.791 405 398.996 405 401.209 405 403 406.789 403 409Z" fill="#8787A0" fill-rule="evenodd"/><path d="M450 488C450 490.211 448.209 492 445.996 492 443.791 492 442 490.211 442 488 442 485.789 443.791 484 445.996 484 448.209 484 450 485.789 450 488Z" fill="#8787A0" fill-rule="evenodd"/><path d="M358 488C358 490.211 355.987 492 353.5 492 351.013 492 349 490.211 349 488 349 485.789 351.013 484 353.5 484 355.987 484 358 485.789 358 488Z" fill="#8787A0" fill-rule="evenodd"/><path d="M426 474C426 476.204 424.209 478 421.996 478 419.783 478 418 476.211 418 474 418 471.789 419.791 470 421.996 470 424.209 470 426 471.789 426 474Z" fill="#8787A0" fill-rule="evenodd"/><path d="M380 448C380 450.211 378.209 452 375.996 452 373.791 452 372 450.211 372 448 372 445.789 373.791 444 375.996 444 378.209 444 380 445.789 380 448Z" fill="#8787A0" fill-rule="evenodd"/><path d="M380 474C380 476.204 378.209 478 375.996 478 373.791 478 372 476.211 372 474 372 471.789 373.791 470 375.996 470 378.209 470 380 471.789 380 474Z" fill="#8787A0" fill-rule="evenodd"/><path d="M308 370 390 370 390 602 308 602Z" fill="#91BFF3" fill-rule="evenodd"/><path d="M371 370 390 370 390 602 371 602Z" fill="#7FB5EA" fill-rule="evenodd"/><path d="M325 486 372 486" stroke="#FFFFFF" stroke-width="3.74289" stroke-miterlimit="8" fill="none" fill-rule="evenodd"/><path d="M329 474 368 474" stroke="#FFFFFF" stroke-width="3.74289" stroke-miterlimit="8" fill="none" fill-rule="evenodd"/><path d="M335 463 363 463" stroke="#FFFFFF" stroke-width="2.49522" stroke-miterlimit="8" fill="none" fill-rule="evenodd"/><path d="M342 455 356 455" stroke="#FFFFFF" stroke-width="2.49522" stroke-miterlimit="8" fill="none" fill-rule="evenodd"/><path d="M329 500 368 500" stroke="#FFFFFF" stroke-width="3.74289" stroke-miterlimit="8" fill="none" fill-rule="evenodd"/><path d="M335 511 363 511" stroke="#FFFFFF" stroke-width="2.49522" stroke-miterlimit="8" fill="none" fill-rule="evenodd"/><path d="M342 518 356 518" stroke="#FFFFFF" stroke-width="2.49522" stroke-miterlimit="8" fill="none" fill-rule="evenodd"/><path d="M329 486C329 488.215 327.209 490 325.004 490 322.791 490 321 488.207 321 486 321 483.785 322.791 482 325.004 482 327.209 482 329 483.793 329 486Z" fill="#EF553C" fill-rule="evenodd"/><path d="M333 474C333 476.215 331.209 478 329.004 478 326.791 478 325 476.207 325 474 325 471.785 326.791 470 329.004 470 331.209 469.992 333 471.785 333 474Z" fill="#EF553C" fill-rule="evenodd"/><path d="M338 463.003C338 464.659 336.659 466 335.003 466 333.348 466 332 464.659 332 463.003 332 461.348 333.341 460 335.003 460 336.659 460.007 338 461.348 338 463.003Z" fill="#EF553C" fill-rule="evenodd"/><path d="M345 455.5C345 456.882 343.882 458 342.5 458 341.126 458 340 456.882 340 455.5 340 454.118 341.118 453 342.5 453 343.882 453.008 345 454.126 345 455.5Z" fill="#EF553C" fill-rule="evenodd"/><path d="M351 450C351 451.108 350.1 452 349 452 347.892 452 347 451.1 347 450 347 448.892 347.9 448 349 448 350.1 447.992 351 448.892 351 450Z" fill="#EF553C" fill-rule="evenodd"/><path d="M333 499.996C333 497.791 331.209 496 329.004 496 326.791 496 325 497.791 325 499.996 325 502.209 326.791 504 329.004 504 331.209 504 333 502.209 333 499.996Z" fill="#EF553C" fill-rule="evenodd"/><path d="M338 510.997C338 509.341 336.659 508 335.003 508 333.348 508 332 509.341 332 510.997 332 512.652 333.341 514 335.003 514 336.659 514 338 512.652 338 510.997Z" fill="#EF553C" fill-rule="evenodd"/><path d="M345 518.496C345 517.112 343.882 516 342.5 516 341.126 516 340 517.12 340 518.496 340 519.88 341.118 521 342.5 521 343.882 521 345 519.88 345 518.496Z" fill="#EF553C" fill-rule="evenodd"/><path d="M368 486C368 488.215 369.791 490 371.996 490 374.209 490 376 488.207 376 486 376 483.785 374.209 482 371.996 482 369.791 482 368 483.793 368 486Z" fill="#49A3E4" fill-rule="evenodd"/><path d="M364 474C364 476.215 365.791 478 367.996 478 370.209 478 372 476.207 372 474 372 471.785 370.209 470 367.996 470 365.791 469.992 364 471.785 364 474Z" fill="#49A3E4" fill-rule="evenodd"/><path d="M359 463.003C359 464.659 360.564 466 362.504 466 364.436 466 366 464.659 366 463.003 366 461.348 364.436 460 362.504 460 360.564 460.007 359 461.348 359 463.003Z" fill="#49A3E4" fill-rule="evenodd"/><path d="M353 455.5C353 456.882 354.118 458 355.5 458 356.882 458 358 456.882 358 455.5 358 454.118 356.882 453 355.5 453 354.118 453.008 353 454.126 353 455.5Z" fill="#49A3E4" fill-rule="evenodd"/><path d="M364 499.996C364 497.791 365.791 496 367.996 496 370.209 496 372 497.791 372 499.996 372 502.209 370.209 504 367.996 504 365.791 504 364 502.209 364 499.996Z" fill="#49A3E4" fill-rule="evenodd"/><path d="M359 510.997C359 509.341 360.564 508 362.504 508 364.436 508 366 509.341 366 510.997 366 512.652 364.436 514 362.504 514 360.564 514 359 512.652 359 510.997Z" fill="#49A3E4" fill-rule="evenodd"/><path d="M353 518.496C353 517.112 354.118 516 355.5 516 356.882 516 358 517.12 358 518.496 358 519.88 356.882 521 355.5 521 354.118 521 353 519.88 353 518.496Z" fill="#49A3E4" fill-rule="evenodd"/><path d="M351 524C351 522.892 350.1 522 349 522 347.892 522 347 522.9 347 524 347 525.108 347.9 526 349 526 350.1 526 351 525.1 351 524Z" fill="#49A3E4" fill-rule="evenodd"/><path d="M372 412 325 412" stroke="#FFFFFF" stroke-width="3.74289" stroke-miterlimit="8" fill="none" fill-rule="evenodd"/><path d="M369 400 329 400" stroke="#FFFFFF" stroke-width="3.74289" stroke-miterlimit="8" fill="none" fill-rule="evenodd"/><path d="M363 389 335 389" stroke="#FFFFFF" stroke-width="2.49522" stroke-miterlimit="8" fill="none" fill-rule="evenodd"/><path d="M356 381 342 381" stroke="#FFFFFF" stroke-width="2.49522" stroke-miterlimit="8" fill="none" fill-rule="evenodd"/><path d="M369 426 329 426" stroke="#FFFFFF" stroke-width="3.74289" stroke-miterlimit="8" fill="none" fill-rule="evenodd"/><path d="M363 437 335 437" stroke="#FFFFFF" stroke-width="2.49522" stroke-miterlimit="8" fill="none" fill-rule="evenodd"/><path d="M356 444 342 444" stroke="#FFFFFF" stroke-width="2.49522" stroke-miterlimit="8" fill="none" fill-rule="evenodd"/><path d="M368 412C368 414.215 369.793 416 372 416 374.207 416 376 414.207 376 412 376 409.785 374.207 408 372 408 369.793 407.992 368 409.785 368 412Z" fill="#EF553C" fill-rule="evenodd"/><path d="M364 400.004C364 402.209 365.793 404 368 404 370.215 404 372 402.209 372 400.004 372 397.791 370.207 396 368 396 365.793 396 364 397.791 364 400.004Z" fill="#EF553C" fill-rule="evenodd"/><path d="M359 389C359 390.654 360.563 392 362.5 392 364.429 392 366 390.661 366 389 366 387.346 364.437 386 362.5 386 360.563 386.007 359 387.346 359 389Z" fill="#EF553C" fill-rule="evenodd"/><path d="M353 381.5C353 382.882 354.12 384 355.496 384 356.88 384 358 382.882 358 381.5 358 380.118 356.88 379 355.496 379 354.12 379.008 353 380.126 353 381.5Z" fill="#EF553C" fill-rule="evenodd"/><path d="M347 376C347 377.108 347.9 378 349 378 350.108 378 351 377.1 351 376 351 374.892 350.1 374 349 374 347.9 373.992 347 374.892 347 376Z" fill="#EF553C" fill-rule="evenodd"/><path d="M364 425.996C364 423.791 365.793 422 368 422 370.215 422 372 423.791 372 425.996 372 428.209 370.207 430 368 430 365.793 429.992 364 428.201 364 425.996Z" fill="#EF553C" fill-rule="evenodd"/><path d="M359 436.997C359 435.341 360.563 434 362.5 434 364.429 434 366 435.341 366 436.997 366 438.652 364.437 440 362.5 440 360.563 440 359 438.652 359 436.997Z" fill="#EF553C" fill-rule="evenodd"/><path d="M353 444.5C353 443.118 354.12 442 355.496 442 356.88 442 358 443.118 358 444.5 358 445.882 356.88 447 355.496 447 354.12 447 353 445.882 353 444.5Z" fill="#EF553C" fill-rule="evenodd"/><path d="M329 412C329 414.215 327.207 416 325 416 322.793 416 321 414.207 321 412 321 409.785 322.793 408 325 408 327.207 407.992 329 409.785 329 412Z" fill="#49A3E4" fill-rule="evenodd"/><path d="M333 400.004C333 402.209 331.209 404 328.996 404 326.791 404 325 402.209 325 400.004 325 397.791 326.791 396 328.996 396 331.209 396 333 397.791 333 400.004Z" fill="#49A3E4" fill-rule="evenodd"/><path d="M338 389C338 390.654 336.659 392 335.003 392 333.348 392 332 390.661 332 389 332 387.346 333.341 386 335.003 386 336.659 386.007 338 387.346 338 389Z" fill="#49A3E4" fill-rule="evenodd"/><path d="M345 381.5C345 382.882 343.882 384 342.5 384 341.118 384 340 382.882 340 381.5 340 380.118 341.118 379 342.5 379 343.882 379.008 345 380.126 345 381.5Z" fill="#49A3E4" fill-rule="evenodd"/><path d="M333 425.996C333 423.791 331.209 422 328.996 422 326.791 422 325 423.791 325 425.996 325 428.209 326.791 430 328.996 430 331.209 429.992 333 428.201 333 425.996Z" fill="#49A3E4" fill-rule="evenodd"/><path d="M338 436.997C338 435.341 336.659 434 335.003 434 333.348 434 332 435.341 332 436.997 332 438.652 333.341 440 335.003 440 336.659 440 338 438.652 338 436.997Z" fill="#49A3E4" fill-rule="evenodd"/><path d="M345 444.5C345 443.118 343.882 442 342.5 442 341.118 442 340 443.118 340 444.5 340 445.882 341.118 447 342.5 447 343.882 447 345 445.882 345 444.5Z" fill="#49A3E4" fill-rule="evenodd"/><path d="M372 561 325 561" stroke="#FFFFFF" stroke-width="3.74289" stroke-miterlimit="8" fill="none" fill-rule="evenodd"/><path d="M369 574 329 574" stroke="#FFFFFF" stroke-width="3.74289" stroke-miterlimit="8" fill="none" fill-rule="evenodd"/><path d="M363 585 335 585" stroke="#FFFFFF" stroke-width="2.49522" stroke-miterlimit="8" fill="none" fill-rule="evenodd"/><path d="M356 592 342 592" stroke="#FFFFFF" stroke-width="2.49522" stroke-miterlimit="8" fill="none" fill-rule="evenodd"/><path d="M369 548 329 548" stroke="#FFFFFF" stroke-width="3.74289" stroke-miterlimit="8" fill="none" fill-rule="evenodd"/><path d="M363 537 335 537" stroke="#FFFFFF" stroke-width="2.49522" stroke-miterlimit="8" fill="none" fill-rule="evenodd"/><path d="M356 529 342 529" stroke="#FFFFFF" stroke-width="2.49522" stroke-miterlimit="8" fill="none" fill-rule="evenodd"/><path d="M368 560.996C368 558.791 369.793 557 372 557 374.207 557 376 558.791 376 560.996 376 563.209 374.207 565 372 565 369.793 564.992 368 563.201 368 560.996Z" fill="#EF553C" fill-rule="evenodd"/><path d="M364 573.996C364 571.784 365.793 570 368 570 370.215 570 372 571.791 372 573.996 372 576.209 370.207 578 368 578 365.793 578 364 576.209 364 573.996Z" fill="#EF553C" fill-rule="evenodd"/><path d="M359 584.496C359 582.564 360.563 581 362.5 581 364.429 581 366 582.564 366 584.496 366 586.428 364.437 588 362.5 588 360.563 588 359 586.428 359 584.496Z" fill="#EF553C" fill-rule="evenodd"/><path d="M353 592.5C353 591.118 354.12 590 355.496 590 356.88 590 358 591.118 358 592.5 358 593.882 356.88 595 355.496 595 354.12 595 353 593.882 353 592.5Z" fill="#EF553C" fill-rule="evenodd"/><path d="M347 598.004C347 596.898 347.9 596 349 596 350.108 596 351 596.898 351 598.004 351 599.11 350.1 600 349 600 347.9 600 347 599.102 347 598.004Z" fill="#EF553C" fill-rule="evenodd"/><path d="M364 548C364 550.207 365.793 552 368 552 370.215 552 372 550.207 372 548 372 545.785 370.207 544 368 544 365.793 543.992 364 545.785 364 548Z" fill="#EF553C" fill-rule="evenodd"/><path d="M359 536.504C359 538.436 360.563 540 362.5 540 364.429 540 366 538.436 366 536.504 366 534.572 364.437 533 362.5 533 360.563 533.008 359 534.572 359 536.504Z" fill="#EF553C" fill-rule="evenodd"/><path d="M353 529.504C353 530.888 354.12 532 355.496 532 356.88 532 358 530.88 358 529.504 358 528.12 356.88 527 355.496 527 354.12 527.008 353 528.128 353 529.504Z" fill="#EF553C" fill-rule="evenodd"/><path d="M329 560.996C329 558.791 327.207 557 325 557 322.793 557 321 558.791 321 560.996 321 563.209 322.793 565 325 565 327.207 564.992 329 563.201 329 560.996Z" fill="#49A3E4" fill-rule="evenodd"/><path d="M333 573.996C333 571.784 331.209 570 328.996 570 326.791 570 325 571.791 325 573.996 325 576.209 326.791 578 328.996 578 331.209 578 333 576.209 333 573.996Z" fill="#49A3E4" fill-rule="evenodd"/><path d="M338 584.496C338 582.564 336.659 581 335.003 581 333.348 581 332 582.564 332 584.496 332 586.428 333.341 588 335.003 588 336.659 588 338 586.428 338 584.496Z" fill="#49A3E4" fill-rule="evenodd"/><path d="M345 592.5C345 591.118 343.882 590 342.5 590 341.118 590 340 591.118 340 592.5 340 593.882 341.118 595 342.5 595 343.882 595 345 593.882 345 592.5Z" fill="#49A3E4" fill-rule="evenodd"/><path d="M333 548C333 550.207 331.209 552 328.996 552 326.791 552 325 550.207 325 548 325 545.785 326.791 544 328.996 544 331.209 543.992 333 545.785 333 548Z" fill="#49A3E4" fill-rule="evenodd"/><path d="M338 536.504C338 538.436 336.659 540 335.003 540 333.348 540 332 538.436 332 536.504 332 534.572 333.341 533 335.003 533 336.659 533.008 338 534.572 338 536.504Z" fill="#49A3E4" fill-rule="evenodd"/><path d="M345 529.504C345 530.888 343.882 532 342.5 532 341.118 532 340 530.88 340 529.504 340 528.12 341.118 527 342.5 527 343.882 527.008 345 528.128 345 529.504Z" fill="#49A3E4" fill-rule="evenodd"/><path d="M316 370 326 370 326 602 316 602Z" fill="#BBE0FF" fill-rule="evenodd" fill-opacity="0.501961"/><path d="M303 602 394 602 394 610 303 610Z" fill="#8787A0" fill-rule="evenodd"/><path d="M299 610 399 610 399 622 299 622Z" fill="#37374F" fill-rule="evenodd"/><path d="M303 363 394 363 394 370 303 370Z" fill="#8787A0" fill-rule="evenodd"/><path d="M299 351 399 351 399 363 299 363Z" fill="#37374F" fill-rule="evenodd"/><path d="M254 403 280 390" stroke="#FFFFFF" stroke-width="2.32924" stroke-miterlimit="8" fill="none" fill-rule="evenodd"/><path d="M252 395 274 384" stroke="#FFFFFF" stroke-width="2.32924" stroke-miterlimit="8" fill="none" fill-rule="evenodd"/><path d="M253 387 268 379" stroke="#FFFFFF" stroke-width="1.55276" stroke-miterlimit="8" fill="none" fill-rule="evenodd"/><path d="M254 381 262 377" stroke="#FFFFFF" stroke-width="1.55276" stroke-miterlimit="8" fill="none" fill-rule="evenodd"/><path d="M260 410 282 398" stroke="#FFFFFF" stroke-width="2.32924" stroke-miterlimit="8" fill="none" fill-rule="evenodd"/><path d="M267 414 282 406" stroke="#FFFFFF" stroke-width="1.55276" stroke-miterlimit="8" fill="none" fill-rule="evenodd"/><path d="M273 416 280 412" stroke="#FFFFFF" stroke-width="1.55276" stroke-miterlimit="8" fill="none" fill-rule="evenodd"/><path d="M256.711 402.332C257.353 403.549 256.892 405.068 255.668 405.711 254.451 406.353 252.932 405.892 252.29 404.668 251.647 403.443 252.108 401.932 253.332 401.29 254.557 400.647 256.068 401.108 256.711 402.332Z" fill="#EF553C" fill-rule="evenodd"/><path d="M254.711 394.332C255.353 395.557 254.892 397.068 253.668 397.711 252.451 398.353 250.932 397.892 250.29 396.668 249.647 395.443 250.108 393.932 251.332 393.29 252.549 392.647 254.061 393.108 254.711 394.332Z" fill="#EF553C" fill-rule="evenodd"/><path d="M254.77 386.067C255.283 387.041 254.909 388.25 253.934 388.77 252.96 389.283 251.75 388.909 251.23 387.935 250.717 386.96 251.091 385.752 252.066 385.231 253.04 384.719 254.25 385.085 254.77 386.067Z" fill="#EF553C" fill-rule="evenodd"/><path d="M255.825 380.801C256.215 381.536 255.93 382.443 255.202 382.825 254.466 383.215 253.558 382.93 253.175 382.203 252.785 381.468 253.07 380.561 253.798 380.171 254.526 379.789 255.435 380.066 255.825 380.801Z" fill="#EF553C" fill-rule="evenodd"/><path d="M257.827 375.534C258.213 376.023 257.933 376.627 257.2 376.884 256.466 377.142 255.559 376.955 255.173 376.466 254.787 375.978 255.067 375.373 255.801 375.116 256.534 374.858 257.441 375.045 257.827 375.534Z" fill="#EF553C" fill-rule="evenodd"/><path d="M262.71 408.331C262.068 407.114 260.556 406.646 259.331 407.288 258.114 407.931 257.646 409.45 258.288 410.667 258.931 411.892 260.45 412.353 261.667 411.71 262.892 411.068 263.353 409.548 262.71 408.331Z" fill="#EF553C" fill-rule="evenodd"/><path d="M268.767 413.066C268.254 412.091 267.046 411.717 266.065 412.23 265.091 412.743 264.717 413.96 265.23 414.934 265.742 415.909 266.958 416.283 267.932 415.77 268.906 415.257 269.287 414.048 268.767 413.066Z" fill="#EF553C" fill-rule="evenodd"/><path d="M273.828 414.799C273.438 414.064 272.53 413.787 271.802 414.177 271.067 414.566 270.789 415.474 271.172 416.201 271.562 416.936 272.47 417.213 273.205 416.823 273.933 416.441 274.211 415.534 273.828 414.799Z" fill="#EF553C" fill-rule="evenodd"/><path d="M278.23 390.669C278.745 391.886 279.954 392.354 280.934 391.712 281.914 391.069 282.282 389.55 281.768 388.333 281.254 387.108 280.045 386.647 279.065 387.29 278.091 387.94 277.716 389.452 278.23 390.669Z" fill="#49A3E4" fill-rule="evenodd"/><path d="M272.288 384.667C272.931 385.892 274.443 386.353 275.668 385.71 276.886 385.068 277.355 383.556 276.712 382.331 276.069 381.114 274.557 380.646 273.332 381.288 272.114 381.938 271.645 383.45 272.288 384.667Z" fill="#49A3E4" fill-rule="evenodd"/><path d="M266.23 379.934C266.743 380.909 267.96 381.283 268.934 380.77 269.909 380.257 270.283 379.048 269.77 378.066 269.257 377.091 268.048 376.717 267.066 377.23 266.091 377.743 265.717 378.952 266.23 379.934Z" fill="#49A3E4" fill-rule="evenodd"/><path d="M260.172 378.203C260.563 378.936 261.471 379.213 262.2 378.824 262.936 378.435 263.214 377.53 262.823 376.797 262.433 376.064 261.524 375.787 260.788 376.176 260.067 376.565 259.789 377.47 260.172 378.203Z" fill="#49A3E4" fill-rule="evenodd"/><path d="M279.29 399.665C278.647 398.449 279.108 396.931 280.332 396.289 281.557 395.647 283.068 396.108 283.711 397.332 284.353 398.547 283.892 400.065 282.668 400.707 281.451 401.357 279.939 400.889 279.29 399.665Z" fill="#49A3E4" fill-rule="evenodd"/><path d="M280.23 406.932C279.717 405.959 280.091 404.752 281.065 404.233 282.04 403.713 283.249 404.094 283.769 405.067 284.282 406.04 283.915 407.246 282.933 407.766 281.952 408.285 280.743 407.912 280.23 406.932Z" fill="#49A3E4" fill-rule="evenodd"/><path d="M278.175 413.199C277.785 412.464 278.07 411.557 278.798 411.175 279.534 410.785 280.442 411.07 280.825 411.797 281.215 412.532 280.93 413.439 280.202 413.829 279.474 414.211 278.565 413.934 278.175 413.199Z" fill="#49A3E4" fill-rule="evenodd"/><path d="M278.884 416.534C278.627 416.045 278.023 415.858 277.534 416.116 277.045 416.373 276.858 416.978 277.116 417.466 277.373 417.955 277.978 418.142 278.466 417.884 278.955 417.627 279.142 417.023 278.884 416.534Z" fill="#49A3E4" fill-rule="evenodd"/><path d="M258 349 233 363" stroke="#FFFFFF" stroke-width="2.32924" stroke-miterlimit="8" fill="none" fill-rule="evenodd"/><path d="M261 357 239 369" stroke="#FFFFFF" stroke-width="2.32924" stroke-miterlimit="8" fill="none" fill-rule="evenodd"/><path d="M260 365 245 373" stroke="#FFFFFF" stroke-width="1.55276" stroke-miterlimit="8" fill="none" fill-rule="evenodd"/><path d="M258 371 251 375" stroke="#FFFFFF" stroke-width="1.55276" stroke-miterlimit="8" fill="none" fill-rule="evenodd"/><path d="M256.288 349.669C256.931 350.886 258.443 351.354 259.667 350.712 260.892 350.069 261.353 348.557 260.71 347.333 260.068 346.108 258.556 345.647 257.331 346.29 256.114 346.932 255.646 348.444 256.288 349.669Z" fill="#EF553C" fill-rule="evenodd"/><path d="M258.29 358.669C257.647 357.452 258.108 355.932 259.332 355.29 260.557 354.647 262.068 355.108 262.711 356.333 263.353 357.557 262.892 359.069 261.668 359.712 260.451 360.354 258.939 359.886 258.29 358.669Z" fill="#EF553C" fill-rule="evenodd"/><path d="M258.23 365.934C257.717 364.96 258.091 363.75 259.066 363.23 260.04 362.717 261.25 363.091 261.77 364.066 262.283 365.04 261.909 366.25 260.934 366.77 259.952 367.283 258.743 366.909 258.23 365.934Z" fill="#EF553C" fill-rule="evenodd"/><path d="M257.175 372.202C256.785 371.466 257.07 370.558 257.804 370.175 258.537 369.785 259.443 370.07 259.825 370.798 260.215 371.534 259.93 372.442 259.204 372.825 258.47 373.215 257.564 372.93 257.175 372.202Z" fill="#EF553C" fill-rule="evenodd"/><path d="M234.711 361.331C235.353 362.548 234.892 364.068 233.668 364.71 232.443 365.353 230.932 364.892 230.29 363.667 229.647 362.443 230.108 360.931 231.332 360.288 232.557 359.646 234.068 360.114 234.711 361.331Z" fill="#49A3E4" fill-rule="evenodd"/><path d="M240.712 367.333C240.069 366.108 238.557 365.647 237.333 366.29 236.108 366.932 235.647 368.444 236.29 369.669 236.932 370.886 238.444 371.354 239.669 370.712 240.886 370.069 241.354 368.557 240.712 367.333Z" fill="#49A3E4" fill-rule="evenodd"/><path d="M246.769 372.066C246.256 371.091 245.047 370.717 244.065 371.23 243.091 371.743 242.717 372.96 243.23 373.934 243.743 374.909 244.959 375.283 245.933 374.77 246.915 374.25 247.282 373.04 246.769 372.066Z" fill="#49A3E4" fill-rule="evenodd"/><path d="M252.828 374.799C252.437 374.064 251.529 373.787 250.8 374.177 250.064 374.566 249.786 375.474 250.177 376.201 250.567 376.936 251.476 377.213 252.205 376.823 252.933 376.434 253.211 375.526 252.828 374.799Z" fill="#49A3E4" fill-rule="evenodd"/><path d="M302 431 276 444" stroke="#FFFFFF" stroke-width="2.32924" stroke-miterlimit="8" fill="none" fill-rule="evenodd"/><path d="M296 424 274 436" stroke="#FFFFFF" stroke-width="2.32924" stroke-miterlimit="8" fill="none" fill-rule="evenodd"/><path d="M289 420 274 428" stroke="#FFFFFF" stroke-width="1.55276" stroke-miterlimit="8" fill="none" fill-rule="evenodd"/><path d="M283 418 276 422" stroke="#FFFFFF" stroke-width="1.55276" stroke-miterlimit="8" fill="none" fill-rule="evenodd"/><path d="M299.29 431.667C298.647 430.45 299.108 428.931 300.332 428.288 301.549 427.646 303.068 428.114 303.711 429.331 304.353 430.548 303.892 432.068 302.668 432.71 301.443 433.353 299.932 432.892 299.29 431.667Z" fill="#EF553C" fill-rule="evenodd"/><path d="M293.29 425.669C293.932 426.886 295.443 427.354 296.668 426.712 297.892 426.069 298.353 424.55 297.711 423.333 297.068 422.108 295.557 421.647 294.332 422.29 293.108 422.932 292.647 424.444 293.29 425.669Z" fill="#EF553C" fill-rule="evenodd"/><path d="M287.234 420.934C287.747 421.909 288.955 422.283 289.936 421.77 290.909 421.257 291.283 420.04 290.77 419.066 290.258 418.091 289.043 417.717 288.069 418.23 287.088 418.75 286.715 419.96 287.234 420.934Z" fill="#EF553C" fill-rule="evenodd"/><path d="M282.174 419.201C282.564 419.936 283.469 420.213 284.203 419.823 284.936 419.434 285.213 418.526 284.824 417.799 284.435 417.064 283.529 416.787 282.803 417.177 282.07 417.559 281.785 418.466 282.174 419.201Z" fill="#EF553C" fill-rule="evenodd"/><path d="M277.707 443.331C277.065 442.114 275.555 441.646 274.332 442.288 273.108 442.931 272.647 444.45 273.289 445.667 273.931 446.892 275.449 447.353 276.665 446.71 277.889 446.06 278.357 444.548 277.707 443.331Z" fill="#49A3E4" fill-rule="evenodd"/><path d="M276.711 434.331C277.353 435.548 276.892 437.068 275.668 437.71 274.451 438.353 272.932 437.892 272.29 436.667 271.647 435.443 272.108 433.931 273.332 433.288 274.557 432.646 276.068 433.114 276.711 434.331Z" fill="#49A3E4" fill-rule="evenodd"/><path d="M275.769 427.066C276.281 428.04 275.915 429.25 274.935 429.77 273.961 430.283 272.754 429.909 272.234 428.934 271.715 427.96 272.088 426.75 273.069 426.23 274.049 425.717 275.257 426.091 275.769 427.066Z" fill="#49A3E4" fill-rule="evenodd"/><path d="M276.825 420.799C277.215 421.534 276.93 422.442 276.197 422.825 275.463 423.215 274.557 422.93 274.175 422.202 273.785 421.467 274.07 420.559 274.796 420.177 275.53 419.786 276.436 420.064 276.825 420.799Z" fill="#49A3E4" fill-rule="evenodd"/><path d="M527 465 507 446" stroke="#FFFFFF" stroke-width="2.18625" stroke-miterlimit="8" fill="none" fill-rule="evenodd"/><path d="M531 458 514 442" stroke="#FFFFFF" stroke-width="2.18625" stroke-miterlimit="8" fill="none" fill-rule="evenodd"/><path d="M532.5 451.5 521.5 440.5" stroke="#FFFFFF" stroke-width="1.45753" stroke-miterlimit="8" fill="none" fill-rule="evenodd"/><path d="M532.5 445.5 527.5 440.5" stroke="#FFFFFF" stroke-width="1.45753" stroke-miterlimit="8" fill="none" fill-rule="evenodd"/><path d="M520 470 503 454" stroke="#FFFFFF" stroke-width="2.18625" stroke-miterlimit="8" fill="none" fill-rule="evenodd"/><path d="M513.5 471.5 502.5 460.5" stroke="#FFFFFF" stroke-width="1.45753" stroke-miterlimit="8" fill="none" fill-rule="evenodd"/><path d="M507.5 472.5 502.5 466.5" stroke="#FFFFFF" stroke-width="1.45753" stroke-miterlimit="8" fill="none" fill-rule="evenodd"/><path d="M525.549 463.626C524.789 464.424 524.821 465.692 525.626 466.451 526.424 467.211 527.692 467.179 528.451 466.374 529.211 465.576 529.179 464.308 528.374 463.549 527.576 462.789 526.315 462.821 525.549 463.626Z" fill="#EF553C" fill-rule="evenodd"/><path d="M528.686 456.625C527.736 457.423 527.777 458.691 528.782 459.451 529.78 460.21 531.365 460.178 532.314 459.38 533.264 458.582 533.223 457.314 532.218 456.554 531.212 455.788 529.635 455.82 528.686 456.625Z" fill="#EF553C" fill-rule="evenodd"/><path d="M531.411 449.624C530.842 450.428 530.866 451.692 531.469 452.449 532.072 453.214 533.021 453.175 533.589 452.379 534.158 451.575 534.134 450.311 533.531 449.554 532.933 448.789 531.979 448.82 531.411 449.624Z" fill="#EF553C" fill-rule="evenodd"/><path d="M531.416 444.47C530.841 445.069 530.865 446.02 531.472 446.587 532.07 447.162 533.021 447.13 533.587 446.531 534.154 445.932 534.138 444.981 533.531 444.406 532.933 443.839 531.983 443.871 531.416 444.47Z" fill="#EF553C" fill-rule="evenodd"/><path d="M531.273 439.313C530.896 439.711 530.91 440.349 531.314 440.726 531.712 441.103 532.349 441.09 532.726 440.692 533.103 440.294 533.09 439.656 532.692 439.279 532.288 438.895 531.657 438.909 531.273 439.313Z" fill="#EF553C" fill-rule="evenodd"/><path d="M518.55 467.775C519.31 466.778 520.574 466.737 521.379 467.687 522.178 468.636 522.211 470.212 521.45 471.218 520.69 472.223 519.427 472.264 518.621 471.314 517.822 470.357 517.79 468.772 518.55 467.775Z" fill="#EF553C" fill-rule="evenodd"/><path d="M511.55 470.468C512.307 469.865 513.571 469.842 514.375 470.415 515.179 470.982 515.21 471.935 514.453 472.532 513.696 473.134 512.424 473.157 511.628 472.59 510.824 472.011 510.785 471.064 511.55 470.468Z" fill="#EF553C" fill-rule="evenodd"/><path d="M506.412 470.467C506.98 469.866 507.933 469.842 508.533 470.411 509.134 470.979 509.158 471.932 508.589 472.533 508.021 473.134 507.068 473.158 506.46 472.589 505.867 472.021 505.843 471.068 506.412 470.467Z" fill="#EF553C" fill-rule="evenodd"/><path d="M509.313 447.378C508.364 448.177 506.779 448.21 505.781 447.456 504.775 446.695 504.735 445.426 505.693 444.627 506.642 443.821 508.219 443.789 509.225 444.549 510.223 445.316 510.263 446.579 509.313 447.378Z" fill="#49A3E4" fill-rule="evenodd"/><path d="M515.451 444.222C514.692 445.222 513.424 445.262 512.626 444.319 511.821 443.367 511.789 441.778 512.549 440.778 513.308 439.778 514.57 439.738 515.374 440.681 516.179 441.633 516.211 443.222 515.451 444.222Z" fill="#49A3E4" fill-rule="evenodd"/><path d="M522.453 441.377C521.695 442.18 520.422 442.211 519.626 441.447 518.821 440.691 518.79 439.428 519.547 438.624 520.305 437.821 521.57 437.79 522.375 438.546 523.179 439.311 523.21 440.574 522.453 441.377Z" fill="#49A3E4" fill-rule="evenodd"/><path d="M527.583 440.534C527.016 441.133 526.065 441.157 525.466 440.59 524.867 440.015 524.843 439.073 525.41 438.466 525.977 437.867 526.928 437.843 527.535 438.41 528.134 438.985 528.158 439.935 527.583 440.534Z" fill="#49A3E4" fill-rule="evenodd"/><path d="M505.314 455.22C506.264 454.222 506.223 452.636 505.218 451.686 504.22 450.736 502.635 450.777 501.686 451.783 500.736 452.781 500.777 454.367 501.782 455.317 502.78 456.267 504.365 456.218 505.314 455.22Z" fill="#49A3E4" fill-rule="evenodd"/><path d="M502.589 461.533C503.158 460.93 503.134 459.98 502.531 459.412 501.928 458.843 500.979 458.866 500.411 459.464 499.842 460.068 499.866 461.018 500.469 461.586 501.072 462.161 502.021 462.131 502.589 461.533Z" fill="#49A3E4" fill-rule="evenodd"/><path d="M502.589 467.535C503.158 466.936 503.134 465.985 502.533 465.41 501.932 464.843 500.98 464.867 500.411 465.466 499.842 466.065 499.866 467.016 500.467 467.583 501.06 468.158 502.013 468.134 502.589 467.535Z" fill="#49A3E4" fill-rule="evenodd"/><path d="M501.274 470.466C501.652 469.869 502.284 469.839 502.689 470.415 503.087 470.981 503.108 471.927 502.723 472.534 502.346 473.131 501.707 473.162 501.308 472.585 500.91 472.009 500.896 471.063 501.274 470.466Z" fill="#49A3E4" fill-rule="evenodd"/><path d="M537 415 557 434" stroke="#FFFFFF" stroke-width="2.18625" stroke-miterlimit="8" fill="none" fill-rule="evenodd"/><path d="M533 422 550 438" stroke="#FFFFFF" stroke-width="2.18625" stroke-miterlimit="8" fill="none" fill-rule="evenodd"/><path d="M531.5 429.5 543.5 440.5" stroke="#FFFFFF" stroke-width="1.45753" stroke-miterlimit="8" fill="none" fill-rule="evenodd"/><path d="M531.5 435.5 537.5 440.5" stroke="#FFFFFF" stroke-width="1.45753" stroke-miterlimit="8" fill="none" fill-rule="evenodd"/><path d="M538.451 416.22C537.691 417.219 536.422 417.267 535.624 416.316 534.825 415.366 534.787 413.779 535.547 412.78 536.307 411.781 537.569 411.733 538.374 412.684 539.179 413.634 539.211 415.221 538.451 416.22Z" fill="#EF553C" fill-rule="evenodd"/><path d="M534.45 423.378C535.21 422.579 535.178 421.31 534.379 420.549 533.574 419.789 532.31 419.821 531.55 420.627 530.79 421.426 530.822 422.695 531.621 423.456 532.426 424.21 533.69 424.177 534.45 423.378Z" fill="#EF553C" fill-rule="evenodd"/><path d="M532.453 430.381C533.21 429.575 533.179 428.308 532.375 427.549 531.578 426.79 530.306 426.822 529.548 427.619 528.791 428.425 528.822 429.692 529.618 430.451 530.423 431.21 531.688 431.178 532.453 430.381Z" fill="#EF553C" fill-rule="evenodd"/><path d="M532.59 436.535C533.157 435.936 533.133 434.985 532.534 434.41 531.935 433.843 530.985 433.867 530.41 434.466 529.843 435.065 529.867 436.016 530.466 436.583 531.073 437.158 532.023 437.134 532.59 436.535Z" fill="#EF553C" fill-rule="evenodd"/><path d="M555.55 431.777C554.79 432.776 554.822 434.363 555.621 435.313 556.426 436.264 557.69 436.224 558.45 435.217 559.21 434.218 559.178 432.631 558.379 431.681 557.574 430.738 556.31 430.778 555.55 431.777Z" fill="#49A3E4" fill-rule="evenodd"/><path d="M547.688 436.624C548.638 435.825 550.217 435.787 551.224 436.547 552.223 437.307 552.263 438.57 551.312 439.376 550.362 440.175 548.783 440.214 547.776 439.453 546.777 438.686 546.737 437.423 547.688 436.624Z" fill="#49A3E4" fill-rule="evenodd"/><path d="M541.547 438.624C542.305 437.82 543.57 437.789 544.375 438.553 545.179 439.31 545.21 440.581 544.453 441.376 543.695 442.18 542.422 442.211 541.625 441.447 540.821 440.682 540.79 439.419 541.547 438.624Z" fill="#49A3E4" fill-rule="evenodd"/><path d="M535.416 439.467C535.99 438.866 536.933 438.842 537.531 439.411 538.13 439.979 538.162 440.932 537.587 441.533 537.02 442.134 536.07 442.158 535.472 441.589 534.865 441.021 534.841 440.068 535.416 439.467Z" fill="#49A3E4" fill-rule="evenodd"/><path d="M477 478 497 497" stroke="#FFFFFF" stroke-width="2.18625" stroke-miterlimit="8" fill="none" fill-rule="evenodd"/><path d="M484 473 501 489" stroke="#FFFFFF" stroke-width="2.18625" stroke-miterlimit="8" fill="none" fill-rule="evenodd"/><path d="M491.5 471.5 503.5 482.5" stroke="#FFFFFF" stroke-width="1.45753" stroke-miterlimit="8" fill="none" fill-rule="evenodd"/><path d="M497.5 471.5 503.5 476.5" stroke="#FFFFFF" stroke-width="1.45753" stroke-miterlimit="8" fill="none" fill-rule="evenodd"/><path d="M478.451 479.377C479.211 478.578 479.179 477.31 478.374 476.55 477.576 475.79 476.309 475.822 475.549 476.621 474.79 477.419 474.822 478.688 475.62 479.448 476.424 480.214 477.686 480.176 478.451 479.377Z" fill="#EF553C" fill-rule="evenodd"/><path d="M486.313 475.225C485.363 476.223 483.785 476.263 482.779 475.313 481.781 474.363 481.732 472.778 482.69 471.78 483.64 470.782 485.218 470.733 486.224 471.683 487.223 472.641 487.263 474.218 486.313 475.225Z" fill="#EF553C" fill-rule="evenodd"/><path d="M492.45 472.534C491.693 473.131 490.429 473.16 489.625 472.587 488.821 472.019 488.79 471.066 489.547 470.469 490.304 469.866 491.568 469.843 492.372 470.41 493.176 470.984 493.215 471.932 492.45 472.534Z" fill="#EF553C" fill-rule="evenodd"/><path d="M498.591 472.533C498.016 473.134 497.075 473.158 496.468 472.589 495.87 472.021 495.838 471.068 496.412 470.467 496.979 469.866 497.928 469.842 498.535 470.411 499.133 470.971 499.157 471.924 498.591 472.533Z" fill="#EF553C" fill-rule="evenodd"/><path d="M495.55 494.775C496.31 493.777 497.572 493.737 498.377 494.687 499.176 495.637 499.214 497.222 498.448 498.22 497.688 499.218 496.426 499.267 495.621 498.317 494.822 497.359 494.79 495.773 495.55 494.775Z" fill="#49A3E4" fill-rule="evenodd"/><path d="M499.549 487.777C498.789 488.776 498.821 490.363 499.626 491.313 500.424 492.264 501.692 492.224 502.451 491.217 503.211 490.218 503.179 488.631 502.374 487.681 501.576 486.738 500.308 486.778 499.549 487.777Z" fill="#49A3E4" fill-rule="evenodd"/><path d="M501.547 481.468C500.79 482.065 500.821 483.019 501.625 483.587 502.43 484.161 503.694 484.131 504.452 483.534 505.209 482.931 505.178 481.983 504.382 481.415 503.57 480.842 502.305 480.865 501.547 481.468Z" fill="#49A3E4" fill-rule="evenodd"/><path d="M501.411 475.473C500.842 476.072 500.866 477.023 501.467 477.59 502.068 478.157 503.021 478.133 503.589 477.534 504.158 476.927 504.134 475.984 503.533 475.409 502.94 474.842 501.988 474.866 501.411 475.473Z" fill="#49A3E4" fill-rule="evenodd"/><path d="M442 590 457 590 457 609 442 609Z" fill="#FFFFFF" fill-rule="evenodd"/><path d="M436 609 464 609 464 613 436 613Z" fill="#8787A0" fill-rule="evenodd"/><path d="M410 613 490 613 490 622 410 622Z" fill="#37374F" fill-rule="evenodd"/><path d="M418 573 418 581" stroke="#8787A0" stroke-width="5.83055" stroke-linecap="round" stroke-linejoin="round" stroke-miterlimit="10" fill="none" fill-rule="evenodd"/><path d="M466.877 533C480.374 546.268 480.374 567.78 466.877 581.049 453.38 594.317 431.497 594.317 418 581.049" stroke="#8787A0" stroke-width="5.83055" stroke-linecap="round" stroke-linejoin="round" stroke-miterlimit="10" fill="none" fill-rule="evenodd"/><path d="M482.635 501.764C483.122 502.251 483.122 503.037 482.635 503.524L473.521 512.635C473.034 513.122 472.247 513.122 471.76 512.635L463.365 504.236C462.878 503.749 462.878 502.963 463.365 502.476L472.479 493.365C472.966 492.878 473.753 492.878 474.24 493.365L482.635 501.764Z" fill="#3793CC" fill-rule="evenodd"/><path d="M476.469 512.767C477.177 513.488 477.177 514.659 476.469 515.387L439.083 553.46C438.376 554.18 437.219 554.18 436.511 553.46L423.531 540.241C422.823 539.52 422.823 538.341 423.531 537.621L460.917 499.54C461.624 498.82 462.774 498.82 463.489 499.54L476.469 512.767Z" fill="#FFFFFF" fill-rule="evenodd"/><path d="M463.816 497.615C463.02 496.795 461.726 496.795 460.93 497.615L446 512.994 463.466 531 478.403 515.614C479.199 514.793 479.199 513.461 478.403 512.64L463.816 497.615Z" fill="#49A3E4" fill-rule="evenodd"/><path d="M418.207 539.936 422.699 535.44 441.33 554.06 436.837 558.555Z" fill="#37374F" fill-rule="evenodd"/><path d="M470.987 492.285 475.481 487.79 488.969 501.275 484.476 505.769Z" fill="#37374F" fill-rule="evenodd"/><path d="M472.656 527.197C475.781 530.127 475.781 534.873 472.656 537.803 469.531 540.732 464.469 540.732 461.344 537.803 458.219 534.873 458.219 530.127 461.344 527.197 464.469 524.268 469.539 524.268 472.656 527.197Z" fill="#EF553C" fill-rule="evenodd"/><path d="M421.681 578.168C423.44 579.732 423.44 582.263 421.681 583.827 419.923 585.391 417.077 585.391 415.319 583.827 413.56 582.263 413.56 579.732 415.319 578.168 417.077 576.611 419.923 576.611 421.681 578.168Z" fill="#EF553C" fill-rule="evenodd"/><path d="M403 568 433 568 433 574 403 574Z" fill="#FFB433" fill-rule="evenodd"/><path d="M405 567 431 567 431 568 405 568Z" fill="#8787A0" fill-rule="evenodd"/><path d="M484.5 390C484.5 411.263 478.681 428.5 471.5 428.5 464.319 428.5 458.5 411.263 458.5 390 458.5 368.737 464.319 351.5 471.5 351.5 478.681 351.5 484.5 368.737 484.5 390Z" stroke="#8787A0" stroke-width="2.59738" stroke-miterlimit="8" fill="none" fill-rule="evenodd"/><path d="M481.039 382.009C499.056 397.113 509.392 412.937 504.127 417.349 498.862 421.761 479.985 413.102 461.961 397.991 443.944 382.887 433.608 367.062 438.874 362.65 444.146 358.238 463.023 366.905 481.039 382.009Z" stroke="#8787A0" stroke-width="2.59738" stroke-miterlimit="8" fill="none" fill-rule="evenodd"/><path d="M461.964 382.009C443.947 397.113 433.603 412.937 438.876 417.349 444.142 421.761 463.019 413.102 481.036 397.991 499.053 382.887 509.397 367.062 504.124 362.65 498.859 358.238 479.981 366.905 461.964 382.009Z" stroke="#8787A0" stroke-width="2.59738" stroke-miterlimit="8" fill="none" fill-rule="evenodd"/><path d="M478 389.5C478 393.092 474.868 396 471 396 467.132 396 464 393.092 464 389.5 464 385.908 467.132 383 471 383 474.868 383.007 478 385.915 478 389.5Z" fill="#37374F" fill-rule="evenodd"/><path d="M493 363.5C493 364.877 491.659 366 489.996 366 488.341 366 487 364.884 487 363.5 487 362.123 488.341 361 489.996 361 491.651 361 493 362.116 493 363.5Z" fill="#EF553C" fill-rule="evenodd"/><path d="M446 379.5C446 380.877 444.884 382 443.5 382 442.123 382 441 380.884 441 379.5 441 378.123 442.116 377 443.5 377 444.884 377 446 378.123 446 379.5Z" fill="#49A3E4" fill-rule="evenodd"/><path d="M480 423.5C480 424.877 478.661 426 477 426 475.347 426 474 424.884 474 423.5 474 422.123 475.339 421 477 421 478.653 421 480 422.123 480 423.5Z" fill="#FFB433" fill-rule="evenodd"/><path d="M318 619.393C318 620.831 316.821 622 315.373 622L214.627 622C213.179 622 212 620.831 212 619.393L212 481.607C212 480.169 213.179 479 214.627 479L315.373 479C316.821 479 318 480.169 318 481.607L318 619.393Z" fill="#AAAAC1" fill-rule="evenodd"/><path d="M314.993 616.484C314.993 617.872 313.879 619 312.512 619L217.481 619C216.113 619 215 617.872 215 616.484L215 483.517C215 482.128 216.113 481 217.481 481L312.519 481C313.887 481 315 482.128 315 483.517L315 616.484Z" fill="#8787A0" fill-rule="evenodd"/><path d="M222 489 308 489 308 610 222 610Z" fill="#FFFFFF" fill-rule="evenodd"/><path d="M222 489 308 489 308 525 222 525Z" fill="#FFB433" fill-rule="evenodd"/><path d="M231 503 286 503 286 506 231 506Z" fill="#FF9933" fill-rule="evenodd"/><path d="M231 509 263 509 263 511 231 511Z" fill="#FF9933" fill-rule="evenodd"/><path d="M231 515 272 515 272 517 231 517Z" fill="#FF9933" fill-rule="evenodd"/><path d="M249 536 299 536 299 538 249 538Z" fill="#37374F" fill-rule="evenodd"/><path d="M249 541 299 541 299 544 249 544Z" fill="#C7D0E2" fill-rule="evenodd"/><path d="M249 547 277 547 277 549 249 549Z" fill="#C7D0E2" fill-rule="evenodd"/><path d="M242.264 537.736 242.264 547.272 232.728 547.272 232.728 537.736 242.264 537.736M244 536 231 536 231 549 244 549 244 536 244 536Z" fill="#C7D0E2" fill-rule="evenodd"/><path d="M249 559 299 559 299 562 249 562Z" fill="#37374F" fill-rule="evenodd"/><path d="M249 565 299 565 299 567 249 567Z" fill="#C7D0E2" fill-rule="evenodd"/><path d="M249 570 277 570 277 572 249 572Z" fill="#C7D0E2" fill-rule="evenodd"/><path d="M242.264 560.728 242.264 570.264 232.728 570.264 232.728 560.728 242.264 560.728M244 559 231 559 231 572 244 572 244 559 244 559Z" fill="#C7D0E2" fill-rule="evenodd"/><path d="M249 583 299 583 299 585 249 585Z" fill="#37374F" fill-rule="evenodd"/><path d="M249 588 299 588 299 591 249 591Z" fill="#C7D0E2" fill-rule="evenodd"/><path d="M249 594 277 594 277 596 249 596Z" fill="#C7D0E2" fill-rule="evenodd"/><path d="M242.264 584.736 242.264 594.272 232.728 594.272 232.728 584.736 242.264 584.736M244 583 231 583 231 596 244 596 244 583 244 583Z" fill="#C7D0E2" fill-rule="evenodd"/><path d="M234 541.128 237.704 544 245 536" stroke="#B84228" stroke-width="3.50121" stroke-miterlimit="8" fill="none" fill-rule="evenodd"/><path d="M234 565.135 237.704 568 245 560" stroke="#B84228" stroke-width="3.50121" stroke-miterlimit="8" fill="none" fill-rule="evenodd"/><path d="M286 492.72C286 493.983 284.975 495 283.719 495L246.281 495C245.025 495 244 493.983 244 492.72L244 480.288C244 479.024 245.025 478 246.281 478L283.719 478C284.975 478 286 479.024 286 480.288L286 492.72Z" stroke="#37374F" stroke-width="2.03622" stroke-miterlimit="8" fill="none" fill-rule="evenodd"/><path d="M291 484.449C291 485.304 290.279 486 289.388 486L240.605 486C239.721 486 239 485.304 239 484.449L239 473.558C239 472.696 239.721 472 240.605 472L289.388 472C290.279 472 291 472.696 291 473.558L291 484.449Z" fill="#37374F" fill-rule="evenodd"/><path d="M289.395 472 240.605 472C239.721 472 239 472.696 239 473.556L239 479 291 479 291 473.556C291.007 472.696 290.287 472 289.395 472Z" fill="#2D2D44" fill-rule="evenodd"/><path d="M494.03 554 494.007 593.428 494.007 597.26 494 610.903C494 617.031 498.913 622 504.974 622L504.974 622C511.042 622 515.963 617.039 515.963 610.91L515.97 597.268 515.978 593.436 516 554.008 494.03 554Z" fill="#FFFFFF" fill-rule="evenodd"/><path d="M494 554 516 554 516 565 494 565Z" fill="#E2E2ED" fill-rule="evenodd"/><path d="M488 550 523 550 523 559 488 559Z" fill="#FFFFFF" fill-rule="evenodd"/><path d="M498.015 581 498 606.688 498.008 599.881 498 608.773C498 612.766 501.353 616 505.485 616L505.485 616C509.624 616 512.977 612.766 512.985 608.781L512.985 599.889 512.985 597.391 513 581.007 498.015 581Z" fill="#FFB433" fill-rule="evenodd"/><path d="M498 600 498 606.526 498 608.641C498 612.707 501.356 616 505.492 616L505.492 616C509.636 616 512.992 612.707 513 608.641L513 605.776C507.243 605.656 502.006 603.496 498 600Z" fill="#FF9933" fill-rule="evenodd"/><path d="M503 577.504C503 578.333 502.328 579 501.5 579 500.672 579 500 578.326 500 577.504 500 576.674 500.672 576 501.5 576 502.328 576 503 576.674 503 577.504Z" fill="#FFB433" fill-rule="evenodd"/><path d="M514 562.504C514 563.333 513.328 564 512.5 564 511.672 564 511 563.326 511 562.504 511 561.674 511.672 561 512.5 561 513.328 561.007 514 561.674 514 562.504Z" fill="#FFB433" fill-rule="evenodd"/><path d="M502 564.5C502 565.328 501.328 566 500.5 566 499.672 566 499 565.328 499 564.5 499 563.672 499.672 563 500.5 563 501.328 563 502 563.672 502 564.5Z" fill="#FFB433" fill-rule="evenodd"/><path d="M511 581C511 582.654 509.654 584 508 584 506.346 584 505 582.654 505 581 505 579.338 506.346 578 508 578 509.654 578 511 579.346 511 581Z" fill="#FFB433" fill-rule="evenodd"/><path d="M510 570C510 571.654 508.654 573 507 573 505.346 573 504 571.662 504 570 504 568.346 505.346 567 507 567 508.654 567 510 568.346 510 570Z" fill="#FFB433" fill-rule="evenodd"/><path d="M533.03 554 533.007 593.428 533.007 597.26 533 610.903C533 617.031 537.913 622 543.974 622L543.974 622C550.042 622 554.963 617.039 554.963 610.91L554.97 597.268 554.978 593.436 555 554.008 533.03 554Z" fill="#FFFFFF" fill-rule="evenodd"/><path d="M533 554 555 554 555 565 533 565Z" fill="#E2E2ED" fill-rule="evenodd"/><path d="M526 550 561 550 561 559 526 559Z" fill="#FFFFFF" fill-rule="evenodd"/><path d="M537.014 581 537 606.688 537.007 599.881 537 608.773C537 612.766 540.128 616 543.982 616L543.982 616C547.844 616 550.972 612.766 550.979 608.781L550.986 599.889 550.986 597.391 551 581.007 537.014 581Z" fill="#EF553C" fill-rule="evenodd"/><path d="M537 600 537 606.526 537 608.641C537 612.707 540.132 616 543.993 616L543.993 616C547.86 616 550.993 612.707 551 608.641L551 605.776C545.627 605.656 540.739 603.496 537 600Z" fill="#E04636" fill-rule="evenodd"/><path d="M542 577.504C542 578.333 541.328 579 540.5 579 539.672 579 539 578.326 539 577.504 539 576.674 539.672 576 540.5 576 541.328 576 542 576.674 542 577.504Z" fill="#EF553C" fill-rule="evenodd"/><path d="M552 562.504C552 563.333 551.328 564 550.5 564 549.672 564 549 563.326 549 562.504 549 561.674 549.672 561 550.5 561 551.328 561.007 552 561.674 552 562.504Z" fill="#EF553C" fill-rule="evenodd"/><path d="M541 564.5C541 565.328 540.104 566 539 566 537.897 566 537 565.328 537 564.5 537 563.672 537.897 563 539 563 540.104 563 541 563.672 541 564.5Z" fill="#EF553C" fill-rule="evenodd"/><path d="M550 581C550 582.654 548.654 584 547 584 545.346 584 544 582.654 544 581 544 579.338 545.346 578 547 578 548.654 578 550 579.346 550 581Z" fill="#EF553C" fill-rule="evenodd"/><path d="M549 570C549 571.654 547.654 573 546 573 544.346 573 543 571.662 543 570 543 568.346 544.346 567 546 567 547.654 567 549 568.346 549 570Z" fill="#EF553C" fill-rule="evenodd"/><path d="M381.707 482.325 386.728 475.558 397.488 483.542 392.467 490.309Z" fill="#8787A0" fill-rule="evenodd"/><path d="M391.565 491.083 397.944 482.485 420.016 498.86 413.637 507.458Z" fill="#FFB433" fill-rule="evenodd"/><path d="M410 504.764 416.379 496.166 420.012 498.861 413.633 507.459Z" fill="#FF9933" fill-rule="evenodd"/><path d="M391.584 491.07 397.964 482.471 401.452 485.06 395.072 493.658Z" fill="#FF9933" fill-rule="evenodd"/><path d="M387.072 490.888 396.466 478.225 400.591 481.285 391.197 493.949Z" fill="#37374F" fill-rule="evenodd"/><path d="M410.655 508.383 420.05 495.719 424.175 498.78 414.781 511.443Z" fill="#37374F" fill-rule="evenodd"/><path d="M328.089 436.752C316.246 452.94 319.583 475.797 335.55 487.812 351.516 499.82 374.068 496.437 385.911 480.248 397.754 464.06 394.417 441.195 378.451 429.188 362.484 417.18 339.94 420.563 328.089 436.752ZM381.016 476.564C371.176 490.016 352.45 492.82 339.183 482.85 325.924 472.872 323.143 453.887 332.984 440.436 342.825 426.992 361.55 424.18 374.817 434.15 388.084 444.128 390.857 463.12 381.016 476.564Z" fill="#37374F" fill-rule="evenodd"/><path d="M373.684 436.513C386.103 445.727 388.698 463.263 379.484 475.682 370.27 488.101 352.735 490.697 340.316 481.49 327.897 472.276 325.302 454.74 334.516 442.321 343.73 429.902 361.265 427.299 373.684 436.513Z" fill="#D5EBFD" fill-rule="evenodd" fill-opacity="0.501961"/><path d="M332.909 441.124C323.037 454.433 325.819 473.218 339.128 483.091 352.429 492.963 371.22 490.181 381.091 476.871 390.963 463.569 388.181 444.776 374.872 434.904 361.564 425.039 342.773 427.821 332.909 441.124ZM379.485 475.688C370.268 488.112 352.726 490.709 340.303 481.499 327.88 472.281 325.284 454.738 334.501 442.314 343.718 429.89 361.259 427.293 373.682 436.511 386.105 445.721 388.701 463.264 379.485 475.688Z" fill="#2D2D44" fill-rule="evenodd"/></g></svg>